<?xml version="1.0" encoding="UTF-8"?>
<svg id="Capa_1" xmlns="http://www.w3.org/2000/svg" version="1.1" viewBox="0 0 59.79 17.1">
  <!-- Generator: Adobe Illustrator 30.2.1, SVG Export Plug-In . SVG Version: 2.1.1 Build 1)  -->
  <defs>
    <style>
      .st0 {
        fill: #f4d52e;
      }

      .st1 {
        fill: #1e1e1c;
      }
    </style>
  </defs>
  <path class="st0" d="M.02,0h4.18v5.99H.02V0ZM3.59.6H.62v4.78h2.97V.6Z"/>
  <path class="st1" d="M6.97,2.69h-.26c-.34-.48-.68-.96-1.01-1.49h0v1.49h-.29V.6h.26c.34.48.68.95,1.01,1.49h0V.6h.29v2.08Z"/>
  <path class="st1" d="M7.65,1.86c.08-.27.17-.53.24-.85h0c.08.32.16.57.23.85h-.48ZM7.79.6l-.72,2.08h.31l.18-.57h.63l.16.57h.4l-.66-2.08h-.3Z"/>
  <polygon class="st1" points="9.09 2.69 9.09 .88 8.54 .88 8.54 .6 9.99 .6 9.99 .88 9.44 .88 9.44 2.69 9.09 2.69"/>
  <rect class="st1" x="10.11" y=".6" width=".35" height="2.08"/>
  <path class="st1" d="M11.56,2.42c-.37,0-.5-.41-.5-.81s.15-.75.5-.75.5.37.5.75-.13.81-.5.81M11.56,2.72c.54,0,.88-.49.88-1.11,0-.58-.37-1.05-.88-1.05s-.88.46-.88,1.05c0,.62.34,1.11.88,1.11"/>
  <path class="st1" d="M14.23,2.69h-.26c-.34-.48-.68-.96-1.01-1.49h0v1.49h-.29V.6h.26c.34.48.68.95,1.01,1.49h0V.6h.29v2.08Z"/>
  <path class="st1" d="M14.9,1.86c.08-.27.17-.53.24-.85h0c.08.32.16.57.23.85h-.48ZM15.04.6l-.72,2.08h.31l.18-.57h.63l.16.57h.4l-.66-2.08h-.3Z"/>
  <polygon class="st1" points="16.11 .6 16.46 .6 16.46 2.41 17.17 2.41 17.17 2.69 16.11 2.69 16.11 .6"/>
  <path class="st1" d="M6.75,4.43v.86c-.19.07-.39.13-.59.13-.61,0-1-.48-1-1.09,0-.57.39-1.07,1.01-1.07.19,0,.39.07.51.16l-.12.25c-.1-.06-.24-.11-.38-.11-.38,0-.64.3-.64.77s.3.79.6.79c.1,0,.18-.01.25-.05v-.64h.36Z"/>
  <polygon class="st1" points="8.03 3.58 7.44 3.58 7.44 4.15 8.02 4.15 8.02 4.43 7.44 4.43 7.44 5.1 8.14 5.1 8.14 5.38 7.08 5.38 7.08 3.3 8.03 3.3 8.03 3.58"/>
  <path class="st1" d="M9.13,5.12c-.37,0-.5-.41-.5-.81s.15-.75.5-.75.5.37.5.75-.13.81-.5.81M9.13,5.42c.54,0,.88-.49.88-1.11,0-.58-.38-1.05-.88-1.05s-.88.46-.88,1.05c0,.62.34,1.11.88,1.11"/>
  <path class="st1" d="M11.73,4.43v.86c-.19.07-.39.13-.59.13-.61,0-1-.48-1-1.09,0-.57.39-1.07,1.01-1.07.19,0,.39.07.51.16l-.12.25c-.1-.06-.24-.11-.38-.11-.38,0-.64.3-.64.77s.3.79.6.79c.1,0,.18-.01.25-.05v-.64h.36Z"/>
  <path class="st1" d="M12.42,3.58h.16c.21,0,.33.12.33.34,0,.28-.17.4-.34.41-.04,0-.12,0-.15,0v-.76ZM13.32,5.38l-.42-.86c.23-.12.36-.37.36-.62,0-.4-.25-.6-.65-.6h-.56v2.08h.36v-.79h.16l.34.79h.41Z"/>
  <path class="st1" d="M13.91,4.56c.08-.27.17-.53.24-.85h0c.08.32.16.57.24.85h-.48ZM14.05,3.3l-.72,2.08h.31l.18-.57h.63l.16.57h.4l-.66-2.08h-.3Z"/>
  <path class="st1" d="M15.48,5.38h-.36v-2.08h.56c.4,0,.65.2.65.6,0,.35-.26.7-.68.7h-.17v-.26s.12,0,.15,0c.17,0,.34-.13.34-.41,0-.21-.12-.34-.33-.34h-.16v1.8Z"/>
  <polygon class="st1" points="17.98 5.38 17.62 5.38 17.62 4.38 16.88 4.38 16.88 5.38 16.53 5.38 16.53 3.3 16.88 3.3 16.88 4.1 17.62 4.1 17.62 3.3 17.98 3.3 17.98 5.38"/>
  <rect class="st1" x="18.32" y="3.3" width=".35" height="2.08"/>
  <path class="st1" d="M20.28,3.68c-.09-.05-.23-.12-.37-.12-.36,0-.63.3-.63.77s.29.79.64.79c.14,0,.26-.04.36-.1l.1.26c-.11.07-.3.14-.47.14-.61,0-1-.48-1-1.09,0-.57.38-1.07,1.01-1.07.18,0,.36.08.48.16l-.11.25Z"/>
  <path class="st1" d="M38.1,15.23h-.59v-6.17c0-.86.05-1.35.16-1.69l.05-.13h-2.83l.04.13c.12.34.16.83.16,1.69v6.22c0,.86-.05,1.35-.16,1.69l-.04.13h5.35v-2.09l-.12.03c-.47.13-1.09.19-2.01.19"/>
  <path class="st1" d="M0,9.37l.13-.05c.41-.15.91-.21,1.66-.21h.29v6.18c0,.86-.05,1.35-.16,1.69l-.04.13h2.83l-.04-.13c-.12-.34-.17-.83-.17-1.69v-6.18h.29c.75,0,1.25.06,1.66.21l.13.05v-2.12H0v2.12Z"/>
  <path class="st1" d="M59.7,16.95c-.22-.36-.41-.75-.49-1.94-.09-1.57-.56-2.1-1.33-2.42,1.27-.42,1.31-2.35,1.31-2.57,0-.74-.38-1.64-.87-2.04-.64-.53-1.49-.74-2.93-.74h-2.78l.05.13c.12.34.17.82.17,1.68v6.22c0,.86-.05,1.35-.17,1.68l-.05.13h2.73l-.05-.13c-.12-.34-.17-.83-.17-1.68v-1.86h.26c1.02,0,1.27.52,1.37,1.47.16,1.45.26,1.78.55,2.17l.03.04h2.46l-.09-.15ZM55.13,9.03h.16c.05,0,.12,0,.19,0,.04,0,.08,0,.12,0,.82,0,1.16.35,1.16,1.19,0,1.25-.54,1.42-1,1.42-.05,0-.11,0-.15,0-.04,0-.08,0-.11,0h-.36v-2.6Z"/>
  <path class="st1" d="M13.44,17.1h2.57l-.03-.12c-.09-.4-.05-.93.12-1.72l.22-.86.03-.12h2.54l.25.97c.17.79.21,1.32.12,1.72l-.03.12h2.99l-.08-.14c-.19-.34-.32-.81-.53-1.53l-1.14-3.99c-.46-1.59-.82-3.2-.93-4.1v-.09h-3.44v.09c-.1.74-.42,2.29-.94,4.1l-1.11,3.88-.03.11c-.15.54-.28.97-.41,1.3l-.02.04-.15.34ZM18.56,12.82h-1.88l.04-.17.71-2.27.19-.84.9,3.1.04.17Z"/>
  <path class="st1" d="M26.01,7.36c.09.4.05.93-.12,1.72l-1.3,4.66-1.39-4.65c-.17-.79-.21-1.32-.12-1.72l.03-.12h-2.83l.08.14c.19.34.33.84.52,1.53l1.12,3.99c.51,1.81.82,3.37.91,4.1v.09h2.99v-.09c.1-.74.41-2.3.92-4.1l1.12-3.99c.19-.69.33-1.19.52-1.53l.08-.14h-2.54l.03.12Z"/>
  <path class="st1" d="M34.25,15.03c-.47.13-1.09.19-2.01.19h-.87v-2.24h.59c.97,0,1.39.05,1.82.14l.12.02v-2.07l-.12.02c-.44.09-.86.14-1.82.14h-.59v-2.12h.7c.92,0,1.54.06,2.01.19l.12.03v-2.1h-5.43l.05.13c.12.34.16.82.16,1.69v6.22c0,.86-.05,1.35-.16,1.69l-.05.13h5.6v-2.1l-.12.03Z"/>
  <path class="st1" d="M52.1,15.03c-.47.13-1.09.19-2.01.19h-.87v-2.24h.59c.97,0,1.39.05,1.82.14l.12.02v-2.07l-.12.02c-.44.09-.86.14-1.82.14h-.59v-2.12h.7c.92,0,1.54.06,2.01.19l.12.03v-2.1h-5.43l.04.13c.12.34.17.83.17,1.69v6.22c0,.86-.05,1.35-.17,1.69l-.04.13h5.6v-2.1l-.12.03Z"/>
  <path class="st1" d="M13.94,16.95c-.22-.36-.41-.75-.49-1.94-.09-1.57-.56-2.1-1.33-2.42,1.27-.42,1.31-2.35,1.31-2.57,0-.74-.38-1.64-.87-2.04-.64-.53-1.49-.74-2.92-.74h-2.78l.05.13c.12.34.17.83.17,1.68v6.22c0,.86-.05,1.35-.17,1.68l-.05.13h2.73l-.05-.13c-.12-.34-.17-.82-.17-1.68v-1.86h.26c1.02,0,1.27.52,1.37,1.47.16,1.45.26,1.78.54,2.17l.03.04h2.46l-.09-.15ZM9.37,9.03h.16c.05,0,.12,0,.19,0,.04,0,.07,0,.12,0,.82,0,1.16.35,1.16,1.19,0,1.25-.54,1.42-1,1.42-.05,0-.11,0-.15,0-.04,0-.08,0-.11,0h-.36v-2.6Z"/>
  <path class="st1" d="M43.97,15.23h-.59v-6.17c0-.86.05-1.35.16-1.69l.05-.13h-2.83l.04.13c.12.34.16.83.16,1.69v6.22c0,.86-.05,1.35-.16,1.69l-.04.13h5.35v-2.09l-.12.03c-.47.13-1.09.19-2.01.19"/>
</svg>