<?xml version="1.0" encoding="UTF-8"?>
<svg id="Capa_1" data-name="Capa 1" xmlns="http://www.w3.org/2000/svg" viewBox="0 0 98.65 52.86">
  <defs>
    <style>
      .cls-1 {
        fill: #fff;
      }
    </style>
  </defs>
  <rect class="cls-1" x="0" y="42.09" width="98.65" height="1.56"/>
  <g>
    <g>
      <path class="cls-1" d="M40.62,22.65c-3.07,0-4.6-2.2-4.6-6.59V6.81c0-4.01,1.76-6.01,5.27-6.01,1.45,0,2.56.29,3.33.87.77.58,1.3,1.43,1.6,2.54s.44,2.47.44,4.07h-4.2v-1.9c0-.46-.06-.85-.19-1.16-.13-.31-.39-.47-.79-.47-.5,0-.82.17-.98.5-.16.33-.24.7-.24,1.1v10.4c0,.58.08,1.05.23,1.41.15.36.45.54.88.54s.76-.18.91-.54c.15-.36.23-.84.23-1.43v-3.06h-1.15v-3.71h5.24v12.5h-1.72l-.73-1.81c-.75,1.33-1.93,2-3.54,2Z"/>
      <path class="cls-1" d="M48.3,22.46V.99h6.59c1.1,0,1.93.25,2.49.75.56.5.94,1.2,1.13,2.1.19.9.29,1.95.29,3.16s-.15,2.11-.45,2.81c-.3.7-.86,1.18-1.68,1.45.67.14,1.15.47,1.42,1.01s.41,1.22.41,2.07v8.12h-4.23v-8.4c0-.63-.13-1.01-.38-1.16-.26-.15-.67-.23-1.24-.23v9.79h-4.34ZM52.67,8.94h1.04c.59,0,.89-.65.89-1.94,0-.84-.07-1.39-.2-1.65s-.37-.39-.73-.39h-1v3.98Z"/>
      <path class="cls-1" d="M65.17,22.65c-1.79,0-3.11-.5-3.95-1.51-.85-1-1.27-2.48-1.27-4.43V.99h4.17v15.55c0,.36.02.7.06,1.03.04.33.13.6.28.81s.38.32.71.32.57-.1.72-.31c.15-.21.24-.48.27-.81s.05-.68.05-1.04V.99h4.17v15.72c0,1.95-.42,3.43-1.27,4.43-.85,1-2.16,1.51-3.95,1.51Z"/>
      <path class="cls-1" d="M72.03,22.46V.99h5.67c1.19,0,2.13.26,2.82.79.7.53,1.19,1.28,1.49,2.26s.45,2.14.45,3.49-.13,2.43-.38,3.4c-.25.96-.7,1.71-1.35,2.24-.65.53-1.56.79-2.75.79h-1.74v8.5h-4.22ZM76.25,10.1h.24c.8,0,1.28-.22,1.46-.67s.27-1.11.27-1.98c0-.81-.09-1.44-.26-1.88-.18-.44-.59-.66-1.24-.66h-.48v5.2Z"/>
      <path class="cls-1" d="M88.95,22.65c-1.72,0-3.03-.52-3.93-1.56-.91-1.04-1.36-2.53-1.36-4.49V6.41c0-1.84.45-3.23,1.35-4.18s2.21-1.43,3.95-1.43,3.05.48,3.95,1.43c.9.95,1.35,2.35,1.35,4.18v10.2c0,1.96-.45,3.46-1.36,4.49s-2.22,1.56-3.93,1.56ZM88.99,18.7c.65,0,.98-.63.98-1.89V6.33c0-1.06-.32-1.59-.95-1.59-.72,0-1.07.54-1.07,1.62v10.46c0,.67.08,1.14.24,1.43.16.29.43.43.8.43Z"/>
    </g>
    <g>
      <path class="cls-1" d="M35.92,40.93v-15.48h6.19v2.99h-3.04v3.02h2.92v2.91h-2.92v3.55h3.25v3.02h-6.4Z"/>
      <path class="cls-1" d="M42.89,40.93l1.66-8.21-1.32-7.28h3.03l.8,5.32.71-5.32h3.04l-1.32,7.28,1.65,8.21h-3.13l-.98-6.05-1,6.05h-3.14Z"/>
      <path class="cls-1" d="M53.39,40.93v-12.51h-1.84v-2.97h6.77v2.97h-1.84v12.51h-3.1Z"/>
      <path class="cls-1" d="M59.18,40.93v-15.48h4.75c.79,0,1.39.18,1.79.54.4.36.68.86.81,1.51.14.65.21,1.41.21,2.28s-.11,1.52-.32,2.02c-.21.5-.62.85-1.21,1.05.49.1.83.34,1.02.73.2.38.29.88.29,1.49v5.86h-3.05v-6.06c0-.45-.09-.73-.28-.84-.18-.11-.48-.16-.89-.16v7.06h-3.13ZM62.33,31.19h.75c.43,0,.64-.47.64-1.4,0-.6-.05-1-.14-1.19-.09-.19-.27-.28-.53-.28h-.72v2.87Z"/>
      <path class="cls-1" d="M67.77,40.93v-15.48h6.19v2.99h-3.04v3.02h2.92v2.91h-2.92v3.55h3.25v3.02h-6.4Z"/>
      <path class="cls-1" d="M75.19,40.93v-15.48h4.72l1.3,9.44,1.29-9.44h4.76v15.48h-2.83v-11.15l-1.78,11.15h-2.78l-1.88-11.15v11.15h-2.8Z"/>
      <path class="cls-1" d="M88.63,40.93v-15.48h6.19v2.99h-3.04v3.02h2.92v2.91h-2.92v3.55h3.25v3.02h-6.4Z"/>
    </g>
    <g>
      <path class="cls-1" d="M4.42,19.95c.85-.22,1.72-.08,2.56.12-.13-.84.7-1.59.52-2.36-.1-.44-.46-.98-.63-1.43-.75-2.02-.16-2.74.1-4.66.04-.29-.01-.48.11-.84.13-.4.89-1.68.88-1.9,0-.13-.35-.57-.44-.78-.22-.53-.28-1.14-.48-1.7-.34-.92-.94-1.72-1.14-2.73-.24-1.19.18-2.98,1.69-2.87.75.06,2.42,1.03,3.08,1.47.28.18,1.71,1.33,1.85,1.33.69-.26,1.38-.56,2.09-.78,2.48-.74,5.44-.87,7.94-.14.35.1.69.22,1.02.4.95-.89,2.56-2.1,3.93-1.98,2.11.19,2.91,2.61,2.7,4.44-.08.67-.89,2.25-.78,2.68.02.09.14.22.2.3.82,1.03,1.8,1.85,2.62,3,.49.69.79,1.02.9,1.91.57,4.43-.31,9.72-2.18,13.77-2.73,5.91-8.74,9.63-13.94,13.13-.14.01-.45-.56-.53-.7-.99-1.81-1.4-4.19-1.23-6.24.19-2.33,1.56-4.71.49-7.03-.09-.06-.28.26-.38.34-1.75,1.46-5.33,1.72-6.14-.84-.09-.27-.11-.82-.23-1.02-.09-.16-.42-.28-.58-.41-.36-.29-.66-.76-.85-1.18l-1.07.33-1.11.67c.55-.59,1.26-1.06,2.06-1.25l-.2-.55c-1.01-.08-1.95.38-2.8.86v-.06c.75-.67,1.68-1.06,2.68-1.15-.06-.68-.12-.73-.78-.78-.62-.04-1.33-.04-1.91.19v-.12c.22-.1.75-.31.97-.31h1.53l-.04-.76c-.82-.26-1.61-.27-2.46-.24v-.12ZM9.53,4.91c-.13-.76-1.23-3.01-1.98-3.17-1.14-.23-1.01,1.36-.87,2.06.23,1.18.98,2.01,1.3,3.01.09.27.1.59.19.87.1.32.21.73.47.23.3-.59.16-1.29-.28-1.75l.37.03c-.3-.39-.6-.73-1-1.03.35.01.69.16.97.37.04.01.05-.06.03-.09-.03-.07-.58-.6-.68-.69-.06-.05-.53-.31-.44-.4.39,0,.7.34,1.06.34-.32-.4-.64-.88-1.12-1.09l.03-.12.9.38-.87-1.18c.49.2.93.68,1.24,1.1.27.37.41.79.7,1.14ZM27,13.21c-.03-.79-.25-1.59-.03-2.37.24-.87,1.12-1.26,1.27-2.22.2-1.23.4-1.23.8-2.25.9-2.28-.28-5.37-3.11-3.92-1.24.64-2.39,1.85-2.74,3.21l-.06-.37-.44.94-.12-.16-.13-.84-.25,1.06-.37-.75-.31.81c-.21-.66-.24-1.11.11-1.73.06-.1.43-.52.39-.58-.54-.04-1.36-.8-1.78-.87-.26-.04-.74-.11-1-.13-.42-.03-.86.02-1.28,0,.14.59-.97.84-1.31.4.15-.17.36-.28.58-.28v-.12c-.22.1-.46.06-.7.16-.19.08-.35.29-.55.38-.13.06-.54.14-.56.16-.03.02-.02.14-.08.2-.15.16-1.17.67-1.24.31.13-.74,1.13-.26,1.18-.9l-1.38.47c0,.58-.77.82-1.24.97-.15-.21.6-.59.69-.75-1.12.35-2.13,1.05-2.83,2-.54.73-1.18,1.75-1.65,2.53-.52.86-1.03,1.79-1.26,2.76,1.28-.36,2.75.15,2.81,1.65.04,1.19-1.74,4.02-2.3,5.25-.41.9-.79,1.68-.62,2.72l.67.58c.02.12-.16.22-.27.21-.24-.02-.2-.33-.41-.31-.02.03.12.55.15.62.18.41.8.23.84.47l-.16.2-.46-.18c0,.19.12.45.29.55.23.12.43-.01.55.07s.13.17,0,.25l-.46-.03c.27.33.75.96,1.23.8.27-.09.77-.69.77-.98s-.36-.85-.54-1.09c-.51-.66-1.25-1.3-1.76-1.98-.15-.14-.2-.84-.08-.93.56-.17,1,.26,1.5.38,1.02.25,1.64-.36,2.65-.22.4.06.58.35,1.03.02.22-.15.41-.67.69-.36.07.23-.53.91-.71,1.08-.82.74-1.54.92-2.1,2.02-.52,1.02-.17,1.3.72,1.8,1.5.85,3.04,1.02,4.35-.26-.3.03-1.62.42-1.78.19v-.26c.75-.12,1.63-.17,2.22-.71-.05-.06-.2-.04-.28-.03-.57.04-1.15.29-1.69.31-.22.01-.37-.13-.42-.12-.08.01-.17.17-.32.17-.22,0-.34-.19-.27-.39.07-.22.39-.04.52-.05,1.67-.13,3.39-.47,4.96.36l1.5.78c-.08-.24-.84-.5-.91-.62-.03-.05.06-.17,0-.25-.11-.07-.23-.11-.35-.15-.48-.18-1.3-.36-1.78-.41-.17-.02-1.03.09-.87-.19.27-.18.46-.39.59-.68-.25.09-.76.07-.96.13-.1.03-.1.2-.21.23-.15.05-.43-.02-.61.01-.44.07-.47.17-1,.18-.28,0-.56.01-.84,0-.16-.51.12-.35.39-.37,1.35-.13,2.63-.59,4-.74l1.75-.07,1.84.19-.25-.16c.28-.56.89-.9,1.44-1.18,1.2-.59,1.22-.15.88,1l-.7,1.02c.68-.17,1.24-.5,1.78-.94.14.19-.04.53-.14.73-.23.44-.59.84-.95,1.17,0,.05.06.04.09.03.13-.05.7-.53.84-.65.88-.77,1.55-1.67,1.96-2.78.91-2.45.65-4.95-.03-7.42l.62,1.18ZM32.05,17.95v-1.78s.12-.08.03-.09c-.13-.02-.14.2-.25.31s-.22.17-.37.07c-.25-.17-.89-1.88-.95-2.24-.05-.28-.15-1.76-.02-1.89.11-.03.12.04.19.09.49.38.91,1.01,1.12,1.59.11.01.06-.14.06-.22,0-.18.02-.36-.03-.53l-2.15-2.74c.07.56.19,1.15.12,1.71-.02.19-.09.47-.31.5l-.56-1.22c-.09-.02-.1.19-.1.23.02.51.39,1.28.41,1.92.01.25-.04,1.11-.46.96-.24-.08-.41-1.57-.48-1.87l-.13.65.13,1.47c-.15.18-.52-.85-.62-.87.08,2.16.26,4.27-.56,6.33-.63,1.6-1.96,2.94-3.02,4.28-.52.66-.98,1.38-1.53,2.02l-.19.03.22-1.12.37-1.18-1.44,1.37-2.31,2.75-.15-.1c.14-.62.13-1.22,0-1.84-.11.02-.11.13-.14.2-.29.6-.5,1.28-.67,1.92l-.24-.16-.45-1.08c.05.64.13,1.25-.06,1.87l-.62-1.43c.12,1.48-.44,2.87-.67,4.29-.36,2.2-.29,4.82.84,6.79.03.05-.02.11.1.07,4.13-3.08,8.68-5.86,11.64-10.19l-1.04.47c-1.11-.07-.43-1.18-.11-1.74.4-.71.95-1.76,1.87-1.82.3-.02.5.12.78.1l.44-1c-.74.11-.71-.71-.69-1.25.04-.9.24-2.41,1.5-2.03l.28-1.37c-.24.21-.58.4-.76.02-.13-.26-.11-1.75-.06-2.09s.27-.86.7-.61l.34.44ZM7.78,11.78l-.3-.07c-.16.95-.49,1.89-.44,2.87.02.02.35-.34.47.06.11.33-.26.7-.21,1.08.02.12.57,1.4.66,1.53.04.06,0,.11.14.08l1.5-3.02c-1.22-.37-1.98-1.18-1.82-2.52ZM9.16,11.84l-.68-.05c-.61.83.31,2.23,1.29,1.82.28-.12.09-1.01.01-1.27-.14.09-.01.34-.09.5-.25.53-1.15-.12-.97-.62h.34s.06-.12.06-.12l-.09-.19.12-.06ZM11.59,19.82c-.41.04-.77.42-.87.81.21-.14.32-.36.5-.53.12-.11.3-.16.37-.28ZM21.32,21.38c-1.05-.1-2.12-.2-3.17-.05l-.07.24c.56.07,1.12.09,1.67.23.91.23,1.72.76,2.57,1.14-.46-.44-1.06-.66-1.62-.94.08-.1.24-.49.31-.53.11-.07.31.03.31-.09ZM20.33,22.32c-.75-.19-1.53-.32-2.3-.37l-.07.2c.02.11.84.24,1.02.29.53.15,1.08.61,1.34-.13ZM19.95,24.69c.06-.07-.13-.23-.19-.28-.69-.66-1.7-1.28-2.68-1.28l.87.28c.72.33,1.4.76,2,1.28ZM9.91,24.81l.12-.25c-.7.29-.31,1.34.07,1.77,1.16,1.3,3.8.94,4.73-.49l-1.9-.97.19.44c-.06,0-.96-.58-.9-.41l.19.34-.5-.25-.03.25-.5-.44-.03.37-.19-.44-.06.31-.19-.31-.06.12-.06-.19-.06.37-.13-.19h-.12s-.06.19-.06.19v-.37s-.22.19-.22.19l.03-.19-.31.12Z"/>
      <path class="cls-1" d="M25.63,8.69s.16-.27,0-.28l-.37.75c-.04-.31.02-.61.05-.91,0-.07.05-.16-.05-.15-.09.29-.33.51-.56.69.04-.29.09-.58.17-.86s.21-.5.33-.76l-1,.87c.07-.59.41-1.09.62-1.62l-1.12.94c.14-.57.39-1.09.69-1.59,0-.19-.07-.04-.11.01-.2.23-.38.47-.63.64.26-.97,1.05-2.05,1.81-2.71.12-.11.82-.68.91-.72.03-.01.1-.02.09.03-.08.16-.38.34-.34.53.46-.25.93-.51,1.46-.56l-.81.75c.4-.16.8-.37,1.25-.37l-.94,1.06c.35-.12.68-.32,1.06-.35.1,0,.16-.02.19.1-.41.05-.72.44-1.06.66.32.06.7-.26,1,0l-.93.66c-.02.1.08.06.15.06.17,0,.33,0,.5,0l.03.12-.75.5.87-.03-.56.69.31.15c-.07,0-.43.39-.44.42-.03.21.22.57.13.83l-.25-.37-.06,1.06-.31-.5c.01.45,0,.88-.13,1.31l-.31-.5c-.03.51-.04,1.1-.28,1.56l-.28-1.75-.19.53-.13.15c.01-.34-.02-.69,0-1.03Z"/>
      <path class="cls-1" d="M19.27,12.53c-.1,1.2-1.06,1.67-2.16,1.68-.23,0-.96-.17-1.06-.07-.11.12-.21.71-.09.88l-.37-.31c-.25.63-.09,1.3.06,1.93-.35-.35-.6-.95-.69-1.43l-.5,1.06c-.14-.46-.07-.93.09-1.37.2-.54,1.38-2.86,1.75-3.18,1.04-.9,2.79-.23,3.9.22-.17.36-.56.54-.93.6ZM17.33,11.96c-.47-.01-.84.28-.81.78.07,1.16,1.6,1.26,2.11.37.47-.81.06-1.06-.74-1.14.9,1.02-.7,1.8-.81.47-.02-.2.26.09.31-.12.02-.11-.11-.15-.19-.16l.12-.19Z"/>
      <path class="cls-1" d="M25.18,17.59c.45-.11.64.61.64.95,0,.6-.37,1.55-.97,1.78-.52.2-.88-.29-.83-.77.04-.4.76-1.87,1.16-1.97Z"/>
      <path class="cls-1" d="M24.17,16.1c.1.08.25.37.26.51,0,.26-.35,1.23-.53,1.41-1.06,1.03-1.55-1.95-.47-2.18.18-.04.61.14.75.26Z"/>
      <path class="cls-1" d="M16.47,8.52c.06.08.26-.03.29.12.39,1.07-.66,2.2-1.3,2.95.01-.49.1-.98.2-1.45.06-.27.3-.79.3-1.02,0-.29-.66-1.24,0-1.44.43-.13.38.66.51.84Z"/>
      <path class="cls-1" d="M26.05,14.97c.46.4.47,2.4-.32,2.35-.86-.06-.56-2.1.07-2.42.08-.02.19.02.25.07Z"/>
      <path class="cls-1" d="M23.57,13.05l.1-.09c.58-.18,1.21,1.58,1.21,2.02,0,1.51-1.31-.53-1.31-.87v-1.06Z"/>
      <path class="cls-1" d="M22.55,10.8c.36.34,1.08,1.88.3,1.97s-1.04-1.39-.96-1.97c.06-.47.44-.22.67,0Z"/>
      <path class="cls-1" d="M17.82,8.27c-.19.12-1.15-.41-1.3-.58-.17-.19-.29-.63-.25-.87.06-.29.63-.57.88-.32.14.15.63,1.04.69,1.25.03.12.11.45-.01.52Z"/>
      <path class="cls-1" d="M10.6,8.03l.53-.44c.08-.03.13.02.09.09-.05.12-.48.58-.6.77-.52.84-.54,1.7-.65,2.66l-.12.03c-.78-1.33.04-2.85,1.03-3.8.1.16-.36.59-.28.69Z"/>
      <path class="cls-1" d="M21.62,13.94c-.11.09-.21.1-.33.02-.06-.04-.47-.73-.5-.81-.08-.26-.06-1-.03-1.29.05-.45.5-.03.66.16.33.39.62,1.55.2,1.91Z"/>
      <path class="cls-1" d="M21.19,5.28c-.44-.09-1.94-.4-1.58-1.12.14-.29.61-.13.82-.12.3,0,.76-.14.92.26.13.34.04.69-.15.98Z"/>
      <path class="cls-1" d="M13.71,6.94c.02-.12.91-2.13,1-2.25.18-.24.62-.55.93-.52.38.26-.66,1.27-.83,1.5-.2.27-.38.54-.55.82l-.55,1.41c.03-.3-.05-.68,0-.97Z"/>
      <path class="cls-1" d="M22.43,13.34c.3-.1.77.65.82.91.05.29.11,1.43-.44,1.13-.35-.19-.67-.74-.67-1.15,0-.17.13-.85.29-.9Z"/>
      <path class="cls-1" d="M22.31,15.66c.35.2.15,1.68-.32,1.87-.29.12-.72.02-.76-.32-.05-.38.62-1.81,1.08-1.55Z"/>
      <path class="cls-1" d="M25.13,11.96c.54.11.89,1.03.93,1.53s-.03,1.27-.59.65c-.48-.53-.47-1.52-.34-2.18Z"/>
      <path class="cls-1" d="M21.87,18.27c.25-.04.79.25.86.48.17.57-.96,1.22-1.38.88s.03-1.29.52-1.36Z"/>
      <path class="cls-1" d="M18.32,6.05c.25-.02.79.71.9.94s.34.81.05.95c-.75.37-1.37-1.23-1.22-1.78.03-.04.21-.11.27-.11Z"/>
      <path class="cls-1" d="M20.63,6.65c-.63.22-1.49-.41-1.49-1.08,0-.52.5-.55.87-.31.45.29.73.86.62,1.39Z"/>
      <path class="cls-1" d="M21.13,9.15c-.99-.23-1.45-1.08-1.37-2.06.22-.21,1,.66,1.11.85.19.31.41.85.26,1.2Z"/>
      <path class="cls-1" d="M23.97,12.43c-.51-.4-.74-1.29-.58-1.9.32-.27,1.09,1.01,1.15,1.3.11.55,0,1.05-.57.6Z"/>
      <path class="cls-1" d="M20.33,9.34c.77-.03,1.61,1.19,1.06,1.84-.51.32-1.24-1.42-1.06-1.84Z"/>
      <path class="cls-1" d="M23.4,9.94c-.26-.22-.99-1.76-.77-1.91.27,0,.52.21.69.41.21.26.92,1.4.59,1.65-.15.09-.38-.04-.5-.14Z"/>
      <path class="cls-1" d="M18.56,8.48c.61-.2,1.88,1.06,1.33,1.4-.39.24-1.98-.84-1.33-1.4Z"/>
      <path class="cls-1" d="M20.65,14.47c.26-.23.74.06.79.39.16,1-.91,1.85-.99.68-.02-.22.05-.94.2-1.07Z"/>
      <path class="cls-1" d="M19.58,13.77l-.72,1.25-.24-.13c-.14.03-.23.84-.76.5-.25-.16-.07-.66-.46.03-.19.12-.35-.39-.19-.5.04-.02.64-.16.82-.24.24-.1.59-.29.82-.43.11-.07.67-.54.73-.49Z"/>
      <path class="cls-1" d="M20.96,6.49c.14-.18.66.25.77.36.34.34,1.08,1.45.01,1.17-.41-.11-1.06-1.18-.78-1.53Z"/>
      <path class="cls-1" d="M18.12,5.31c-.39-.4-.53-.93.19-1.02.08,0,.57.03.62.06.6.34-.33,1.35-.66,1.16-.06-.03-.09-.14-.15-.2Z"/>
      <path class="cls-1" d="M20.74,18.61c-.69.69-1.41-.35-.54-1.01.71-.54,1,.55.54,1.01Z"/>
      <path class="cls-1" d="M16.61,5.64c-.47-.56.31-1.16.91-.51.36.39.39,1.08-.28.96-.11-.02-.56-.36-.64-.46Z"/>
      <path class="cls-1" d="M25.63,11.53c-.31.05-.57-.34-.7-.58-.09-.16-.49-1.29-.43-1.35.82.28,1.34,1.06,1.12,1.93Z"/>
      <path class="cls-1" d="M17.46,9.28l.33-.24c.81.62-.52,1.23-.89,1.68-.06-.24.19-.41.25-.59.06-.2-.22,0-.25-.03-.1-.19.34-1.18.47-1.18l.09.37Z"/>
      <path class="cls-1" d="M18.08,20.94l-.68.06c-.04-.68-.35-1.27-.75-1.81.79.2,1.33.97,1.43,1.75Z"/>
      <path class="cls-1" d="M19.94,3.66c-.58.31-1.46.57-1.68-.26.46-.4,1.1-.1,1.63,0l.05.27Z"/>
      <path class="cls-1" d="M20.12,16.03c.76-.04.28,1.28-.31,1.22-.51-.33-.29-1.19.31-1.22Z"/>
      <path class="cls-1" d="M20.44,19.4c1.01-.14.14,1.34-.61.96-.33-.43.17-.89.61-.96Z"/>
      <path class="cls-1" d="M20.43,13.16c.22.27.1,1.38-.44,1.22s-.07-1.84.44-1.22Z"/>
      <path class="cls-1" d="M11.59,6.22c.03.12-.07.15-.12.22-.23.28-.56.54-.81.81-.29.32-.5.84-.94.96-.15-.17.74-1.26.9-1.44.25-.26.58-.57.97-.56Z"/>
      <path class="cls-1" d="M21.64,8.59c.46-.13,1.3,1.44.9,1.56-.33.1-1.07-1.22-.9-1.56Z"/>
      <path class="cls-1" d="M16.91,4.59c-.13-.12-.17-.52.06-.63.19-.09,1.18-.22,1.23.06.03.18-1.01.82-1.29.57Z"/>
      <path class="cls-1" d="M8.82,9.09c.24-.06.31,1.17.28,1.34-.08.42-.63-.1-.68-.44-.05-.38.2-.61.4-.9Z"/>
      <path class="cls-1" d="M13.64,10.29s.27.61.28.68c.07.29.08.62-.25.72-.49.04-.44-1.19-.27-1.48.03-.02.2.04.23.08Z"/>
      <path class="cls-1" d="M15.35,6.89c-.33-.33.48-1.47.72-.94.21.48-.12,1.25-.72.94Z"/>
      <path class="cls-1" d="M19.12,19.09c1.19-.27.38,1.36-.33.8-.09-.29-.01-.72.33-.8Z"/>
      <path class="cls-1" d="M19.94,15.57c-.07.04-.28.02-.36-.02-.5-.23-.18-1.48.31-1.06.23.2.26.95.05,1.08Z"/>
      <path class="cls-1" d="M18.75,15.53c.37-.11.81.51.51.88-.51.64-1.15-.7-.51-.88Z"/>
      <path class="cls-1" d="M13.96,4.6c.13.14-.71.96-.84,1.06-.1.08-.59.39-.65.15-.09-.33,1.15-1.2,1.5-1.21Z"/>
      <path class="cls-1" d="M17.46,10.59l.7-.51c.37-.29.93.04.98.45-.06-.02-.13.06-.16.06h-1.53Z"/>
      <path class="cls-1" d="M12.53,5.29c-.58.25-1.01.85-1.68.87.06-.34.41-.56.68-.72.22-.13.96-.58,1-.16Z"/>
      <path class="cls-1" d="M13.96,9.41c.04.32.6,1.16.43,1.42-.24.22-.62-.35-.66-.53s-.07-1.07.23-.88Z"/>
      <path class="cls-1" d="M15.79,4.62c.13-.09.67-.15.72.08.03.16-.42.76-.58.77-.55.06-.37-.7-.14-.86Z"/>
      <path class="cls-1" d="M11.9,11.9l-.13-.04c-.21-.24.31-1.77.47-1.77.16.15.1.44.08.64-.05.42-.23.8-.42,1.17Z"/>
      <path class="cls-1" d="M16.68,20.32c.3.07-.35.32-.4.35-.32.12-1.16.44-1.12-.12.03-.08.46-.23.52-.23.25,0,.8-.05,1,0Z"/>
      <path class="cls-1" d="M18,16.9c.81-.27.98.58.35.72-.69.16-.58-.65-.35-.72Z"/>
      <path class="cls-1" d="M17.88,16.56c-.3.3-1.04-.41-.67-.76s.92.51.67.76Z"/>
      <path class="cls-1" d="M17.91,18.81c-.08-.17-.28-.41-.14-.58.22-.16.52-.22.76-.06.23.49-.14.77-.61.64Z"/>
      <path class="cls-1" d="M11.47,7.22c-.07-.32.35-.9.66-.94.89-.09-.41,1.18-.66.94Z"/>
      <path class="cls-1" d="M15.46,5.41c.27.19-.53,1.44-.8,1.05-.15-.22.6-1.19.8-1.05Z"/>
      <path class="cls-1" d="M14.18,8.84c.25-.08.88.85.53,1.03-.41.21-.82-.94-.53-1.03Z"/>
      <path class="cls-1" d="M15.72,3.92c.22-.08.87-.51.93-.1-.04.66-.82.78-.93.1Z"/>
      <path class="cls-1" d="M19.31,17.46c.6-.13.48.56.07.69-.78.25-.51-.59-.07-.69Z"/>
      <path class="cls-1" d="M11.66,10.4c.07.22-.12,1.27-.34,1.3-.25.03-.16-.57-.13-.74.04-.2.21-.61.47-.56Z"/>
      <path class="cls-1" d="M12.59,8.53c.06.05-.47,1.31-.81,1.18-.13-.13.4-1.36.81-1.18Z"/>
      <path class="cls-1" d="M17.63,17.59c.18.19-.04.4-.26.42-.55.06-.48-.26-.47-.69.04-.04.68.21.73.27Z"/>
      <path class="cls-1" d="M13.28,5.91c-.02.46-.32.89-.72,1.12-.26-.01.19-.76.27-.86.11-.14.26-.25.45-.26Z"/>
      <path class="cls-1" d="M15.14,7.9c-.61.05-.32-.59-.18-.92.52.09.42.59.18.92Z"/>
      <path class="cls-1" d="M17,17.06c-.35.22-.62-.08-.54-.45.1-.53.87.05.54.45Z"/>
      <path class="cls-1" d="M14.03,5.54c.05.46-.31.87-.65,1.12-.12-.09-.07-.09-.05-.17.03-.16.5-1.16.7-.95Z"/>
      <path class="cls-1" d="M12.22,7.53c-.05.14-.79,1.09-.94.93.07-.42.45-1.1.94-.93Z"/>
      <path class="cls-1" d="M10.97,11.15c-.47-.04-.08-1.17.16-1.12.28.35-.07.76-.16,1.12Z"/>
      <path class="cls-1" d="M14.09,7.72c.03.22.2.29.19.53,0,.08-.09.49-.22.47-.16-.03-.28-.33-.28-.47,0-.1.18-.65.31-.53Z"/>
      <path class="cls-1" d="M10.66,13.15l-.12-1.93c.12.03.12.16.16.25.18.54.17,1.15-.03,1.68Z"/>
      <path class="cls-1" d="M14.71,6.54c.05.23-.27,1.18-.56.93-.17-.14.2-1.06.56-.93Z"/>
      <path class="cls-1" d="M14.96,8.71c-.43.07-.54-.47-.37-.78.49-.02.48.41.37.78Z"/>
      <path class="cls-1" d="M12.22,8.16c-.13-.15.37-.97.62-1,.04.39-.2.93-.62,1Z"/>
      <path class="cls-1" d="M13.28,8.34c.05.21-.48,1.31-.59,1.31-.31,0,.24-.92.3-1,.08-.11.16-.25.29-.3Z"/>
      <path class="cls-1" d="M13.78,5.29s.67-1.09.75-.65c.04.2-.48.75-.75.65Z"/>
      <path class="cls-1" d="M13.96,17.45c.06.49-.07.76-.5,1,0-.31.16-.63.34-.88.05-.07,0-.15.16-.12Z"/>
      <path class="cls-1" d="M9.28,9.9c-.09.02-.08-.12-.09-.19-.09-.38-.2-1,.16-1.25.09.47-.13.95-.06,1.43Z"/>
      <path class="cls-1" d="M15.02,9.72c-.02-.18-.12-.34-.12-.53,0-.3.26-.3.34-.04.04.12.07.46-.03.54l-.19.03Z"/>
      <path class="cls-1" d="M10.97,9.53c.07.18-.12.8-.34.75-.26-.06.09-.79.34-.75Z"/>
      <path class="cls-1" d="M16.33,15.33c.28-.09.61.55.34.62-.28.08-.41-.44-.34-.62Z"/>
      <path class="cls-1" d="M17.06,18.52c.4-.11.58.41.17.43-.35.02-.42-.36-.17-.43Z"/>
      <path class="cls-1" d="M11.78,8.53c.06.07-.13.74-.37.69-.15-.33.02-.64.37-.69Z"/>
      <path class="cls-1" d="M11.03,8.66c.06.16-.14.91-.34.87-.21-.04.11-.63.17-.71.04-.06.1-.15.18-.17Z"/>
      <path class="cls-1" d="M14.28,11.65c.23.17.38.63.09.81-.28-.19-.13-.54-.09-.81Z"/>
      <path class="cls-1" d="M12.59,12.02c-.3-.16-.14-.82.06-1,.09.33-.02.66-.06,1Z"/>
      <path class="cls-1" d="M13.28,9.84c.02.29-.05.61-.14.89-.02.07-.02.19-.11.17.01-.33-.06-.63.09-.94.05-.09,0-.15.16-.12Z"/>
      <path class="cls-1" d="M13.34,7.03c.12-.01.05.13.03.19-.06.3-.14.66-.38.87-.14-.08-.03-.25.01-.36.09-.24.26-.45.33-.7Z"/>
      <path class="cls-1" d="M14.63,20.52c.17-.01.31.27.11.42-.32.24-.51-.39-.11-.42Z"/>
      <path class="cls-1" d="M18.3,19.45c.11-.03.24.2.27.29l-.08.15c-.43.29-.41-.39-.19-.44Z"/>
      <path class="cls-1" d="M14.96,11.77c-.13.12-.19-.22-.19-.28,0-.16.05-.4.16-.53.13.12.11.73.03.81Z"/>
      <path class="cls-1" d="M20.26,11.59c-.11-.07-.21-.28-.26-.39-.07-.16-.14-.37-.17-.54.33.2.47.56.44.94Z"/>
      <path class="cls-1" d="M13.83,20.76c.13.13-.07.46-.21.43-.13-.11-.18-.24-.1-.4l.31-.03Z"/>
      <path class="cls-1" d="M13.83,23.87c-.13.2-.63-.07-.31-.28.22-.14.41.12.31.28Z"/>
      <path class="cls-1" d="M16.65,18.32c-.28.03-.34-.2-.31-.44.26-.04.32.22.31.44Z"/>
      <path class="cls-1" d="M13.53,12.77c-.22.04-.32-.53-.15-.56.22-.05.15.45.15.56Z"/>
      <path class="cls-1" d="M16.05,16.95l.27.23-.15.21c-.15.03-.29-.4-.12-.44Z"/>
      <path class="cls-1" d="M12.69,23.57c.17-.05.3.01.4.15-.16.28-.73-.05-.4-.15Z"/>
      <path class="cls-1" d="M20.08,33.22c-.51-1.27.68-2.37,1.68-2.95.49-.28.79-.44,1.39-.34.9.14.15,1.24-.16,1.64-.47.61-1.14,1.03-1.84,1.34-.2.09-.92.42-1.07.31Z"/>
      <path class="cls-1" d="M18.94,32.31c.9-.21.72.89.56,1.43-.34,1.22-1.72,1.87-2.38,2.92-.43-1.08-.31-2.21.44-3.12.19-.23,1.16-1.18,1.39-1.23Z"/>
      <path class="cls-1" d="M25.99,30.25c1.2-.19.59,1.02.14,1.51-.38.43-2.07,1.57-2.6,1.65s-.83-.09-.6-.66c.07-.18.83-1.06,1.01-1.24.39-.37,1.54-1.18,2.05-1.26Z"/>
      <path class="cls-1" d="M26.61,26.76c.88-.14.75.4.5,1-.51,1.19-.91,1.52-2.04,2.08-.44.22-1.06.65-.99-.24.07-1.01,1.53-2.67,2.54-2.83Z"/>
      <path class="cls-1" d="M26.61,23.14c.37-.01.29.55.27.83-.08,1.21-.4,1.93-1.48,2.51-.82.45-1.11.25-1.02-.71.07-.79,1.45-2.6,2.23-2.63Z"/>
      <path class="cls-1" d="M28.59,22.47c.56-.58.91.2.91.75,0,.78-.33,1.85-.94,2.37-.48.4-1.32.85-1.37-.13-.03-.68.91-2.49,1.4-2.99Z"/>
      <path class="cls-1" d="M21.81,33.31c.49-.08.5.24.45.64-.1.79-1.64,2.01-2.29,2.45-1.79,1.24-.91-.5-.41-1.34.42-.7,1.41-1.62,2.24-1.75Z"/>
      <path class="cls-1" d="M21.7,26.74c.23.16-.18,1.76-.28,2.06-.21.61-.71,1.38-1.22,1.77-.3.23-.84.43-.87-.12-.06-.99.65-2.12,1.28-2.84.13-.15.93-.98,1.09-.87Z"/>
      <path class="cls-1" d="M18.12,29.78c.45-.38.85-.65.9.18.08,1.28-.48,2.06-1.47,2.78-.27.19-.35.16-.49-.13-.43-.9.37-2.25,1.06-2.83Z"/>
      <path class="cls-1" d="M23.03,27.02c1.38-1.25,1.31.87.65,1.75-.54.71-2.07,1.31-1.69-.26.1-.42.72-1.19,1.04-1.49Z"/>
      <path class="cls-1" d="M30.29,18.21c.36.36.2,2.17.05,2.67-.14.46-.72,1.24-1.18.68-.57-.69-.02-2.01.38-2.67.11-.19.51-.92.76-.68Z"/>
      <path class="cls-1" d="M30.42,17.69c-.36.07-.6-.31-.73-.59-.48-1.01-.12-1.98,0-3.02.12-.14.61.66.66.75.49.94.5,1.9.08,2.86Z"/>
      <path class="cls-1" d="M28.34,15.45c.1-.02.13.08.17.14.54.83.9,1.98.53,2.93-.08.22-.35.81-.64.55-.14-.13-.26-1.21-.28-1.47-.02-.29-.04-2.09.22-2.15Z"/>
      <path class="cls-1" d="M28.04,19.77c.12-.04.2,0,.27.09.25.37.09,1.85-.09,2.27-.37.82-1.38.81-1.2-.32.05-.3.8-1.96,1.02-2.03Z"/>
      <path class="cls-1" d="M8.54,14.39c-.7.33-1.53-.65-1.03-1.25.19.24.27.54.47.78.18.22.37.28.56.47Z"/>
      <path class="cls-1" d="M8.04,14.83c.03.19.13.29.1.5-.02.14-.28.75-.47.62-.13-.37-.13-1.09.37-1.12Z"/>
      <path class="cls-1" d="M8.15,16.69h-.18c-.29-1,.67-1.09.18,0Z"/>
    </g>
    <g>
      <path class="cls-1" d="M5.65,50.66v-5.6h1.04v5.6h-1.04Z"/>
      <path class="cls-1" d="M10.36,50.66v-2.11c0-.85-.28-1.31-.85-1.31-.31,0-.87.2-.87,1.13v2.29h-1.01v-4.2h.93v.36c.33-.33.67-.51,1.16-.51.54,0,1.64.34,1.64,1.86v2.48h-1.01Z"/>
      <path class="cls-1" d="M14.9,50.66v-2.11c0-.85-.28-1.31-.85-1.31-.31,0-.87.2-.87,1.13v2.29h-1.01v-4.2h.93v.36c.33-.33.67-.51,1.16-.51.54,0,1.64.34,1.64,1.86v2.48h-1.01Z"/>
      <path class="cls-1" d="M16.5,48.57c0-1.21.98-2.25,2.24-2.25s2.22,1.02,2.22,2.23-.94,2.25-2.22,2.25-2.24-1.02-2.24-2.23ZM19.95,48.58c0-.69-.51-1.33-1.23-1.33-.67,0-1.23.62-1.23,1.32s.51,1.31,1.23,1.31,1.22-.61,1.22-1.3Z"/>
      <path class="cls-1" d="M22.87,50.66l-1.69-4.2h1.09l1.01,2.78h.02l.95-2.78h1.1l-1.7,4.2h-.79Z"/>
      <path class="cls-1" d="M29.1,50.66v-.52c-.33.39-.95.66-1.48.66-1.18,0-2.04-.99-2.04-2.26s.89-2.22,2.1-2.22c.59,0,1.17.35,1.39.67h.02v-.53h.92v4.2h-.92ZM29.07,48.55c0-.73-.51-1.31-1.23-1.31s-1.24.59-1.24,1.34c0,.7.54,1.29,1.25,1.29s1.23-.61,1.23-1.32Z"/>
      <path class="cls-1" d="M33.51,50.66v-2.11c0-.85-.28-1.31-.85-1.31-.31,0-.87.2-.87,1.13v2.29h-1.01v-4.2h.93v.36c.33-.33.67-.51,1.16-.51.54,0,1.64.34,1.64,1.86v2.48h-1.01Z"/>
      <path class="cls-1" d="M38.67,50.66v-.51h-.02c-.27.42-.79.65-1.34.65-1.17,0-2.14-.98-2.14-2.23,0-1.33,1.05-2.25,2.16-2.25.51,0,.88.14,1.25.51v-1.77h1.01v5.6h-.92ZM38.66,48.56c0-.7-.54-1.32-1.25-1.32-.64,0-1.23.59-1.23,1.29,0,.74.54,1.35,1.24,1.35s1.24-.6,1.24-1.32Z"/>
      <path class="cls-1" d="M40.1,48.57c0-1.21.98-2.25,2.24-2.25s2.22,1.02,2.22,2.23-.94,2.25-2.22,2.25-2.24-1.02-2.24-2.23ZM43.56,48.58c0-.69-.51-1.33-1.23-1.33-.67,0-1.23.62-1.23,1.32s.51,1.31,1.23,1.31,1.22-.61,1.22-1.3Z"/>
      <path class="cls-1" d="M47.33,50.66v-5.6h3.01v.97h-1.97v1.37h1.89v.97h-1.89v1.32h1.97v.97h-3.01Z"/>
      <path class="cls-1" d="M53.82,50.66l-.9-1.44-.89,1.44h-1.2l1.49-2.16-1.3-2.04h1.13l.77,1.26.76-1.26h1.13l-1.3,2.04,1.51,2.16h-1.2Z"/>
      <path class="cls-1" d="M55.4,52.06v-5.6h.92v.49h.01c.36-.45.81-.64,1.36-.64,1.23,0,2.1,1.04,2.1,2.22s-.92,2.25-2.1,2.25c-.54,0-.89-.14-1.29-.54v1.8h-1.01ZM58.79,48.56c0-.68-.51-1.32-1.22-1.32s-1.23.59-1.23,1.32c0,.89.7,1.32,1.23,1.32.69,0,1.23-.62,1.23-1.32Z"/>
      <path class="cls-1" d="M61.33,49.01c.08.37.54.86,1.16.86.42,0,.76-.17.97-.54h1.06c-.27.85-1.13,1.46-2.03,1.46-1.26,0-2.22-.98-2.22-2.22s.93-2.25,2.21-2.25,2.17.96,2.17,2.19c0,.16-.02.33-.06.51h-3.26ZM63.62,48.2c-.1-.61-.51-.96-1.14-.96-.55,0-1.02.32-1.18.96h2.32Z"/>
      <path class="cls-1" d="M65.35,50.66v-4.2h.92v.37h.02c.26-.39.48-.51.96-.51h.02v.98c-.61.02-.92.35-.92.98v2.39h-1.01Z"/>
      <path class="cls-1" d="M67.7,45.99v-.92h1.01v.92h-1.01ZM67.7,50.66v-4.2h1.01v4.2h-1.01Z"/>
      <path class="cls-1" d="M70.41,49.01c.08.37.54.86,1.16.86.42,0,.76-.17.97-.54h1.06c-.27.85-1.14,1.46-2.03,1.46-1.26,0-2.22-.98-2.22-2.22s.93-2.25,2.21-2.25,2.17.96,2.17,2.19c0,.16-.02.33-.06.51h-3.26ZM72.7,48.2c-.1-.61-.51-.96-1.14-.96-.55,0-1.02.32-1.18.96h2.32Z"/>
      <path class="cls-1" d="M77.09,50.66v-2.11c0-.85-.28-1.31-.85-1.31-.31,0-.87.2-.87,1.13v2.29h-1.01v-4.2h.93v.36c.33-.33.67-.51,1.16-.51.54,0,1.64.34,1.64,1.86v2.48h-1.01Z"/>
      <path class="cls-1" d="M83.11,49.29c-.36.96-1.14,1.51-2.1,1.51-1.24,0-2.23-1.02-2.23-2.25s.99-2.22,2.22-2.22c.95,0,1.79.57,2.11,1.54h-1.14c-.22-.39-.51-.61-.98-.61-.71,0-1.22.57-1.22,1.32s.54,1.32,1.26,1.32c.42,0,.72-.24.93-.58h1.14Z"/>
      <path class="cls-1" d="M83.74,45.99v-.92h1.01v.92h-1.01ZM83.74,50.66v-4.2h1.01v4.2h-1.01Z"/>
      <path class="cls-1" d="M88.87,50.66v-.52c-.33.39-.95.66-1.48.66-1.18,0-2.04-.99-2.04-2.26s.89-2.22,2.1-2.22c.59,0,1.17.35,1.39.67h.01v-.53h.92v4.2h-.92ZM88.84,48.55c0-.73-.51-1.31-1.23-1.31s-1.24.59-1.24,1.34c0,.7.54,1.29,1.25,1.29s1.23-.61,1.23-1.32Z"/>
      <path class="cls-1" d="M92.23,47.61c-.05-.22-.17-.36-.4-.36-.21,0-.39.15-.39.36,0,.2.08.29.69.46.98.29,1.2.73,1.2,1.26,0,.84-.64,1.47-1.47,1.47s-1.51-.45-1.57-1.46h1.03c.08.39.26.54.55.54.26,0,.45-.18.45-.42,0-.3-.22-.39-.79-.57-.84-.26-1.09-.73-1.09-1.26,0-.74.65-1.3,1.41-1.3.7,0,1.33.51,1.37,1.29h-.98Z"/>
    </g>
  </g>
</svg>