<?xml version="1.0" encoding="UTF-8"?>
<svg id="Capa_1" data-name="Capa 1" xmlns="http://www.w3.org/2000/svg" viewBox="0 0 144 107">
  <defs>
    <style>
      .cls-1 {
        fill: #fff;
      }

      .cls-2 {
        fill: #49ba00;
      }
    </style>
  </defs>
  <g>
    <path class="cls-1" d="M139.6,71.61c-.53-1.22-1.87-1.85-3.13-2.07-.07-.14-.15-.28-.22-.42-.23-.45-.45-.91-.67-1.36-.94-1.91-1.88-3.82-2.82-5.72-1.51-3.07-3.02-6.13-4.53-9.2-.15-.31-.37-.59-.62-.85,1.41-.05,2.82-.1,4.23-.15,1.24-.04,2.48-.09,3.72-.13,2.35-.08,4.35-1.94,4.35-4.35,0-1.63-.9-2.97-2.2-3.72.06-.03.11-.04.17-.08,3.45-2.23,3.12-7.85-.92-9.21-.12-.04-.26-.08-.4-.11-.05-.01-.14-.04-.29-.1-.44-.91-1.11-1.8-1.68-2.64-.22-.32-.45-.63-.67-.94,1.39-1.44,2.32-3.3,2.47-5.51.31-4.58-3.18-7.99-7.32-9.19-1.93-.56-3.92-.59-5.9-.61-2.19-.02-4.38-.04-6.57-.07-1.64-.02-3.29-.03-4.93-.05-1.25-.01-2.59.65-3.43,1.67-1.66-.9-3.49-1.51-5.35-1.81-5.03-.8-10.59.28-14.46,3.61-.53-.63-1.15-1.2-1.88-1.67-3.43-2.23-7.79-1.93-11.71-1.93-3.5,0-9.97-1.2-12.08,2.34-.32.54-.5,1.1-.62,1.66-.32-.67-.64-1.35-.95-2.02-.6-1.26-2.37-2.28-3.76-2.15-1.47.13-2.94.26-4.4.39-1.44.13-3.1.71-3.76,2.15-.74,1.63-1.49,3.27-2.23,4.9l-.19-2.45c-.15-1.96-1.25-3.62-3.19-4.2-3.88-1.15-8.24-1.32-12.19-.44-5.28,1.17-9.74,5.46-8.74,11.21.03.17.08.32.11.48-.72-.46-1.56-.73-2.44-.72-.67,0-1.34.04-2,.07-.62.02-1.25.03-1.87.06-.17,0-.33.05-.5.08-.19-.03-.38-.05-.57-.04-2.36.09-4.73.15-7.09.28-1.27.07-2.42.51-3.32,1.42-.55.56-1.02,1.32-1.22,2.09-.3,1.15-.1,2.37.45,3.41.17.31.39.6.65.86,0,.28,0,.56,0,.84,0,.43.03.87.05,1.31-.88,1.18-1.24,2.55-.88,4.04.48,1.95,2.63,3.46,4.62,3.37.42-.02.84-.06,1.26-.09,1.54-.11,3.09-.22,4.63-.33.42-.03.84-.06,1.26-.09.24-.02.48-.05.71-.09.07,0,.13.02.2.02.35,0,.7-.02,1.04-.04,1.46-.05,2.92-.1,4.38-.15.39-.01.79-.03,1.18-.04.92-.03,1.75-.31,2.49-.84,0,0,.01,0,.02,0,1,.24,2.04.44,3.1.6-.68.02-1.36.05-2.04.07-2.27.08-4.46,1.94-4.35,4.35.11,2.43,1.91,4.26,4.35,4.35.73.03,1.45.05,2.18.08-1.56.65-3.05,1.54-4.14,2.77-2.01,2.26-2.84,5.08-2.28,8.07.2,1.07.59,2,1.12,2.83-1.04.83-1.8,2.14-1.68,3.4.18,1.93.37,3.86.55,5.78.18,1.86,1.22,3.74,3.19,4.2,3.52.81,7.26,1.27,10.87.95.26-.02.53-.06.8-.09-.02.05-.05.09-.06.15-.21.77-.21,1.54,0,2.31.02.06.05.11.07.17-.11.39-.21.78-.31,1.17-.05.19-.1.38-.14.57-.24.99-.23,1.89,0,2.88.1.44.3.85.52,1.24.12.22.54.73.71.92.27.29.59.54.93.73.47.25.97.48,1.5.58.1.13.21.26.32.37.87.88,2.08,1.36,3.32,1.37,1.62.01,3.02-.76,4.19-1.83.32.09.65.14.99.12,1.39,0,2.77.01,4.16.02.32.06.81.12,1.05.13.06,0,.11,0,.16,0,.38-.03.79-.07,1.18-.16.36.08.75.13,1.08.14.03,0,.06,0,.09,0,.02,0,.05,0,.07,0,.31-.04.61-.08.92-.12.19.03.38.06.57.08.21.03.41.06.62.08.05,0,.1,0,.15,0,.39-.01.88-.1,1.26-.17.07-.01.13-.04.2-.06.32.06.63.13.99.12.61,0,1.23-.12,1.82-.33.17.07.34.14.46.18.04.01.07.03.11.04.48.14,1,.2,1.51.2.5,0,1.01-.1,1.51-.18.06,0,.11-.03.17-.04.71.17,1.38.18,2.08.05.32.08.89.16,1.21.16.19,0,.79-.08,1.09-.14.32.06.65.11.96.13.08,0,.15,0,.23,0,.43-.02.83-.09,1.22-.19.04,0,.08.02.13.03.37.07.99.18,1.47.18.06,0,.12,0,.19-.01.43-.04.88-.1,1.3-.18.12-.02.23-.05.34-.1.09-.03.17-.07.26-.1.43.17.88.28,1.36.26h1.82c.15-.02.3-.04.45-.06.23.04.46.07.71.06.68,0,1.36,0,2.03-.01,0,0,.01,0,.02,0,.26.05.93.15,1.19.16.05,0,.09,0,.14,0,.19,0,.67-.09.65-.09.09-.01.21-.02.34-.04.59.08,1.09.06,1.65-.05.13.06.27.11.4.17.77.21,1.54.21,2.31,0,.03,0,.07-.02.1-.03.25-.08.51-.2.77-.31.16.06.32.12.48.15.27.06.9.13,1.18.16.04,0,.08,0,.12.01.07,0,.14,0,.21,0,.49,0,1.02-.1,1.49-.18.03,0,.05-.01.08-.02.02,0,.03,0,.04.01.41.07.85.14,1.27.16.45.02.75-.02,1.04-.11.23.05.45.09.68.09.14.01.28.03.41.03.04,0,.09,0,.13,0,.33-.02.72-.08,1.07-.14.2.04.98.14,1.14.15.07,0,.13,0,.2,0,.03,0,.06,0,.08,0,.35-.03.86-.09,1.2-.16.03,0,.05-.01.08-.02.38.11.77.17,1.31.2.38.02.76-.03,1.13-.11.2.03.41.05.59.07.28.03.56-.04.84-.08.09-.01.2-.02.31-.03.83.16,1.52.2,2.37-.03.08-.02.17-.06.25-.09.19.07.32.12.27.1.23.07.31.06.67.11-.14-.02.43.08.62.08.23,0,.97-.12,1.19-.16,0,0,0,0,0,0,.22.03.43.07.64.09.05,0,.1,0,.15,0,.07,0,.14-.02.21-.03.05.05.09.11.14.16.32.29.7.62,1.11.83.41.22.87.41,1.32.55.6.19,1.25.26,1.88.27.65.02,1.32-.08,1.95-.24.48-.12.95-.36,1.4-.56.15-.07.3-.14.43-.24,0,0,0,0,0,0,0,0,0,0,0,0,.3-.16.56-.38.79-.61.03-.03.06-.04.09-.07.04-.03.07-.07.11-.11.23-.29.45-.59.68-.88.02-.02.04-.05.05-.07.03-.04.05-.09.08-.13.18-.34.36-.79.49-1.16.28-.78.32-1.85.09-2.66.16-.24.25-.47.4-.84.27-.64.38-.87.38-1.7,0-.74-.21-1.6-.6-2.23-.12-.19-.23-.31-.39-.52-.16-.21-.25-.36-.42-.52-.29-.23-.59-.45-.88-.68-.02-.02-.04-.03-.07-.05,0,0-.01,0-.02,0,.17.07.33.15.51.19,1.28.29,2.68.16,3.98.16,2.94,0,5.89,0,8.83.01,1.87,0,3.74-1.35,4.2-3.19.42-1.71.17-3.05-.52-4.63ZM34.53,23.45s.03,0,.05,0c-.38.1-.55.13-.6.12.19-.03.37-.07.55-.12ZM68.23,31.85c.29.09.48.37.44,1.01,0-.11-.15-.27-.17-.37-.05-.21-.16-.43-.27-.64ZM32.86,68.27c-.04-.09.03-.05.2.28-.03-.03-.05-.05-.07-.08-.05-.07-.08-.14-.13-.2ZM36.62,69.04s-.05.02-.07.02c.4-.34.27-.15.07-.02ZM34.64,69.17s-.05-.01-.07-.02c.36-.03.52,0,.53.03-.16-.02-.31-.01-.46-.01ZM36.93,60.9s.1.03.16.06c-.08,0-.14-.03-.19-.06.01,0,.02,0,.03,0ZM82.74,68.65s0,0,0,0c0,0,0,0,0,.01,0,0,0,0,0-.01ZM82.75,68.64s0,0,0,0h0s0,0,0,0c0,0,0,0,0,0ZM80.01,60.97s.26-.02.41-.05c-.14.11-.29.15-.41.05ZM83.95,66.69c-.26.42-.48.85-.74,1.27-.06.09-.15.2-.23.32,0,0-.02.03-.04.06-.06.08-.11.17-.15.24,0,0,0,0-.01,0,.02-.03.03-.07.05-.1-.02.02-.01.02-.03.04-.03.04-.07.07-.1.1-.05.01-.09.02-.14.03-.14.01-.28.03-.42.04-.08,0-.15,0-.23,0,0-1.62,0-3.23,0-4.85,0-1.06,0-2.12,0-3.18.35-.08.71-.25,1.06-.48.39.25.8.44,1.2.51.31.05.62.1.93.14.33.62.91,1.64,1.05,1.92.18.35.36.7.54,1.05.11.22.22.43.34.65-1.19.27-2.25.93-3.06,2.23ZM84.84,60.36s.04.1.1.21c-.1-.07-.16-.14-.1-.21ZM93.72,78.61c-.08.01-.16.05-.24.07-.05-.01-.09-.04-.14-.05-.22-.05-.16-.03-.6-.09-.09-.14-.18-.29-.29-.41-.13-.2-.29-.38-.46-.54.31-.41.53-.86.61-1.36.04-.27.09-.54.13-.81.35.68.71,1.35,1.06,2.03.21.4.51.74.86,1.04-.3.03-.6.08-.92.13ZM106.16,78.66s-.01,0-.02,0c-.05,0-.12.01-.18.02-.14-.03-.29-.07-.44-.09-.19-.18-.41-.33-.65-.46.13-.14.24-.3.34-.46.27.38.57.72.94.99ZM97.32,60.96c-.2.08-.23.06,0,0h0ZM101.19,60.3c-.14-.28-.29-.55-.43-.83.07-.08.14-.15.2-.23.14.19.31.37.49.53l-.26.53ZM115.67,77.88c.08.02.17.05.25.06.47.08.36.29-.25-.06ZM98.67,27.2c.1-.54.2-1.07.36-1.6.02-.06.04-.12.06-.18.01-.02.03-.05.05-.07.01-.01.03-.03.04-.04.24-.01.48-.01.71,0,0,0,.02,0,.02,0,0,0,.01,0,.02,0,0,0,0,0,0,0,.06.1.14.22.2.32.03.09.06.17.09.26.16.49.27.99.37,1.5.08.85.07,1.7,0,2.55-.09.52-.17,1.04-.32,1.55-.03.09-.06.19-.08.28-.04.06-.07.11-.1.17-.02,0-.03,0-.05.01-.12,0-.25-.01-.37-.02-.05-.01-.11-.02-.16-.04,0,0,0,0,0,0-.03-.02-.06-.04-.09-.06-.01-.01-.02-.02-.04-.03,0,0,0,.01.01.02,0,0-.02,0-.02-.02,0-.01-.02-.03-.03-.04,0,0-.02-.02-.03-.02-.07-.06-.12-.13-.16-.19,0-.03-.02-.06-.03-.1,0,0,.02.01.04.03-.02-.03-.04-.05-.05-.08,0,0,0,0,0,0-.17-.57-.32-1.14-.43-1.72-.08-.84-.08-1.67,0-2.51ZM99.88,25.22s0,0,0,.01c-.03-.02-.05-.04-.07-.05,0,0,.01,0,.02,0,.02.01.03.03.05.05ZM100.12,25.37c.09.03.17.05.18.07,0,.01-.08-.02-.18-.07ZM99.8,25.17c-.06-.04-.1-.07-.09-.08.02,0,.06.03.11.07,0,0-.02,0-.02,0ZM99.16,31.59c.03.09.04.11,0,0h0ZM99.12,31.48s.02.07.03.1c-.04-.06-.05-.1-.03-.1ZM99.02,31.21c-.03-.06-.05-.12-.09-.15.02.02.05.08.09.15ZM99.49,32.03s0,0,0,0c0,.02.02.03.03.05h0s-.02-.03-.03-.05ZM33,32.41s.02.04.03.06c-.01,0-.02-.01-.03-.02-.01,0-.02-.01-.03-.02,0,0,0-.02.03-.02ZM33.18,32.53s-.05-.02-.08-.03c0,0,0,0,0,0-.03-.03-.06-.06-.09-.09.07,0,.17.05.28.14-.04,0-.08-.01-.11-.02ZM32.82,32.23s-.01-.03-.02-.04c.06.04.13.11.18.19-.06-.06-.11-.11-.16-.15ZM35.18,25.26s.03,0,.05-.01c-.06.04-.1.07-.09.06,0-.01.03-.03.05-.05ZM35.33,25.15s0,0,0,0c-.16.03-.3.06-.29.04.03-.04.16-.04.29-.04ZM32.46,23.95s0,0,0,0c-.04.02-.09.05-.13.07,0,0,0,0,0,0,.02-.01.04-.02.06-.03.02,0,.05-.02.07-.03ZM57.94,42.19c2.14.07,4.3-.02,6.43-.03.55,0,1.09,0,1.64,0-1.79,1.05-3.01,2.69-3.73,4.61-.46,1.24-.54,2.75-.24,4.13h-2.76c.52-.72.83-1.59.79-2.48v-2.11c0-1.97-1.48-3.82-3.38-4.25.41.08.82.14,1.25.15ZM109.72,42.07c-1.24-.04-2.48-.09-3.72-.13-1.21-.04-2.32.51-3.12,1.37-.75.79-1.23,1.84-1.23,2.99v2.11c0,1.03.42,2.01,1.07,2.79-.71.29-1.32.76-1.79,1.35-.2-.26-.43-.49-.68-.69.1-.21.19-.43.24-.66.2-.64.18-1.39.02-2.09-.09-.44-.23-.86-.46-1.26-.05-.08-.11-.16-.17-.23.08-.29.15-.58.23-.87.25-.95.16-1.93-.22-2.83-.1-.37-.29-.69-.56-.96-.09-.14-.21-.26-.32-.38,3.16.11,6.19-.52,9.18-1.84.05-.02.09-.06.14-.08.34.45.75.87,1.25,1.18.2.12.44.18.66.27l-.53-.02ZM54.34,41.07c.63.46,1.37.76,2.18.93-.26-.05-.52-.07-.79-.06-1.05.04-2.09.08-3.14.12.65-.2,1.27-.53,1.75-.99ZM124.08,42.59c.36-.15.7-.34,1.02-.57.27.25.55.46.86.64-.63-.02-1.25-.04-1.88-.07ZM66.75,25.09c.39.07.3.09,0,0h0ZM41.38,41.92c.38.22.81.39,1.26.5-1.03.04-2.07.08-3.1.11.63-.17,1.24-.37,1.84-.61ZM116.39,52.44s-.03-.04-.05-.06c.03,0,.06,0,.09,0-.02.02-.03.04-.04.06ZM136.28,34.17s0,0,0,0c.14.03.22.05.27.06-.09-.02-.19-.04-.27-.06ZM68.59,16.62c-.66-.11-.47-.19,0,0h0ZM64.69,21.84c-.02.12.01.25,0,.37-.03.25-.02.52-.02.78-.06-.33-.06-.71.02-1.15ZM44.7,22.03s-.02-.04-.03-.06c.43.5.15.35.03.06ZM43.45,91.24s-.01,0-.02,0c-.28-.12-.55-.23-.83-.35.28.12.56.24.85.35ZM121.51,78.62c-.21-.03-.41-.06-.62-.08-.26-.06-.52-.08-.79-.07.27-.2.51-.43.73-.68.31.39.69.71,1.11.98-.14-.05-.28-.11-.43-.14ZM136.58,69.8s0-.02,0-.02c.03.03.07.04.09.07-.04-.03-.06-.03-.09-.05Z"/>
    <path class="cls-1" d="M82.83,68.48c.05-.07.09-.12.11-.15.02-.02.03-.04.04-.06.01-.03-.07.07-.15.21Z"/>
    <path class="cls-1" d="M99.34,31.79s.03.03.04.04c-.1-.17-.17-.27-.21-.31.06.09.11.19.17.28Z"/>
  </g>
  <g>
    <g>
      <polygon class="cls-2" points="105.99 46.29 135.54 47.34 105.99 48.4 105.99 46.29 105.99 46.29"/>
      <polygon class="cls-2" points="55.71 48.4 26.94 47.34 55.71 46.29 55.71 48.4 55.71 48.4"/>
    </g>
    <g>
      <path class="cls-2" d="M58.7,65.86l-3.54-.03.05,7.1c3.5.08,7.61.88,9.59-1.96l1.29-1.85c.34-.06.88.03,1.42.17l-1.06,5.75-20.16.02-.04-1.1c-.01-.39,2.71-.19,2.71-1.59l.02-14.45c0-.38-.45-1.04-.77-1.09l-1.94-.31-.05-1.3h19.89s.16,5.09.16,5.09c-.61.06-1.34.1-1.75.04l-.95-1.67c-.46-.81-1.53-1.46-2.5-1.47l-5.92-.04v6.7s3.66-.05,3.66-.05c1.28-.02,2.09-1.01,2.35-2.26.38-.11.91-.12,1.49-.1l.03,6.59h-1.52c-.25-1.26-1.12-2.18-2.47-2.19Z"/>
      <path class="cls-2" d="M44.77,71.85c-3.55,4.69-12.59,3.97-17.74,2.78l-.55-5.78c.57-.16,1.21-.23,1.73-.12.66,1.57,1.47,2.98,2.96,3.81,3.06,1.69,8.1,1.28,8.72-1.11.2-.78.12-1.76-.5-2.31-.79-.7-1.8-1.1-2.82-1.41-2.23-.67-4.36-1.33-6.44-2.34-1.66-.81-3.02-2.18-3.27-4.06-.27-2.03.89-3.88,2.66-4.91,4.14-2.41,9.71-1.94,14.26-.76l.35,5.13-1.79.05c-.54-1.5-1.26-2.8-2.65-3.56-1.68-.91-3.8-.96-5.54-.25-1.26.51-1.95,2.03-1.16,3.17.54.77,1.56,1.24,2.45,1.53l5.06,1.66c1.26.41,2.43,1.07,3.47,1.89,2.07,1.64,2.38,4.48.79,6.59Z"/>
      <path class="cls-2" d="M124.5,68.39h-8.18s-1.48,3.35-1.48,3.35c-.26.59-.03,1.43.67,1.61l1.89.48c.35.09.38,1.03.09,1.25h-8.91s-.12-.95-.12-.95c-.1-.71,2.11,0,3.11-2.09l8.04-16.7,4.85-.31,8.1,16.45c.67,1.36,1.6,2.29,3.26,2.33.19.27.22.93.08,1.28l-11.66-.02c-.34,0-.36-1.15-.03-1.24.65-.18,1.53-.29,2.09-.7.33-.24-.05-1.19-.23-1.55l-1.58-3.18ZM123.52,66.3l-3.21-6.61-3.07,6.59,6.28.02Z"/>
      <path class="cls-2" d="M104.32,56.49c-.21-.15-.19-.97-.04-1.26h8.82s.03,1.34.03,1.34c-1.58-.03-2.64.75-3.32,2.13l-8.19,16.53-4.11.02-7.43-14.26c-.66-1.27-1.22-2.53-2.13-3.64-.57-.69-1.72-.66-2.67-.84-.08-.29-.09-.93-.04-1.28h12.31s.04,1.25.04,1.25l-1.72.31c-.21.04-.56.27-.67.42-.13.18-.12.76,0,.98l6.11,11.85,5.41-11.24c.31-.64.23-1.26-.13-1.81l-2.27-.49Z"/>
      <path class="cls-2" d="M89.39,68.74l-1,6.32h-19.84s0-1.25,0-1.25l1.83-.38c.5-.1.91-.76.91-1.32v-14.2c0-.52-.52-1.07-.94-1.14l-1.84-.29v-1.25s12.05-.01,12.05-.01c.06.34.06.99,0,1.3l-1.74.26c-.68.1-1.28.72-1.28,1.44v14.57c1.98.37,3.81.39,5.73.15,2.46-.31,3.46-2.34,4.59-4.31.36-.07,1.04,0,1.54.12Z"/>
    </g>
    <g>
      <path class="cls-2" d="M68.5,51.36c-1.29.26-2.2-.58-2.29-1.69-.14-1.85.97-3.46,2.68-4.11.84-.32,1.64-.12,2.47.29l.63-2.44c.18-.71-1.14-.6-.94-.92.06-.09.33-.36.46-.37l2.57-.26-2.09,8.34c.7.39.44-.11,1.49-.36.12-.03.06.49-.03.58-1.17,1.25-2.61,1.08-2.79.71l-.43-.91c-.42.42-1.06,1.01-1.72,1.14ZM69.62,50.03c1.01-1.13,1.81-3.39.91-3.8-.23-.1-.89-.07-1.12.12-1,.82-1.58,2.36-1.19,3.7.15.51,1.05.38,1.41-.01Z"/>
      <path class="cls-2" d="M96.28,50.03c-.3,1.03-1.67,1.61-2.71,1.25-.26-.09-.51-.69-.59-1.09-.67.84-2.09,1.72-3.25.92-.32-.22-.7-.84-.74-1.33-.17-2.09,1.18-3.88,3.2-4.38.67-.17,1.4.28,1.94.45.46-.05,1.24-.72,1.79-.29l-1.11,4.2c-.04.15.06.58.15.64.38.22,1.01-1.01,1.33-.37ZM93.01,46.09c-1.43.07-2.31,2.26-2.12,3.7.03.24.41.62.62.61,1.68-.07,2.92-4.37,1.5-4.3Z"/>
      <path class="cls-2" d="M76.41,49.95c.47.79,1.8.43,2.76-.33.09-.07.53-.12.52,0-.09,1.03-2.44,2.46-4.32,1.48-.78-.4-1.15-1.31-1.03-2.21.3-2.37,2.57-3.95,4.92-3.38.37.09.84.6.91.93.36,1.6-2.56,2.33-3.92,2.4-.06.22.02.87.17,1.12ZM78.48,46.8c.05-.17-.11-.67-.28-.69-1.06-.13-1.85,1.23-1.88,2.06,1.03.01,1.86-.32,2.16-1.36Z"/>
      <path class="cls-2" d="M88.23,50.08c-.56,1.13-2.51,1.75-3.16,1.02-.19-.22-.35-.94-.26-1.25l1.69-6.38c.03-.1.06-.48-.04-.51l-.47-.14c-.12-.04-.42-.22-.39-.34s.29-.33.43-.34l2.61-.28-2,7.83c-.04.16,0,.65.13.66.17.01.52-.08.65-.19l.41-.35c.08-.07.44.19.39.29Z"/>
    </g>
    <g>
      <path class="cls-2" d="M11.51,35.42l.09,3.02c2.04-.03,2.83.16,3.8-1.44l.26-.42c.06-.1.53.09.52.19l-.32,2.31-7.18.51c-.13,0-.42-.12-.42-.24s.2-.33.34-.35c.53-.09.72-.46.71-1.02l-.11-5.62c-.02-1.1-.91-.54-1.2-1.04-.06-.11.2-.37.34-.37l7.1-.28c.09.22.45,2.77-.29,2.26-.61-.43-.6-1.34-1.51-1.32l-2.19.05v2.8c3.13.29,1.59-1.11,2.82-.87l.05,2.61c-1.4.27.21-1.11-2.83-.79Z"/>
      <path class="cls-2" d="M23.77,36.53l-.41,2.27-6.6.23c-.14,0-.38-.29-.3-.35.58-.5,1.01-.44,1.01-.85l-.07-5.77c0-.44-.3-.73-.68-.82l-.36-.08c-.1-.02.03-.5.13-.51l3.95-.13c.11,0,.34.32.28.38-.54.44-1.15.29-1.14.83l.11,6.28c2.12.1,2.3-.07,3.23-1.35l.28-.4c.07-.09.6.11.57.27Z"/>
    </g>
    <g>
      <path class="cls-2" d="M79.65,37.72l-21.85.12c-.29,0-.95-.07-.95-.28s0-.59.02-.84c.02-.32,1.44-.18,2.06-.74.25-.22.06-1.01-.09-1.33l-1.5-3.22-7.12.06-1.34,3.24c-.12.28-.13,1.03.05,1.27.21.27.87.44,1.29.53l.99.21c.27.06.2,1,.02,1.21l-7.68.25c-.24,0-.43-.72-.32-.93.39-.76,1.93-.4,2.57-1.81l7.23-15.88,4.4-.39,7.51,15.92c.37.78,1.13,1.21,1.82,1.26.76.05,2-.09,2.3-.94v-13.62c-.01-1.6-4-.3-2.42-2.43h11.86c2.98-.02,7.48.71,7.49,4.3,0,1.61-.9,2.99-2.48,3.58l-1.56.57c1.53.6,3.09.73,4.2,1.91,1.95,2.06,1.16,5.47-1.36,6.8-1.51.79-3.21,1.19-5.12,1.2ZM80.22,23.68c-.25-3.14-3.28-2.48-5.58-2.5l.02,6.07c1.2.01,2.45,0,3.6-.27,1.49-.33,2.07-1.82,1.95-3.31ZM56.48,29.51l-2.8-5.77-2.64,5.85,5.43-.07ZM81.33,32.51c.1-1.76-1.08-3.1-2.72-3.27-1.31-.14-2.56-.11-3.98-.1l.07,6.52c1.71.26,3.25.36,4.79-.15,1.18-.4,1.77-1.68,1.85-3Z"/>
      <path class="cls-2" d="M123.29,31.74c-.78-1.19-1.83-1.73-3.27-1.44l-.04,5.09c-.02,2.29,2.28,1.43,2.63,2.14.13.26.03,1.13-.27,1.11l-10.42-.51c-.27-.01-.4-.64-.33-.87.29-.95,2.7.24,2.7-2.06v-12.54c0-.38-.11-1.04-.32-1.25-.55-.56-1.32-.4-2.27-.75-.25-.09-.11-.89-.04-1.18l13.21.14c2.91.03,6.82,1.2,7.15,4.49.31,3.07-2.06,4.82-5.23,5.29,2.49,1.52,4.27,4.62,5.84,7.13.71,1.13,1.89,1.77,3.17,2.01.21.23.17,1.07-.12,1.26l-7.62-.81-4.75-7.25ZM126.03,24.73c.01-1.78-1.03-3.07-2.72-3.29-1.06-.13-2.16-.09-3.29-.01v7.13c1.2,0,2.18-.02,3.17-.21,1.76-.33,2.84-1.75,2.85-3.62Z"/>
      <path class="cls-2" d="M105.99,36.96c-4.02,1.84-8.66,1.71-12.59-.06-3.24-1.46-5.07-4.49-5.18-7.96-.11-3.38,1.41-6.41,4.42-8.11,4.19-2.38,9.45-2.37,13.71-.14,3.36,1.77,5.12,5.13,4.77,8.89-.3,3.21-2.02,5.96-5.13,7.38ZM100.18,36.32c1.97-.09,3.3-1.21,4.04-2.88,1.06-3.09,1.12-6.57-.13-9.59-.83-2.01-2.58-2.96-4.66-2.94-2.04.02-3.71,1.02-4.43,3.02-1.02,2.85-1.05,6.08,0,8.92.82,2.22,2.69,3.58,5.18,3.47Z"/>
      <path class="cls-2" d="M42.64,36.09c-3.66,3.53-10.93,3.17-15.61,2.03l-.46-5.49c.49-.22,1.27-.28,1.67-.07.55,1.82,1.64,3.44,3.49,4.07,2.15.72,7.06.62,7.09-2.41.03-3.65-6.13-2.85-10.22-6.06-1.96-1.54-2.31-4.19-.77-6.14,2.91-3.7,10.54-3.43,14.66-2.19l.36,4.75c-2.56,1.34-1.52-1.78-3.91-3.09-2.27-1.24-6.92-.94-6.87,1.72.07,3.56,11.26,2.85,12.03,8.55.22,1.64-.26,3.18-1.45,4.32Z"/>
    </g>
    <g>
      <path class="cls-2" d="M111.54,81.17c.19-.13.64,0,.68.19s-.03.55-.16.67-.58.04-.71-.13-.04-.58.19-.73Z"/>
      <path class="cls-2" d="M72.66,83.44c-1.64,1.61-.95,3.4-2.19,2.61l.67-2.26c.03-.1-.01-.42-.1-.45s-.32.03-.4.1c-1.58,1.45-.84,3.25-2.17,2.63l.69-2.57-.72.12c.23-.63.87-.92,1.54-.72l-.14,1c.29-.49,1.38-1.53,1.93-1.03.13.12.16.51.22.88.24-.41,1.41-1.43,1.98-.81.11.12.15.52.1.69l-.63,2.12.82-.41c-.11.71-.84,1.04-1.4.87-.18-.06-.25-.57-.18-.76l.58-1.67c.03-.09,0-.39-.09-.42-.1-.04-.39.02-.48.1Z"/>
      <path class="cls-2" d="M52.73,83.79c-.15-.22-.82-.16-1.14-.09-.15.66-.25,1.23-.33,1.96.71.1,1.33.12,1.95-.02l1.01-1.01c-.07.62-.19,1-.37,1.48l-4.27-.02c.23-.2.4-.3.72-.49l.84-4.02-.61-.52,3.98-.06c-.04.53-.08.84-.27,1.44l-.35-.73c-.08-.16-.47-.3-.64-.29l-1.19.06-.37,1.69c.74.32,1.18.11,1.78-.55-.07.64-.17,1.08-.37,1.71l-.36-.54Z"/>
      <path class="cls-2" d="M119.6,87.55c-1.19.85-3.18.39-3.09-.5.02-.18.28-.45.44-.53l.59-.27c-.1-.2-.28-.43-.22-.53l.34-.54c.05-.35-.78-.97.07-1.84s1.42-.12,2.51-.53c.12-.05.34.16.35.27.02.13-.38.25-.53.32-.08.34-.11.96-.32,1.27-.59.85-1.79.29-1.71.88l1.37.56c.21.08.51.39.55.59.05.23-.15.7-.36.86ZM119.21,84.23c.16-.28.05-1.04-.28-1.03-.75.02-.94,1.14-.66,1.6.08.12.51.17.58.05l.36-.63ZM119.32,86.99c-.58-.41-1.53-.83-1.89-.44-.17.18-.2.69,0,.84.59.48,1.69.43,1.9-.4Z"/>
      <path class="cls-2" d="M87.1,85.28c-.34.67-1.08,1.27-1.72.87-.69-.42-.25-2.57,1.28-3.17.25-.1.67-.1,1.05-.13l.38-1.45-.55-.39c.5-.15,1.01-.23,1.5-.24l-1.24,4.85c.26-.04.45-.1.77-.2-.06.46-.81.99-1.31.78-.23-.1-.22-.74-.15-.9ZM87.52,83.37c-.11-.24-.73-.12-.92.11-.48.57-1.04,1.8-.57,2.26.4.39,1.69-1.66,1.49-2.37Z"/>
      <path class="cls-2" d="M83.11,84.45c-.52-.07-1.19-.12-1.67.05-.33.12-.57.92-.65,1.19l.54.43h-1.82c.47-.41.79-.67,1.09-1.14l2.38-3.63c.14-.21.41-.37.66-.33l.43,4.37c.02.18.29.4.58.71l-2.17.02.64-.44-.02-1.24ZM83.1,83.99l-.23-1.88-1.2,1.92c.53.08,1,.09,1.42-.04Z"/>
      <path class="cls-2" d="M44.39,83.63c.03,1.29-.92,2.49-2.19,2.61-.21.02-.62-.08-.75-.19-.16-.12-.23-.55-.17-.77l.86-3.44c.03-.12.11-.42.02-.48l-.48-.38,1.49-.28-.64,2.62.78-.43c.45-.25,1.07.14,1.09.74ZM43.59,83.78c0-.13-.17-.43-.29-.43-.83.02-1.42,1.76-1.3,2.46.93.42,1.56-1.17,1.6-2.04Z"/>
      <path class="cls-2" d="M98.86,86.23c-.17-.04-.27-.53-.21-.7l.6-1.79c.02-.07-.02-.28-.07-.34-.07-.08-.4-.03-.49.05-1.33,1.13-1.14,2.49-1.61,2.76-.13.07-.62-.05-.58-.19l.68-2.57-.69.17c.16-.63.92-.92,1.47-.65l-.09.89c.43-.52,1.38-1.51,2.02-.92.14.13.21.52.15.73l-.58,2.06.78-.39c-.02.59-.73,1.03-1.37.89Z"/>
      <path class="cls-2" d="M115.08,85.66l.57-1.88c.33-1.07-1.5-.14-1.88,2.24-.03.2-.51.23-.82.16l.67-2.66-.67.07c.31-.67.96-.83,1.45-.55l-.02.71c.5-.61,1.52-1.29,1.95-.68.11.15.12.52.06.72l-.54,1.9.8-.31c-.12.57-.98,1.09-1.44.81-.1-.06-.19-.39-.15-.53Z"/>
      <path class="cls-2" d="M107.31,85.42c-.23.57-.83.97-1.51.77l-.02-.9c-.41.44-1.13,1.36-1.84.84-.16-.11-.22-.52-.16-.74l.53-1.94-.68.05c.24-.53.92-.85,1.57-.5l-.63,2.28c-.03.11.01.33.06.41s.36,0,.44-.07c.67-.59,1.18-1.68,1.38-2.62.2-.1.63-.1.79-.03l-.73,2.72.8-.26Z"/>
      <path class="cls-2" d="M47.7,82.84c1.17.06-2.09,5.53-3.48,4.91-.16-.07-.24-.53-.13-.66.15-.17.48-.07.75.05.46.22.9-.5.85-.95-.11-.98-.22-1.75-.43-2.73l-.63.36c-.03-.2.12-.58.39-.78.15-.11.48-.2.64-.19s.41.31.43.49l.28,2.42.78-1.32c.41-.68-.57-1.67.53-1.62Z"/>
      <path class="cls-2" d="M58.18,85.31c.01.58-.72,1.19-1.31.78-.26-.18-.45-.76-.64-1.09l-.9,1.11c-.1.12-.46.16-.6.12-.18-.04-.31-.49-.15-.63.55,0,1.23-.28,1.5-.92,0-.37-.3-.92-.55-1.29l-.58.24c-.05-.47.56-1.08,1.12-.79.33.17.52.82.71,1.18l.88-1.15c.1-.12.5-.12.62-.05.15.07.13.56-.03.6-.56.11-1.24.34-1.28,1.07-.02.32.31.87.52,1.17l.68-.35Z"/>
      <path class="cls-2" d="M66.79,85.71l.94-.47c-.25.74-1.1,1.05-1.85,1.01-.5-.03-.92-.41-.97-.92-.13-1.32.87-2.53,2.21-2.58.32-.01.74.15.86.37.59,1.03-1.53,1.49-2.12,1.66-.18.07-.09.67.05.81.16.16.65.23.88.12ZM67.18,83.59c.04-.09-.02-.48-.11-.47-.71.05-1.2.63-1.2,1.33.49-.09,1.06-.32,1.31-.86Z"/>
      <path class="cls-2" d="M76.59,85.75l1.05-.52c-.35.92-1.48,1.23-2.31.89-.54-.22-.61-.93-.5-1.42.25-1.19,1.18-2.05,2.43-1.93.25.02.59.26.65.45.31.96-1.39,1.35-2.1,1.53-.19.06-.15.57-.05.74.11.19.59.38.83.26ZM77.06,83.67c.06-.12.03-.46-.07-.51-.54-.29-1.26.7-1.2,1.28.52-.08,1.03-.31,1.27-.76Z"/>
      <path class="cls-2" d="M94.39,85.81c.58-.12.88-.35,1.36-.57-.31.81-1.18,1.12-2,1.01-.37-.05-.76-.42-.81-.81-.16-1.38.89-2.67,2.28-2.67.3,0,.71.24.8.46.38,1-1.52,1.39-2.14,1.55-.13.08-.15.43-.1.56.05.16.42.51.62.47ZM95.14,83.21c-.58-.28-1.29.65-1.29,1.24.99,0,1.67-1.05,1.29-1.24Z"/>
      <path class="cls-2" d="M91.62,83.14c-.03-.18.37-.37.52-.32,1.23.41-1.06,3.41-2.08,3.61l-.37-2.5c-.02-.12-.12-.47-.21-.43l-.59.22c-.04-.28.34-.71.71-.85.12-.05.49-.03.59.06s.22.35.23.48l.28,2.17c1.32-1.11,1.09-1.42.92-2.43Z"/>
      <path class="cls-2" d="M61.01,85.24c-.03.6-1.39,1.36-1.89.85-.11-.11-.18-.52-.14-.68l.51-2.09-.73-.2.78-.33c.16-.07.22-.52.3-.78.06-.2.59-.22.79-.14l-.17.93,1,.26c-.49.21-.66.2-1.15.25l-.55,2.37c.53.04.67-.2,1.25-.44Z"/>
      <path class="cls-2" d="M102.96,85.28c.14.39-1.27,1.36-1.84.84-.1-.09-.18-.46-.14-.61l.5-2.17-.5-.1c-.07-.02-.07-.26,0-.27l.51-.1c.34-.06.22-.97.53-.98l.61-.04-.15,1.01.78.08c.07,0,.06.33-.01.34l-.32.03c-.19.02-.49.05-.65.08l-.51,2.31c.49.07.67-.13,1.2-.41Z"/>
      <path class="cls-2" d="M62.32,83.72c.02-.09-.14-.32-.2-.31l-.48.07c.28-.62.89-.73,1.49-.61l-.03.84c.3-.37.61-.72,1.05-.94.15-.07.58.06.64.22.08.18-.02.57-.21.71-.15.12-.52-.08-.72-.29-.73.6-1.16,1.64-1.34,2.61-.15.18-.65.16-.85.05l.64-2.35Z"/>
      <path class="cls-2" d="M109.9,83.55c-1.55,1.15-.63,3.24-2.07,2.59l.6-2.23c.03-.1.02-.45-.05-.43l-.53.13c.03-.54.76-.79,1.35-.65l.05.76c.2-.25.58-.65.88-.84.14-.09.59.09.68.23.1.15-.06.47-.24.66-.12.13-.41-.02-.67-.21Z"/>
      <path class="cls-2" d="M111.4,86.28c-.19.05-.59-.28-.53-.48l.62-2.32c-.27-.03-.56-.12-.48-.2.4-.43.89-.43,1.4-.31l-.72,2.64.68-.19c0,.37-.45.72-.97.85Z"/>
    </g>
  </g>
</svg>