<?xml version="1.0" encoding="UTF-8"?>
<svg id="Capa_1" data-name="Capa 1" xmlns="http://www.w3.org/2000/svg" viewBox="0 0 144 107">
  <defs>
    <style>
      .cls-1 {
        fill: none;
      }

      .cls-2 {
        fill: #fff;
      }

      .cls-3 {
        fill: #00acef;
      }

      .cls-4 {
        fill: #f6a500;
      }

      .cls-5 {
        fill: #ea0202;
      }
    </style>
  </defs>
  <path class="cls-2" d="M135.69,36.73c-1.14-.92-2.38-1.73-3.68-2.42-2.58-1.37-5.4-2.24-8.27-2.75-1.58-.28-3.17-.47-4.78-.52-.9-.03-1.8-.01-2.7.02-.77.03-1.64.2-2.4.12-1.57-.15-2.73-1.27-4.09-1.93-.63-.31-1.15-.61-1.56-1.2-.37-.53-.72-1.06-1.16-1.54-1.9-2.1-4.45-3.25-7.23-3.54-.78-.08-.93-.76-1.32-1.35-.42-.64-.92-1.2-1.46-1.74-1.07-1.09-2.2-2.04-3.59-2.69-.75-.36-1.55-.6-2.36-.79-.79-.19-1.39-.56-2.11-.91-1.41-.69-2.96-1.09-4.52-1.22-1.51-.13-2.91-.86-4.43-1.07-1.56-.21-3.17-.15-4.69.29-1.44.41-2.74,1.06-4.05,1.76-.69.37-1.46.46-2.21.68-.71.22-1.41.49-2.07.84-1.32.69-2.35,1.72-3.62,2.47-1.26.75-2.17,1.7-3.73,1.42-3.41-.6-6.77-.77-10.22-.38-5.42.62-10.86,2.75-14.9,6.48-1,.92-1.91,1.94-2.69,3.05-.4.57-.76,1.16-1.09,1.77-.25.47-.46.96-.83,1.35-1.08,1.14-2.37.94-3.78.73-1.75-.26-3.53-.44-5.3-.39-3.04.08-6,.79-8.81,1.92-2.3.92-4.72,2.16-6.34,4.09-.95,1.13-1.36,2.55-1.8,3.93-.41,1.26-.66,2.58-.7,3.91-.08,2.75.78,5.39,2.8,7.32.22.21.28.6.11.86-1.44,2.23-1.48,4.66-1.21,7.21,0,.02,0,.04,0,.06.04.51.11,1.01.18,1.51,0,0,0,0,0,0,.29,2.01.88,3.84,2,5.55.52.8,1.14,1.54,1.84,2.19.67.63,1.44,1.06,2.15,1.61,1.27.98,1.55,2.82,1.4,4.31-.14,1.42-.02,2.86.38,4.23.78,2.68,2.6,4.95,5.09,6.21,3.17,1.61,7.02,1.3,10.36.44.93-.24,1.85-.69,2.8-.82,1.06-.15,2.11-.31,3.15-.54.98-.21,1.95-.44,2.91-.75.43-.14.85-.31,1.31-.35.41-.04.81.01,1.22,0,.25,0,.49.14.61.35.31.52.69.97.98,1.5.31.57.67,1.12,1.08,1.64.75.95,1.63,1.79,2.65,2.44,1.86,1.18,4.07,1.78,6.27,1.82,1.03.02,2.06-.08,3.06-.32.96-.23,1.79-.7,2.71-1,1.01-.34,2.25-.37,3.31-.5.67-.08,1.35-.09,2.02-.21.48-.09.92-.2,1.41-.24,1.26-.08,2.52-.09,3.78-.18.58-.04,1.17-.2,1.75-.16.57.04,1.13.23,1.7.31,1.22.18,2.44-.01,3.63.26,1.28.29,2.58.4,3.89.29.73-.06,1.43-.26,2.16-.36.57-.08,1.13.02,1.7.06,1.28.1,2.54.27,3.79.55,1.13.26,2.26.46,3.38.73,1.14.27,2.31.37,3.48.34,4.63-.15,8.98-2.77,11.13-6.9.16-.3.5-.37.8-.33.88.13,1.77.18,2.66.21.81.03,1.49.34,2.26.55,1.56.42,3.17.42,4.75.7.25.05.39.21.46.41.89.18,1.77.35,2.65.58,1.61.44,3.29.86,4.95,1.04,2.51.28,5.02-.1,7.24-1.33,1.21-.67,2.16-1.53,3.17-2.45.89-.81,1.63-1.66,2.18-2.74,1.06-2.08,1.36-4.62.84-6.89-.28-1.21-.29-2.1.36-3.21.27-.46.52-.92.73-1.41-.14-.12-.24-.3-.22-.52.02-.31.19-.6.31-.89.28-.64.6-1.27.87-1.91.36-.84.45-1.79.64-2.68.19-.89.4-1.77.57-2.66.36-1.89.46-3.8-.1-5.66-.25-.84-.79-1.62-.95-2.48-.12-.69.03-1.34.34-1.96.02-.05.04-.1.07-.15.83-1.37,1.28-2.87,1.7-4.41.78-2.89.36-6.48-1.6-8.83-.89-1.08-2.06-1.99-3.15-2.87Z"/>
  <path class="cls-3" d="M35.81,44.58c-.05.08,0,.42-.02.6-.1.8-.37,1.4-.81,1.79-.44.39-1.2.53-2.26.4s-2.41-.41-3.93-.83c-1.52-.42-2.9-.84-4.16-1.27-1.26-.43-2.67-.81-4.23-1.14-1.56-.33-3.02-.52-4.4-.58-1.38-.05-2.85.13-4.42.56-1.57.43-3.06,1.14-4.48,2.13-.04.01-.06.05-.04.1.01.05.05.07.12.06,3.84.04,6.64,1.25,8.41,3.64.09.11.17.12.24.03.63-.7,1.34-1.23,2.13-1.59.79-.36,1.56-.59,2.31-.67.75-.08,1.62-.07,2.61.03.99.1,1.88.24,2.68.42.8.18,1.76.38,2.87.61,1.11.23,2.07.39,2.87.48,1,.12,1.89.14,2.66.05s1.39-.24,1.84-.46c.45-.22.83-.51,1.13-.87.3-.36.51-.71.63-1.04.12-.33.21-.7.26-1.1,0-.03,0-.07,0-.11,0-.56-.42-1.05-.96-1.18-.3-.07-.96-.17-1.03-.06Z"/>
  <g>
    <path class="cls-3" d="M40,43.42c-1.15.03-2.2-.43-3.15-1.36-.95-.94-1.44-2.1-1.48-3.49-.02-.95.16-1.94.55-2.98.39-1.04,1-2.06,1.84-3.06s1.83-1.9,2.98-2.71c1.15-.81,2.56-1.47,4.21-1.98s3.43-.79,5.33-.84c1.84-.04,3.5.17,5,.65,1.5.48,2.7,1.23,3.61,2.25.91,1.02,1.39,2.22,1.42,3.62.04,1.47-.41,2.74-1.35,3.79-.93,1.05-2.22,1.81-3.87,2.27,1.04.44,1.86,1.08,2.45,1.93s.91,1.83.93,2.96c.02.89-.12,1.73-.42,2.52-.3.8-.75,1.52-1.34,2.18-.59.66-1.39,1.19-2.4,1.59-1.01.4-2.16.61-3.45.64-1.25.03-2.27-.2-3.05-.7-.78-.5-1.18-1-1.19-1.5,0-.16.03-.3.1-.41.07-.11.14-.17.22-.17.04,0,.13.06.26.18.13.12.3.25.49.4.2.15.49.28.89.39.4.11.85.16,1.35.15,1.21-.03,2.23-.34,3.07-.94.83-.6,1.42-1.33,1.77-2.19.34-.87.5-1.81.48-2.84-.03-1.11-.3-1.98-.82-2.6-.52-.62-1.16-1.01-1.91-1.15-.26.03-.49.04-.7.05-.59.01-.94-.22-1.08-.7-.07-.28-.01-.42.17-.43,1.96-.05,3.48-.59,4.57-1.64,1.09-1.05,1.61-2.42,1.57-4.11-.04-1.51-.59-2.72-1.66-3.61-1.07-.89-2.7-1.31-4.88-1.26-1.53.04-2.97.3-4.3.78-1.33.49-2.45,1.1-3.35,1.84s-1.67,1.56-2.32,2.46c-.64.9-1.11,1.8-1.41,2.68-.29.89-.43,1.71-.41,2.48.02.77.2,1.37.56,1.82.35.45.84.66,1.47.65.83-.02,1.57-.4,2.21-1.13.65-.73.97-1.4.95-2.01,0-.2.13-.23.39-.07.39.19.59.52.6.99.02.97-.44,1.98-1.4,3.02-.95,1.04-2.13,1.58-3.52,1.61ZM55.16,31.03c-.69.02-1.36.4-2.02,1.15-.66.75-1.26,1.72-1.79,2.91-.54,1.18-1.08,2.5-1.62,3.95-.54,1.45-1.1,2.89-1.68,4.33-.58,1.44-1.19,2.76-1.81,3.95-.63,1.2-1.35,2.17-2.16,2.93-.81.76-1.67,1.15-2.58,1.17-.79.02-1.48-.28-2.07-.89-.59-.61-.89-1.22-.91-1.83,0-.24.02-.44.09-.61.07-.16.15-.25.25-.25.02,0,.09.05.22.15.12.1.26.15.4.14.4,0,.78-.07,1.12-.18.34-.11.75-.36,1.22-.76.47-.39.96-.93,1.45-1.61.49-.68,1.06-1.63,1.7-2.86.65-1.23,1.33-2.69,2.06-4.38,1.18-2.8,2.38-4.83,3.58-6.1,1.2-1.27,2.45-1.92,3.74-1.95.46-.01.76.14.89.46.08.18.06.27-.08.27Z"/>
    <path class="cls-3" d="M69.75,39.62c.02.91-.37,1.75-1.18,2.51-.81.77-1.73,1.34-2.75,1.73-1.02.39-1.98.61-2.86.67-.07.37-.1.72-.1,1.06.01.59.15,1.06.4,1.43.25.37.63.55,1.13.53.36,0,.76-.07,1.19-.19.43-.12.95-.34,1.54-.64.6-.31,1.23-.8,1.89-1.47.66-.67,1.27-1.48,1.84-2.42.04-.08.09-.09.15-.03l.62.68c.04.06.04.12,0,.18-.6,1.02-1.22,1.91-1.86,2.65-.64.74-1.21,1.3-1.72,1.68-.51.38-1.06.68-1.65.9-.59.23-1.06.36-1.4.41-.34.05-.75.08-1.21.09-1.19.03-2.09-.34-2.71-1.1-.61-.76-.94-1.74-.96-2.93-.03-1.11.27-2.26.89-3.44.62-1.19,1.47-2.19,2.55-3,1.08-.81,2.2-1.23,3.35-1.26.87-.02,1.55.13,2.06.45.5.32.76.82.78,1.51ZM67.19,38.8c-.65.02-1.36.49-2.15,1.41-.79.93-1.39,1.99-1.8,3.19,1.85-.53,3.16-1.48,3.93-2.85.47-.8.56-1.36.29-1.67-.06-.06-.15-.09-.27-.08Z"/>
    <path class="cls-3" d="M84.23,43.18c.06.06.07.12.03.18-.72,1.23-1.34,2.22-1.87,2.97-.53.75-1.01,1.3-1.46,1.64-.45.34-.82.57-1.14.66-.31.1-.69.15-1.13.16-.65.02-1.19-.19-1.64-.63-.44-.43-.68-.98-.69-1.65v-.06c-1.11,1.62-2.27,2.45-3.46,2.48-.85.02-1.51-.27-1.99-.86-.48-.59-.73-1.4-.75-2.4-.02-.79.14-1.64.47-2.57.33-.93.78-1.8,1.33-2.62.56-.82,1.26-1.51,2.12-2.07.85-.56,1.74-.84,2.64-.87,1.17-.03,1.93.42,2.27,1.34.02-.04.08-.18.17-.43.06-.12.16-.19.3-.19l2.42-.06c.06,0,.11.02.14.07.03.05.04.11.02.17-1.34,3.06-2.18,5.07-2.51,6.03-.33.96-.49,1.69-.48,2.19,0,.36.15.54.44.54.3,0,.82-.43,1.55-1.26.73-.84,1.53-1.98,2.4-3.44.06-.06.11-.06.15,0,.31.32.53.54.65.68ZM78.08,40.94c.04-.69-.04-1.24-.25-1.66-.21-.42-.5-.62-.86-.62-.63.01-1.27.45-1.94,1.32-.67.86-1.2,1.86-1.6,2.98-.4,1.12-.59,2.07-.57,2.86,0,.36.09.65.25.86.16.21.34.31.57.3.91-.02,2.09-1.32,3.54-3.9.21-.59.49-1.3.86-2.14Z"/>
    <path class="cls-3" d="M90,41.47c-.36,0-.55-.1-.55-.32.81-.95,1.13-1.75.97-2.42-.07-.32-.28-.48-.65-.47-.55.01-1.16.38-1.85,1.09-.69.71-1.28,1.61-1.77,2.69-.49,1.08-.72,2.09-.7,3.02.01.59.15,1.08.41,1.49s.64.61,1.12.59c.36,0,.75-.08,1.16-.22s.9-.37,1.47-.69,1.17-.82,1.8-1.5c.63-.68,1.23-1.49,1.79-2.44.04-.08.09-.09.15-.03l.62.68c.06.06.07.12.03.18-.6,1.02-1.22,1.91-1.85,2.65s-1.19,1.3-1.67,1.68c-.49.38-1.01.68-1.57.9-.56.23-1.01.36-1.34.41-.33.05-.73.08-1.19.09-1.19.03-2.09-.34-2.71-1.1-.61-.76-.94-1.74-.96-2.93-.03-1.11.27-2.26.89-3.44.62-1.19,1.47-2.19,2.55-3,1.08-.81,2.2-1.23,3.35-1.26,1.7-.04,2.56.62,2.59,1.97.01.59-.21,1.13-.67,1.62-.46.5-.94.75-1.42.76Z"/>
    <path class="cls-3" d="M106.4,42.83c-.7,1.21-1.35,2.2-1.94,2.97-.6.77-1.15,1.33-1.66,1.66-.51.34-.94.55-1.3.65s-.77.16-1.24.17c-.63.02-1.13-.17-1.5-.55s-.57-.92-.58-1.61c-.01-.52.05-1.03.19-1.5.14-.48.48-1.34,1.01-2.58.95-2.37,1.1-3.59.43-3.68-.4,0-.94.29-1.6.86-.66.56-1.31,1.36-1.93,2.41l-2.9,6.64c-.06.12-.15.18-.27.19l-2.42.06c-.06,0-.11-.02-.14-.07-.03-.05-.04-.1-.02-.17l7.7-17.58c.06-.14.16-.22.3-.22l2.39-.06c.06,0,.11.02.14.07.03.05.04.1.02.17l-3.36,7.68c.39-.37.81-.66,1.24-.85.43-.19.77-.31,1.02-.34.25-.04.57-.06.95-.07.69-.02,1.24.17,1.65.55s.63.85.64,1.39c.01.55-.1,1.12-.32,1.73-.79,1.78-1.32,3.04-1.61,3.78-.28.74-.42,1.28-.42,1.6,0,.36.15.54.44.53.4,0,1.03-.48,1.89-1.41.86-.93,1.65-2.03,2.39-3.3.04-.06.09-.06.15,0l.65.68c.04.06.04.12,0,.18Z"/>
  </g>
  <g>
    <path class="cls-4" d="M41.19,43.29c-1.15.03-2.2-.43-3.15-1.36-.95-.94-1.44-2.1-1.48-3.49-.02-.95.16-1.94.55-2.98.39-1.04,1-2.06,1.84-3.06s1.83-1.9,2.98-2.71c1.15-.81,2.56-1.47,4.21-1.98s3.43-.79,5.33-.84c1.84-.04,3.5.17,5,.65,1.5.48,2.7,1.23,3.61,2.25.91,1.02,1.39,2.22,1.42,3.62.04,1.47-.41,2.74-1.35,3.79-.93,1.05-2.22,1.81-3.87,2.27,1.04.44,1.86,1.08,2.45,1.93s.91,1.83.93,2.96c.02.89-.12,1.73-.42,2.52-.3.8-.75,1.52-1.34,2.18-.59.66-1.39,1.19-2.4,1.59-1.01.4-2.16.61-3.45.64-1.25.03-2.27-.2-3.05-.7-.78-.5-1.18-1-1.19-1.5,0-.16.03-.3.1-.41.07-.11.14-.17.22-.17.04,0,.13.06.26.18.13.12.3.25.49.4.2.15.49.28.89.39.4.11.85.16,1.35.15,1.21-.03,2.23-.34,3.07-.94.83-.6,1.42-1.33,1.77-2.19.34-.87.5-1.81.48-2.84-.03-1.11-.3-1.98-.82-2.6-.52-.62-1.16-1.01-1.91-1.15-.26.03-.49.04-.7.05-.59.01-.94-.22-1.08-.7-.07-.28-.01-.42.17-.43,1.96-.05,3.48-.59,4.57-1.64,1.09-1.05,1.61-2.42,1.57-4.11-.04-1.51-.59-2.72-1.66-3.61-1.07-.89-2.7-1.31-4.88-1.26-1.53.04-2.97.3-4.3.78-1.33.49-2.45,1.1-3.35,1.84s-1.67,1.56-2.32,2.46c-.64.9-1.11,1.8-1.41,2.68-.29.89-.43,1.71-.41,2.48.02.77.2,1.37.56,1.82.35.45.84.66,1.47.65.83-.02,1.57-.4,2.21-1.13.65-.73.97-1.4.95-2.01,0-.2.13-.23.39-.07.39.19.59.52.6.99.02.97-.44,1.98-1.4,3.02-.95,1.04-2.13,1.58-3.52,1.61ZM56.34,30.9c-.69.02-1.36.4-2.02,1.15-.66.75-1.26,1.72-1.79,2.91-.54,1.18-1.08,2.5-1.62,3.95-.54,1.45-1.1,2.89-1.68,4.33-.58,1.44-1.19,2.76-1.81,3.95-.63,1.2-1.35,2.17-2.16,2.93-.81.76-1.67,1.15-2.58,1.17-.79.02-1.48-.28-2.07-.89-.59-.61-.89-1.22-.91-1.83,0-.24.02-.44.09-.61.07-.16.15-.25.25-.25.02,0,.09.05.22.15.12.1.26.15.4.14.4,0,.78-.07,1.12-.18.34-.11.75-.36,1.22-.76.47-.39.96-.93,1.45-1.61.49-.68,1.06-1.63,1.7-2.86.65-1.23,1.33-2.69,2.06-4.38,1.18-2.8,2.38-4.83,3.58-6.1,1.2-1.27,2.45-1.92,3.74-1.95.46-.01.76.14.89.46.08.18.06.27-.08.27Z"/>
    <path class="cls-4" d="M70.94,39.49c.02.91-.37,1.75-1.18,2.51-.81.77-1.73,1.34-2.75,1.73-1.02.39-1.98.61-2.86.67-.07.37-.1.72-.1,1.06.01.59.15,1.06.4,1.43.25.37.63.55,1.13.53.36,0,.76-.07,1.19-.19.43-.12.95-.34,1.54-.64.6-.31,1.23-.8,1.89-1.47.66-.67,1.27-1.48,1.84-2.42.04-.08.09-.09.15-.03l.62.68c.04.06.04.12,0,.18-.6,1.02-1.22,1.91-1.86,2.65-.64.74-1.21,1.3-1.72,1.68-.51.38-1.06.68-1.65.9-.59.23-1.06.36-1.4.41-.34.05-.75.08-1.21.09-1.19.03-2.09-.34-2.71-1.1-.61-.76-.94-1.74-.96-2.93-.03-1.11.27-2.26.89-3.44.62-1.19,1.47-2.19,2.55-3,1.08-.81,2.2-1.23,3.35-1.26.87-.02,1.55.13,2.06.45.5.32.76.82.78,1.51ZM68.38,38.67c-.65.02-1.36.49-2.15,1.41-.79.93-1.39,1.99-1.8,3.19,1.85-.53,3.16-1.48,3.93-2.85.47-.8.56-1.36.29-1.67-.06-.06-.15-.09-.27-.08Z"/>
    <path class="cls-4" d="M85.42,43.05c.06.06.07.12.03.18-.72,1.23-1.34,2.22-1.87,2.97-.53.75-1.01,1.3-1.46,1.64-.45.34-.82.57-1.14.66-.31.1-.69.15-1.13.16-.65.02-1.19-.19-1.64-.63-.44-.43-.68-.98-.69-1.65v-.06c-1.11,1.62-2.27,2.45-3.46,2.48-.85.02-1.51-.27-1.99-.86-.48-.59-.73-1.4-.75-2.4-.02-.79.14-1.64.47-2.57.33-.93.78-1.8,1.33-2.62.56-.82,1.26-1.51,2.12-2.07.85-.56,1.74-.84,2.64-.87,1.17-.03,1.93.42,2.27,1.34.02-.04.08-.18.17-.43.06-.12.16-.19.3-.19l2.42-.06c.06,0,.11.02.14.07.03.05.04.11.02.17-1.34,3.06-2.18,5.07-2.51,6.03-.33.96-.49,1.69-.48,2.19,0,.36.15.54.44.54.3,0,.82-.43,1.55-1.26.73-.84,1.53-1.98,2.4-3.44.06-.06.11-.06.15,0,.31.32.53.54.65.68ZM79.27,40.8c.04-.69-.04-1.24-.25-1.66-.21-.42-.5-.62-.86-.62-.63.01-1.27.45-1.94,1.32-.67.86-1.2,1.86-1.6,2.98-.4,1.12-.59,2.07-.57,2.86,0,.36.09.65.25.86.16.21.34.31.57.3.91-.02,2.09-1.32,3.54-3.9.21-.59.49-1.3.86-2.14Z"/>
    <path class="cls-4" d="M91.19,41.34c-.36,0-.55-.1-.55-.32.81-.95,1.13-1.75.97-2.42-.07-.32-.28-.48-.65-.47-.55.01-1.16.38-1.85,1.09-.69.71-1.28,1.61-1.77,2.69-.49,1.08-.72,2.09-.7,3.02.01.59.15,1.08.41,1.49s.64.61,1.12.59c.36,0,.75-.08,1.16-.22s.9-.37,1.47-.69,1.17-.82,1.8-1.5c.63-.68,1.23-1.49,1.79-2.44.04-.08.09-.09.15-.03l.62.68c.06.06.07.12.03.18-.6,1.02-1.22,1.91-1.85,2.65s-1.19,1.3-1.67,1.68c-.49.38-1.01.68-1.57.9-.56.23-1.01.36-1.34.41-.33.05-.73.08-1.19.09-1.19.03-2.09-.34-2.71-1.1-.61-.76-.94-1.74-.96-2.93-.03-1.11.27-2.26.89-3.44.62-1.19,1.47-2.19,2.55-3,1.08-.81,2.2-1.23,3.35-1.26,1.7-.04,2.56.62,2.59,1.97.01.59-.21,1.13-.67,1.62-.46.5-.94.75-1.42.76Z"/>
    <path class="cls-4" d="M107.58,42.7c-.7,1.21-1.35,2.2-1.94,2.97-.6.77-1.15,1.33-1.66,1.66-.51.34-.94.55-1.3.65s-.77.16-1.24.17c-.63.02-1.13-.17-1.5-.55s-.57-.92-.58-1.61c-.01-.52.05-1.03.19-1.5.14-.48.48-1.34,1.01-2.58.95-2.37,1.1-3.59.43-3.68-.4,0-.94.29-1.6.86-.66.56-1.31,1.36-1.93,2.41l-2.9,6.64c-.06.12-.15.18-.27.19l-2.42.06c-.06,0-.11-.02-.14-.07-.03-.05-.04-.1-.02-.17l7.7-17.58c.06-.14.16-.22.3-.22l2.39-.06c.06,0,.11.02.14.07.03.05.04.1.02.17l-3.36,7.68c.39-.37.81-.66,1.24-.85.43-.19.77-.31,1.02-.34.25-.04.57-.06.95-.07.69-.02,1.24.17,1.65.55s.63.85.64,1.39c.01.55-.1,1.12-.32,1.73-.79,1.78-1.32,3.04-1.61,3.78-.28.74-.42,1.28-.42,1.6,0,.36.15.54.44.53.4,0,1.03-.48,1.89-1.41.86-.93,1.65-2.03,2.39-3.3.04-.06.09-.06.15,0l.65.68c.04.06.04.12,0,.18Z"/>
  </g>
  <path class="cls-5" d="M36.21,43.34c-.05.08,0,.42-.02.6-.1.8-.37,1.4-.81,1.79-.44.39-1.2.53-2.26.4s-2.41-.41-3.93-.83c-1.52-.42-2.9-.84-4.16-1.27-1.26-.43-2.67-.81-4.23-1.14-1.56-.33-3.02-.52-4.4-.58-1.38-.05-2.85.13-4.42.56-1.57.43-3.06,1.14-4.48,2.13-.04.01-.06.05-.04.1.01.05.05.07.12.06,3.84.04,6.64,1.25,8.41,3.64.09.11.17.12.24.03.63-.7,1.34-1.23,2.13-1.59.79-.36,1.56-.59,2.31-.67.75-.08,1.62-.07,2.61.03.99.1,1.88.24,2.68.42.8.18,1.76.38,2.87.61,1.11.23,2.07.39,2.87.48,1,.12,1.89.14,2.66.05s1.39-.24,1.84-.46c.45-.22.83-.51,1.13-.87.3-.36.51-.71.63-1.04.12-.33.21-.7.26-1.1,0-.03,0-.07,0-.11,0-.56-.42-1.05-.96-1.18-.3-.07-.96-.17-1.03-.06Z"/>
  <path class="cls-3" d="M108.87,37.75c.03.09-.1.41-.12.58-.1.8.03,1.45.37,1.94.34.49,1.05.8,2.12.93s2.46.18,4.05.14c1.59-.04,3.05-.12,4.39-.23,1.34-.11,2.81-.14,4.41-.09,1.61.05,3.09.22,4.45.49,1.36.28,2.76.81,4.19,1.61,1.43.79,2.73,1.84,3.89,3.14.04.02.04.06.02.11-.03.05-.07.06-.13.03-3.77-.88-6.81-.38-9.11,1.52-.11.09-.19.08-.24-.03-.45-.83-1.02-1.51-1.71-2.05-.68-.54-1.38-.94-2.1-1.2-.72-.26-1.57-.46-2.56-.6-.99-.14-1.9-.22-2.73-.24-.83-.02-1.82-.05-2.96-.1-1.14-.05-2.12-.12-2.93-.22-1.01-.12-1.89-.32-2.62-.59s-1.3-.57-1.69-.89c-.39-.32-.69-.69-.9-1.12-.21-.42-.33-.81-.37-1.16-.04-.35-.04-.73.01-1.13,0-.03.01-.07.02-.11.14-.54.66-.92,1.23-.92.31,0,.98.06,1.03.19Z"/>
  <path class="cls-5" d="M109.15,36.5c.03.09-.1.41-.12.58-.1.8.03,1.45.37,1.94.34.49,1.05.8,2.12.93s2.46.18,4.05.14c1.59-.04,3.05-.12,4.39-.23,1.34-.11,2.81-.14,4.41-.09,1.61.05,3.09.22,4.45.49,1.36.28,2.76.81,4.19,1.61,1.43.79,2.73,1.84,3.89,3.14.04.02.04.06.02.11-.03.05-.07.06-.13.03-3.77-.88-6.81-.38-9.11,1.52-.11.09-.19.08-.24-.03-.45-.83-1.02-1.51-1.71-2.05-.68-.54-1.38-.94-2.1-1.2-.72-.26-1.57-.46-2.56-.6-.99-.14-1.9-.22-2.73-.24-.83-.02-1.82-.05-2.96-.1-1.14-.05-2.12-.12-2.93-.22-1.01-.12-1.89-.32-2.62-.59s-1.3-.57-1.69-.89c-.39-.32-.69-.69-.9-1.12-.21-.42-.33-.81-.37-1.16-.04-.35-.04-.73.01-1.13,0-.03.01-.07.02-.11.14-.54.66-.92,1.23-.92.31,0,.98.06,1.03.19Z"/>
  <g>
    <path class="cls-3" d="M9.12,61.8c.29-.08.86-.03,1.39-.13.72-.18.92-.23,1.19-.26.34-.05.63-.12.93-.19.31-.07.61-.15.92-.22.69-.16,1.01-.27,1.66-.48.19-.07.35-.11.59-.16.49-.11,1.1-.19,2-.32.24-.02.53-.09.8-.14.82-.18,1.66-.45,1.95-.57.28-.12.62-.31.99-.39.1-.02.2-.04.3-.03.14,0,.22.08.25.2.05.27-.1.7.1,1.71.07.36.31.71.41,1.18.1.48.26,1.31-.13,1.39-.39.08-2.53-1.09-2.72-1.17-.08-.05-.34,0-.63.07-.36.08-.78.17-1.04.26-.29.09-.32.41-.22.86.05.24.14.5.24.75.07.17.11.35.15.53.14.62.2,1.38.35,2.03.14.65.17,1.23.29,1.77.03.15.07.33.14.47.17.49.23.73.29,1.02.05.23.1.45.15.68.09.41.15.84.09,1.13-.04.13-.03.29,0,.41.04.18.14.34.31.52.08.07.15.22.19.39.09.38.1,1.03.26,2.05.04.3.11.63.19.98.32,1.42.82,3.11.88,3.4.1.44.55.78.64,1.16.19.27.74.33,1.04.58.15.12.31.27.34.42.03.12-.05.23-.19.29-.17.07-.5.14-.83.21-.3.07-.6.13-.9.2-.36.08-.88.29-1.81.51-.7.1-1.49.26-2.06.39-.18.04-.25.03-.25,0-.02-.09.25-.4.39-.75.19-.51.6-.95.6-1.36,0-.1-.01-.18-.04-.3-.05-.21-.14-.46-.22-.79-.04-.18-.08-.35-.1-.57-.1-.85-.32-1.51-.37-2-.04-.3-.05-.61-.12-.91-.04-.18-.11-.32-.17-.46-.19-.39-.47-1.01-.78-2.34-.31-1.33-.6-2.94-.58-3.32,0-.13-.03-.27-.07-.45-.08-.35-.21-.76-.44-1.3-.1-.29-.23-.69-.34-1.13-.19-.8-.35-1.78-.5-2.56-.04-.33-.11-.6-.16-.8-.13-.53-.26-.66-.56-.64-.34.02-.57.04-1.55.28-.78.19-.9.81-1.01,1.06-.11.25-.59.93-.68,1.23-.03.13-.16.2-.25.22-.23.06-.5-.06-.63-.59-.11-.44-.3-1.05-.41-1.46-.13-.5-.07-.39-.13-1.06-.03-.4-.09-.63-.26-1.31-.03-.12.06-.17.19-.21Z"/>
    <path class="cls-3" d="M25.48,58.31c.43-.08,1.04-.1,1.34-.15.53-.1,1.22-.28,1.98-.41.8-.14,1.78-.37,2.84-.54,1.43-.23,1.77-.25,1.79-.07.03.18-.31.63-.65,1.08-.25.38-.26.32-.26.72,0,.06-.01.12,0,.18-.01.13,0,.19,0,.27.03.42.31.66.51,1.33.23.82.46.82.82,1.83.33,1.02,1.21,2.48,1.49,3.26.25.79,1.33,2.99,1.48,3.58.25.58.26.91.71,1.52.47.6.42,1.32.77,2.03.39.71.94,2.37,1.14,2.9.23.52.78,1.08,1.22,1.57.39.37.99.88,1.02,1.12,0,.06-.02.12-.11.14-.45.12-1.78.3-2.87.52-.45.07-.94.11-1.4.18-.21.03-.39.06-.6.12-.21.06-.41.13-.57.15-.3.05-.49.02-.48-.11,0-.03.02-.09.04-.13.11-.26.94-1.53.95-1.71-.03-.18-.16-.62-.47-1.43-.31-.81-.93-2.12-1.2-2.63-.15-.31-.44-.54-.72-.5-.12.02-.24.1-.34.24-.31.45-1.01.87-1.3,1.17-.27.29-1.21.21-1.29.65-.17.46-.85.76-1.64,1.46-.79.7-1,.59-.98,1.2,0,.34,0,.52.04.7.03.15.08.26.17.4.12.29.25.63.82,1.05.29.22.55.42.54.55.01.06-.02.07-.07.11-.09.05-.3.09-.54.13-.48.09-1.21.2-1.81.31-.69.13-1.55.4-2.15.52-.15.03-.28.03-.4.05-.34.04-.62.04-.62-.12-.01-.06.02-.19.12-.33.31-.5.59-1.27.87-1.76.19-.47-.11-1.18.05-1.77.14-.58.05-1.52.03-2.91.01-1.39.37-4.05.36-4.61,0-.55-.06-2.02.16-2.44.28-.42.15-2.53.15-2.53.34-4.44.4-4.6.36-4.75-.08-.42-.28-.81-.62-.99-.35-.21-1.05-.67-1.13-.93-.02-.12.17-.19.44-.24ZM29.46,65.41c-.09,1-.08,1.43-.32,1.93-.21.5-.06,1.67-.19,2.43-.15.77-.11,1.56-.11,2.61.04.95.1,1.61.12,1.52.04-.13,1.24-.75,1.7-1.26.39-.5,1.94-1.63,2.53-1.97.24-.13.3-.36.25-.62-.04-.42-.47-1.27-.78-1.99-.58-1.16-.42-1.59-.92-1.97-.4-.39-.65-.93-.75-1.5-.16-.56-.29-1.12-.42-1.31-.16-.19-.62-1.09-.82-1.06-.2.03-.19,2.19-.31,3.19Z"/>
    <path class="cls-3" d="M48.5,61.63c-.01-.12-.06-.24-.07-.36-.04-.42.03-.7-.04-1.49-.08-.81-.2-.74-.28-1.56-.05-.51-.46-.57-1.08-.5-.69.07-1.62.2-2.18.26-.56.06-.83.34-.96.96-.04.25-.04.49-.01.76.04.39.16.8.25,1.31.04.39-.09.62-.07,1.38.01.13.03.26.04.39.07.6.21.98.36,1.76.1.9.29,1.98.38,2.79.03.27.03.58-.02.95-.06.34-.07.5-.05.65.02.21.1.32.13.59,0,.07.02.14.02.21-.01.15,0,.33.03.52.06.54.2,1.17.28,1.86.09.75.12,1.3.17,1.78.1.87.23,1.5.43,1.6.2.07.48.1.76.07.31-.03.61-.16,1.13-.21.4-.04.9-.06,1.3-.1.58-.06,1.09-.26,1.1-.87,0-.61-.08-.54-.17-1.41-.08-.87-.06-1.33-.03-1.67.03-.34.94-.82,1.41-1.22.47-.41.67-.76,1.23-.8.35-.03.43.18.45.48.01.18,0,.42.02.61.04.48-.03,1.13.03,1.97.07.85.17,1.29.3,2.1.07.88-.24,1.2-.47,1.83-.25.69-.93,1.02-1.27,1.3-.14.13-.5.2-.84.23-.43.04-.86.02-1.17.02-.34.03-.86.33-1.53.4-.61,0-1.33-.04-2.63.11-1.31.15-1.92.17-2.43-.47-.52-.64-.48-2.05-.66-2.51-.05-.15-.1-.29-.12-.47-.07-.57.1-1.17.02-1.83-.03-.21-.09-.42-.21-.64-.26-.58-.52-2.56-.68-3.79-.11-.81-.15-1.66-.26-2.5-.11-.84-.16-1.23-.03-2.01.04-.19.02-.37,0-.52-.06-.48-.31-.88-.47-1.89-.08-.36-.12-.69-.16-.99-.1-.81-.12-1.48-.15-2.48-.04-1.37.94-1.92,1.48-2.23.29-.16.75-.27,1.18-.32.33-.04.67-.05,1.11-.07.43-.05.89-.22,1.55-.35,1.04-.11,1.95-.08,3.29-.2,1.57-.14,1.75.33,2.04.61.29.28.44,1.21.48,1.72.04.51.16.35.28,1.71.06.75.1,1.24-.14,1.5-.36.4-.99.69-1.44,1.19-.36.4-.79.65-1.05.68-.26.02-.41-.14-.54-.8Z"/>
    <path class="cls-3" d="M54.17,57.08c.05-1.2.37-1.83,1.12-2.16.26-.11,1.01-.4,2.15-.47,1.14-.07,2.51-.09,3.02-.11.45-.02.89-.04,1.34-.06.17,0,.37-.04.57-.05.3-.01.64,0,.94.01.54.02,2.93.27,2.97,2.11.03,1.34.26,2.51.28,3.22,0,.26-.02.46-.08.58-.19.36-.24.72-.24,1.06.05.57.16,1.12.17,1.6,0,.12.14.33.14.59.01.55.07,1.55.09,2.44,0,.14-.02.29-.02.43-.07,1.05-.11,2.18-.19,2.52-.03.05-.03.12-.03.17,0,.29.17.57.18,1.02.01.69-.76,2.08-2.04,2.12-2.03.05-2.28.04-2.56.05-.19,0-.4.04-.65.1-.15.03-.28.06-.4.07-1.15.06-1.93.15-3.27.23-.37.02-.66.02-.84,0-.5-.06-1.62-.39-1.73-1.92-.08-1.12-.26-1.78-.29-2.21-.03-.41.2-.76.17-1.24-.02-.24-.13-.47-.16-.83-.03-.41.03-.99-.01-1.53-.01-.14-.05-.28-.06-.43-.16-.83-.23-.92-.27-1.54-.05-.62.06-1.95.03-2.33-.03-.38-.31-.65-.35-1.15-.04-.5.02-1.94.03-2.31ZM57.77,59.5c.05.79.21,1.35.26,2.17.04.64-.08.87-.07,1.11.02.31.26.56.28.92.02.33-.13.61-.2.97-.03.1-.02.19-.02.29.02.41.27.8.38,2.06.07.71.11,1.34.14,1.84.01.21.02.41.04.62.04.62.53.52,1.08.66.22.06.44.07.7.06.38-.02.85-.11,1.38-.19.91-.14,1.1-.07,1.25-.36.15-.29.09-.87.12-1.9.02-1.03-.02-2.18-.01-2.75-.02-.55-.06-.81-.07-1.05-.01-.31.24-.58.22-.94,0-.12-.04-.29-.15-.5-.18-.45-.24-1.14-.27-1.86,0-.21-.02-.41-.02-.62-.02-.6-.02-1.34-.04-1.91-.01-.29-.02-.55-.06-.74-.12-.55-.76-.81-1.33-.81-.46.02-1.29.15-1.79.2-.3.04-.63.06-.89.07-.2.01-.4.02-.6.03-.2.04-.41.41-.33,1.74.02.29.03.57.02.89Z"/>
    <path class="cls-3" d="M76.28,53.87c.3,0,.83.19,1.37.24.74.02.94.02,1.21.06.33.04.64.05.94.06.31,0,.63.02.94.03.7.02,1.04,0,1.71-.03.2-.02.37-.02.6,0,.5.02,1.1.11,2,.21.23.04.53.06.8.07.84.04,1.71,0,2.02-.04.3-.04.68-.14,1.05-.12.1,0,.2.01.3.05.13.04.19.13.18.26-.02.27-.28.65-.34,1.68-.02.36.12.77.08,1.25-.03.48-.09,1.33-.48,1.3-.39-.03-2.15-1.71-2.31-1.84-.06-.06-.33-.08-.63-.09-.37-.02-.8-.04-1.06-.02-.3.02-.41.31-.43.77-.01.24,0,.52.03.79.02.18.02.36,0,.55-.03.64-.16,1.39-.19,2.05-.03.67-.15,1.24-.18,1.78,0,.15-.02.33,0,.49.04.52.03.76.02,1.06-.01.23-.02.46-.03.7-.02.42-.07.85-.21,1.11-.07.12-.11.27-.11.39,0,.18.05.37.16.58.06.09.08.25.08.43-.02.39-.17,1.02-.28,2.05-.04.3-.06.63-.08,1-.07,1.45-.02,3.21-.04,3.52-.02.45.33.89.31,1.29.11.31.62.52.85.83.11.16.23.35.22.5,0,.12-.1.21-.26.23-.18.02-.52,0-.86-.01-.31-.01-.61-.03-.92-.04-.37-.02-.92.05-1.87.02-.7-.09-1.49-.14-2.07-.16-.18,0-.24-.04-.24-.07,0-.09.34-.32.57-.62.32-.45.82-.76.93-1.15.03-.09.04-.18.04-.3,0-.21-.01-.49,0-.82,0-.18.01-.36.05-.57.12-.84.08-1.54.16-2.03.04-.3.11-.6.12-.9,0-.18-.02-.33-.05-.49-.08-.43-.19-1.1-.14-2.46.04-1.36.19-2.99.3-3.35.04-.12.04-.27.05-.45.01-.36,0-.79-.09-1.37-.02-.3-.04-.73-.03-1.18.03-.82.12-1.81.18-2.6.04-.33.05-.6.06-.82.02-.54-.08-.7-.37-.77-.33-.07-.56-.11-1.56-.13-.8-.02-1.07.55-1.24.76-.17.21-.81.74-.98,1.01-.07.12-.2.15-.3.15-.23,0-.46-.19-.45-.73,0-.45-.02-1.09-.01-1.51,0-.51.04-.39.15-1.06.07-.39.08-.64.09-1.33,0-.12.1-.15.24-.15Z"/>
    <path class="cls-3" d="M90.73,57.71c.24-1.5.66-2.23,1.46-2.53.28-.1,1.07-.34,2.21-.25,1.14.1,2.5.29,3,.34.45.04.89.09,1.34.13.17.02.37,0,.57.03.3.03.63.1.93.16.53.11,2.85.78,2.57,3.1-.2,1.68-.18,3.18-.29,4.08-.04.33-.1.57-.18.71-.25.43-.37.87-.42,1.29-.05.73-.04,1.43-.11,2.03-.02.15.08.44.04.77-.08.69-.21,1.96-.34,3.07-.02.18-.07.36-.1.54-.25,1.31-.49,2.72-.63,3.13-.04.06-.05.15-.06.21-.04.36.07.74,0,1.31-.11.87-1.1,2.49-2.35,2.35-1.97-.25-2.22-.29-2.49-.32-.18-.02-.4,0-.65.03-.16.02-.28.03-.4.02-1.13-.11-1.89-.12-3.2-.22-.37-.03-.64-.08-.82-.13-.48-.16-1.51-.75-1.37-2.68.1-1.42.04-2.27.08-2.82.04-.51.32-.92.36-1.52.02-.3-.05-.61-.02-1.06.04-.51.18-1.23.23-1.93.01-.18,0-.36,0-.55-.02-1.06-.08-1.19-.02-1.98.06-.79.37-2.43.41-2.92.03-.48-.2-.86-.15-1.5.04-.63.34-2.44.4-2.89ZM93.88,61.33c-.09,1-.02,1.73-.11,2.76-.07.81-.22,1.08-.25,1.38-.03.39.16.74.12,1.2-.04.42-.22.74-.36,1.19-.04.12-.05.24-.06.36-.04.51.13,1.05.03,2.65-.05.91-.12,1.69-.17,2.33-.02.26-.05.52-.07.78-.07.78.43.74.94,1,.21.11.42.16.67.18.37.03.84-.01,1.37-.02.91-.03,1.08.08,1.27-.27.19-.35.24-1.07.44-2.36.2-1.29.35-2.73.46-3.45.07-.69.08-1.03.11-1.33.04-.39.33-.7.38-1.15.02-.15,0-.36-.06-.65-.1-.59-.04-1.47.06-2.37.03-.26.06-.52.08-.78.08-.75.21-1.68.29-2.41.04-.36.07-.69.07-.94-.02-.7-.61-1.13-1.17-1.22-.46-.05-1.3,0-1.8-.02-.3,0-.63-.03-.89-.05-.2-.02-.4-.04-.59-.05-.2.01-.47.45-.62,2.14-.03.36-.06.72-.13,1.11Z"/>
    <path class="cls-3" d="M105.38,56.14c.37.05.86.17,1.13.21.23.03.41,0,.67.03.17.02.33.08.59.17.16.05.39.12.62.15.76.11,1.88.12,2.35.19.43.07.72.17.69.38-.01.09-.06.17-.22.3-.47.42-.98.89-1.15,1.14-.13.16-.23.67-.33,1.3-.04.3-.09.63-.11.96-.02.15-.02.36-.06.6-.14.93-.46,2.41-.6,3.37-.05.36-.04.7-.1,1.09-.07.48-.32.84-.4,1.35-.06.39.02.77-.07,1.34-.03.23-.07.46-.1.69-.05.33-.14.5-.17.68-.04.24.06.47,0,.89-.03.17-.05.34-.08.51-.04.24-.08.51-.09.81-.12.78-.23,1.56-.35,2.34-.07.48-.1.9-.11,1.18.01.77.41,1.01,1.02,1.14.12.1.24.2.36.3.34.05.56-.19.96-.12.15.02.37.06.85.17.55.09.91.03,1.16-.18.29-.23.28-.94.45-1.18.04-.05.05-.11.06-.17.05-.27,0-.71.1-1.33.02-.12.08-.26.1-.41.12-.5.25-1.09.34-1.63.09-.54.15-1.05.16-1.32.06-.3.12-.59.18-.89.02-.12.36-.19.39-.39.05-.3-.29-.57-.25-.84.14-.84.39-1.72.58-2.27.08-.26.15-.47.18-.65.06-.36.04-.61-.06-.99-.04-.16,0-.4.06-.73.24-1.4.47-2.81.71-4.21.06-.33.04-.85-.03-1.2-.08-.35-.53-.7-.61-1.21,0-.03-.02-.1-.01-.13.03-.18.27-.17.5-.13.23.04.42.13.42.13.92.15,1.84.31,2.75.48.46.08.87.1,1.2.16.2.04.39.1.55.19.28.17.45.33.42.48-.01.06-.06.11-.13.16-.31.19-1.18,1.2-1.37,1.35-.16.12-.28.41-.34.74-.01.07-.03.14-.04.21-.02.3-.04.76-.11,1.15-.07.39-.27.72-.36,1.23-.05.3-.09.66-.11,1.15,0,.18-.03.36-.07.57-.15.83-.48,1.88-.6,2.54-.07.36-.03.7-.11,1.15-.07.36-.17.77-.26,1.22-.05.27-.17.58-.3,1.09-.07.39-.07.91-.09,1.19-.02.27-.06.85-.16,1.39-.28,1.54-.57,3.08-.85,4.62-.29,1.55-2.49,1.67-3.09,1.57-1.93-.33-2.21-.37-2.36-.36-.31-.02-.71-.02-1.07-.08-.15-.02-.3-.05-.45-.1-.26-.1-.75-.18-1.35-.27-.46-.07-.93-.14-1.39-.2-1.3-.18-1.77-1.5-1.59-2.88.09-.66.24-2.5.3-3.44.02-.18.03-.45.07-.75.16-1.2.5-3.05.56-3.47.04-.3.08-1.12.18-1.84.06-.45.15-.87.24-1.1.1-.26.16-.47.18-.65.06-.48-.07-.96.04-1.74.1-.72.28-1.61.41-2.36,0-.04.01-.08.02-.12.11-.6.22-1.13.27-1.55.05-.39.06-.69.05-.91-.03-.49-.18-.94-.47-1.25-.3-.31-.72-.7-.69-.91.01-.09.18-.07.38-.04Z"/>
    <path class="cls-3" d="M129.13,76c.03.41.28,1.53.2,2.14-.08.6.07,1.58.28,2.25.22.68.23,1.65.52,2.28.31.67.58,1.09.53,1.29-.01.06-.02.09-.08.07-.13,0-.45-.09-.87-.19-.57-.14-1.28-.32-1.82-.48-.35-.09-.7-.17-1.05-.25-.33-.08-.76-.12-1.06-.19-.21-.05-.35-.11-.33-.2.07-.32.48-.82.56-1.18.18-.77-.21-2.79-.18-2.96.05-.24-.15-.9-.26-1.4-.19-.85-.23-2.44-.23-2.44-.84.12-1.27.15-2.03.52-.43.22-.64.27-.75.77-.03.12-.02.24-.05.39-.04.33-.1.6-.15.87-.11.53-.25,1.03-.4,1.74-.23,1.07-.05,1.41.26,2.01.31.59.5,1.19.49,1.22-.99-.22-1.91-.6-2.97-.82-.09-.02-.22-.01-.37-.04-.67-.08-1.23-.09-1.66-.18-.15-.03-.27-.05-.36-.1-.08-.05-.11-.08-.1-.14.04-.21.47-.49.75-.78.35-.36.64-.86.91-1.89.03-.16.06-.32.1-.48.14-.71.13-1.12.34-2.16.15-.77.25-1.56.36-2.15.1-.51.35-.95.46-1.51.09-.45.12-.93.21-1.53.14-.53.29-1.27.45-2.07.41-2.23.53-3.14.72-4.12.2-.99.39-1.98.59-2.97,0,0,.1-.48-.18-.96-.28-.49-.6-1.32-.56-1.5.02-.12.26-.1.66-.03.14.03.29.06.43.09.36.07.93.16,1.46.26.4.08.83.17,1.1.32.19.1.45.16.71.21.72.15,1.57.22,1.94.3.49.11,1.37.37,2.33.68.16.04.29.1.45.14.82.19,1.59.19,2.18.33.69.17,2.05,1.28,1.72,2.58-.22.88-.42,1.52-.56,2.11-.07.29-.15.59-.19.89-.08.6-.15,1.15-.26,1.59-.06.24-.1.41-.21.57-.11.16-.2.39-.25.59-.06.23-.08.45-.13.65-.04.15-.21.98-.24,1.09-.15.62-.35.85-.88,1.37-.53.52-2.81,1.18-2.85,1.36,0,0,.19.86.3,2.03ZM125.36,71.9c.52-.26,1.05-.42,1.63-.66.58-.24,1.17-.2,1.62-.56.45-.36.79-1.22.95-1.92.15-.62.3-1.58.65-3.02.12-.5.06-.55.21-1.17.17-.74-.4-1.21-.92-1.33-.6-.14-1.19-.27-1.79-.41-.53-.09-1.39-.21-1.75-.29-.29-.06-.59,1.02-.75,1.73-.16.74-.29,1.02-.44,1.76-.09.44-.23.79-.32,1.2-.06.3-.09.57-.07.95,0,.28-.02.55-.07.79-.11.53-.35,1.01-.53,1.68-.12.41-.19.73-.24.97-.08.36-.09.57.04.6.22.05,1.18-.02,1.78-.33Z"/>
    <path class="cls-3" d="M66.88,76.14c-3.66.09-7.32.26-10.97.52-.06-.89-.13-1.78-.19-2.66,3.69-.26,7.39-.44,11.09-.53.02.89.04,1.78.06,2.67Z"/>
  </g>
  <path class="cls-1" d="M30.33,66.19c-.21.5-.06,1.67-.19,2.43-.13.66-.12,1.34-.11,2.18,1.08-.24,2.18-.48,3.32-.71-.08-.44-.47-1.23-.77-1.91-.58-1.16-.42-1.59-.92-1.97-.4-.39-.65-.93-.75-1.5-.09-.3-.16-.6-.24-.84-.01.14-.02.27-.04.38-.09,1-.08,1.43-.32,1.93Z"/>
  <path class="cls-1" d="M98.07,69.16c.07-.69.08-1.03.11-1.33.03-.29.2-.53.3-.82-1.33-.15-2.66-.29-3.98-.41,0,.03-.02.06-.03.09-.04.12-.05.24-.06.36-.04.51.13,1.05.03,2.65-.05.91-.12,1.69-.17,2.33-.02.26-.05.52-.07.78-.07.78.43.74.94,1,.21.11.42.16.67.18.37.03.84-.01,1.37-.02.09,0,.17,0,.24,0,.05-.36.11-.8.19-1.34.2-1.29.35-2.73.46-3.45Z"/>
  <path class="cls-1" d="M33.35,70.09c-1.14.23-2.24.47-3.32.71,0,.14,0,.28,0,.43.04.95.1,1.61.12,1.52.04-.13,1.24-.75,1.7-1.26.24-.3.9-.83,1.51-1.28,0-.01,0-.02,0-.03,0-.02,0-.06-.01-.08Z"/>
  <path class="cls-1" d="M58.94,57.46c.02.29.03.57.02.89.05.79.21,1.35.26,2.17.04.64-.08.87-.07,1.11.02.31.26.56.28.92.02.33-.13.61-.2.97-.03.1-.02.19-.02.29.02.41.27.8.38,2.06.02.18.03.35.05.52,1.11-.09,2.23-.17,3.36-.24,0-.41-.01-.78,0-1.03-.02-.55-.06-.81-.07-1.05-.01-.31.24-.58.22-.94,0-.12-.04-.29-.15-.5-.18-.45-.24-1.14-.27-1.86,0-.21-.02-.41-.02-.62-.02-.6-.02-1.34-.04-1.91-.01-.29-.02-.55-.06-.74-.12-.55-.76-.81-1.33-.81-.46.02-1.29.15-1.79.2-.18.02-.37.04-.56.05,0,.16,0,.33.02.52Z"/>
  <path class="cls-1" d="M125.96,64.88c-.09.44-.23.79-.32,1.2-.06.3-.09.57-.07.95,0,.28-.02.55-.07.79-.11.53-.35,1.01-.53,1.68-.12.41-.19.73-.24.97-.08.36-.09.57.04.6.22.05,1.18-.02,1.78-.33.52-.26,1.05-.42,1.63-.66.34-.14.68-.18.99-.27.13-.31.23-.63.3-.94.15-.62.3-1.58.65-3.02.12-.5.06-.55.21-1.17.17-.74-.4-1.21-.92-1.33-.6-.14-1.19-.27-1.79-.41-.32-.05-.76-.12-1.14-.18-.03.12-.06.24-.08.34-.16.74-.29,1.02-.44,1.76Z"/>
  <path class="cls-1" d="M109.31,69.83c-.03.17-.05.34-.08.51-.04.24-.08.51-.09.81-.12.78-.23,1.56-.35,2.34-.07.48-.1.9-.11,1.18.01.77.41,1.01,1.02,1.14.12.1.24.2.36.3.34.05.56-.19.96-.12.15.02.37.06.85.17.1.02.19.02.28.03.02-.04.03-.08.06-.11.04-.05.05-.11.06-.17.05-.27,0-.71.1-1.33.02-.12.08-.26.1-.41.12-.5.25-1.09.34-1.63s.15-1.05.16-1.32c.06-.3.12-.59.18-.89.02-.12.36-.19.39-.39.03-.19-.1-.38-.18-.55-1.33-.26-2.65-.51-3.97-.74-.04.13-.07.23-.09.33-.04.24.06.47,0,.89Z"/>
  <path class="cls-1" d="M63,66.14c-1.13.07-2.25.15-3.36.24.04.5.07.94.09,1.31.01.21.02.41.04.62.04.62.53.52,1.08.66.22.06.44.07.7.06.38-.02.85-.11,1.38-.19.03,0,.05,0,.08-.01,0-.27,0-.59,0-.97.01-.58,0-1.19,0-1.72Z"/>
  <path class="cls-1" d="M95.07,60.17c-.09,1-.02,1.73-.11,2.76-.07.81-.22,1.08-.25,1.38-.03.39.16.74.12,1.2-.03.39-.2.7-.33,1.1,1.32.12,2.64.26,3.98.41.04-.1.07-.21.08-.33.02-.15,0-.36-.06-.65-.1-.59-.04-1.47.06-2.37.03-.26.06-.52.08-.78.08-.75.21-1.68.29-2.41.04-.36.07-.69.07-.94-.02-.7-.61-1.13-1.17-1.22-.46-.05-1.3,0-1.8-.02-.24,0-.5-.02-.74-.04-.03.23-.07.48-.09.79-.03.36-.06.72-.13,1.11Z"/>
  <path class="cls-3" d="M20.28,61.13c-.36.08-.78.17-1.04.26-.29.09-.32.41-.22.86.01.05.03.1.04.15.27-.06.5-.1.57-.06.19.08,2.33,1.24,2.72,1.17.39-.08.22-.91.13-1.39-.02-.12-.06-.22-.09-.33-.67-.31-1.37-.69-1.48-.73-.08-.05-.34,0-.63.07Z"/>
  <path class="cls-3" d="M17.69,72.67c-.31-1.33-.6-2.94-.58-3.32,0-.13-.03-.27-.07-.45-.08-.35-.21-.76-.44-1.3-.1-.29-.23-.69-.34-1.13-.19-.8-.35-1.78-.5-2.56-.04-.33-.11-.6-.16-.8-.13-.53-.26-.66-.56-.64-.34.02-.57.04-1.55.28-.78.19-.9.81-1.01,1.06-.02.04-.05.11-.09.18.83-.2,1.06-.22,1.38-.24.31-.01.44.11.56.64.05.21.11.47.16.8.15.77.31,1.76.5,2.56.11.44.23.85.34,1.13.23.54.36.94.44,1.3.04.18.08.32.07.45-.01.38.27,1.99.58,3.32.03.12.06.23.09.34.49-.15.99-.29,1.51-.44-.1-.32-.21-.7-.32-1.17Z"/>
  <path class="cls-3" d="M27.31,69.03c0-.55-.06-2.02.16-2.44.28-.42.15-2.53.15-2.53.34-4.44.4-4.6.36-4.75-.08-.42-.28-.81-.62-.99-.06-.04-.13-.08-.2-.13-.15.03-.29.06-.43.09-.3.05-.91.07-1.34.15-.27.05-.46.12-.44.24.08.26.78.72,1.13.93.34.18.55.58.62.99.03.15-.02.31-.36,4.75,0,0,.13,2.1-.15,2.53-.22.41-.17,1.88-.16,2.44,0,.22-.05.77-.12,1.45.39-.09.78-.19,1.18-.28.1-1.08.22-2.12.22-2.44Z"/>
  <path class="cls-3" d="M34.64,68.89c-.04-.42-.47-1.27-.78-1.99-.58-1.16-.42-1.59-.92-1.97-.4-.39-.65-.93-.75-1.5-.16-.56-.29-1.12-.42-1.31-.16-.19-.62-1.09-.82-1.06-.17.03-.19,1.72-.28,2.81.07.24.15.54.24.84.1.57.35,1.11.75,1.5.49.38.33.8.92,1.97.3.67.69,1.46.77,1.91.08-.02.17-.03.25-.05.31-.22.6-.41.79-.52.24-.13.3-.36.25-.62Z"/>
  <path class="cls-4" d="M33.36,70.17s0,.02,0,.03c.08-.06.16-.11.23-.17-.08.02-.17.03-.25.05,0,.03.01.06.01.08Z"/>
  <path class="cls-3" d="M50.22,61.28c-.26.02-.41-.14-.54-.8-.01-.12-.06-.24-.07-.36-.04-.42.03-.7-.04-1.49-.08-.81-.2-.74-.28-1.56-.05-.51-.46-.57-1.08-.5-.69.07-1.62.2-2.18.26-.56.06-.83.34-.96.96-.01.09-.02.19-.02.28.56-.07,1.3-.17,1.89-.23.63-.06,1.03-.01,1.08.5.08.81.2.74.28,1.56.08.78,0,1.06.04,1.49.01.12.06.24.07.36.13.66.28.83.54.8s.69-.28,1.05-.68c.45-.5,1.08-.79,1.44-1.19.09-.1.13-.23.16-.39-.11.09-.22.19-.32.3-.36.4-.79.65-1.05.68Z"/>
  <path class="cls-3" d="M42.53,67.44c-.11-.81-.15-1.66-.26-2.5-.11-.84-.16-1.23-.03-2.01.04-.19.02-.37,0-.52-.06-.48-.31-.88-.47-1.89-.08-.36-.12-.69-.16-.99-.1-.81-.12-1.48-.15-2.48-.01-.37.05-.67.16-.93-.54.31-1.48.87-1.44,2.21.03,1,.05,1.67.15,2.48.04.3.08.63.16.99.16,1.02.41,1.41.47,1.89.02.15.04.33,0,.52-.13.78-.08,1.17.03,2.01.1.81.15,1.63.25,2.41.47-.08.94-.15,1.41-.23-.05-.34-.09-.67-.13-.96Z"/>
  <path class="cls-3" d="M63,67.86c0,.39,0,.71,0,.97.84-.12,1.03-.07,1.17-.35.15-.29.09-.87.12-1.9,0-.17,0-.35,0-.52-.43.02-.86.05-1.29.08,0,.53.02,1.14,0,1.72Z"/>
  <path class="cls-3" d="M64.27,63.83c-.02-.55-.06-.81-.07-1.05-.01-.31.24-.58.22-.94,0-.12-.04-.29-.15-.5-.18-.45-.24-1.14-.27-1.86,0-.21-.02-.41-.02-.62-.02-.6-.02-1.34-.04-1.91-.01-.29-.02-.55-.06-.74-.12-.55-.76-.81-1.33-.81-.46.02-1.29.15-1.79.2-.3.04-.63.06-.89.07-.2.01-.4.02-.6.03-.17.03-.35.31-.35,1.22.19-.01.38-.03.56-.05.5-.05,1.32-.18,1.79-.2.57,0,1.21.26,1.33.81.04.19.05.45.06.74.02.57.02,1.32.04,1.91,0,.21.02.41.02.62.03.72.09,1.41.27,1.86.11.21.14.38.15.5.01.36-.23.63-.22.94,0,.24.05.5.07,1.05,0,.25,0,.62,0,1.03.43-.03.85-.05,1.29-.08,0-.87-.02-1.75-.02-2.23Z"/>
  <path class="cls-3" d="M56.15,66.03c-.02-.24-.13-.47-.16-.83-.03-.41.03-.99-.01-1.53-.01-.14-.05-.28-.06-.43-.16-.83-.23-.92-.27-1.54-.05-.62.06-1.95.03-2.33-.03-.38-.31-.65-.35-1.15-.04-.5.02-1.94.03-2.31.02-.4.06-.72.15-1.01-.13.05-.23.09-.3.12-.75.34-1.07.96-1.12,2.16,0,.36-.07,1.8-.03,2.31.04.5.32.77.35,1.15.03.38-.07,1.71-.03,2.33.05.62.12.71.27,1.54.01.14.05.28.06.43.04.55-.02,1.13.01,1.53,0,.13.03.24.05.34.43-.04.86-.09,1.3-.13.05-.2.1-.41.08-.65Z"/>
  <path class="cls-3" d="M81.73,62.9c.04-.12.04-.27.05-.45.01-.36,0-.79-.09-1.37-.02-.3-.04-.73-.03-1.18.03-.82.12-1.81.18-2.6.04-.33.05-.6.06-.82.02-.54-.08-.7-.37-.77-.33-.07-.56-.11-1.56-.13-.8-.02-1.07.55-1.24.76-.11.14-.42.41-.67.66.17-.09.37-.15.64-.15,1,.03,1.23.06,1.56.13.3.07.39.22.37.77,0,.21-.02.48-.06.82-.06.79-.16,1.78-.18,2.6-.01.45,0,.88.03,1.18.08.58.1,1,.09,1.37,0,.18-.01.33-.05.45-.06.21-.14.84-.2,1.6.4,0,.8.02,1.19.03.06-1.25.19-2.59.28-2.91Z"/>
  <path class="cls-3" d="M86.91,55.79c-.37-.02-.8-.04-1.06-.02-.3.02-.41.31-.43.77,0,.16,0,.34.01.52.07,0,.14,0,.21.01.3.02.56.03.63.09.16.13,1.92,1.81,2.31,1.84.39.03.45-.82.48-1.3.01-.18,0-.34-.02-.5-.63-.51-1.39-1.23-1.5-1.31-.06-.06-.33-.08-.63-.09Z"/>
  <path class="cls-3" d="M77.01,56.77c0-.45-.02-1.09-.01-1.51,0-.51.04-.39.15-1.06,0,0,0-.02,0-.02-.38-.07-.73-.18-.96-.18-.13,0-.23.03-.24.15,0,.7-.01.94-.09,1.33-.11.67-.14.54-.15,1.06,0,.42.02,1.06.01,1.51,0,.55.22.73.45.73.1,0,.23-.03.3-.15.17-.27.81-.8.98-1.01.03-.04.06-.08.1-.13-.03,0-.07.02-.1.02-.23,0-.46-.19-.45-.73Z"/>
  <path class="cls-3" d="M99.84,65.41c.02-.15,0-.36-.06-.65-.1-.59-.04-1.47.06-2.37.03-.26.06-.52.08-.78.08-.75.21-1.68.29-2.41.04-.36.07-.69.07-.94-.02-.7-.61-1.13-1.17-1.22-.46-.05-1.3,0-1.8-.02-.3,0-.63-.03-.89-.05-.2-.02-.4-.04-.59-.05-.16.01-.37.31-.52,1.34.23.02.49.04.74.04.5.02,1.34-.02,1.8.02.56.09,1.15.51,1.17,1.22,0,.24-.03.58-.07.94-.08.72-.21,1.65-.29,2.41-.03.26-.06.52-.08.78-.1.9-.16,1.78-.06,2.37.07.28.08.5.06.65-.01.12-.04.22-.08.33.31.04.62.08.93.12.02-.23.03-.41.04-.57.04-.39.33-.7.38-1.15Z"/>
  <path class="cls-3" d="M91.28,65.83c-.02-1.06-.08-1.19-.02-1.98.06-.79.37-2.43.41-2.92.03-.48-.2-.86-.15-1.5.04-.63.34-2.44.4-2.89.08-.53.19-.95.33-1.31-.06.02-.11.04-.15.05-.8.3-1.22,1.03-1.46,2.53-.07.45-.36,2.25-.4,2.89-.05.63.19,1.02.15,1.5-.04.48-.35,2.13-.41,2.92-.04.49-.03.73-.01,1.1.43.03.87.06,1.3.1,0-.16,0-.33,0-.49Z"/>
  <path class="cls-3" d="M105.95,67.46c.04-.3.08-1.12.18-1.84.06-.45.15-.87.24-1.1.1-.26.16-.47.18-.65.06-.48-.07-.96.04-1.74.1-.72.28-1.61.41-2.36,0-.04.01-.08.02-.12.11-.6.22-1.13.27-1.55.05-.39.06-.69.05-.91-.02-.24-.06-.46-.13-.67-.05-.01-.09-.02-.14-.03-.27-.04-.44,0-.67-.03-.27-.04-.76-.16-1.12-.21-.2-.03-.37-.05-.38.04-.03.21.4.6.69.91.3.31.44.76.47,1.25,0,.21,0,.52-.05.91-.06.42-.16.96-.27,1.55,0,.04-.01.08-.02.12-.13.75-.32,1.64-.41,2.36-.1.78.03,1.26-.04,1.74-.02.18-.08.39-.18.65-.1.23-.18.65-.24,1.1-.04.32-.07.65-.1.95.37.05.74.12,1.11.17.04-.26.08-.46.09-.56Z"/>
  <path class="cls-4" d="M119.72,59.22s0,.01-.01.01c.04-.03.08-.07.11-.08.07-.04.11-.09.13-.15-.1.1-.18.18-.22.22Z"/>
  <path class="cls-3" d="M114.44,69.02c.02-.12.36-.19.39-.39.05-.3-.29-.57-.25-.84.14-.84.39-1.72.58-2.27.08-.26.15-.47.18-.65.06-.36.04-.61-.06-.99-.04-.16,0-.4.06-.73.24-1.4.47-2.81.71-4.21.05-.3.04-.74-.02-1.09-.33-.06-.67-.12-1-.17,0,0-.19-.09-.42-.13-.23-.04-.47-.05-.5.13,0,.03.02.1.01.13.09.51.54.86.61,1.21.08.35.09.88.03,1.2-.24,1.4-.47,2.81-.71,4.21-.06.33-.1.57-.06.73.1.39.12.64.06.99-.03.18-.1.38-.18.65-.19.55-.44,1.43-.58,2.27-.02.1.02.19.06.29.32.06.64.12.96.19.04-.17.07-.35.11-.52Z"/>
  <path class="cls-4" d="M111.22,57.59s.06-.07.07-.1c-.02.02-.04.05-.06.07,0,0-.01.02-.02.03Z"/>
  <path class="cls-3" d="M121.38,70.86c.09-.45.12-.93.21-1.53.14-.53.29-1.27.45-2.07.41-2.23.53-3.14.72-4.12.2-.99.39-1.98.59-2.97,0,0,.1-.48-.18-.96,0-.01-.01-.02-.02-.03-.28-.05-.54-.09-.73-.13-.14-.03-.29-.06-.43-.09-.4-.08-.63-.09-.66.03-.03.18.28,1.01.56,1.5.28.49.18.96.18.96-.2.99-.39,1.98-.59,2.97-.2.98-.31,1.88-.72,4.12-.16.8-.31,1.54-.45,2.07-.01.09-.02.17-.03.26.34.08.69.17,1.04.25.02-.08.05-.17.07-.26Z"/>
  <path class="cls-3" d="M129.41,63.36c.52.12,1.09.6.92,1.33-.15.62-.09.66-.21,1.17-.34,1.44-.5,2.4-.65,3.02-.07.3-.18.63-.3.94.23-.06.44-.14.63-.29.45-.36.79-1.22.95-1.92.15-.62.3-1.58.65-3.02.12-.5.06-.55.21-1.17.17-.74-.4-1.21-.92-1.33-.6-.14-1.19-.27-1.79-.41-.53-.09-1.39-.21-1.75-.29-.25-.05-.5.72-.67,1.39.38.06.82.13,1.14.18.6.13,1.19.27,1.79.41Z"/>
  <path class="cls-5" d="M23.76,60.83c-.1-.48-.34-.83-.41-1.18-.2-1.01-.05-1.44-.1-1.71-.02-.12-.11-.19-.25-.2-.11,0-.2.01-.3.03-.36.07-.7.27-.99.39-.28.12-1.12.39-1.95.57-.26.06-.56.12-.8.14-.9.14-1.51.21-2,.32-.23.05-.39.09-.59.16-.64.21-.97.32-1.66.48-.31.07-.61.15-.92.22-.3.07-.59.14-.93.19-.27.03-.47.08-1.19.26-.53.1-1.1.06-1.39.13-.13.03-.22.09-.19.21.12.46.18.71.22.95.02.12.03.23.04.36.07.67,0,.56.13,1.06.11.41.3,1.02.41,1.46.06.24.15.39.25.49.12.11.26.14.38.1.1-.02.22-.09.25-.22.08-.25.41-.75.59-1.06.04-.07.07-.13.09-.18.11-.25.23-.87,1.01-1.06.97-.24,1.21-.26,1.55-.28.31-.01.44.11.56.64.05.21.11.47.16.8.15.77.31,1.76.5,2.56.11.44.23.85.34,1.13.23.54.36.94.44,1.3.04.18.08.32.07.45-.01.38.27,1.99.58,3.32.11.48.22.86.32,1.17.62-.18,1.26-.36,1.92-.54.45-.13.91-.25,1.38-.38-.05-.43-.07-.77-.12-.99-.04-.18-.1-.32-.19-.39-.17-.18-.27-.34-.31-.52-.03-.12-.03-.27,0-.41.07-.29,0-.71-.09-1.13-.05-.23-.1-.45-.15-.68-.07-.3-.12-.53-.29-1.02-.06-.14-.1-.32-.14-.47-.12-.53-.15-1.12-.29-1.77-.14-.65-.21-1.41-.35-2.03-.04-.18-.08-.36-.15-.53-.07-.21-.14-.41-.19-.6-.01-.05-.03-.1-.04-.15-.1-.44-.07-.76.22-.86.25-.09.68-.18,1.04-.26.29-.06.56-.12.63-.07.11.04.81.42,1.48.73.54.25,1.07.47,1.24.43.39-.08.22-.91.13-1.39Z"/>
  <path class="cls-4" d="M24.55,80.53c-.03-.15-.19-.3-.34-.42-.3-.24-.86-.31-1.04-.58-.08-.38-.54-.72-.64-1.16-.06-.3-.57-1.98-.88-3.4-.08-.35-.15-.68-.19-.98-.07-.42-.1-.76-.14-1.06-.47.13-.93.25-1.38.38-.66.18-1.31.36-1.92.54.18.56.34.91.46,1.16.07.14.13.28.17.46.07.29.08.6.12.91.05.49.27,1.15.37,2,.02.21.06.39.1.57.08.32.17.58.22.79.03.12.05.21.04.3,0,.4-.41.84-.6,1.36-.14.34-.41.66-.39.75,0,.03.07.04.25,0,.57-.14,1.35-.29,2.06-.39.93-.22,1.45-.42,1.81-.51h.03c.29-.07.58-.14.87-.2.33-.07.66-.14.83-.21.14-.06.21-.17.19-.29Z"/>
  <path class="cls-5" d="M38.03,68.24c-.15-.59-1.23-2.79-1.48-3.58-.28-.78-1.17-2.24-1.49-3.26-.36-1.02-.59-1.01-.82-1.83-.21-.67-.48-.91-.51-1.33-.01-.09-.02-.15,0-.27,0-.06.01-.12,0-.18,0-.4.01-.34.26-.72.34-.45.67-.9.65-1.08-.03-.18-.37-.16-1.79.07-1.06.17-2.05.4-2.84.54-.76.13-1.45.32-1.98.41-.3.05-.91.07-1.34.15-.27.05-.46.12-.44.24.07.22.56.57.93.8.07.05.14.09.2.13.34.18.55.58.62.99.03.15-.02.31-.36,4.75,0,0,.13,2.1-.15,2.53-.22.41-.17,1.88-.16,2.44,0,.32-.12,1.36-.22,2.44.55-.13,1.1-.26,1.66-.39.42-.1.85-.19,1.28-.29,0-.84-.02-1.52.11-2.18.12-.76-.02-1.94.19-2.43.24-.5.23-.93.32-1.93.01-.11.03-.24.04-.38.09-1.08.1-2.78.28-2.81.2-.03.65.87.82,1.06.13.19.26.75.42,1.31.1.57.35,1.11.75,1.5.49.38.33.8.92,1.97.31.72.74,1.57.78,1.99.04.27-.02.49-.25.62-.19.11-.47.3-.79.52,1.02-.21,2.06-.41,3.13-.61.54-.1,1.09-.2,1.64-.3-.12-.28-.19-.54-.34-.88Z"/>
  <path class="cls-4" d="M42.49,76.86c-.2-.2-.44-.41-.63-.59-.44-.49-.99-1.06-1.22-1.57-.2-.52-.75-2.19-1.14-2.9-.36-.71-.3-1.43-.77-2.03-.18-.25-.29-.45-.37-.64-.55.1-1.1.2-1.64.3-1.06.2-2.11.4-3.13.61-.08.05-.15.11-.23.17-.62.45-1.28.98-1.51,1.28-.46.51-1.66,1.13-1.7,1.26-.01.09-.07-.57-.12-1.52,0-.15,0-.29,0-.43-.43.1-.86.19-1.28.29-.56.13-1.12.26-1.66.39-.07.78-.14,1.58-.14,2.17.02,1.39.11,2.33-.03,2.91-.17.59.13,1.3-.05,1.77-.28.49-.56,1.26-.87,1.76-.1.14-.13.27-.12.33,0,.15.28.16.62.12.12-.02.25-.02.4-.05.6-.12,1.46-.39,2.15-.52.1-.02.21-.04.32-.06.53-.09,1.09-.18,1.49-.26.24-.05.45-.08.54-.13.06-.04.09-.05.07-.11,0-.12-.25-.32-.54-.55-.58-.42-.71-.76-.82-1.05-.09-.14-.14-.25-.17-.4-.03-.18-.04-.36-.04-.7,0-.07,0-.12,0-.17.03-.42.27-.4.98-1.03.79-.7,1.47-1,1.64-1.46.08-.44,1.02-.36,1.29-.65.3-.3.99-.72,1.3-1.17.11-.14.22-.22.34-.24.28-.05.57.18.72.5.27.51.89,1.82,1.2,2.63.31.81.44,1.25.47,1.43,0,.18-.83,1.45-.95,1.71-.03.03-.05.1-.04.13-.01.12.18.16.48.11.15-.02.36-.09.57-.15.21-.06.39-.09.6-.12.45-.07.94-.11,1.4-.18.32-.07.67-.13,1.01-.19.73-.13,1.41-.23,1.76-.31.03,0,.07-.02.1-.02.09-.01.11-.08.11-.14-.02-.12-.18-.32-.39-.52Z"/>
  <path class="cls-4" d="M54.53,73.27c-.13-.81-.23-1.26-.3-2.1-.07-.85,0-1.49-.03-1.97-.01-.18,0-.43-.02-.61-.02-.3-.1-.51-.45-.48-.57.05-.76.4-1.23.8-.47.41-1.38.89-1.41,1.22,0,.05,0,.11-.01.17-.02.32-.02.76.05,1.5.08.87.17.81.17,1.41,0,.61-.51.81-1.1.87-.06,0-.13,0-.19.02-.36.03-.76.05-1.1.09-.52.06-.82.18-1.13.21-.28.03-.56,0-.76-.07-.2-.1-.33-.72-.43-1.6-.06-.48-.09-1.03-.17-1.78-.08-.69-.21-1.32-.28-1.86-.02-.18-.04-.36-.03-.52,0-.07-.02-.14-.02-.21-.02-.22-.08-.34-.11-.49-.41.06-.81.12-1.21.18-.71.11-1.4.21-2.09.32.15,1.12.35,2.39.55,2.83.12.23.18.43.21.64.08.66-.09,1.26-.02,1.83.02.18.07.33.12.47.18.47.15,1.87.66,2.51.51.64,1.13.62,2.43.47,1.31-.15,2.02-.11,2.63-.11.67-.07,1.19-.37,1.53-.4.31,0,.74.02,1.17-.02.33-.03.67-.09.82-.22,0,0,.01,0,.02-.01.34-.27,1.02-.61,1.27-1.3.22-.63.54-.96.47-1.83Z"/>
  <path class="cls-5" d="M52.85,57.91c-.11-1.36-.23-1.2-.28-1.71-.04-.51-.19-1.44-.48-1.72-.29-.28-.47-.75-2.04-.61-1.34.12-2.25.09-3.29.2-.66.13-1.12.3-1.55.35-.44.02-.77.03-1.11.07-.43.05-.89.17-1.18.32-.39.23-1.02.59-1.31,1.3-.11.26-.17.56-.16.93.03,1,.05,1.67.15,2.48.04.3.08.63.16.99.16,1.02.41,1.41.47,1.89.02.15.04.33,0,.52-.13.78-.08,1.17.03,2.01.11.84.15,1.69.26,2.5.04.29.08.62.13.96.69-.11,1.39-.22,2.09-.32.4-.06.81-.12,1.21-.18,0-.03-.02-.07-.02-.11-.02-.15,0-.3.05-.65.05-.37.05-.68.02-.95-.09-.81-.28-1.89-.38-2.79-.15-.77-.3-1.16-.36-1.76-.02-.13-.03-.26-.05-.39-.02-.76.12-.99.07-1.38-.09-.51-.2-.92-.25-1.31-.02-.17-.02-.33-.01-.48,0-.09.01-.19.02-.28.13-.62.4-.9.96-.96.56-.06,1.48-.19,2.18-.26.63-.06,1.03-.01,1.08.5.08.81.2.74.28,1.56.08.78,0,1.06.04,1.49.01.12.06.24.07.36.13.66.28.83.54.8s.69-.28,1.05-.68c.1-.11.21-.21.32-.3.4-.33.84-.58,1.12-.89.24-.26.2-.75.14-1.5Z"/>
  <path class="cls-5" d="M67.75,65.9c.01-.26.03-.52.05-.79,0-.14.02-.29.02-.43-.02-.88-.08-1.89-.09-2.44,0-.26-.14-.48-.14-.59-.01-.48-.12-1.03-.17-1.6,0-.33.05-.7.24-1.06.06-.12.09-.31.08-.58-.02-.72-.24-1.89-.28-3.22-.04-1.84-2.43-2.09-2.97-2.11-.3-.01-.64-.02-.94-.01-.2,0-.4.04-.57.05-.45.02-.89.04-1.34.06-.5.02-1.88.04-3.02.11-1.14.07-1.89.36-2.15.47-.5.23-.81.59-.98,1.16-.08.28-.13.61-.15,1.01,0,.36-.07,1.8-.03,2.31.04.5.32.77.35,1.15.03.38-.07,1.71-.03,2.33.05.62.12.71.27,1.54.01.14.05.28.06.43.04.55-.02,1.13.01,1.53.03.36.14.59.16.83.02.24-.03.45-.08.65-.05.19-.1.38-.08.58.03.43.21,1.09.29,2.21.11,1.53,1.23,1.85,1.73,1.92.19.01.47.02.84,0,1.34-.08,2.11-.17,3.27-.23.12,0,.25-.04.4-.07.25-.06.46-.09.65-.1.28-.01.53,0,2.56-.05.21,0,.4-.06.58-.13.92-.36,1.47-1.41,1.45-1.99-.01-.45-.18-.74-.18-1.02,0-.05,0-.12.03-.17.07-.25.1-.95.15-1.73ZM64.27,63.83c0,.48.02,1.35.02,2.23,0,.18,0,.35,0,.52-.02,1.03.03,1.6-.12,1.9-.14.28-.33.23-1.17.35-.03,0-.05,0-.08.01-.53.07-1,.17-1.38.19-.25.01-.47,0-.7-.06-.54-.14-1.04-.04-1.08-.66-.01-.21-.02-.41-.04-.62-.02-.37-.05-.82-.09-1.31-.01-.17-.03-.34-.05-.52-.11-1.26-.35-1.66-.38-2.06,0-.1-.01-.19.02-.29.08-.36.22-.64.2-.97-.02-.36-.26-.61-.28-.92-.01-.24.1-.46.07-1.11-.05-.81-.21-1.38-.26-2.17.01-.31,0-.6-.02-.89-.01-.2-.02-.37-.02-.52,0-.91.18-1.19.35-1.22.2-.01.4-.02.6-.03.26-.01.6-.03.89-.07.5-.05,1.32-.18,1.79-.2.57,0,1.21.26,1.33.81.04.19.05.45.06.74.02.57.02,1.32.04,1.91,0,.21.02.41.02.62.03.72.09,1.41.27,1.86.11.21.14.38.15.5.01.36-.23.63-.22.94,0,.24.05.5.07,1.05Z"/>
  <path class="cls-5" d="M77.56,57.48c.08-.02.15-.05.2-.13.06-.09.17-.22.3-.35-.24.13-.4.33-.5.48Z"/>
  <path class="cls-5" d="M90.59,53.49c0-.12-.05-.22-.18-.26-.1-.04-.2-.04-.3-.05-.37-.02-.75.07-1.05.12-.3.04-1.18.08-2.02.04-.27-.01-.57-.03-.8-.07-.9-.1-1.5-.19-2-.21-.24,0-.4-.02-.6,0-.67.04-1.01.05-1.71.03-.31-.01-.63-.02-.94-.03-.3,0-.6-.02-.94-.06-.27-.04-.47-.04-1.21-.06-.54-.04-1.07-.23-1.37-.24-.13,0-.23.03-.24.15,0,.68-.01.93-.08,1.31,0,0,0,.02,0,.02-.11.67-.14.54-.15,1.06,0,.42.02,1.06.01,1.51,0,.55.22.73.45.73.03,0,.06-.01.1-.02.11-.15.26-.35.5-.48.25-.25.56-.53.67-.66.17-.21.45-.78,1.24-.76,1,.03,1.23.06,1.56.13.3.07.39.22.37.77,0,.21-.02.48-.06.82-.06.79-.16,1.78-.18,2.6-.01.45,0,.88.03,1.18.08.58.1,1,.09,1.37,0,.18-.01.33-.05.45-.1.32-.23,1.66-.28,2.91.76.02,1.51.04,2.27.07.38.01.76.03,1.15.05-.08-.18-.13-.33-.12-.49,0-.12.04-.27.11-.39.14-.27.19-.69.21-1.11.01-.23.02-.46.03-.7.01-.3.03-.54-.02-1.06-.03-.15-.02-.33,0-.49.03-.54.15-1.12.18-1.78.03-.67.16-1.42.19-2.05,0-.18.02-.36,0-.55,0-.09-.01-.18-.02-.27-.01-.18-.02-.36-.01-.52.02-.45.13-.75.43-.77.27-.02.7,0,1.06.02.3.02.56.03.63.09.1.08.86.8,1.5,1.31.36.29.67.51.81.52.39.03.45-.82.48-1.3.03-.48-.11-.89-.08-1.25.07-1.03.33-1.41.34-1.68Z"/>
  <path class="cls-4" d="M85.75,75.14c-.23-.32-.74-.52-.85-.83.02-.39-.33-.83-.31-1.29.01-.3-.03-2.06.04-3.52.02-.36.03-.7.08-1,.11-1.03.27-1.66.28-2.05,0-.18-.02-.33-.08-.43-.02-.03-.03-.06-.04-.1-.38-.02-.77-.04-1.15-.05-.76-.03-1.52-.05-2.27-.07,0,.15-.01.3-.02.45-.04,1.36.06,2.03.14,2.46.03.15.05.3.05.49-.01.3-.08.6-.12.9-.08.48-.04,1.18-.16,2.03-.04.21-.04.39-.05.57-.01.33.01.61,0,.82,0,.12,0,.21-.04.3-.11.39-.61.71-.93,1.15-.22.3-.57.53-.57.62,0,.03.06.06.24.07.58.02,1.37.07,2.07.16.82.03,1.34-.02,1.7-.02.06,0,.11,0,.16,0,.31.01.61.03.92.04.33.02.67.03.86.01.15-.02.25-.11.26-.23,0-.15-.11-.34-.22-.5Z"/>
  <path class="cls-5" d="M101.42,54.43c-.3-.06-.63-.13-.93-.16-.2-.02-.4-.01-.57-.03-.45-.05-.89-.09-1.34-.13-.5-.05-1.86-.24-3-.34-1.14-.1-1.93.15-2.21.25-.52.2-.87.58-1.13,1.23-.14.35-.25.78-.33,1.31-.07.45-.36,2.25-.4,2.89-.05.63.19,1.02.15,1.5-.04.48-.35,2.13-.41,2.92-.06.79,0,.91.02,1.98-.01.16,0,.33,0,.49.76.06,1.52.12,2.28.19.32.03.64.06.95.09.13-.4.29-.7.33-1.1.04-.45-.16-.8-.12-1.2.03-.3.18-.56.25-1.38.09-1.03.02-1.76.11-2.76.07-.39.1-.75.13-1.11.03-.31.06-.56.09-.79.15-1.03.36-1.33.52-1.34.2.02.4.03.59.05.26.02.59.05.89.05.5.02,1.34-.02,1.8.02.56.09,1.15.51,1.17,1.22,0,.24-.03.58-.07.94-.08.72-.21,1.65-.29,2.41-.03.26-.06.52-.08.78-.1.9-.16,1.78-.06,2.37.07.28.08.5.06.65-.05.45-.34.76-.38,1.15-.02.16-.03.34-.04.57.78.09,1.55.19,2.33.29.38.05.76.11,1.14.16.05-.46.09-.87.13-1.17.04-.33-.06-.62-.04-.77.07-.6.06-1.3.11-2.03.05-.42.17-.86.42-1.29.08-.14.15-.38.18-.71.11-.9.09-2.4.29-4.08.28-2.32-2.04-2.98-2.57-3.1Z"/>
  <path class="cls-4" d="M101.74,67.42c-.78-.1-1.56-.2-2.33-.29-.01.2-.03.44-.07.76-.11.72-.26,2.17-.46,3.45-.2,1.29-.24,2.02-.44,2.36-.17.31-.34.25-1.03.26-.08,0-.15,0-.24,0-.53,0-1,.05-1.37.02-.25-.02-.46-.07-.67-.18-.51-.26-1.01-.21-.94-1,.02-.26.05-.52.07-.78.06-.63.12-1.42.17-2.33.11-1.6-.07-2.13-.03-2.65.01-.12.02-.24.06-.36,0-.03.02-.06.03-.09-.32-.03-.64-.06-.95-.09-.76-.07-1.52-.13-2.28-.19,0,.02,0,.03,0,.05-.05.69-.2,1.41-.23,1.93-.03.45.04.76.02,1.06-.04.6-.32,1.01-.36,1.52-.04.54.02,1.4-.08,2.82-.14,1.93.89,2.52,1.37,2.68.18.04.45.1.82.13,1.31.11,2.08.12,3.2.22.12.01.25,0,.4-.02.25-.04.47-.05.65-.03.27.03.52.08,2.49.32.26.03.5-.02.73-.12.88-.38,1.53-1.54,1.62-2.23.07-.57-.04-.95,0-1.31,0-.06.02-.15.06-.21.14-.41.37-1.82.63-3.13.02-.18.07-.36.1-.54.08-.63.15-1.31.21-1.9-.38-.05-.76-.11-1.14-.16Z"/>
  <path class="cls-5" d="M111.11,57.69c-.47.42-.98.89-1.15,1.14-.13.16-.23.67-.33,1.3-.04.3-.09.63-.11.96-.02.15-.02.36-.06.6-.14.93-.46,2.41-.6,3.37-.05.36-.04.7-.1,1.09-.07.48-.32.84-.4,1.35-.04.28-.01.56-.03.91.35.06.71.12,1.06.19.03-.1.06-.2.08-.35.03-.23.07-.46.1-.69.09-.57.01-.95.07-1.34.08-.51.32-.87.4-1.35.06-.39.04-.73.1-1.09.14-.96.46-2.44.6-3.37.04-.24.03-.45.06-.6.02-.33.06-.66.11-.96.09-.6.19-1.08.31-1.27-.03.03-.06.06-.11.1Z"/>
  <path class="cls-4" d="M116.54,70.01c-.74-.16-1.48-.32-2.21-.47-.03.12-.05.25-.08.37-.01.27-.07.79-.16,1.32s-.22,1.13-.34,1.63c-.03.15-.08.29-.1.41-.11.63-.05,1.07-.1,1.33-.01.06-.02.12-.06.17-.17.25-.16.96-.45,1.18-.21.16-.49.23-.88.2-.09,0-.18-.01-.28-.03-.49-.11-.7-.14-.85-.17-.4-.06-.62.18-.96.12-.12-.1-.24-.2-.36-.3-.61-.12-1.01-.37-1.02-1.14,0-.27.04-.7.11-1.18.12-.78.23-1.56.35-2.34.01-.3.05-.57.09-.81.03-.17.05-.34.08-.51.06-.42-.03-.65,0-.89.02-.1.05-.21.09-.33-.35-.06-.71-.13-1.06-.19-.83-.14-1.66-.27-2.49-.4-.13.75-.35,2.01-.47,2.91-.04.3-.04.57-.07.75-.06.94-.21,2.78-.3,3.44-.18,1.38.29,2.7,1.59,2.88.46.07.93.13,1.39.2.61.09,1.09.16,1.35.27.15.05.3.08.45.1.36.06.77.06,1.07.08.16,0,.43.03,2.36.36.32.05,1.1.04,1.8-.22.61-.22,1.16-.63,1.3-1.36.28-1.54.57-3.08.85-4.62.1-.54.14-1.11.16-1.39.02-.27.02-.8.09-1.19,0-.02,0-.03.01-.05-.3-.07-.6-.13-.9-.19Z"/>
  <g>
    <path class="cls-5" d="M120.81,57.23c-.15-.09-.35-.16-.55-.19-.33-.06-.74-.07-1.2-.16-.92-.16-1.83-.32-2.75-.48,0,0-.19-.09-.42-.13-.23-.04-.47-.05-.5.13,0,.03.02.1.01.13.09.51.54.86.61,1.21,0,.04.01.08.02.12.06.34.07.79.02,1.09-.24,1.4-.47,2.81-.71,4.21-.06.33-.1.57-.06.73.1.39.12.64.06.99-.03.18-.1.38-.18.65-.19.55-.44,1.43-.58,2.27-.05.27.3.54.25.84-.03.21-.37.27-.39.39-.04.17-.07.35-.11.52.73.15,1.47.31,2.21.47.3.07.6.13.9.19.12-.47.24-.78.28-1.03.08-.45.19-.86.26-1.22.08-.45.05-.79.11-1.15.12-.66.44-1.7.6-2.54.04-.21.07-.39.07-.57.02-.49.06-.85.11-1.15.09-.51.29-.84.36-1.23.07-.39.09-.85.11-1.15.01-.07.03-.14.04-.21.06-.32.17-.59.33-.72,0,0,0-.01.01-.01.04-.03.13-.11.22-.22.34-.35.91-.98,1.15-1.13.08-.05.12-.1.13-.16.03-.15-.15-.31-.42-.48Z"/>
    <path class="cls-5" d="M111.92,55.73c-.47-.07-1.58-.08-2.35-.19-.23-.03-.46-.1-.62-.15-.26-.1-.42-.15-.59-.17-.27-.04-.44,0-.67-.03-.27-.04-.76-.16-1.12-.21-.2-.03-.37-.05-.38.04-.03.21.4.6.69.91.15.16.27.36.34.59.07.21.11.43.13.67,0,.21,0,.52-.05.91-.06.42-.16.96-.27,1.55,0,.04-.01.08-.02.12-.13.75-.32,1.64-.41,2.36-.1.78.03,1.26-.04,1.74-.02.18-.08.39-.18.65-.1.23-.18.65-.24,1.1-.1.72-.14,1.54-.18,1.84-.01.11-.05.31-.09.56.83.13,1.66.26,2.49.4.01-.35-.01-.63.03-.91.08-.51.32-.87.4-1.35.06-.39.04-.73.1-1.09.14-.96.46-2.44.6-3.37.04-.24.03-.45.06-.6.02-.33.06-.66.11-.96.09-.63.2-1.13.33-1.3.17-.25.68-.72,1.15-1.14.04-.04.08-.07.11-.1,0,0,.01-.03.02-.03.01-.02.04-.05.06-.07.21-.26.66-.69,1.1-1.07.16-.13.2-.21.22-.3.03-.21-.26-.32-.69-.38Z"/>
  </g>
  <path class="cls-5" d="M130.15,73.53s0-.04,0-.06c-.03.01-.05.02-.08.03.03,0,.06.02.09.03Z"/>
  <path class="cls-5" d="M133.87,60c-.59-.14-1.35-.14-2.18-.33-.16-.04-.29-.1-.45-.14-.96-.32-1.84-.57-2.33-.68-.36-.08-1.21-.14-1.94-.3-.26-.06-.53-.11-.71-.21-.28-.15-.71-.24-1.1-.32-.53-.11-1.1-.19-1.46-.26-.14-.03-.29-.06-.43-.09-.4-.08-.63-.09-.66.03-.03.17.27.97.54,1.47,0,.01.01.02.02.03.28.49.18.96.18.96-.2.99-.39,1.98-.59,2.97-.2.98-.31,1.88-.72,4.12-.16.8-.31,1.54-.45,2.07-.09.6-.12,1.09-.21,1.53-.02.09-.04.17-.07.26.72.18,1.44.36,2.16.54,0,.03-.01.06-.02.09-.08.36-.09.57.04.6.2.04,1.01-.01,1.6-.25,1.65.44,3.31.91,4.97,1.41.03-.01.05-.02.08-.03.59-.24,1.2-.51,1.45-.75.38-.37.58-.6.72-.93.24-.12.44-.24.55-.35.53-.52.72-.76.88-1.37.03-.12.21-.95.24-1.09.05-.21.07-.42.13-.65.05-.21.14-.43.25-.59.11-.16.15-.34.21-.57.11-.44.18-.99.26-1.59.04-.3.12-.6.19-.89.15-.59.34-1.23.56-2.11.33-1.29-1.03-2.41-1.72-2.58ZM131.61,63.41c-.15.62-.09.66-.21,1.17-.34,1.44-.5,2.4-.65,3.02-.17.71-.5,1.56-.95,1.92-.19.15-.4.23-.63.29-.31.08-.65.13-.99.27-.58.24-1.11.4-1.63.66-.59.3-1.56.37-1.78.33-.13-.03-.11-.24-.04-.6.05-.24.12-.56.24-.97.18-.67.41-1.15.53-1.68.05-.24.08-.51.07-.79-.02-.38,0-.65.07-.95.09-.41.23-.76.32-1.2.16-.74.29-1.02.44-1.76.02-.11.05-.22.08-.34.16-.67.42-1.44.67-1.39.36.08,1.22.2,1.75.29.6.13,1.19.27,1.79.41.52.12,1.09.6.92,1.33Z"/>
  <path class="cls-4" d="M131.31,81.52c-.29-.63-.3-1.61-.52-2.28-.22-.68-.37-1.65-.28-2.25.08-.6-.16-1.72-.2-2.14-.05-.52-.11-.97-.17-1.32-.03,0-.06-.02-.09-.03-1.66-.5-3.32-.96-4.97-1.41-.59.24-1.4.29-1.6.25-.13-.03-.11-.24-.04-.6,0-.02.01-.06.02-.09-.72-.19-1.44-.37-2.16-.54-.13.45-.31.83-.4,1.26-.12.59-.21,1.38-.36,2.15-.21,1.04-.19,1.44-.34,2.16-.03.16-.06.32-.1.48-.27,1.03-.56,1.53-.91,1.89-.28.28-.71.57-.75.78-.01.06.01.1.1.14.08.05.2.07.36.1.42.08.98.1,1.66.18.15.03.28.03.37.04.31.07.62.15.91.23.7.2,1.36.43,2.05.59,0-.03-.18-.63-.49-1.22-.31-.6-.49-.94-.26-2.01.15-.71.29-1.21.4-1.74.06-.27.11-.53.15-.87,0-.03,0-.06.01-.09.01-.11.02-.21.04-.3.11-.5.31-.55.75-.77.76-.36,1.19-.39,2.03-.52,0,0,.03,1.59.23,2.44.11.49.31,1.16.26,1.4-.04.18.36,2.2.18,2.96-.08.35-.48.85-.56,1.18-.02.09.12.15.33.2.3.07.73.11,1.06.19.35.08.7.17,1.05.25.25.08.55.16.85.24.33.09.67.17.97.25.42.11.75.19.87.19.06.02.07-.01.08-.07.05-.21-.22-.62-.53-1.29Z"/>
  <path class="cls-4" d="M68,72.31c-3.7.09-7.4.26-11.09.53.03.4.06.8.08,1.2l.1,1.47c3.22-.23,6.44-.38,9.66-.47.44-.01.87-.04,1.31-.05-.02-.89-.04-1.78-.06-2.67Z"/>
  <g>
    <path d="M48.4,86.42c-.34.08-.68.01-1.02-.2-.34-.21-.56-.51-.66-.91-.06-.27-.07-.57-.01-.89.06-.32.18-.66.38-1,.2-.34.45-.66.76-.97.31-.3.71-.58,1.2-.82.49-.24,1.03-.43,1.62-.54.88-.17,1.64-.12,2.28.15.64.27,1.01.71,1.11,1.32.07.44,0,.85-.21,1.24-.21.39-.51.71-.89.96-.39.25-.82.42-1.29.52-.18.04-.32-.01-.4-.14-.05-.07-.05-.12,0-.13.62-.12,1.09-.41,1.42-.87.33-.46.45-.97.35-1.54-.08-.45-.3-.79-.67-1.01-.37-.23-.89-.28-1.56-.15-.48.09-.91.25-1.3.46-.39.22-.7.46-.94.73-.24.27-.43.55-.58.85-.15.3-.24.59-.28.86-.04.27-.03.52.02.74.05.22.14.38.27.49.13.11.29.14.48.1.25-.06.45-.21.6-.46.16-.25.22-.46.18-.63-.01-.06.03-.07.12-.04.13.03.21.12.23.25.06.28-.03.59-.26.95-.23.36-.55.58-.96.67ZM49.3,88.63c-.23.05-.45,0-.66-.13-.21-.14-.33-.3-.37-.47-.02-.07-.02-.13,0-.18.01-.05.03-.08.06-.09,0,0,.03,0,.07.03.04.02.08.03.13.02.12-.03.22-.07.32-.12.09-.05.2-.15.32-.29.12-.14.23-.32.34-.55.11-.22.23-.53.35-.92.13-.39.26-.85.39-1.38.22-.87.48-1.52.79-1.95.31-.43.67-.68,1.07-.76.14-.03.24,0,.3.09.03.05.03.08-.01.08-.21.04-.4.18-.57.43-.17.25-.31.56-.42.93-.11.37-.21.78-.3,1.22-.09.45-.19.89-.29,1.34-.1.45-.21.86-.34,1.24-.12.38-.28.7-.48.96-.2.26-.43.42-.69.48Z"/>
    <path d="M57.7,84.78s.11.09.22.18c.02.01.02.03,0,.05-.17.38-.32.69-.45.93-.13.24-.26.41-.38.53-.12.12-.23.19-.31.23-.09.04-.2.07-.33.09-.19.03-.35-.01-.49-.12-.14-.11-.22-.26-.25-.46,0-.03-.01-.06-.01-.09-.33.57-.69.89-1.07.96-.18.03-.35,0-.49-.11-.14-.1-.23-.26-.26-.45-.02-.13-.03-.26-.02-.38,0-.12.05-.36.13-.72.08-.36.22-.87.42-1.53.01-.04.04-.06.08-.07.24-.04.48-.08.73-.12.02,0,.03,0,.04.02.01.01.02.03.01.05-.32,1.03-.5,1.69-.56,2-.06.31-.08.54-.06.68.02.11.07.15.15.14.12-.02.27-.16.46-.43.19-.27.38-.63.58-1.09.09-.35.23-.84.44-1.46.01-.04.04-.07.08-.07.24-.04.49-.07.73-.1.02,0,.03,0,.04.02.01.01.01.03.01.05-.33,1.02-.53,1.69-.6,1.99-.07.31-.09.54-.07.68.02.11.07.15.15.14.09-.01.23-.15.42-.42.19-.27.39-.63.61-1.08,0-.02.03-.02.05,0Z"/>
    <path d="M60.26,83.52c.03.26-.07.52-.3.77-.23.25-.49.44-.78.58-.3.14-.58.24-.84.28-.01.11,0,.21,0,.31.02.17.08.3.16.4.09.1.2.14.35.12.11-.01.22-.04.35-.09.13-.05.27-.13.44-.23.17-.11.35-.27.53-.48.18-.21.35-.47.49-.75,0-.02.02-.03.05-.01.07.06.14.12.2.18.01.02.02.03,0,.05-.16.31-.32.59-.49.82-.17.23-.33.41-.47.53-.14.12-.3.23-.46.31-.17.08-.3.14-.4.16-.1.02-.22.05-.36.06-.35.05-.63-.03-.84-.23-.21-.2-.34-.47-.38-.82-.04-.32,0-.67.16-1.03.15-.37.38-.69.68-.96.31-.27.64-.43.99-.47.26-.03.48,0,.64.07.16.08.25.22.28.42ZM59.46,83.35c-.2.02-.4.18-.62.48-.21.29-.36.62-.45.99.54-.21.91-.53,1.11-.95.12-.25.14-.41.04-.5-.02-.02-.05-.02-.09-.02Z"/>
    <path d="M63.62,84.4c-.19.37-.36.68-.51.91-.15.24-.29.42-.42.53-.13.12-.24.2-.34.24-.1.04-.21.07-.33.09-.19.02-.35-.03-.48-.15-.14-.12-.21-.27-.23-.47-.02-.19,0-.44.09-.73.08-.29.25-.75.53-1.38.03-.07.04-.14.04-.19,0-.09-.09-.18-.26-.26-.17.44-.48,1.08-.91,1.93-.01.02-.03.02-.04.01-.07-.05-.15-.11-.22-.16-.03-.01-.03-.03-.02-.05.38-.78.65-1.41.81-1.89-.11-.07-.17-.15-.18-.23-.01-.13.01-.23.08-.32.07-.08.15-.13.26-.14.09,0,.17.01.24.07.07.06.11.13.12.23,0,.02,0,.05-.01.08.02,0,.05.03.09.05.14.06.24.11.31.14.07.04.15.08.25.15.1.06.17.13.22.2.05.07.07.14.08.22,0,.08-.01.16-.05.26-.46,1.05-.67,1.71-.65,1.98.01.11.06.16.15.16.04,0,.11-.05.2-.14.09-.09.22-.25.39-.5.17-.24.34-.54.53-.88.02-.02.03-.02.05,0,.07.06.14.13.21.19.02.02.02.03.01.05Z"/>
    <path d="M63.59,82.57c.12,0,.25-.02.37-.03.11-.26.3-.76.61-1.49.02-.04.05-.07.09-.07.25-.02.5-.03.74-.05.02,0,.04,0,.05.02.01.01.01.03,0,.05-.29.7-.49,1.19-.61,1.48.16-.01.33-.02.49-.03.02,0,.03,0,.04.02,0,.01.01.03,0,.05-.04.11-.09.21-.13.32-.02.04-.05.06-.09.06-.17.01-.34.02-.51.03-.35.88-.56,1.44-.63,1.7-.08.25-.11.46-.1.62,0,.11.06.16.15.15.15-.01.34-.13.56-.37.22-.23.46-.57.71-1,.01-.02.03-.02.05,0,.02.02.06.05.11.1.06.05.09.08.09.09.01.02.01.03,0,.05-.2.37-.38.67-.54.89-.16.23-.31.39-.45.5-.14.11-.26.18-.36.21-.1.03-.23.06-.39.07-.19.01-.35-.05-.49-.18-.14-.14-.22-.3-.24-.5-.02-.19,0-.41.08-.66.07-.25.26-.78.58-1.6-.12,0-.23.02-.35.03-.02,0-.03,0-.04-.02-.01-.01-.01-.03,0-.04.04-.11.08-.22.12-.33.02-.04.04-.06.09-.06Z"/>
    <path d="M66.26,85.88c-.34.02-.6-.06-.79-.25-.18-.19-.29-.47-.31-.84-.02-.36.05-.72.23-1.09.18-.37.42-.67.74-.92.32-.25.65-.38.99-.39.37-.02.64.07.83.27.19.19.29.45.3.77.02.44-.14.9-.45,1.38.34.05.7-.26,1.1-.94.01-.02.03-.03.05-.01,0,0,.07.06.2.19.01.02.01.04,0,.06-.06.1-.11.18-.16.25-.05.07-.11.15-.18.25-.07.09-.14.17-.2.23-.07.06-.14.12-.23.19-.09.07-.17.11-.25.14-.08.03-.18.05-.28.05-.11,0-.21-.01-.31-.05-.4.45-.82.69-1.28.71ZM67.23,82.78c-.16,0-.35.12-.55.35-.21.22-.38.51-.53.87-.15.36-.21.7-.19,1.01,0,.16.04.29.1.39.06.1.14.15.23.14.23-.01.47-.21.73-.6-.03-.04-.05-.1-.05-.17,0-.12.03-.24.12-.36.09-.11.19-.18.3-.2.13-.33.18-.64.17-.93-.01-.35-.12-.53-.33-.52Z"/>
    <path d="M72.38,83.77c-.35,0-.66-.14-.95-.42-.28-.28-.43-.62-.43-1.03,0-.35.09-.7.28-1.06.19-.36.46-.68.8-.97.34-.29.78-.53,1.31-.71.53-.18,1.09-.26,1.68-.24.22,0,.43.03.65.07.22.04.45.09.71.15.25.06.45.1.6.13.32-.12.64-.17.96-.16.1,0,.19.04.27.09.08.05.12.12.11.2,0,.12-.06.22-.16.29-.1.08-.23.11-.4.1-.1,0-.2-.02-.31-.03-.17.17-.31.4-.41.69-.1.29-.16.58-.19.85-.03.28-.06.62-.11,1.03-.05.41-.1.74-.16,1.01.22-.22.46-.5.74-.84.27-.34.52-.65.72-.92.21-.28.45-.56.73-.85.28-.29.55-.53.81-.73.26-.2.55-.35.88-.46.33-.11.67-.15,1.02-.12.2.02.33.1.39.24.03.06.02.09-.03.09-.32-.03-.69.14-1.08.52-.4.38-.76.85-1.08,1.42-.32.57-.6,1.21-.82,1.9-.23.69-.36,1.32-.39,1.89,0,.12,0,.22.02.29.02.08.04.13.07.16.03.03.05.06.08.08.02.03.03.05.03.08,0,.07-.08.14-.23.22-.15.08-.31.11-.49.1-.42-.02-.62-.36-.58-1,.03-.63.25-1.4.67-2.32.42-.92.92-1.72,1.49-2.4-.26.26-.57.61-.93,1.06-.36.45-.68.87-.97,1.25-.29.38-.62.78-1,1.21-.38.43-.73.78-1.06,1.05-.12.11-.24.2-.38.29-.02.02-.05.02-.08,0,0,0-.02-.02-.03-.03-.02-.02-.03-.05,0-.09.16-.22.29-.5.39-.84.1-.34.17-.7.21-1.07.05-.37.09-.74.14-1.11.05-.37.12-.75.23-1.13.11-.38.25-.71.43-.98-.25.32-.52.73-.8,1.24-.28.51-.53.99-.74,1.45-.21.45-.44.89-.67,1.32-.23.43-.48.77-.74,1.02-.26.25-.53.38-.82.38-.23,0-.43-.09-.61-.28-.17-.18-.26-.36-.26-.54,0-.07.01-.13.03-.18.02-.05.05-.07.08-.07,0,0,.03.01.06.04.04.03.08.04.12.04.12,0,.23-.01.33-.04.1-.03.22-.1.37-.21.15-.11.3-.26.45-.46.15-.19.33-.47.55-.82.21-.35.44-.77.69-1.25.58-1.13,1.21-1.93,1.9-2.39-.69-.15-1.23-.23-1.62-.24-.47-.01-.93.11-1.38.37-.45.26-.8.6-1.06,1-.26.41-.39.82-.39,1.22,0,.22.05.4.16.54.1.13.26.2.45.2.25,0,.47-.1.68-.31.21-.21.31-.4.31-.58,0-.06.04-.06.12-.02.12.06.17.16.17.3,0,.28-.16.57-.46.87s-.66.44-1.08.44Z"/>
    <path d="M80.34,86.03c-.34-.03-.59-.14-.75-.35-.16-.21-.22-.5-.2-.87.02-.36.15-.71.37-1.05.22-.34.51-.61.86-.81.35-.2.69-.29,1.03-.26.37.03.63.16.79.38.16.22.23.49.2.8-.04.44-.26.88-.63,1.31.33.1.73-.17,1.22-.79.01-.02.03-.02.05,0,0,0,.06.07.17.21,0,.02,0,.05,0,.06-.07.09-.13.16-.19.23-.06.06-.12.14-.21.22-.08.08-.16.15-.23.2-.07.05-.16.1-.25.16-.09.05-.18.09-.27.11-.09.02-.18.02-.29.01-.11,0-.21-.04-.31-.09-.45.39-.91.57-1.36.54ZM81.72,83.09c-.16-.01-.36.08-.6.27-.24.19-.45.46-.64.79-.19.34-.3.66-.32.98-.01.16,0,.29.05.4.05.11.11.16.2.17.23.02.5-.15.81-.49-.03-.04-.04-.1-.03-.17.01-.12.07-.24.17-.34.1-.1.21-.15.32-.15.17-.31.27-.61.29-.9.03-.35-.05-.54-.26-.56Z"/>
    <path d="M86.11,84.98c-.26.32-.49.59-.69.79-.2.2-.37.35-.52.43-.15.09-.28.14-.38.16-.1.02-.22.03-.34.01-.19-.02-.33-.1-.44-.25-.11-.14-.15-.31-.13-.51.02-.19.1-.43.24-.7.14-.27.4-.68.8-1.24.05-.07.07-.13.08-.18.01-.09-.06-.19-.2-.31-.26.39-.69.96-1.29,1.7-.01.02-.03.02-.05,0-.06-.07-.12-.14-.18-.21-.02-.02-.02-.04,0-.05.53-.68.93-1.24,1.19-1.68-.1-.09-.14-.18-.13-.26.01-.13.06-.23.15-.29.08-.06.18-.09.28-.08.09.01.17.05.22.12.05.07.08.15.07.25,0,.02-.01.05-.03.08.02.01.04.04.08.06.12.09.21.15.27.2.06.05.13.11.22.2.08.08.14.16.17.24.03.08.04.16.03.23,0,.08-.04.16-.11.25-.67.93-1.02,1.53-1.05,1.8-.01.11.03.17.12.18.04,0,.12-.03.23-.09.11-.07.27-.2.48-.41.21-.2.45-.45.7-.75.02-.02.04-.01.05,0,.06.08.11.15.16.23.02.02.02.04,0,.05Z"/>
    <path d="M88.74,84.15c-.04.26-.2.48-.49.66-.28.18-.58.3-.91.36-.32.06-.62.08-.89.06-.04.1-.06.2-.08.3-.02.17,0,.31.05.43.06.12.16.19.31.21.11.02.23.02.36,0,.13-.01.3-.05.49-.11.19-.06.4-.17.63-.33.23-.16.45-.36.67-.6.02-.02.03-.02.05,0,.05.08.1.15.15.23,0,.02,0,.04,0,.05-.23.26-.46.48-.69.66-.23.18-.43.31-.59.39-.17.08-.34.14-.53.18-.19.04-.33.05-.43.05-.1,0-.22-.01-.36-.03-.35-.05-.6-.2-.75-.44-.15-.25-.2-.55-.16-.89.04-.32.18-.64.42-.96.24-.31.54-.56.91-.75.37-.18.73-.25,1.08-.2.26.04.47.12.6.24.14.12.19.28.16.48ZM88.01,83.78c-.2-.03-.44.07-.72.3-.28.23-.51.51-.69.84.58-.06,1.02-.27,1.32-.63.18-.21.24-.36.17-.47-.02-.02-.04-.03-.08-.04Z"/>
    <path d="M88.97,86.97c-.18-.03-.33-.13-.43-.29-.11-.17-.14-.35-.11-.55.04-.23.17-.53.4-.89.23-.37.95-1.43,2.22-3.15.03-.04.06-.05.1-.04.25.04.5.09.75.13.02,0,.03.01.04.03,0,.02,0,.03,0,.04-1.32,1.76-2.06,2.84-2.31,3.21-.24.37-.38.66-.41.85-.02.11.02.16.1.18.14.02.31-.05.53-.21.22-.16.51-.45.89-.84.02-.01.04-.01.05,0,.01.02.07.1.15.23.01.02.01.04,0,.05-.29.32-.52.56-.72.74-.19.18-.36.31-.51.39-.15.08-.27.12-.37.13-.1.01-.22,0-.37-.02Z"/>
    <path d="M91.2,87.45c-.34-.06-.57-.2-.71-.43-.13-.22-.17-.52-.11-.89.06-.36.22-.69.48-1.01.26-.31.57-.55.94-.72.37-.16.72-.21,1.06-.15.36.07.61.22.75.46.14.23.18.51.11.82-.09.43-.35.85-.77,1.24.32.13.74-.09,1.3-.66.02-.02.03-.02.05,0,0,0,.06.08.15.23,0,.03,0,.05-.01.06-.08.08-.15.15-.21.2-.06.06-.14.12-.23.2-.09.07-.17.13-.25.18-.08.04-.17.09-.26.13-.1.04-.19.07-.28.08-.09,0-.19,0-.29-.02-.1-.02-.2-.06-.3-.12-.49.34-.96.47-1.41.39ZM92.88,84.67c-.16-.03-.37.04-.62.21-.26.17-.5.41-.72.72-.23.31-.37.63-.42.94-.03.16-.02.29.01.4.04.11.1.18.19.19.23.04.51-.09.85-.41-.02-.05-.03-.1-.01-.17.02-.12.09-.23.21-.32.11-.09.23-.13.34-.12.2-.29.33-.58.39-.86.07-.35,0-.54-.2-.58Z"/>
    <path d="M97.13,87.02c-.47.47-.87.78-1.18.94-.32.16-.64.22-.99.2-.14,0-.31-.01-.49-.05-.22-.05-.4-.16-.54-.32-.14-.16-.22-.34-.26-.53-.03-.19-.03-.37,0-.54.03-.17.1-.26.21-.28.31-.26.78-.73,1.44-1.39.19-.19.42-.25.69-.19.13.03.24.1.32.2.08.1.11.19.09.28-.14.08-.25.21-.32.4-.08.19-.12.39-.14.6-.02.21-.05.43-.09.66-.04.23-.1.44-.16.61.36-.15.77-.45,1.24-.9.02-.01.04,0,.05.01.04.08.09.16.13.24.01.02.01.04,0,.05ZM94.42,87.45c.09.02.17.02.24,0,.07-.02.12-.07.17-.14.05-.07.09-.14.12-.22.03-.08.06-.18.08-.3.02-.12.04-.23.06-.34.02-.1.04-.23.06-.37.02-.14.04-.26.06-.36-.45.42-.8.74-1.07.97-.06.17-.07.34-.03.49.04.15.14.24.3.28Z"/>
  </g>
  <path class="cls-3" d="M138.24,37.05c-1.54-1.28-3.02-2.54-4.76-3.55-3.38-1.95-7.16-3.05-11-3.57-2.17-.29-4.32-.37-6.51-.28-1.15.05-2.27.22-3.33-.34-.45-.23-.84-.57-1.28-.82-.53-.31-1.2-.5-1.67-.89-.35-.28-.55-.73-.82-1.09-.3-.41-.62-.8-.97-1.17-.66-.7-1.41-1.32-2.22-1.85-1.69-1.1-3.58-1.68-5.56-1.91-.97-1.7-2.37-3.19-3.93-4.38-.83-.63-1.73-1.14-2.69-1.54-1.1-.45-2.28-.6-3.33-1.17-.92-.49-1.9-.89-2.91-1.17-.52-.14-1.04-.26-1.57-.34-.59-.09-1.23-.07-1.81-.22-1.03-.26-1.98-.69-3.04-.88-1.12-.19-2.26-.28-3.39-.2-2,.14-3.89.8-5.68,1.68-.51.25-.99.6-1.52.8-.49.18-1.04.24-1.54.39-1.03.31-2.03.74-2.95,1.28-.85.5-1.55,1.13-2.32,1.72-.45.34-.98.58-1.44.9-.52.35-.99.83-1.66.86-.55.02-1.16-.2-1.71-.29-.54-.09-1.08-.16-1.63-.22-1.26-.14-2.52-.19-3.79-.18-7.83.08-16.12,2.76-21.34,8.87-.54.63-1.04,1.29-1.5,1.98-.5.76-.83,1.77-1.44,2.45-.81.9-2.12.4-3.14.26-1.25-.17-2.5-.31-3.76-.34-4.24-.1-8.44.96-12.24,2.8-1.75.84-3.48,1.9-4.82,3.32-1.48,1.58-2.17,3.7-2.7,5.76-1.02,3.94-.49,8.3,2.35,11.32-1.26,2.23-1.4,4.68-1.16,7.21,0,.02,0,.04,0,.06.03.65.15,1.3.23,1.95,0,.07.04.12.06.18-.01,0-.02,0-.03,0,.51,3.53,2.17,6.81,5,9.05.59.47,1.48.83,1.89,1.47.48.78.56,1.77.46,2.65-.15,1.44-.04,2.93.32,4.33.7,2.78,2.41,5.25,4.8,6.83,2.91,1.92,6.41,2.17,9.78,1.72,1.11-.15,2.2-.37,3.28-.68.63-.18,1.25-.47,1.89-.61.57-.13,1.17-.16,1.75-.25,1.16-.2,2.32-.44,3.47-.74.53-.14,1.06-.3,1.58-.47.49-.16.91-.16,1.39-.17.21.3.44.58.62.91.3.55.61,1.08.98,1.58.67.92,1.44,1.78,2.34,2.49,1.58,1.26,3.49,2.09,5.47,2.48,2.05.4,4.19.38,6.21-.15,1-.26,1.95-.9,2.96-1.05,1.22-.19,2.46-.3,3.68-.43.63-.07,1.24-.23,1.87-.33.61-.09,1.23-.07,1.84-.1.66-.03,1.32-.06,1.99-.1.63-.03,1.29-.22,1.91-.19.61.03,1.22.24,1.83.32.71.09,1.42.12,2.14.11,1.3-.03,2.59.43,3.9.48,1.35.04,2.59-.28,3.92-.42,1.38-.14,2.92.27,4.27.48,2.42.39,4.78,1.21,7.26,1.22,5.14.02,10.12-2.72,12.66-7.21.58.07,1.15.13,1.73.17.51.03,1,0,1.49.16.38.12.74.26,1.13.37.89.24,1.8.34,2.71.44.07.06.15.1.24.13,1.53.47,3.11.62,4.63,1.05,1.56.45,3.19.83,4.79,1.07,2.67.39,5.34.18,7.82-.94,1.26-.57,2.43-1.34,3.47-2.24.96-.83,1.93-1.74,2.66-2.79,1.42-2.04,2.07-4.64,1.94-7.11-.04-.71-.14-1.43-.3-2.12-.19-.79-.18-1.28.24-2.01.44-.75.82-1.52,1.11-2.34.2-.59.5-1.35.48-1.98,0-.04,0-.07-.01-.1.12-.26.23-.51.33-.77.3-.81.4-1.7.58-2.54.19-.89.4-1.77.57-2.66.31-1.62.47-3.25.23-4.89-.12-.85-.35-1.67-.67-2.47-.36-.9-.87-1.59-.34-2.55,1.1-1.82,1.83-4.07,2.13-6.18.27-1.89.1-4.08-.55-5.89-.65-1.8-1.85-3.23-3.3-4.44ZM140.43,48.44c-.41,1.53-.87,3.04-1.7,4.41-.03.05-.05.1-.07.15-.31.61-.47,1.26-.34,1.96.15.86.69,1.64.95,2.48.56,1.86.46,3.77.1,5.66-.17.89-.38,1.77-.57,2.66-.19.89-.29,1.84-.64,2.68-.27.64-.59,1.27-.87,1.91-.12.28-.29.57-.31.89-.01.22.08.39.22.52-.21.48-.46.95-.73,1.41-.66,1.1-.64,1.99-.36,3.21.52,2.27.22,4.81-.84,6.89-.55,1.08-1.28,1.93-2.18,2.74-1.01.91-1.96,1.78-3.17,2.45-2.22,1.23-4.73,1.61-7.24,1.33-1.66-.19-3.34-.61-4.95-1.04-.88-.24-1.76-.41-2.65-.58-.07-.2-.21-.37-.46-.41-1.58-.28-3.19-.27-4.75-.7-.77-.21-1.46-.52-2.26-.55-.89-.04-1.78-.08-2.66-.21-.3-.04-.65.03-.8.33-2.14,4.13-6.5,6.75-11.13,6.9-1.17.04-2.34-.07-3.48-.34-1.13-.27-2.25-.47-3.38-.73-1.25-.28-2.51-.45-3.79-.55-.57-.04-1.13-.14-1.7-.06-.72.1-1.42.3-2.16.36-1.31.11-2.61,0-3.89-.29-1.2-.27-2.42-.08-3.63-.26-.57-.08-1.13-.27-1.7-.31-.58-.04-1.17.12-1.75.16-1.26.09-2.52.11-3.78.18-.49.03-.93.14-1.41.24-.67.13-1.34.13-2.02.21-1.06.13-2.3.16-3.31.5-.92.31-1.75.77-2.71,1-1,.24-2.03.34-3.06.32-2.2-.04-4.4-.65-6.27-1.82-1.02-.65-1.9-1.49-2.65-2.44-.41-.51-.77-1.06-1.08-1.64-.29-.53-.67-.98-.98-1.5-.13-.21-.36-.36-.61-.35-.41.01-.81-.04-1.22,0-.46.05-.87.22-1.31.35-.95.3-1.93.54-2.91.75-1.05.22-2.09.39-3.15.54-.95.13-1.87.58-2.8.82-3.34.86-7.19,1.17-10.36-.44-2.49-1.26-4.32-3.54-5.09-6.21-.4-1.37-.52-2.81-.38-4.23.15-1.49-.13-3.33-1.4-4.31-.72-.55-1.48-.99-2.15-1.61-.7-.66-1.32-1.39-1.84-2.19-1.11-1.71-1.71-3.54-2-5.55,0,0,0,0,0,0-.07-.5-.14-1.01-.18-1.51,0-.02,0-.04,0-.06-.28-2.55-.24-4.98,1.21-7.21.17-.26.11-.65-.11-.86-2.02-1.92-2.88-4.56-2.8-7.32.04-1.33.29-2.64.7-3.91.44-1.38.85-2.81,1.8-3.93,1.62-1.92,4.04-3.16,6.34-4.09,2.81-1.13,5.78-1.84,8.81-1.92,1.78-.05,3.55.14,5.3.39,1.4.21,2.7.41,3.78-.73.37-.39.57-.88.83-1.35.33-.61.69-1.2,1.09-1.77.78-1.11,1.69-2.13,2.69-3.05,4.04-3.73,9.48-5.86,14.9-6.48,3.45-.39,6.81-.23,10.22.38,1.57.28,2.48-.67,3.73-1.42,1.26-.75,2.3-1.79,3.62-2.47.66-.35,1.35-.62,2.07-.84.74-.23,1.51-.32,2.21-.68,1.31-.7,2.62-1.35,4.05-1.76,1.52-.44,3.13-.5,4.69-.29,1.52.21,2.92.94,4.43,1.07,1.56.13,3.11.54,4.52,1.22.72.35,1.32.73,2.11.91.81.19,1.6.43,2.36.79,1.39.65,2.52,1.61,3.59,2.69.54.54,1.03,1.1,1.46,1.74.39.59.55,1.27,1.32,1.35,2.79.29,5.34,1.44,7.23,3.54.44.48.78,1.01,1.16,1.54.42.59.93.89,1.56,1.2,1.36.66,2.52,1.78,4.09,1.93.77.07,1.63-.1,2.4-.12.9-.03,1.8-.05,2.7-.02,1.6.05,3.2.23,4.78.52,2.87.51,5.69,1.38,8.27,2.75,1.3.69,2.54,1.49,3.68,2.42,1.09.88,2.26,1.79,3.15,2.87,1.95,2.36,2.37,5.94,1.6,8.83ZM137.17,70.71c-.08.11-.13.1,0,0h0Z"/>
  <path class="cls-3" d="M137.17,70.71c-.13.1-.08.11,0,0h0Z"/>
  <g>
    <g>
      <path class="cls-5" d="M90.21,25.9c.55-.51,1.17-1.06,1.78-1.63-.23-.27-.48-.54-.72-.8-.02-.01-.09-.02-.1,0-.06.06-.12.12-.2.19-.53.5-1.07.98-1.63,1.5.29.26.58.49.87.75v-.02Z"/>
      <path class="cls-5" d="M90.37,26.18c.1.1.19.22.27.32.12.17.26.32.38.48.52-.33,1.04-.65,1.57-.98-.19-.29-.37-.58-.55-.87-.06-.1-.11-.09-.18-.03-.14.09-.26.17-.4.26-.36.22-.71.46-1.07.68-.07.05-.07.07-.02.14h0Z"/>
      <path class="cls-5" d="M93.5,29.53c-.08-.47-.39-.81-.76-1.09-.27-.2-.58-.38-.86-.56l-.35-.19c.7,1.14,1.22,2.33,1.55,3.64.03-.06.06-.1.08-.14.11-.35.23-.69.31-1.04.05-.2.06-.42.03-.61Z"/>
      <path class="cls-5" d="M72.28,25.08c-.1.31-.22.62-.39.89-.22.35-.54.62-.87.88-.48.37-.98.7-1.39,1.15-.3.33-.49.7-.53,1.14-.02.3-.03.61,0,.93.03.3.09.62.19.91.07.25.19.49.34.71.11.19.26.34.4.53.13-.45.22-.9.35-1.31.17-.51.34-1.03.57-1.53.21-.48.47-.94.72-1.39.25-.44.73-1.14,1.16-1.65.5-.6,1.05-1.15,1.65-1.63.47-.39.95-.75,1.48-1.03.45-.26.93-.49,1.39-.7.34-.15.69-.28,1.05-.39.44-.14.89-.23,1.34-.32.32-.06.65-.12.97-.14.39-.02.81-.03,1.21-.02.44.02.87.04,1.3.1.33.04.66.1.98.18.37.09.74.2,1.09.33.39.13.79.3,1.17.48.48.23.95.49,1.4.78l.03.02c-.09-.18-.18-.36-.25-.54-.09-.22-.18-.41-.25-.64-.12-.35-.25-.7-.45-1.02-.24-.38-.57-.56-1.01-.56-.55,0-1.06.17-1.6.25-.26.03-.51.08-.77.05-.46-.04-.83-.29-1.15-.6-.33-.3-.66-.61-1.04-.83-.17-.1-.35-.16-.53-.25-.17,0-.33,0-.5,0-.11.04-.21.07-.32.11-.38.13-.69.35-1.01.59-.41.31-.81.62-1.24.94-.29.22-.65.36-1.03.39-.57.06-1.15.07-1.72.09-.39.02-.77.05-1.13.2-.3.11-.55.29-.75.53-.09.12-.15.27-.24.39-.2.31-.25.68-.37,1.01-.11.32-.16.66-.27.99h0l.02-.02Z"/>
      <path class="cls-5" d="M92.45,32.19v-.03c-.02-.31-.09-.62-.17-.91-.1-.34-.2-.68-.34-1-.22-.5-.44-1.02-.68-1.5-.22-.42-.49-.83-.76-1.23-.47-.69-1.01-1.29-1.62-1.85-.58-.52-1.18-.98-1.86-1.37-.42-.23-.84-.47-1.29-.66-.49-.22-1-.39-1.54-.5-.41-.08-.8-.17-1.2-.23-.31-.05-.65-.06-.97-.09-.61-.03-1.21,0-1.81.1-.34.05-.68.12-1.01.21-.36.09-.73.19-1.09.33-.38.14-.75.3-1.1.48-.44.22-.87.47-1.29.74-.47.32-.9.68-1.32,1.05-.51.48-.99.98-1.39,1.55-.31.42-.59.88-.85,1.33-.28.45-.5.94-.71,1.45-.3.71-.5,1.45-.66,2.2-.03.14-.06.28-.12.39-.31.56-.83.81-1.47.83-.41.02-.78-.12-1.1-.4-.54-.46-.72-1.1-.55-1.75.1-.44.24-.87.42-1.28.23-.57.49-1.13.77-1.68.36-.65.77-1.29,1.25-1.86.43-.52.88-1.03,1.41-1.47.13-.1.23-.24.25-.4,0-.06.03-.1.04-.15.05-.16.09-.33.13-.52-.03,0-.05.01-.07.03-.14.08-.28.15-.42.25-.36.22-.72.43-1.08.67-.21.14-.4.3-.59.47-.22.19-.44.36-.64.56-.23.24-.49.47-.68.71-.35.44-.71.89-1.01,1.36-.26.38-.46.78-.68,1.18-.14.25-.26.52-.36.8-.13.34-.24.69-.36,1.03-.15.41-.24.84-.3,1.28-.04.38-.04.76.04,1.13.06.27.17.52.34.74.35.45.83.65,1.36.73.31.05.65.05.97.06,2.7-.01,5.38-.05,8.09-.08,4.39-.04,8.76-.08,13.16-.12.45,0,.93,0,1.38-.11.48-.1.88-.32,1.18-.7.21-.27.31-.56.35-.88.02-.3.02-.6-.01-.9h-.03ZM85.41,30.49c-.17,0-.32-.15-.32-.32,0-.17.15-.32.31-.32.18,0,.32.14.34.31,0,.17-.15.32-.32.33ZM86.18,28.34c-.17,0-.32-.15-.33-.32,0-.17.15-.32.32-.32.17,0,.32.15.33.32,0,.17-.15.32-.32.32ZM87.97,29.96c-.17,0-.32-.15-.33-.32,0-.17.15-.32.32-.32.18,0,.32.14.33.32,0,.17-.13.31-.32.32Z"/>
    </g>
    <g>
      <path class="cls-2" d="M83.11,30.63c.03.06.04.1.07.16-.37.17-.74.34-1.11.52-.87-1.85-1.73-3.68-2.6-5.53.38-.17.74-.34,1.12-.52.84,1.79,1.67,3.57,2.52,5.37Z"/>
      <path class="cls-2" d="M78.06,27.58c-.15-.31-.29-.61-.44-.93.37-.17.73-.34,1.12-.52.87,1.84,1.73,3.68,2.6,5.53-.37.17-.73.34-1.12.52-.72-1.53-1.43-3.06-2.16-4.6Z"/>
      <path class="cls-2" d="M84.03,31.96c.11-.05.2-.09.31-.14.39.83.78,1.66,1.17,2.51h-.2c-1.51,0-3.02,0-4.53,0-.17,0-.26-.05-.32-.21-.05-.13-.12-.26-.18-.41.43-.2.85-.4,1.29-.6.09.19.17.36.27.55.48-.23.96-.45,1.46-.68-.09-.19-.16-.36-.25-.55.33-.16.65-.3.99-.46Z"/>
      <path class="cls-2" d="M86.16,34.95h-6.45v-.43h6.57c0,.12,0,.23,0,.34,0,.03-.06.06-.12.09Z"/>
      <path class="cls-2" d="M78.28,25.17c-.08-.17-.16-.33-.24-.51.25-.11.49-.23.74-.35.09.19.17.36.26.55.43-.2.85-.4,1.29-.6.06.13.12.24.18.37-.43.2-.85.4-1.29.6-.03-.05-.07-.1-.11-.17-.23.11-.46.22-.71.33.02.06.04.12.06.19-.42.2-.85.4-1.29.6-.06-.13-.12-.24-.18-.38.38-.17.74-.34,1.1-.51.07-.03.12-.08.17-.13Z"/>
      <path class="cls-2" d="M83.31,32.09c-.24.11-.47.22-.72.33-.06-.12-.12-.24-.18-.38.56-.26,1.1-.52,1.67-.78.06.12.12.24.18.37-.32.15-.62.3-.95.45Z"/>
      <path class="cls-2" d="M80.32,33.48c-.09.06-.16.06-.19-.05-.03-.09-.07-.18-.12-.27.55-.26,1.1-.51,1.66-.78.06.12.12.24.19.38-.51.24-1.02.48-1.54.72Z"/>
      <path class="cls-2" d="M83.96,31.07c-.16.09-.32.18-.48.26-.38.18-.76.36-1.15.54-.06-.12-.11-.24-.18-.38.34-.16.67-.32,1-.47.04-.01.08-.03.12-.06.26-.2.48-.14.69.11Z"/>
      <path class="cls-2" d="M80.21,32.86c-.1.04-.18.08-.28.13,0-.14-.01-.26,0-.38,0-.05.07-.11.12-.14.44-.21.89-.42,1.36-.64.06.12.12.23.19.38-.47.22-.92.43-1.39.65Z"/>
      <path class="cls-2" d="M77.97,26.04l.59-.27c.03.07.06.12.09.19-.37.17-.73.34-1.11.52l-.1-.19c.18-.08.35-.16.53-.24Z"/>
      <path class="cls-2" d="M80.03,25.08c.13-.06.25-.12.38-.18.03.06.06.12.1.19-.38.18-.74.35-1.11.52-.03-.06-.06-.12-.1-.19.25-.11.48-.22.73-.34Z"/>
      <path class="cls-2" d="M79.51,26.68c-.06.03-.1.04-.15.07-.06-.12-.11-.24-.17-.37.06-.03.12-.06.21-.1.04.14.09.27.12.4Z"/>
    </g>
  </g>
</svg>