<?xml version="1.0" encoding="UTF-8"?>
<svg xmlns="http://www.w3.org/2000/svg" version="1.1" xmlns:xlink="http://www.w3.org/1999/xlink" viewBox="0 0 141.73 141.73">
  <!-- Generator: Adobe Illustrator 30.0.0, SVG Export Plug-In . SVG Version: 2.1.1 Build 123)  -->
  <defs>
    <style>
      .st0 {
        fill: url(#Degradado_sin_nombre_6);
      }

      .st1 {
        fill: url(#Degradado_sin_nombre_5);
      }

      .st2 {
        mix-blend-mode: multiply;
        opacity: .57;
      }

      .st3 {
        fill: #8ebe21;
      }

      .st4 {
        fill: #fff;
      }

      .st5 {
        fill: none;
      }

      .st6 {
        fill: url(#Degradado_sin_nombre_4);
      }

      .st7 {
        fill: url(#Degradado_sin_nombre_2);
      }

      .st8 {
        isolation: isolate;
      }

      .st9 {
        fill: url(#Degradado_sin_nombre_7);
      }

      .st10 {
        fill: url(#Degradado_sin_nombre_3);
      }

      .st11 {
        fill: url(#Degradado_sin_nombre);
      }

      .st12 {
        fill: url(#Degradado_sin_nombre_8);
      }
    </style>
    <linearGradient id="Degradado_sin_nombre" data-name="Degradado sin nombre" x1="28.5" y1="71.55" x2="28.5" y2="41.73" gradientTransform="translate(0 141.64) scale(1 -1)" gradientUnits="userSpaceOnUse">
      <stop offset="0" stop-color="#fff" stop-opacity=".2"/>
      <stop offset=".99" stop-color="#008d36"/>
    </linearGradient>
    <linearGradient id="Degradado_sin_nombre_2" data-name="Degradado sin nombre 2" x1="40.56" y1="71.55" x2="40.56" y2="41.73" gradientTransform="translate(0 141.64) scale(1 -1)" gradientUnits="userSpaceOnUse">
      <stop offset="0" stop-color="#fff" stop-opacity=".2"/>
      <stop offset=".99" stop-color="#008d36"/>
    </linearGradient>
    <linearGradient id="Degradado_sin_nombre_3" data-name="Degradado sin nombre 3" x1="53.6" y1="71.55" x2="53.6" y2="41.73" gradientTransform="translate(0 141.64) scale(1 -1)" gradientUnits="userSpaceOnUse">
      <stop offset="0" stop-color="#fff" stop-opacity=".2"/>
      <stop offset=".99" stop-color="#008d36"/>
    </linearGradient>
    <linearGradient id="Degradado_sin_nombre_4" data-name="Degradado sin nombre 4" x1="64.92" y1="71.55" x2="64.92" y2="41.73" gradientTransform="translate(0 141.64) scale(1 -1)" gradientUnits="userSpaceOnUse">
      <stop offset="0" stop-color="#fff" stop-opacity=".2"/>
      <stop offset=".99" stop-color="#008d36"/>
    </linearGradient>
    <linearGradient id="Degradado_sin_nombre_5" data-name="Degradado sin nombre 5" x1="76.79" y1="71.55" x2="76.79" y2="41.73" gradientTransform="translate(0 141.64) scale(1 -1)" gradientUnits="userSpaceOnUse">
      <stop offset="0" stop-color="#fff" stop-opacity=".2"/>
      <stop offset=".99" stop-color="#008d36"/>
    </linearGradient>
    <linearGradient id="Degradado_sin_nombre_6" data-name="Degradado sin nombre 6" x1="89.14" y1="71.55" x2="89.14" y2="41.73" gradientTransform="translate(0 141.64) scale(1 -1)" gradientUnits="userSpaceOnUse">
      <stop offset="0" stop-color="#fff" stop-opacity=".2"/>
      <stop offset=".99" stop-color="#008d36"/>
    </linearGradient>
    <linearGradient id="Degradado_sin_nombre_7" data-name="Degradado sin nombre 7" x1="100.94" y1="71.55" x2="100.94" y2="41.73" gradientTransform="translate(0 141.64) scale(1 -1)" gradientUnits="userSpaceOnUse">
      <stop offset="0" stop-color="#fff" stop-opacity=".2"/>
      <stop offset=".99" stop-color="#008d36"/>
    </linearGradient>
    <linearGradient id="Degradado_sin_nombre_8" data-name="Degradado sin nombre 8" x1="113.16" y1="71.55" x2="113.16" y2="41.73" gradientTransform="translate(0 141.64) scale(1 -1)" gradientUnits="userSpaceOnUse">
      <stop offset="0" stop-color="#fff" stop-opacity=".2"/>
      <stop offset=".99" stop-color="#008d36"/>
    </linearGradient>
  </defs>
  <g class="st8">
    <g id="Capa_1">
      <g>
        <path class="st3" d="M22.96,96.07v-22.83h6.03c1.26,0,2.26.28,3,.84s1.27,1.36,1.59,2.4.48,2.27.48,3.71-.13,2.59-.4,3.61c-.27,1.03-.75,1.82-1.43,2.38s-1.66.84-2.93.84h-1.86v9.04h-4.49.01ZM27.45,82.93h.26c.85,0,1.37-.24,1.56-.71s.29-1.18.29-2.1c0-.86-.09-1.53-.28-2s-.63-.71-1.32-.71h-.51v5.53h0Z"/>
        <path class="st3" d="M34.5,96.07l2.21-22.83h7.75l2.17,22.83h-4.32l-.33-3.68h-2.75l-.28,3.68s-4.45,0-4.45,0ZM39.55,88.74h2.08l-1-11.61h-.21l-.87,11.61Z"/>
        <path class="st3" d="M48.02,96.07v-22.83h7.01c1.17,0,2.05.27,2.65.8s1,1.28,1.2,2.23c.2.96.3,2.08.3,3.37s-.16,2.24-.47,2.98c-.31.74-.91,1.26-1.78,1.54.72.15,1.22.5,1.51,1.07s.43,1.3.43,2.2v8.64h-4.5v-8.94c0-.67-.14-1.08-.41-1.24-.27-.16-.71-.24-1.32-.24v10.42s-4.62,0-4.62,0ZM52.66,81.7h1.1c.63,0,.95-.69.95-2.06,0-.89-.07-1.48-.21-1.75-.14-.28-.4-.42-.78-.42h-1.06s0,4.23,0,4.23Z"/>
        <path class="st3" d="M62.64,96.07v-18.45h-2.71v-4.38h9.99v4.38h-2.71v18.45s-4.57,0-4.57,0Z"/>
        <path class="st3" d="M71.19,96.07v-22.83h4.7l2.1,10.94v-10.94h4.41v22.83h-4.46l-2.28-11.42v11.42s-4.47,0-4.47,0Z"/>
        <path class="st3" d="M84.42,96.07v-22.83h9.14v4.41h-4.49v4.45h4.31v4.3h-4.31v5.23h4.79v4.45h-9.44Z"/>
        <path class="st3" d="M95.36,96.07v-22.83h7.01c1.17,0,2.05.27,2.65.8s1,1.28,1.2,2.23c.2.96.3,2.08.3,3.37s-.16,2.24-.47,2.98c-.31.74-.91,1.26-1.78,1.54.72.15,1.22.5,1.51,1.07s.43,1.3.43,2.2v8.64h-4.5v-8.94c0-.67-.14-1.08-.41-1.24-.27-.16-.71-.24-1.32-.24v10.42s-4.62,0-4.62,0ZM100.01,81.7h1.1c.63,0,.95-.69.95-2.06,0-.89-.07-1.48-.21-1.75-.14-.28-.4-.42-.78-.42h-1.06s0,4.23,0,4.23Z"/>
        <path class="st3" d="M113.45,96.28c-2.08,0-3.59-.52-4.51-1.56-.92-1.04-1.38-2.69-1.38-4.96v-2.23h4.52v2.85c0,.53.08.94.24,1.24.16.3.44.45.84.45s.7-.12.86-.36.24-.64.24-1.19c0-.7-.07-1.29-.21-1.76s-.38-.92-.72-1.35c-.34-.43-.82-.93-1.42-1.5l-2.05-1.95c-1.53-1.45-2.3-3.1-2.3-4.96s.45-3.43,1.36-4.45c.9-1.02,2.21-1.53,3.92-1.53,2.09,0,3.58.56,4.46,1.67.88,1.12,1.32,2.81,1.32,5.09h-4.64v-1.57c0-.31-.09-.55-.27-.73-.18-.17-.42-.26-.72-.26-.36,0-.63.1-.8.3-.17.2-.25.46-.25.79s.09.67.26,1.04c.17.37.51.8,1.03,1.28l2.63,2.53c.53.5,1.01,1.03,1.45,1.59.44.56.8,1.21,1.06,1.95.27.74.4,1.64.4,2.7,0,2.15-.4,3.83-1.19,5.04-.79,1.22-2.17,1.82-4.13,1.82v.02h0Z"/>
      </g>
      <path class="st5" d="M66.94,50.13h-1.17v4.65h1.21c.69,0,1.04-.76,1.04-2.27,0-.98-.08-1.62-.23-1.92s-.44-.46-.86-.46c0,0,.01,0,.01,0Z"/>
      <polygon points="28.07 59.94 32.8 59.94 32.8 55.22 28.07 55.22 28.07 50.33 33 50.33 33 45.48 22.96 45.48 22.96 70.58 33.33 70.58 33.33 65.69 28.07 65.69 28.07 59.94"/>
      <polygon points="47.09 45.46 42.17 45.46 41.02 54.09 39.72 45.46 34.82 45.46 36.95 57.27 34.26 70.58 39.35 70.58 40.98 60.77 42.56 70.58 47.64 70.58 44.96 57.27 47.09 45.46"/>
      <polygon points="48.29 50.3 51.27 50.3 51.27 70.58 56.29 70.58 56.29 50.3 59.27 50.3 59.27 45.48 48.29 45.48 48.29 50.3"/>
      <path d="M72.41,55.79c.35-.82.52-1.91.52-3.28s-.11-2.65-.33-3.7-.66-1.87-1.32-2.45c-.66-.58-1.62-.88-2.91-.88h-7.7v25.1h5.08v-11.45c.67,0,1.15.09,1.45.26.3.18.45.63.45,1.36v9.83h4.95v-9.5c0-.99-.16-1.79-.48-2.42-.32-.62-.87-1.01-1.66-1.18.96-.31,1.61-.88,1.96-1.7h0ZM66.99,54.78h-1.21v-4.65h1.17c.42,0,.7.15.86.46s.23.95.23,1.92c0,1.51-.35,2.27-1.04,2.27,0,0-.01,0-.01,0Z"/>
      <polygon points="84.11 57.07 84.1 57.63 83.94 58.13 83.63 58.6 83.67 59.17 83.47 59.69 83.39 59.94 84.43 59.94 84.43 56.13 84.18 56.54 84.11 57.07"/>
      <polygon points="84.96 69.7 84.96 65.69 79.69 65.69 79.69 59.94 82.84 59.94 82.9 59.52 82.87 58.98 82.83 58.44 82.78 57.89 82.81 57.35 82.91 56.81 82.96 56.27 83.09 55.73 82.99 55.35 82.99 55.22 79.69 55.22 79.69 50.33 83.54 50.33 83.58 49.9 83.82 49.4 83.92 48.88 83.85 48.32 83.95 47.8 84.33 47.63 84.24 46.76 84.57 46.29 84.63 46.04 84.63 45.48 74.59 45.48 74.59 70.58 84.89 70.58 84.86 70.2 84.96 69.7"/>
      <polygon points="90.86 61.19 90.6 61.66 90.32 62.12 89.96 62.53 89.73 63.01 89.31 63.38 89.13 63.9 88.88 64.37 88.75 64.91 88.41 65.32 87.99 65.69 87.82 66.21 87.58 66.69 87.28 67.14 87.11 67.66 86.66 68.04 86.66 68.65 86.61 68.69 86.61 70.58 91.15 70.58 91.15 60.44 91.03 60.67 90.86 61.19"/>
      <path d="M101.71,67.62l.4-.75.08.13s.23-.15.25-.14l.1-.3.17-.3.31-.17.21-.26.23-.25.17-.2.24-.42.23-.15.17-.3.2-.29.25-.22.32-.14.11-.34.2-.29.31-.17.25-.22s.26-.19.24-.2l.03-.08v-8.23l-.26.1-.29.48-.39.35-.36.41-.42.34-.43.31-.38.38-.53.23-.38.38-.36.41-.28.46-.39.35-.13.14v9.26s.03-.04.04-.04l.09-.27h0Z"/>
      <polygon points="99.77 60.36 99.42 60.74 98.95 61.02 98.65 61.47 98.27 61.85 97.81 62.13 97.49 62.55 97.15 62.97 96.8 63.35 96.55 63.85 96.1 64.16 95.8 64.61 95.37 64.92 95.02 65.31 94.68 65.73 94.36 66.15 93.98 66.53 93.57 66.85 94.2 70.58 98.7 70.58 100.43 59.73 100.24 60.08 99.77 60.36"/>
      <path d="M93.78,65l.29-.48.05-.46.45-.36.28-.46.29-.43.17-.52.23-.48.51-.31.24-.5.23-.48.36-.41.48-.32.13-.56.26-.47.46-.33.36-.41.4-.37.08-.63.44-.33.22-.51.36-.41.55-.45.13-.39.51-.45.32-1.99v1.68l.09-.09.12-.36.73-.09.18-.55.32-.42.28-.46.45-.3.26-.49.3-.45.44-.33.45-.3.26-.47.52-.28.19-.26v-3.83h-4.7l-.28.28s-.38.38-.35.39l-.18.55-.44.33-.11.57-.34.42-.29.43-.5.29-.22.51-.3.45-.46.33-.17.52-.07.05-1.39,10.18-.93-6.75v.03l-.37.41-.4.37-.17.52-.46.33h.1l-.09.58-.36.41-.46.33-.28.46-.11.57-.32.42-.33.22,1.15,6.82.1-.23.34-.27h0Z"/>
      <polygon points="105.79 64.89 105.58 65.14 105.31 65.33 105.02 65.46 104.78 65.71 104.53 65.93 104.28 66.15 104.09 66.44 103.79 66.59 103.58 66.85 103.3 67.01 103.05 67.23 102.82 67.46 102.59 67.71 102.35 67.91 102.07 68.07 101.8 68.26 101.58 68.38 101.58 70.58 106.18 70.58 106.18 64.66 106.09 64.74 105.79 64.89"/>
      <path d="M88.02,46.07l-.37.43-.37.43s-.01.57,0,.58l-.16.5-.3.45-.17.5-.05.2v16.65l.18-.55v-.58l.36-.43v-.57l.13-.51,1.03-1.37v-.5l.03-.57.32-.45.17-.5.3-.45.23-.55.04-.49.17-.5.21-.48.38-.48.45-.61v-.27l.32-.45.08-.55.13-.54h0v-1.89l.27,1.6.11-.12.26-.47.11-.57.55.18.41-1.48.41-.39.29-1.11.04-.49.45-.36.3-.45.37-.08-.45-3.28h-6.08s0,.07.01.07l-.17.52v-.02h.01Z"/>
      <polygon points="118.01 56.03 117.7 56.12 117.48 56.4 117.15 56.47 116.89 56.66 116.69 56.97 116.38 57.13 116.12 57.32 115.86 57.51 115.63 57.51 115.29 57.85 115.14 57.62 114.75 58.2 114.53 58.46 114.29 58.68 114 58.86 113.88 58.59 113.43 59.2 113.14 59.33 112.92 59.61 112.66 59.8 112.39 59.99 112.09 60.14 111.82 60.33 111.55 60.49 111.31 60.74 111.02 60.92 110.81 61.2 110.47 61.3 110.25 61.58 109.99 61.77 109.74 61.99 109.45 62.17 109.18 62.33 108.91 62.52 108.58 62.61 108.4 62.77 108.4 70.58 118.77 70.58 118.77 65.69 113.51 65.69 113.51 59.94 118.24 59.94 118.24 55.69 118.19 55.71 118.01 56.03"/>
      <polygon points="109.15 46.45 109.27 46.11 109.86 45.75 110.1 45.48 108.4 45.48 108.4 46.92 108.51 46.87 109.15 46.45"/>
      <path d="M115.35,45.83l-.25.52-.45.3-.39.35-.38.38-.36.03-.5.59-.28-.29-.53.98-.3.45-.34.42-.42.34-.23-.38-.62,1.03-.47.27-.29.48-.42.34-.38.38-.37.23v8.12h.2l.16-.32.23-.25.22-.28.3-.15.2-.29s.32-.45.33-.47l.16.05.3-.15.19-.27.32-.14.23-.25.22-.28.32-.12.23-.25.21-.26.34-.04.45-.43s.2-.14.22-.13l.07-.2.39-.18.43-.39.53-.38h-1.14v-4.89h4.93v-4.85h-2.69l-.39.35.02.03h0Z"/>
      <polygon class="st4" points="84.96 69.7 84.86 70.2 84.89 70.58 84.96 70.58 84.96 69.7"/>
      <g class="st2">
        <path class="st11" d="M22.96,96.07v-22.83h6.03c1.26,0,2.26.28,3,.84s1.27,1.36,1.59,2.4.48,2.27.48,3.71-.13,2.59-.4,3.61c-.27,1.03-.75,1.82-1.43,2.38s-1.66.84-2.93.84h-1.86v9.04h-4.49.01ZM27.45,82.93h.26c.85,0,1.37-.24,1.56-.71s.29-1.18.29-2.1c0-.86-.09-1.53-.28-2s-.63-.71-1.32-.71h-.51v5.53h0Z"/>
        <path class="st7" d="M34.5,96.07l2.21-22.83h7.75l2.17,22.83h-4.32l-.33-3.68h-2.75l-.28,3.68s-4.45,0-4.45,0ZM39.55,88.74h2.08l-1-11.61h-.21l-.87,11.61Z"/>
        <path class="st10" d="M48.02,96.07v-22.83h7.01c1.17,0,2.05.27,2.65.8s1,1.28,1.2,2.23c.2.96.3,2.08.3,3.37s-.16,2.24-.47,2.98c-.31.74-.91,1.26-1.78,1.54.72.15,1.22.5,1.51,1.07s.43,1.3.43,2.2v8.64h-4.5v-8.94c0-.67-.14-1.08-.41-1.24-.27-.16-.71-.24-1.32-.24v10.42s-4.62,0-4.62,0ZM52.66,81.7h1.1c.63,0,.95-.69.95-2.06,0-.89-.07-1.48-.21-1.75-.14-.28-.4-.42-.78-.42h-1.06s0,4.23,0,4.23Z"/>
        <path class="st6" d="M62.64,96.07v-18.45h-2.71v-4.38h9.99v4.38h-2.71v18.45s-4.57,0-4.57,0Z"/>
        <path class="st1" d="M71.19,96.07v-22.83h4.7l2.1,10.94v-10.94h4.41v22.83h-4.46l-2.28-11.42v11.42s-4.47,0-4.47,0Z"/>
        <path class="st0" d="M84.42,96.07v-22.83h9.14v4.41h-4.49v4.45h4.31v4.3h-4.31v5.23h4.79v4.45h-9.44Z"/>
        <path class="st9" d="M95.36,96.07v-22.83h7.01c1.17,0,2.05.27,2.65.8s1,1.28,1.2,2.23c.2.96.3,2.08.3,3.37s-.16,2.24-.47,2.98c-.31.74-.91,1.26-1.78,1.54.72.15,1.22.5,1.51,1.07s.43,1.3.43,2.2v8.64h-4.5v-8.94c0-.67-.14-1.08-.41-1.24-.27-.16-.71-.24-1.32-.24v10.42s-4.62,0-4.62,0ZM100.01,81.7h1.1c.63,0,.95-.69.95-2.06,0-.89-.07-1.48-.21-1.75-.14-.28-.4-.42-.78-.42h-1.06s0,4.23,0,4.23Z"/>
        <path class="st12" d="M113.45,96.28c-2.08,0-3.59-.52-4.51-1.56-.92-1.04-1.38-2.69-1.38-4.96v-2.23h4.52v2.85c0,.53.08.94.24,1.24.16.3.44.45.84.45s.7-.12.86-.36.24-.64.24-1.19c0-.7-.07-1.29-.21-1.76s-.38-.92-.72-1.35c-.34-.43-.82-.93-1.42-1.5l-2.05-1.95c-1.53-1.45-2.3-3.1-2.3-4.96s.45-3.43,1.36-4.45c.9-1.02,2.21-1.53,3.92-1.53,2.09,0,3.58.56,4.46,1.67.88,1.12,1.32,2.81,1.32,5.09h-4.64v-1.57c0-.31-.09-.55-.27-.73-.18-.17-.42-.26-.72-.26-.36,0-.63.1-.8.3-.17.2-.25.46-.25.79s.09.67.26,1.04c.17.37.51.8,1.03,1.28l2.63,2.53c.53.5,1.01,1.03,1.45,1.59.44.56.8,1.21,1.06,1.95.27.74.4,1.64.4,2.7,0,2.15-.4,3.83-1.19,5.04-.79,1.22-2.17,1.82-4.13,1.82v.02h0Z"/>
      </g>
    </g>
  </g>
</svg>