<?xml version="1.0" encoding="UTF-8"?>
<svg id="Capa_1" xmlns="http://www.w3.org/2000/svg" version="1.1" viewBox="0 0 88.45 52.86">
  <!-- Generator: Adobe Illustrator 30.1.0, SVG Export Plug-In . SVG Version: 2.1.1 Build 136)  -->
  <defs>
    <style>
      .st0 {
        fill: none;
      }

      .st1 {
        fill: #fff;
      }

      .st2 {
        fill: #00acef;
      }

      .st3 {
        fill: #f6a500;
      }

      .st4 {
        fill: #ea0202;
      }
    </style>
  </defs>
  <path class="st1" d="M83.26,16.15c-.7-.57-1.46-1.06-2.26-1.48-1.58-.84-3.31-1.37-5.07-1.69-.97-.17-1.95-.29-2.93-.32-.55-.02-1.1,0-1.66.01-.47.02-1,.12-1.47.08-.96-.09-1.67-.78-2.51-1.18-.39-.19-.7-.38-.96-.74-.23-.32-.44-.65-.71-.95-1.16-1.29-2.72-1.99-4.43-2.17-.48-.05-.57-.47-.81-.83-.26-.39-.56-.73-.89-1.07-.66-.67-1.35-1.25-2.2-1.65-.46-.22-.95-.36-1.44-.48-.48-.11-.85-.35-1.29-.56-.86-.42-1.81-.67-2.77-.75-.93-.08-1.78-.53-2.72-.66-.96-.13-1.94-.09-2.87.18-.88.25-1.68.65-2.48,1.08-.42.23-.9.28-1.35.42-.44.13-.86.3-1.27.51-.81.42-1.44,1.06-2.22,1.52-.77.46-1.33,1.04-2.29.87-2.09-.37-4.15-.47-6.27-.23-3.32.38-6.66,1.68-9.13,3.97-.61.57-1.17,1.19-1.65,1.87-.24.35-.47.71-.67,1.08-.16.29-.28.59-.51.83-.66.7-1.45.58-2.31.45-1.08-.16-2.16-.27-3.25-.24-1.86.05-3.68.49-5.4,1.18-1.41.57-2.89,1.33-3.89,2.5-.58.69-.83,1.57-1.11,2.41-.25.78-.41,1.58-.43,2.4-.05,1.69.48,3.31,1.72,4.48.13.13.17.37.07.53-.88,1.37-.91,2.86-.74,4.42,0,.01,0,.02,0,.04.02.31.07.62.11.93,0,0,0,0,0,0,.18,1.23.54,2.35,1.22,3.4.32.49.7.94,1.13,1.34.41.38.88.65,1.32.99.78.6.95,1.73.86,2.64-.09.87-.01,1.75.23,2.59.48,1.64,1.59,3.03,3.12,3.81,1.94.99,4.3.79,6.35.27.57-.15,1.14-.42,1.72-.5.65-.09,1.29-.19,1.93-.33.6-.13,1.2-.27,1.78-.46.27-.08.52-.19.8-.22.25-.03.5,0,.75,0,.15,0,.3.09.38.22.19.32.42.59.6.92.19.35.41.69.66,1,.46.58,1,1.1,1.63,1.49,1.14.72,2.49,1.09,3.84,1.12.63.01,1.26-.05,1.87-.2.59-.14,1.09-.43,1.66-.61.62-.21,1.38-.23,2.03-.3.41-.05.83-.05,1.24-.13.3-.06.57-.13.87-.14.77-.05,1.54-.05,2.31-.11.36-.03.72-.12,1.07-.1.35.03.69.14,1.04.19.74.11,1.49,0,2.23.16.78.18,1.58.24,2.39.18.45-.04.88-.16,1.32-.22.35-.05.69.01,1.04.04.78.06,1.56.16,2.32.34.69.16,1.38.28,2.07.45.7.17,1.41.23,2.13.21,2.84-.09,5.51-1.7,6.82-4.23.1-.18.31-.23.49-.2.54.08,1.08.11,1.63.13.49.02.91.21,1.39.34.95.26,1.94.25,2.91.43.15.03.24.13.28.25.54.11,1.09.21,1.62.36.99.27,2.01.52,3.03.64,1.54.17,3.08-.06,4.44-.81.74-.41,1.32-.94,1.94-1.5.55-.49,1-1.01,1.34-1.68.65-1.28.83-2.83.51-4.22-.17-.74-.18-1.29.22-1.96.17-.28.32-.56.45-.86-.09-.08-.14-.18-.14-.32.01-.19.11-.37.19-.54.17-.39.37-.78.53-1.17.22-.51.28-1.1.39-1.64.12-.54.24-1.08.35-1.63.22-1.16.28-2.33-.06-3.47-.16-.51-.49-.99-.58-1.52-.08-.42.02-.82.21-1.2.01-.03.02-.06.04-.09.51-.84.79-1.76,1.04-2.7.48-1.77.22-3.97-.98-5.41-.55-.66-1.26-1.22-1.93-1.76Z"/>
  <path class="st2" d="M22.04,20.96s0,.26-.01.36c-.06.49-.23.86-.5,1.1-.27.24-.73.32-1.38.24s-1.48-.25-2.41-.51c-.93-.26-1.78-.51-2.55-.78-.77-.26-1.64-.49-2.59-.7-.95-.2-1.85-.32-2.7-.35-.84-.03-1.75.08-2.71.35-.96.26-1.88.7-2.75,1.3-.03,0-.03.03-.03.06,0,.03.03.04.07.04,2.35.02,4.07.77,5.15,2.23.05.07.1.07.15.02.39-.43.82-.75,1.31-.97.48-.22.95-.36,1.41-.41.46-.05.99-.05,1.6.02.6.06,1.15.15,1.64.25.49.11,1.08.23,1.76.37.68.14,1.27.24,1.76.3.61.07,1.16.08,1.63.03s.85-.15,1.13-.28c.28-.13.51-.31.69-.53.18-.22.31-.43.39-.64.07-.2.13-.43.16-.67,0-.02,0-.04,0-.07,0-.34-.25-.64-.59-.72-.18-.04-.59-.11-.63-.04Z"/>
  <g>
    <path class="st2" d="M24.61,20.25c-.7.02-1.35-.26-1.93-.84-.58-.57-.88-1.29-.91-2.14-.01-.58.1-1.19.34-1.83.24-.64.61-1.26,1.12-1.87s1.12-1.17,1.83-1.66c.71-.49,1.57-.9,2.58-1.21s2.1-.49,3.27-.51c1.13-.03,2.15.11,3.06.4.92.29,1.65.75,2.21,1.38.56.62.85,1.36.87,2.22.02.9-.25,1.68-.83,2.32-.57.65-1.36,1.11-2.37,1.39.64.27,1.14.66,1.5,1.18s.56,1.12.57,1.82c.01.54-.07,1.06-.26,1.55-.19.49-.46.93-.82,1.34-.36.4-.85.73-1.47.97-.62.24-1.32.38-2.12.39-.77.02-1.39-.12-1.87-.43-.48-.3-.72-.61-.73-.92,0-.1.02-.18.06-.25.04-.07.09-.1.14-.11.02,0,.08.04.16.11.08.07.18.15.3.24.12.09.3.17.54.24.24.07.52.1.83.09.74-.02,1.37-.21,1.88-.57.51-.36.87-.81,1.08-1.34.21-.53.31-1.11.29-1.74-.02-.68-.18-1.21-.5-1.59-.32-.38-.71-.62-1.17-.71-.16.02-.3.03-.43.03-.36,0-.58-.13-.66-.43-.04-.17,0-.26.11-.26,1.2-.03,2.13-.36,2.8-1,.67-.64.99-1.48.96-2.52-.02-.93-.36-1.67-1.02-2.21-.66-.55-1.65-.81-2.99-.77-.94.02-1.82.18-2.63.48-.82.3-1.5.67-2.05,1.13s-1.03.96-1.42,1.51c-.4.55-.68,1.1-.86,1.65-.18.54-.26,1.05-.25,1.52.01.47.13.84.34,1.12.22.27.52.41.9.4.51-.01.96-.24,1.36-.69.4-.45.59-.86.58-1.23,0-.12.08-.14.24-.04.24.12.36.32.37.6.01.59-.27,1.21-.86,1.85-.59.64-1.3.97-2.16.99ZM33.9,12.66c-.42.01-.83.25-1.24.71-.4.46-.77,1.06-1.1,1.78-.33.73-.66,1.53-.99,2.42-.33.89-.68,1.77-1.03,2.65-.36.88-.73,1.69-1.11,2.42-.38.73-.83,1.33-1.32,1.8-.5.46-1.02.7-1.58.72-.48.01-.9-.17-1.27-.55-.36-.38-.55-.75-.56-1.12,0-.15.02-.27.06-.37.04-.1.09-.15.15-.15.01,0,.06.03.13.09.08.06.16.09.24.09.25,0,.48-.04.68-.11.21-.07.46-.22.75-.46.29-.24.59-.57.89-.99.3-.42.65-1,1.04-1.75.4-.75.82-1.65,1.26-2.69.73-1.71,1.46-2.96,2.19-3.74.74-.78,1.5-1.18,2.29-1.2.28,0,.47.09.55.28.05.11.03.17-.05.17Z"/>
    <path class="st2" d="M42.85,17.92c.01.56-.23,1.07-.72,1.54-.5.47-1.06.82-1.68,1.06-.63.24-1.21.38-1.75.41-.04.22-.06.44-.06.65,0,.36.09.65.24.88.15.23.39.33.69.33.22,0,.47-.05.73-.12.26-.07.58-.21.95-.39.37-.19.75-.49,1.16-.9.4-.41.78-.91,1.13-1.48.02-.05.05-.06.09-.02l.38.42s.03.07,0,.11c-.37.63-.75,1.17-1.14,1.62-.39.46-.74.8-1.05,1.03-.31.23-.65.41-1.01.55-.36.14-.65.22-.86.25-.21.03-.46.05-.74.05-.73.02-1.28-.21-1.66-.67-.38-.47-.57-1.07-.59-1.8-.02-.68.17-1.38.54-2.11.38-.73.9-1.34,1.56-1.84.66-.5,1.35-.76,2.05-.77.53-.01.95.08,1.26.28.31.2.47.51.48.93ZM41.27,17.42c-.4,0-.83.3-1.32.87-.48.57-.85,1.22-1.1,1.96,1.13-.32,1.93-.91,2.41-1.75.29-.49.35-.83.18-1.03-.04-.04-.09-.05-.17-.05Z"/>
    <path class="st2" d="M51.72,20.11s.05.07.02.11c-.44.75-.82,1.36-1.15,1.82-.32.46-.62.79-.9,1.01-.27.21-.51.35-.7.41-.19.06-.42.09-.69.1-.4,0-.73-.12-1-.38-.27-.27-.41-.6-.42-1.01v-.04c-.68.99-1.39,1.5-2.12,1.52-.52.01-.93-.16-1.22-.53-.29-.36-.45-.86-.46-1.47-.01-.48.08-1.01.29-1.58.2-.57.48-1.1.82-1.61.34-.5.77-.92,1.3-1.27.52-.34,1.06-.52,1.62-.53.72-.02,1.18.26,1.39.82.01-.02.05-.11.11-.26.04-.08.1-.11.18-.12l1.48-.04s.07.01.08.04c.02.03.02.06.01.1-.82,1.88-1.33,3.11-1.54,3.69-.2.59-.3,1.03-.29,1.34,0,.22.09.33.27.33.19,0,.5-.26.95-.77.45-.51.94-1.21,1.47-2.11.04-.04.07-.04.09,0,.19.19.32.33.4.42ZM47.95,18.73c.03-.42-.02-.76-.15-1.02-.13-.26-.31-.38-.53-.38-.38,0-.78.28-1.19.81-.41.53-.73,1.14-.98,1.83-.24.69-.36,1.27-.35,1.75,0,.22.06.4.15.53.1.13.21.19.35.19.56-.01,1.28-.81,2.17-2.39.13-.36.3-.8.53-1.31Z"/>
    <path class="st2" d="M55.26,19.06c-.22,0-.34-.06-.34-.2.49-.58.69-1.07.6-1.48-.04-.2-.17-.29-.4-.29-.33,0-.71.23-1.14.67-.42.44-.78.99-1.08,1.65-.3.66-.44,1.28-.43,1.85,0,.36.09.66.25.91s.39.37.69.36c.22,0,.46-.05.71-.14s.55-.23.9-.42.72-.5,1.1-.92c.39-.42.75-.92,1.1-1.49.02-.05.05-.06.09-.02l.38.42s.04.07.02.11c-.37.63-.75,1.17-1.13,1.62s-.73.8-1.02,1.03c-.3.23-.62.41-.96.55-.34.14-.62.22-.82.25-.2.03-.45.05-.73.05-.73.02-1.28-.21-1.66-.67-.38-.47-.57-1.07-.59-1.8-.02-.68.17-1.38.54-2.11.38-.73.9-1.34,1.56-1.84.66-.5,1.35-.76,2.05-.77,1.04-.03,1.57.38,1.59,1.21,0,.36-.13.69-.41.99-.28.3-.57.46-.87.47Z"/>
    <path class="st2" d="M65.31,19.89c-.43.74-.83,1.35-1.19,1.82-.37.47-.7.81-1.02,1.02-.31.21-.58.34-.8.4s-.47.1-.76.1c-.38,0-.69-.1-.92-.34s-.35-.56-.36-.98c0-.32.03-.63.12-.92.09-.29.29-.82.62-1.58.58-1.45.67-2.2.26-2.25-.25,0-.57.18-.98.52-.41.34-.8.84-1.18,1.48l-1.78,4.07c-.04.08-.09.11-.16.12l-1.48.04s-.07-.01-.08-.04c-.02-.03-.02-.06-.01-.1l4.72-10.77c.04-.09.1-.13.18-.13l1.47-.04s.07.01.09.04c.02.03.02.06.01.1l-2.06,4.71c.24-.23.49-.4.76-.52.26-.12.47-.19.63-.21.15-.02.35-.04.58-.04.42,0,.76.1,1.01.34s.38.52.39.85c0,.33-.06.69-.2,1.06-.48,1.09-.81,1.86-.98,2.32-.17.46-.26.78-.25.98,0,.22.09.33.27.33.25,0,.63-.29,1.16-.86.52-.57,1.01-1.24,1.47-2.02.02-.04.05-.04.09,0l.4.42s.03.07,0,.11Z"/>
  </g>
  <g>
    <path class="st3" d="M25.34,20.17c-.7.02-1.35-.26-1.93-.84-.58-.57-.88-1.29-.91-2.14-.01-.58.1-1.19.34-1.83.24-.64.61-1.26,1.12-1.87s1.12-1.17,1.83-1.66c.71-.49,1.57-.9,2.58-1.21s2.1-.49,3.27-.51c1.13-.03,2.15.11,3.06.4.92.29,1.65.75,2.21,1.38.56.62.85,1.36.87,2.22.02.9-.25,1.68-.83,2.32-.57.65-1.36,1.11-2.37,1.39.64.27,1.14.66,1.5,1.18s.56,1.12.57,1.82c.01.54-.07,1.06-.26,1.55-.19.49-.46.93-.82,1.34-.36.4-.85.73-1.47.97-.62.24-1.32.38-2.12.39-.77.02-1.39-.12-1.87-.43-.48-.3-.72-.61-.73-.92,0-.1.02-.18.06-.25.04-.07.09-.1.14-.11.02,0,.08.04.16.11.08.07.18.15.3.24.12.09.3.17.54.24.24.07.52.1.83.09.74-.02,1.37-.21,1.88-.57.51-.36.87-.81,1.08-1.34.21-.53.31-1.11.29-1.74-.02-.68-.18-1.21-.5-1.59-.32-.38-.71-.62-1.17-.71-.16.02-.3.03-.43.03-.36,0-.58-.13-.66-.43-.04-.17,0-.26.11-.26,1.2-.03,2.13-.36,2.8-1,.67-.64.99-1.48.96-2.52-.02-.93-.36-1.67-1.02-2.21-.66-.55-1.65-.81-2.99-.77-.94.02-1.82.18-2.63.48-.82.3-1.5.67-2.05,1.13s-1.03.96-1.42,1.51c-.4.55-.68,1.1-.86,1.65-.18.54-.26,1.05-.25,1.52.01.47.13.84.34,1.12.22.27.52.41.9.4.51-.01.96-.24,1.36-.69.4-.45.59-.86.58-1.23,0-.12.08-.14.24-.04.24.12.36.32.37.6.01.59-.27,1.21-.86,1.85-.59.64-1.3.97-2.16.99ZM34.63,12.58c-.42.01-.83.25-1.24.71-.4.46-.77,1.06-1.1,1.78-.33.73-.66,1.53-.99,2.42-.33.89-.68,1.77-1.03,2.65-.36.88-.73,1.69-1.11,2.42-.38.73-.83,1.33-1.32,1.8-.5.46-1.02.7-1.58.72-.48.01-.9-.17-1.27-.55-.36-.38-.55-.75-.56-1.12,0-.15.02-.27.06-.37.04-.1.09-.15.15-.15.01,0,.06.03.13.09.08.06.16.09.24.09.25,0,.48-.04.68-.11.21-.07.46-.22.75-.46.29-.24.59-.57.89-.99.3-.42.65-1,1.04-1.75.4-.75.82-1.65,1.26-2.69.73-1.71,1.46-2.96,2.19-3.74.74-.78,1.5-1.18,2.29-1.2.28,0,.47.09.55.28.05.11.03.17-.05.17Z"/>
    <path class="st3" d="M43.58,17.84c.01.56-.23,1.07-.72,1.54-.5.47-1.06.82-1.68,1.06-.63.24-1.21.38-1.75.41-.04.22-.06.44-.06.65,0,.36.09.65.24.88.15.23.39.33.69.33.22,0,.47-.05.73-.12.26-.07.58-.21.95-.39.37-.19.75-.49,1.16-.9.4-.41.78-.91,1.13-1.48.02-.05.05-.06.09-.02l.38.42s.03.07,0,.11c-.37.63-.75,1.17-1.14,1.62-.39.46-.74.8-1.05,1.03-.31.23-.65.41-1.01.55-.36.14-.65.22-.86.25-.21.03-.46.05-.74.05-.73.02-1.28-.21-1.66-.67-.38-.47-.57-1.07-.59-1.8-.02-.68.17-1.38.54-2.11.38-.73.9-1.34,1.56-1.84.66-.5,1.35-.76,2.05-.77.53-.01.95.08,1.26.28.31.2.47.51.48.93ZM42,17.34c-.4,0-.83.3-1.32.87-.48.57-.85,1.22-1.1,1.96,1.13-.32,1.93-.91,2.41-1.75.29-.49.35-.83.18-1.03-.04-.04-.09-.05-.17-.05Z"/>
    <path class="st3" d="M52.45,20.02s.05.07.02.11c-.44.75-.82,1.36-1.15,1.82-.32.46-.62.79-.9,1.01-.27.21-.51.35-.7.41-.19.06-.42.09-.69.1-.4,0-.73-.12-1-.38-.27-.27-.41-.6-.42-1.01v-.04c-.68.99-1.39,1.5-2.12,1.52-.52.01-.93-.16-1.22-.53-.29-.36-.45-.86-.46-1.47-.01-.48.08-1.01.29-1.58.2-.57.48-1.1.82-1.61.34-.5.77-.92,1.3-1.27.52-.34,1.06-.52,1.62-.53.72-.02,1.18.26,1.39.82.01-.02.05-.11.11-.26.04-.08.1-.11.18-.12l1.48-.04s.07.01.08.04c.02.03.02.06.01.1-.82,1.88-1.33,3.11-1.54,3.69-.2.59-.3,1.03-.29,1.34,0,.22.09.33.27.33.19,0,.5-.26.95-.77.45-.51.94-1.21,1.47-2.11.04-.04.07-.04.09,0,.19.19.32.33.4.42ZM48.68,18.65c.03-.42-.02-.76-.15-1.02-.13-.26-.31-.38-.53-.38-.38,0-.78.28-1.19.81-.41.53-.73,1.14-.98,1.83-.24.69-.36,1.27-.35,1.75,0,.22.06.4.15.53.1.13.21.19.35.19.56-.01,1.28-.81,2.17-2.39.13-.36.3-.8.53-1.31Z"/>
    <path class="st3" d="M55.99,18.97c-.22,0-.34-.06-.34-.2.49-.58.69-1.07.6-1.48-.04-.2-.17-.29-.4-.29-.33,0-.71.23-1.14.67-.42.44-.78.99-1.08,1.65-.3.66-.44,1.28-.43,1.85,0,.36.09.66.25.91s.39.37.69.36c.22,0,.46-.05.71-.14s.55-.23.9-.42.72-.5,1.1-.92c.39-.42.75-.92,1.1-1.49.02-.05.05-.06.09-.02l.38.42s.04.07.02.11c-.37.63-.75,1.17-1.13,1.62s-.73.8-1.02,1.03c-.3.23-.62.41-.96.55-.34.14-.62.22-.82.25-.2.03-.45.05-.73.05-.73.02-1.28-.21-1.66-.67-.38-.47-.57-1.07-.59-1.8-.02-.68.17-1.38.54-2.11.38-.73.9-1.34,1.56-1.84.66-.5,1.35-.76,2.05-.77,1.04-.03,1.57.38,1.59,1.21,0,.36-.13.69-.41.99-.28.3-.57.46-.87.47Z"/>
    <path class="st3" d="M66.03,19.81c-.43.74-.83,1.35-1.19,1.82-.37.47-.7.81-1.02,1.02-.31.21-.58.34-.8.4s-.47.1-.76.1c-.38,0-.69-.1-.92-.34s-.35-.56-.36-.98c0-.32.03-.63.12-.92.09-.29.29-.82.62-1.58.58-1.45.67-2.2.26-2.25-.25,0-.57.18-.98.52-.41.34-.8.84-1.18,1.48l-1.78,4.07c-.04.08-.09.11-.16.12l-1.48.04s-.07-.01-.08-.04c-.02-.03-.02-.06-.01-.1l4.72-10.77c.04-.09.1-.13.18-.13l1.47-.04s.07.01.09.04c.02.03.02.06.01.1l-2.06,4.71c.24-.23.49-.4.76-.52.26-.12.47-.19.63-.21.15-.02.35-.04.58-.04.42,0,.76.1,1.01.34s.38.52.39.85c0,.33-.06.69-.2,1.06-.48,1.09-.81,1.86-.98,2.32-.17.46-.26.78-.25.98,0,.22.09.33.27.33.25,0,.63-.29,1.16-.86.52-.57,1.01-1.24,1.47-2.02.02-.04.05-.04.09,0l.4.42s.03.07,0,.11Z"/>
  </g>
  <path class="st4" d="M22.29,20.2s0,.26-.01.36c-.06.49-.23.86-.5,1.1-.27.24-.73.32-1.38.24s-1.48-.25-2.41-.51c-.93-.26-1.78-.51-2.55-.78-.77-.26-1.64-.49-2.59-.7-.95-.2-1.85-.32-2.7-.35-.84-.03-1.75.08-2.71.35-.96.26-1.88.7-2.75,1.3-.03,0-.03.03-.03.06,0,.03.03.04.07.04,2.35.02,4.07.77,5.15,2.23.05.07.1.07.15.02.39-.43.82-.75,1.31-.97.48-.22.95-.36,1.41-.41.46-.05.99-.05,1.6.02.6.06,1.15.15,1.64.25.49.11,1.08.23,1.76.37.68.14,1.27.24,1.76.3.61.07,1.16.08,1.63.03s.85-.15,1.13-.28c.28-.13.51-.31.69-.53.18-.22.31-.43.39-.64.07-.2.13-.43.16-.67,0-.02,0-.04,0-.07,0-.34-.25-.64-.59-.72-.18-.04-.59-.11-.63-.04Z"/>
  <path class="st2" d="M66.82,16.78c.02.05-.06.25-.07.36-.06.49.02.89.22,1.19.21.3.64.49,1.3.57s1.51.11,2.48.09c.97-.03,1.87-.07,2.69-.14.82-.07,1.72-.09,2.71-.06.98.03,1.89.13,2.73.3.83.17,1.69.5,2.57.98.88.49,1.67,1.13,2.38,1.92.02.02.03.04.01.07-.02.03-.04.04-.08.02-2.31-.54-4.17-.23-5.59.93-.07.05-.12.05-.15-.02-.28-.51-.63-.93-1.05-1.26-.42-.33-.85-.58-1.29-.74-.44-.16-.96-.28-1.57-.37-.61-.09-1.16-.13-1.67-.15-.51-.01-1.11-.03-1.81-.06-.7-.03-1.3-.07-1.8-.13-.62-.08-1.16-.2-1.61-.36s-.8-.35-1.04-.55c-.24-.2-.42-.43-.55-.68-.13-.26-.2-.49-.23-.71-.02-.22-.02-.45,0-.69,0-.02,0-.04.01-.07.09-.33.4-.56.75-.56.19,0,.6.04.63.12Z"/>
  <path class="st4" d="M66.99,16.01c.02.05-.06.25-.07.36-.06.49.02.89.22,1.19.21.3.64.49,1.3.57s1.51.11,2.48.09c.97-.03,1.87-.07,2.69-.14.82-.07,1.72-.09,2.71-.06.98.03,1.89.13,2.73.3.83.17,1.69.5,2.57.98.88.49,1.67,1.13,2.38,1.92.02.02.03.04.01.07-.02.03-.04.04-.08.02-2.31-.54-4.17-.23-5.59.93-.07.05-.12.05-.15-.02-.28-.51-.63-.93-1.05-1.26-.42-.33-.85-.58-1.29-.74-.44-.16-.96-.28-1.57-.37-.61-.09-1.16-.13-1.67-.15-.51-.01-1.11-.03-1.81-.06-.7-.03-1.3-.07-1.8-.13-.62-.08-1.16-.2-1.61-.36s-.8-.35-1.04-.55c-.24-.2-.42-.43-.55-.68-.13-.26-.2-.49-.23-.71-.02-.22-.02-.45,0-.69,0-.02,0-.04.01-.07.09-.33.4-.56.75-.56.19,0,.6.04.63.12Z"/>
  <g>
    <path class="st2" d="M5.68,31.52c.18-.05.53-.02.85-.08.44-.11.56-.14.73-.16.21-.03.39-.07.57-.12.19-.05.38-.09.56-.13.42-.1.62-.16,1.01-.29.12-.05.22-.07.36-.1.3-.07.67-.11,1.23-.2.15-.01.33-.05.49-.09.5-.11,1.02-.27,1.19-.35.17-.07.38-.19.61-.24.06-.01.12-.02.19-.02.08,0,.14.05.15.12.03.16-.06.43.06,1.05.04.22.19.43.25.73.06.29.16.8-.08.85-.24.05-1.55-.67-1.67-.72-.05-.03-.21,0-.39.04-.22.05-.48.1-.64.16-.18.06-.2.25-.14.52.03.15.09.3.14.46.04.1.07.21.09.32.08.38.12.85.21,1.25.09.4.11.76.18,1.08.02.09.04.2.08.29.11.3.14.44.18.63.03.14.06.28.09.42.06.25.09.51.05.69-.02.08-.02.18,0,.25.02.11.09.21.19.32.05.05.09.13.11.24.05.24.06.63.16,1.26.02.19.07.38.11.6.19.87.5,1.9.54,2.09.06.27.34.48.39.71.11.16.45.2.64.35.09.07.19.17.21.26.02.07-.03.14-.12.18-.11.04-.31.09-.51.13-.18.04-.37.08-.55.12-.22.05-.54.18-1.11.31-.43.06-.91.16-1.26.24-.11.03-.15.02-.16,0-.01-.05.15-.25.24-.46.12-.32.37-.58.37-.83,0-.06,0-.11-.02-.18-.03-.13-.09-.28-.13-.48-.03-.11-.05-.22-.06-.35-.06-.52-.2-.93-.23-1.22-.02-.19-.03-.37-.07-.56-.03-.11-.07-.19-.11-.28-.12-.24-.29-.62-.48-1.43-.19-.81-.37-1.8-.36-2.03,0-.08-.02-.17-.04-.28-.05-.22-.13-.47-.27-.79-.06-.18-.14-.42-.21-.7-.12-.49-.22-1.09-.31-1.57-.03-.2-.07-.37-.1-.49-.08-.33-.16-.4-.35-.4-.21.01-.35.03-.95.17-.48.12-.55.5-.62.65-.07.15-.36.57-.42.76-.02.08-.1.12-.15.14-.14.04-.3-.04-.39-.36-.07-.27-.19-.64-.25-.89-.08-.31-.04-.24-.08-.65-.02-.24-.06-.39-.16-.8-.02-.07.04-.11.12-.13Z"/>
    <path class="st2" d="M15.71,29.38c.26-.05.64-.06.82-.09.32-.06.74-.17,1.21-.25.49-.08,1.09-.22,1.74-.33.88-.14,1.08-.15,1.1-.04.02.11-.19.39-.4.66-.15.23-.16.19-.16.44,0,.04,0,.08,0,.11,0,.08,0,.11,0,.17.02.26.19.4.31.81.14.5.28.5.5,1.12.2.63.74,1.52.92,2,.15.48.82,1.83.91,2.19.15.35.16.56.43.93.29.37.26.81.47,1.24.24.43.58,1.46.7,1.78.14.32.48.66.75.96.24.23.61.54.62.68,0,.04,0,.08-.06.08-.27.07-1.09.19-1.76.32-.28.04-.58.07-.86.11-.13.02-.24.04-.37.08-.13.04-.25.08-.35.09-.19.03-.3.01-.3-.07,0-.02,0-.06.03-.08.07-.16.58-.94.58-1.05-.02-.11-.1-.38-.29-.88-.19-.5-.57-1.3-.74-1.61-.09-.19-.27-.33-.44-.31-.08.01-.15.06-.21.15-.19.28-.62.53-.8.72-.16.18-.74.13-.79.4-.11.28-.52.47-1.01.9-.48.43-.61.36-.6.73,0,.21,0,.32.02.43.02.09.05.16.1.24.07.18.15.39.5.64.18.14.34.26.33.34,0,.04-.01.04-.05.06-.05.03-.18.05-.33.08-.3.05-.74.12-1.11.19-.42.08-.95.24-1.32.32-.09.02-.17.02-.24.03-.21.02-.38.02-.38-.07,0-.04.01-.12.07-.2.19-.3.36-.78.53-1.08.12-.29-.07-.72.03-1.09.08-.36.03-.93.02-1.78,0-.85.23-2.49.22-2.82,0-.34-.04-1.24.1-1.49.17-.26.09-1.55.09-1.55.21-2.72.24-2.82.22-2.91-.05-.26-.17-.5-.38-.61-.21-.13-.64-.41-.69-.57-.01-.07.1-.11.27-.14ZM18.15,33.73c-.05.61-.05.88-.2,1.18-.13.31-.04,1.03-.11,1.49-.09.47-.07.96-.07,1.6.03.58.06.99.07.93.02-.08.76-.46,1.04-.77.24-.31,1.19-1,1.55-1.21.14-.08.18-.22.16-.38-.02-.26-.29-.78-.48-1.22-.36-.71-.26-.97-.56-1.21-.24-.24-.4-.57-.46-.92-.1-.34-.18-.69-.26-.8-.1-.11-.38-.67-.5-.65-.12.02-.12,1.34-.19,1.96Z"/>
    <path class="st2" d="M29.82,31.42c0-.07-.03-.15-.04-.22-.02-.26.02-.43-.03-.91-.05-.5-.13-.45-.17-.95-.03-.31-.28-.35-.66-.31-.43.04-.99.12-1.34.16-.34.04-.51.21-.59.59-.02.15-.03.3,0,.47.03.24.1.49.15.8.03.24-.06.38-.04.85,0,.08.02.16.03.24.04.37.13.6.22,1.08.06.55.18,1.21.23,1.71.02.17.02.35-.01.58-.03.21-.04.3-.03.4.01.13.06.2.08.36,0,.04,0,.09.01.13,0,.09,0,.21.02.32.04.33.12.71.17,1.14.05.46.07.8.11,1.09.06.53.14.92.27.98.12.04.29.06.46.04.19-.02.37-.1.69-.13.25-.03.55-.04.79-.06.36-.04.67-.16.67-.53,0-.37-.05-.33-.1-.87-.05-.54-.04-.82-.02-1.02.02-.21.57-.5.86-.75.29-.25.41-.46.76-.49.21-.02.26.11.28.29,0,.11,0,.26.01.37.02.3-.02.69.02,1.21.04.52.1.79.18,1.29.04.54-.15.74-.29,1.12-.15.42-.57.63-.78.79-.09.08-.31.12-.51.14-.26.02-.53.01-.71.01-.21.02-.53.2-.94.24-.38,0-.81-.03-1.61.07-.8.09-1.18.1-1.49-.29-.32-.39-.29-1.25-.41-1.54-.03-.09-.06-.18-.08-.29-.05-.35.06-.72.01-1.12-.02-.13-.05-.26-.13-.4-.16-.35-.32-1.57-.42-2.32-.06-.5-.09-1.02-.16-1.53-.07-.52-.1-.76-.02-1.23.03-.12.01-.23,0-.32-.04-.29-.19-.54-.29-1.16-.05-.22-.07-.42-.1-.61-.06-.5-.08-.91-.09-1.52-.03-.84.57-1.18.9-1.37.18-.1.46-.17.72-.2.2-.02.41-.03.68-.04.27-.03.54-.14.95-.22.64-.07,1.2-.05,2.01-.12.96-.09,1.07.2,1.25.37.18.17.27.74.29,1.06.03.31.1.22.17,1.05.04.46.06.76-.09.92-.22.24-.61.42-.88.73-.22.24-.49.4-.64.41-.16.02-.25-.09-.33-.49Z"/>
    <path class="st2" d="M33.3,28.62c.03-.74.23-1.12.69-1.33.16-.07.62-.25,1.32-.29.7-.04,1.54-.05,1.85-.07.27-.01.55-.03.82-.04.1,0,.22-.02.35-.03.18,0,.39,0,.58,0,.33.02,1.79.16,1.82,1.29.02.82.16,1.54.17,1.98,0,.16-.01.28-.05.35-.11.22-.15.44-.14.65.03.35.1.69.1.98,0,.07.08.2.09.36,0,.34.04.95.06,1.49,0,.09-.02.18-.01.26-.04.65-.06,1.34-.12,1.54-.02.03-.02.07-.02.1,0,.18.1.35.11.63,0,.43-.47,1.27-1.25,1.3-1.24.03-1.4.03-1.57.03-.11,0-.25.03-.4.06-.09.02-.17.04-.25.04-.71.03-1.18.09-2,.14-.23.01-.4.01-.52,0-.31-.04-.99-.24-1.06-1.18-.05-.69-.16-1.09-.18-1.35-.02-.25.12-.46.1-.76-.01-.15-.08-.29-.1-.51-.02-.25.02-.6,0-.94,0-.09-.03-.17-.04-.26-.1-.51-.14-.56-.17-.94-.03-.38.03-1.19.02-1.43-.02-.23-.19-.4-.21-.71-.02-.31.01-1.19.02-1.41ZM35.51,30.11c.03.48.13.83.16,1.33.02.4-.05.53-.04.68.01.19.16.34.17.56.01.21-.08.37-.12.59-.02.06-.01.12,0,.18.01.25.17.49.23,1.26.04.44.07.82.08,1.13,0,.13.01.25.02.38.02.38.33.32.66.4.14.04.27.04.43.04.23-.01.52-.07.84-.11.56-.08.67-.04.76-.22.09-.18.06-.53.07-1.16.01-.63-.01-1.34,0-1.69-.01-.34-.04-.5-.04-.64,0-.19.14-.36.14-.58,0-.07-.03-.18-.09-.3-.11-.27-.15-.7-.16-1.14,0-.13,0-.25-.01-.38-.01-.37-.01-.82-.03-1.17,0-.18-.01-.34-.04-.45-.07-.33-.47-.5-.81-.49-.28.01-.79.09-1.1.13-.18.02-.39.03-.55.04-.12,0-.24.01-.37.02-.12.02-.25.25-.2,1.07.01.18.02.35.01.54Z"/>
    <path class="st2" d="M46.85,26.66c.19,0,.51.12.84.14.45,0,.58.01.74.04.2.02.39.03.57.03.19,0,.38.01.58.02.43.01.64,0,1.05-.02.12-.01.23,0,.37,0,.31.01.68.07,1.23.13.14.03.33.03.49.04.51.03,1.05,0,1.24-.02.19-.03.42-.09.64-.07.06,0,.12,0,.18.03.08.02.12.08.11.16-.01.17-.17.4-.21,1.03-.01.22.07.47.05.77-.02.3-.05.81-.3.8-.24-.02-1.32-1.05-1.42-1.13-.04-.04-.2-.05-.38-.06-.22-.01-.49-.02-.65-.01-.18,0-.25.19-.27.47,0,.15,0,.32.02.48.01.11,0,.22,0,.33-.02.39-.1.85-.12,1.26-.02.41-.09.76-.11,1.09,0,.09,0,.2,0,.3.03.32.02.47,0,.65,0,.14-.01.28-.02.43-.01.26-.04.52-.13.68-.04.07-.07.16-.07.24,0,.11.03.22.1.36.04.06.05.15.05.26-.01.24-.11.63-.17,1.26-.03.18-.04.39-.05.61-.04.89-.01,1.97-.02,2.15-.01.28.2.55.19.79.07.19.38.32.52.51.07.1.14.21.13.3,0,.07-.06.13-.16.14-.11.01-.32,0-.52,0-.19,0-.37-.02-.56-.03-.22,0-.56.03-1.14.01-.43-.05-.92-.09-1.27-.1-.11,0-.15-.02-.15-.04,0-.06.21-.2.35-.38.2-.27.5-.47.57-.71.02-.05.02-.11.02-.18,0-.13,0-.3,0-.5,0-.11,0-.22.03-.35.07-.52.05-.95.1-1.24.03-.18.07-.37.08-.55,0-.11-.01-.2-.03-.3-.05-.26-.11-.67-.09-1.51.03-.83.12-1.83.18-2.06.02-.07.03-.17.03-.28,0-.22,0-.48-.05-.84-.01-.19-.03-.45-.02-.72.02-.5.08-1.11.11-1.59.03-.2.03-.37.04-.5.01-.33-.05-.43-.23-.47-.2-.04-.34-.07-.95-.08-.49-.01-.66.34-.76.47-.1.13-.49.45-.6.62-.04.07-.12.09-.18.09-.14,0-.28-.12-.28-.45,0-.28-.01-.67,0-.93,0-.32.02-.24.09-.65.04-.24.05-.39.05-.82,0-.07.06-.09.15-.09Z"/>
    <path class="st2" d="M55.71,29.01c.15-.92.41-1.37.89-1.55.17-.06.66-.21,1.35-.15.7.06,1.53.18,1.84.21.27.03.55.05.82.08.1.01.23,0,.35.02.18.02.39.06.57.1.32.07,1.75.48,1.57,1.9-.12,1.03-.11,1.95-.18,2.5-.02.2-.06.35-.11.44-.15.26-.22.53-.26.79-.03.44-.03.88-.07,1.24-.01.09.05.27.02.47-.05.42-.13,1.2-.21,1.88-.01.11-.05.22-.06.33-.16.8-.3,1.67-.39,1.92-.02.03-.03.09-.03.13-.03.22.04.45,0,.8-.07.53-.68,1.53-1.44,1.44-1.21-.15-1.36-.18-1.53-.2-.11-.01-.24,0-.4.02-.1,0-.17.02-.25.01-.69-.07-1.16-.07-1.96-.14-.22-.02-.39-.05-.5-.08-.29-.1-.92-.46-.84-1.65.06-.87.02-1.39.05-1.73.02-.31.19-.56.22-.93.01-.19-.03-.37-.01-.65.02-.31.11-.76.14-1.18,0-.11,0-.22,0-.33-.01-.65-.05-.73-.01-1.21.03-.48.23-1.49.25-1.79.02-.3-.12-.53-.09-.92.03-.39.21-1.49.25-1.77ZM57.64,31.23c-.05.61-.01,1.06-.07,1.69-.04.5-.14.66-.15.84-.02.24.1.46.07.73-.02.26-.14.45-.22.73-.03.07-.03.15-.04.22-.03.31.08.64.02,1.62-.03.56-.07,1.04-.1,1.43-.01.16-.03.32-.04.48-.04.48.27.45.58.61.13.07.26.1.41.11.23.02.52,0,.84-.01.55-.02.66.05.78-.16.12-.21.15-.66.27-1.45.12-.79.22-1.68.28-2.12.04-.42.05-.63.07-.81.03-.24.2-.43.23-.7.01-.09,0-.22-.04-.4-.06-.36-.02-.9.03-1.45.02-.16.03-.32.05-.48.05-.46.13-1.03.18-1.47.02-.22.05-.42.04-.57-.01-.43-.38-.69-.72-.75-.28-.03-.8,0-1.1-.01-.18,0-.39-.02-.55-.03-.12-.01-.24-.02-.36-.03-.12,0-.29.27-.38,1.31-.02.22-.04.44-.08.68Z"/>
    <path class="st2" d="M64.68,28.05c.22.03.53.11.69.13.14.02.25,0,.41.02.1.01.2.05.36.11.1.03.24.07.38.09.47.07,1.15.07,1.44.12.27.04.44.11.42.23,0,.06-.04.11-.13.19-.29.26-.6.55-.71.7-.08.1-.14.41-.2.8-.03.18-.06.39-.07.59-.01.09-.01.22-.03.37-.08.57-.28,1.48-.37,2.07-.03.22-.02.43-.06.67-.04.29-.2.52-.24.83-.04.24.01.47-.04.82-.02.14-.04.28-.06.42-.03.2-.08.31-.1.42-.02.15.04.29,0,.54-.02.1-.03.21-.05.31-.02.15-.05.31-.05.5-.07.48-.14.95-.21,1.43-.04.29-.06.55-.07.72,0,.47.25.62.63.7.07.06.15.12.22.18.21.03.34-.12.59-.08.09.02.22.04.52.1.34.06.56.02.71-.11.18-.14.17-.57.28-.73.02-.03.03-.07.04-.11.03-.16,0-.43.06-.82.01-.07.05-.16.06-.25.07-.31.15-.67.21-1,.06-.33.09-.64.1-.81.04-.18.07-.36.11-.55.01-.07.22-.11.24-.24.03-.18-.18-.35-.15-.52.09-.51.24-1.05.36-1.39.05-.16.09-.29.11-.4.04-.22.02-.37-.04-.61-.02-.1,0-.24.03-.45.15-.86.29-1.72.44-2.58.03-.2.03-.52-.02-.74-.05-.22-.32-.43-.38-.74,0-.02-.01-.06,0-.08.02-.11.16-.1.31-.08.14.02.26.08.26.08.56.09,1.12.19,1.69.29.28.05.53.06.74.1.12.02.24.06.33.12.17.11.28.2.26.29,0,.04-.03.07-.08.1-.19.12-.72.73-.84.83-.1.08-.17.25-.21.45,0,.04-.02.09-.02.13-.01.19-.02.47-.07.7-.04.24-.16.44-.22.75-.03.18-.05.41-.07.7,0,.11-.02.22-.04.35-.09.51-.29,1.15-.37,1.56-.04.22-.02.43-.07.7-.04.22-.11.47-.16.75-.03.16-.11.36-.18.67-.04.24-.04.56-.05.73-.01.17-.04.52-.1.85-.17.94-.35,1.89-.52,2.83-.18.95-1.53,1.02-1.9.96-1.19-.2-1.35-.22-1.45-.22-.19-.01-.43-.01-.66-.05-.09-.01-.19-.03-.28-.06-.16-.06-.46-.11-.83-.16-.28-.04-.57-.08-.85-.12-.8-.11-1.09-.92-.98-1.77.05-.4.15-1.53.19-2.11.01-.11.02-.28.04-.46.1-.74.31-1.87.34-2.13.02-.18.05-.69.11-1.13.04-.28.09-.53.15-.67.06-.16.1-.29.11-.4.04-.29-.04-.59.02-1.06.06-.44.17-.99.25-1.45,0-.02,0-.05,0-.07.07-.37.13-.69.17-.95.03-.24.04-.43.03-.56-.02-.3-.11-.58-.29-.77-.18-.19-.44-.43-.42-.56,0-.06.11-.04.23-.03Z"/>
    <path class="st2" d="M79.24,40.22c.02.25.17.94.12,1.31-.05.37.04.97.17,1.38.13.42.14,1.01.32,1.4.19.41.36.67.33.79,0,.04-.01.05-.05.04-.08,0-.28-.05-.53-.12-.35-.09-.79-.2-1.11-.3-.21-.05-.43-.1-.64-.15-.2-.05-.47-.07-.65-.12-.13-.03-.22-.07-.2-.12.05-.2.29-.5.34-.72.11-.47-.13-1.71-.11-1.82.03-.14-.09-.55-.16-.86-.12-.52-.14-1.5-.14-1.5-.52.07-.78.09-1.24.32-.27.13-.39.16-.46.47-.02.07-.01.15-.03.24-.02.2-.06.37-.09.53-.07.33-.15.63-.25,1.07-.14.65-.03.87.16,1.23.19.36.3.73.3.75-.61-.13-1.17-.37-1.82-.5-.06-.01-.13,0-.23-.03-.41-.05-.76-.06-1.01-.11-.09-.02-.17-.03-.22-.06-.05-.03-.07-.05-.06-.09.02-.13.29-.3.46-.48.22-.22.39-.53.56-1.16.02-.1.04-.19.06-.29.09-.44.08-.68.21-1.32.09-.47.15-.95.22-1.32.06-.31.22-.58.28-.93.05-.27.07-.57.13-.94.09-.32.18-.78.27-1.27.25-1.37.32-1.92.44-2.52.12-.61.24-1.21.36-1.82,0,0,.06-.29-.11-.59-.17-.3-.37-.81-.34-.92.01-.07.16-.06.4-.02.09.02.18.03.26.05.22.04.57.1.89.16.24.05.51.1.68.2.11.06.28.1.44.13.44.09.96.13,1.19.18.3.07.84.22,1.43.42.1.02.18.06.28.08.5.12.97.11,1.33.2.42.1,1.26.79,1.06,1.58-.14.54-.25.93-.35,1.29-.05.18-.09.36-.12.55-.05.37-.09.7-.16.97-.04.14-.06.25-.13.35-.07.1-.12.24-.15.36-.04.14-.05.28-.08.4-.02.09-.13.6-.15.67-.09.38-.21.52-.54.84-.33.32-1.72.73-1.74.84,0,0,.12.52.18,1.25ZM76.93,37.71c.32-.16.64-.26,1-.4.36-.15.72-.12.99-.34.28-.22.48-.74.58-1.18.09-.38.19-.97.4-1.85.07-.31.04-.33.13-.71.11-.45-.24-.74-.56-.82-.37-.08-.73-.17-1.1-.25-.32-.05-.85-.13-1.07-.18-.18-.04-.36.62-.46,1.06-.1.45-.18.63-.27,1.08-.06.27-.14.48-.2.74-.04.18-.05.35-.04.58,0,.17-.01.34-.04.48-.07.33-.21.62-.32,1.03-.07.25-.12.45-.15.59-.05.22-.05.35.02.37.13.03.73-.01,1.09-.2Z"/>
    <path class="st2" d="M41.09,40.31c-2.24.05-4.48.16-6.72.32-.04-.54-.08-1.09-.12-1.63,2.26-.16,4.53-.27,6.8-.32.01.55.03,1.09.04,1.64Z"/>
  </g>
  <path class="st0" d="M18.68,34.21c-.13.31-.04,1.03-.11,1.49-.08.4-.07.82-.07,1.33.66-.15,1.34-.29,2.03-.43-.05-.27-.29-.76-.47-1.17-.36-.71-.26-.97-.56-1.21-.24-.24-.4-.57-.46-.92-.05-.18-.1-.36-.15-.51,0,.09-.01.17-.02.24-.05.61-.05.88-.2,1.18Z"/>
  <path class="st0" d="M60.2,36.03c.04-.42.05-.63.07-.81.02-.18.12-.33.18-.5-.82-.09-1.63-.18-2.44-.25,0,.02-.01.03-.02.05-.03.07-.03.15-.04.22-.03.31.08.64.02,1.62-.03.56-.07,1.04-.1,1.43-.01.16-.03.32-.04.48-.04.48.27.45.58.61.13.07.26.1.41.11.23.02.52,0,.84-.01.05,0,.1,0,.15,0,.03-.22.07-.49.12-.82.12-.79.22-1.68.28-2.12Z"/>
  <path class="st0" d="M20.53,36.6c-.7.14-1.37.29-2.03.43,0,.09,0,.17,0,.26.03.58.06.99.07.93.02-.08.76-.46,1.04-.77.15-.19.55-.51.93-.79,0,0,0-.01,0-.02,0-.02,0-.03,0-.05Z"/>
  <path class="st0" d="M36.22,28.86c.01.18.02.35.01.54.03.48.13.83.16,1.33.02.4-.05.53-.04.68.01.19.16.34.17.56.01.21-.08.37-.12.59-.02.06-.01.12,0,.18.01.25.17.49.23,1.26.01.11.02.22.03.32.68-.05,1.37-.1,2.06-.15,0-.25,0-.48,0-.63-.01-.34-.04-.5-.04-.64,0-.19.14-.36.14-.58,0-.07-.03-.18-.09-.3-.11-.27-.15-.7-.16-1.14,0-.13,0-.25-.01-.38-.01-.37-.01-.82-.03-1.17,0-.18-.01-.34-.04-.45-.07-.33-.47-.5-.81-.49-.28.01-.79.09-1.1.13-.11.01-.23.02-.34.03,0,.1,0,.2,0,.32Z"/>
  <path class="st0" d="M77.3,33.4c-.06.27-.14.48-.2.74-.04.18-.05.35-.04.58,0,.17-.01.34-.04.48-.07.33-.21.62-.32,1.03-.07.25-.12.45-.15.6-.05.22-.05.35.02.37.13.03.73-.01,1.09-.2.32-.16.64-.26,1-.4.21-.09.42-.11.61-.16.08-.19.14-.39.19-.57.09-.38.19-.97.4-1.85.07-.31.04-.33.13-.71.11-.45-.24-.74-.56-.82-.37-.08-.73-.17-1.1-.25-.2-.03-.46-.07-.7-.11-.02.07-.03.14-.05.21-.1.45-.18.63-.27,1.08Z"/>
  <path class="st0" d="M67.09,36.44c-.02.1-.03.21-.05.31-.02.15-.05.31-.05.5-.07.48-.14.95-.21,1.43-.04.29-.06.55-.07.72,0,.47.25.62.63.7.07.06.15.12.22.18.21.03.34-.12.59-.08.09.02.22.04.52.1.06.01.12.01.17.02.01-.03.02-.05.03-.07.02-.03.03-.07.04-.11.03-.16,0-.43.06-.82.01-.07.05-.16.06-.25.07-.31.15-.67.21-1s.09-.64.1-.81c.04-.18.07-.36.11-.55.01-.07.22-.11.24-.24.02-.12-.06-.23-.11-.34-.81-.16-1.62-.31-2.43-.45-.02.08-.04.14-.05.2-.02.15.04.29,0,.54Z"/>
  <path class="st0" d="M38.71,34.18c-.69.04-1.38.09-2.06.15.03.31.04.58.05.81,0,.13.01.25.02.38.02.38.33.32.66.4.14.04.27.04.43.04.23-.01.52-.07.84-.11.02,0,.03,0,.05,0,0-.16,0-.36,0-.6,0-.35,0-.73,0-1.06Z"/>
  <path class="st0" d="M58.36,30.52c-.05.61-.01,1.06-.07,1.69-.04.5-.14.66-.15.84-.02.24.1.46.07.73-.02.24-.12.43-.2.67.81.08,1.62.16,2.44.25.02-.06.04-.13.05-.2.01-.09,0-.22-.04-.4-.06-.36-.02-.9.03-1.45.02-.16.03-.32.05-.48.05-.46.13-1.03.18-1.47.02-.22.05-.42.04-.57-.01-.43-.38-.69-.72-.75-.28-.03-.8,0-1.1-.01-.15,0-.31-.01-.45-.02-.02.14-.04.3-.06.49-.02.22-.04.44-.08.68Z"/>
  <path class="st2" d="M12.53,31.1c-.22.05-.48.1-.64.16-.18.06-.2.25-.14.52,0,.03.02.06.03.09.16-.04.31-.06.35-.04.12.05,1.43.76,1.67.72.24-.05.14-.56.08-.85-.01-.07-.03-.14-.06-.2-.41-.19-.84-.42-.91-.45-.05-.03-.21,0-.39.04Z"/>
  <path class="st2" d="M10.94,38.18c-.19-.81-.37-1.8-.36-2.03,0-.08-.02-.17-.04-.28-.05-.22-.13-.47-.27-.79-.06-.18-.14-.42-.21-.7-.12-.49-.22-1.09-.31-1.57-.03-.2-.07-.37-.1-.49-.08-.33-.16-.4-.35-.4-.21.01-.35.03-.95.17-.48.12-.55.5-.62.65-.01.03-.03.07-.06.11.51-.12.65-.14.84-.15.19,0,.27.07.35.4.03.13.07.29.1.49.09.47.19,1.08.31,1.57.06.27.14.52.21.7.14.33.22.58.27.79.03.11.05.2.04.28,0,.23.17,1.22.36,2.03.02.07.03.14.05.21.3-.09.61-.18.93-.27-.06-.19-.13-.43-.2-.72Z"/>
  <path class="st2" d="M16.83,35.95c0-.34-.04-1.24.1-1.49.17-.26.09-1.55.09-1.55.21-2.72.24-2.82.22-2.91-.05-.26-.17-.5-.38-.61-.04-.02-.08-.05-.12-.08-.09.02-.18.04-.26.05-.18.03-.56.05-.82.09-.16.03-.28.07-.27.14.05.16.48.44.69.57.21.11.34.35.38.61.02.09-.01.19-.22,2.91,0,0,.08,1.29-.09,1.55-.13.25-.1,1.15-.1,1.49,0,.13-.03.47-.07.89.24-.06.48-.11.72-.17.06-.66.14-1.3.14-1.5Z"/>
  <path class="st2" d="M21.33,35.86c-.02-.26-.29-.78-.48-1.22-.36-.71-.26-.97-.56-1.21-.24-.24-.4-.57-.46-.92-.1-.34-.18-.69-.26-.8-.1-.11-.38-.67-.5-.65-.11.02-.12,1.06-.17,1.72.05.15.09.33.15.51.06.35.22.68.46.92.3.23.2.49.56,1.21.18.41.42.9.47,1.17.05-.01.1-.02.15-.03.19-.14.37-.25.48-.32.14-.08.18-.22.16-.38Z"/>
  <path class="st3" d="M20.54,36.65s0,.01,0,.02c.05-.04.1-.07.14-.1-.05.01-.1.02-.15.03,0,.02,0,.04,0,.05Z"/>
  <path class="st2" d="M30.87,31.2c-.16.02-.25-.09-.33-.49,0-.07-.03-.15-.04-.22-.02-.26.02-.43-.03-.91-.05-.5-.13-.45-.17-.95-.03-.31-.28-.35-.66-.31-.43.04-.99.12-1.34.16-.34.04-.51.21-.59.59,0,.06-.01.11-.01.17.34-.04.8-.1,1.16-.14.39-.04.63,0,.66.31.05.5.13.45.17.95.05.48,0,.65.03.91,0,.07.03.15.04.22.08.4.17.51.33.49s.43-.17.64-.41c.27-.3.66-.49.88-.73.05-.06.08-.14.1-.24-.07.06-.14.12-.2.18-.22.24-.49.4-.64.41Z"/>
  <path class="st2" d="M26.16,34.97c-.06-.5-.09-1.02-.16-1.53-.07-.52-.1-.76-.02-1.23.03-.12.01-.23,0-.32-.04-.29-.19-.54-.29-1.16-.05-.22-.07-.42-.1-.61-.06-.5-.08-.91-.09-1.52,0-.22.03-.41.1-.57-.33.19-.91.53-.88,1.35.02.62.03,1.03.09,1.52.02.18.05.39.1.61.1.62.25.87.29,1.16.01.09.03.2,0,.32-.08.48-.05.72.02,1.23.06.5.09,1,.15,1.48.29-.05.58-.09.87-.14-.03-.21-.05-.41-.08-.59Z"/>
  <path class="st2" d="M38.71,35.23c0,.24,0,.43,0,.6.51-.07.63-.04.72-.22.09-.18.06-.53.07-1.16,0-.11,0-.21,0-.32-.26.01-.53.03-.79.05,0,.33,0,.7,0,1.06Z"/>
  <path class="st2" d="M39.49,32.76c-.01-.34-.04-.5-.04-.64,0-.19.14-.36.14-.58,0-.07-.03-.18-.09-.3-.11-.27-.15-.7-.16-1.14,0-.13,0-.25-.01-.38-.01-.37-.01-.82-.03-1.17,0-.18-.01-.34-.04-.45-.07-.33-.47-.5-.81-.49-.28.01-.79.09-1.1.13-.18.02-.39.03-.55.04-.12,0-.24.01-.37.02-.1.02-.21.19-.21.75.11,0,.23-.02.34-.03.3-.03.81-.11,1.1-.13.35,0,.74.16.81.49.03.12.03.28.04.45.01.35.01.81.03,1.17,0,.13,0,.25.01.38.02.44.05.86.16,1.14.06.13.09.23.09.3,0,.22-.14.39-.14.58,0,.15.03.31.04.64,0,.15,0,.38,0,.63.26-.02.52-.03.79-.05,0-.54-.02-1.07-.01-1.37Z"/>
  <path class="st2" d="M34.51,34.11c-.01-.15-.08-.29-.1-.51-.02-.25.02-.6,0-.94,0-.09-.03-.17-.04-.26-.1-.51-.14-.56-.17-.94-.03-.38.03-1.19.02-1.43-.02-.23-.19-.4-.21-.71-.02-.31.01-1.19.02-1.41,0-.24.04-.44.09-.62-.08.03-.14.05-.18.07-.46.21-.66.59-.69,1.33,0,.22-.04,1.11-.02,1.41.02.31.2.47.21.71.02.23-.04,1.05-.02,1.43.03.38.07.44.17.94,0,.09.03.17.04.26.02.34,0,.69,0,.94,0,.08.02.14.03.21.26-.03.53-.05.79-.08.03-.12.06-.25.05-.4Z"/>
  <path class="st2" d="M50.19,32.19c.02-.07.03-.17.03-.28,0-.22,0-.48-.05-.84-.01-.19-.03-.45-.02-.72.02-.5.08-1.11.11-1.59.03-.2.03-.37.04-.5.01-.33-.05-.43-.23-.47-.2-.04-.34-.07-.95-.08-.49-.01-.66.34-.76.47-.07.08-.26.25-.41.41.1-.06.23-.09.39-.09.61.02.75.04.95.08.18.04.24.14.23.47,0,.13,0,.3-.04.5-.04.48-.1,1.09-.11,1.59,0,.28,0,.54.02.72.05.35.06.62.05.84,0,.11,0,.2-.03.28-.04.13-.08.52-.12.98.24,0,.49.01.73.02.04-.77.11-1.58.17-1.78Z"/>
  <path class="st2" d="M53.36,27.83c-.22-.01-.49-.02-.65-.01-.18,0-.25.19-.27.47,0,.1,0,.21,0,.32.04,0,.09,0,.13,0,.18,0,.35.02.38.06.1.08,1.18,1.11,1.42,1.13.24.02.28-.5.3-.8,0-.11,0-.21-.01-.3-.39-.31-.85-.75-.92-.81-.04-.04-.2-.05-.38-.06Z"/>
  <path class="st2" d="M47.3,28.43c0-.28-.01-.67,0-.93,0-.32.02-.24.09-.65,0,0,0,0,0-.01-.24-.04-.45-.11-.59-.11-.08,0-.14.02-.15.09,0,.43,0,.58-.05.82-.07.41-.09.33-.09.65,0,.26.01.65,0,.93,0,.33.14.45.28.45.06,0,.14-.02.18-.09.1-.17.49-.49.6-.62.02-.02.04-.05.06-.08-.02,0-.04.01-.06.01-.14,0-.28-.12-.28-.45Z"/>
  <path class="st2" d="M61.29,33.73c.01-.09,0-.22-.04-.4-.06-.36-.02-.9.03-1.45.02-.16.03-.32.05-.48.05-.46.13-1.03.18-1.47.02-.22.05-.42.04-.57-.01-.43-.38-.69-.72-.75-.28-.03-.8,0-1.1-.01-.18,0-.39-.02-.55-.03-.12-.01-.24-.02-.36-.03-.1,0-.23.19-.32.82.14.01.3.02.45.02.31,0,.82-.01,1.1.01.34.05.7.32.72.75,0,.15-.02.35-.04.57-.05.44-.13,1.01-.18,1.47-.02.16-.03.32-.05.48-.06.55-.1,1.09-.03,1.45.04.17.05.3.04.4,0,.07-.03.14-.05.2.19.02.38.05.57.07,0-.14.02-.25.03-.35.03-.24.2-.43.23-.7Z"/>
  <path class="st2" d="M56.04,33.99c-.01-.65-.05-.73-.01-1.21.03-.48.23-1.49.25-1.79.02-.3-.12-.53-.09-.92.03-.39.21-1.49.25-1.77.05-.32.12-.59.2-.8-.04.01-.07.02-.09.03-.49.19-.75.63-.89,1.55-.04.28-.22,1.38-.25,1.77-.03.39.12.62.09.92-.02.3-.21,1.31-.25,1.79-.02.3-.02.45,0,.67.26.02.53.04.8.06,0-.1,0-.2,0-.3Z"/>
  <path class="st2" d="M65.03,34.99c.02-.18.05-.69.11-1.13.04-.28.09-.53.15-.67.06-.16.1-.29.11-.4.04-.29-.04-.59.02-1.06.06-.44.17-.99.25-1.45,0-.02,0-.05,0-.07.07-.37.13-.69.17-.95.03-.24.04-.43.03-.56-.01-.14-.04-.28-.08-.41-.03,0-.06-.02-.08-.02-.16-.02-.27,0-.41-.02-.16-.02-.46-.1-.69-.13-.12-.02-.22-.03-.23.03-.02.13.24.37.42.56.18.19.27.47.29.77,0,.13,0,.32-.03.56-.03.26-.1.59-.17.95,0,.02,0,.05,0,.07-.08.46-.19,1-.25,1.45-.06.48.02.77-.02,1.06-.01.11-.05.24-.11.4-.06.14-.11.4-.15.67-.03.19-.05.4-.06.58.23.03.45.07.68.11.03-.16.05-.28.06-.34Z"/>
  <path class="st3" d="M73.47,29.94s0,0,0,0c.02-.02.05-.04.07-.05.04-.03.07-.06.08-.09-.06.06-.11.11-.14.13Z"/>
  <path class="st2" d="M70.24,35.94c.01-.07.22-.11.24-.24.03-.18-.18-.35-.15-.52.09-.51.24-1.05.36-1.39.05-.16.09-.29.11-.4.04-.22.02-.37-.04-.61-.02-.1,0-.24.03-.45.15-.86.29-1.72.44-2.58.03-.18.03-.45,0-.67-.2-.04-.41-.07-.61-.11,0,0-.12-.06-.26-.08-.14-.02-.29-.03-.31.08,0,.02.01.06,0,.08.05.31.33.53.38.74.05.22.05.54.02.74-.15.86-.29,1.72-.44,2.58-.03.2-.06.35-.03.45.06.24.08.39.04.61-.02.11-.06.23-.11.4-.12.34-.27.88-.36,1.39,0,.06.01.12.04.18.2.04.39.08.59.12.02-.11.04-.21.07-.32Z"/>
  <path class="st3" d="M68.26,28.94s.04-.04.05-.06c-.01.01-.03.03-.04.04,0,0,0,.02-.01.02Z"/>
  <path class="st2" d="M74.49,37.07c.05-.27.07-.57.13-.94.09-.32.18-.78.27-1.27.25-1.37.32-1.92.44-2.52.12-.61.24-1.21.36-1.82,0,0,.06-.29-.11-.59,0,0,0-.01-.01-.02-.17-.03-.33-.06-.45-.08-.09-.02-.18-.03-.26-.05-.24-.05-.39-.06-.4.02-.02.11.17.62.34.92.17.3.11.59.11.59-.12.61-.24,1.21-.36,1.82-.12.6-.19,1.15-.44,2.52-.1.49-.19.95-.27,1.27,0,.06-.01.11-.02.16.21.05.42.1.63.16.01-.05.03-.1.04-.16Z"/>
  <path class="st2" d="M79.41,32.47c.32.07.67.37.56.82-.09.38-.05.41-.13.71-.21.89-.31,1.47-.4,1.85-.04.19-.11.39-.19.57.14-.04.27-.09.38-.18.28-.22.48-.74.58-1.18.09-.38.19-.97.4-1.85.07-.31.04-.33.13-.71.11-.45-.24-.74-.56-.82-.37-.08-.73-.17-1.1-.25-.32-.05-.85-.13-1.07-.18-.15-.03-.31.44-.41.85.23.04.5.08.7.11.37.08.73.16,1.1.25Z"/>
  <path class="st4" d="M14.66,30.93c-.06-.29-.21-.51-.25-.73-.13-.62-.03-.88-.06-1.05-.01-.07-.07-.12-.15-.12-.06,0-.13,0-.19.02-.22.05-.43.16-.61.24-.17.07-.69.24-1.19.35-.16.03-.34.07-.49.09-.55.08-.92.13-1.23.2-.14.03-.24.06-.36.1-.39.13-.59.19-1.01.29-.19.04-.38.09-.56.13-.18.04-.36.09-.57.12-.16.02-.29.05-.73.16-.33.06-.67.04-.85.08-.08.02-.14.05-.12.13.07.28.11.44.14.58.01.07.02.14.03.22.04.41,0,.34.08.65.06.25.18.62.25.89.04.15.09.24.15.3.07.07.16.08.23.06.06-.02.13-.05.15-.14.05-.15.25-.46.36-.65.02-.04.05-.08.06-.11.07-.15.14-.53.62-.65.6-.15.74-.16.95-.17.19,0,.27.07.35.4.03.13.07.29.1.49.09.47.19,1.08.31,1.57.06.27.14.52.21.7.14.33.22.58.27.79.03.11.05.2.04.28,0,.23.17,1.22.36,2.03.07.29.14.53.2.72.38-.11.77-.22,1.18-.33.28-.08.56-.15.85-.23-.03-.27-.04-.47-.08-.61-.02-.11-.06-.2-.11-.24-.1-.11-.17-.21-.19-.32-.02-.07-.02-.17,0-.25.04-.18,0-.44-.05-.69-.03-.14-.06-.28-.09-.42-.04-.18-.07-.33-.18-.63-.04-.09-.06-.2-.08-.29-.07-.33-.09-.68-.18-1.08-.09-.4-.13-.86-.21-1.25-.02-.11-.05-.22-.09-.32-.04-.13-.09-.25-.12-.37,0-.03-.02-.06-.03-.09-.06-.27-.04-.47.14-.52.16-.05.42-.11.64-.16.18-.04.34-.07.39-.04.06.03.5.26.91.45.33.16.65.29.76.27.24-.05.14-.56.08-.85Z"/>
  <path class="st3" d="M15.14,43c-.02-.09-.12-.18-.21-.26-.19-.15-.52-.19-.64-.35-.05-.24-.33-.44-.39-.71-.04-.18-.35-1.22-.54-2.09-.05-.22-.09-.42-.11-.6-.04-.26-.06-.46-.08-.65-.29.08-.57.15-.85.23-.41.11-.8.22-1.18.33.11.35.21.56.28.71.04.09.08.17.11.28.04.18.05.37.07.56.03.3.17.7.23,1.22.01.13.04.24.06.35.05.2.1.36.13.48.02.07.03.13.02.18,0,.25-.25.52-.37.83-.09.21-.25.4-.24.46,0,.02.05.03.16,0,.35-.08.83-.18,1.26-.24.57-.13.89-.26,1.11-.31h.02c.18-.04.36-.08.53-.12.2-.04.4-.09.51-.13.09-.04.13-.1.12-.18Z"/>
  <path class="st4" d="M23.4,35.47c-.09-.36-.75-1.71-.91-2.19-.17-.48-.71-1.37-.92-2-.22-.62-.36-.62-.5-1.12-.13-.41-.29-.55-.31-.81,0-.05-.01-.09,0-.17,0-.04,0-.08,0-.11,0-.24,0-.21.16-.44.21-.28.41-.55.4-.66-.02-.11-.22-.1-1.1.04-.65.11-1.26.24-1.74.33-.47.08-.89.19-1.21.25-.18.03-.56.05-.82.09-.16.03-.28.07-.27.14.04.13.34.35.57.49.05.03.09.06.12.08.21.11.34.35.38.61.02.09-.01.19-.22,2.91,0,0,.08,1.29-.09,1.55-.13.25-.1,1.15-.1,1.49,0,.2-.07.83-.14,1.5.33-.08.67-.16,1.02-.24.26-.06.52-.12.78-.18,0-.51-.01-.93.07-1.33.08-.47-.01-1.19.11-1.49.15-.31.14-.57.2-1.18,0-.07.02-.15.02-.24.05-.66.06-1.7.17-1.72.12-.02.4.53.5.65.08.12.16.46.26.8.06.35.22.68.46.92.3.23.2.49.56,1.21.19.44.46.96.48,1.22.03.17-.01.3-.16.38-.12.07-.29.18-.48.32.62-.13,1.26-.25,1.92-.37.33-.06.67-.12,1.01-.18-.07-.17-.12-.33-.21-.54Z"/>
  <path class="st3" d="M26.14,40.75c-.12-.12-.27-.25-.38-.36-.27-.3-.61-.65-.75-.96-.12-.32-.46-1.34-.7-1.78-.22-.44-.18-.87-.47-1.24-.11-.15-.18-.27-.23-.39-.34.06-.67.12-1.01.18-.65.12-1.29.25-1.92.37-.05.03-.09.07-.14.1-.38.27-.78.6-.93.79-.28.31-1.02.69-1.04.77,0,.06-.05-.35-.07-.93,0-.09,0-.18,0-.26-.26.06-.52.12-.78.18-.35.08-.69.16-1.02.24-.05.48-.09.97-.09,1.33.01.85.07,1.43-.02,1.78-.1.36.08.8-.03,1.09-.17.3-.35.77-.53,1.08-.06.09-.08.17-.07.2,0,.09.17.1.38.07.07-.02.15-.01.24-.03.37-.08.89-.24,1.32-.32.06-.01.13-.02.2-.04.32-.06.67-.11.91-.16.15-.03.28-.05.33-.08.03-.02.05-.03.05-.06,0-.08-.15-.2-.33-.34-.35-.26-.43-.47-.5-.64-.05-.08-.09-.15-.1-.25-.02-.11-.02-.22-.02-.43,0-.04,0-.07,0-.11.02-.26.17-.25.6-.63.49-.43.9-.61,1.01-.9.05-.27.62-.22.79-.4.18-.18.61-.44.8-.72.06-.09.13-.13.21-.15.17-.03.35.11.44.31.17.31.55,1.12.74,1.61.19.5.27.77.29.88,0,.11-.51.89-.58,1.05-.02.02-.03.06-.03.08,0,.08.11.1.3.07.09-.01.22-.05.35-.09.13-.04.24-.06.37-.08.28-.04.58-.07.86-.11.2-.04.41-.08.62-.11.44-.08.86-.14,1.08-.19.02,0,.04,0,.06-.01.06,0,.07-.05.06-.08,0-.08-.11-.19-.24-.32Z"/>
  <path class="st3" d="M33.52,38.55c-.08-.5-.14-.77-.18-1.29-.04-.52,0-.91-.02-1.21,0-.11,0-.26-.01-.37-.01-.19-.06-.31-.28-.29-.35.03-.47.24-.76.49-.29.25-.84.54-.86.75,0,.03,0,.07,0,.1-.01.2-.02.47.03.92.05.54.1.49.1.87,0,.37-.32.5-.67.53-.04,0-.08,0-.12,0-.22.02-.47.03-.67.05-.32.03-.5.11-.69.13-.17.02-.34,0-.46-.04-.12-.06-.2-.44-.27-.98-.03-.3-.05-.63-.11-1.09-.05-.42-.13-.81-.17-1.14-.01-.11-.03-.22-.02-.32,0-.04,0-.09-.01-.13-.02-.13-.05-.21-.07-.3-.25.04-.5.07-.74.11-.43.06-.86.13-1.28.2.09.69.21,1.46.34,1.74.08.14.11.27.13.4.05.41-.06.77-.01,1.12.01.11.04.2.08.29.11.29.09,1.15.41,1.54.32.39.69.38,1.49.29.8-.09,1.24-.06,1.61-.07.41-.04.73-.22.94-.24.19,0,.45.01.71-.01.2-.02.41-.06.5-.13,0,0,0,0,.01,0,.21-.17.63-.37.78-.79.14-.38.33-.59.29-1.12Z"/>
  <path class="st4" d="M32.49,29.13c-.07-.83-.14-.73-.17-1.05-.03-.31-.11-.88-.29-1.06-.18-.17-.29-.46-1.25-.37-.82.08-1.38.06-2.01.12-.41.08-.68.19-.95.22-.27.01-.47.02-.68.04-.27.03-.55.1-.72.2-.24.14-.63.36-.81.8-.07.16-.11.35-.1.57.02.62.03,1.03.09,1.52.02.18.05.39.1.61.1.62.25.87.29,1.16.01.09.03.2,0,.32-.08.48-.05.72.02,1.23.07.52.09,1.04.16,1.53.02.18.05.38.08.59.42-.07.85-.13,1.28-.2.25-.04.49-.07.74-.11,0-.02,0-.04-.01-.07-.01-.09,0-.19.03-.4.03-.23.03-.41.01-.58-.06-.5-.17-1.16-.23-1.71-.09-.47-.18-.71-.22-1.08,0-.08-.02-.16-.03-.24-.01-.47.07-.61.04-.85-.06-.31-.13-.56-.15-.8-.01-.1-.01-.2,0-.3,0-.06,0-.12.01-.17.08-.38.25-.55.59-.59.34-.04.91-.12,1.34-.16.39-.04.63,0,.66.31.05.5.13.45.17.95.05.48,0,.65.03.91,0,.07.03.15.04.22.08.4.17.51.33.49s.43-.17.64-.41c.06-.07.13-.13.2-.18.24-.2.51-.36.69-.55.15-.16.12-.46.09-.92Z"/>
  <path class="st4" d="M41.62,34.03c0-.16.02-.32.03-.48,0-.09.02-.18.01-.26-.01-.54-.05-1.16-.06-1.49,0-.16-.09-.29-.09-.36,0-.29-.07-.63-.1-.98,0-.21.03-.43.14-.65.04-.07.06-.19.05-.35-.01-.44-.15-1.16-.17-1.98-.03-1.13-1.49-1.28-1.82-1.29-.19,0-.39-.01-.58,0-.12,0-.25.02-.35.03-.27.01-.55.02-.82.04-.31.01-1.15.03-1.85.07-.7.04-1.16.22-1.32.29-.31.14-.5.36-.6.71-.05.17-.08.37-.09.62,0,.22-.04,1.11-.02,1.41.02.31.2.47.21.71.02.23-.04,1.05-.02,1.43.03.38.07.44.17.94,0,.09.03.17.04.26.02.34,0,.69,0,.94.02.22.09.36.1.51.01.15-.02.28-.05.4-.03.12-.06.23-.05.36.02.26.13.67.18,1.35.07.94.75,1.14,1.06,1.18.12,0,.29.01.52,0,.82-.05,1.3-.11,2-.14.08,0,.15-.02.25-.04.15-.04.28-.06.4-.06.17,0,.33,0,1.57-.03.13,0,.25-.04.36-.08.56-.22.9-.86.89-1.22,0-.28-.11-.45-.11-.63,0-.03,0-.07.02-.1.04-.16.06-.58.09-1.06ZM39.49,32.76c0,.29.01.83.01,1.37,0,.11,0,.22,0,.32-.01.63.02.98-.07,1.16-.09.17-.2.14-.72.22-.02,0-.03,0-.05,0-.33.04-.61.1-.84.11-.15,0-.29,0-.43-.04-.33-.09-.64-.02-.66-.4,0-.13-.01-.25-.02-.38-.01-.23-.03-.5-.05-.81,0-.1-.02-.21-.03-.32-.06-.77-.22-1.02-.23-1.26,0-.06,0-.12,0-.18.05-.22.13-.39.12-.59-.01-.22-.16-.37-.17-.56,0-.15.06-.28.04-.68-.03-.5-.13-.84-.16-1.33,0-.19,0-.37-.01-.54,0-.12,0-.22,0-.32,0-.56.11-.73.21-.75.12,0,.24-.01.37-.02.16,0,.37-.02.55-.04.3-.03.81-.11,1.1-.13.35,0,.74.16.81.49.03.12.03.28.04.45.01.35.01.81.03,1.17,0,.13,0,.25.01.38.02.44.05.86.16,1.14.06.13.09.23.09.3,0,.22-.14.39-.14.58,0,.15.03.31.04.64Z"/>
  <path class="st4" d="M47.63,28.87s.09-.03.12-.08c.04-.06.11-.13.19-.21-.15.08-.24.2-.31.29Z"/>
  <path class="st4" d="M55.62,26.42c0-.07-.03-.13-.11-.16-.06-.02-.12-.03-.18-.03-.23-.01-.46.05-.64.07-.19.03-.72.05-1.24.02-.16,0-.35-.02-.49-.04-.55-.06-.92-.12-1.23-.13-.14,0-.25-.01-.37,0-.41.02-.62.03-1.05.02-.19,0-.38-.01-.58-.02-.18,0-.37-.01-.57-.03-.16-.02-.29-.03-.74-.04-.33-.03-.66-.14-.84-.14-.08,0-.14.02-.15.09,0,.42,0,.57-.05.8,0,0,0,0,0,.01-.07.41-.09.33-.09.65,0,.26.01.65,0,.93,0,.33.14.45.28.45.02,0,.04,0,.06-.01.07-.09.16-.21.31-.29.15-.15.34-.32.41-.41.1-.13.27-.48.76-.47.61.02.75.04.95.08.18.04.24.14.23.47,0,.13,0,.3-.04.5-.04.48-.1,1.09-.11,1.59,0,.28,0,.54.02.72.05.35.06.62.05.84,0,.11,0,.2-.03.28-.06.2-.14,1.01-.17,1.78.46.01.93.03,1.39.04.23,0,.47.02.7.03-.05-.11-.08-.21-.08-.3,0-.07.03-.17.07-.24.09-.16.12-.42.13-.68,0-.14.01-.28.02-.43,0-.19.02-.33,0-.65-.02-.09-.01-.2,0-.3.02-.33.09-.68.11-1.09.02-.41.1-.87.12-1.26,0-.11.01-.22,0-.33,0-.06,0-.11-.01-.16,0-.11-.01-.22,0-.32.01-.28.08-.46.27-.47.16-.01.43,0,.65.01.18,0,.35.02.38.06.06.05.53.49.92.81.22.18.41.31.5.32.24.02.28-.5.3-.8.02-.3-.07-.54-.05-.77.04-.63.2-.86.21-1.03Z"/>
  <path class="st3" d="M52.65,39.69c-.14-.19-.45-.32-.52-.51.01-.24-.2-.51-.19-.79,0-.19-.02-1.26.02-2.15.01-.22.02-.43.05-.61.07-.63.16-1.01.17-1.26,0-.11-.01-.2-.05-.26-.01-.02-.02-.04-.02-.06-.23-.01-.47-.02-.7-.03-.47-.02-.93-.03-1.39-.04,0,.09,0,.18-.01.27-.03.84.04,1.25.09,1.51.02.09.03.19.03.3,0,.19-.05.37-.08.55-.05.3-.02.72-.1,1.24-.02.13-.03.24-.03.35,0,.2,0,.37,0,.5,0,.07,0,.13-.02.18-.06.24-.37.43-.57.71-.14.18-.35.32-.35.38,0,.02.04.04.15.04.36,0,.84.04,1.27.1.5.02.82,0,1.04-.01.04,0,.07,0,.1,0,.19,0,.37.02.56.03.2,0,.41.02.52,0,.09-.01.15-.07.16-.14,0-.09-.06-.21-.13-.3Z"/>
  <path class="st4" d="M62.26,27c-.18-.04-.38-.08-.57-.1-.12-.01-.25,0-.35-.02-.27-.03-.55-.06-.82-.08-.31-.03-1.14-.15-1.84-.21-.7-.06-1.18.09-1.35.15-.32.12-.54.35-.69.75-.08.22-.15.48-.2.8-.04.28-.22,1.38-.25,1.77-.03.39.12.62.09.92-.02.3-.21,1.31-.25,1.79-.03.48,0,.56.01,1.21,0,.1,0,.2,0,.3.46.04.93.07,1.4.12.19.02.39.03.59.05.08-.24.18-.43.2-.67.02-.28-.1-.49-.07-.73.02-.19.11-.34.15-.84.05-.63.01-1.08.07-1.69.04-.24.06-.46.08-.68.02-.19.04-.35.06-.49.09-.63.22-.82.32-.82.12.01.24.02.36.03.16.01.36.03.55.03.31,0,.82-.01,1.1.01.34.05.7.32.72.75,0,.15-.02.35-.04.57-.05.44-.13,1.01-.18,1.47-.02.16-.03.32-.05.48-.06.55-.1,1.09-.03,1.45.04.17.05.3.04.4-.03.28-.21.46-.23.7-.01.1-.02.21-.03.35.48.06.95.12,1.43.18.23.03.47.07.7.1.03-.28.06-.53.08-.72.02-.2-.03-.38-.02-.47.04-.37.04-.8.07-1.24.03-.26.1-.53.26-.79.05-.09.09-.23.11-.44.07-.55.06-1.47.18-2.5.17-1.42-1.25-1.83-1.57-1.9Z"/>
  <path class="st3" d="M62.46,34.96c-.48-.06-.95-.12-1.43-.18,0,.12-.02.27-.04.46-.07.44-.16,1.33-.28,2.12-.12.79-.15,1.24-.27,1.45-.11.19-.21.16-.63.16-.05,0-.09,0-.15,0-.32,0-.61.03-.84.01-.15-.01-.28-.05-.41-.11-.31-.16-.62-.13-.58-.61.01-.16.03-.32.04-.48.03-.39.08-.87.1-1.43.07-.98-.04-1.31-.02-1.62,0-.07.01-.15.04-.22,0-.02.01-.04.02-.05-.2-.02-.39-.04-.59-.05-.47-.04-.93-.08-1.4-.12,0,.01,0,.02,0,.03-.03.43-.12.87-.14,1.18-.02.28.02.47.01.65-.03.37-.2.62-.22.93-.02.33.02.86-.05,1.73-.08,1.18.55,1.55.84,1.65.11.03.28.06.5.08.8.07,1.27.07,1.96.14.07,0,.15,0,.25-.01.15-.02.29-.03.4-.02.17.02.32.05,1.53.2.16.02.31-.01.45-.07.54-.23.94-.94.99-1.37.04-.35-.03-.58,0-.8,0-.04.01-.09.03-.13.09-.25.23-1.11.39-1.92.01-.11.05-.22.06-.33.05-.39.09-.8.13-1.17-.23-.03-.47-.07-.7-.1Z"/>
  <path class="st4" d="M68.2,29c-.29.26-.6.55-.71.7-.08.1-.14.41-.2.8-.03.18-.06.39-.07.59-.01.09-.01.22-.03.37-.08.57-.28,1.48-.37,2.07-.03.22-.02.43-.06.67-.04.29-.2.52-.24.83-.03.17,0,.34-.02.56.22.04.43.08.65.11.02-.06.03-.13.05-.21.02-.14.04-.28.06-.42.05-.35,0-.58.04-.82.05-.31.2-.53.24-.83.04-.24.03-.45.06-.67.09-.59.28-1.5.37-2.07.02-.15.02-.28.03-.37,0-.2.04-.41.07-.59.06-.37.12-.66.19-.78-.02.02-.04.04-.07.06Z"/>
  <path class="st3" d="M71.53,36.55c-.45-.1-.9-.2-1.35-.29-.02.08-.03.15-.05.23,0,.17-.04.48-.1.81s-.14.69-.21,1c-.02.09-.05.18-.06.25-.06.38-.03.65-.06.82,0,.04-.01.07-.04.11-.1.15-.1.59-.28.73-.13.1-.3.14-.54.13-.06,0-.11,0-.17-.02-.3-.07-.43-.09-.52-.1-.24-.04-.38.11-.59.08-.07-.06-.15-.12-.22-.18-.37-.08-.62-.23-.63-.7,0-.17.03-.43.07-.72.07-.48.14-.95.21-1.43,0-.19.03-.35.05-.5.02-.1.03-.21.05-.31.04-.26-.02-.4,0-.54,0-.06.03-.13.05-.2-.22-.04-.43-.08-.65-.11-.51-.09-1.02-.17-1.53-.25-.08.46-.21,1.23-.29,1.78-.02.18-.03.35-.04.46-.04.58-.13,1.71-.19,2.11-.11.85.18,1.65.98,1.77.28.04.57.08.85.12.37.06.67.1.83.16.09.03.18.05.28.06.22.03.47.04.66.05.1,0,.26.02,1.45.22.2.03.67.02,1.1-.13.37-.14.71-.39.8-.83.17-.94.35-1.89.52-2.83.06-.33.09-.68.1-.85.01-.17.01-.49.05-.73,0-.01,0-.02,0-.03-.18-.04-.37-.08-.55-.12Z"/>
  <g>
    <path class="st4" d="M74.14,28.72c-.09-.06-.21-.1-.33-.12-.2-.04-.45-.05-.74-.1-.56-.1-1.12-.2-1.69-.29,0,0-.12-.06-.26-.08-.14-.02-.29-.03-.31.08,0,.02.01.06,0,.08.05.31.33.53.38.74,0,.02,0,.05.01.07.04.21.04.48,0,.67-.15.86-.29,1.72-.44,2.58-.03.2-.06.35-.03.45.06.24.08.39.04.61-.02.11-.06.23-.11.4-.12.34-.27.88-.36,1.39-.03.16.18.33.15.52-.02.13-.23.17-.24.24-.02.11-.04.21-.07.32.45.09.9.19,1.35.29.18.04.37.08.55.12.07-.29.14-.48.17-.63.05-.27.12-.53.16-.75.05-.27.03-.49.07-.7.07-.4.27-1.04.37-1.56.02-.13.04-.24.04-.35.01-.3.03-.52.07-.7.06-.31.18-.52.22-.75.04-.24.05-.52.07-.7,0-.04.02-.09.02-.13.04-.2.11-.36.2-.44,0,0,0,0,0,0,.03-.02.08-.07.14-.13.21-.21.56-.6.7-.69.05-.03.07-.06.08-.1.02-.09-.09-.19-.26-.29Z"/>
    <path class="st4" d="M68.69,27.8c-.29-.04-.97-.05-1.44-.12-.14-.02-.28-.06-.38-.09-.16-.06-.26-.09-.36-.11-.16-.02-.27,0-.41-.02-.16-.02-.46-.1-.69-.13-.12-.02-.22-.03-.23.03-.02.13.24.37.42.56.09.1.16.22.21.36.04.13.07.26.08.41,0,.13,0,.32-.03.56-.03.26-.1.59-.17.95,0,.02,0,.05,0,.07-.08.46-.19,1-.25,1.45-.06.48.02.77-.02,1.06-.01.11-.05.24-.11.4-.06.14-.11.4-.15.67-.06.44-.09.94-.11,1.13,0,.07-.03.19-.06.34.51.08,1.02.16,1.53.25,0-.21,0-.38.02-.56.05-.31.2-.53.24-.83.04-.24.03-.45.06-.67.09-.59.28-1.5.37-2.07.02-.15.02-.28.03-.37,0-.2.04-.41.07-.59.06-.39.12-.69.2-.8.11-.15.42-.44.71-.7.03-.02.05-.04.07-.06,0,0,0-.02.01-.02,0-.01.03-.03.04-.04.13-.16.41-.42.67-.66.1-.08.12-.13.13-.19.02-.13-.16-.19-.42-.23Z"/>
  </g>
  <path class="st4" d="M79.86,38.7s0-.02,0-.04c-.02,0-.03.01-.05.02.02,0,.04.01.05.02Z"/>
  <path class="st4" d="M82.14,30.41c-.36-.09-.83-.08-1.33-.2-.1-.02-.18-.06-.28-.08-.59-.19-1.13-.35-1.43-.42-.22-.05-.74-.09-1.19-.18-.16-.03-.32-.07-.44-.13-.17-.09-.43-.15-.68-.2-.32-.07-.67-.12-.89-.16-.09-.02-.18-.03-.26-.05-.24-.05-.39-.06-.4.02-.02.11.16.6.33.9,0,0,0,.01.01.02.17.3.11.59.11.59-.12.61-.24,1.21-.36,1.82-.12.6-.19,1.15-.44,2.52-.1.49-.19.95-.27,1.27-.05.37-.07.67-.13.94-.01.06-.03.11-.04.16.44.11.88.22,1.32.33,0,.02,0,.04-.01.05-.05.22-.05.35.02.37.12.03.62,0,.98-.15,1.01.27,2.03.56,3.04.86.02,0,.03-.01.05-.02.36-.15.74-.31.89-.46.23-.23.36-.37.44-.57.15-.07.27-.15.34-.22.32-.32.44-.46.54-.84.02-.07.13-.58.15-.67.03-.13.04-.26.08-.4.03-.13.09-.27.15-.36.07-.1.09-.21.13-.35.07-.27.11-.6.16-.97.03-.19.07-.37.12-.55.09-.36.21-.75.35-1.29.2-.79-.63-1.48-1.06-1.58ZM80.76,32.51c-.09.38-.05.41-.13.71-.21.89-.31,1.47-.4,1.85-.1.43-.31.96-.58,1.18-.12.09-.25.14-.38.18-.19.05-.4.08-.61.16-.36.15-.68.25-1,.4-.36.19-.96.23-1.09.2-.08-.02-.07-.15-.02-.37.03-.15.07-.35.15-.6.11-.41.25-.71.32-1.03.03-.15.05-.31.04-.48-.01-.23,0-.4.04-.58.05-.25.14-.46.2-.74.1-.45.18-.63.27-1.08.01-.07.03-.14.05-.21.1-.41.26-.88.41-.85.22.05.75.12,1.07.18.37.08.73.16,1.1.25.32.07.67.37.56.82Z"/>
  <path class="st3" d="M80.58,43.6c-.18-.39-.18-.98-.32-1.4-.13-.42-.22-1.01-.17-1.38.05-.37-.1-1.06-.12-1.31-.03-.32-.07-.6-.1-.81-.02,0-.04-.01-.05-.02-1.02-.31-2.03-.59-3.04-.86-.36.15-.86.18-.98.15-.08-.02-.07-.15-.02-.37,0-.02,0-.04.01-.05-.44-.11-.88-.22-1.32-.33-.08.27-.19.51-.24.77-.07.36-.13.85-.22,1.32-.13.64-.12.89-.21,1.32-.02.1-.04.19-.06.29-.16.63-.34.94-.56,1.16-.17.17-.43.35-.46.48,0,.04,0,.06.06.09.05.03.13.04.22.06.26.05.6.06,1.01.11.09.02.17.02.23.03.19.04.38.09.56.14.43.12.83.27,1.26.36,0-.02-.11-.38-.3-.75-.19-.36-.3-.58-.16-1.23.09-.44.18-.74.25-1.07.03-.16.07-.33.09-.53,0-.02,0-.04,0-.05,0-.07.01-.13.02-.19.07-.31.19-.34.46-.47.47-.22.73-.24,1.24-.32,0,0,.02.97.14,1.5.07.3.19.71.16.86-.02.11.22,1.35.11,1.82-.05.22-.3.52-.34.72-.01.05.08.09.2.12.18.04.45.07.65.12.21.05.43.1.64.15.16.05.34.1.52.14.2.05.41.1.59.15.26.06.46.12.53.12.04,0,.04,0,.05-.04.03-.13-.14-.38-.33-.79Z"/>
  <path class="st3" d="M41.77,37.96c-2.27.05-4.53.16-6.8.32.02.24.03.49.05.73l.06.9c1.97-.14,3.95-.23,5.92-.29.27,0,.53-.02.8-.03-.01-.55-.03-1.09-.04-1.64Z"/>
  <g>
    <path d="M29.76,46.61c-.21.05-.42,0-.63-.12-.21-.13-.34-.31-.4-.56-.04-.17-.04-.35,0-.55.03-.2.11-.4.23-.61.12-.21.28-.41.47-.59.19-.19.44-.35.74-.5.3-.15.63-.26.99-.33.54-.1,1-.07,1.4.09.39.16.62.44.68.81.04.27,0,.52-.13.76-.13.24-.31.43-.55.59-.24.15-.5.26-.79.32-.11.02-.19,0-.25-.08-.03-.05-.03-.07,0-.08.38-.07.67-.25.87-.53.2-.28.28-.59.21-.94-.05-.27-.18-.48-.41-.62-.23-.14-.54-.17-.96-.09-.29.06-.56.15-.8.28-.24.13-.43.28-.58.44-.15.16-.26.34-.35.52-.09.18-.15.36-.17.53-.02.17-.02.32.01.45.03.13.09.23.17.3.08.07.18.09.29.06.15-.03.28-.13.37-.28.1-.15.13-.28.11-.39,0-.04.02-.04.07-.03.08.02.13.07.14.15.04.17-.02.36-.16.58-.14.22-.34.35-.59.41ZM30.31,47.96c-.14.03-.27,0-.4-.08-.13-.09-.2-.18-.23-.29,0-.04-.01-.08,0-.11,0-.03.02-.05.04-.05,0,0,.02,0,.04.02.03.01.05.02.08.01.07-.02.14-.04.2-.07.06-.03.12-.09.2-.18.07-.09.14-.2.21-.33.07-.14.14-.32.22-.56.08-.24.16-.52.24-.84.13-.53.3-.93.48-1.2.19-.26.41-.42.65-.46.09-.02.15,0,.18.06.02.03.02.05,0,.05-.13.02-.25.11-.35.27-.1.15-.19.34-.25.57-.07.23-.13.48-.18.75-.06.27-.12.55-.18.82-.06.27-.13.53-.21.76-.08.23-.17.43-.29.59-.12.16-.26.26-.42.3Z"/>
    <path d="M35.46,45.6s.07.05.13.11c.01,0,.01.02,0,.03-.11.23-.2.42-.28.57-.08.14-.16.25-.23.32-.07.07-.14.12-.19.14-.05.02-.12.04-.2.05-.12.02-.22,0-.3-.07-.08-.07-.13-.16-.15-.28,0-.02,0-.04,0-.05-.21.35-.42.55-.65.59-.11.02-.21,0-.3-.07-.09-.06-.14-.16-.16-.28-.01-.08-.02-.16-.02-.23,0-.07.03-.22.08-.44.05-.22.13-.53.26-.94,0-.02.02-.04.05-.04.15-.02.3-.05.45-.07.01,0,.02,0,.03,0,0,0,0,.02,0,.03-.19.63-.31,1.04-.34,1.23-.04.19-.05.33-.04.42.01.06.04.09.09.08.07-.01.17-.1.28-.27.12-.17.23-.39.36-.67.05-.21.14-.51.27-.9,0-.03.02-.04.05-.05.15-.02.3-.04.45-.06.01,0,.02,0,.03,0,0,0,0,.02,0,.03-.2.63-.32,1.03-.37,1.22-.04.19-.06.33-.04.42,0,.06.04.09.09.09.06,0,.14-.09.26-.26.12-.16.24-.39.37-.66,0-.01.02-.01.03,0Z"/>
    <path d="M37.03,44.83c.02.16-.04.32-.18.47-.14.15-.3.27-.48.36-.18.09-.35.15-.52.17,0,.07,0,.13,0,.19.01.1.05.19.1.25.05.06.12.09.22.07.07,0,.14-.03.21-.06.08-.03.17-.08.27-.14.1-.07.21-.16.32-.29.11-.13.21-.29.3-.46,0-.02.02-.02.03,0,.04.04.08.07.12.11,0,0,0,.02,0,.03-.1.19-.2.36-.3.5-.11.14-.2.25-.29.33-.09.08-.18.14-.28.19-.1.05-.19.08-.25.1-.06.01-.13.03-.22.04-.22.03-.39-.02-.51-.14-.13-.12-.21-.29-.24-.5-.03-.2,0-.41.1-.63.09-.22.23-.42.42-.59.19-.17.39-.26.61-.29.16-.02.29,0,.39.05.1.05.16.13.17.26ZM36.54,44.73c-.12.01-.25.11-.38.29-.13.18-.22.38-.28.6.33-.13.56-.32.68-.58.07-.15.08-.25.03-.3-.01,0-.03-.01-.05,0Z"/>
    <path d="M39.09,45.37c-.12.23-.22.41-.31.56-.09.15-.18.25-.26.33-.08.07-.15.12-.21.15-.06.03-.13.04-.2.05-.11.01-.21-.02-.3-.09-.08-.07-.13-.17-.14-.29-.01-.12,0-.27.05-.45.05-.18.15-.46.32-.85.02-.05.03-.08.02-.12,0-.05-.06-.11-.16-.16-.1.27-.29.66-.56,1.18,0,.01-.02.01-.03,0-.04-.03-.09-.07-.13-.1-.02,0-.02-.02,0-.03.23-.48.4-.86.5-1.16-.07-.04-.11-.09-.11-.14,0-.08,0-.14.05-.19.04-.05.09-.08.16-.08.06,0,.11,0,.15.04.04.03.07.08.07.14,0,.01,0,.03,0,.05.01,0,.03.02.05.03.08.04.15.06.19.09.04.02.09.05.15.09.06.04.11.08.13.12.03.04.05.09.05.13,0,.05,0,.1-.03.16-.28.64-.41,1.05-.4,1.22,0,.07.04.1.09.1.03,0,.07-.03.12-.09.06-.05.14-.16.24-.31.1-.15.21-.33.33-.54.01-.01.02-.01.03,0,.04.04.09.08.13.12.01,0,.01.02,0,.03Z"/>
    <path d="M39.07,44.25c.08,0,.15-.01.23-.02.06-.16.19-.47.37-.92.01-.03.03-.04.06-.04.15-.01.3-.02.46-.03.01,0,.02,0,.03.01,0,0,0,.02,0,.03-.18.43-.3.73-.37.91.1,0,.2-.01.3-.02.01,0,.02,0,.03.01,0,0,0,.02,0,.03-.03.07-.05.13-.08.2,0,.02-.03.03-.05.04-.1,0-.21.01-.31.02-.21.54-.34.88-.39,1.04-.05.15-.07.28-.06.38,0,.07.04.1.09.09.09,0,.21-.08.34-.22.14-.14.28-.35.44-.61,0-.01.02-.01.03,0,.01,0,.03.03.07.06.03.03.05.05.06.05,0,.01,0,.02,0,.03-.12.23-.23.41-.33.55-.1.14-.19.24-.28.31-.09.07-.16.11-.22.13-.06.02-.14.04-.24.04-.11,0-.21-.03-.3-.11-.09-.08-.14-.19-.15-.31,0-.12,0-.25.05-.4.04-.15.16-.48.35-.98-.07,0-.14.01-.22.02-.01,0-.02,0-.03-.01,0,0,0-.02,0-.02.03-.07.05-.13.08-.2,0-.02.03-.04.05-.04Z"/>
    <path d="M40.7,46.27c-.21.01-.37-.04-.48-.15-.11-.11-.18-.29-.19-.51-.01-.22.03-.44.14-.67.11-.22.26-.41.45-.56.19-.15.4-.23.61-.24.22-.01.4.04.51.16.12.12.18.28.19.47,0,.27-.08.55-.28.85.21.03.43-.16.67-.58,0-.01.02-.02.03,0,0,0,.04.04.12.12,0,.01,0,.03,0,.04-.04.06-.07.11-.1.15-.03.04-.06.09-.11.15-.04.06-.08.11-.12.14-.04.04-.09.08-.14.12-.05.04-.1.07-.16.09-.05.02-.11.03-.17.03-.06,0-.13,0-.19-.03-.24.28-.5.42-.78.44ZM41.3,44.38c-.1,0-.21.08-.34.21-.13.14-.24.32-.32.53-.09.22-.13.43-.12.62,0,.1.03.18.06.24.04.06.08.09.14.09.14,0,.29-.13.45-.37-.02-.02-.03-.06-.03-.1,0-.08.02-.15.08-.22.05-.07.12-.11.18-.12.08-.2.11-.39.1-.57,0-.22-.08-.32-.2-.32Z"/>
    <path d="M44.46,44.98c-.21,0-.41-.09-.58-.26-.17-.17-.26-.38-.27-.63,0-.21.05-.43.17-.65.12-.22.28-.42.49-.6.21-.18.48-.32.8-.43.32-.11.67-.16,1.03-.15.13,0,.27.02.4.04.13.02.28.05.43.09.15.04.28.06.37.08.19-.07.39-.11.59-.1.06,0,.12.02.17.06.05.03.07.07.07.12,0,.07-.04.13-.1.18-.06.05-.14.07-.24.06-.06,0-.12,0-.19-.02-.11.1-.19.24-.25.42-.06.18-.1.35-.12.52-.02.17-.04.38-.07.63-.03.25-.06.46-.1.62.13-.14.28-.31.45-.52.17-.21.32-.4.44-.56.13-.17.28-.34.45-.52.17-.18.34-.33.49-.45.16-.12.34-.21.54-.28.2-.07.41-.09.63-.08.12.01.2.06.24.15.02.04.01.06-.02.05-.2-.02-.42.09-.66.32-.24.23-.46.52-.66.87-.2.35-.36.74-.5,1.16-.14.42-.22.81-.24,1.16,0,.07,0,.13.01.18.01.05.03.08.04.1.02.02.03.03.05.05.01.02.02.03.02.05,0,.04-.05.09-.14.14-.09.05-.19.07-.3.06-.26-.01-.38-.22-.36-.61.02-.38.15-.86.41-1.42.26-.56.56-1.05.91-1.47-.16.16-.35.37-.57.65-.22.28-.42.53-.6.76-.18.23-.38.48-.61.74-.23.26-.45.48-.65.64-.07.07-.15.13-.23.18-.02.01-.03.01-.05,0,0,0-.01-.01-.02-.02-.01-.01-.02-.03,0-.05.1-.14.18-.31.24-.52.06-.21.1-.43.13-.65.03-.23.06-.45.09-.68.03-.23.08-.46.14-.69.07-.23.15-.43.27-.6-.15.19-.32.45-.49.76-.17.31-.32.61-.46.89-.13.28-.27.55-.41.81-.14.26-.29.47-.45.63-.16.16-.33.23-.5.23-.14,0-.27-.06-.37-.17-.1-.11-.16-.22-.16-.33,0-.04,0-.08.02-.11.01-.03.03-.04.05-.04,0,0,.02,0,.04.03.02.02.05.03.07.03.07,0,.14,0,.2-.03.06-.02.14-.06.23-.13.09-.07.18-.16.28-.28.09-.12.2-.29.34-.5.13-.22.27-.47.42-.77.35-.69.74-1.18,1.16-1.47-.42-.09-.75-.14-.99-.15-.29,0-.57.07-.84.23-.27.16-.49.37-.65.61-.16.25-.24.5-.24.75,0,.14.03.25.1.33.06.08.16.12.28.12.15,0,.29-.06.42-.19.13-.13.19-.25.19-.35,0-.04.03-.04.07-.01.07.04.11.1.11.18,0,.17-.1.35-.28.53s-.41.27-.66.27Z"/>
    <path d="M49.34,46.37c-.21-.02-.36-.09-.46-.22-.1-.13-.14-.31-.12-.53.02-.22.09-.44.23-.64.14-.21.31-.37.53-.5.21-.12.42-.18.63-.16.22.02.39.1.49.23.1.13.14.3.12.49-.03.27-.16.54-.39.8.2.06.45-.1.75-.48,0-.01.02-.01.03,0,0,0,.04.04.11.13,0,.02,0,.03,0,.04-.04.05-.08.1-.12.14-.03.04-.08.08-.13.13-.05.05-.1.09-.14.12-.04.03-.1.06-.15.1-.06.03-.11.05-.17.07-.05.01-.11.01-.18,0-.06,0-.13-.02-.19-.06-.28.24-.56.35-.83.33ZM50.18,44.57c-.1,0-.22.05-.36.17-.14.12-.28.28-.39.49-.12.21-.18.41-.2.6,0,.1,0,.18.03.24.03.07.07.1.13.11.14.01.3-.09.49-.3-.02-.03-.02-.06-.02-.11,0-.08.04-.14.1-.21.06-.06.13-.09.2-.09.1-.19.16-.37.18-.55.02-.22-.03-.33-.16-.34Z"/>
    <path d="M52.87,45.72c-.16.2-.3.36-.42.48-.12.12-.23.21-.32.26-.09.05-.17.09-.23.1-.06.01-.13.02-.21,0-.11-.01-.2-.06-.27-.15-.07-.09-.09-.19-.08-.31.01-.12.06-.26.15-.43.08-.17.25-.42.49-.76.03-.04.04-.08.05-.11,0-.05-.03-.12-.12-.19-.16.24-.42.59-.79,1.04,0,0-.02.01-.03,0-.04-.04-.07-.08-.11-.13-.01-.01-.01-.02,0-.03.33-.42.57-.76.73-1.03-.06-.06-.09-.11-.08-.16,0-.08.04-.14.09-.18.05-.04.11-.06.17-.05.06,0,.1.03.14.07.03.04.05.09.04.16,0,.01,0,.03-.02.05.01,0,.03.02.05.04.07.05.13.09.17.12.04.03.08.07.13.12.05.05.09.1.11.15.02.05.03.1.02.14,0,.05-.03.1-.06.15-.41.57-.62.94-.64,1.11,0,.07.02.11.07.11.03,0,.07-.02.14-.06.07-.04.17-.12.3-.25.13-.12.28-.28.43-.46.01,0,.02,0,.03,0,.03.05.07.09.1.14,0,.01.01.02,0,.03Z"/>
    <path d="M54.49,45.21c-.03.16-.12.3-.3.41-.17.11-.36.18-.56.22-.2.04-.38.05-.54.03-.02.06-.04.12-.05.19-.01.1,0,.19.03.26.03.07.1.11.19.13.07,0,.14,0,.22,0,.08,0,.18-.03.3-.07.12-.04.25-.1.39-.2.14-.1.28-.22.41-.37,0-.01.02-.01.03,0,.03.05.06.09.09.14,0,.01,0,.02,0,.03-.14.16-.28.3-.42.41-.14.11-.26.19-.36.24-.1.05-.21.09-.32.11-.11.02-.2.03-.26.03-.06,0-.14,0-.22-.02-.22-.03-.37-.12-.46-.27-.09-.15-.12-.33-.1-.55.03-.2.11-.39.26-.59.15-.19.33-.35.56-.46.22-.11.45-.15.66-.12.16.02.29.07.37.15.08.07.12.17.1.29ZM54.04,44.99c-.12-.02-.27.04-.44.18-.17.14-.31.31-.42.51.35-.04.62-.17.81-.39.11-.13.15-.22.11-.29,0-.01-.03-.02-.05-.02Z"/>
    <path d="M54.62,46.94c-.11-.02-.2-.08-.27-.18-.06-.1-.09-.21-.07-.34.02-.14.1-.32.24-.55.14-.22.58-.87,1.36-1.93.02-.02.04-.03.06-.03.15.03.31.05.46.08.01,0,.02,0,.02.02,0,.01,0,.02,0,.03-.81,1.08-1.26,1.74-1.41,1.97-.15.23-.23.4-.25.52-.01.06,0,.1.06.11.08.01.19-.03.33-.13.13-.1.31-.27.54-.52.01,0,.02,0,.03,0,0,.01.04.06.09.14,0,.01,0,.02,0,.03-.18.19-.32.35-.44.46-.12.11-.22.19-.31.24-.09.05-.17.07-.22.08-.06,0-.13,0-.23-.01Z"/>
    <path d="M55.99,47.24c-.21-.04-.35-.13-.44-.26-.08-.14-.11-.32-.07-.54.04-.22.14-.42.29-.62.16-.19.35-.34.58-.44.23-.1.44-.13.65-.09.22.04.38.14.46.28.09.14.11.31.07.5-.05.27-.21.52-.47.76.19.08.46-.06.79-.4.01-.01.02-.01.03,0,0,0,.03.05.09.14,0,.02,0,.03,0,.04-.05.05-.09.09-.13.13-.04.03-.08.08-.14.12-.06.05-.11.08-.15.11-.05.03-.1.05-.16.08-.06.03-.12.04-.17.05-.05,0-.11,0-.18-.01-.06-.01-.12-.04-.18-.07-.3.21-.59.29-.87.24ZM57.02,45.54c-.1-.02-.22.02-.38.13-.16.1-.3.25-.44.44-.14.19-.22.38-.26.58-.02.1-.02.18,0,.25.02.07.06.11.11.12.14.03.31-.06.52-.25-.01-.03-.02-.06,0-.11.01-.07.06-.14.13-.19.07-.05.14-.08.21-.07.12-.18.2-.36.24-.53.04-.21,0-.33-.12-.36Z"/>
    <path d="M59.63,46.97c-.29.29-.53.48-.72.58-.19.1-.39.14-.6.12-.09,0-.19,0-.3-.03-.14-.03-.25-.1-.33-.2-.08-.1-.14-.21-.16-.32-.02-.11-.02-.23,0-.33.02-.1.06-.16.13-.17.19-.16.48-.45.88-.85.11-.12.26-.16.43-.12.08.02.15.06.2.12.05.06.07.12.06.17-.09.05-.15.13-.2.25-.05.12-.08.24-.09.37-.01.13-.03.27-.06.41-.03.14-.06.27-.1.37.22-.09.47-.28.76-.55.01,0,.02,0,.03,0,.03.05.05.1.08.15,0,.01,0,.02,0,.03ZM57.97,47.24c.05.01.1.01.14,0,.04-.02.08-.04.1-.09.03-.04.05-.09.07-.14.02-.05.04-.11.05-.18.01-.07.03-.14.04-.21.01-.06.02-.14.04-.23.01-.09.03-.16.04-.22-.27.26-.49.45-.65.59-.04.11-.04.21-.02.3.03.09.09.15.19.17Z"/>
  </g>
  <path class="st2" d="M84.82,16.35c-.94-.78-1.85-1.56-2.92-2.18-2.07-1.2-4.39-1.87-6.75-2.19-1.33-.18-2.65-.23-3.99-.17-.7.03-1.39.13-2.04-.21-.27-.14-.52-.35-.78-.51-.32-.19-.74-.31-1.02-.54-.21-.17-.34-.45-.5-.67-.18-.25-.38-.49-.59-.72-.4-.43-.87-.81-1.36-1.13-1.03-.67-2.19-1.03-3.41-1.17-.6-1.04-1.45-1.96-2.41-2.68-.51-.39-1.06-.7-1.65-.94-.68-.28-1.4-.37-2.04-.72-.56-.3-1.17-.54-1.78-.72-.32-.09-.64-.16-.96-.21-.36-.06-.76-.04-1.11-.14-.63-.16-1.21-.42-1.86-.54-.69-.12-1.39-.17-2.08-.13-1.22.08-2.39.49-3.48,1.03-.31.15-.61.37-.93.49-.3.11-.64.14-.95.24-.63.19-1.24.46-1.81.79-.52.3-.95.69-1.42,1.05-.27.21-.6.36-.89.55-.32.22-.61.51-1.01.52-.34.01-.71-.12-1.05-.18-.33-.05-.66-.1-1-.13-.77-.08-1.55-.12-2.32-.11-4.8.05-9.88,1.69-13.08,5.44-.33.39-.64.79-.92,1.21-.31.47-.51,1.09-.88,1.5-.49.55-1.3.25-1.93.16-.76-.1-1.53-.19-2.31-.21-2.6-.06-5.17.59-7.51,1.72-1.07.52-2.13,1.16-2.95,2.04-.9.97-1.33,2.27-1.65,3.53-.62,2.41-.3,5.09,1.44,6.94-.77,1.37-.86,2.87-.71,4.42,0,.01,0,.02,0,.04.02.4.09.8.14,1.2,0,.04.02.07.04.11,0,0-.01,0-.02,0,.31,2.16,1.33,4.17,3.06,5.55.36.29.91.51,1.16.9.3.48.34,1.09.28,1.63-.09.89-.02,1.79.19,2.66.43,1.7,1.48,3.22,2.94,4.19,1.78,1.18,3.93,1.33,6,1.05.68-.09,1.35-.23,2.01-.42.39-.11.77-.29,1.16-.38.35-.08.72-.1,1.07-.16.71-.12,1.42-.27,2.12-.45.33-.09.65-.18.97-.29.3-.1.56-.1.85-.1.13.18.27.36.38.55.18.34.38.66.6.97.41.56.89,1.09,1.43,1.53.97.77,2.14,1.28,3.35,1.52,1.26.25,2.57.23,3.81-.09.61-.16,1.2-.55,1.81-.64.75-.12,1.51-.18,2.26-.26.39-.04.76-.14,1.15-.2.37-.06.75-.04,1.13-.06.41-.02.81-.04,1.22-.06.39-.02.79-.13,1.17-.12.37.02.75.15,1.12.2.44.06.87.08,1.31.07.8-.02,1.59.27,2.39.29.83.03,1.59-.17,2.4-.26.85-.09,1.79.16,2.62.3,1.49.24,2.93.74,4.45.75,3.15.01,6.2-1.67,7.76-4.42.35.05.71.08,1.06.1.31.02.61,0,.91.1.23.07.46.16.69.22.55.15,1.1.21,1.66.27.04.03.09.06.15.08.94.29,1.9.38,2.84.64.96.27,1.95.51,2.94.65,1.64.24,3.27.11,4.79-.57.77-.35,1.49-.82,2.13-1.37.59-.51,1.18-1.07,1.63-1.71.87-1.25,1.27-2.85,1.19-4.36-.02-.44-.08-.87-.18-1.3-.12-.48-.11-.79.15-1.23.27-.46.5-.93.68-1.43.12-.36.31-.83.29-1.21,0-.02,0-.04,0-.06.07-.16.14-.31.2-.47.18-.5.24-1.04.35-1.56.12-.54.24-1.08.35-1.63.19-.99.29-1.99.14-3-.08-.52-.21-1.02-.41-1.51-.22-.55-.54-.98-.21-1.56.68-1.11,1.12-2.5,1.3-3.79.16-1.16.06-2.5-.34-3.61-.4-1.1-1.13-1.98-2.02-2.72ZM86.17,23.33c-.25.94-.53,1.86-1.04,2.7-.02.03-.03.06-.04.09-.19.37-.29.77-.21,1.2.09.53.42,1,.58,1.52.34,1.14.28,2.31.06,3.47-.1.55-.23,1.09-.35,1.63-.12.54-.18,1.13-.39,1.64-.17.4-.36.78-.53,1.17-.08.17-.18.35-.19.54,0,.13.05.24.14.32-.13.3-.28.58-.45.86-.4.68-.39,1.22-.22,1.96.32,1.39.14,2.95-.51,4.22-.34.66-.79,1.18-1.34,1.68-.62.56-1.2,1.09-1.94,1.5-1.36.75-2.9.99-4.44.81-1.02-.12-2.04-.37-3.03-.64-.54-.15-1.08-.25-1.62-.36-.04-.12-.13-.23-.28-.25-.97-.17-1.96-.17-2.91-.43-.47-.13-.89-.32-1.39-.34-.55-.02-1.09-.05-1.63-.13-.19-.03-.4.02-.49.2-1.31,2.53-3.98,4.13-6.82,4.23-.72.02-1.43-.04-2.13-.21-.69-.16-1.38-.29-2.07-.45-.77-.17-1.54-.28-2.32-.34-.35-.03-.69-.09-1.04-.04-.44.06-.87.19-1.32.22-.8.07-1.6,0-2.39-.18-.73-.17-1.48-.05-2.23-.16-.35-.05-.69-.16-1.04-.19-.36-.03-.72.07-1.07.1-.77.06-1.54.06-2.31.11-.3.02-.57.09-.87.14-.41.08-.82.08-1.24.13-.65.08-1.41.1-2.03.3-.57.19-1.07.47-1.66.61-.61.15-1.24.21-1.87.2-1.35-.03-2.7-.4-3.84-1.12-.63-.4-1.16-.91-1.63-1.49-.25-.31-.47-.65-.66-1-.18-.32-.41-.6-.6-.92-.08-.13-.22-.22-.38-.22-.25,0-.5-.03-.75,0-.28.03-.54.13-.8.22-.58.19-1.18.33-1.78.46-.64.14-1.28.24-1.93.33-.58.08-1.15.36-1.72.5-2.05.53-4.41.72-6.35-.27-1.53-.78-2.65-2.17-3.12-3.81-.24-.84-.32-1.72-.23-2.59.09-.91-.08-2.04-.86-2.64-.44-.34-.91-.6-1.32-.99-.43-.4-.81-.85-1.13-1.34-.68-1.05-1.05-2.17-1.22-3.4,0,0,0,0,0,0-.04-.31-.09-.62-.11-.93,0-.01,0-.02,0-.04-.17-1.56-.15-3.05.74-4.42.1-.16.07-.4-.07-.53-1.24-1.18-1.77-2.8-1.72-4.48.02-.82.18-1.62.43-2.4.27-.85.52-1.72,1.11-2.41,1-1.18,2.48-1.94,3.89-2.5,1.72-.69,3.54-1.13,5.4-1.18,1.09-.03,2.18.08,3.25.24.86.13,1.65.25,2.31-.45.23-.24.35-.54.51-.83.2-.37.43-.74.67-1.08.48-.68,1.04-1.3,1.65-1.87,2.47-2.29,5.81-3.59,9.13-3.97,2.12-.24,4.18-.14,6.27.23.96.17,1.52-.41,2.29-.87.78-.46,1.41-1.1,2.22-1.52.41-.21.83-.38,1.27-.51.46-.14.93-.19,1.35-.42.8-.43,1.6-.82,2.48-1.08.93-.27,1.92-.3,2.87-.18.93.13,1.79.58,2.72.66.96.08,1.91.33,2.77.75.44.21.81.45,1.29.56.5.12.98.26,1.44.48.85.4,1.54.99,2.2,1.65.33.33.63.67.89,1.07.24.36.34.78.81.83,1.71.18,3.27.89,4.43,2.17.27.3.48.62.71.95.25.36.57.55.96.74.84.41,1.54,1.09,2.51,1.18.47.04,1-.06,1.47-.08.55-.02,1.1-.03,1.66-.01.98.03,1.96.14,2.93.32,1.76.31,3.49.85,5.07,1.69.79.42,1.56.92,2.26,1.48.67.54,1.38,1.1,1.93,1.76,1.2,1.44,1.45,3.64.98,5.41ZM84.17,36.98c-.05.07-.08.06,0,0h0Z"/>
  <path class="st2" d="M84.17,36.98c-.08.06-.05.07,0,0h0Z"/>
  <g>
    <g>
      <path class="st4" d="M55.39,9.52c.34-.31.72-.65,1.09-1-.14-.17-.29-.33-.44-.49-.01,0-.05-.01-.06,0-.04.04-.07.07-.12.11-.33.3-.65.6-1,.92.18.16.35.3.53.46h0Z"/>
      <path class="st4" d="M55.49,9.68c.06.06.12.13.17.2.07.1.16.19.23.3.32-.2.64-.4.96-.6-.12-.18-.23-.35-.34-.53-.03-.06-.07-.05-.11-.02-.08.06-.16.1-.24.16-.22.14-.43.28-.66.42-.04.03-.04.05-.01.09h0Z"/>
      <path class="st4" d="M57.4,11.74c-.05-.29-.24-.5-.46-.67-.17-.12-.36-.23-.53-.35l-.21-.12c.43.7.75,1.43.95,2.23.02-.04.03-.06.05-.09.07-.21.14-.43.19-.64.03-.12.04-.26.02-.37Z"/>
      <path class="st4" d="M44.4,9.01c-.06.19-.13.38-.24.54-.14.21-.33.38-.53.54-.29.23-.6.43-.85.71-.18.2-.3.43-.33.7-.01.18-.02.37,0,.57.02.18.06.38.11.56.04.15.12.3.21.44.07.12.16.21.24.33.08-.28.13-.55.21-.8.11-.31.21-.63.35-.94.13-.29.29-.58.44-.85s.45-.7.71-1.01c.31-.37.64-.7,1.01-1,.29-.24.58-.46.91-.63.28-.16.57-.3.85-.43.21-.09.43-.17.65-.24.27-.08.55-.14.82-.19.2-.04.4-.07.59-.09.24-.01.5-.02.74-.01.27.01.53.03.8.06.2.03.4.06.6.11.23.06.45.12.67.2.24.08.48.18.71.29.3.14.58.3.86.48h.02c-.05-.1-.11-.21-.16-.32-.06-.13-.11-.25-.16-.39-.07-.21-.15-.43-.28-.62-.15-.23-.35-.34-.62-.34-.34,0-.65.11-.98.15-.16.02-.31.05-.47.03-.28-.03-.51-.18-.71-.37-.2-.18-.4-.37-.64-.51-.11-.06-.21-.1-.32-.15-.11,0-.2,0-.31,0-.07.02-.13.04-.19.07-.23.08-.42.22-.62.36-.25.19-.5.38-.76.57-.18.13-.4.22-.63.24-.35.04-.7.04-1.06.06-.24.01-.47.03-.7.13-.19.07-.33.18-.46.33-.06.07-.09.17-.15.24-.12.19-.15.42-.22.62-.07.2-.1.41-.16.6h.01Z"/>
      <path class="st4" d="M56.76,13.37v-.02c-.01-.19-.06-.38-.11-.56-.06-.21-.12-.42-.21-.61-.13-.31-.27-.63-.42-.92-.13-.26-.3-.51-.47-.75-.29-.42-.62-.79-.99-1.13-.35-.32-.72-.6-1.14-.84-.26-.14-.52-.29-.79-.41-.3-.13-.61-.24-.94-.31-.25-.05-.49-.11-.74-.14-.19-.03-.4-.04-.6-.05-.37-.02-.74,0-1.11.06-.21.03-.41.07-.62.13-.22.06-.45.12-.67.2-.23.09-.46.19-.68.29-.27.14-.53.29-.79.45-.29.19-.55.41-.81.64-.31.3-.6.6-.85.95-.19.26-.36.54-.52.81-.17.28-.3.58-.43.89-.18.44-.3.89-.4,1.35-.02.08-.03.17-.07.24-.19.34-.51.5-.9.51-.25,0-.48-.08-.67-.24-.33-.28-.44-.67-.34-1.07.06-.27.15-.53.26-.79.14-.35.3-.69.47-1.03.22-.4.47-.79.76-1.14.27-.32.54-.63.87-.9.08-.06.14-.15.15-.24,0-.03.02-.06.02-.09.03-.1.05-.2.08-.32-.02,0-.03,0-.04.02-.09.05-.17.09-.26.15-.22.14-.44.27-.66.41-.13.09-.24.19-.36.29-.13.12-.27.22-.39.35-.14.15-.3.29-.42.44-.21.27-.44.55-.62.84-.16.23-.28.48-.42.72-.08.15-.16.32-.22.49-.08.21-.15.42-.22.63-.09.25-.15.52-.18.78-.02.23-.02.46.02.69.04.17.1.32.21.45.21.27.51.4.84.45.19.03.4.03.6.04,1.65,0,3.3-.03,4.96-.05,2.69-.02,5.37-.05,8.07-.07.28,0,.57,0,.85-.07.29-.06.54-.19.73-.43.13-.16.19-.34.21-.54.01-.18.01-.37,0-.55h-.02ZM52.44,12.32c-.11,0-.19-.09-.2-.2,0-.11.09-.19.19-.2.11,0,.2.08.21.19,0,.11-.09.19-.2.2ZM52.92,11.01c-.11,0-.19-.09-.2-.2,0-.11.09-.19.2-.2.11,0,.19.09.2.2,0,.11-.09.19-.2.2ZM54.01,12c-.11,0-.19-.09-.2-.2,0-.11.09-.19.2-.2.11,0,.2.08.2.2,0,.11-.08.19-.2.2Z"/>
    </g>
    <g>
      <path class="st1" d="M51.03,12.41s.03.06.04.1c-.23.11-.45.21-.68.32-.53-1.13-1.06-2.26-1.59-3.39.23-.11.45-.21.68-.32.51,1.1,1.03,2.19,1.54,3.29Z"/>
      <path class="st1" d="M47.94,10.54c-.09-.19-.18-.38-.27-.57.23-.11.45-.21.68-.32.53,1.13,1.06,2.25,1.59,3.39-.23.11-.45.21-.68.32-.44-.94-.88-1.87-1.32-2.82Z"/>
      <path class="st1" d="M51.6,13.23c.07-.03.12-.05.19-.08.24.51.48,1.02.72,1.54h-.13c-.93,0-1.85,0-2.78,0-.1,0-.16-.03-.2-.13-.03-.08-.07-.16-.11-.25.26-.12.52-.24.79-.37.05.11.11.22.16.33.3-.14.59-.28.89-.42-.05-.11-.1-.22-.16-.34.21-.1.4-.19.61-.28Z"/>
      <path class="st1" d="M52.91,15.06h-3.95v-.27h4.03c0,.07,0,.14,0,.21,0,.02-.04.04-.07.05Z"/>
      <path class="st1" d="M48.07,9.07c-.05-.11-.1-.2-.15-.31.15-.07.3-.14.46-.21.05.11.11.22.16.34.26-.12.52-.24.79-.37.04.08.07.15.11.23-.26.12-.52.25-.79.37-.02-.03-.04-.06-.07-.1-.14.07-.28.13-.43.2.01.04.03.07.04.12-.26.12-.52.24-.79.37-.04-.08-.07-.15-.11-.23.23-.11.45-.21.67-.31.04-.02.08-.05.11-.08Z"/>
      <path class="st1" d="M51.15,13.31c-.15.07-.29.13-.44.2-.04-.07-.07-.15-.11-.23.34-.16.68-.32,1.02-.48.04.07.07.15.11.23-.19.09-.38.18-.58.28Z"/>
      <path class="st1" d="M49.32,14.16c-.06.03-.1.04-.12-.03-.02-.06-.05-.11-.07-.16.34-.16.67-.31,1.02-.48.04.07.07.15.11.23-.32.15-.63.29-.94.44Z"/>
      <path class="st1" d="M51.55,12.68c-.1.06-.19.11-.3.16-.23.11-.46.22-.71.33-.04-.08-.07-.15-.11-.23.21-.1.41-.19.62-.29.03,0,.05-.02.07-.03.16-.12.3-.09.42.06Z"/>
      <path class="st1" d="M49.26,13.78c-.06.03-.11.05-.17.08,0-.08,0-.16,0-.23,0-.03.04-.07.07-.08.27-.13.55-.26.83-.39.04.07.07.14.11.23-.29.13-.57.26-.85.4Z"/>
      <path class="st1" d="M47.89,9.6l.36-.17s.03.07.05.12c-.23.11-.45.21-.68.32l-.06-.12c.11-.05.21-.1.32-.15Z"/>
      <path class="st1" d="M49.14,9.01c.08-.04.15-.07.23-.11.02.03.04.07.06.12-.23.11-.45.21-.68.32-.02-.04-.04-.07-.06-.12.15-.07.3-.14.45-.21Z"/>
      <path class="st1" d="M48.83,9.99s-.06.03-.09.04c-.04-.07-.07-.15-.11-.23.04-.02.07-.03.13-.06.03.09.05.17.07.25Z"/>
    </g>
  </g>
</svg>