<?xml version="1.0" encoding="UTF-8"?>
<svg id="Layer_1" data-name="Layer 1" xmlns="http://www.w3.org/2000/svg" xmlns:xlink="http://www.w3.org/1999/xlink" viewBox="0 0 142.98 133.99">
  <defs>
    <style>
      .cls-1 {
        fill: none;
      }

      .cls-2 {
        fill: #cf6b1d;
      }

      .cls-3 {
        fill: #e8921d;
      }

      .cls-4 {
        fill: #71c5f0;
      }

      .cls-5 {
        fill: #c25f18;
      }

      .cls-6 {
        fill: #006daf;
      }

      .cls-7 {
        fill: #1e2a4c;
      }

      .cls-8 {
        fill: #0f75bb;
      }

      .cls-9 {
        fill: #1b2746;
      }

      .cls-10 {
        fill: url(#Degradado_sin_nombre_6-12);
      }

      .cls-11 {
        fill: url(#Degradado_sin_nombre_6-17);
      }

      .cls-12 {
        fill: url(#Degradado_sin_nombre_6-15);
      }

      .cls-13 {
        fill: url(#Degradado_sin_nombre_6-16);
      }

      .cls-14 {
        fill: url(#Degradado_sin_nombre_6-18);
      }

      .cls-15 {
        fill: url(#Degradado_sin_nombre_6-13);
      }

      .cls-16 {
        fill: url(#Degradado_sin_nombre_6-14);
      }

      .cls-17 {
        fill: url(#Degradado_sin_nombre_6-19);
      }

      .cls-18 {
        fill: url(#Degradado_sin_nombre_6-10);
      }

      .cls-19 {
        fill: url(#Degradado_sin_nombre_6-11);
      }

      .cls-20 {
        fill: #1c2748;
      }

      .cls-21 {
        fill: #21a1db;
      }

      .cls-22 {
        fill: #fff;
      }

      .cls-23 {
        fill: #1d2a4c;
      }

      .cls-24 {
        fill: url(#Degradado_sin_nombre_6-4);
      }

      .cls-25 {
        fill: url(#Degradado_sin_nombre_6-7);
      }

      .cls-26 {
        fill: url(#Degradado_sin_nombre_6-6);
      }

      .cls-27 {
        fill: url(#Degradado_sin_nombre_6-8);
      }

      .cls-28 {
        fill: url(#Degradado_sin_nombre_6-5);
      }

      .cls-29 {
        fill: url(#Degradado_sin_nombre_6-3);
      }

      .cls-30 {
        fill: url(#Degradado_sin_nombre_6-2);
      }

      .cls-31 {
        fill: url(#Degradado_sin_nombre_6-9);
      }

      .cls-32 {
        fill: url(#Degradado_sin_nombre_6);
      }

      .cls-33 {
        fill: #1c2a4a;
      }

      .cls-34 {
        fill: #fdfaf7;
      }

      .cls-35 {
        fill: #fbc00d;
      }

      .cls-36 {
        fill: #1e2b4d;
      }

      .cls-37 {
        fill: #1f284c;
      }

      .cls-38 {
        fill: #f08515;
      }

      .cls-39 {
        fill: #71c2ed;
      }

      .cls-40 {
        fill: #be5d1b;
      }

      .cls-41 {
        fill: #1c2a4b;
      }

      .cls-42 {
        fill: #090909;
      }

      .cls-43 {
        fill: #8b4d1d;
      }

      .cls-44 {
        fill: #f08516;
      }
    </style>
    <linearGradient id="Degradado_sin_nombre_6" data-name="Degradado sin nombre 6" x1="30.9" y1="65.83" x2="44.27" y2="65.83" gradientUnits="userSpaceOnUse">
      <stop offset="0" stop-color="#fbc303"/>
      <stop offset="1" stop-color="#f2901a"/>
    </linearGradient>
    <linearGradient id="Degradado_sin_nombre_6-2" data-name="Degradado sin nombre 6" x1="44.56" y1="51.81" x2="52.23" y2="51.81" xlink:href="#Degradado_sin_nombre_6"/>
    <linearGradient id="Degradado_sin_nombre_6-3" data-name="Degradado sin nombre 6" x1="52.87" y1="47.18" x2="60.86" y2="47.18" xlink:href="#Degradado_sin_nombre_6"/>
    <linearGradient id="Degradado_sin_nombre_6-4" data-name="Degradado sin nombre 6" x1="98.72" y1="32.42" x2="106.59" y2="32.42" xlink:href="#Degradado_sin_nombre_6"/>
    <linearGradient id="Degradado_sin_nombre_6-5" data-name="Degradado sin nombre 6" x1="60.79" y1="44.13" x2="68.13" y2="44.13" xlink:href="#Degradado_sin_nombre_6"/>
    <linearGradient id="Degradado_sin_nombre_6-6" data-name="Degradado sin nombre 6" x1="68.3" y1="40.62" x2="76.18" y2="40.62" xlink:href="#Degradado_sin_nombre_6"/>
    <linearGradient id="Degradado_sin_nombre_6-7" data-name="Degradado sin nombre 6" x1="76.57" y1="38.3" x2="81.51" y2="38.3" xlink:href="#Degradado_sin_nombre_6"/>
    <linearGradient id="Degradado_sin_nombre_6-8" data-name="Degradado sin nombre 6" x1="82.45" y1="36.8" x2="87.17" y2="36.8" xlink:href="#Degradado_sin_nombre_6"/>
    <linearGradient id="Degradado_sin_nombre_6-9" data-name="Degradado sin nombre 6" x1="88.09" y1="35.29" x2="90.94" y2="35.29" xlink:href="#Degradado_sin_nombre_6"/>
    <linearGradient id="Degradado_sin_nombre_6-10" data-name="Degradado sin nombre 6" x1="91.58" y1="34.07" x2="98.6" y2="34.07" xlink:href="#Degradado_sin_nombre_6"/>
    <linearGradient id="Degradado_sin_nombre_6-11" data-name="Degradado sin nombre 6" x1="47.23" y1="64.89" x2="56.84" y2="64.89" xlink:href="#Degradado_sin_nombre_6"/>
    <linearGradient id="Degradado_sin_nombre_6-12" data-name="Degradado sin nombre 6" x1="57.65" y1="59.84" x2="65.81" y2="59.84" xlink:href="#Degradado_sin_nombre_6"/>
    <linearGradient id="Degradado_sin_nombre_6-13" data-name="Degradado sin nombre 6" x1="65.56" y1="54.64" x2="73.78" y2="54.64" xlink:href="#Degradado_sin_nombre_6"/>
    <linearGradient id="Degradado_sin_nombre_6-14" data-name="Degradado sin nombre 6" x1="73.36" y1="52.15" x2="79.65" y2="52.15" xlink:href="#Degradado_sin_nombre_6"/>
    <linearGradient id="Degradado_sin_nombre_6-15" data-name="Degradado sin nombre 6" x1="107.45" y1="40.8" x2="113.47" y2="40.8" xlink:href="#Degradado_sin_nombre_6"/>
    <linearGradient id="Degradado_sin_nombre_6-16" data-name="Degradado sin nombre 6" x1="100.4" y1="42.9" x2="107" y2="42.9" xlink:href="#Degradado_sin_nombre_6"/>
    <linearGradient id="Degradado_sin_nombre_6-17" data-name="Degradado sin nombre 6" x1="79.9" y1="49.38" x2="86.92" y2="49.38" xlink:href="#Degradado_sin_nombre_6"/>
    <linearGradient id="Degradado_sin_nombre_6-18" data-name="Degradado sin nombre 6" x1="88.24" y1="46.39" x2="93.7" y2="46.39" xlink:href="#Degradado_sin_nombre_6"/>
    <linearGradient id="Degradado_sin_nombre_6-19" data-name="Degradado sin nombre 6" x1="94.09" y1="44.09" x2="100.55" y2="44.09" xlink:href="#Degradado_sin_nombre_6"/>
  </defs>
  <path class="cls-2" d="M79.5,77.02s3.87.7,7.49-.06c0,0,1.19-.36,1.79-1.14.18-.24.12-.58-.14-.73-.21-.12-.48-.27-.75-.39-.43-.19-.91-.22-1.36-.09-1.47.41-6.29,1.78-7.02,2.41Z"/>
  <path class="cls-22" d="M112.72,80.19c-.04-.75-.08-1.52-.65-2.08-.13-.13-.28-.23-.43-.32,1.13-5.56,1.08-11.8-1.64-16.86-.92-1.72-2.36-3.61-4.3-4.17-1.26-1.44-2.53-2.86-3.99-4.1-1.27-1.08-3.46-3.09-5.19-1.68-1.49,1.22-.49,3.3.35,4.58.66,1.01,1.38,1.88,2.22,2.65-.08.04-.16.08-.24.13-.56.3-1.03.6-1.27,1.23-.03.08-.05.16-.07.25-.95.32-1.93.75-2.57,1.44-.92,1-.42,2.67.91,2.97,1.36.3,3.06-.05,4.37-.4.5-.13,1-.29,1.49-.48-.57,2.34-1.63,4.64-3.17,6.54-.14-.04-.29-.06-.46-.06-1.05,0-2.14.49-3.06.94-1.66.81-3.23,2.07-3.94,3.8-.07.02-.15.04-.22.06-.98-2.11-5.3-2.52-7.69-2.53-.31-.63-.63-1.26-.94-1.89-.13-.25-.29-.85-.51-1.02,0,0,0,0,0,0-.04-.1-.08-.2-.13-.3-.83-1.88-2.04-3.71-3.7-4.94-1.01-.75-2.23-1.22-3.5-1.16-1.9.08-3.43,1.34-5.09,2.13-.62.29-1.24.56-1.89.77-.3.1-.59.18-.9.25-.1.02-.51.09-.54.1-.21.01-.42,0-.62.02-.03,0-.04,0-.06,0-.31-.01-.61.03-.93.08-2.61.4-4.7,2.27-5.12,4.91-.21,1.33-.2,2.73-.28,4.06-.07,1.17-.15,2.35-.22,3.52-.02.35-.06.7-.07,1.05-.31.07-.64.24-.93.34-.62.22-1.23.43-1.85.65-.79.28-1.63.5-2.39.86-1.3.63-2.84,1.85-2.94,3.42-.07,1.24.8,2.18,1.76,2.81.88.58,1.92.96,2.92,1.27-.42.91-.78,1.85-1.07,2.82-1.18.58-2.42,1.16-3.18,2.42-.79,1.33-.89,3.1-.11,4.46.4.7,1,1.12,1.63,1.58.71.52,1.43.95,2.27,1.22.95.3,1.97.35,2.95.21.22.22.44.44.67.64-.77.88-1.29,1.97-1.18,3.18.23,2.35,2.62,3.58,4.67,4.08,2.42.59,5.08.38,7.53.12,8.41-.88,16.81-3.54,24.08-7.87,4.64-2.76,8.77-6.28,12.03-10.58,2.15-.88,4.03-2.25,5.34-4.2,1.37-2.04,1.87-4.48,1.81-6.91ZM65.57,66.07s-.02,0-.04,0c.01,0,.03,0,.04,0ZM58.68,79.75c0,.06-.03.15,0,.17-.05-.07-.03-.12,0-.17Z"/>
  <g>
    <path class="cls-1" d="M41.5,65.37c-.11-.1-.19-.23-.36-.23-1.54-1.57-3.46-2.84-4.81-4.59-2.9-3.77.6-6.31,4.1-7.24.53-.14,1.14-.15,1.63-.37.18-.23.36-3.04.35-3.5.02-.1.03-.21.02-.31l.07-.96s0,0,0,0l-.07.96c0,.1,0,.22-.02.31,0,.47-.17,3.28-.35,3.5-.49.22-1.09.23-1.63.37-3.49.93-7,3.47-4.1,7.24,1.35,1.75,3.27,3.02,4.81,4.59.18,0,.25.12.36.23.76.69,1.56,1.65,2,2.59,3,6.43-3.19,12.54-8.62,14.88-.56.24-1.14.45-1.72.63h0c.58-.18,1.17-.39,1.72-.63,5.43-2.35,11.62-8.45,8.62-14.88-.44-.93-1.23-1.9-2-2.59Z"/>
    <path d="M38.5,62.2c-1.34-1.26-3.43-3.17-2.67-5.22.41-1.12,3.17-2.09,4.29-2.34.34-.07,1.07-.07,1.29-.16.32-.14.41-.81.64-1,.14-.12.41-.12.44-.15.07-.09.26-1.93.28-2.21.1-1.1.09-2.21.18-3.31-1.74.15-3.53.97-5.05,1.8-4.48,2.45-10.16,8.38-8.65,13.94,1.29,4.73,7.33,6.33,8.19,10.23.14.62.23,2.01-.17,2.52-.24.31-1.82,1.24-2.25,1.47-.36.2-2.23,1.01-2.33,1.12-.18.21,0,.5-.17.73-.17.24-1.03.51-1.1.72v5.31c1.76-.56,3.51-1.17,5.11-2.11,4.84-2.84,10.3-10.42,7.16-16.11-1.18-2.14-3.44-3.61-5.19-5.25ZM34.87,82.84c-.56.24-1.14.45-1.72.63h0s0,0,0,0c0-.36,0-.73,0-1.09-.15-.09-.09-.34-.09-.5,0-.65,0-1.3,0-1.95,0-.16-.03-.76.01-.81.04-.04.9-.37,1.05-.43.41-.21,2.57-1.39,3.01-1.72,2.17-1.62,3.11-4.31,1.91-6.85-.1,0-.95-1.27-1.18-1.5-1.01-1.02-2.44-1.94-3.54-2.95-.54-.49-1.07-.99-1.54-1.54-.39-.45-.61-.75-.91-1.27-1.11-1.91-1.34-4.05-.36-6.08,0-.03,0-.06,0-.09.5-1.7,1.54-2.92,2.81-4.08,2.3-2.1,5.13-3.67,8.17-4.45h0s0,0,0,0l-.07.96c0,.1,0,.22-.02.31,0,.47-.17,3.28-.35,3.5-.49.22-1.09.23-1.63.37-3.49.93-7,3.47-4.1,7.24,1.35,1.75,3.27,3.02,4.81,4.59.18,0,.25.12.36.23.76.69,1.56,1.65,2,2.59,3,6.43-3.19,12.54-8.62,14.88Z"/>
    <g>
      <path class="cls-32" d="M43.49,67.96c-.44-.93-1.23-1.9-2-2.59-.11-.1-.19-.23-.36-.23-1.54-1.57-3.46-2.84-4.81-4.59-2.9-3.77.6-6.31,4.1-7.24.53-.14,1.14-.15,1.63-.37.18-.23.36-3.04.35-3.5.02-.1.03-.21.02-.31l.07-.96c-3.03.77-5.86,2.35-8.17,4.45-1.27,1.16-2.31,2.38-2.81,4.08,0,.03,0,.06,0,.09-.97,2.03-.74,4.17.36,6.08.3.52.52.82.91,1.27.48.56,1,1.05,1.54,1.54,1.11,1,2.53,1.92,3.54,2.95.23.23,1.08,1.5,1.18,1.5,1.2,2.54.26,5.23-1.91,6.85-.45.33-2.71,1.58-3.04,1.73-.36.14-.99.38-1.03.42-.04.05,0,.65-.01.81-.01.65,0,1.3,0,1.95,0,.15-.06.4.09.5,0,.36,0,.73,0,1.09.58-.18,1.17-.39,1.72-.63,5.43-2.35,11.62-8.45,8.62-14.88Z"/>
      <path d="M33.06,83.59v-.12c0-.18,0-.36,0-.55,0-.17,0-.33,0-.5-.12-.11-.11-.3-.1-.43,0-.04,0-.07,0-.1,0-.71,0-1.35,0-1.95,0-.04,0-.13,0-.22-.01-.51,0-.6.04-.64.04-.04.2-.11,1.02-.43l.04-.02c.33-.15,2.58-1.39,3.01-1.72,2.23-1.67,2.99-4.36,1.9-6.71-.08-.05-.22-.23-.63-.79-.22-.3-.45-.61-.55-.71-.56-.57-1.27-1.12-1.95-1.64-.54-.42-1.1-.85-1.59-1.3-.6-.55-1.09-1.02-1.55-1.55-.41-.47-.62-.77-.92-1.28-1.17-2.02-1.3-4.2-.37-6.15,0-.03,0-.06,0-.09.55-1.85,1.74-3.12,2.84-4.12,2.36-2.16,5.2-3.7,8.2-4.47l.12-.03-.08,1.08c0,.1,0,.22-.02.32,0,.38-.16,3.28-.37,3.55v.02s-.03,0-.03,0c-.31.14-.66.19-1,.25-.21.03-.43.07-.64.12-2.59.69-4.44,2.01-4.96,3.54-.37,1.1-.07,2.3.91,3.57.81,1.05,1.85,1.95,2.85,2.81.65.56,1.32,1.13,1.92,1.75.15.01.24.1.32.18.02.02.04.04.06.06.86.78,1.62,1.76,2.02,2.62.98,2.11,1.05,4.31.21,6.53-1.56,4.09-5.75,7.12-8.88,8.47-.52.22-1.08.43-1.73.64l-.11.04ZM33.14,79.19c-.01.09,0,.37,0,.53,0,.1,0,.18,0,.23,0,.61-.01,1.25,0,1.95,0,.04,0,.08,0,.12,0,.12-.02.26.06.31l.04.03v.05c0,.18,0,.36,0,.55,0,.14,0,.28,0,.43.6-.19,1.12-.39,1.6-.6,3.09-1.34,7.25-4.33,8.78-8.37.83-2.18.76-4.33-.2-6.4h0c-.39-.83-1.13-1.79-1.98-2.56-.03-.02-.05-.05-.07-.07-.08-.08-.13-.13-.23-.13h-.04s-.03-.03-.03-.03c-.6-.62-1.28-1.2-1.93-1.76-1.01-.87-2.06-1.77-2.88-2.83-1.01-1.31-1.33-2.57-.93-3.73.53-1.58,2.43-2.94,5.07-3.65.21-.06.44-.09.65-.13.32-.05.66-.11.94-.23.15-.29.34-2.92.33-3.43h0s0-.02,0-.02c.02-.09.02-.19.02-.29l.06-.85c-2.93.77-5.7,2.29-8.01,4.4-1.08.98-2.25,2.23-2.79,4.04,0,.03,0,.06,0,.09-.93,1.94-.8,4.02.35,6.01.29.5.5.79.9,1.26.45.53.94.99,1.54,1.54.48.44,1.04.87,1.58,1.29.69.53,1.4,1.08,1.97,1.66.11.11.33.41.56.73.21.29.49.67.57.74h.03s.02.05.02.05c1.15,2.44.37,5.23-1.94,6.95-.46.34-2.7,1.58-3.05,1.74l-.05.02c-.27.1-.83.31-.95.38Z"/>
    </g>
    <g>
      <polygon points="50.81 56.35 51.54 44.99 49.11 46.17 48.89 52.15 46.68 47.27 44.15 48.83 45.07 49.7 43.88 60.76 46.24 59.38 46.65 52.91 48.84 57.51 50.81 56.35"/>
      <path d="M43.36,61.56l1.26-11.7-1.17-1.1,3.43-2.11,1.66,3.66.16-4.41,3.33-1.61-.8,12.32-2.57,1.52-1.68-3.53-.32,5.04-3.29,1.93ZM44.85,48.9l.67.63-1.13,10.43,1.43-.83.5-7.9,2.7,5.68,1.37-.81.67-10.39-1.54.74-.28,7.55-2.76-6.1-1.63,1.01Z"/>
    </g>
    <g>
      <path d="M54.69,53.61c1.96.37,4.11-1.73,4.79-4.67.35-1.51.25-2.95-.19-4.05l.88-1.05s-1.4-1.33-3.56-.94h0c-1.79.08-3.6,2.05-4.22,4.71-.69,2.95.34,5.63,2.3,6ZM53.88,47.66c.4-1.93,1.68-3.3,2.84-3.05.43.09.78.38,1.04.82l-.54.29.79,1.54c.15.29.21.61.16.93-.02.12-.04.24-.06.36-.4,1.93-1.68,3.3-2.84,3.05-1.17-.24-1.78-2.01-1.38-3.94Z"/>
      <path d="M55.13,54.08c-.17,0-.35-.02-.52-.05h0c-.81-.15-1.51-.65-2.03-1.43-.83-1.28-1.06-3.18-.62-5.09.66-2.81,2.59-4.93,4.59-5.04,2.33-.41,3.84.99,3.9,1.05l.29.28-.97,1.17c.41,1.18.46,2.61.12,4.06-.68,2.91-2.75,5.05-4.77,5.05ZM54.77,53.19c1.73.32,3.66-1.63,4.3-4.35.32-1.36.25-2.74-.17-3.79l-.1-.24.76-.91c-.49-.33-1.51-.83-2.86-.58h-.06c-1.62.08-3.26,1.96-3.82,4.39-.39,1.69-.21,3.34.5,4.43.38.58.89.95,1.46,1.05h0ZM55.54,52.05c-.12,0-.24-.01-.37-.04-.72-.15-1.28-.72-1.6-1.61-.29-.82-.33-1.82-.12-2.83.46-2.2,1.93-3.68,3.35-3.39.53.11.99.46,1.32,1.02l.23.39-.57.3.59,1.16c.19.38.26.79.21,1.19-.02.13-.04.26-.07.39-.21,1.01-.65,1.91-1.24,2.55-.53.57-1.14.88-1.74.88ZM56.44,45.01c-.87,0-1.82,1.19-2.14,2.74h0c-.18.86-.15,1.7.09,2.37.12.35.41.94.96,1.06.55.12,1.06-.32,1.3-.58.48-.52.85-1.28,1.03-2.14.02-.11.04-.22.06-.34.03-.22-.01-.46-.12-.67l-.98-1.92.46-.24c-.13-.12-.28-.21-.47-.25-.06-.01-.13-.02-.19-.02Z"/>
    </g>
    <g>
      <path d="M101.61,33.79l.83-.11c.27-.03.48.16.47.43h0c0,.31-.07.5-.29.69-.37.33-2.2.88-2.38-.44-.18-1.32.61-3.59,3.66-3.02l.92-1.41s-.35-.48-2.44-.18h0c-1.73.07-3.5,1.47-4.12,3.34-.69,2.07.28,3.94,2.17,4.18s4.56-.59,4.86-3.36c.02-.15,0-.29,0-.42-.01-.18.12-.33.29-.35l.32-.03-.04-1.16-4.39.74.14,1.09Z"/>
      <path d="M101.05,37.57c-.23,0-.45-.01-.65-.04-.91-.12-1.66-.59-2.13-1.33-.55-.87-.64-2.04-.26-3.19.65-1.95,2.48-3.43,4.34-3.51,2.07-.29,2.57.15,2.67.29l.11.14-1.11,1.71-.17-.03c-1.15-.21-2.04-.03-2.64.54-.66.63-.8,1.57-.72,2.18.04.29.17.46.41.55.52.2,1.35-.1,1.55-.27.15-.13.2-.25.2-.5,0-.06-.01-.1-.05-.13-.03-.03-.08-.04-.13-.04l-1.09.14-.2-1.6,4.93-.83.05,1.7-.56.05s-.06.03-.06.07v.04c.01.12.02.26,0,.42-.12,1.09-.61,2-1.42,2.64-.93.73-2.11.99-3.08.99ZM103.58,29.92c-.3,0-.68.03-1.16.09h-.03c-1.64.07-3.31,1.43-3.89,3.16-.34,1.01-.26,2.01.2,2.75.38.61,1.01,1,1.76,1.09.95.12,2.33-.04,3.35-.84.71-.56,1.12-1.33,1.23-2.29.01-.11,0-.22,0-.32v-.04c-.03-.31.21-.59.52-.62h.08s-.02-.63-.02-.63l-3.86.65.07.59.57-.07c.2-.03.4.03.55.17.14.13.22.32.22.53,0,.4-.12.65-.38.88-.32.28-1.35.64-2.07.37-.29-.11-.66-.36-.74-.97-.1-.73.07-1.86.87-2.63.48-.46,1.38-.95,2.92-.71l.68-1.04c-.15-.05-.42-.11-.87-.11Z"/>
    </g>
    <g>
      <path d="M60.99,42.36v.56s-.3,8.22-.3,8.22l2.44-1.08-.13-3.96,1.95,3.11,2.5-1.11-2.14-3.02s.89-.47,1.62-1.69c.46-.77.63-1.69.4-2.55-.06-.21-.14-.42-.25-.59-.39-.59-.85-1.96-4.43-.06l-2.53,1.49.13.92.75-.25ZM63.24,42.19c1.69-.71,1.67.53,1.37,1.06-.29.52-1.3,1.14-1.3,1.14l-.07-2.2Z"/>
      <path d="M60.23,51.82l.33-8.87-.68.22-.24-1.72,2.79-1.64c3.22-1.71,4.27-.98,4.91.08.03.05.05.09.08.13.13.19.23.43.31.71.26.94.1,1.99-.44,2.89-.48.8-1.02,1.3-1.39,1.58l2.19,3.09-3.32,1.48-1.3-2.08.08,2.65-3.33,1.48ZM61.42,41.77v1.16s-.28,7.55-.28,7.55l1.54-.68-.17-5.26,2.6,4.15,1.68-.75-2.12-2.99.43-.23s.8-.44,1.46-1.53c.42-.7.55-1.51.35-2.22-.05-.19-.12-.35-.19-.46-.03-.05-.06-.1-.1-.16-.33-.53-.82-1.33-3.77.23l-2.27,1.34.02.13.83-.27ZM62.91,45.14l-.1-3.23.27-.11c1.07-.45,1.6-.2,1.86.09.38.42.32,1.11.06,1.57-.34.61-1.34,1.23-1.45,1.3l-.63.38ZM63.68,42.49l.03,1.09c.23-.18.43-.38.52-.54.11-.19.13-.49.05-.58-.04-.05-.22-.09-.61.03Z"/>
    </g>
    <g>
      <polygon points="68.47 39.57 68.39 47.7 70.42 46.85 70.3 42.97 72.39 46.05 74.73 45.13 71.94 41.23 75.49 35.65 72.17 36.69 70.55 40.89 70.72 37.16 67.62 38.22 67.89 39.77 68.47 39.57"/>
      <path d="M67.96,48.35l.07-8.18-.48.17-.42-2.41,4.04-1.38-.08,1.72.74-1.94,4.65-1.45-4.03,6.32,2.95,4.12-3.18,1.24-1.45-2.13.09,2.69-2.9,1.22ZM68.9,38.96l-.07,8.09,1.15-.49-.16-5.06.26.38.18-4.11-2.15.74.12.68.68-.24ZM70.43,42.4l2.12,3.12,1.51-.59-2.64-3.69,3.08-4.83-2,.62-2.06,5.37Z"/>
    </g>
    <g>
      <polygon points="80.67 42.98 80.61 41.06 77.83 42 77.81 40.33 80.16 39.74 80 38.04 78.24 38.46 78.19 36.91 80.69 36.37 80.82 34.14 75.88 35.54 75.93 37.14 76.52 36.97 76.17 44.59 80.67 42.98"/>
      <path d="M75.71,45.21l.35-7.65-.54.16-.08-2.5,5.84-1.65-.18,3.16-2.48.54.02.66,1.73-.41.24,2.56-2.38.6v.74s2.78-.94,2.78-.94l.08,2.81-5.4,1.93ZM76.98,36.38l-.35,7.58,3.6-1.29-.03-1.02-2.79.94-.04-2.6,2.32-.58-.08-.83-1.79.42-.08-2.43,2.54-.55.07-1.3-4.03,1.14.02.71.63-.19Z"/>
    </g>
    <g>
      <polygon points="84.85 33.12 82.11 33.8 81.76 42.61 86.48 41.09 86.43 39.33 84.07 40.13 84.85 33.12"/>
      <path d="M81.31,43.2l.38-9.74,3.66-.92-.77,6.95,2.27-.77.09,2.67-5.62,1.8ZM82.52,34.14l-.31,7.87,3.83-1.23-.03-.86-2.45.83.79-7.07-1.83.46Z"/>
    </g>
    <g>
      <polygon points="90.26 31.89 87.92 32.4 87.4 40.81 89.46 40.21 90.26 31.89"/>
      <path d="M86.93,41.4l.57-9.35,3.23-.7-.88,9.19-2.93.86ZM88.33,32.75l-.46,7.48,1.19-.35.71-7.44-1.44.31Z"/>
    </g>
    <g>
      <polygon points="96.82 38.27 97.91 30.46 95.16 30.94 95.05 35.11 93.74 31.2 91.05 31.73 91.46 33.2 90.89 39.81 92.91 39.26 93.04 35.27 94.8 38.77 96.82 38.27"/>
      <path d="M90.41,40.38l.61-7.15-.51-1.84,3.51-.69.66,1.96.06-2.09,3.68-.64-1.21,8.68-2.63.65-1.16-2.3-.09,2.62-2.92.79ZM91.59,32.06l.3,1.09-.52,6.08,1.12-.3.18-5.36,2.37,4.7,1.4-.35.97-6.94-1.82.32-.17,6.26-1.96-5.87-1.86.37Z"/>
    </g>
    <g>
      <path d="M50.24,58.74l.13,1.5-3.86,15.67,3.04-2.2.56-3.48,3.35-1.92v2.79l2.67-1.68-.56-13.47-5.32,2.79ZM52.9,66.46l-1.99.95,1.99-6.18v5.23Z"/>
      <path d="M45.81,76.95l4.13-16.75-.15-1.71,6.18-3.24.6,14.4-3.54,2.23v-2.83l-2.52,1.45-.56,3.46-4.13,3ZM50.69,58.99l.11,1.28-3.6,14.6,1.94-1.41.57-3.51,4.17-2.4v2.76l1.8-1.13-.52-12.54-4.47,2.35ZM50.2,68.22l3.14-9.74v8.24l-3.14,1.49ZM52.47,63.97l-.84,2.62.84-.4v-2.22Z"/>
    </g>
    <g>
      <path d="M62.39,53.12c-1.1.06-2.82.55-5.46,2.15v1.6l.98-.47-.49,12.23s4.29-2.71,6.3-5.9c.6-.95.93-2.04,1.02-3.15.1-1.26.18-3.34-.22-4.9-.24-.96-1.14-1.62-2.13-1.56ZM61.87,60.5c-.63,1.35-.93,1.82-1.44,2.38-.08.08-.21.03-.21-.09l.19-6.48s.01-.01.02-.02c.53-.54,1.45-.36,1.78.32.68,1.43-.07,3.3-.34,3.87Z"/>
      <path d="M56.95,69.43l.49-12.33-.95.46v-2.53l.21-.13c2.28-1.38,4.18-2.13,5.66-2.21h0c1.2-.07,2.28.72,2.57,1.88.4,1.57.34,3.6.23,5.04-.1,1.22-.47,2.38-1.08,3.35-2.04,3.23-6.26,5.92-6.44,6.03l-.69.44ZM58.36,55.69l-.48,12.1c1.28-.9,4.02-2.98,5.48-5.29.54-.85.87-1.87.95-2.96.09-1.12.18-3.23-.21-4.76-.19-.76-.91-1.28-1.69-1.24-.89.05-2.49.44-5.06,1.96v.67l1-.49ZM60.34,63.35c-.07,0-.14-.01-.21-.04-.22-.09-.35-.29-.34-.53l.19-6.64.14-.14c.35-.35.83-.51,1.33-.42.5.08.93.41,1.15.86.77,1.62-.06,3.66-.34,4.24h0c-.63,1.36-.95,1.87-1.51,2.49-.11.12-.25.18-.4.18ZM60.83,56.52l-.15,5.34c.22-.35.46-.81.8-1.54.17-.36.96-2.19.34-3.51-.1-.2-.29-.35-.51-.39-.17-.03-.34,0-.47.1Z"/>
    </g>
    <g>
      <polygon points="70.14 49.38 68.67 58.36 67.91 50.3 64.84 51.61 67.15 63.14 69.94 61.7 73.06 48.22 70.14 49.38"/>
      <path d="M66.84,63.79l-2.49-12.43,3.94-1.68.5,5.32.97-5.92,3.91-1.55-3.35,14.47-3.48,1.8ZM65.33,51.87l2.13,10.63,2.11-1.09,2.89-12.48-1.93.76-1.97,12.04-1.02-10.81-2.21.94Z"/>
    </g>
    <g>
      <polygon points="73.54 49.63 73.77 49.55 72.64 60.34 78.01 57.81 78.01 54.22 75.47 55.56 75.52 53.12 77.84 52.24 77.81 50.28 75.78 51.1 75.78 48.78 78.93 47.63 78.93 46.03 73.54 48.03 73.54 49.63"/>
      <path d="M72.13,61.05l1.13-10.85-.16.06v-2.52l6.25-2.32v2.52l-3.15,1.15v1.38l2.02-.82.04,2.89-2.33.89-.03,1.42,2.53-1.33v4.58l-6.31,2.97ZM74.27,48.89l-1.12,10.73,4.43-2.09v-2.6l-2.56,1.35.07-3.46,2.31-.88v-1.03s-2.05.83-2.05.83v-3.26l3.15-1.15v-.68l-4.53,1.68v.67l.3-.12Z"/>
    </g>
    <g>
      <polygon points="112.75 38.33 112.75 36.72 107.05 38.12 107.05 39.72 107.28 39.63 106.73 46.96 112.11 45.38 112.21 43.23 109.01 44.46 109.04 43.2 111.35 42.32 111.6 40.31 109.29 41.19 109.29 39.23 112.75 38.33"/>
      <path d="M106.25,47.54l.55-7.27-.18.07v-2.56l6.56-1.61v2.49l-3.46.9v1.01l2.39-.91-.36,2.97-2.29.87v.32s3.21-1.24,3.21-1.24l-.15,3.12-6.27,1.84ZM107.76,38.98l-.56,7.38,4.49-1.31.06-1.19-3.18,1.22.05-2.19,2.35-.89.13-1.04-2.22.84v-2.92l3.46-.9v-.73l-4.84,1.19v.63l.28-.11Z"/>
    </g>
    <g>
      <path d="M105.31,38.87c-1.18-.57-5.02.72-5.02.72v1.6l.23-.09-.84,8.06,2.21-.67.23-3.36,1.31,2.86,2.47-.78-1.43-2.73s1.57-1.29,1.65-2.42c.08-1.13.19-2.72-.8-3.19ZM102.4,43.4l.12-2.24s1.19-.23,1.18,1.12c0,.75-1.31,1.12-1.31,1.12Z"/>
      <path d="M99.28,49.64l.84-8.01-.17.07v-2.35l.23-.08c.41-.14,4-1.31,5.27-.71h0c1.19.57,1.08,2.26.99,3.5v.03c-.07,1.02-1.09,2.05-1.56,2.48l1.5,2.85-3.15.99-.87-1.9-.15,2.24-2.93.89ZM100.92,40.58l-.84,8.1,1.48-.45.3-4.48,1.75,3.82,1.78-.56-1.37-2.61.22-.18c.4-.33,1.47-1.37,1.52-2.18v-.03c.07-1.04.17-2.46-.6-2.83h0c-.73-.35-3.06.19-4.52.66v.85l.29-.11ZM102.03,43.86l.16-2.99.26-.05c.07-.01.67-.12,1.13.27.31.26.47.66.47,1.19,0,.98-1.4,1.4-1.56,1.45l-.46.13ZM102.84,41.5l-.07,1.38c.3-.15.59-.37.59-.6,0-.31-.07-.53-.21-.66-.09-.07-.2-.11-.3-.12Z"/>
    </g>
    <g>
      <polygon points="83.89 50.68 82.3 44.86 80 45.65 79.18 57.28 81.51 56.25 81.51 49.45 83.05 55.58 85.74 54.45 86.2 43.57 84.16 44.23 83.89 50.68"/>
      <path d="M78.7,57.96l.89-12.62,3-1.04.98,3.59.17-3.98,2.91-.95-.5,11.78-3.4,1.43-.82-3.25v3.6l-3.23,1.43ZM80.41,45.96l-.75,10.63,1.41-.63v-9.98l2.27,9,1.97-.83.42-9.99-1.17.38-.37,8.92-2.2-8.06-1.59.55Z"/>
    </g>
    <g>
      <polygon points="87.52 45.71 89.09 45.35 88.61 53.29 91.27 52.26 91.27 44.8 92.98 44.37 92.98 41.57 87.52 43.15 87.52 45.71"/>
      <path d="M88.14,53.94l.48-8.03-1.54.35v-3.43l6.33-1.82v3.7l-1.72.44v7.41l-3.56,1.38ZM89.55,44.8l-.47,7.84,1.76-.68v-7.5l1.72-.44v-1.88l-4.61,1.33v1.7l1.6-.37Z"/>
    </g>
    <g>
      <path d="M97.63,40.22l-.44,7.21s-.07.91-.84,1.1c-.22.06-.94.33-.88-.7.07-1.03.68-7.22.68-7.22l-2.37.66-.41,7.24c-.08,1.36,1.21,2.39,2.52,2.02.11-.03.22-.07.34-.11,0,0,2.26-.47,2.78-3.32l.82-7.46-2.2.57Z"/>
      <path d="M95.34,51.04c-.54,0-1.07-.18-1.5-.53-.61-.49-.94-1.23-.9-2.01l.43-7.55,3.27-.91-.06.63c0,.06-.61,6.19-.68,7.21-.01.19.01.28.02.31.06,0,.2-.03.25-.05.02,0,.05-.01.07-.02.45-.11.51-.69.51-.72l.46-7.52,3.1-.81-.89,8.11c-.53,2.95-2.77,3.58-3.08,3.66-.12.04-.23.08-.34.11-.22.06-.45.09-.67.09ZM94.2,41.61l-.4,6.93c-.03.51.18.98.57,1.29.4.32.91.42,1.4.28.1-.03.21-.06.32-.1l.05-.02c.08-.02,1.98-.46,2.44-2.96l.75-6.82-1.29.34-.42,6.9c-.03.46-.32,1.28-1.16,1.49h-.05c-.2.07-.66.2-1.03-.1-.26-.21-.37-.56-.34-1.04.06-.84.46-5,.62-6.61l-1.47.41Z"/>
    </g>
    <g>
      <polygon class="cls-30" points="51.5 55.29 52.23 43.93 49.8 45.11 49.58 51.09 47.37 46.21 44.84 47.77 45.76 48.64 44.56 59.7 46.92 58.32 47.33 51.85 49.53 56.45 51.5 55.29"/>
      <path d="M44.46,59.86l1.21-11.19-.97-.91,2.71-1.67,2.1,4.63.21-5.67,2.61-1.26-.75,11.55-2.09,1.24-2.09-4.39-.39,6.18-2.55,1.49ZM44.98,47.79l.87.82-1.18,10.94,2.17-1.27.43-6.76,2.3,4.82,1.85-1.1.72-11.16-2.26,1.09-.23,6.3-2.32-5.12-2.35,1.45Z"/>
    </g>
    <g>
      <path class="cls-29" d="M55.38,52.55c1.96.37,4.11-1.73,4.79-4.67.35-1.51.25-2.95-.19-4.05l.88-1.05s-1.4-1.33-3.56-.94h0c-1.79.08-3.6,2.05-4.22,4.71-.69,2.95.34,5.63,2.3,6ZM58.8,47.08c.04.28.02.56-.06.83-.5,1.69-1.72,2.85-2.79,2.62-1.17-.24-1.78-2.01-1.38-3.94.4-1.93,1.68-3.3,2.84-3.05.43.09.78.38,1.04.82l-.54.29.38.74c.27.53.45,1.11.52,1.7h0Z"/>
      <path d="M55.83,52.68c-.16,0-.31-.01-.46-.04h0c-.72-.13-1.34-.58-1.8-1.28-.78-1.2-1-3-.57-4.83.63-2.68,2.44-4.69,4.3-4.78,2.16-.4,3.61.95,3.62.96l.06.06-.9,1.08c.45,1.16.52,2.59.18,4.05-.64,2.76-2.56,4.78-4.43,4.78ZM55.4,52.46c1.91.36,4.02-1.71,4.69-4.61.34-1.44.27-2.86-.19-3.99l-.02-.05.86-1.03c-.29-.24-1.58-1.2-3.42-.86-1.78.08-3.56,2.08-4.16,4.65-.42,1.78-.21,3.53.55,4.69.43.66,1.02,1.08,1.69,1.2h0ZM56.21,50.65c-.1,0-.19,0-.28-.03-.59-.12-1.07-.62-1.34-1.39-.27-.76-.3-1.7-.1-2.65.2-.95.61-1.8,1.16-2.38.56-.6,1.19-.86,1.79-.74.44.09.81.39,1.09.86l.05.08-.55.29.34.66c.28.54.46,1.12.53,1.73h0c.04.3.02.59-.07.86-.47,1.59-1.58,2.71-2.61,2.71ZM57.13,43.6c-.46,0-.94.25-1.37.71-.53.57-.92,1.38-1.11,2.3-.19.92-.16,1.83.1,2.55.25.71.68,1.17,1.22,1.28,1.02.21,2.2-.91,2.69-2.56.07-.25.09-.52.06-.79h0c-.07-.58-.25-1.15-.52-1.67l-.41-.81.54-.28c-.25-.38-.57-.62-.93-.7-.08-.02-.17-.03-.26-.03Z"/>
    </g>
    <g>
      <path class="cls-24" d="M102.29,32.73l.83-.11c.27-.03.48.16.47.43h0c0,.31-.07.5-.29.69-.37.33-2.2.88-2.38-.44-.18-1.32.61-3.59,3.66-3.02l.92-1.41s-.35-.48-2.44-.18h0c-1.73.07-3.5,1.47-4.12,3.34-.69,2.07.28,3.94,2.17,4.18s4.56-.59,4.86-3.36c.02-.15,0-.29,0-.42-.01-.18.12-.33.29-.35l.32-.03-.04-1.16-4.39.74.14,1.09Z"/>
      <path d="M101.74,36.33c-.22,0-.43-.01-.63-.04-.85-.11-1.57-.55-2-1.25-.52-.83-.61-1.94-.24-3.05.63-1.89,2.4-3.32,4.2-3.39,2.07-.29,2.47.17,2.51.22l.04.05-.99,1.51h-.06c-1.19-.23-2.16-.03-2.79.58-.71.68-.86,1.68-.77,2.33.05.35.22.58.52.69.59.22,1.5-.11,1.72-.3.19-.17.25-.32.26-.63,0-.11-.03-.2-.1-.27-.07-.06-.17-.09-.27-.08l-.92.12-.16-1.26,4.57-.77.04,1.34-.4.04c-.13.01-.22.13-.22.26v.04c.01.12.02.24,0,.39-.12,1.06-.57,1.91-1.36,2.53-.89.7-2.03.95-2.97.95ZM104.27,28.68c-.31,0-.7.03-1.19.09-1.72.07-3.45,1.48-4.05,3.28-.35,1.06-.27,2.11.22,2.9.41.65,1.08,1.07,1.88,1.17.98.12,2.41-.04,3.47-.87.75-.59,1.18-1.4,1.29-2.41.01-.13,0-.24,0-.36v-.04c-.02-.22.15-.42.37-.44l.24-.02-.03-.98-4.22.71.12.93.74-.1c.16-.02.3.02.41.12.11.1.17.24.16.4,0,.35-.1.56-.32.76-.29.25-1.25.58-1.9.33-.36-.13-.57-.42-.63-.83-.09-.69.06-1.76.82-2.48.67-.64,1.66-.86,2.89-.64l.85-1.3c-.1-.07-.4-.21-1.13-.21Z"/>
    </g>
    <g>
      <path class="cls-28" d="M61.67,41.3v.56s-.3,8.22-.3,8.22l2.44-1.08-.13-3.96,1.95,3.11,2.5-1.11-2.14-3.02s.89-.47,1.62-1.69c.46-.77.63-1.69.4-2.55-.06-.21-.14-.42-.25-.59-.39-.59-.85-1.96-4.43-.06l-2.53,1.49.13.92.75-.25ZM63.93,41.13c1.69-.71,1.67.53,1.37,1.06-.29.52-1.3,1.14-1.3,1.14l-.07-2.2Z"/>
      <path d="M61.28,50.22l.31-8.36v-.44s-.74.24-.74.24l-.15-1.08,2.58-1.52c3.39-1.8,4.06-.7,4.46-.05.03.05.06.1.09.14.11.16.19.36.26.61.23.85.09,1.8-.4,2.62-.61,1.02-1.33,1.52-1.57,1.67l2.15,3.03-2.66,1.19-1.82-2.91.12,3.69-2.62,1.16ZM61.76,41.18v.68s-.3,8.09-.3,8.09l2.26-1-.14-4.22,2.08,3.32,2.33-1.04-2.14-3.01.09-.05s.88-.48,1.59-1.66c.47-.78.61-1.68.39-2.49-.06-.23-.14-.42-.24-.56-.03-.04-.06-.09-.09-.15-.37-.6-.99-1.61-4.23.11l-2.48,1.46.11.76.77-.25ZM63.92,43.48l-.08-2.4.05-.02c.88-.37,1.28-.2,1.47,0,.28.32.18.88.01,1.17-.3.54-1.29,1.15-1.33,1.17l-.13.08ZM64.02,41.19l.06,1.98c.28-.18.93-.64,1.15-1.03.14-.24.23-.72,0-.98-.2-.23-.62-.22-1.22.02Z"/>
    </g>
    <g>
      <polygon class="cls-26" points="69.15 38.51 69.08 46.64 71.11 45.79 70.99 41.91 73.07 44.99 75.42 44.07 72.62 40.17 76.18 34.59 72.85 35.63 71.24 39.83 71.4 36.1 68.3 37.16 68.57 38.71 69.15 38.51"/>
      <path d="M68.99,46.77l.07-8.14-.56.2-.3-1.72,3.29-1.12-.15,3.33,1.44-3.75,3.59-1.12-3.65,5.72,2.83,3.95-2.51.98-1.96-2.89.12,3.64-2.2.93ZM69.24,38.38l-.07,8.13,1.85-.78-.13-4.11,2.22,3.26,2.18-.85-2.76-3.86,3.46-5.42-3.06.95-1.79,4.66.18-4.13-2.91,1,.24,1.38.6-.21Z"/>
    </g>
    <g>
      <polygon class="cls-25" points="81.35 41.92 81.3 40 78.52 40.94 78.49 39.27 80.84 38.68 80.69 36.98 78.92 37.4 78.87 35.85 81.38 35.31 81.51 33.08 76.57 34.48 76.62 36.08 77.21 35.91 76.86 43.53 81.35 41.92"/>
      <path d="M76.76,43.65l.35-7.62-.58.17-.06-1.79,5.12-1.45-.14,2.41-2.5.54.04,1.37,1.76-.42.17,1.87-2.36.59.02,1.49,2.78-.94.06,2.09-4.68,1.67ZM77.3,35.79l-.35,7.61,4.32-1.55-.05-1.74-2.78.94-.03-1.86,2.35-.59-.14-1.52-1.77.42-.06-1.72,2.51-.55.12-2.04-4.76,1.34.05,1.43.6-.18Z"/>
    </g>
    <g>
      <polygon class="cls-27" points="85.54 32.06 82.79 32.74 82.45 41.54 87.17 40.03 87.11 38.27 84.75 39.06 85.54 32.06"/>
      <path d="M82.36,41.66l.35-8.99,2.92-.73-.78,7,2.34-.79.06,1.94-4.9,1.57ZM82.88,32.81l-.34,8.61,4.54-1.46-.05-1.58-2.38.8.78-7.02-2.56.64Z"/>
    </g>
    <g>
      <polygon class="cls-31" points="90.94 30.83 88.6 31.34 88.09 39.75 90.15 39.15 90.94 30.83"/>
      <path d="M87.99,39.87l.53-8.6,2.52-.55-.81,8.49-2.23.65ZM88.69,31.41l-.51,8.23,1.89-.55.78-8.14-2.16.47Z"/>
    </g>
    <g>
      <polygon class="cls-18" points="97.51 37.21 98.6 29.4 95.84 29.88 95.73 34.05 94.42 30.14 91.74 30.67 92.14 32.14 91.58 38.75 93.6 38.2 93.73 34.21 95.49 37.71 97.51 37.21"/>
      <path d="M91.48,38.86l.57-6.72-.43-1.54,2.85-.56,1.18,3.52.1-3.76,2.94-.51-1.12,7.99-2.14.53-1.64-3.26-.12,3.72-2.2.6ZM91.85,30.74l.39,1.39v.02s-.55,6.49-.55,6.49l1.84-.5.14-4.26,1.88,3.74,1.89-.47,1.07-7.64-2.57.44-.12,4.59-1.44-4.3-2.52.5Z"/>
    </g>
    <g>
      <path class="cls-19" d="M50.96,57.7l.13,1.5-3.86,15.67,3.04-2.2.56-3.48,3.35-1.92v2.79l2.67-1.68-.56-13.47-5.32,2.79ZM53.62,65.42l-1.99.95,1.99-6.18v5.23Z"/>
      <path d="M47.09,75.08l3.92-15.89-.14-1.54,5.5-2.88.57,13.66-2.84,1.79v-2.8l-3.18,1.83-.56,3.48-3.25,2.36ZM51.05,57.75l.13,1.45-3.81,15.46,2.82-2.04.56-3.49,3.51-2.02v2.79l2.49-1.57-.55-13.29-5.15,2.7ZM51.49,66.53l2.22-6.89v5.83l-2.22,1.06ZM53.54,60.74l-1.76,5.47,1.76-.84v-4.63Z"/>
    </g>
    <g>
      <path class="cls-10" d="M63.11,52.08c-1.1.06-2.82.55-5.46,2.15v1.6l.98-.47-.49,12.23s4.29-2.71,6.3-5.9c.6-.95,1.26-2.02,1.35-3.13.1-1.26-.15-3.36-.55-4.92-.24-.96-1.14-1.62-2.13-1.56ZM62.59,59.46c-.63,1.35-.93,1.82-1.44,2.38-.08.08-.21.03-.21-.09l.19-6.48s.01-.01.02-.02c.53-.54,1.45-.36,1.78.32.68,1.43-.07,3.3-.34,3.87Z"/>
      <path d="M58.04,67.75l.49-12.25-.97.47v-1.78l.04-.03c2.23-1.35,4.08-2.08,5.5-2.16v.09s0-.09,0-.09c1.03-.06,1.97.62,2.22,1.63.41,1.64.65,3.72.55,4.95-.09,1.17-.8,2.28-1.36,3.17-2,3.17-6.29,5.9-6.33,5.92l-.14.09ZM58.72,55.22l-.49,12.21c.75-.5,4.36-2.97,6.14-5.78.55-.88,1.25-1.97,1.33-3.09.1-1.21-.13-3.26-.54-4.89-.23-.92-1.09-1.55-2.04-1.5-1.38.08-3.19.79-5.38,2.11v1.41l.98-.48ZM61.06,61.97s-.05,0-.08-.02c-.08-.03-.13-.11-.13-.2l.19-6.51.04-.04c.27-.27.64-.39,1.02-.33.39.07.73.32.89.67.71,1.49-.08,3.4-.34,3.95h0c-.62,1.32-.92,1.81-1.45,2.4-.04.04-.1.07-.15.07ZM61.21,55.32l-.19,6.44s.01.03.02.03c0,0,.02,0,.04,0,.49-.53.77-.97,1.42-2.36.25-.53,1.01-2.38.34-3.8-.14-.3-.43-.52-.77-.58-.32-.05-.64.04-.87.27Z"/>
    </g>
    <g>
      <polygon class="cls-15" points="70.86 48.34 69.39 57.32 68.63 49.26 65.56 50.57 67.87 62.1 70.66 60.66 73.78 47.18 70.86 48.34"/>
      <path d="M67.8,62.23l-2.34-11.71,3.25-1.39.71,7.52,1.37-8.37,3.11-1.24-3.16,13.67-2.93,1.52ZM65.66,50.63l2.27,11.35,2.66-1.37,3.07-13.28-2.72,1.08-1.57,9.6-.81-8.61-2.9,1.24Z"/>
    </g>
    <g>
      <polygon class="cls-16" points="74.26 48.6 74.49 48.51 73.36 59.3 78.73 56.77 78.73 53.18 76.19 54.52 76.24 52.08 78.56 51.2 78.53 49.24 76.5 50.06 76.5 47.74 79.65 46.59 79.65 44.99 74.26 47 74.26 48.6"/>
      <path d="M73.26,59.44l1.13-10.8-.21.08v-1.78l5.56-2.07v1.78l-3.15,1.15v2.13l2.03-.82.03,2.14-2.32.88-.05,2.23,2.54-1.34v3.79l-5.56,2.62ZM74.59,48.38l-1.12,10.78,5.18-2.44v-3.39l-2.54,1.34.06-2.64,2.32-.88-.02-1.77-2.03.82v-2.51l3.15-1.15v-1.41l-5.22,1.94v1.41l.24-.09Z"/>
    </g>
    <g>
      <polygon class="cls-12" points="113.47 37.29 113.47 35.68 107.77 37.08 107.77 38.68 108 38.59 107.45 45.92 112.83 44.34 112.93 42.19 109.73 43.42 109.76 42.16 112.07 41.28 112.32 39.28 110.01 40.15 110.01 38.19 113.47 37.29"/>
      <path d="M107.35,46.04l.55-7.31-.22.08v-1.79l5.87-1.44v1.79l-3.46.9v1.77l2.32-.88-.27,2.2-2.31.88-.02,1.07,3.2-1.23-.11,2.35-5.56,1.63ZM108.1,38.46l-.56,7.34,5.2-1.52.09-1.96-3.2,1.23.03-1.44,2.32-.88.22-1.81-2.29.87v-2.15l3.46-.9v-1.43l-5.53,1.36v1.41l.24-.09Z"/>
    </g>
    <g>
      <path class="cls-13" d="M106.03,37.83c-1.18-.57-5.02.72-5.02.72v1.6l.23-.09-.84,8.06,2.21-.67.23-3.36,1.31,2.86,2.47-.78-1.43-2.73s1.41-1.56,1.66-2.33c.35-1.08.18-2.81-.81-3.28ZM103.02,42.77l.12-2.24s1.19-.23,1.18,1.12c0,.75-1.31,1.12-1.31,1.12Z"/>
      <path d="M100.3,48.24l.84-8.05-.21.08v-1.79l.06-.02c.16-.05,3.88-1.29,5.08-.72h0c1.08.52,1.19,2.33.86,3.38-.23.72-1.4,2.05-1.64,2.32l1.45,2.77-2.64.83-1.2-2.62-.21,3.08-2.39.73ZM101.34,39.93l-.84,8.07,2.03-.62.25-3.64,1.42,3.1,2.3-.72-1.41-2.69.04-.04s1.4-1.55,1.64-2.3c.33-1.02.19-2.72-.77-3.18h0c-1.06-.51-4.41.55-4.89.71v1.41l.24-.09ZM102.93,42.89l.13-2.42h.07s.54-.11.91.2c.25.21.38.54.37.99,0,.8-1.31,1.18-1.37,1.2l-.12.03ZM103.23,40.61l-.11,2.04c.31-.11,1.12-.45,1.13-1,0-.4-.1-.68-.31-.86-.24-.2-.57-.2-.71-.18Z"/>
    </g>
    <g>
      <polygon class="cls-11" points="84.61 49.64 83.02 43.82 80.22 44.79 80.68 45.22 79.9 56.24 82.23 55.21 82.23 48.42 83.77 54.54 86.46 53.42 86.92 42.53 84.88 43.2 84.61 49.64"/>
      <path d="M79.81,56.37l.78-11.12-.53-.5,3.02-1.04,1.47,5.38.25-5.95,2.21-.72-.47,11.06-2.83,1.19-1.4-5.55v6.15l-2.51,1.11ZM80.38,44.82l.38.36-.77,10.92,2.14-.95v-7.43l1.69,6.7,2.54-1.07.45-10.71-1.86.61-.29,6.94-1.71-6.27-2.58.89Z"/>
    </g>
    <g>
      <polygon class="cls-14" points="88.24 44.68 89.81 44.31 89.33 52.25 91.99 51.22 91.99 43.76 93.7 43.33 93.7 40.54 88.24 42.11 88.24 44.68"/>
      <path d="M89.24,52.38l.48-7.96-1.56.36v-2.74l5.64-1.62v2.97l-1.72.44v7.45l-2.84,1.1ZM89.9,44.21l-.47,7.92,2.48-.96v-7.46l1.72-.44v-2.61l-5.3,1.53v2.39l1.58-.36Z"/>
    </g>
    <g>
      <path class="cls-17" d="M98.35,39.18l-.44,7.21s-.07.91-.84,1.1c-.22.06-.94.33-.88-.7.07-1.03.68-7.22.68-7.22l-2.37.66-.41,7.24c-.08,1.36,1.21,2.39,2.52,2.02.11-.03.22-.07.34-.11,0,0,2.26-.47,2.78-3.32l.82-7.46-2.2.57Z"/>
      <path d="M96.06,49.66c-.46,0-.91-.16-1.29-.46-.53-.42-.81-1.05-.77-1.73l.42-7.3,2.55-.71v.13c-.02.06-.62,6.2-.69,7.22-.02.31.03.51.15.61.15.13.41.05.56.01l.06-.02c.7-.17.77-.99.77-1.02l.45-7.27,2.38-.62-.84,7.58c-.52,2.88-2.82,3.39-2.84,3.39-.11.04-.23.08-.34.11-.19.05-.38.08-.57.08ZM94.59,40.31l-.41,7.18c-.04.62.22,1.19.7,1.58.49.39,1.11.52,1.71.35.11-.03.22-.07.34-.11.03,0,2.22-.5,2.72-3.25l.81-7.33-2.02.53-.44,7.15s-.08.97-.9,1.18h-.05c-.17.06-.49.15-.72-.03-.16-.13-.24-.39-.21-.75.06-.94.58-6.21.67-7.1l-2.19.61Z"/>
    </g>
    <g>
      <path d="M45.26,38.48c.32.44,1.93,3.38,1.83,3.66-.06.19-.48.24-.16.51.22-.1,1.71-.76,1.74-.85.03-.08,0-.21.02-.3-.23.01-.4.16-.59-.04-.06-.06-.7-1.39-.72-1.5-.08-.44.12-1.21.65-.91.23.13,1.09,1.86,1.03,2.05-.02.06-.38.48-.06.52.16.02,1.47-.82,1.83-.78-.07-.57-.3-.24-.5-.23-.39.02-1.01-2.19-1.59-2.42-.57-.22-1.23.12-1.52.61-.06.09-.09.6-.28.41-.13-.13-.56-1.3-.76-1.59-.05-.07-.09-.15-.18-.19-.07-.02-1.04.6-1.15.7-.5.43.31.32.41.37Z"/>
      <path d="M71.67,29.59c.13.15.57,2.12.53,2.36-.06.36-.41.22-.33.66.24-.15,2.02-.42,2.04-.54.03-.35-.45-.18-.53-.32-.05-.09-.41-1.61-.41-1.76-.02-.76.8-1.39,1.21-.62.17.32.52,1.86.41,2.18-.04.12-.39.09-.3.41.07.08,1.97-.34,2.06-.4.08-.05.1-.25.07-.28-.04-.04-.45.06-.58-.13-.19-.26-.36-1.67-.58-2.14-.51-1.11-2.09-.92-2.43.2-.23-.04.12-.63-.19-.56-.43.1-1.08.45-1.54.58.06.39.39.15.57.35Z"/>
      <path d="M41.36,41.12c-.03-.49.36-.7.78-.8l1.94,3.47c.07.36-.8.36-.36.82.26-.22,2.29-1.22,2.32-1.35.15-.6-.58-.1-.68-.11-.35-.05-1.82-2.94-2.17-3.37.43-.66,1.14-.5,1.34.24l.56-.24c-.11-.22-.67-1.24-.85-1.23l-3.66,2.24.58,1.26c.75-.29.23-.5.2-.95Z"/>
      <path d="M80.38,25.91c.01.81.9,3.58.66,4.17-.11.26-.61.07-.48.57.61-.12,1.22-.27,1.84-.38.38-.07.52.14.48-.37-.29-.01-.6.04-.66-.32l-.82-4.7c-.1-.08-.69.29-.84.35-.45.17-.97,0-.86.62.22.04.54-.18.68.05Z"/>
      <path d="M59.8,33.39c.08.06.39-.11.53,0,.12.09.89,2.34.73,2.57-.03.05-.22.04-.26.14-.05.11.03.32.11.32.02,0,.22-.16.33-.21.53-.23,1.07-.38,1.59-.62-.02-.39-.34-.15-.48-.18-.21-.06-1.1-2.52-.57-2.48.06,0,.6.71.98.04.65-1.17-1.42-1.18-1.31.11l-.28-.57c-.19.12-1.39.48-1.44.55-.05.06-.03.26.06.32Z"/>
      <path d="M63.56,32.32c.16.2.78,2.04.76,2.28-.02.27-.29.22-.34.34-.04.12.03.31.11.32.02,0,.21-.17.33-.21.22-.08,1.65-.52,1.69-.61.02-.04.04-.23-.03-.23-.29-.04-.43.15-.66-.19-.42-.63-.72-1.98-.92-2.73l-1.59.62c0,.46.41.1.65.41Z"/>
      <path d="M68.77,29.99s-.05.23.03.23c.22,0,.44-.02.58.17.11.15.69,2.27.61,2.37-.13.17-.46.05-.27.53.23-.18,1.93-.55,1.96-.65.03-.08,0-.21.02-.31-.03-.05-.42.14-.54.04-.18-.15-.7-2.54-.81-2.96-.24.08-1.52.45-1.58.57Z"/>
      <path d="M69.64,27.62c-.74-.38-1.22.7-.76,1.22.69.78,1.83-.67.76-1.22Z"/>
      <path d="M63.7,31.02c.82-.19.5-1.53-.39-1.34-.66.15-.45,1.53.39,1.34Z"/>
      <path d="M57.52,37.79c3.3-.62,2.52-5.5-.4-5.34-4.02.22-3.22,6.02.4,5.34ZM55.54,33.77c.09-.28.5-.69.8-.74.87-.14,1.25.32,1.63,1.01.45.82,1.22,2.9-.16,3.21-1.42.32-2.6-2.45-2.27-3.49Z"/>
      <path d="M66.49,32.79c-.64.61-.5,1.38.45,1.4-.08.17-.31.12-.48.28-.35.34-.23.93.25,1.06.82.22,2.48-.54,2.68-1.41.49-2.18-2.57-.64-2.75-.86.02-.1,0-.41.03-.45.04-.04.77-.08,1.04-.22.57-.29.89-.92.74-1.56-.08-.35-.46-.6-.51-.96,1.08.29.71-1.11-.05-.59-.36.24-.17.79-.24.85-.03.02-.54-.04-.73-.01-1.48.22-2.05,1.99-.44,2.48ZM68.4,33.85c.25,0,.38.18.37.42-.05.66-1.54,1.22-1.82.47-.16-.44,1.13-.87,1.45-.89ZM66.69,30.73c.81-.19,1.3,1.59.57,1.74-.61.12-1.21-1.59-.57-1.74Z"/>
      <path d="M77.41,28.51c-.03-.17-.55-.48.14-.65.63-.15.92.64.58.96-.66.6-1.94.67-1.64,1.94.25,1.08,1.91.52,2.21-.31.16.75,1.36.52,1.63.02.19-.36-.05-.64-.26-.19-.17,0-.21-.04-.29-.17-.3-.48-.24-1.9-.6-2.33-.67-.76-3.14-.25-2.85.99.15.61,1.18.26,1.08-.25ZM77.8,30.54c-.64-.24.11-1.36.58-1.49.16.47.21,1.78-.58,1.49Z"/>
      <path d="M52.72,39.9c.22-.13.46-.37.58-.6.27-.5.46-.99-.29-.96.07,1.42-1.34,1.44-1.74.21l1.88-.92c-.35-.99-1.41-1.31-2.31-.74-1.87,1.19-.23,4.32,1.87,3.02ZM51.34,37.14c.83-.28,1.17.28,1.17.28l-1.44.69c-.37-.63.27-.97.27-.97Z"/>
    </g>
  </g>
  <g>
    <g>
      <path class="cls-21" d="M97.86,70.99s-.02,0-.06,0c-.12.02-.26.05-.38.08-.38.12-.79.26-1.16.39-1.25.43-2.45,1.06-3.35,2.01-.44.47-.8,1.03-.99,1.62-.04.13-.08.27-.1.4.16-.04.31-.08.47-.12.67-2.84,4.06-3.81,5.13-4.05.15-.03.27.09.22.23l-.31.88c.21-.25.4-.5.58-.77.02-.13.03-.27.03-.4,0-.09-.01-.18-.04-.23-.01-.03-.03-.03-.03-.03Z"/>
      <path class="cls-21" d="M92.33,75.41h-.03c-.18.06-.33.1-.47.13l-.08.02v-.07c.03-.13.07-.26.12-.41.18-.57.53-1.14,1-1.64.81-.86,1.94-1.54,3.37-2.03h.04c.37-.14.76-.28,1.13-.39.11-.02.24-.05.34-.07h.05s.06-.01.07-.01h0s.05.01.07.06c.04.07.05.2.05.26,0,.13-.01.26-.03.41h0s0,.02,0,.02c-.17.26-.37.52-.59.78l-.18.21.4-1.13s0-.09-.03-.13c-.03-.03-.08-.05-.13-.04-1.03.23-4.43,1.19-5.09,4.01v.03ZM91.88,75.43c.11-.03.22-.06.36-.09.69-2.86,4.13-3.83,5.17-4.06.09-.02.17,0,.23.06.06.06.08.14.05.22l-.22.61c.14-.17.27-.35.39-.53.02-.14.03-.27.03-.39,0-.09-.01-.17-.04-.21,0,0,0,0,0,0,0,0-.02,0-.03,0h-.04c-.11.03-.23.05-.34.08-.36.11-.75.24-1.12.37h-.04c-1.41.5-2.53,1.17-3.33,2.01-.46.49-.8,1.05-.98,1.6-.04.11-.07.22-.09.32Z"/>
    </g>
    <path class="cls-35" d="M97.24,72.66l.39-1.11c.05-.13-.07-.26-.22-.23-1.11.24-4.7,1.27-5.19,4.35l3.31-1.3c.26-.14,1.61-1.45,1.71-1.72Z"/>
    <path class="cls-23" d="M91.75,75.7c.06-1.74,1.56-3.19,3.13-4.03.77-.42,1.6-.77,2.46-.98.12-.02.23-.04.36-.06.95-.12.49,1.09.29,1.56-.08.2-.18.4-.28.59h-.04c.11-.52.26-1.02.27-1.53,0-.09-.01-.18-.04-.23-.01-.03-.03-.03-.03-.03,0,0-.02,0-.06,0-.12.02-.26.05-.38.08-.38.11-.79.26-1.16.39-1.25.43-2.45,1.06-3.35,2.01-.44.47-.8,1.03-.99,1.62-.06.2-.11.4-.13.61h-.04Z"/>
    <path class="cls-42" d="M93.04,75.29c.08-.34.19-.66.31-.98.12-.32.26-.64.47-.91-.23.45-.32.95-.39,1.45-.02.16-.04.33-.05.49l-.34-.05h0Z"/>
    <path class="cls-42" d="M94.47,74.64c.2-.88.64-1.74,1.31-2.42-.28.36-.5.76-.65,1.18-.13.36-.23.73-.27,1.1,0,.05-.01.11-.01.15l-.37-.02h0Z"/>
    <path class="cls-42" d="M96.02,73.79c.17-.72.55-1.4,1.09-1.95-.32.45-.54.95-.65,1.47-.04.16-.06.34-.07.5l-.37-.02h0Z"/>
    <g>
      <path class="cls-36" d="M103.19,90.13s8.34-1.51,7.9-10.6c0-.04-.02-.38-.03-.41-.05-.3-.12-1.71-3.5.36"/>
      <path class="cls-36" d="M103.19,90.12c1.59-.36,3.12-1.1,4.38-2.12,1.93-1.52,3.08-3.76,3.37-6.02.11-.75.14-1.51.12-2.26-.02-.36.02-.77-.19-1.08-.62-.76-2.59.43-3.3.83.69-.46,2.32-1.41,3.12-1.06.49.24.41.84.45,1.29.03.76,0,1.52-.12,2.28-.31,2.27-1.48,4.52-3.43,6.04-1.27,1-2.83,1.77-4.41,2.09h0Z"/>
    </g>
    <g>
      <path class="cls-36" d="M107.73,80.65l2.58-1.27s.55,8.01-5.84,9.63c-.16.28-.32.57-.49.85,2.79-.94,5.22-3.06,6.16-5.71.58-1.61.66-3.31.6-4.97-.02-.25-.08-.51-.4-.55-.33-.04-.73.06-1.07.17-.43.14-.84.32-1.26.51-.08.45-.17.9-.27,1.34Z"/>
      <path class="cls-36" d="M105.31,89.36c-.43.21-.87.39-1.32.55l-.1.03.05-.09c.15-.25.31-.52.49-.85v-.02s.03,0,.03,0c3.28-.83,4.68-3.39,5.28-5.4.59-1.97.54-3.79.53-4.14l-2.6,1.28.02-.08c.1-.46.19-.91.27-1.34v-.02s.03,0,.03,0c.4-.18.82-.37,1.26-.51.32-.1.74-.22,1.09-.17.35.04.42.34.44.59.05,1.4.03,3.23-.6,4.98-.76,2.16-2.57,4.06-4.86,5.19ZM104.07,89.79c2.84-.99,5.14-3.15,6.03-5.65.63-1.74.65-3.56.6-4.95-.02-.25-.07-.48-.37-.52-.34-.04-.74.07-1.06.17-.43.14-.84.32-1.23.49-.07.4-.15.82-.25,1.24l2.56-1.26v.06s.13,2.03-.52,4.22c-.51,1.7-1.59,3.79-3.88,4.92-.44.22-.92.4-1.45.53-.16.28-.3.52-.43.75Z"/>
    </g>
    <path class="cls-35" d="M107.65,80.69l2.67-1.32s.56,8.17-6.03,9.68l3.36-8.37Z"/>
    <path class="cls-42" d="M105.05,86.51c.61-.09,1.24-.22,1.85-.37.61-.16,1.23-.33,1.78-.65-.5.4-1.1.66-1.69.91-.6.25-1.21.46-1.83.65l-.1-.54h0Z"/>
    <path class="cls-42" d="M106.07,84.02c.74-.07,1.48-.28,2.18-.57.56-.23,1.08-.54,1.56-.89-.49.48-1.06.9-1.68,1.24-.63.34-1.31.62-2.01.77,0,0-.04-.55-.04-.55h0Z"/>
    <path class="cls-42" d="M106.76,81.95c1.1-.32,2.11-.94,2.89-1.75-.33.47-.73.91-1.18,1.28-.47.39-.98.73-1.54.98,0,0-.17-.52-.17-.52h0Z"/>
    <path class="cls-9" d="M56.57,87.63s-9.14-1.94-2.69-5.48l5.11-1.79c.39-.14.65-.49.68-.9l.49-7.83s-.22-4.38,4.76-4.8c0,0,2.04.44,7.13-2.59,5.09-3.03,8.25,5.05,8.25,5.05l1.8,3.61s4.59-.17,6.71,1.2-1.45,3.81-1.45,3.81l-30.81,9.71Z"/>
    <path class="cls-35" d="M97.27,53.21c.68,1.25,1.49,2.44,2.53,3.43.39.37.83.7,1.32.94.11.06.18.16.17.28,0,.03,0,.06,0,.09,0,0,0,0-.02-.02l-.02.25-.12.06-2.22,1.19c-.27.14-.23.51.07.57.07.01.15.03.22.04.28.05.52.1.66.12-.2.05-.43.11-.67.17-1.1.3-2.48.74-3.37,1.41-.24.18-.14.52.15.55,1.25.1,2.54-.07,3.77-.37,1.46-.37,2.87-.98,4.17-1.74.1-.06.16-.15.17-.26,0-.04,0-.09,0-.13,0,0,0,0,0,0-.05-.02-.06-.09-.05-.13,0-.03,0-.06.01-.09.02-.12-.02-.23-.12-.29l-.48-.32-.04-.03.04-.03.38-.31c.12-.1.16-.27.08-.39l-.11-.17s.06-.02.07-.02l.72.23c.32.1.6-.27.38-.5l-.89-.96s-.01-.01-.02-.02c-1.55-1.72-3.43-3.55-5.53-4.95,0,0-.93-.48-1.36-.11,0,0-.45.33.12,1.51ZM102.82,59.93v-.07c.04.09.05.11,0,.07Z"/>
    <path d="M104.56,58.24c.26.09.56-.22.38-.46-.11-.12-.81-.83-.94-.97-1.68-1.78-3.54-3.49-5.61-4.84-.22-.08-.82-.35-1.11-.1.02-.01,0,0,0,0-.05.08-.07.18-.07.28,0,.46.21.87.45,1.27.33.57.68,1.11,1.07,1.63.68.89,1.45,1.74,2.45,2.27.19.08.36.26.36.49,0,.03,0,.06,0,.08,0,0,0,0,0,0,0,.02,0,.04,0,.06-.01.12-.05.2-.2.25,0,0-.15,0-.15,0-.06-.04-.09-.04-.13-.1,0,0-.02-.03,0-.01.02.03.05.06.07.07l.38-.21-.02.25v.14s-.14.07-.14.07l-1.9,1.01-.46.24s-.04.07-.03.08c-.04,0,.22.05.38.08.34.07,1.28.25,1.63.31l-1.09.26c-1.12.27-2.23.57-3.24,1.07-.25.13-.49.27-.72.43-.1.07-.09.14-.02.19,1.75.18,3.54-.16,5.21-.7.82-.27,1.62-.62,2.38-1.02.17-.11.42-.16.52-.35.03-.06.02-.15.03-.21-.05-.02-.06-.09-.05-.14,0,.05,0,.11.06.13.03.14,0,.32-.15.41-.37.23-.75.45-1.13.65-2.1,1.09-4.47,1.78-6.86,1.64-.31-.01-.54-.36-.43-.65.04-.11.13-.21.2-.26.24-.18.5-.34.76-.48,1.06-.55,2.2-.87,3.32-1.16v.48s-.52-.09-.52-.09c-.08-.02-.3-.05-.38-.07-.27-.05-.46-.34-.41-.61.03-.23.2-.38.39-.46.07-.04.28-.15.36-.19l1.9-1.02-.14.21c.01-.15.03-.51.04-.67,0,0,.36.21.36.21.04.02.09.07.12.11,0,0,0,0,0,0,0,0-.04-.05-.04-.05,0,0-.09-.06-.09-.06h-.15c-.15.05-.18.12-.2.24,0,.02,0,.03,0,.06,0-.04,0-.08,0-.12,0-.01,0-.04,0-.05,0,0,0,0,0,0,0,0-.02-.02-.03-.03-1.09-.56-1.93-1.49-2.66-2.45-.59-.84-1.19-1.67-1.51-2.66-.37-1.42.72-1.63,1.79-1.06,2.07,1.42,3.86,3.2,5.48,5.1.1.12.78.88.88,1.02.19.26-.15.6-.43.49h0Z"/>
    <path d="M102.66,59.54c.18.34.25.46.17.39l-2.49,1.24,2.18-1.56c-.06-.07-.12-.15-.17-.23-.39.17-.79.33-1.21.41.39-.16.74-.38,1.07-.62-.08-.13-.15-.27-.2-.41l-1.14.43,1.1-.56c-.07-.23-.11-.46-.1-.71,0-.18.04-.36.11-.53l-1.68-1.08,1.74.94c.07-.13.15-.25.25-.36l-2.76-2.47,2.76,2.08c-1.08-1.38-2.23-2.73-3.56-3.91-.2-.18-.41-.35-.62-.52,1.8,1.24,3.32,2.79,4.76,4.38.04-.02.09-.04.14-.06-1.07.81-.91,1.92-.45,2.89,0,0,0,0,0,0,.04.08.08.16.12.24Z"/>
    <path class="cls-23" d="M103.21,59.28s.24,18.93-22.1,16.67c0,0-21.77-.08-26.12,16.31,0,0-5.56,2.78-2.73,5.85s6.12,1.6,6.12,1.6c0,0,3.49-.44,2.69.69-.24.34.16.82-.48,1.16-2.42,1.29-4.26,4.83,1.27,6.33,7.09,1.92,46.19-3.92,48.85-35.07,0,0,.81-10.63-4.74-14.9-.42-.32-.93-.51-1.46-.47-.66.05-1.41.41-1.3,1.84Z"/>
    <path class="cls-21" d="M103.64,58.97s1.38,18.82-21.41,18.15c-20.69-.6-26.06,14.2-26.06,14.2,0,0-.31.96-1.1,1.33-1.1.52-5.38,4.34-.83,6,.89.32,2.51.55,3.9.15,1.39-.4,4.45-.85,3.31,3.11,0,0-3.6,1.05-1.95,3.92,1.8,3.13,28.07,2.65,41.02-13.5,0,0,16.82-16.27,5.95-33.56,0,0-2.6-2.77-2.83.22Z"/>
    <path class="cls-41" d="M57.13,99.03l-1.31-.68c-.3-.16-.56-.4-.73-.7-.22-.39-.25-.82.14-1.01h0c.73-.21,1.49-.26,2.24-.14,2.85.44,11.05.95,17.66-6.11,0,0,.06-.53-.72-.15-.08.04-.16-.05-.11-.12.35-.5,1.15-1.47,2.14-1.44.93.03,1.63.76,1.96,1.19.07.09-.02.22-.13.18l-.51-.19c-.13-.05-.27.05-.27.19-.02,1.73-.56,10.71-9.81,13.31,0,0-5.67,1.73-10.24-4.06-.09-.11-.19-.2-.32-.26Z"/>
    <path class="cls-34" d="M58.37,98.28c.38.59,1.65,2.21,4.22,2,.07,0,.14-.01.2-.02.78-.05,7.2-.66,11.82-7.47.06-.08-.05-.18-.13-.12,0,0-1.26,1.13-1.74,1.42-3.9,2.36-5.27,3.62-12.57,4.16-.37.03-.74.01-1.11-.05l-.58-.1c-.1-.02-.17.09-.11.17Z"/>
    <path class="cls-44" d="M69.47,99.47l-.29.95s.66-1.78,3.24-3.66l2.37-1.46c.17-.1.37.07.3.25-.49,1.24-1.92,4.26-4.73,5.89-2.66,1.54-4.1,1.54-4.68,1.43-.19-.04-.33-.21-.33-.41.02-.66.44-2.22,3.75-3.35.22-.08.43.13.37.35Z"/>
    <path class="cls-23" d="M59.06,103.33c1.13,1.33,2.51,1.88,4.24,1.78.55-.01,1.11-.1,1.66-.2-.53.18-1.07.36-1.63.46-1.86.4-3.51-.02-4.96-1.27,0,0,.69-.76.69-.76h0Z"/>
    <path class="cls-8" d="M63.33,106.91s34.33-2.62,24.11-23.73c0,0,23.71-6.39,18.3-24.26,0,0,5.33,4.45,4.07,15.74-1.14,10.2-13.27,26.15-29.35,30.46,0,0-12.95,3.72-17.12,1.79Z"/>
    <path class="cls-4" d="M57.61,91.91c.27-.74,1.57-4.19,3.51-5.67,0,0,0,0,.01-.01.13-.11,1.93-1.78-.85-.85-2.62.88-4.32,6.01-4.58,6.93-.02.06.16.13.22.12.29-.09,1-.29,1.49-.36.09-.01.17-.08.2-.16Z"/>
    <path class="cls-20" d="M76.02,83.72c-1.34-2.74-4.45-3.48-6.19-2.26-1.44,1.01-2.91,3.5-1.83,5.71.6,1.22,1.69,2.06,2.76,2.31-.89-.41-1.57-1.36-2.04-2.33-.9-1.84-.17-4.06,1.65-4.95s4.02-.12,4.92,1.73c.38.77.56,1.44.46,2.1.7-.67.86-1.09.27-2.3Z"/>
    <path class="cls-22" d="M70.37,82.2c-1.81.89-2.55,3.11-1.65,4.95.48.97,1.16,1.92,2.04,2.33.87.2,1.73.01,2.29-.7,1.18-1.48,2.12-2.21,2.7-2.76.09-.65-.08-1.32-.46-2.1-.9-1.84-3.11-2.62-4.92-1.73ZM73.58,88.03c-.86,1.09-2.4.13-3.07-1.23s-.32-2.9.78-3.44,2.53.13,3.2,1.49.26,1.7-.91,3.18Z"/>
    <g>
      <path class="cls-35" d="M70.97,83.44c-1.1.54-1.45,2.08-.78,3.44s2.21,2.32,3.07,1.23c1.17-1.48,1.58-1.82.91-3.18s-2.1-2.03-3.2-1.49ZM71.8,85.56c-.33.16-.74.01-.9-.33s-.04-.76.29-.92.74-.01.9.33.04.76-.29.92Z"/>
      <path class="cls-35" d="M72.33,88.93c-.06,0-.11,0-.17,0-.85-.09-1.77-.85-2.28-1.89-.75-1.53-.33-3.28.94-3.9.63-.31,1.36-.3,2.06.03.68.31,1.24.89,1.6,1.62.72,1.46.3,1.98-.71,3.24-.08.1-.16.2-.24.3-.31.39-.73.61-1.2.61ZM71.79,83.6c-.23,0-.46.05-.67.15-.93.45-1.21,1.79-.62,2.98.4.81,1.12,1.44,1.73,1.5.31.03.55-.08.76-.34.09-.11.17-.21.24-.31.97-1.22,1.15-1.44.63-2.51-.29-.59-.74-1.05-1.27-1.3-.27-.12-.54-.19-.8-.19ZM71.51,85.97c-.38,0-.75-.22-.93-.59-.25-.52-.05-1.13.45-1.38.24-.12.52-.13.78-.04.25.09.46.28.58.53.12.25.14.53.06.78-.08.26-.26.48-.51.6-.14.07-.29.1-.43.1ZM71.47,84.59s-.09.01-.13.03c-.16.08-.22.28-.13.46.09.17.28.25.44.17.07-.04.13-.1.16-.19.03-.09.02-.19-.02-.27-.04-.09-.11-.15-.2-.18-.04-.01-.07-.02-.11-.02Z"/>
    </g>
    <path class="cls-22" d="M71.5,84.23c-.33.16-.46.57-.29.92s.57.49.9.33.46-.57.29-.92-.57-.49-.9-.33Z"/>
    <path class="cls-20" d="M71.29,83.36c-1.1.54-1.45,2.08-.78,3.44s2.21,2.32,3.07,1.23c1.17-1.48,1.58-1.82.91-3.18s-2.1-2.03-3.2-1.49ZM72.11,85.48c-.33.16-.74.01-.9-.33s-.04-.76.29-.92.74-.01.9.33.04.76-.29.92Z"/>
    <path class="cls-33" d="M72.57,89.3c.9-1.75,4-5.3,6.19-4.68.18.06.33.18.46.31-1.17-.53-2.63.9-3.5,1.59-1.06.91-2.06,1.88-3.15,2.78h0Z"/>
    <path class="cls-38" d="M77.65,66.69s-1.49-2.94-4.8-1.56c-.08.03-.16.08-.23.12-.64.39-4.04,2.39-7.95,2.74,0,0-3.59.02-3.44,4.36l-.39,5.03s5.6-3.79,14.13-4.18l6.1-.16-3.42-6.37Z"/>
    <path class="cls-40" d="M74.67,73.33l-1.15-3.29s-.76-1.71-3.49-1.07c-.97.23-3.96.37-3.96.37,0,0-1.01-.32,1.21-.59s5.42-2.77,5.42-2.77c0,0,3.76-3.02,5.98,2.38l2.28,4.59-6.29.38Z"/>
    <path class="cls-5" d="M60.86,78.36l-.05,1.5s8.13-2.14,13.66-4.85l3.15-1.24s-5.67-1.3-16.1,3.64c-.38.18-.65.52-.66.96Z"/>
    <path class="cls-9" d="M60.78,76.91s8.36-4.72,20.39-4.25v.79s-3.64.29-3.64.29c0,0-7.92-.52-16.69,4.07l-.07-.9Z"/>
    <path class="cls-3" d="M53.41,84.08s.23-.07.25-.08c.22-.1,3.82-.16,10.31-2.06,0,0,1.93-.2,11.44-5.02,0,0,.01,0,.02,0,.27-.12,7.39-3.2,10.27-2.04.03.01.25.02.28.02.23,0,1.23.02,1.22-.4,0-.11-.08-.2-.19-.24-.87-.27-6.31-1.75-14.32,1.94,0,0-8.24,3.55-13.53,4.69,0,0-.01,0-.02,0-.24.07-5.67,1.65-6.4,2.94-.01.03-.02.06-.02.09.02.11-.07.41.7.16Z"/>
    <path class="cls-43" d="M56.89,86.27l1.8-2.33-5.84.06c-.08,0-.14.06-.14.14-.01.42.29,1.67,4.18,2.13Z"/>
    <path class="cls-2" d="M79.21,76.54s3.87.7,7.49-.06c0,0,1.19-.36,1.79-1.14.18-.24.12-.58-.14-.73-.21-.12-.48-.27-.75-.39-.43-.19-.91-.22-1.36-.09-1.47.41-6.29,1.78-7.02,2.41Z"/>
    <path class="cls-37" d="M53.11,84c1.44.02,2.83-.27,4.2-.58,2.74-.64,5.41-1.57,8.04-2.57,5.34-1.95,10.38-5.08,16.12-5.92,1.45-.18,2.93-.16,4.35.15-1.41.1-2.81.36-4.16.77-4.08,1.26-7.68,3.45-11.65,5.12-2.66,1.15-5.41,2.09-8.25,2.71-1.59.35-3.22.59-4.86.67-1.26.03-2.57.02-3.79-.36h0Z"/>
    <g>
      <g>
        <path class="cls-36" d="M89.93,89.76s2.82-2.2,4.59-2.86,3.99-.83,4.42,0-.69,3.92-2.92,5.19c0,0-2.97,2.51-6.69.05,0,0-.33-.11-.21-.48s.8-1.9.8-1.9Z"/>
        <path class="cls-36" d="M94.89,92.78c-.24.1-.51.2-.81.28-1.11.29-2.83.38-4.75-.9-.02,0-.15-.06-.21-.18-.05-.09-.05-.2,0-.32.13-.37.8-1.89.8-1.9h0s0,0,0,0c.03-.02,2.85-2.21,4.59-2.87,1.8-.68,4.01-.83,4.45.01.22.43.03,1.44-.46,2.45-.59,1.2-1.49,2.21-2.46,2.77,0,0-.43.36-1.15.67ZM89.95,89.78c-.05.1-.68,1.54-.8,1.89-.04.11-.04.21,0,.29.06.12.19.16.19.16h0c1.91,1.27,3.62,1.18,4.71.89,1.19-.32,1.93-.94,1.94-.94,2.15-1.23,3.35-4.31,2.91-5.16-.42-.81-2.65-.64-4.39.01-1.71.64-4.44,2.75-4.58,2.86Z"/>
      </g>
      <path class="cls-35" d="M89.73,90.77c.04-.08.09-.15.15-.22.38-.43,2.16-2.35,3.84-2.85,1.86-.55,3.48-1.27,4.85-.68.08.03.14.1.16.18.12.42.22,1.85-2.76,4.57,0,0-2.12,1.95-5.54.88-.67-.21-1.05-.92-.83-1.58.03-.1.08-.2.13-.31Z"/>
      <path class="cls-42" d="M90.87,90.29c1-.64,2.06-1.18,3.16-1.62.83-.34,1.69-.61,2.58-.7.3-.03.6-.04.89-.03v.02c-.29.04-.58.09-.87.14-.86.18-1.71.42-2.54.71-1.11.41-2.18.91-3.21,1.49,0,0-.01-.02-.01-.02h0Z"/>
      <path class="cls-42" d="M90.23,91.62c.76.21,1.55.31,2.33.32.34,0,.68-.03,1.03-.05.44-.03.87-.09,1.32-.14,0,0,0,.02,0,.02-.13.05-.29.11-.42.15-.29.08-.59.14-.88.17-.35.03-.7.02-1.05,0-.6-.03-1.19-.13-1.76-.28-.19-.05-.38-.11-.57-.18v-.02h0Z"/>
      <path class="cls-42" d="M91.02,90.99c.85-.29,1.71-.52,2.59-.71.87-.18,1.81-.35,2.68-.08,0,0,0,.02,0,.02-.45-.04-.89,0-1.33.05-.44.05-.88.09-1.32.16-.88.15-1.75.34-2.61.57,0,0,0-.02,0-.02h0Z"/>
      <path class="cls-42" d="M89.77,89.94c2.03-1.71,6.08-4.61,8.82-3.49.27.11.49.34.57.62.07.26.05.54.02.81-.03.26-.09.51-.17.76-.46,1.48-1.51,2.72-2.76,3.61-.32.22-.64.43-.99.61-.19.09-.38.16-.58.23-1.53.68-3.36.46-4.75-.44-.27-.17-.52-.36-.76-.56,0,0,.02-.03.02-.03.26.17.53.34.8.48,1.38.74,3.11.88,4.54.2.24-.1.48-.19.7-.32.69-.4,1.33-.88,1.9-1.44.69-.68,1.26-1.51,1.57-2.43.08-.23.14-.47.17-.7.03-.23.06-.46,0-.69-.06-.2-.21-.37-.41-.45-.67-.3-1.42-.31-2.14-.19-1.96.37-3.72,1.43-5.35,2.55-.41.29-.81.59-1.2.9l-.03-.03h0Z"/>
    </g>
    <path class="cls-39" d="M53.79,98.83s-1.78-2.1-.69-3.51c0,0,1.82-2.5,7.43-3.22,0,0-1.88-.81-5.84.82,0,0-5.23,1.91-1.88,5.26,0,0,.51.61.98.66Z"/>
    <path class="cls-7" d="M56.7,99.18c-1.47.2-3.05.12-4.31-.83-1.04-.78-1.26-2.3-.77-3.45.44-1.15,1.53-1.84,2.6-2.33,2.01-.92,4.39-1.08,6.48-.5-2.63.07-5.21.61-7.33,2.17-1.05.8-1.47,2.55-.45,3.5.96.91,2.46,1.22,3.78,1.43h0Z"/>
    <path class="cls-6" d="M87.7,83.19s2.25,3.96,1.92,5.07c0,0,19.31-5.22,18.98-19.46,0,0,1.05-6.74-3.07-10.25,0,0,2.07,10.97-6.72,19.52,0,0-4.25,3.86-11.12,5.12Z"/>
    <path class="cls-37" d="M83.9,79.53c2.37,1.1,4.34,3.04,5.63,5.31,2.29,4.02,1.72,8.72-1.25,12.22,0,0-.25.3-.25.3l-.27.28c-.51.55-1.15,1.11-1.73,1.56-.42.3-.85.59-1.29.85.27-.45.55-.87.83-1.28.37-.61.8-1.27,1.14-1.91,3.82-6.61,1.69-11.75-2.82-17.35h0Z"/>
  </g>
</svg>