<?xml version="1.0" encoding="UTF-8"?>
<svg id="Capa_1" data-name="Capa 1" xmlns="http://www.w3.org/2000/svg" xmlns:xlink="http://www.w3.org/1999/xlink" viewBox="0 0 144 107">
  <defs>
    <style>
      .cls-1 {
        fill: url(#Degradado_sin_nombre_87-9);
      }

      .cls-2 {
        fill: url(#Degradado_sin_nombre_87-3);
      }

      .cls-3 {
        fill: url(#Degradado_sin_nombre_87-2);
      }

      .cls-4 {
        fill: url(#Degradado_sin_nombre_87-8);
      }

      .cls-5 {
        fill: url(#Degradado_sin_nombre_87-4);
      }

      .cls-6 {
        fill: url(#Degradado_sin_nombre_87-7);
      }

      .cls-7 {
        fill: url(#Degradado_sin_nombre_87-6);
      }

      .cls-8 {
        fill: url(#Degradado_sin_nombre_87-5);
      }

      .cls-9 {
        fill: url(#Degradado_sin_nombre_8-17);
      }

      .cls-10 {
        fill: url(#Degradado_sin_nombre_8-18);
      }

      .cls-11 {
        fill: url(#Degradado_sin_nombre_8-11);
      }

      .cls-12 {
        fill: url(#Degradado_sin_nombre_8-13);
      }

      .cls-13 {
        fill: url(#Degradado_sin_nombre_8-10);
      }

      .cls-14 {
        fill: url(#Degradado_sin_nombre_8-14);
      }

      .cls-15 {
        fill: url(#Degradado_sin_nombre_8-12);
      }

      .cls-16 {
        fill: url(#Degradado_sin_nombre_8-16);
      }

      .cls-17 {
        fill: url(#Degradado_sin_nombre_8-15);
      }

      .cls-18 {
        fill: #fff;
      }

      .cls-19 {
        fill: url(#Degradado_sin_nombre_8-3);
      }

      .cls-20 {
        fill: url(#Degradado_sin_nombre_8-5);
      }

      .cls-21 {
        fill: url(#Degradado_sin_nombre_8-2);
      }

      .cls-22 {
        fill: url(#Degradado_sin_nombre_8-7);
      }

      .cls-23 {
        fill: url(#Degradado_sin_nombre_8-4);
      }

      .cls-24 {
        fill: url(#Degradado_sin_nombre_8-6);
      }

      .cls-25 {
        fill: url(#Degradado_sin_nombre_8-8);
      }

      .cls-26 {
        fill: url(#Degradado_sin_nombre_8-9);
      }

      .cls-27 {
        fill: url(#Degradado_sin_nombre_8);
      }

      .cls-28 {
        fill: url(#Degradado_sin_nombre_87);
      }

      .cls-29 {
        fill: url(#Degradado_sin_nombre_18);
      }

      .cls-30 {
        fill: url(#Degradado_sin_nombre_22);
      }

      .cls-31 {
        fill: url(#Degradado_sin_nombre_87-10);
      }

      .cls-32 {
        fill: url(#Degradado_sin_nombre_87-14);
      }

      .cls-33 {
        fill: url(#Degradado_sin_nombre_87-13);
      }

      .cls-34 {
        fill: url(#Degradado_sin_nombre_87-12);
      }

      .cls-35 {
        fill: url(#Degradado_sin_nombre_87-11);
      }
    </style>
    <linearGradient id="Degradado_sin_nombre_8" data-name="Degradado sin nombre 8" x1="124.51" y1="66.34" x2="134.46" y2="33.91" gradientUnits="userSpaceOnUse">
      <stop offset=".12" stop-color="#ff9a00"/>
      <stop offset="1" stop-color="#ff0003"/>
    </linearGradient>
    <linearGradient id="Degradado_sin_nombre_8-2" data-name="Degradado sin nombre 8" x1="101.2" y1="59.19" x2="111.15" y2="26.78" xlink:href="#Degradado_sin_nombre_8"/>
    <linearGradient id="Degradado_sin_nombre_87" data-name="Degradado sin nombre 87" x1="19.37" y1="55.6" x2="23.07" y2="29.13" gradientUnits="userSpaceOnUse">
      <stop offset="0" stop-color="#00b3e6"/>
      <stop offset=".22" stop-color="#00a9e1"/>
      <stop offset=".58" stop-color="#0091d6"/>
      <stop offset="1" stop-color="#007cc6"/>
    </linearGradient>
    <linearGradient id="Degradado_sin_nombre_87-2" data-name="Degradado sin nombre 87" x1="42.15" y1="58.78" x2="45.85" y2="32.32" xlink:href="#Degradado_sin_nombre_87"/>
    <linearGradient id="Degradado_sin_nombre_87-3" data-name="Degradado sin nombre 87" x1="61.65" y1="61.51" x2="65.35" y2="35.04" xlink:href="#Degradado_sin_nombre_87"/>
    <linearGradient id="Degradado_sin_nombre_87-4" data-name="Degradado sin nombre 87" x1="80.82" y1="64.19" x2="84.52" y2="37.72" xlink:href="#Degradado_sin_nombre_87"/>
    <linearGradient id="Degradado_sin_nombre_18" data-name="Degradado sin nombre 18" x1="116.43" y1="57.45" x2="105.62" y2="95.01" gradientUnits="userSpaceOnUse">
      <stop offset="0" stop-color="#ff9a00"/>
      <stop offset="1" stop-color="#ff0003"/>
    </linearGradient>
    <linearGradient id="Degradado_sin_nombre_8-3" data-name="Degradado sin nombre 8" x1="85.5" y1="48.54" x2="74.69" y2="86.1" xlink:href="#Degradado_sin_nombre_8"/>
    <linearGradient id="Degradado_sin_nombre_22" data-name="Degradado sin nombre 22" x1="60.65" y1="41.39" x2="49.84" y2="78.95" gradientUnits="userSpaceOnUse">
      <stop offset=".23" stop-color="#ff9a00"/>
      <stop offset="1" stop-color="#ff0003"/>
    </linearGradient>
    <linearGradient id="Degradado_sin_nombre_87-5" data-name="Degradado sin nombre 87" x1="26.98" y1="57.05" x2="16.59" y2="81.09" xlink:href="#Degradado_sin_nombre_87"/>
    <linearGradient id="Degradado_sin_nombre_87-6" data-name="Degradado sin nombre 87" x1="25.23" y1="56.29" x2="14.85" y2="80.34" xlink:href="#Degradado_sin_nombre_87"/>
    <linearGradient id="Degradado_sin_nombre_87-7" data-name="Degradado sin nombre 87" x1="23.1" y1="55.37" x2="12.72" y2="79.42" xlink:href="#Degradado_sin_nombre_87"/>
    <linearGradient id="Degradado_sin_nombre_87-8" data-name="Degradado sin nombre 87" x1="13.03" y1="51.02" x2="2.65" y2="75.07" xlink:href="#Degradado_sin_nombre_87"/>
    <linearGradient id="Degradado_sin_nombre_87-9" data-name="Degradado sin nombre 87" x1="23.1" y1="55.37" x2="12.72" y2="79.42" xlink:href="#Degradado_sin_nombre_87"/>
    <linearGradient id="Degradado_sin_nombre_87-10" data-name="Degradado sin nombre 87" x1="34.14" y1="60.14" x2="23.75" y2="84.18" xlink:href="#Degradado_sin_nombre_87"/>
    <linearGradient id="Degradado_sin_nombre_87-11" data-name="Degradado sin nombre 87" x1="34.83" y1="60.44" x2="24.44" y2="84.48" xlink:href="#Degradado_sin_nombre_87"/>
    <linearGradient id="Degradado_sin_nombre_87-12" data-name="Degradado sin nombre 87" x1="12.8" y1="50.92" x2="2.41" y2="74.97" xlink:href="#Degradado_sin_nombre_87"/>
    <linearGradient id="Degradado_sin_nombre_87-13" data-name="Degradado sin nombre 87" x1="36.2" y1="61.03" x2="25.81" y2="85.07" xlink:href="#Degradado_sin_nombre_87"/>
    <linearGradient id="Degradado_sin_nombre_87-14" data-name="Degradado sin nombre 87" x1="36" y1="60.94" x2="25.61" y2="84.99" xlink:href="#Degradado_sin_nombre_87"/>
    <linearGradient id="Degradado_sin_nombre_8-4" data-name="Degradado sin nombre 8" x1="114.19" y1="63.3" x2="124.15" y2="30.86" xlink:href="#Degradado_sin_nombre_8"/>
    <linearGradient id="Degradado_sin_nombre_8-5" data-name="Degradado sin nombre 8" x1="120.33" y1="65.18" x2="130.29" y2="32.74" xlink:href="#Degradado_sin_nombre_8"/>
    <linearGradient id="Degradado_sin_nombre_8-6" data-name="Degradado sin nombre 8" x1="126.69" y1="67.14" x2="136.65" y2="34.7" xlink:href="#Degradado_sin_nombre_8"/>
    <linearGradient id="Degradado_sin_nombre_8-7" data-name="Degradado sin nombre 8" x1="117.65" y1="64.36" x2="127.6" y2="31.92" xlink:href="#Degradado_sin_nombre_8"/>
    <linearGradient id="Degradado_sin_nombre_8-8" data-name="Degradado sin nombre 8" x1="123.65" y1="66.2" x2="133.61" y2="33.76" xlink:href="#Degradado_sin_nombre_8"/>
    <linearGradient id="Degradado_sin_nombre_8-9" data-name="Degradado sin nombre 8" x1="125.47" y1="66.76" x2="135.43" y2="34.32" xlink:href="#Degradado_sin_nombre_8"/>
    <linearGradient id="Degradado_sin_nombre_8-10" data-name="Degradado sin nombre 8" x1="125.44" y1="66.75" x2="135.4" y2="34.32" xlink:href="#Degradado_sin_nombre_8"/>
    <linearGradient id="Degradado_sin_nombre_8-11" data-name="Degradado sin nombre 8" x1="127.66" y1="67.43" x2="137.62" y2="35" xlink:href="#Degradado_sin_nombre_8"/>
    <linearGradient id="Degradado_sin_nombre_8-12" data-name="Degradado sin nombre 8" x1="125.4" y1="66.74" x2="135.36" y2="34.3" xlink:href="#Degradado_sin_nombre_8"/>
    <linearGradient id="Degradado_sin_nombre_8-13" data-name="Degradado sin nombre 8" x1="129.48" y1="67.99" x2="139.43" y2="35.55" xlink:href="#Degradado_sin_nombre_8"/>
    <linearGradient id="Degradado_sin_nombre_8-14" data-name="Degradado sin nombre 8" x1="128.97" y1="67.83" x2="138.93" y2="35.4" xlink:href="#Degradado_sin_nombre_8"/>
    <linearGradient id="Degradado_sin_nombre_8-15" data-name="Degradado sin nombre 8" x1="129.32" y1="67.94" x2="139.28" y2="35.5" xlink:href="#Degradado_sin_nombre_8"/>
    <linearGradient id="Degradado_sin_nombre_8-16" data-name="Degradado sin nombre 8" x1="125.11" y1="66.65" x2="135.06" y2="34.21" xlink:href="#Degradado_sin_nombre_8"/>
    <linearGradient id="Degradado_sin_nombre_8-17" data-name="Degradado sin nombre 8" x1="110.89" y1="62.29" x2="120.85" y2="29.85" xlink:href="#Degradado_sin_nombre_8"/>
    <linearGradient id="Degradado_sin_nombre_8-18" data-name="Degradado sin nombre 8" x1="107.84" y1="61.35" x2="117.8" y2="28.91" xlink:href="#Degradado_sin_nombre_8"/>
  </defs>
  <rect class="cls-18" x="25.51" y="86.32" width="92.98" height="8.04" rx="2.04" ry="2.04"/>
  <g>
    <path class="cls-18" d="M142.39,33.1c-.82-.82-1.98-.86-2.98-.38-.74.35-1.34,1.05-1.96,1.59-.36.31-.72.62-1.07.95-.06.05-.12.11-.17.17-.64-.02-1.25.2-1.8.69-.3.26-.6.52-.9.79-.67-.94-1.89-1.37-2.98-.89-1.01.45-1.89,1.75-1.42,2.9.12.29.23.57.35.86.01.1.02.2.05.3-.6.49-1.2.98-1.8,1.47-.12-.73-.46-1.35-.97-1.83-.09-.17-.2-.34-.34-.49-.1-.12-.21-.23-.3-.35.3.37.05.11-.24-.19-.23-.52-.58-1.01-1-1.48-.47-.53-1.04-.85-1.65-1.08,0-.06-.02-.13-.03-.19,0-.26,0-.52-.07-.74-.31-1.14-1.02-2.1-1.96-2.61-.07-.06-.15-.11-.23-.17.44-1.22.62-2.51.22-3.63.32-2.64-2.1-5.09-4.55-5.87-.77-.24-1.62-.33-2.42-.45-1.09-.17-2.02-.05-3.11-.02.87-.03-.05-.07-.26-.07-.52,0-1.05.05-1.55.18-2.91.73-5.7,3.13-7.02,5.79-1.39,2.8-1.38,5.71-.6,8.58-4.09,2.56-7.61,5.9-8.23,11-.33,2.68.29,5.99,2.36,8.14-.17.06-.34.13-.49.23-.02.01-.05.03-.07.05-.02,0-.04,0-.06,0-.57-.55-1.34-.77-2.31-.63-1.32.2-2.48,1.05-3.15,2.19-.03.06-.12.23-.21.4-.83-1.23-2.09-2.08-3.51-2.63-1.02-.4-2.1-.67-3.2-.83.07-.24.15-.48.26-.73.17-.39.26-.81.36-1.22.3-1.17.61-2.33.9-3.51.32-1.28.61-2.57.91-3.86h5.42c1.06,0,2.11-.77,2.37-1.81.52-2.09,1.04-4.18,1.56-6.27.38-1.55-.74-3.11-2.37-3.11-1.45,0-2.9,0-4.35,0,.13-.5.25-1.01.38-1.51,2.16,0,4.31,0,6.47-.01,1.06,0,2.11-.76,2.37-1.81.53-2.15,1.06-4.29,1.59-6.44.38-1.54-.74-3.11-2.37-3.11-5.6,0-11.2,0-16.81,0-.47,0-1.01.18-1.46.49-.39-.31-.88-.5-1.47-.5-5.59,0-11.18,0-16.77,0-.49,0-1.02.18-1.46.49-.4-.23-.86-.35-1.33-.32-.8-.26-1.69-.18-2.6-.18-1.86,0-3.72,0-5.59,0-2.97,0-5.95,0-8.92,0-.99,0-2.19.76-2.37,1.81-.11.64-.25,1.28-.37,1.92-.02-.04-.05-.08-.07-.12-.03-.33-.14-.65-.35-.96-1.66-2.33-3.98-3.29-6.78-3.3-1.74,0-3.47,0-5.21,0-3.34,0-6.67,0-10.01-.01-1.37,0-2.41,1.13-2.46,2.46,0,.19-.03.38-.03.57-.1.4-.17.82-.26,1.22-.1.46-.21.92-.3,1.38-.06.29-.13.51-.13.84,0,.02,0,.03,0,.04-.1.24-.18.49-.24.77-.24,1.05-.48,2.11-.73,3.16-.54,2.34-1.08,4.69-1.61,7.03-.78,3.47-1.5,6.94-2.31,10.4-.48,2.06-.96,4.13-1.44,6.19-.17.73,0,1.47.38,2.05-1.23.37-2.19,1.73-1.73,3.03.05.15.12.3.19.46-.04.12-.09.25-.13.37-.28.81.04,1.8.63,2.39.05.05.11.08.17.13-.01.02-.02.05-.03.07-1.9.08-2.77,2.2-2.46,4,.07.42.19.82.34,1.2-.37.36-.56.79-.63,1.25-.11.08-.21.16-.22.17,0,0,0,0,0,0,0,0-.01.01-.02.02,0,0,0,0,0,.01l-.38.5s0,0,0,0c0,.01-.02.03-.02.05-.03.06-.23.53-.25.59,0,0,0,0,0,.01,0,.01,0,.02,0,.03,0,0,0,.02,0,.03,0,0,0,0,0,.01-.02.11-.08.55-.09.66,0,.02,0,.04,0,.07,0,.02,0,.04,0,.06,0,0,0,0,0,.01.02.19.06.47.09.66,0,.01,0,.02,0,.04,0,.02,0,.04.01.06,0,0,0,.02,0,.02,0,0,0,.01,0,.02.06.17.18.43.25.59.05.13.18.25.25.34.09.12.18.26.3.35.04.03.08.06.12.09.07.16.16.32.25.47-.05.04-.09.06-.14.1-1.09.87-.79,2.57,0,3.48.22.25.42.49.65.7-.04.91.34,1.87,1.16,2.34.54.32,1.1.53,1.67.7.31.46.79.81,1.38,1.04,5.64,2.19,11.28.65,16.82-.96,2.31-.67,4.66-1.03,7.06-.56,1.37.27,2.73.62,4.09.93.53.12,1.08.08,1.57-.11.13,1.11,1.07,2.03,2.23,2.18.85.66,2.1.75,3.17-.18.16-.14.37-.3.5-.49.23-.07.44-.15.66-.24.32-.13.64-.26.96-.37,1.25.62,2.56.26,3.36-.89.01-.01.02-.03.03-.04.65-.22,1.3-.44,1.96-.59,1.44-.11,2.89-.81,4.2-1.32.87-.34,1.75-.69,2.58-1.14.43-.23.84-.52,1.27-.78.53-.03,1.07-.22,1.57-.61.06-.05.13-.08.19-.13.95-.19,1.87-.8,2.85-1.43.04-.03.09-.06.13-.09-.05.37,0,.71.12,1.02-.33.82-.66,1.65-.98,2.47-.39,1,.26,2.27,1.13,2.78,1.01.59,2.12.31,2.98-.38.41-.34.82-.67,1.21-1.04.06-.06.1-.12.16-.18.18-.04.35-.09.51-.17.03,0,.06,0,.1,0,1.13-.14,1.82-.54,2.45-1.33,1.04-.82,1.65-2.26,2.34-3.41.01-.02.02-.04.04-.06.47.51.98.99,1.48,1.48,1.16,1.12,2.38,2.19,3.57,3.28.24.22.5.38.76.49-.04.14-.08.28-.12.42-.6,2.16,2.19,4.11,3.88,2.62.51.25,1.09.28,1.63.12.2.1.41.18.62.25.2.06.42.09.65.09.31.27.62.55.93.82,2.16,1.84,5.07-.42,3.86-2.98-.26-.56-.6-1.08-.98-1.57-.05-.31-.15-.63-.31-.92.54-.77,1.04-1.56,1.51-2.37-.06.23-.13.46-.18.7-.43,1.85.22,3.49,1.86,4.29.09.18.17.36.28.54.78,1.27,2.27,1.49,3.45.79.62-.07,1.1-.31,1.51-.65.84.09,1.7-.17,2.43-.91.45-.46.83-1.02,1.24-1.51.02-.02.03-.04.04-.06.17,1.11.94,2.08,2.26,2.03.05.16.12.31.2.45.71,1.17,1.77,1.62,2.99,1.56.25,0,.51-.01.79-.1,2.28-.66,4.58-1.23,6.87-1.85,1.2-.33,2.39-.67,3.6-.97,1.11-.28,2.37-.7,3.47-.94.59.07,1.14-.06,1.84-.27.02,0,.03,0,.06,0,.37-.03.76-.06,1.12-.16.18-.05.35-.11.53-.18.2,0,.41-.01.62-.05.88-.16,1.51-.51,2.21-1.07.28-.22.46-.49.58-.78.21-.05.42-.08.62-.13.41-.1.73-.29,1-.54.54-.09,1.07-.18,1.61-.27,2.35-.39,2.35-4.35,0-4.74-1.51-.25-3.04-.27-4.57-.2,0,0,0,0,0,0,.56-.31.87-.84.98-1.45.03,0,.05-.02.08-.03,2.03-.73,2.35-3.36.65-4.44.42-.07.84-.14,1.25-.25.15-.05.25-.07.32-.1.29-.02.57-.05.86-.1.63-.16,1.11-.51,1.57-.95.32-.31.53-.65.64-.99.38-.06.77-.12,1.16-.18,1.19-.19,1.93-1.61,1.76-2.7-.18-1.18-.97-1.82-2.04-2.06.11-.14.21-.28.29-.44.07-.03.15-.06.22-.09.05-.02.1-.05.14-.08.21-.13.41-.3.6-.46.02-.01.03-.03.04-.04.01-.01.02-.03.03-.04,0,0,0,0,0,0,.1-.1.18-.22.26-.33.04-.06.09-.11.13-.17,0,0,0,0,0,0,0,0,0,0,0,0,.1-.16.17-.34.22-.52,0-.02.02-.04.02-.06,0,0,.03-.24.06-.43,0,0,0,0,.01-.01.34-.37.52-.66.67-1.15,0,0,0-.01,0-.02,0-.03.08-.55.09-.63.09-.12.19-.25.23-.29,0-.01.02-.02.02-.04,0-.01.01-.03.02-.04.09-.21.19-.41.26-.63,0-.02.01-.04.01-.05,0,0,0-.02,0-.03.02-.1.03-.2.04-.3.01-.06.01-.11.02-.17,0-.07.02-.14.03-.21,0-.05,0-.09,0-.14,0-.2-.03-.4-.08-.59v-.07c-.07-.23-.17-.44-.29-.63.05-.04.1-.07.15-.11.16-.15.31-.3.47-.46.14-.14.26-.3.36-.47.05-.04.09-.07.14-.11.07-.07.11-.16.18-.24.1-.05.21-.11.3-.17.12-.02.24-.05.35-.07,1.53-.32,2.28-2.33,1.47-3.61-.38-.6-.76-1.21-1.13-1.81.6-.72,1.18-1.45,1.65-2.24.16-.27.26-.55.31-.81.15-.18.3-.37.43-.56.62-.89,1.16-1.85,1.73-2.76.49-.79.42-1.62.05-2.3.54-.93.35-2.19-.4-2.94ZM4.22,60.85s0,0,0,0c.03.06.05.12.08.18-.02-.06-.05-.12-.07-.18ZM71.37,75s0,0,0,0c-.01,0-.03-.02-.04-.03.01,0,.02.02.04.02ZM33.14,42.21c-.51,2.17-1.02,4.35-1.53,6.52-.02-.04-.05-.07-.07-.11-.04-1.07-.31-2.09-.56-3.21-.09-.41-.17-.82-.26-1.23.99-.5,1.84-1.13,2.41-1.98ZM35.98,76.75c-.14-1.01-.76-1.98-1.72-2.64-.17-.12-.37-.19-.57-.25-.06-.06-.12-.11-.2-.17,0,0-.02-.01-.03-.02.04-.11.09-.21.13-.32,0-.02.02-.05.02-.07,0-.02,0-.04.01-.06,0-.04.01-.09.02-.14.07-.05.13-.1.2-.15.02-.02.04-.03.05-.05.14-.13.25-.28.34-.44.02-.02.03-.04.04-.06,0,0,0,0,0,0,0,0,0-.01.01-.02,0,0,0,0,0-.01.02-.04.23-.55.25-.59,0,0,0-.02,0-.03,0,0,0-.02,0-.02.04-.21.1-.78.09-.67,0-.02,0-.03,0-.05s0-.04,0-.05c-.03-.23-.05-.47-.1-.7,0-.02,0-.03-.01-.05,0,0,0-.01,0-.02-.04-.1-.11-.25-.13-.3-.04-.09-.08-.21-.13-.31,0-.01-.01-.03-.02-.04-.12-.19-.26-.36-.41-.53-.13-.14-.29-.26-.46-.36-.02-.06-.09-.23-.13-.3-.27-.44-.53-.68-.97-.96-.02-.01-.05-.03-.07-.04-.1-.04-.22-.1-.36-.16,1.17-1.38,2.03-3.42,1.45-5.15.95-.5,1.72-1.13,2.37-2.09.22-.32.32-.69.34-1.06.04-.31.06-.61.03-.89,1.54,0,3.09,0,4.63,0,.42,0,.85,0,1.27,0-.03.06-.05.13-.07.2-.93.37-1.84.81-2.44,1.58-.93,1.2-1.03,3.02.5,3.86.92.5,1.78.55,2.69.41.54.48,1.32.76,2.24.62.29-.04.59-.09.88-.13-1.71,3.24-3.29,6.44-4.87,9.94l-2.07.73c-.6.21-1.04.57-1.32.99-.51.18-1.02.39-1.54.59ZM19.06,54.02c.12.72.24,1.43.36,2.15.01.08.04.15.07.23-.18.06-.36.12-.53.19-.2.08-.39.17-.56.27-.06.02-.13.03-.19.05.16-.22.28-.47.34-.73.18-.72.35-1.44.53-2.17ZM58.79,63.73s.06.03.12.05c.05.02.1.05.14.07.03.02.27.17.42.26.03.03.06.06.09.08.02.02.02.02.03.04.02.03.03.05.05.07.03.06.06.1.08.13,0,0,0,0,0,0,0,.08,0,.18-.03.24-.02.09-.2.55-.19.56-.06.12-.12.25-.19.37-.11.19-.23.37-.36.54-.05.06-.26.32-.31.38-.33.37-.69.71-1.06,1.03-.06.05-.34.28-.39.32-.15.11-.3.22-.45.32-.31.21-.64.39-.97.57-.48.27-.96.54-1.44.81.74-1.38,1.48-2.75,2.26-4.1l1.16-2.01c.22.05.44.12.63.17.05.01.23.05.39.1ZM58.8,63.74c.12.03.23.07.24.1-.12-.05-.19-.09-.24-.1ZM59.78,64.81s0,.03,0,0h0ZM21.86,70.17c-.48.2-.91.56-1.19.99-.17-.12-.36-.22-.55-.3.1-.05.21-.09.31-.15.26-.14.5-.34.72-.54.06-.06.11-.12.17-.19.18,0,.35.02.54,0,.07,0,.14-.02.21-.03-.06.06-.12.11-.18.17,0,.01-.02.02-.03.03ZM27.09,69.25c-.19-.05-.37-.07-.55-.08-.25-.17-.53-.3-.83-.38.11-.05.21-.09.32-.16.3.28.67.48,1.08.6,0,0-.01.01-.01.02ZM46.51,44.65c.33.17.69.28,1.08.29,1.34.03,2.68.06,4.02.09.28,0,.56-.05.84-.16-.16.66-.31,1.32-.47,1.98-.19-.05-.4-.08-.61-.08-1.73,0-3.46,0-5.19,0-.27,0-.54,0-.81,0,.19-.66.36-1.33.51-2,.21-.04.42-.09.62-.13ZM71.74,46.82c-.15-.03-.31-.05-.48-.05-1.99,0-3.97,0-5.96,0,.16-.63.32-1.26.48-1.88.19-.03.37-.06.56-.1.85.2,1.79.15,2.66.17.85.02,1.71.03,2.56.05.21,0,.42-.03.63-.09-.15.63-.3,1.27-.45,1.9ZM74.67,34.38c-.42-.37-.97-.59-1.58-.59-1.59,0-3.18,0-4.77,0,.08-.34.16-.68.24-1.02,2.16,0,4.32,0,6.48,0-.13.54-.25,1.08-.38,1.61ZM53.11,33.79h-4.69c.09-.35.17-.7.25-1.05,2.22-.05,4.43,0,6.65.03-.15.61-.29,1.22-.44,1.83-.44-.48-1.05-.8-1.78-.8ZM15.58,58.33c-.4.28-.79.6-1.17.92-.11-.2-.25-.4-.41-.61-.27-.34-.61-.61-.96-.86.25.09.51.15.76.16.76.02,1.52.04,2.28.06-.17.12-.34.23-.5.34ZM113.21,66.66s.03-.03.04-.05c0,0,.01-.01.02-.02,0,0,.01,0,.02,0,0,.02.01.03.02.05h0s-.06.01-.1.01ZM105.42,48.25s-.03-.01-.05-.02c-.03,0-.06,0-.09-.01.04-.15.08-.29.13-.44,0,0,0,0,0,0-.01.16,0,.31,0,.46ZM104.42,58.67c.08.08.16.16.25.23.5.73,1.22,1.2,2.12,1.38-.11.11-.2.23-.29.35-.31.19-.61.42-.91.72-.61.62-1.23,1.23-1.84,1.85-.11.11-.22.24-.33.35.11-.69.15-1.36,0-1.93-.16-.58-.5-1.03-.94-1.34,0-.25-.01-.5-.01-.74,0-.29-.07-.57-.17-.83.71.03,1.43.03,2.13-.04ZM81.57,72.52s-.09-.09-.13-.13c-.14-.11-.28-.21-.42-.32-.04-.04-.07-.08-.11-.12-.05-.14-.12-.29-.2-.43.58-.23,1.15-.48,1.72-.74-.29.58-.59,1.15-.87,1.74ZM2.81,66.77c-.05-.19-.04-.26,0,0h0ZM42.28,83.89c-.16.08-.38.11,0,0h0ZM69.32,79.76c-.05.01-.1.03-.15.04.07-.03.14-.06.21-.1l-.06.06Z"/>
    <g>
      <path class="cls-27" d="M137.8,40.32c-.91,1.12-1.66,2.37-2.88,3.22l2.55-3.79.65-.87c.36-.48.69-.77.83-1.35l.58-.79.41-.77.71-1.16c-.39.14-.58.43-.83.65l-1.64,1.45-2.35,2.28c-.28.28-.59.5-.94.6l1.32-1.52c.05-.06.13-.21.14-.28.01-.07-.14-.15-.21-.17l-3.18,2.77-1.5-2.37.48,1.18-.08.08.65,1.24-4.09,3.34-.11.07-.08.14c-1.37,1.17-3.51,2.61-5.18,2.6-.27,1.27-.6,3.72.25,5.55.66-.12,1.29-.32,1.87-.64l.98-.72.18.39,3.03-1.74-.23-.32c-.04-.06.23-.19.29-.15l.23.17,1.44-1.1,1.59,1.92c.5.2.68.42,1.2.84l-.29-1.48-.38-.65.57.48.08-.08-1.13-1.29c.6.27.98.79,1.45,1.27l.55.57.47-.46-.62-1,.81.43c.08.04.25.05.31-.01.27-.27-.68-1.06-.91-1.92l1.15,1.05.68.07-1.02-1.43c.52.35.83.76,1.25,1.26l.76-.16-.73-1.14-1.31-2.12,1.1-1.35c.52-.64,1-1.12,1.45-1.92l-1.13.57.77-.75,1.08-1.15,1.76-2.8-2.24,2.54-.58.72ZM127.8,49.66l2.61-2.13c-.68.9-1.62,1.64-2.61,2.13Z"/>
      <path class="cls-21" d="M104.72,50.58c-.72,0-1.34-.28-1.79-.97l-.41.06c-.09.01-.22-.21-.23-.29-.02-.09.24-.18.4-.22-.12-2.46,1.8-5.06,4.01-6.46l1.5,2.65,4.43-3.6-.43-.7.17-.32-.75-1.37.97-.74,1.59-1.24c-.01-.23.02-.46.12-.56.08-.08.32-.07.52-.03,1.13-.89,2.15-2.08,2.87-3.37l.43-.77c.62-1.11,1.27-3.06.37-3.49l.27-.66c-.2-1.49-1.16-2.49-2.49-3.06-.47-.22-.92-.3-1.42-.37-1.06-.15-2.07-.46-3.15-.24-.97.19-1.45-.53-4.26,1.31-2.49,1.62-4.02,4.32-3.97,7.33.03,1.62.52,3.13,1.09,4.58-4.55,2.54-8.57,5.47-8.81,10.97.11.18.05.34.04.59-.05,1.33.36,2.69,1.03,3.83.88,1.51,2.43,2.37,4.14,2.65,1.33.22,2.72.3,4.01.06-.84-1.83-.51-4.27-.25-5.55ZM116.28,34.33c-.06.62-.7.88-1.16,1.27l-2.16,1.87-.14-.11,1.31-1.13,2.15-1.89ZM112.96,29.1c.57.1,1.15.53,1.16,1.1.03,1.87-2.49,3.79-4.29,4.91l-.41-1.99c-.14-2.02,1.6-4.36,3.55-4.03Z"/>
      <path class="cls-28" d="M29.46,49.93l.85,4.21.33,1.33h-2.99s.05-.63.05-.63c-.19.07-.32.14-.29.2l.12.39-1.95.04-3.8.02-2.04-12.29h-.59s-2.99,12.3-2.99,12.3l-2.37-.06c.03-.5.12-.92.28-1.37l-.16-.6-.63,1.41c-.72.07-.83.86-1.37.33l-1.23.27-3.11.03,3.15-13.57.5-2.62,2.6-11.33.44-.3c.09-.06-.2-.35-.28-.44l.68-3.13.04-.87,15.89.02c1.64,0,3.15.79,3.98,2.08-.32.22-.48.37-.72.65-.62.71-1.54.86-1.4,1.01l.14.14.83-.4,1.36-.63c.29.15.48.91.24,1.21l-.21.28c-.05.07.19.3.18.39l-.2,1.78-1.89,7.91c-.16.65-.45,1.18-.82,1.69-.07.22-.17.69-.31.74l-.35.12c-.07.02-.08.24-.1.41-.8.93-1.88,1.51-3.06,1.9-.44-.03-.79-.14-1.06-.38l.07.29c.04.17-.56.08-.55.19v.19c.01.07.6-.08,1.27.36l.81,3.71.4,1.78c.02.26-.15.8-.22,1.06l.27-.05c.05-.01.2.17.21.24ZM25,36.53l1.25-5.41c.08-.36-.01-.85-.21-1.1-.6-.77-2.38-.49-3.73-.44l-1.99,8.54,2.83-.04c.89-.01,1.64-.64,1.85-1.56Z"/>
      <path class="cls-3" d="M42.32,48.14c-.19.47-.3.9-.77,1.2-.1.06-.24.27-.26.37.32-.12.81-.5,1.16-.5h8.93s-.37,1.42-.37,1.42c-.08.31-.32.57-.61.71.19.35.35.91.17,1.35l-.46,1.09c.02.55-.04,1.08-.24,1.69l-3.24-.1c.29-.4.47-.5.44-.99l-.83.71c-.6-.07-1.2.03-1.66.31l-2,.08h-10.06s.46-1.82.46-1.82l3.73-15.94,1.07-.4c.11-.04.46-.04.5.05l.16.41c.09-.32.25-.62.45-.88l-.7-.08c-.35.16-.85.32-1.33.36l1.86-7.88.85-3.71.29-1.69h16.37s.24.26.24.26c.08.09.43-.05.63-.1l-.33,1.12c-.12.41-.32.76-.66,1.09.17.19.33.58.26.87l-.75,3.13-4.67-.06-2.75.02-1.47.07-.44,1.61-.49,1.88c-.15.59-.24,1.13-.55,1.62v.79s7.85,0,7.85,0l-.8,3.31-.27.76-.43,2.25-4.02-.09.26-.39-.62-.12-1.51.34c-.61.14-1.14.24-1.82.21l-1.1,4.47-.48,1.18Z"/>
      <path class="cls-2" d="M71.25,49.21c-.12.51-.26,1.04-.47,1.5-.12.25-.1.47-.16.72l-.94,4.06-2.66-.15c-.41-.02-.47-.18-1.02.07l.53-.84-.9.43c-.48.13-1.25.44-1.81.44l-10.14.03c.35-.79,1.09-.7,1.34-1.47-.87.39-1.43,1.39-2.59,1.49l3.76-15.76.97-.86,1.22-1.05.53-.44c-.16-.05-.33-.12-.37-.09l-.25.24c-.18.17-.51.37-.76.5l-1.1.59,2.44-10.37.49-2.01.41-2.34h16.77s-.5.53-.5.53l.86-.13c-.11.59-.23,1.18-.46,1.7-.11.24-.09.3-.15.56l-.85,3.71h-8.82s-1.42,5.94-1.42,5.94h7.88s-.98,3.81-.98,3.81l-.33.24c-.07.05.16.36.14.45l-.36,1.8-3.27-.06c-.39,0-.71-.14-1.15-.02-.18.05-.52-.15-.68-.28-.21.11-.65.32-.89.33l-1.73.03-1.6,6.3c-.08.31-.48.48-.77.34l-.6.74,1.32-.69h9.07Z"/>
      <path class="cls-5" d="M78.1,55.36l.68-2.48s-.24-.02-.25.03l-.05.36-.55.96c-.57,1-.57.54-1.26,1.15-.06.06-.18-.24-.22-.36-.31.23-.69.47-1.11.47h-3.13s3.95-16.85,3.95-16.85l2.6-10.97c.51-.05.79-.14,1.06-.57l-.94.11.35-1.75.22-1.55h16.81s-1.59,6.43-1.59,6.43h-8.38s-1.63,6.44-1.63,6.44h7.51s-1.56,6.27-1.56,6.27h-7.37s-1.33,5.63-1.33,5.63l-1.15,4.47c-.39.48-.53,1-.51,1.58l-.23.73-1.93-.11Z"/>
      <g>
        <path class="cls-29" d="M105.84,82.43c-.41.12-.85.14-1-.34l2.31-1.22c-.8,0-1.31.54-2.36-.14l.68-.5-2.89.19c.14-.44.41-.61.77-.75l1.66-.6-.66-.2,1.68-.71c.24-.18.38-.75.56-1.04l2.16-3.51-.6-.17.88-.79-.47-.21c.24-.36.52-.57.93-.71l.45-.47c-.64.06-1.06.14-1.79.09.51-.43,1.05-.52,1.58-.84.36-.21.77-.39,1.23-.51l2.58-3.71-1.39.03,1.06-.89-.78-.39,1.67-.95-1.17-.04c-.38-.01-.66-.03-.94.27l-3.92,4.24-1.36,1.46-6.84,7.63c-.38,0-.22.53-.81.89-.46-.12-.73.57-.77.45l-.11-.31-.55.71.84-.21-1.24,1.51c-.09.11-.35.32-.48.29-.15-.03-.44-.23-.5-.31.12-.12.27-.25.22-.27l-.24-.09.06-.43-1.25,1.57c-.06.07-.32.18-.36.11l-.19-.38c-.19.24-.46.5-.79.77-.48-.68-.57-1.33-.67-2.1-.32-.02-.45.2-.5.68-.22-.02-.53-.24-.66-.43-.21-.31-.17-.64-.07-1.02l2.7-10.01.31-1.03c.16-1.14.59-2.17,1.01-3.21l1.04-2.61.52-.35c.06,0,.2.3.18.44l-.35,2.02c.44-1.17.8-2.35,1.41-3.46.94-.39.83-1.28,1.37-1.34v1.51c-.01.44.12.67.02,1.11l-.53,2.37c.43-.67.71-1.38,1.04-2.15.05-.11.52-.22.51-.1-.16,1.5-.52,2.86-.97,4.28l-.68,2.15-.54,1.8-.81,2.7,1.54-1.86,5.19-5.68,3.08-3.09c.1-.02.47,0,.48-.09l.03-.37,1.51-1.29c.74-.63,1.47-1.24,2.38-1.7-.55,1-1.45,1.48-2,2.42l1.71-1.31,1.41-1.08,1.14-.82,1.42-.87-.85,1.04-.48.51c-.03.08-.13.35-.21.43l-1.02,1.04c-.06.06-.06.27-.02.39l-2.91,3.36c1.56-1.32,2.92-2.68,4.59-3.74-.12.38-.25.56-.47.79l-.98,1.02c-.03.23-.13.48-.42.81l2.9-.63.79-.47c.12-.07.44.02.55.1l3.59-.52c2.68-.39,5.32-.55,8.09-.38l-2.66.42,5.14.02,1.36.18-3.39.54.04.16,1.16-.05-.09.15-1.95.35-1.31.24-1.82.37c1.55-.05,2.97-.15,4.48.05-.36.51-.86.25-1.25.39-.56.2-1.06.27-1.63.37l-1.25.21-3.39.53-3.3.6-2.26,3.21,3.33-.49c1.26-.19,2.47-.25,3.81-.15l-2.26.46,3.24-.07,1.28.11c.17.02.18.06,0,.08l-1.29.33-1.57.4c.45.06.69.02,1.16.15l-3.57.76c-.18.08-.14.12.02.12.67-.08,1.21-.11,1.83-.06.53.04,1.11-.12,1.73.07-1.21.57-2.39.6-3.58.92l-.77.21-1.38.29-4.76,1.03-1.96,2.84.33-1.07c-.86.79-.53,1.22-.8,1.82,3.38-.73,6.73-1.42,10.17-1.72l1.16-.1,1.84-.03-1.59.28-2.5.49,5.32-.44c1.28-.11,2.52-.16,3.87.1l-3.38.56-2.06.34v.16s2.84-.25,2.84-.25l-1.54.36-5.66,1.06.07.12c.98-.04,1.9-.44,3-.31l-2.47.58,2.41-.19,1.9-.08c-.31.32-.62.34-1.12.43l-.13-.21-.17.03c-.55.42-1.12.52-1.83.51l-1.06.37c-.48-.39-.81.03-1.28.15l-2.32.55-1.27.31-5.92,1.62-1.76.46-1.16.29-1.22.36ZM104.4,71.97l.1.1,1.34-1.36-.1-.1-1.34,1.36ZM109.03,80.8l2.28-.53c-1.42.02-2.73.38-3.99.86.61-.04,1.14-.2,1.7-.33Z"/>
        <path class="cls-19" d="M84.36,82.1l-1.51-1.47s-.33.01-.39-.05l-.7-.77c-.04.12-.11.4-.11.53,0,.1.84.73,1.13,1.66-.57-.35-1-.71-1.49-1.15l-.4.64-.66.77.5-1.78-1.55-1.62-.23.1-1.61-1.48-.87-.81-.81-.73-1.94-1.9-.5-.72-1.51-1.58-1.36,2.43-2.03,3.42c-.5-.09-.35.73-.98.69l.2-.7.71-2.14-1.61,2.57c-.16.25-.25.47-.61.59l.79-1.9c-.74.75-1.04,1.78-1.8,2.48l-.7.64-.69.56,1.41-3.58.64-1.43-1.09,1.09c.35-1.18.9-2.1,1.37-3.15l.64-1.42.71-1.57c.15-.33.23-.74.49-1.07-.03-.3.06-.57.43-.63l1.18-2.23,2.54-4.46-1.53.14-.49-.22-1.24.17c.02-.82,1.37-1.15,1.28-1.26l-.26-.31,1.36-.58-3.17.27-.19-.12c-.05-.03.11-.18.18-.21l1-.51c.51-.26,1.16-.4,1.7-.5l1.75-.33v-.09s-.49-.1-.49-.1l2.01-.47.87-.24,2.41-.34c2.59-.37,6.9-.09,9.09,1.28.91.57,1.5,1.3,1.73,2.35.3,1.36-.18,2.8-1.12,3.85-1.55,1.75-3.14,2.74-5.24,3.68l-2.12.96-2.76,1.09,1.95,2.36-.33-.06,1.08,1.22c.36.18.75.47.64.93.46.6.82,1.12,1.39,1.61l-.38-.83,1.19,1.17.57-1.36c1.92-3.96,3.93-7.8,6.19-11.57l2.52-4.21c.32-.89.92-1.53,1.94-1.62l.24.6.24-.02c.07,0,.05.26.05.34l.44.26-.26.92,1.25-1.31c.15.02.35.02.43-.04l.63-.42c.14.49.1.85.04,1.22.04.09.18.42.12.54l-.71,1.43-.34.72-4.44,7.55-2.58,4.52-.19-.39-.28.62.32.17-1.96,3.44-.71.89-.41-.33c-.09-.07.03-.38.07-.5l.76-1.93-.98,1.42-.67,1.01-.64-.56s-.16-.1-.21-.13c-.06-.03-.14.2-.11.22l2.51,3.06c-.43-.02-.56-.39-.82-.58l-1-.74,1.74,1.86c.53.56.95,1.14,1.27,1.87l-1.13-.96-2.44-2.19.86,1.28.11.16s-.03.18-.07.17c-.06,0-.21-.07-.27-.12ZM73.44,67.42c.89-.1,1.37-.33,2-.57,2.03-.74,3.95-1.62,5.76-2.8.57-.37,1.07-.82,1.44-1.35.24-.35.14-.79-.25-.98-.65-.31-1.41-.55-2.16-.51l-2.83.15-2.85,4.93-.43.54.03-.88-.72,1.47ZM74.91,69.65l-1.69-.8-.74-.38c.33.57,2.04,1.54,2.43,1.18ZM80.89,79.65c.15-.19.29-.34.25-.39l-.2-.23c-.61-.73-1.28-1.31-2.08-1.88l1.02,1.27,1.01,1.23ZM80.45,79.48l-.58-.63-1.56-1.44,1.38,1.51c.24.26.48.47.76.56Z"/>
        <path class="cls-30" d="M38.78,79.36c-.79.04-1.44.28-2.23.18-.29-.04-.66.2-1-.03l2.25-.93,3.68-1.19c-.72-.23-1.22.3-1.99.14l3.21-1.13,1.05-2.34c1.13-2.52,2.34-4.93,3.68-7.38l.34-.8,2.6-4.66-1.98.27c-.18.02-.53-.02-.7.05-.66.3-1.3.4-1.98.5l-1.45.21c.49-.39.95-.53,1.48-.79,1-.48,2.06-.68,3.18-1.03-.31-.04-.64.05-.99.11l-3.28.63-.98.08-1.33.35c-.4.11-.78.15-1.1-.13.31-.48.73-.64,1.2-.84l1.74-.73c1.84-.78,3.64-1.4,5.58-1.84-1.14-.04-2.15.4-3.25.56l-2.24.33c.28-.31.69-.36,1.05-.5l1.56-.62c.38-.15.79-.18,1.19-.19.21-.09.59-.28.84-.33l2.21-.48c.34-.07,1,.1,1.39.06l1.72-.21-.1-.11-1.79.16c.63-.41,1.26-.2,1.91-.31l.77-.13c1.54-.1,3.01-.05,4.54.2l1.77.55c.19-.08.48-.13.71-.05,1.97.65,3.75,1.71,4.84,3.53l-.62-.29.83,1.14.1-.36c.74.96.22,1.51.61,1.73.49,1.98-.09,3.94-1.05,5.66-.63,1.13-1.3,2.08-2.24,2.97-1.7,1.59-3.58,2.85-5.61,4l-.24.14c-.06.03-.14-.04-.26-.14-.41.22-.71.46-1.18.83l.18-.36c-1.07.38-1.89,1.07-2.9,1.56-1.73.84-3.57,1.38-5.33,2.03-.2-.09-.4-.06-.61,0l-1.36.42-1.38.46-.6.86c-.14-.06-.26-.12-.24-.18l.15-.39c-.69,0-1.4.15-2.09.42l-1.13.44c-.24.09-.8.17-.99.35-.26.26-.45.58-.8.83l.13-.78-1.33.29c.49-1.07,1.59-.8,1.92-1.43l.46-.85c-.61.1-.93.23-1.51,0l1.75-.88-1.96.37-.77.04ZM55.91,71.89l-1.37.38,3.2-1.8c2.09-1.41,4.22-3.39,4.47-5.97-.27-2.82-3.12-3.49-5.79-3.64l-2.35,4.08-4.26,7.94-.85,1.57,5.03-1.9c-.57.57-1.31.69-1.91,1.22,1.38-.54,2.61-1.18,3.83-1.87ZM49.46,72.14c-.47.63-.79,1.21-1.03,1.92.53-.56.85-1.18,1.03-1.92ZM43.98,75.71l.89-1.82-.12-.08-1.26,2.26c.24.04.37-.11.49-.35ZM46.4,79.33c1.68-.53,3.24-1.01,4.87-1.77l-4.62,1.39c-.1.07-.22.25-.25.39ZM43.5,80.07l1.1-.35c.08-.03.15-.33.14-.45l-1.78.55c-.47.14-.96.09-1.12.8l1.65-.54Z"/>
      </g>
      <g>
        <path class="cls-8" d="M29.06,73.56c-.14.22-.56.41-.87.42l-.22.65.78-.29.44-.24c.11-.06.39.2.38.34-.04.72-.73.63-1.13.99.38.35.8.22,1.2,0,.15-.07.47.17.54.31.08.17.08.62-.1.71-.2.1-.46.06-.66.03,0,.07.18.33.28.31l.43-.08c.19-.04.42.24.6.56.33-.47.54-1.06.73-1.65.05-.14.44-.12.55-.01.15.16.16.42.06.64l-.48,1.04.42.17.42-.55.59-.69c.25.11.57.47.58.7.01.42-.25.79-.53.98v.24c0,.06-.1.11-.25.22.54.31,1.07.09,1.46.57s.78.8,1.25,1.16l-4.13-.94c-2.53-.44-5.03-.39-7.49.33l-3.86,1.13c-2.05.6-4.07,1.09-6.23,1.13s-4.25-.23-6.26-1.05c1.3.01,2.42-.14,3.61-.44.57-.14,1.18.13,1.77-.28l-1.51-.29c-.02-.47.5-.79.91-.6l.85.41c.27.13.73.15,1,.1l-.66-.21c.02-.25.24-.62.48-.68l1.24-.33c1.45-.38,2.3.41,3.81.28l-2.1-.72c-.52-.18-1.07-.32-1.62-.35-1.26-.07-2.37.26-3.46.89l-1.07.76c-1.37.64-2.94.79-4.45.55-.46-.07-.92-.37-1.28-.58l1.13-.2c.17-.03.56-.15.56-.32v-.34c0-.21.72-.04.89-.77-1.23-.49-1.75.59-2.29.23l.49-.47c-.84-.17-1.08.36-1.59-.22l-.5-.58c.27-.33.71-.31.98,0s.73.52,1.08.23c-.22-.22-.5-.55-.54-.75-.01-.07.19-.25.25-.22.52.22.57.79,1.07,1.01l.99-.04c-.03-.54-.95-.42-1.17-1.28l.79-.44-1.15-.61-1.22-.61c-.47-.23-.92-.52-.75-.92s.8.44,1.25.35l-1.06-2.64c-.04-.11.06-.38.14-.43.3-.18.86.75.97,1.16l.39,1.46c.17.65.59,1.14,1.29,1.33.06-1.14-.77-1.84-.49-2.16.08-.09.32-.1.44-.05.86.38.35,1.3.75,2.49.04.11.27.31.37.29l.53-.11c.19-.04.3.47.38.77l.53-.45,1.05.75c-.05-.34-.19-.63-.31-.97-.2-.53-.43-.96-1.17-1.03l.38-.16c-.68-.64-1.2-1.27-1.61-2.06l-1.32-.69c-.63-.42-1.04-1.07-1.12-1.83-.86-1.05-1.26-3.14-.62-3.11s.06,1.61.98,2.48l.1-1.29c0-.11.18-.41.26-.35l.35.28c-.02.68-.14,1.29-.32,1.95.12.78.73,1.26,1.45,1.52-.54-1.45.18-2.63-.48-4.07l-.53-1.14c-.08-.17,0-.52.17-.72l.45.71.03-1.14c0-.11.23-.31.34-.32.65,0,.08,1.39.18,1.88l.37,1.76c.26-.27.45-.61.49-.99l.12-1.13c.01-.12.24-.32.35-.33.61-.04.29,1.97-.42,2.82-.37.44-.63.84-.51,1.46.24,1.25.57,2.6,1.69,3.24l.04-1.65c0-.36-.13-.75-.33-1.07-.47-.76-.15-1.44.03-1.34.05.03.15.14.17.2l.33.97c.35-.72-.03-1.41.1-2.29.02-.13.31-.32.43-.27s.25.31.23.45l-.2,1.97c.58-.22.52-.71.73-1.16l.14-.31c.03-.07.29-.05.33.02.31.56-.39,1.79-1.13,2.34-.03,1.77-.3,2.81.96,4.38,1.39-1.65.29-2.62.28-2.95l-.03-1.4c0-.13.21-.38.34-.38s.3.23.3.36l-.04.96c-.02.36.04.69.26,1.05.95-1.22.3-2.37.65-3.34.04-.11.31-.27.42-.23s.25.3.23.42l-.25,1.3c-.01.07.08.34.14.31l.25-.15.25-.15c.07-.04.16.27.1.33l-.72.68-.58,1.7c.41-.12.93-.32,1.08-.71.53-1.39.32-2.79,1.02-2.46.38.18-.49,1.05-.32,2.08l.69-.84c.26.24.23.58,0,.79l-.7.65c-.3.28-.53.69-.96.84-.66.23-1.06.64-1.29,1.32-.04.13-.13.42-.11.56.02.15.28.3.44.4l.39.24c-.24-.7.62-1.41.75-1.35l.64.3c-.05-.36-.06-.76.3-.99l.92.22c-.15-.55,0-.96.43-1.19.07-.07.22-.29.31-.28.12,0,.32.11.48.21l.58-.81c.18.19.43.56.35.71l-.66,1.33c.78.04.81-1.3,1.51-1.12.15.04.38.32.38.46l-.71.8c-.35.4-.91.63-.79,1.31l1.18-.67.57.47-.19-.52c-.04-.11.15-.31.24-.42l.22-.25c.06-.07.31.03.4,0,.43-.12,1.08-.15,1.39.29l.11.8.19-.42c.03-.08.18-.07.33-.07l.27-.24h.96c-.13-.36-.46-.64-.78-.66-.13-.01-.22.25-.26.51l-.34-.3c-.37-.33-.29-1-.03-1.19.03-.02.25-.02.29-.03.1-.01-.03-.2.1-.54.03-.08.26.06.31.13l.45.66.94.97c.08-.41.02-.8-.19-1.12l-.63-.95c-.09-.14,0-.41.15-.48.22-.1.38.06.47.28l.16.39.02-1.05c.02-.26.8-.27.85.03.14.98-.39,1.97.11,2.67l.6-1.42.19-.66c.02-.07.09-.22.14-.26.06-.05.27.04.32.11l.64.74-.29.87c-.11.35-.6.73-.87.97.34,0,.65.05.85.23l.47.41c-.13-.4.03-.98.32-1.13.07-.04.34.01.35.02.06-.15.21-.43.34-.49l.38-.15c.08-.03.24.28.22.37ZM24.56,76.79l1.03-.11-.63-.34-.57-.26c-.53-.24-1.25-.36-1.83-.48l-.87.5.52.03,1.01-.04c.26.02.76.19,1.03.3.05.13.2.4.31.4ZM22.68,77.55l.62-.12c-.25-.15-.55-.08-.89-.06-.46.03-.81-.51-1.1-.74-.49-.38-1.1-.03-1.52.21l-1.12.63c1.05-.31,1.93-.69,3.03-.08.3.17.65.23.99.16Z"/>
        <path class="cls-7" d="M25.41,66.04l-.59.42-.14-.37c-.03-.07-.3-.04-.27-.03l.24.31c.05.06-.13.27-.21.3l-.93.4c-.84.37-1.72.57-2.63.43l-.26-.2c-.06-.05.08-.26.15-.31,1.1-.86,2.12-1.74,3.02-2.8.34-.4.69-.82,1.17-1.02.3-.13.51-.22.71-.46l-1.07.47c-.55.24-.87.85-1.24,1.35-1.7.42-3.4.37-5.14.08l-1.58-.27c-.05,0-.24-.15-.22-.19s-.08.17-.11.22c-.82.68-1.71,1.24-2.67,1.72-1.05.38-2.03.01-1.88-.28l.18-.36.47-.68c.51-.71,1.25-1.08,2.12-1.21l.27-.18c.06-.04-.02-.21-.05-.31,2.79.96,5.53.65,8.32-.15.91-.26,1.61-.72,2.27-1.38.53-.52,1.16-.85,1.82-1.25l.51-.96c.03-.05.21-.22.26-.2l.29.12.79-.61c.51-.4.95-.87,1.52-1.16.8-.41,1.68-.47,2.51-.16.46.17.79.72.59,1.19-.43.07-1.03.17-1.45.33l-1.47.56c.77.23,1.61-.71,2.86-.72-.59,1-1.59,1.29-2.57,1.71-1.07.46-1.99,1.32-2.71,2.19.31-.08.65-.49.82-.67.1-.1.42,0,.58.01.76.05,1.49.6,1.35,1.48-.3,1.59-1.39,2.88-2.86,3.52h-.41c-.4,0,.68-1.32.63-2.47-.02-.41-.05-.72.16-1.03h-.53c.35-.66.12-1.12-.26-1.59-.35-.43-.83-.76-1.4-.41.37.01.65.06,1,.24l-.85.19.78.08c.43.05.77.44.67.89-.21,1-.78,1.77-1.59,2.45l-.09-.5c-.08.19-.07.38-.02.63l-.63.56-.16-.37c0,.07,0,.44-.08.49ZM31.62,57.74l-.62.09.73.32c.15.07.44.16.57.09.11-.06.27-.29.27-.42,0-.14-.29-.34-.42-.35s-.38.07-.48.17l.06.07s.24-.14.27-.08l.11.26.19-.15s.14.08.13.12l-.1.23c-.05.1-.36.11-.42.03l-.24-.33-.03-.05Z"/>
        <path class="cls-6" d="M23.8,62.41c-1.74.7-3.5.92-5.33,1.03-1.39.09-2.67-.25-4-.68l.2.34c-.43-.08-.69-.13-1.09-.43l1.61-.9c1.14-1.1,2.41-1.98,3.9-2.6.1.03.26.1.32.16.16.17-.56.31-.19.5l.59-.58-.2-.31c1.02-.43,2.02-.69,3.08-.85.06.06.16.16.16.16s.1-.13.16-.19c1.4-.09,2.83,0,4.12.43l-.73.75-.81.61c-.6.46-1.09,1.01-1.74,1.42-.47.3-1.05.46-1.56.73.95-.12,1.7-.66,2.42-1.22l1.62-1.26.97-.97c.21.06.49.2.68.32-.68.39-.66.98-1.06,1.34-1.26.55-2.1,1.79-3.11,2.2ZM25.33,59.85c-.13-.61-.46-1.21-1.02-1.59l1.02,1.59ZM20.02,62.55l-.88.02h-2.16c-.68,0-1.26-.39-1.9-.6.72.73,3.07.92,3.98.75l.95-.18Z"/>
        <path class="cls-4" d="M7.92,60.77c-.49-.35-.74.39-1.64.64l.34-.97c0-.29-.25-.73-.4-1.16.51.16.88.43,1.29.76l.63-.2-.19-.3c.42-.23.78-.39,1.24-.53l.24-.41.85.53c.79.23,1.49.6,1.97,1.23-.3.62-.94.74-1.48,1.06-.32.18-.5.61-.99.61l.27-.56-.82-.02c-.2,0-.79.42-1.21-.33-.02-.2-.03-.29-.1-.34Z"/>
        <path class="cls-1" d="M16.91,68.42c-.3-.21-.46.24-1.01.39l.21-.6c0-.18-.16-.45-.24-.72.32.1.54.26.8.47l.39-.12-.12-.19c.26-.14.48-.24.76-.33l.15-.26.52.33c.48.14.92.37,1.22.76-.19.38-.58.46-.92.65-.2.11-.31.38-.61.38l.17-.34h-.51c-.12-.02-.49.25-.74-.22-.01-.13-.02-.18-.06-.21Z"/>
        <path class="cls-31" d="M29.97,70.86c.04.26-.24.51-.43.5s-.44-.19-.5-.36c-.08-.23.09-.56.35-.6.23-.03.54.18.57.45Z"/>
        <path class="cls-35" d="M30.65,69.4c.17-.08.48.03.53.16.06.19-.01.49-.16.56s-.44.02-.53-.09c-.12-.15-.12-.5.16-.63Z"/>
        <path class="cls-34" d="M3.88,72.45c-.12.12-.37-.08-.45-.21-.1-.15-.12-.5.07-.56.35-.1.69.45.38.77Z"/>
        <path class="cls-33" d="M32.16,71.12c-.13.15-.36.18-.45.1s-.14-.37-.05-.45c.08-.07.28-.12.4-.12s.21.33.1.46Z"/>
        <path class="cls-32" d="M30.84,72.31c.08-.07.42.08.42.19s-.08.28-.15.38c-.07.09-.36.01-.42-.08-.07-.11,0-.36.15-.48Z"/>
      </g>
      <g>
        <path class="cls-23" d="M126.6,57.8l-1.86-.02c-.37-.36-.73-.85-.71-1.29-.42-.47-.02-.79-.4-1.23l-1.33-.06.06-1.23c.04-.4.02-.78-.17-1.15.1-.32.04-.61-.18-.84-.1-.79-.5-1.54-1.26-1.79-.38-.12-.81-.19-1.14.03l.69.11c.11.02.21.34.24.45.43.06.82.22,1.02.65.5,1.05.68,2.28.48,3.44-.11.62-.23,1.29-.73,1.71-.27.22-.75-.16-.76-.42.18.08.45.1.54-.03.97-1.34.56-4.18-.26-4.17-.28,0-.47.37-.55.61-.38,1.08-.32,2.18-.06,3.29.1.41.23.9.65,1.08.3.13.56-.15.77-.41.05.17-.07.37-.17.56l-.29.49-.07-.4-.24.31c-.1-.07-.21-.12-.25-.09l-.22.19-.06-.27s-.17.03-.2.06-.02.03-.02.23c-.47.21-1.08.27-1.39-.1l.03.26-.2-.13s-.09.04-.16.09c-.39-.02-.67-.33-.67-.75-.41-.14-.53-.54-.38-.92-.19-.23-.28-.45-.31-.78-.22-.14-.7-.13-.99,0l-.89.39.15-.36-1.41.84c-.12-.35-.2-.72-.21-1.04-.53,0-1.06-.07-1.59-.16l-.91.3c-.02.42-.02.84-.26,1.11-.18.2-.26.28-.25.61l-.84.81-2.34.08c-.47.1-.91-.23-1-.7-.43-.14-.69-.56-.5-1.01-.4-.24-.51-.66-.27-1.08-.37-.39-.38-.93-.05-1.36-.21-.46-.13-.96.26-1.29-.11-.26-.01-.48.22-.62.05-.31.21-.56.55-.65.04-.37.34-.61.73-.54.23-.25.54-.31.85-.19.34-.09.72-.04,1.01.12-.1-.31-.13-.64-.14-.96-.45-.33-1.12-.6-1.3-1.2-.15-.47.14-1.13.44-1.51.18-.22.56-.26.81-.3l.16-.34,1.98-.05c.25.27.56.26.81.04l.76-.02c.42-.61.91-1.09,1.72-1.17-.06-.42-.22-.87-.44-1.3l-.52.33c-.19.12-.4.21-.59.04-.43-.39-.79.13-1.51-.42l.28-.24c-.05-.31.09-.64.41-.74.36-.12.76-.05,1.09.1-.18.15-.32.25-.39.35s-.01.43.04.45c.06-.21.12-.47.24-.54.19-.11.4-.14.68-.18.13.05.12,0,.04-.07l-.58-.41c.31-.06.56,0,.9.13l-.27-.32.43-.11-.71.03,1.21-.98s.19-.04.19-.01c0,.04-.01-.19.01-.22.27-.35.68-1.03.9-1.49.26-.55.79-.76,1.3-1-.25-.62-.4-1.33-.47-2.01l-.53-.09.5-.57c.44-1.24,1.5-1.65,2.79-1.31l-.17.23.38-.11c.52.24.82.65.95,1.25l-.71.55.08.58.68-.55c.06.43-.06.86-.34,1.23l.23.05c-.61.77-1.88,2.02-2.52,1.65-.3-.17-.55-.54-.8-.8.11.35.38.68.71.89.26.17.71.12.96-.07l1.37-1.09c-.03.59-.4.93-.76,1.34.65-.32.97-.97,1.07-1.66l1.1.28c.51.13.98.23,1.31.7l.63.89-.18.49c.13-.05.31-.13.41-.11s.25.23.31.33l.36.41c-.27,0-.46-.02-.65.13.56,0,1.01.13,1.22.62s.06.99-.39,1.29c-.54.36-1.13.56-1.78.48l.32,1.06c-.1.09-.32.2-.48.27.54.08.66.49.67,1.17-.26-.51-.7-.88-1.32-.8l.88.5h-.47s.13.15.13.15c.03.03.05.14.01.13l-.17-.06s-.04.08-.02.1l.08.11v.46c.07.03-.14-.09-.14-.05l.02.28c.18.15.53.39.58.66l.23,1.19c.03.09.24.32.19.4-.09.15-.37.26-.6.36l.49.03.38,1.73.11.8c.02.11-.03.31-.08.4l.19.36-.42-.03.29.32c-.25.08-.32.09-.44.22.44,0,.8.05,1.01.47l-1.09.12,1.06.16c-.63.16-1.3.18-1.35-.23-.21-1.8-.47-3.54-.89-5.3-.26-1.09-.7-2.46-1.89-2.37l-3.87.3c-.44.03-.84.37-1.18.58l3.03-.46-.15.18s.04.1.11.18c1-.46,2.63-.82,3.07.1-.65-.17-1.28-.05-1.85.25l1.37-.13c.39-.04.76.28.86.66l.61,2.42.49,2.83.29,1.39,1.74-.06c.44-.01.63-.47.7-.82l.51-2.53c.77-.09,1.65.08,1.86.84l-.62-.5-.12-.07s-.13,0-.12.03l.07.21.03.16s-.05,0-.09-.04l-.39-.09.22.47c.08-.15.43-.34.6-.21.93.69.85,3.07.53,4.34-.08.31-.24.53-.49.75l-.44-.46c.34-.03.48-.1.57-.35.35-.91.37-1.92.12-2.87-.07-.25-.29-.56-.52-.56-.35.26-.48.71-.55,1.13-.17,1.12-.09,3.25.72,3.28.31.01.44-.46.53-.16-.1.34-.46.8-.83.88v-.14s-.06-.03-.07-.01l-.12.15-.03-.33-.28.37ZM118.88,36.02h1.16c-.9-.47-1.28-.12-1.93-.15-.46-.02-.9.03-1.27.19l2.04-.05ZM118.78,37.65c.43.13.86-.19,1.05-.53.11-.19.02-.54-.09-.76-.9-.07-1.72-.06-2.63.11-.15.88.46,1.42.65,1.26l.36-.32c.13-.12.49.19.67.24ZM122.97,42.92c.09.01.17.31.18.38.2-.43-.1-.69-.47-.9.37-.07.51.12.83.29l-.25-.41.69.18-.24-.29.45.12-.32-.37.67.23c-.19-.23-.25-.27-.56-.52l.84.04c-.18-.22-.6-.35-.9-.17l-.71.42-.89-.82c.22.37.35.63.42,1.04-.49.47-1.15-.14-1.65.52-.17.22-.16.57-.08.85l-.69.04.47.13.42.12c-.21-.6.03-1.32.48-1.21.06.02-.45.45-.11,1.01.05-.32.09-.68.24-.95.06-.11.37,0,.48.03l.36.11c-.27.39-.29.71-.09,1.02.05-.05.1-.11.1-.11s-.05-.08-.08-.12c-.15-.22.14-.71.4-.68ZM115.34,43.53h1.49c.24,0,.44.2.57.4.21.04.55-.16.7-.36-.11-.4-.32-.73-.51-1.11l-.52-1.01-.8.75c-.55.51-1.14,1.06-1.93,1.08l-.11-.2s-.07.05-.07.08v.13c.29.03.52.28.61.57.16-.15.4-.32.58-.31ZM120.56,43.05l.11-.11c-.34-.26-.88-.31-1.15.02.82-.28.96.18,1.03.1ZM119.58,43.15c-.56-.31-1.34.31-1.53.83.47-.49.84-.81,1.53-.83ZM115.99,46.04c.7-.27,1.3-.74,2.05-.66.43.05.75.49,1.15.6-.31-.47-.85-.66-1.34-.86l.64-.53-.05-.38.66-.54c-.58,0-.82.92-1.73,1.05l.2.41h-.68s-1.51.87-1.51.87c-.31.18-.83,0-1.19.12.54.02,1.22.12,1.8-.1ZM111.24,47.15c-.07,0-.18.07-.24.14l.85-.05,2.64-.07.98-.76-3.29.15-.04.12,2.66-.05c-.08.12-.32.35-.45.36l-2.12.1-.98.06ZM111.02,46.59c-.61-.17-1.42-.16-1.84.17l1.84-.17ZM111.34,46.61c-.39.08-.77.29-.79.72l.79-.72ZM117.08,48.2l.6-1.11-2.4.52-.5,1.33,2.29-.74ZM110.08,49.04l.06-1.33-1.56-.39c-.05.44-.04.69.05,1.06l1.45.66ZM110.82,49.55c-.77-.09-1.17-.51-1.85-.66.46.35,1.02.61,1.6.81l3.32-.04c1.13-.4,2.23-.67,3.35-1.2l-1.97.6-1.73.47.68-1.87c-.18.16-.24.31-.34.52l-2.9.18c.94.34,1.9.06,2.84.06l-.38.95h-2.49s-.13-1.48-.13-1.48c-.18.54-.03,1.1.01,1.66ZM114.13,51.98c.11-.38.17-.61.42-.76.62-.37,1.07-.87,1.36-1.51-.2.04-.32.14-.4.27-.31.48-.71.86-1.18,1.17l-.2-.13v.96ZM110.7,52.69c-.34-.88-.56-1.72-.7-2.61l-.48-.25c.04.51.23.92.55,1.28.12.57.26,1.15.62,1.58ZM116.57,51.83l-.23-.73c-.1-.3-.13-.6-.37-.87.07.64.25,1.45.6,1.6ZM110.89,51.61l2.17.07c.08,0,.24.01.27-.04s.07-.19.08-.26l.07-.89v-.17s-.11.1-.11.13l-.06.97-2.34-.02-.19-.98c0,.44.04.72.12,1.19ZM120.04,51.14l.35-.34c-.52-.48-1.33-.21-1.66.36.59-.23,1-.51,1.31-.02ZM118.43,51.42l.21-.25-.41-.55-.16.23.36.57ZM118.2,52.54l.75-.57c.23-.15.47-.22.73-.15l.24-.44c-.38-.34-1.32.27-1.62.84l-.51-.86-.2.28.61.89ZM107.87,51.94c.24-.08.11-.43-.75.09-.17.1-.28.29-.27.47.28-.23.66-.44,1.01-.56ZM115.23,51.86l1.65.62.09-.21s-1.25-.67-1.74-.41ZM117.83,53.47l.29.42c.22-.43.65-.85,1.19-.97.14-.03.17-.38.08-.58-.61.22-1.04.63-1.36,1.25-.14-.49-.21-.98-.66-1.11-.16.15-.05.41.07.54l.39.44ZM106.39,53.36c.07-.33-.04-.65-.24-.87-.15.36.02.64.24.87ZM107.62,52.5l-.89.66c-.2.15-.29.43-.23.67.53-.75,1.28-.77,1.12-1.34ZM110.7,52.77c-.3-.22-1.08.15-1.3.55l1.3-.55ZM116.56,53.62l-1.65-.46c.58.36,1.13.53,1.8.74,0-.08-.08-.25-.16-.28ZM118.17,55.17c.25-.48.54-.85,1.05-1.07v-.6c-.44.32-.77.62-.95,1.05-.08.18-.1.25-.28.38l.18.24ZM107.39,53.69c-1.19.76-.92,1.62-.82,1.41l.07-.16c.31-.66,1-.71.75-1.25ZM117.87,54.81c.03-.23-.06-.5-.23-.67l-.42-.43c-.14.25-.05.41.11.57l.53.53ZM106.33,54.62c-.11-.35-.23-.55-.42-.82-.07.34.03.69.42.82ZM111.23,54.03l-.2-.23-1.51.72.09.12,1.62-.61ZM107.49,55.2l-.05-.41c-.38.33-.66.76-.57,1.24.22-.35.34-.54.62-.83ZM119.13,55.32c.2-.14.23-.27.06-.59-.4.35-.8.82-.77,1.43.21-.3.41-.63.71-.85ZM107.61,56.39c.06-.07.15-.2.13-.27-.01-.05-.07-.15-.1-.22-.22.33-.34.53-.37.9l.34-.42ZM119.52,56.32c.08-.07-.02-.38-.14-.41l-.46.95.6-.54Z"/>
        <path class="cls-20" d="M125.33,50.11l.32-.81c.4-1,.96-1.26,2.09-1.34l.2.76-1.42.49c-.26.47-.41,1.01-.55,1.53l-.54.05.19.08s.08.15.07.19l-.44,2.44c-.02.11-.16.31-.23.38l-.46-.26c-.09-.31-.24-.59-.42-.83l-.2-3.16-.65-2.43c.62,0,1.09.12,1.25.62v-.54s2.48-.06,2.48-.06c.12,0,.32.16.32.26,0,.14-.19.31-.33.3l-.33-.02c-.05,0-.05-.1-.08-.2l-1.56.03c-.06,0-.05.2,0,.21l.7.05c-.62.14-1.28.32-1.56.96.26-.19.54-.36.84-.37l.8-.02c-.27.55-.42,1.07-.46,1.69Z"/>
        <path class="cls-24" d="M131.72,56.49l-.36.49-1.08.43-.54.22c.33,0,.6-.03.84.04l.79.2c-.33.45-.76.13-1.11.07-.35.05-.69.25-1.14.08l.42-.2-.05-.14-1.03.33.17-.22-1.23.13c.46-.39.73-.78,1-1.33l.38-.44c-.11-.31.17-.75.43-.73l.21.02c.09,0,0-.39.42-.54l.46-.76.28-.51c.2-.36.31-.82.74-.98l.11.29s.16-.01.22-.03l-.23.49c-.08.17-.14.37-.24.51l-.5.68c-.12.17-.18.35-.3.54l-.61.94c.41-.17.77-.38,1.15-.64l.64-.43.49-.34c.15-.25.43-.47.7-.35l-.87,1.01c-.15.09-.34.22-.47.35l-.88.82-.3-.02c-.09.33-.31.39-.64.67.28-.08.5-.19.78-.32.19-.07.52-.2.69-.23l.67-.1Z"/>
        <path class="cls-22" d="M121.18,52.49c.76,1.92-.27,3.87-.57,3.47-.79-1.04-.34-3.88.26-3.75.1.02.27.18.31.29ZM120.58,54.67c.39-.29.41-.96,0-1.12.12.41.11.75,0,1.12Z"/>
        <path class="cls-25" d="M127.31,52.86c.58.17.65,3.14-.27,3.28-.58-1.12-.14-3.4.27-3.28Z"/>
        <path class="cls-26" d="M130.68,49.74c.42.27.15.92-.4,1.3-.27-.49-.09-1.08.4-1.3Z"/>
        <path class="cls-13" d="M130.45,51.69l-.57.95c-.47-.33-.28-.9.03-1.19l.54.24Z"/>
        <path class="cls-11" d="M132.49,52.16l-.45.44.04-.79.4-.34c.05-.05.2-.09.27-.08.08,0,.16.23.12.3-.08.16-.26.36-.39.48Z"/>
        <path class="cls-15" d="M129.44,53.94c.08.21-.14.68-.42.93-.19-.53.35-1.1.42-.93Z"/>
        <path class="cls-12" d="M134.25,53.03c.03.43-.27.54-.54.52,0-.1.03-.3.09-.37.07-.09.31-.15.45-.15Z"/>
        <path class="cls-14" d="M132.86,56.51c-.15.22-.74.46-.9.2l.75-.32s.17.09.16.11Z"/>
        <path class="cls-17" d="M133.61,54.85c.07.24-.52.35-.58.16-.09-.25.5-.45.58-.16Z"/>
        <path class="cls-16" d="M129.03,53.5c0-.32.13-.57.33-.76.18.32,0,.64-.33.76Z"/>
        <path class="cls-9" d="M118.47,37.35c-.45-.37-.56.38-.92.22-.04-.27.23-.7.48-.75.24-.01.29-.07.51-.13l.7-.18c.28-.07.46.51.3.7-.13.16-.35.32-.5.34-.17.03-.44-.1-.58-.21Z"/>
        <path class="cls-10" d="M111.9,51.31l-2.61,2.13c.99-.48,1.93-1.22,2.61-2.13Z"/>
      </g>
    </g>
  </g>
  <g>
    <path d="M27.44,93v-5.26h1.42c.38,0,.66.09.83.28.17.19.26.49.26.92v.23c0,.25-.04.45-.13.6-.09.15-.22.25-.4.3.24.06.4.2.48.42.08.22.12.49.12.8,0,.34-.03.64-.1.89s-.18.45-.35.59-.41.21-.71.21h-1.42ZM28.46,89.72h.21c.1,0,.16-.04.19-.11.03-.08.04-.17.04-.27v-.53c0-.17-.08-.25-.22-.25h-.22v1.17ZM28.57,92.07c.27,0,.41-.13.41-.39v-.66c0-.15-.02-.27-.07-.35-.04-.09-.13-.13-.25-.13h-.19v1.52s.08,0,.1,0Z"/>
    <path d="M34.06,93v-1.73l-.84-3.53h1.04l.29,1.78.29-1.78h1.04l-.84,3.53v1.73h-.99Z"/>
    <path d="M44.79,93.04c-.75,0-1.13-.54-1.13-1.61v-2.27c0-.98.43-1.47,1.29-1.47.35,0,.63.07.82.21.19.14.32.35.39.62.07.27.11.61.11,1h-1.03v-.47c0-.11-.02-.21-.05-.29-.03-.08-.1-.12-.19-.12-.12,0-.2.04-.24.12-.04.08-.06.17-.06.27v2.55c0,.14.02.26.06.35.04.09.11.13.22.13s.19-.04.22-.13c.04-.09.05-.21.05-.35v-.75h-.28v-.91h1.28v3.06h-.42l-.18-.44c-.18.33-.47.49-.87.49Z"/>
    <path d="M49.73,93v-5.26h1.61c.27,0,.47.06.61.18.14.12.23.29.28.51s.07.48.07.78-.04.52-.11.69c-.07.17-.21.29-.41.36.17.03.28.12.35.25.07.13.1.3.1.51v1.99h-1.04v-2.06c0-.15-.03-.25-.09-.29s-.16-.06-.3-.06v2.4h-1.06ZM50.8,89.69h.25c.15,0,.22-.16.22-.47,0-.21-.02-.34-.05-.4-.03-.06-.09-.1-.18-.1h-.25v.97Z"/>
    <path d="M56.92,93.04c-.44,0-.76-.12-.97-.37-.21-.25-.31-.61-.31-1.09v-3.85h1.02v3.81c0,.09,0,.17.01.25,0,.08.03.15.07.2.04.05.09.08.17.08s.14-.03.18-.08c.04-.05.06-.12.07-.2,0-.08.01-.17.01-.25v-3.81h1.02v3.85c0,.48-.1.84-.31,1.09s-.53.37-.97.37Z"/>
    <path d="M61.66,93v-5.26h1.39c.29,0,.52.06.69.19.17.13.29.31.37.55.07.24.11.52.11.85s-.03.6-.09.83c-.06.24-.17.42-.33.55-.16.13-.38.19-.67.19h-.43v2.08h-1.03ZM62.7,89.97h.06c.2,0,.32-.05.36-.16.04-.11.07-.27.07-.48,0-.2-.02-.35-.06-.46-.04-.11-.14-.16-.3-.16h-.12v1.27Z"/>
    <path d="M68.86,93.04c-.42,0-.74-.13-.96-.38-.22-.25-.33-.62-.33-1.1v-2.5c0-.45.11-.79.33-1.02.22-.23.54-.35.97-.35s.75.12.97.35c.22.23.33.57.33,1.02v2.5c0,.48-.11.85-.33,1.1s-.54.38-.96.38ZM68.87,92.08c.16,0,.24-.15.24-.46v-2.57c0-.26-.08-.39-.23-.39-.18,0-.26.13-.26.4v2.56c0,.16.02.28.06.35.04.07.11.11.2.11Z"/>
    <path d="M78.14,93v-5.26h2.1v1.02h-1.03v1.02h.99v.99h-.99v1.2h1.1v1.02h-2.17Z"/>
    <path d="M83.56,93l.56-2.79-.45-2.47h1.03l.27,1.81.24-1.81h1.03l-.45,2.47.56,2.79h-1.06l-.33-2.06-.34,2.06h-1.07Z"/>
    <path d="M90.19,93v-4.25h-.62v-1.01h2.3v1.01h-.62v4.25h-1.05Z"/>
    <path d="M95.22,93v-5.26h1.61c.27,0,.47.06.61.18.14.12.23.29.28.51s.07.48.07.78-.04.52-.11.69c-.07.17-.21.29-.41.36.17.03.28.12.35.25.07.13.1.3.1.51v1.99h-1.04v-2.06c0-.15-.03-.25-.09-.29s-.16-.06-.3-.06v2.4h-1.06ZM96.29,89.69h.25c.15,0,.22-.16.22-.47,0-.21-.02-.34-.05-.4-.03-.06-.09-.1-.18-.1h-.25v.97Z"/>
    <path d="M101.19,93v-5.26h2.1v1.02h-1.03v1.02h.99v.99h-.99v1.2h1.1v1.02h-2.17Z"/>
    <path d="M106.77,93v-5.26h1.6l.44,3.21.44-3.21h1.62v5.26h-.96v-3.79l-.6,3.79h-.94l-.64-3.79v3.79h-.95Z"/>
    <path d="M114.39,93v-5.26h2.1v1.02h-1.03v1.02h.99v.99h-.99v1.2h1.1v1.02h-2.17Z"/>
  </g>
</svg>