<?xml version="1.0" encoding="UTF-8"?>
<svg id="Capa_1" data-name="Capa 1" xmlns="http://www.w3.org/2000/svg" viewBox="0 0 144 107">
  <defs>
    <style>
      .cls-1 {
        fill: #004571;
      }

      .cls-2 {
        fill: #fff;
      }

      .cls-3 {
        fill: #bb6800;
      }
    </style>
  </defs>
  <g>
    <path class="cls-2" d="M113.29,40.77c-.05-1.2-.32-2.5-.65-3.65,0-.19.09-.56.09-.65.09-.37.19-.69.23-1.06.19-1.02.19-1.94-.09-2.91.19-.83.14-1.71-.05-2.54.09-.79.05-1.67-.19-2.54v-.19c.05-.46,0-.93-.09-1.3,0-.19,0-.37-.05-.37v-1.16c0-.19,0-.42-.05-.6.23-.46.46-.93.51-1.39.19-.97.19-1.62,0-2.54-.09-.51-.37-1.06-.65-1.53-.51-.74-1.16-1.3-1.9-1.71-.56-.69-1.3-1.2-2.17-1.39-.32-.6-.74-1.06-1.34-1.48.09-1.39-.74-2.78-1.85-3.52-.83-.6-1.71-.79-2.5-.74-.14-.09-.32-.19-.51-.23-.51-.19-1.02-.32-1.48-.32-.09-.09-.23-.32-.42-.37v-.46c-.09-.69-.46-1.39-1.02-1.94h0c-.32-.32-.6-.51-.93-.65-.65-.42-1.39-.65-2.27-.6-.46,0-.83.09-1.2.19-1.16-.83-2.78-1.06-4.12-.6-.65,0-1.3.19-1.85.51-.51-.37-1.02-.6-1.62-.65-.37-.19-.74-.32-1.2-.37h-.93c-.46-.09-.93-.09-1.39-.05-.6.05-1.11.23-1.57.56-.46.05-.93.19-1.39.46-.32.19-.6.42-.83.65-.74.32-1.39.74-1.85,1.39-.56.19-1.06.51-1.39,1.02-.09.05-.14.09-.23.19-.32.19-.51.46-.69.69-.42.19-.74.51-1.02.93h0c-.23-.32-.56-.56-.93-.74,0,0,0-.05-.05-.09-.46-.69-.97-1.2-1.57-1.53-.46-.6-1.11-1.06-1.8-1.16h-.09c-.09-.09-.23-.19-.42-.23-.46-.42-.97-.69-1.48-.74h0c-.37-.19-.65-.37-1.06-.51-.32-.19-.6-.37-1.02-.46-.65-.19-1.3-.19-1.94-.05h-1.02c-.65.09-1.2.32-1.71.65-.19.05-.46.14-.65.23-.65-.79-1.57-1.34-2.68-1.2-.46.05-.83.09-1.2.23-.37-.19-.74-.42-1.2-.56-1.3-.42-2.78.09-3.65,1.06-1.48.42-2.73,1.99-2.73,3.47h0c-.23.05-.51.09-.74.19-.56.14-1.06.46-1.48.79-.6.23-1.2.65-1.67,1.3-.42.51-.65,1.2-.74,1.85-.05.14-.09.32-.19.51-.46.42-.83.93-1.16,1.39-.93.09-1.71.65-2.31,1.39-.19.09-.42.23-.6.42-.51.46-.83.93-1.06,1.34-.42.46-.69.97-.93,1.62,0,.14-.05.32-.09.51-.42.51-.74,1.06-1.02,1.62-.37.69-.46,1.48-.46,2.13s0,.19-.05.32c-.65.65-1.06,1.57-1.16,2.5h0c-.37.6-.56,1.48-.56,2.08v.23c-.37.37-.79.74-1.06,1.16-.56.93-.83,1.85-.93,2.91-.09,1.76.46,3.65,1.71,5,0,.14-.05.32-.05.42-.46.93-.65,1.94-.37,2.78v.09c-.09.74,0,1.53.51,2.17,0,.05.09.09.09.19,0,.19,0,.46.09.69.09.51.32.93.51,1.3,0,.42,0,.79.14,1.2.09.37.23.65.42.93,0,.51.09.97.32,1.39.09.46.37.93.65,1.2.09.6.32,1.11.6,1.62s.51.74.6.83c.32.65.74,1.57.93,1.71h.05v.14c.09.83.69,1.8,1.25,2.41.14.14.6.56.93.83.32.51.74,1.16.79,1.2.32.37.74.83,1.2,1.06,0,.05,0,.09.05.14.46.69,1.06,1.3,1.76,1.71h0c.19.46.65,1.02.79,1.2.74.93,1.53,1.25,2.41,1.48.19.14.37.32.37.32.37.37.65.74,1.16,1.02.42.23.83.46,1.3.56h.32c.19.37.51.6.74.93.93.83,2.13,1.25,3.38,1.2.14.09.37.23.46.37.19.14,2.13,1.02,2.96,1.16.37.23.79.46,1.2.6.51.14.93.19,1.39.19.97.6,1.94.79,3.05.74h0c.42.19.83.37,1.25.51.19,0,1.16.14,1.9.14.32.14.65.23,1.02.32.6.09,1.11.09,1.67,0,.46.09.83.19,1.34.19s.6,0,.93-.05c.93.23,1.76.19,2.68,0,.37.09.74.09,1.11.09.51,0,.97-.09,1.39-.23.97.09,1.9.09,2.78-.37.74.09,1.57,0,2.22-.14.23-.05.93-.32,1.2-.46h.51c.74,0,1.39-.19,2.08-.51.19-.05.37-.14.51-.23.51.14,1.48-.32,1.94-.51.37-.09.65-.32,1.02-.56.37,0,.65,0,1.02-.09.74-.19,1.48-.6,1.99-1.11.05-.05.19-.14.37-.32.23,0,.51-.05.74-.09.69-.19,1.48-.65,1.99-1.16.09-.09.32-.37.51-.6.05,0,.14,0,.19-.05.51-.14,1.06-.42,1.57-.65.51-.37,1.02-.74,1.34-1.25.46-.14,1.2-.51,1.3-.56.6-.37,1.2-1.02,1.57-1.62.09-.19.19-.42.32-.6.37-.19.79-.46,1.02-.65.42-.42.79-.83,1.06-1.34.05-.09.09-.19.09-.32,0,0,.05,0,.09-.05.97-.6,1.39-1.67,1.94-2.5.23-.42.74-.74,1.06-1.2.14-.19.32-.46.37-.65h0c.51-.09.93-1.2,1.06-1.71.14-.32.23-.6.32-.93.09-.14.19-.37.37-.51.05-.09.37-1.11.56-1.71.32-.51.6-1.16.65-1.25.09-.37.09-.65.14-1.02.19-.37.42-.65.42-.69.19-.65.37-1.39.46-2.13.23-1.3.46-2.68.37-3.98v-.23.37l-.09-.05h0ZM52.56,66.16h.09c.23,0,.19,0-.09,0h0ZM73.38,72.27h0q.12-.02,0,0ZM75.37,72.17q-.06-.02,0,0h0ZM97.57,65.47s.09-.09.09-.05h-.09v.05ZM102.93,61.72s0-.09.09-.14c0,.05-.05.09-.09.14ZM111.58,48.4c-.32.42-.19.19.05-.19,0,.05,0,.09-.05.19ZM112.41,25.6h0ZM112.6,37.07h0v-.09.14h0v-.05Z"/>
    <g>
      <path class="cls-1" d="M108.95,27.96c.37.6.37,1.48,0,2.08-.19.37-.6.42-.93.6-.05,0,0,.19-.05.32h.32c.23-.09.46-.51.65-.42.6.37.32,1.39,0,1.99-.23.46-.79.65-.74,1.25.14,0,.32-.09.37-.19.09-.09.14-.51.37-.46,1.16.42,0,2.45,0,3.65-.32-.23-.6-.51-.93-.69s-.37-.09-.42.05c.46.51,1.06.83,1.3,1.48,1.02,2.5.93,4.49,0,8.14-.09.37-.6.51-.51.97.09.6-.05,1.02-.46,1.39-.14.14-.32.42-.32.6.05.65-.19,1.11-.65,1.53-.23.19-.37.46-.32.74.09.46-.05.74-.46,1.06-.19.19-.46.46-.51.69-.09.46-.37.74-.69,1.02-.23.19-.51.46-.6.74-.32.74-.74,1.3-1.39,1.76-.23.19-.56.46-.65.69-.23.65-.69,1.11-1.3,1.39s-.83.6-1.02,1.16-.56.83-1.11.93c-.65.09-1.16.46-1.48,1.02-.37.6-.83.93-1.57.93s-1.02.37-1.3.74c-.09.14-.19.37-.37.51-.32.37-.65.6-1.11.51-.65-.14-1.11.09-1.53.56-.14.14-.32.32-.46.51-.37.37-.74.51-1.2.42-.65-.14-1.2.09-1.62.6-.32.37-.74.51-1.2.42-.51-.09-.93,0-1.2.37-.51.46-1.06.6-1.71.37-.56-.19-1.02-.05-1.48.32-.46.46-1.02.51-1.62.32-.51-.19-1.02-.14-1.39.19-.46.37-.93.42-1.39.19-.37-.09-.65-.09-1.02.05-.37.19-.79.32-1.2.05-.46-.19-.83-.14-1.25.09-.42.23-.79.32-1.2,0-.37-.23-.65-.32-1.02-.09-.42.14-.79.14-1.2-.05-.32-.19-.65-.19-1.02-.05-.46.19-.83.09-1.2-.23-.42-.37-.83-.46-1.3-.19-.56.19-1.06.19-1.57-.32s-.65-.42-1.11-.23c-.79.32-1.48.14-1.99-.56-.19-.32-.46-.37-.79-.23-.65.23-1.2.05-1.67-.46-.37-.42-.74-.51-1.25-.42-.56.14-1.02-.05-1.34-.51-.51-.65-1.16-1.06-2.13-.83-.65.19-1.2-.05-1.48-.69-.37-.93-1.02-1.2-1.94-1.25-.32,0-.65-.09-.79-.32-.37-.51-.83-.93-1.3-1.3-.19-.14-.32-.23-.56-.19-.65.09-1.06-.19-1.16-.83-.05-.51-.32-.74-.65-1.02-.23-.14-.51-.37-.74-.46-.37-.19-.65-.46-.74-.83-.09-.51-.42-.74-.83-.97-.6-.23-1.02-.69-1.16-1.34-.09-.46-.37-.69-.74-.83s-.65-.46-.79-.83c-.09-.32-.14-.56-.19-.83-.05-.46-.23-.74-.6-1.06-.37-.23-.56-.6-.6-1.06,0-.37-.19-.6-.46-.79-.32-.19-.51-.51-.46-.83,0-.42-.09-.74-.42-1.02-.37-.37-.51-.74-.37-1.25.09-.37,0-.65-.32-.93-.32-.32-.46-.65-.37-1.06.14-.46,0-.83-.32-1.16s-.46-.79-.23-1.3c.19-.46,0-.79-.46-1.02-.09,0-.14-.19-.23-.32.09-.09.23-.19.37-.23.09,0,.23.05.37.09.32.05.6.09.93.19,0,0,0-.05.05-.09-.14-.09-.32-.23-.46-.37-.42-.23-.83-.46-1.2-.65-.09-.05-.09-.23-.19-.37.09-.05.32-.14.42-.19.09,0,.19.05.32.09.51.32.97.6,1.48.93.19.09.42.32.65.51,0-.14,0-.23-.05-.32-.32-.51-.65-.93-1.2-1.06-.09,0-.32-.05-.37-.14-.23-.32-.46-.6-.65-.93-.09-.14-.19-.37,0-.51.19-.19.37-.05.51.09.19.19.37.46.56.65.19-.19.23-.19.09-.51-.14-.37-.37-.65-.51-1.06-.05-.14-.05-.42,0-.51.14-.19.37,0,.46.09.23.37.46.74.65,1.16.05.09.09.23.19.37h.09c0-.09,0-.19.05-.37,0-.32.05-.56.14-.79,0-.09.19-.14.32-.23.09.09.19.19.23.32v.93c0,.09.05.19.09.32.05-.05.14-.09.19-.19.09-.23.19-.51.32-.74.09-.09.32-.19.46-.32,0,.14.14.37.09.51,0,.19-.14.46-.19.65v.37c.09-.05.23-.09.32-.19.23-.32.46-.6.69-.79.19-.19.23-.32,0-.46-.42-.23-.79-.51-1.2-.79l-.09.09c-.83.51-1.62.46-2.31-.09-.32-.19-.37-.65-.6-.83-.32-.19-.69-.14-1.02-.37-.93-.51-1.25-1.39-1.2-2.41,0-.97.42-1.76,1.3-2.27.09-.05.23-.14.32-.32.32-1.02.93-1.53,1.94-1.57.09,0,.23-.09.32-.19.19-.46.14-.93-.19-1.2-.23-.23-.51-.46-.74-.65-.14-.14-.51-.14-.42-.51s.46-.19.65-.19h.05c.56.14.93.51,1.2.97.05.09.19.09.32.19,0-.09.09-.23.09-.37,0-.19-.09-.37-.19-.51-.32-.37-.65-.65-1.02-.97-.14-.09-.32-.23-.14-.46.09-.19.32-.14.51-.05.09.05.32.09.46.19,0-.65-.46-.74-.83-1.02.14-.37.32-.46.65-.32.46.19.79.51,1.02,1.02,0,.05.09.09.19.19.05-.09.19-.14.19-.23s0-.23-.05-.37c-.19-.6-.6-.97-1.2-1.2-.19-.09-.46-.19-.74-.32.14-.32.23-.6.46-.83.42-.56.83-1.11,1.62-1.2.05,0,.09-.09.19-.19l-.19-.19c-.09-.05-.32-.09-.42-.19s-.19-.32-.14-.42c.05-.19.23-.32.46-.14.09.05.23.14.37.19h.23v-.32c-.09-.14-.32-.32-.42-.46-.05-.09-.09-.23,0-.37.05-.09.19-.14.32-.09.14,0,.23.14.42.23s.42.19.6.37c0,0,.05-.05.05-.09-.09-.32-.32-.6-.42-.93,0-.09.05-.32.09-.46.14.05.32.05.46.14.09.05.14.19.19.32.09.14.19.32.37.46h.14v-1.02c0-.14.19-.37.32-.37.19-.05.32.14.37.37,0,.19,0,.42.05.6,0,.09.09.19.09.32.05-.05.14-.09.19-.19.09-.19.19-.46.42-.65.05-.09.32-.09.37-.05.09,0,.14.19.09.37,0,.14-.09.32-.14.46s-.09.37-.14.51c0,0,.05,0,.09.05l.65-.65c.19-.19.32-.23.51-.05.14.19.09.37,0,.56-.09.14-.23.32-.46.56.14,0,.19,0,.23-.05.97-.32,1.85,0,2.36.74.09.19.23.23.46.14s.19-.23.14-.46c-.19-.65-.79-1.11-1.57-1.16-.32,0-.51-.09-.6-.46-.05-.19-.19-.42-.32-.6-.46-.65-1.16-.97-1.94-1.06.09-.19.19-.37.23-.51.46-.83,1.11-1.25,2.08-1.2.51,0,1.02.19,1.39.56.09.05.23.05.37.09v-.37c-.05-.14-.19-.23-.37-.37-.46-.42-1.02-.56-1.62-.6-.09,0-.32-.09-.32-.14,0-.09,0-.32.09-.37.09-.09.32-.09.42-.14h.46v-.09c-.09-.09-.23-.19-.42-.32-.19-.09-.37-.32-.19-.51s.42-.19.6-.09c.14.09.32.19.46.32.05-.37-.37-.74.09-1.02.37-.19.46.23.65.46.09-.09.19-.19.37-.32.09-.09.32-.23.37-.19.42.32.6-.14.93-.19.23-.05.51-.09.79,0,.19.05.46.19.6.37.37-.09.69-.19,1.02-.32.09,0,.19-.09.32-.14-.09-.05-.19-.19-.32-.19-.46-.19-.97-.37-1.39-.6-.19-.09-.32-.37-.42-.51.19-.05.46-.14.65-.14.46.05.83.19,1.3.32-.09-.14-.23-.32-.37-.46-.32-.37-.56-.74-.83-1.11-.09-.09-.05-.32-.09-.51.14,0,.37,0,.51.05.65.32,1.16.83,1.57,1.39.09.09.14.19.23.32.05-.09,0-.19,0-.32-.19-.65-.46-1.34-.65-1.99-.05-.14,0-.37.05-.56.19.05.42.09.51.23.32.46.51.93.74,1.39.09.14.09.32.19.56.19-.23.32-.46.46-.6.37-.37.65-.74,1.02-1.06.09-.09.32-.05.42-.09,0,.14.05.32,0,.46-.19.46-.46.83-.65,1.3-.05.09-.09.19-.09.23.46-.19.83-.42,1.3-.6.09,0,.32,0,.46.05,0,.09,0,.32-.09.42-.19.19-.46.46-.65.6.93-.37,1.8-.51,2.68.23,0-.46.09-.74.51-.65,0-.19,0-.51.14-.6.09-.09.42-.09.6-.09-.14-.37-.09-.6.19-.6s.6,0,.93.05c0-.19,0-.51.37-.56.46-.09.46.32.6.6.09-.19.19-.32.32-.46.09-.19.32-.23.51-.14s.19.19.14.42v.46c.19-.19.32-.42.46-.51.09-.05.37-.05.51,0,.19.05.09.19.09.37s-.09.23-.09.37c.19-.05.37-.19.56-.23.09,0,.32,0,.46.05s0,.23,0,.37-.09.23-.09.37c.37-.09.65-.14,1.02-.23l.09.09c-.09.23-.19.51-.32.83.14-.05.37-.09.51-.19.14-.09.32-.19.51-.32.09,0,.32,0,.37.05s.05.23,0,.37c-.09.23-.19.51-.37.74l.09.09c.37-.09.65-.23,1.02-.37.19-.09.32,0,.42.19s0,.32-.14.37c-.09,0-.14.09-.37.32.37.05.6.09.83.14,0,.19-.09.46-.14.79.23-.09.51-.19.74-.23.14,0,.37.05.51.09-.09.09-.14.32-.23.42-.09.09-.19.19-.32.23h.65c.19,0,.32.05.37.09,0,.09,0,.23-.09.37,0,.09-.09.14-.19.19.32,0,.51-.09.69-.19.23-.05.46.09.37.37-.05.14-.14.32-.23.51.19-.09.37-.19.51-.19.19-.05.51-.14.65-.05.19.14.05.42-.05.6v.09c.19-.05.37-.09.51-.09h.51c.19,0,.42.09.65.19-.05-.14-.09-.19-.09-.23v-.56h.56c.09,0,.14.05.23.09,0-.09-.09-.14-.09-.19,0-.09-.09-.32,0-.42.05-.09.23-.09.37-.09s.19.05.32.05h.42c-.19-.23-.37-.46-.51-.65,0,0,.05-.09.09-.09.42.05.83.09,1.2.14,0-.05.09-.09.09-.14-.19-.09-.37-.19-.51-.37-.09-.05-.19-.32-.14-.32.09-.09.23-.19.42-.19s.32.09.42.09c.14.05.37.09.51.19-.09-.19-.14-.37-.32-.51-.09-.19-.19-.42,0-.51.09-.09.37,0,.51,0,.19.05.32.19.46.37,0-.19-.05-.37-.09-.51-.09-.19-.19-.46,0-.51.14-.05.37,0,.6,0s.19.09.32.19c0-.32-.09-.6,0-.69.09-.14.46-.19.6-.23,0-.14-.05-.42.05-.51.32-.32.56,0,.74.14.05-.19,0-.51.14-.6.09-.09.42,0,.6,0-.09-.42,0-.65.37-.6.32,0,.6.09.93.19.09-.23-.05-.65.42-.69.51,0,.46.46.65.74.19-.19.14-.74.65-.65.46.05.37.46.37.74.42-.46.6-.6.79-.46.14.09.19.37.23.56.14,0,.46-.05.6.05.09.09.09.42.14.56.14,0,.46,0,.51.09.09.14.05.46.09.6.09.09.37.14.46.32.09.14,0,.42,0,.6.46-.37,1.02-.65,1.57-.19.56-.65,1.8-.42,2.17.46,0,.09.05.19.14.19.32.14.6.32.93.42.19-.32.6,0,.83-.09,0-.09-.05-.14-.09-.23,0-.09-.05-.14-.05-.19.09-.09.19-.14.23-.23.09-.19.32-.32.51-.14.09.09.23.19.37.32.05-.09.09-.19.09-.32.46,0,.69.09.83.42,0-.05.09-.09.09-.14.09-.23.37-.32.51-.19.09.05.09.32.14.51v.46c.32-.14.51-.51.83-.23.09.09.09.42.14.6.14-.14.46-.09.6.05.09.14.09.46.09.65.51,0,.6.09.51.65.19.09.32,0,.46-.14.19-.19.46-.37.69-.51.32-.09.46.05.46.37.05.42.19.74.37,1.16h.09c.09-.09.19-.32.32-.42.32-.46.74-.6,1.2-.51.09,0,.23.14.37.19-.05.09-.09.19-.19.32-.19.23-.42.46-.65.74.83.09.97.19,1.11.56-.32.09-.6.19-.93.37-.42-.6-.93-.83-1.57-.51-.37-.6-.83-.69-1.48-.42-.65-.56-.93-.51-1.3.23,0,.05-.14.09-.23.09-.56,0-.79.19-.97.69,0,.09-.14.19-.23.32l-.32.14c-.37.14-.65.37-1.02.46-.37.05-.65.19-.79.51-.09.23-.23.32-.51.19-.32-.09-.51,0-.65.19-.32.42-.09,1.16.37,1.39.23.09.37,0,.37-.32v-.46c0-.14.14-.23.23-.32.09,0,.19.05.32.09.05,0,.05.09.09.14.09.05.19.09.32.19.05-.09.09-.19.14-.37,0-.14,0-.37.05-.46.09-.14.23-.32.37-.37.09,0,.32.19.32.37.05.14,0,.37,0,.51s.14.19.23.19.19-.09.19-.19c0-.37.14-.6.37-.6.05-.32.05-.51.14-.69,0-.05.37.05.56.09.14,0,.37,0,.46-.05.05,0,0-.23,0-.37s0-.37.09-.46c.09-.19.32-.09.46,0,.09.09.19.19.32.23.32.19.46.09.51-.23,0-.09,0-.32.05-.37.09-.09.23-.19.37-.19s.19.19.32.32c.05.09,0,.19,0,.32.05.37.19.46.51.23.19-.09.37-.23.51-.37.19-.19.42-.05.51.09s-.05.19-.09.32c-.05.05-.14.09-.19.19,0,.09-.09.32,0,.32.09.05.23.09.37.09s.09-.09.14-.09c.09-.05.32-.14.37-.09.09.05.19.19.23.37v.37h.6v-.51c0-.23.05-.51.42-.46.32,0,.37.23.37.51v.51l.09.09c.19-.14.37-.32.56-.46.09-.05.32-.09.37-.05.09.05.19.23.19.37s-.05.23-.09.32c.19.09.42.19.6.23-.09.09-.23.23-.42.32-.93.51-1.3,1.57-.97,2.41.37,0,.6-.14.56-.6v-.46c.05-.51.42-.93.74-1.02,0,.09.05.23.05.37v1.02c0,.09.09.23.09.37l.32-.32c.19-.46.51-.83.97-1.06.09-.05.32,0,.46-.05v.42c-.09.32-.32.6-.46.93s-.37.51-.51.74c-1.16-.51-2.13-.37-2.68.51-.19.32-.56.37-.69.05-.37-.51-.79-1.06-.83-1.76,0-.32.09-.6.09-.97s0-.19-.05-.32c-.09,0-.19,0-.32.05-.05,0-.09.09-.19.19-.46.65-.37,1.57.09,2.17.14.19.37.42.51.6-.32.09-.51.23-.74.37-.32-.19-.56-.46-.83-.65-.51-.32-1.06-.37-1.62-.05-.09.05-.09.19-.19.32.09,0,.23.14.37.09.6-.14,1.16.05,1.62.46.09.09.37.19.19.46-.09.09-.32.09-.46.09-1.06-.09-1.9.6-1.85,1.71v.19c-.32.19-.51.32-.74.51-.32.32-.23.69.05,1.02s.65.23.93-.05c.09-.09.23-.14.42-.19.6,0,1.2,0,1.8-.05.09,0,.23-.09.37-.19-.09-.09-.23-.19-.37-.23-.46-.05-.93,0-1.39-.09-.19,0-.56,0-.51-.37,0-.19.46-.32.74-.19,0,0,.05,0,.09.05.19,0,.37.05.56.05s.46-.05.65-.05h1.25s.19-.09.19-.14-.05-.19-.09-.19c-.09-.05-.23-.09-.37-.09h-.74c-.19-.05-.42-.19-.6-.32,0,0,0-.19.05-.19h1.34c.19-.09.42-.09.6.05s.42.09.56-.05.14-.14.32-.23c.09.05.14.09.19.14.37.37.51.32.74-.09.14-.32.32-.32.46,0,.32.37.46.46.79.14.19-.09.37-.09.51,0,.32.14.6.19.97,0,.14-.05.42-.05.6,0s.23.19,0,.32c-.32.09-.56.19-.83.32-.19.05-.46,0-.69.05-.32,0-.37.19-.23.46.46,0,.83-.05,1.25,0,.46.05.74,0,1.06-.32v.74c-.37.05-.69.05-1.06.14-.09,0-.19.14-.32.23.09.05.19.14.23.14h1.06c0,.6.46,1.39,0,1.76-.23.19-.6-.19-.97-.23-.05,0-.14.09-.23.19l.19.19c.32.14.79.14,1.02.46h.23v-.09l.6.51-.65-.42h0ZM53.26,26.24c.6-.46,1.2-.83,1.71-1.25.37-.37.74-.56,1.3-.6.93,0,1.62-.46,2.22-1.11.19-.23.46-.37.74-.37.65-.05,1.3-.19,1.76-.65.09-.09.32-.14.46-.14.42,0,.74,0,1.16-.09.32-.05.65-.09.93-.32.56-.46,1.16-.6,1.85-.56.46,0,.83-.05,1.16-.37.51-.46,1.16-.56,1.76-.51.51,0,1.02-.05,1.48-.42.56-.51,1.2-.65,1.94-.6h.14c.79,0,.69-.14.69.69v24.79c0,.09-.09.19-.19.32-.09-.09-.19-.19-.19-.32-.05-.14,0-.32-.05-.6-.19.09-.37.23-.56.37-.09,0-.14.05-.23.09,0-.09-.09-.32,0-.32.09-.09.32-.23.46-.37.46-.19.51-.37.23-.83-.37.14-.74.32-1.11.46-.37.19-.65.46-.69.83,0,.09-.19.14-.32.23-.09-.09-.32-.32-.23-.37.09-.32.23-.6.51-.74.46-.32,1.02-.51,1.57-.69.4-.12.56-.38.46-.79v-.09c-.14,0-.37,0-.51.05-.97.32-1.85.6-2.82.93-.09,0-.23.09-.37.09s-.19-.05-.23-.09c0-.05,0-.19.09-.32s.19-.09.32-.14c1.06-.51,2.13-.93,3.24-1.11.32-.05.37-.14.19-.46-1.57.19-3.1.56-4.49,1.39-.42.23-.74.56-1.16.79-.09.05-.32,0-.42,0,0-.09,0-.32.05-.42,0-.05.09-.09.19-.14,1.16-.97,2.45-1.57,3.89-1.9.56-.14,1.16-.32,1.71-.42.05,0,.09-.09.19-.19-.09-.05-.14-.09-.23-.09h-.42c-1.25.14-2.45.51-3.61,1.02-1.02.46-1.9,1.02-2.68,1.76s-.93,1.16-1.02,1.85c0,.19-.09.46-.37.37-.23,0-.32-.23-.23-.46.09-.42.19-.83.37-1.2.42-.83,1.06-1.48,1.8-1.94,1.48-1.02,3.1-1.62,4.86-1.99.42-.09.83-.14,1.25-.23.05,0,.09-.09.14-.14-.05,0-.09-.09-.19-.09h-.32c-.74.14-1.57.23-2.31.46-1.94.51-3.84,1.34-5.27,2.82-.93.93-1.57,1.94-1.39,3.28v.23h-.09c-.09-.19-.23-.42-.42-.56s-.23-.46-.19-.74c.09-.65.32-1.2.69-1.76.46-.51.93-1.06,1.34-1.62,0-.05-.05-.14-.14-.32-1.25.97-2.36,1.99-2.64,3.65-.09,0-.14-.05-.23-.05s-.09,0-.19-.05c0,.09.05.23.14.32.97.51,1.39,1.34,1.57,2.41,0,.19.09.37.32.42.74.19,1.11.69,1.16,1.48,0,.19.09.37.23.51.32.32.42.65.42,1.06,0,.6.19,1.16.56,1.67.51.69,1.11,1.2,1.9,1.62.32.14.6.19.97.19.83-.05,1.62.19,2.31.65.51.37,1.06.74,1.57,1.2.09.09.19.23.19.37.09.37.14.69.23,1.06.19.6.46,1.16.65,1.76-.19.05-.37.09-.51.19-.51.14-1.06.37-1.57.51-.19.05-.32.09-.19.37.09.37.19.74.32,1.16.09.51.32,1.02.46,1.53-.56.32-1.06.56-1.62.83.37.32.65.6.97.83.19.19.19.37-.09.46s-.65.32-.97.37c-.09,0-.23,0-.32-.05-.37-.19-.79-.14-1.11.23.51.32,1.02.6,1.48.93.05,0,.19,0,.23-.05.32-.51.74-.83,1.3-1.02.09,0,.14-.09.23-.14.93-.74,1.94-1.02,3.05-.14.14-.09.32-.19.46-.19.32-.05.51-.19.65-.46.19-.37.6-.32.83,0,.09.14.19.37.37.51.09-.05.23-.09.37-.19.69-.42,1.39-.46,2.13,0,.05.05.19.09.23.05.56-.14,1.06,0,1.48.37.46-.37.6-.37,1.06-.09.23.14.51.32.83.46,0-.19-.05-.32-.05-.42,0-.32-.05-.56,0-.79,0-.14.32-.23.46-.37.09.09.19.23.23.37.14.46.32.93.46,1.3,0,.09.14.14.23.19l.14-.32v-.23c-.05-.37-.19-.69-.19-1.06-.05-.56.19-.74.79-.65,0,.46-.09.93.32,1.3v-.42c0-.19,0-.37.23-.37.46,0,.83-.05,1.3-.09h.32v-.09c-.19-.09-.37-.23-.51-.32-.32-.09-.65-.19-.97-.37-.83-.46-1.71-.65-2.54,0-.19.14-.37,0-.32-.19.05-.23.19-.46.32-.69.09-.19.19-.32.42-.56-1.76-.93-3.47-1.8-5.18-2.73,0-.09.09-.32.14-.46.23-.74.69-1.48.69-2.31s0-.09.09-.14c.74-.6,1.48-1.25,2.45-1.39.46-.09,1.02,0,1.39-.09.46-.09.93-.37,1.34-.56h.19c.74-.05,1.25-.51,1.57-1.2.09-.19.19-.37.19-.51.19-.65.6-1.11,1.25-1.34.14-.05.32-.14.46-.19,1.02-.56,1.71-1.34,1.99-2.5.19-.69.09-1.34.05-1.99-.05-.79-.37-1.53-.83-2.13.05.32.19.51.32.79.37,1.06.32,2.13-.37,3.1-.09.19-.32.32-.46.09-.05-.05-.05-.32,0-.37.69-1.57.51-3.01-.51-4.3-.42-.51-.93-1.02-1.48-1.39-1.62-1.2-3.52-1.9-5.46-2.31-1.06-.19-2.13-.32-3.1-.46-.19,0-.37-.05-.46.19.05,0,.05.05.09.05h.37c2.13.19,4.07.65,6.01,1.48,1.34.6,2.5,1.39,3.42,2.54.97,1.3,1.02,2.87,0,4.12-.42.51-.93,1.02-1.48,1.34-.6.46-1.25.74-1.9,1.06-.09,0-.23-.05-.37-.05.05-.09.09-.19.19-.32s.14-.05.19-.09c.93-.46,1.76-1.02,2.45-1.8,1.06-1.3,1.16-2.78.09-4.07-.32-.37-.56-.65-.93-.93-2.36-1.76-5.13-2.41-8-2.64-.09,0-.19.14-.37.19.09.05.19.14.37.19,1.57.19,3.05.51,4.58,1.06,1.3.51,2.5,1.11,3.38,2.17.93,1.16.93,2.45-.09,3.52-1.06,1.16-2.41,1.76-3.89,2.27-.09,0-.23-.09-.37-.14.05-.09.09-.23.19-.32s.23-.09.37-.14c1.06-.42,1.99-.93,2.87-1.71,1.06-1.02,1.16-2.22.19-3.28-.37-.42-.79-.74-1.25-1.06-1.85-1.16-3.93-1.57-6.11-1.76-.32,0-.37.09-.32.42.09,0,.19.05.32.05,1.02.19,1.99.42,3.05.65,1.16.32,2.22.74,3.05,1.62.93.83.97,1.85.14,2.82-.05.09-.14.19-.23.23-1.06,1.02-2.36,1.48-3.79,1.8h-.09l-.37-.19c.05-.09.09-.23.23-.32.19-.09.42-.09.6-.19,1.02-.32,1.99-.74,2.82-1.48.93-.93.83-1.85-.14-2.54-.74-.56-1.57-.97-2.5-1.16-.97-.23-1.9-.46-2.87-.65-.19-.05-.42,0-.46.32,0,.23-.09.51.32.56.37,0,.65.14.97.32.46.14.93.37,1.11.74.09.19.09.46.09.65s-.14.14-.32.19c-.05,0-.19-.09-.19-.19-.23-.74-1.11-1.34-1.94-1.3-.06.34.06.59.37.74.09.05.23.09.37.19.19.14.19.32,0,.46-.23-.14-.51-.32-.74-.46,0,.32,0,.46-.05.6,0,.09-.14.14-.19.23-.05-.09-.14-.14-.19-.23v-25.3c0-.23.09-.37.37-.37h2.17c.14,0,.32,0,.46.09.51.37,1.11.46,1.71.32.37-.05.6,0,.83.19.51.46,1.11.65,1.76.69.69,0,1.3.19,1.85.74s1.39.97,2.31.83c.46-.05.83.09,1.2.42.46.46,1.02.65,1.67.65s.32.14.46.23c.09.09.09.19.14.32l.51-.51c.19.83.37,1.02.97,1.06-.09-.14-.19-.23-.32-.42-.05-.09-.09-.32,0-.37.05-.09.23-.19.37-.14.19,0,.37.09.51.19.09.09.19.23.32.37.05.05.19.09.32.19,0-.09.09-.23.09-.32-.09-.23-.32-.51-.51-.69s-.32-.19-.46-.32c.42-.42.74-.46,1.2-.19.09.05.19,0,.37,0,0-.09,0-.23-.05-.37s-.19-.19-.32-.32c-.14-.09-.32-.14-.46-.19.37-.46.74-.37,1.53.32-.05-.19-.19-.37-.32-.51-.05-.09-.09-.23-.14-.37h.51c.09,0,.19.14.32.23.14.23.32.51.46.79.56-.32,1.06-.23,1.62.14.05,0,.19.05.23,0,.05-.09.09-.19.09-.32-.09-.37-.32-.65-.65-.74-.32-.05-.6,0-.83-.05-.09-.19-.14-.46-.32-.65-.46-.56-1.11-.74-1.76-.56-.6.19-1.02.65-1.06,1.39,0,.09-.09.32-.19.37-.42.09-.65.32-.93.6-.05.05-.19.09-.23.09s-.19-.19-.14-.23c.05-.19.09-.51.32-.6.19-.19.51-.32.79-.42v-.46c-.46,0-.79.09-1.11.42-.09.09-.19.19-.32.19-.6.14-1.2.32-1.76.42-.09,0-.32-.09-.37-.19-.05-.32-.23-.32-.46-.32-.37.05-.74.09-1.16.14-.09,0-.23-.09-.37-.09.09-.09.14-.32.32-.32.19-.09.46-.09.65-.14.09,0,.23-.09.23-.19v-1.57c-.56.09-1.06.14-1.53.23-.65.09-1.25.32-1.9.42-.09,0-.19-.09-.32-.09.09-.09.14-.23.23-.32s.32-.09.42-.09c0-.42-.23-.51-.6-.46-.6.05-1.16.09-1.71.19-.14,0-.37.09-.42,0-.23-.32-.51-.09-.74-.09-.46,0-.93.05-1.34.05s-.42-.09-.42-.19c-.05-.23.14-.23.37-.32.23,0,.51-.05.74-.09v-.37c-.23-.05-.65-.09-.65-.19,0-.42.37-.37.6-.46v-.37h-13.78c-.83,0-.69-.09-.69.69v.37c-.05.51-.05,1.02.65,1.06.09,0,.14.19.23.32-.09.05-.23.19-.37.14-.51-.09-1.02-.19-1.48-.37-.51-.19-1.02-.46-1.57-.65-.05,0-.09-.05-.14-.09-.14-.42-.56-.32-.83-.46v.65c.14,0,.32.05.42.09.14.09.32.23.46.37l1.02.51s.05.19.09.32c-.19,0-.46.14-.6.05-.6-.19-1.16-.51-1.76-.74-.19-.09-.37-.09-.46.09-.05.19-.09.42.19.46.09,0,.19.05.32.14s.23.32.37.46c-.19,0-.37.05-.56.05-.46,0-.97-.46-1.39.09h-.19c-.19,0-.37,0-.56-.09-.46-.09-.93-.23-1.39-.42v1.39c0,.51-.09.65-.65.56-.23-.05-.51-.14-.65.14,0,.05-.19.05-.37.09h-.6c.32.32.19.46-.05.51-.19.05-.42.05-.65.09,0,.37-.19.42-.46.37-.32,0-.51-.14-.74-.19-.09,0-.32-.09-.42-.05-.37.09-.65.19-1.02.37-.09,0-.19.14-.42.32.23.05.42.09.51.14s.19.19.19.32-.14.19-.23.19h-1.2c-.23,0-.46.09-.69.19-.09,0-.19.05-.32.05v.09c.65.19.83.74,1.16,1.3h.09v.14h-.46l.19.28h0ZM64.96,37.53c.93-.19,1.71-.46,2.5-.6,1.25-.23,2.5-.46,3.84-.65.19,0,.37,0,.32-.32v-1.2c0-.32-.09-.37-.37-.32-2.41.14-4.72.65-7.03,1.3-.46.14-.51.09-.65-.46.56-.14,1.16-.32,1.71-.46.56-.14.83-.51.93-1.06h0c.09-.09.19-.23.32-.37.09.09.19.19.23.32.05.19.05.46.05.69.23-.05.46-.09.65-.09.32-.05.46-.19.51-.51,0-.19,0-.46.23-.46s.09.32.19.46c.05.09.19.32.23.32.14-.05.32-.14.37-.32.05-.09,0-.32,0-.46v-2.36s.09-.14.19-.14.14.09.19.14v2.45c0,.19,0,.46.32.46s.37-.19.46-.42v-3.28c0-.19-.09-.46.19-.46s.19.32.19.46v2.17c0,.19.05.37.09.51.09.23.37.37.65.32.32-.09.32-.32.32-.56v-5.27c0-.79-.37-1.48-.6-2.13-.09-.32-.37-.32-.51-.05-.14.19-.23.46-.32.65-.05.37,0,.65-.09,1.02,0,.09-.09.32-.19.37-.23,0-.19-.19-.19-.37v-.51c0-.19,0-.42-.05-.6,0-.09-.09-.32-.19-.32s-.23.09-.32.19c-.09.19-.19.46-.32.65-.14.74-.32,1.57-.46,2.31-.05.37-.19.6-.51.74-.56.23-1.11.51-1.67.65-.32.09-.46.32-.46.6,0,.56-.09,1.06-.14,1.62-.05.51-.32.83-.83,1.02-.19.05-.46.14-.6.32-.23.37-.6.46-.97.56-.46.14-.93.37-1.39.56-.19.05-.37.14-.6.19-.37,0-.56-.32-.37-.56.05-.09.19-.14.37-.19.69-.14.97-.46.97-1.16v-2.13s.09-.19.19-.19.19.09.19.19v1.9c0,.09.14.23.23.37.09-.09.19-.19.32-.37v-1.76c0-.19-.14-.6.19-.6s.19.42.19.6v1.57c0,.09.09.32.19.32.46.09,1.06-.37,1.11-.79.09-.65.19-1.3.23-1.94,0-.37.19-.51.51-.6.42-.09.74-.32.83-.74,0-.19.19-.19.32-.05.37.32.6.32.74-.14.46-1.06.46-2.17.37-3.28h0c-.09-.32-.32-.37-.46-.14-.19.19-.37.51-.46.74-.09.32-.09.6-.19.93,0,.09-.14.19-.19.32-.09-.09-.19-.19-.23-.32-.05-.23-.05-.56-.14-.79-.05-.19-.23-.46-.42-.46s-.42.14-.51.32c-.14.23-.32.56-.37.83-.09.6-.19,1.2-.37,1.8,0,.09-.09.23-.14.37h-.09c0-.14-.05-.32-.05-.46v-1.2c0-.19-.19-.37-.32-.51-.14.09-.37.19-.46.37-.19.37-.37.74-.51,1.16-.19.46-.42.83-.37,1.34,0,.09,0,.19-.05.23h-.09c0-.14-.05-.37-.05-.51,0-.23,0-.46-.09-.69,0-.14-.19-.32-.32-.42-.14.09-.37.19-.42.32-.14.37-.32.69-.37,1.06-.09.65-.19,1.39-.32,2.08,0,.09-.09.19-.19.32-.05-.09-.09-.19-.09-.32v-1.9c0-.19,0-.42-.05-.6,0-.09-.14-.19-.23-.19s-.19.09-.23.14c-.05.19-.09.37-.09.56v2.5c0,.19,0,.46-.23.46s-.19-.23-.23-.42c-.09-.74-.19-1.48-.37-2.17,0-.19-.19-.46-.32-.6s-.32-.19-.46,0c-.65.65-1.16,1.39-1.06,2.41v.46c0,.19,0,.46-.32.42-.09,0-.19-.32-.23-.46v-1.25c-.05-.09-.14-.32-.23-.32s-.32.09-.37.19c-.09.09-.19.32-.19.46-.32.83-.56,1.71-.83,2.54,0,.09-.05.23-.09.32-.09.09-.32.19-.46.14-.05,0-.19-.19-.19-.32v-5.64c0-1.02-.56-1.62-1.57-1.76-.23,0-.37-.09-.42-.37-.09-.65-.74-1.11-1.48-1.16-.65-.05-1.3.37-1.57.93-.05.09-.19.19-.32.23-.32.09-.56.19-.79.37-.42.23-.51.65-.51,1.11s.32.51.51.46c.37-.19.65-.09.93.19.09.09.19.23.37.37.19-.37-.09-.42-.19-.51s-.09-.19-.19-.37c.09-.05.32-.19.42-.14.19,0,.42.19.6.32h.46c.32-.14.56-.37.83-.51.19-.14.46-.32.6.05,0,.05.19.05.32,0,.46-.05.74.19,1.02.51.05.05,0,.23.05.46-.23-.09-.37-.19-.51-.32-.65-.32-1.62,0-1.85.6v.37c.09,0,.19,0,.32-.05.6-.46,1.02-.46,1.62,0,.09.05.23,0,.37,0s.32-.05.42-.09c0,.14.05.32,0,.46,0,.19-.09.46-.09.65v.51s-.09.09-.19.19c-.05-.05-.09-.09-.14-.19,0-.09,0-.32-.05-.51-.23.32-.46.51-.65.65-.09.09-.19.23-.37.23-.46,0-.46.32-.46.65v1.62c0,.42-.09.79-.14,1.2v3.1c0,.19,0,.46.37.42.19-1.2.46-2.41,1.06-3.47h.09v2.13c.14-.09.19-.23.32-.37.46-.74.93-1.48,1.71-1.94.32-.19.37-.14.42.19v.74c0,.32.05.46.32.56.51.32.6.46.51,1.06,0,.14,0,.32-.05.51.23,0,.46-.05.65-.05.6,0,.69.09.46.65-.14.37-.37.65-.56,1.02.23-.09.46-.23.65-.37s.42-.09.51.09-.09.32-.23.42c-.51.37-1.06.65-1.62,1.02-.09.05-.19.19-.32.32,0,0,.05.05.05.09,1.53-.65,3.24-1.48,4.76-2.13-.37-.6-.6-.97-.65-1.06-.14-.23-.37-.46-.46-.69,0-.09.05-.32.09-.42.09,0,.23.05.37.09.05,0,.09.09.14.19.6.83,1.16,1.71,1.71,2.5.09.14.23.32.37.46,0,0,.05,0,.09-.05,0-.14-.09-.32-.09-.46.65-.32,1.3-.56,1.94-.79,0-.32-.09-.32-.37-.19-.6.23-1.16.46-1.76.69-.09-.14-.19-.32-.32-.46.65-.32,1.3-.51,1.94-.79-.05-.32-.19-.37-.46-.23-.46.19-.93.37-1.39.56-.32.09-.51,0-.6-.37.65-.23,1.25-.51,1.85-.69,0-.32-.19-.37-.46-.23-.51.19-1.02.37-1.48.56-.19.05-.32.05-.37-.19.6-.23,1.2-.51,1.85-.74-.05-.09-.09-.19-.14-.23-.14-.19-.37-.46-.05-.6.32-.19.42.09.51.32.65.93,1.25,1.8,1.85,2.73.05.05.14.09.23.14v-.32c-.09-.19-.23-.46-.46-.69l.19-.09h0l.09.14.05-.05h0ZM83,23.89v-2.54c0-.09-.05-.32-.09-.37-.23-.19-.51-.42-.74-.56-.46-.23-.79,0-.79.51v3.33c0,.79.46,1.3.97,1.76.42.37.69.23.83-.42v-1.06s.09-.09.14-.19c.05.05.14.09.14.19v2.68c0,.14,0,.37.09.51.32.42.56.79.56,1.3s.09.37.37.37.19-.23.19-.37v-2.91c0-.09.09-.37.19-.37.23,0,.19.19.19.37v3.05c0,.14,0,.37.05.51.09.23.32.46.56.42.32,0,.32-.23.32-.51v-2.64c0-.09.09-.23.19-.42.05.09.19.23.19.37,0,.79.05,1.62,0,2.41-.05.74.46,1.2,1.06,1.39.46.14.65.46.65.93v.19c0,.09-.09.19-.14.37-.09-.09-.23-.23-.23-.37,0-.42-.19-.6-.56-.6s-.19,0-.32-.05c-.93-.32-1.85-.51-2.82-.79-.93-.32-1.71-.65-1.99-1.67,0-.14-.19-.37-.37-.42-.65-.32-.97-.74-1.11-1.39-.05-.37-.19-.74-.37-1.11-.09-.14-.32-.23-.51-.42-.09.19-.23.37-.32.51-.05.42,0,.79-.05,1.2,0,.09-.09.19-.19.32-.05-.09-.19-.19-.19-.32,0-.42,0-.79-.05-1.2,0-.14-.14-.32-.23-.46-.09.09-.32.19-.37.32-.14.51-.37,1.06-.37,1.62v5.6c0,1.85.09.32.19.46.14-.09.37-.19.46-.37.05-.09.05-.32.05-.42v-1.02c0-.09.09-.19.19-.32.05.09.19.19.19.32v1.02c0,.19,0,.51.32.51s.32-.32.37-.51v-2.73c0-.09.09-.09.19-.19.05.05.19.09.19.19v3.24c0,.19,0,.37.05.56.14.51,1.02.83,1.39.51.32-.19.46-.14.6.09s.42.23.6.19c.09,0,.09-.23.19-.42.05-.09.14-.19.19-.32.05.09.14.19.19.32v.19c0,.32.09.46.37.46s.19-.32.19-.46c0-.74,0-1.57.05-2.36,0-.09.09-.19.19-.32.05.09.19.19.19.32v2.64c0,.09.19.23.32.42.09-.09.32-.19.42-.37.05-.14,0-.37,0-.51v-.79c0-.09.14-.23.19-.37.05.09.19.23.19.37v1.48c0,.09,0,.32.09.42.05.09.23.14.37.14s.14-.19.19-.32v-2.08c0-.09.09-.19.19-.32.05.09.14.19.19.32v2.08c0,.19,0,.51.32.51s.37-.23.42-.51v-1.57c0-.19-.05-.46.23-.46s.19.32.19.46v2.36c.09.14.19.37.37.37.23,0,.19-.19.19-.37v-1.85c0-.19-.05-.51.19-.51s.19.32.19.51v2.17c0,.14.09.32.19.46.09-.09.32-.14.37-.32.23-.37.46-.74.65-1.16.46-.79.51-.79,1.39-.6.42.09.79.14,1.06-.32h.09c0,.09.09.19.14.37.14.51.46.83,1.02.97.46.05.65.37.69.74.05.83.74,1.06,1.3,1.57,0-.14.05-.19.05-.32v-3.47c0-.09,0-.19-.09-.32-.37-.6-.65-1.25-1.02-1.85-.05-.09-.19-.23-.37-.32-.65-.09-1.11-.51-1.48-1.06,0-.05-.09-.09-.09-.14-.09.37-.05.74-.09,1.06,0,.09-.19.19-.32.37-.09-.09-.23-.19-.32-.32-.09-.19-.09-.37-.14-.6-.09-.51-.23-1.06-.46-1.62-.05-.14-.14-.42-.42-.32-.09.05-.32.32-.32.46-.05.42,0,.74-.05,1.16,0,.09-.14.23-.19.37-.05-.09-.19-.23-.19-.37v-1.39c0-.46-.19-.74-.46-.74s-.42.23-.46.74c0,.19-.05.42-.09.6h-.14c-.05-.14-.09-.32-.14-.46-.09-.37-.14-.74-.23-1.16-.09-.56-.19-.6-.79-.65-.65,0-.93-.32-.93-.97v-3.28c0-.51-.14-.65-.74-.69v1.94c0,.09-.09.14-.19.23-.05-.09-.14-.14-.19-.23s0-.19,0-.32v-1.67c0-.14,0-.32-.09-.46-.65-.79-1.62-1.02-2.68-.97v2.36c0,.19,0,.37-.32.32h.37l.32.19h0ZM92.02,49.88c0-1.06.32-1.94,1.11-2.73.74.6,1.16,1.39,1.06,2.41.37-.14.65-.32.97-.46-.09-.09-.19-.19-.23-.32-.05-.09-.09-.19-.14-.32.09,0,.19-.09.32-.09h1.2c-.09-.14-.09-.19-.14-.32-.74-.93-.83-1.94-.74-3.05,0-.37.14-.46.51-.37.42.09.83.23,1.25.37.09-1.02.6-1.76,1.3-2.5.14-.14.32-.19.46,0,.23.23.46.51.65.69.09-.09.23-.23.37-.19.09,0,.19.19.32.37.05.09.09.19.14.32s.19.19.23.19c.14-.05.32-.14.42-.23s0-.19,0-.32v-4.44c0-.14,0-.32-.05-.46-.56.19-1.06.32-1.57.51-.09,0-.32.09-.37.19-.19.32-.56.46-.93.56-.6.19-1.06.6-1.3,1.2-.05.14-.14.37-.19.51-.42.93-1.06,1.57-1.99,1.76-.19.05-.46.14-.65.19-.83.19-1.2.83-1.3,1.62-.05.83-.46,1.53-1.02,2.08s-.56.69-.65,1.16c-.09.37-.32.74-.51,1.06-.56.79-1.25,1.48-2.17,1.9-.6.32-.97.69-1.16,1.3-.09.23-.19.51-.37.74-.42.6-1.02.93-1.67,1.11-.46.09-.93.32-1.3.51-.32.09-.51.19-.79.14-1.16-.19-1.99.37-2.96,1.06.51.23.93.51,1.39.65.19.09.23.19.23.46-.05.46-.05.97-.09,1.39,0,.09.05.19.09.32h.14v-.51c.05-.37.09-.65.19-1.02,0-.05.09-.09.19-.14,0,.09.09.14.05.23,0,.09-.09.23-.09.37.51.42.09,1.06.37,1.53.09-.14.19-.32.32-.42.09.14.23.32.37.46.19.32.42.56.65.93.09-.23.19-.42.32-.6s.09-.32-.09-.42c-.14-.05-.32-.14-.46-.32-.05-.05-.09-.19-.09-.32.09,0,.19-.09.32-.09.23.05.51.19.74.23.09,0,.23.05.32,0,.65-.32,1.34-.65,1.99-.97l-.09-.09c-.51-.23-.97-.51-1.48-.74-.09-.05-.19-.19-.37-.37.09-.09.23-.32.42-.32.69-.32,1.48-.37,2.17-.23.37.05.65.09,1.06.19-.32-.83-.79-1.39-1.48-1.85-.14-.09-.32-.23-.46-.37.65-.6,1.71-1.06,2.96-.37.42-.51.83-1.06,1.25-1.57,0-.05-.14-.14-.19-.23-.32-.46-.56-.93-.79-1.34-.09-.19,0-.32.14-.46.46-.23.97-.32,1.53-.05-.09-.83-.14-1.67.56-2.27,0,.65-.37,1.3,0,1.94h0s-.09.09-.09.09l-.14.19h0ZM55.62,49.23c.32-.23.51-.51.79-.65.09-.09.32,0,.51,0,0,.14,0,.32-.09.46-.14.23-.37.46-.56.69.32.05.51.09.74.19.32.09.42,0,.51-.19.69-1.3,1.85-2.08,3.33-2.27.19,0,.37,0,.6-.05v-.37c-.09-.83-.6-1.48-1.34-1.8-.74-.37-1.25-.83-1.62-1.62-.09-.19-.19-.37-.32-.51-.32-.51-.65-.93-1.2-1.06-.6-.19-1.16-.46-1.71-.6-.83-.19-1.48-.69-1.94-1.39-.32-.37-.6-.65-1.06-.69-.83-.09-1.39-.6-1.99-1.11-.37-.23-.51-.6-.6-1.02-.05-.37-.09-.74-.14-1.16-.74.56-1.48.69-2.27.19-.09,1.2.32,2.5-1.02,3.42.51,0,.46.32.46.51s-.05.46-.09.69c-.05.37-.09.74-.14,1.16h.09c.05-.09.09-.23.14-.37.19-.56.46-1.16.65-1.71,0-.09.19-.09.32-.19.05.09.14.19.14.37s-.05.32-.09.46c-.19.65-.46,1.34-.65,1.99,0,.09-.05.19-.09.37.09-.05.19-.09.23-.19l.93-1.85c.19-.37.37-.74.56-1.06.05-.09.23-.14.32-.09s.14.19.14.37-.09.32-.14.46c-.46.93-.83,1.8-1.25,2.73-.05.09-.09.23-.09.37,0,0,.05,0,.09.05.05-.09.14-.19.19-.32.32-.46.6-.93.93-1.3.14-.19.32-.6.6-.42.37.19,0,.51-.09.74-.32.51-.6.97-.97,1.53.32,0,.51-.05.69-.09.37-.09.69-.19.93-.42.14-.09.05-.51.05-.74v-.14c.05-.46.14-.51.6-.37.74.32,1.39.74,1.8,1.34.42-.19.79-.37,1.16-.51.19-.09.37,0,.46.19.05.37.14.65.19,1.02.05.69-.19,1.34-.69,1.94.83-.19,1.57-.37,2.36-.56-.19,1.62-1.16,2.36-2.41,2.78.23.65.46,1.3.69,1.9.23-.05.37-.19.19-.46-.09-.19-.19-.42-.23-.6-.09-.32-.09-.6.23-.93.23.42.46.74.65,1.16.05-.46.09-.79.19-1.16,0-.09.19-.19.32-.32.05.09.14.23.14.37v1.02h0v-.19h-.09ZM67.55,61.49c.09.32.14.6.23.83,0,.09.14.19.23.32,0-.09.09-.32.09-.42,0-.37,0-.74-.09-1.16,0-.37.05-.51.42-.65.42-.14.79-.37,1.2-.6-.09-.19-.19-.37-.32-.42-.79-.51-1.57-1.16-2.54-1.3-.23,0-.46-.23-.69-.37-.32-.14-.56-.37-.83-.51-.32-.09-.6-.09-.83-.19-.74-.09-1.34-.42-1.76-1.11-.69-1.11-2.45-1.25-3.42-.42-.05.05-.09.14-.19.23.79-.32,1.57-.37,2.36-.09,0,0,0,.09.05.09l-.32.09c.19.09.32.19.46.19.83.32,1.39,1.02,1.48,1.76,0,.32-.05.42-.37.42h-1.3c-.37,0-.79.09-1.06,0-.32-.14-.46-.6-.65-.93-.23-.37-.6-.65-1.02-.69-.46-.05-.65-.23-.83-.69-.19-.56-.74-.74-1.2-.6.65.32.83.51.69,1.02-.51-.37-1.11-.46-1.71-.19-.56.19-1.06.46-1.34,1.02.42.23.74.51,1.16.74v-.19c-.19-.46,0-.83.51-.74.37.05.74.23,1.06.46s.32.46.23.79c-.09.42-.09.83-.09,1.25s.09.19.19.37c0,0,.05,0,.09-.05,0-.19,0-.46.05-.65,0-.19.05-.46.09-.65,0-.09.14-.19.19-.19.09,0,.19.09.23.19.09.14.09.37.19.51.05.19.09.42.14.6.32,0,.37-.09.37-.37s-.09-.6-.14-.97v-.37c.09,0,.32,0,.37.05.19.32.51.56.6.93.14.6.51.83,1.06.93.09,0,.23,0,.37.05,1.3.19,1.99,1.06,2.13,2.36.05.93-.23,1.76-.65,2.5v.32c.09,0,.23-.05.32-.09.65-.83,1.02-1.8.74-2.87-.09-.6-.42-1.2-.6-1.8,0-.09,0-.32.05-.42.09,0,.32,0,.37.09.09.09.19.23.23.37.09.19.19.46.37.74.05-.37.09-.65.19-.97.05-.14.19-.37.37-.37.32,0,.19.23.19.46,0,.37-.09.74-.14,1.06.42-.23.79-.51,1.2-.69.51-.19,1.02-.19,1.53.09.14.09.32.23.09.42-.09.14-.32.32-.51.09-.19-.19-.42-.19-.6-.09-.56.32-.97.65-1.2,1.25-.05.09,0,.32-.05.42h.09c.37-.32.65-.65,1.06-.83.42-.19.93-.32,1.39-.46l.09.09h-.05ZM50.21,13.48s.05,0,.09.05c.14-.19.32-.37.51-.51s.42-.32.65-.37c.37-.09.51-.05.65.09-1.02.65-1.34,1.16-1.11,1.57.19-.19.37-.42.51-.56.14-.09.42-.32.56-.23.19.05.37,0,.51-.05.42-.19,1.02,0,1.25.32.19.32.14.46-.19.51-.37.09-.74.14-1.11.32-1.48.79-1.48,1.76-1.34,3.33.37.05.46-.09.42-.37,0-.19,0-.42.09-.51.46-.56.97-1.16,1.71-1.3.6-.14,1.16-.23,1.57.37,0,.05.09.09.19.09h.46c-.05-.09-.09-.19-.14-.37,0-.05-.09-.09-.09-.09-.09-.09-.37-.23-.14-.46.09-.05.32,0,.46,0s.09.05.19.09c.32.19.6.19.97,0-.14-.09-.23-.23-.37-.37s-.32-.14-.37-.23c-.05-.05-.09-.19-.09-.32.09,0,.23-.09.37-.09.19.05.42.19.6.23s.46.09.65.14c.09,0,.19-.05.37-.09-.05-.09-.09-.19-.19-.32-.09-.09-.23-.14-.37-.19-.14-.09-.46-.19-.37-.46.09-.32.42-.09.6,0,.19.05.37.14.56.23s.37.19.51.19h.42c-.05-.09-.09-.32-.19-.37-.32-.19-.6-.37-.83-.56-.09-.05-.09-.19-.19-.37.14,0,.32-.14.46-.09.19,0,.37.19.51.23h.37v-.42c-.09-.14-.32-.23-.42-.37-.05-.05-.09-.19-.05-.32.05-.05.19-.09.32-.09s.19.09.23.14c.23.32.46.32.69,0,0,0,.09-.09.14-.09h.42c0,.09-.05.32-.09.37-.09.14-.32.32-.42.46v.32h.32c.19-.09.37-.23.51-.32.14,0,.46,0,.51.09.14.19-.09.32-.23.37-.32.19-.6.37-.93.56-.09.05-.09.19-.14.32.09,0,.23.09.37.09.19,0,.37-.09.51-.19.32-.09.56-.32.83-.37.09,0,.23.05.37.09-.05.09-.05.23-.14.32-.19.09-.42.19-.56.37-.09.05-.14.19-.19.32,0,.05.05.09.09.14.37-.09.74-.19,1.16-.32s.37-.19.56-.19.23.09.37.09c-.05.09-.09.19-.14.32-.09.09-.32.19-.46.32-.19.14-.14.32.05.37s.51,0,.69,0c.37-.09.46-.05.46.32v1.2c0,.19.09.37.19.56.05-.19.19-.37.19-.56v-3.24c0-.42.09-.65.51-.83.51-.19.74-.6.65-1.16,0-.09-.09-.19-.14-.32-.05.09-.19.19-.19.32.05.6-.37.74-.79.93v-.93c0-.09-.09-.19-.19-.32-.05.09-.19.19-.19.32v1.99c-.37-.46-.74-.6-1.3-.6v-.51c.05-1.06-.46-1.57-1.53-1.48-.09,0-.23-.05-.32-.09-.74-1.06-1.85-1.06-2.68,0-.05.05-.19.09-.32.09-.93-.09-1.57.51-1.48,1.48,0,.19,0,.37.05.56-.74-.05-1.2.37-1.57.97-.05-.32-.09-.51-.09-.74-.09-.83-.51-1.16-1.3-.93-.23.05-.42.05-.56-.19-.09-.14-.23-.23-.42-.32-1.02-.46-1.99.42-2.27,1.16v.32h-.14l.09.09h-.19,0ZM58.48,28.28c.51-.19,1.06-.37,1.48-.65.65-.51,1.3-.56,1.99-.46.19,0,.46-.05.56-.19.37-.32.65-.65.97-1.06.09-.19.19-.46.19-.65v-2.17c0-.14.09-.46.19-.46.32,0,.19.23.23.46v1.9c0,.09.09.32.14.32.09,0,.23-.05.37-.14s.09-.19.09-.37v-1.25c0-.09.14-.19.19-.32.05.09.14.19.19.32s0,.23,0,.42v1.06c.19-.09.46-.14.46-.19.09-.32.37-.42.6-.51.46-.14.65-.46.65-.93v-.51c0-.09.09-.19.19-.32.05.09.19.19.19.32v.97c0,.14.14.37.32.37.19.05.32-.14.32-.37v-2.27c0-.09.09-.14.19-.23.05.05.19.14.19.23v2.13c0,.23.05.46.37.46s.37-.19.37-.46v-2.96h-1.3c-.6,0-1.06.42-1.48.74-.14.09-.09.56-.09.83v.23c0,.09-.09.19-.19.23-.05-.09-.14-.14-.14-.23,0-.37,0-.65-.05-1.06-.56.09-1.11,0-1.53.32-.74.46-1.53.74-2.41.69h-.19c-.6.05-.74.19-.74.79v1.71c0,.09-.09.19-.14.32h-.19c-.05-.09-.09-.19-.09-.37v-1.76c-.37,0-.6.05-.93.05h-.32c-.42.09-.79.6-.79,1.02v3.89h.09v.09h.05,0ZM49.79,33.83h.05c.19.05.46-.09.6-.05.32.05.51-.05.6-.32.6-.83.23-2.36-.97-2.5-.05,0-.09,0-.14-.05v-.14c0-1.02-.65-1.57-1.67-1.48-.23,0-.37-.09-.46-.32-.37-.65-.83-.83-1.62-.65-.19,0-.32,0-.37-.14-.42-.6-1.06-.83-1.76-.65-.46.09-.79.46-1.02.83-.83-.23-1.53-.05-1.85.56-.14.23-.32.32-.56.19-.83-.14-1.53.42-1.57,1.2v.46c-.37.14-.83,0-.97.51h.37c.65,0,1.3,0,1.8.56,0,.05.23.05.32,0s.09-.23.09-.32c-.14-.19-.37-.46-.51-.6-.09-.09-.14-.23-.23-.37.19,0,.37-.09.51-.09s.32.14.42.32c.14.09.23.32.42.42.14.05.37,0,.56,0v-.51c0-.09-.14-.19-.32-.32-.14-.09-.32-.19-.51-.37v-.14c.19,0,.37-.09.51-.09.51.14.83.51,1.02,1.06,0,.09.05.23.14.37.19.19.46.37.69.51.09.05.32,0,.37,0,.05-.05.05-.23,0-.37-.09-.19-.32-.37-.46-.51s-.19-.23-.05-.42.32-.09.46.05.37.37.51.51c.46.37.93.37,1.34,0,.09-.05.14-.19.32-.19s.37-.05.46,0c.19.09.05.32-.05.42-.14.14-.32.32-.46.51,0,.05-.05.19,0,.23,0,.05.14.09.23.09s.19-.09.37-.19c.23-.14.46-.42.74-.51.46-.09.83-.32,1.06-.65.09-.19.37-.19.51-.05.19.19,0,.32-.09.46-.14.19-.32.46-.42.69,0,.09,0,.32.09.37s.19,0,.37-.09.32-.23.46-.37c.37-.19.56-.09.74.19-.32.23-.6.46-.83.74-.09.09-.09.37-.14.51.19,0,.37.09.56.05.09,0,.23-.14.37-.23s.23-.23.42-.32c.09,0,.32,0,.37.05s0,.32,0,.37c-.09.14-.32.23-.42.42-.09.09-.09.19-.19.37h-.23ZM101.08,53.95c-.32-.32-.46-.42-.83-.19-1.16.56-2.36.65-3.52.32-.46-.14-.46-.23-.14-.6,1.06.51,2.17.42,3.28-.09-.37-.37-.74-.37-1.11-.23-.6.19-1.16.09-1.71-.05-.74-.19-.79-.6-.32-1.2.09-.09.32-.19.46-.32.6-.19,1.3,0,1.71.51.05.05.09.14.19.19.46.09.97.23,1.48.37,0-.51-.6-.69-.83-1.16.79-.46,1.02.37,1.48.6,0-.19-.09-.42-.14-.6,0-.09,0-.19-.05-.37.09,0,.32,0,.37.05.19.19.37.46.51.74s.19.32.51.14c-.09-.19-.09-.46-.23-.65-.51-.79-1.16-1.39-2.08-1.71-1.62-.6-3.1-.05-3.98,1.39-.14.23-.37.51-.6.65-.37.37-.79.65-1.16,1.06-.56.6-.6.6-1.3.09-.56-.46-1.16-.42-1.71-.09-.32.14-.56.42-.6.74.42-.19.74-.42,1.16-.51.65-.19,1.16.09,1.25.83,0,.09,0,.19.05.32.42.93,1.11,1.53,1.99,1.85h.32v-.09c-.09-.09-.32-.19-.42-.32-.46-.42-.93-.74-1.25-1.2-.32-.42-.19-.6.23-.93v.09c.05.74.56,1.16,1.16,1.48,1.85,1.02,3.84.97,5.83.32.46-.14.79-.37,1.3-.6-.19-.14-.32-.32-.42-.37-.05,0-.19-.05-.23,0-.93.74-1.99.93-3.1.97-1.06,0-2.13-.14-3.05-.74-.32-.19-.51-.46-.74-.65-.14-.14-.09-.37.09-.51.05,0,.19.09.32.14.19.19.42.46.65.6,1.48.79,2.96.83,4.49.37.37-.09.65-.32,1.02-.51h-.09v-.14h-.23,0ZM88.46,15.19s0-.09.05-.09c-.14-.09-.32-.19-.46-.32-.19-.09-.46-.14-.69-.32-.14-.05-.42-.14-.23-.42.09-.19.37-.14.51,0,.09.05.19.14.37.19.37.09.65.19,1.06.32.09,0,.23,0,.32-.09s0-.23,0-.32c-.09-.09-.23-.14-.37-.19-.32-.09-.56-.19-.83-.37-.09-.05-.14-.19-.19-.32.09,0,.32-.09.42-.09.19.05.46.14.65.23.46.23.83.19,1.3,0,.19-.09.46-.19.69-.23.09,0,.19.09.32.14-.05.09-.09.19-.14.32-.14.09-.32.14-.51.19-.19.09-.46.14-.65.32-.09.05-.09.23-.09.42,0,0,.14.09.19.05.51-.19,1.06-.42,1.57-.6.09,0,.32.05.42.09-.05.09-.05.32-.14.37-.32.14-.56.23-.83.37-.09.05-.23.19-.37.32,0,0,0,.05.05.09.56,0,1.06,0,1.57-.23s.42-.32.56,0c.14.23-.09.37-.23.51s-.14.19-.23.37c1.06.09,1.57-.65,1.62-1.2.05-.65-.32-1.06-1.02-1.11-.09-.69-.19-.74-.93-.97-.19-.74-.51-.93-1.3-.6-.19-.14-.46-.42-.6-.42-.46,0-.83.09-1.3,0-.14,0-.42.23-.6.37-.6-.32-.97-.09-1.2.51,0,.05-.05.14-.09.14-.56.05-.69.46-.79.93-.32,0-.6.05-.93.09v-2.13c0-.09-.14-.19-.19-.37-.05.09-.19.19-.19.37v1.3c-.6-.09-.74-.32-.83-.83,0-.09,0-.14-.05-.23,0-.05-.09-.09-.14-.09s-.09.09-.09.09c-.09.42.05,1.02.46,1.2.14.09.32.19.51.32s.23.19.23.42v3.61c.56-.56.23-1.2.46-1.85.09.09.19.19.32.19.32.09.6.19.93.32.05,0,.19-.05.32-.09-.05-.09-.09-.19-.14-.23-.14-.14-.51-.19-.37-.51.19-.32.46,0,.65,0,.51.19.97.23,1.48.19h.05l-.37-.09h0ZM96.73,39.2s.09,0,.14.05c.09-.23.37-.51.37-.74v-6.71c0-.14,0-.37-.09-.46-.65-.74-1.2-1.71-2.45-1.62h-.09s-.14-.09-.14-.14,0-.14.09-.19.19-.09.32-.09c.65-.09,1.25,0,1.76.42.14.09.32.19.46.32.19-.14.37-.32.51-.46.46-.37,1.02-.46,1.57-.32.14,0,.23.23.37.37-.09,0-.32.05-.42.05-.69-.05-1.25.32-1.39.83,0,.09.05.32.05.42.09-.09.19-.14.37-.23.19-.14.42-.46.51-.46.42.09.74.05,1.16.05s.6,0,.79-.32c.37-.56.19-1.2-.32-1.67-.05-.05-.09-.14-.09-.19-.19-.19-.37-.42-.6-.51-.19-.09-.46-.05-.69-.09,0,0,0-.05-.05-.09-.23-.65-.74-1.06-1.39-1.06s-1.16.32-1.48.93c0,.09-.19.19-.37.19-.79.09-1.34.51-1.71,1.2-.37.69-.19,1.48.46,1.94.23.19.46.19.6-.05,0-.05.14-.09.19-.09.19.05.46.09.6.19.32.23.6.51.83.79.09.09.19.37.19.51v7.17h.05-.05l-.05.09h0ZM89.1,37.16c-.19-.05-.32-.14-.46-.19-2.36-.83-4.72-1.57-7.17-1.94-1.02-.19-1.99-.32-3.01-.46-.37-.05-.46.09-.46.46v1.02c0,.32.09.37.37.42,1.94.19,3.93.6,5.83,1.16,1.76.56,3.52,1.25,5.18,2.13,1.67.83.37.19.51-.09-.51-.37-1.06-.69-1.62-1.11.32-.46.56-.83.83-1.3h0v-.09h0ZM70.74,58.11c.46-.05.6-.32.51-.69-.05-.32-.09-.56-.14-.83,0-.23-.09-.42-.37-.51s-.51-.32-.65-.51c-.65-.83-1.57-1.06-2.54-1.02-.23,0-.56,0-.74-.09-.32-.09-.56-.32-.83-.46-1.3-.83-2.17-1.94-2.27-3.52v-.19c-.19.74-.37,1.53-.65,2.27-.32.79-1.02,1.2-1.62,1.76.09,0,.14.05.19.09.32.19.51.09.74-.09.37-.37.79-.56,1.2-.79.09-.05.23.05.42.09-.05.09-.09.19-.19.32s-.19.09-.32.14c-.32.19-.6.46-.79.83.14,0,.23,0,.37-.05s.37-.14.51-.19h.6c-.09.14-.19.37-.32.51l-.37.37c.51.37.93.37,1.3.05.09-.05.19-.14.32-.14h.46c-.05.09-.05.32-.14.37-.09.19-.32.32-.46.51.42.09.69.14,1.02-.09.14-.09.37-.19.6-.23.19-.05.32,0,.23.23,0,.09-.05.19-.09.32-.09.19-.05.37.19.42.46.09.93.19,1.39.32.12.34.4.49.83.46.09,0,.19.09.19.14.05.09.09.23.09.37.05.37.32.37.6.32.37-.05.46-.23.37-.56-.09-.37-.14-.65-.19-1.02h.09c.09.05.19.09.23.19.09.37.19.74.32,1.16h0l-.09-.09v-.19h0ZM104.6,28.05h-.09v-.74c0-.32-.09-.51-.37-.65-.46-.32-.74-.69-.93-1.2,0-.09-.19-.14-.32-.19-.05.09-.19.19-.19.32,0,.46.19.93.51,1.16.65.46.65,1.06.6,1.76v13.27c.42,0,.51-.09.51-.42v-7.08c0-.37.09-.6.46-.74.51-.19,1.57.51,1.57,1.06v3.47c0,.14,0,.32.05.46.42,0,.51-.19.51-.6v-12.16c0-.14.09-.42-.23-.42s-.32.19-.32.42c0,.32-.09.56-.37.74-.19.19-.37.42-.51.6-.37.37-.65.74-1.02,1.11h0l.09-.09.05-.09h0ZM100.02,34.48c-.74.32-.97.6-.83,1.2,0,.23.14.51.46.46.32,0,.09-.32.19-.46,0-.09.09-.32.19-.37.09,0,.32,0,.42.09.19.32.37.32.56,0,0-.05.19-.19.23-.14.09.05.14.14.19.23s0,.19,0,.32c0,2.68.05,5.32.05,8v.46h.09c.05-.09.14-.19.19-.32v-.93c0-2.41,0-4.76.05-7.17v-.46c0-.09.09-.19.14-.23,0,0,.14.05.19.09.09.09.14.19.23.37.19-.19.46-.37.51-.51,0-.6,0-1.2-.05-1.85,0-.09-.19-.23-.37-.32-.05,0-.19.09-.32.19-.09.05-.19.14-.32.23,0-.09-.09-.23-.09-.37v-6.71c0-.09-.14-.19-.23-.23-.09.09-.19.19-.23.32v6.98c0,.09-.09.14-.14.23-.05-.05-.14-.09-.19-.19-.23-.42-.37-.42-.6,0-.05.05-.14.09-.19.19-.09.09-.19.23-.19.42v.42h.05l.05.05ZM90.95,23.93v1.57c0,.09-.09.14-.19.23-.05-.09-.19-.14-.19-.23,0-.46-.05-.83,0-1.25,0-.37-.14-.51-.51-.51v3.52c0,.32.19.37.56.32v-.93c0-.09.09-.19.19-.32.05.09.19.19.19.37v.93c0,.32.19.46.6.37v-1.2c0-.09.14-.19.19-.32.05.09.19.19.19.32v.93c-.05.6.32,1.06.65,1.48.19.23.37.19.46-.09.32-1.02.93-1.62,1.9-1.85.42-.09.51-.37.65-.65.09-.23,0-.56-.32-.6-.51-.05-1.02-.09-1.57-.14,0,.23,0,.46-.05.65,0,.09-.09.14-.19.19-.05-.05-.09-.09-.14-.19v-.46c0-.32-.09-.51-.42-.65-.6-.23-1.02-.65-1.39-1.16-.14-.19-.37-.32-.65-.19h.05-.05l.05-.14ZM45.53,38.64c.05-1.3.09-2.5.19-3.79,0-.42.14-.74.19-1.16,0-.09-.09-.19-.09-.37-.09.05-.23.09-.32.19s-.09.23-.09.37c-.05.37-.09.74-.19,1.06-.05.14-.19.37-.37.37s-.37-.09-.46-.23c-.09-.19-.19-.46-.23-.65-.05-.32-.09-.56-.14-.83,0-.09-.19-.19-.32-.32-.05.09-.19.32-.19.42.09.93.37,1.8,1.02,2.54.09.09.14.32.14.42v3.79c0,.09,0,.32.09.37.37.37.37.51-.09.69v1.71c.32-.09.37,0,.32.23,0,.32-.05.6,0,.93.09.32.05.51-.32.6v.51c.09,0,.19.05.32.09.6.19.65.19.65-.46v-5.27c0-.37.09-.6.37-.83s.6-.6.65-.97c.09-.6,0-1.2,0-1.76-.37-.05-.46.05-.46.37v1.2c0,.37-.19.56-.65.65h0v.19-.05ZM54.32,55.29c.05-.19.09-.37.09-.51,0-.83-.32-1.57-1.02-2.08-.14-.09-.32-.32-.42-.46-.56-.97-1.48-1.39-2.5-1.34-1.11,0-1.9.6-2.45,1.57-.05.09,0,.32,0,.42.09,0,.32-.05.37-.14.32-.14.51-.42.79-.51.37-.09.46,0,.37.42s-.09.51-.05.56c.32.14.42-.14.51-.32.14-.19.32-.14.46,0s.05.19.05.37-.09.32-.14.51c.37-.09.65-.19.97-.32.09-.05.14-.19.23-.37s.23-.32.46-.14c.19.09.14.32.05.46-.14.32-.32.56-.51.83-.14.23-.09.42.05.56.32-.32.6-.56.93-.74.09-.05.32,0,.46.05-.05.09-.05.32-.14.42-.19.32-.51.56-.69.83-.05.09-.05.19-.09.37.74-.46,1.3-1.3,2.27-.23h0v-.14l-.05-.05ZM47.94,47.61h.09c.09-.09.14-.23.32-.42.14-.19.32-.46.46-.6.05-.05.23,0,.37-.05v.37c-.14.46-.37.93-.46,1.39-.05.32-.05.56-.05.83h.09c.05-.19.14-.46.23-.65.09-.32.23-.51.42-.74.05-.05.19-.05.37-.09,0,.09.05.19.05.32,0,.19-.09.42-.14.6-.05.46-.09.83-.19,1.25h.14c.05-.19.14-.37.19-.56.09-.23.19-.51.37-.74,0-.09.19-.09.32-.14,0,.09.09.19.09.32,0,.19-.05.37-.05.51,0,.37-.05.65-.05,1.06h.14c.19-.6.37-1.16.51-1.76-.09,0-.19,0-.23-.09-.09-.09-.09-.19-.19-.32.09-.05.19-.14.32-.14s.32.05.42.09c.51.09.97.19,1.57.32-.14-.37-.23-.6-.37-.79,0-.05-.14-.09-.23-.09-.65,0-1.34.05-1.99.05s-.37-.19-.42-.37c0-.32.19-.32.46-.32h.46c.51.05,1.02.09,1.62.19-.46-.51-.83-1.06-1.3-1.48-.83-.83-1.9-1.16-3.05-.97-.56.09-.97.37-1.16.83.6-.09,1.2-.19,1.85-.23.09,0,.42.19.46.32,0,.19-.19.23-.42.23-.56,0-1.06.14-1.57.46l-.37.37s0,.05.05.09c.46-.09.83-.19,1.34-.32-.09.51-.19.93-.32,1.3h-.05s0-.05,0-.05h-.14,0ZM55.11,30.36c.37.09.6,0,.74-.32,0-.09.14-.19.23-.19.69-.19.74-.19.74-.97v-2.96c0-.19-.05-.51.23-.51s.19.32.19.51v2.82c0,.09.09.32.14.32.09,0,.32-.05.32-.14.09-.14.14-.37.14-.51v-3.79c-.69.09-1.34.23-1.99.42-.46.09-.83.65-.83,1.11v4.21h.09ZM93.87,61.72h.09c.05-.14.19-.32.19-.51,0-.79-.74-1.53-1.57-1.48h-.32c-.23,0-.51-.09-.74,0-.42.14-.74.42-1.16.6-.09.05-.19,0-.32.05,0-.09-.05-.23,0-.32.09-.14.19-.32.37-.42.37-.19.65-.42,1.02-.6-.32,0-.6,0-.83.05-.74.23-1.16.83-1.39,1.57-.09.32-.32.51-.6.6-.46.09-.79.37-1.02.79-.05.09,0,.32,0,.46.32-.19.51-.37.74-.56.09-.05.32-.05.37,0s.09.23.05.37c-.05.14-.19.32-.32.42-.32.37-.51.65-.37,1.2.09-.09.19-.14.32-.23.32-.32.6-.56.93-.83.19-.14.19-.37.19-.6s0-.65.09-.97c.05-.23.32-.37.51-.19v1.2c0,.09.09.14.09.23.05-.09.14-.14.19-.23s0-.19,0-.32c.05-.51.32-1.02.74-1.25.09-.05.32-.05.42-.09v.42c-.19.42-.37.79-.19,1.25,0,.09.14.19.19.32.05-.09.09-.19.14-.32v-.32c.09-.23.19-.51.37-.69s.32-.09.37.09c0,.19,0,.46.05.65,0,.09.09.19.19.32.09-.09.19-.19.23-.37v-.69c0-.23,0-.46.32-.51s.37.14.46.37c.05.14.09.37.14.51h.05l.05.05h0ZM46.55,51.68c.09-.09.19-.14.23-.19.32-.37.6-.65,1.02-1.02.23-.19.32-.46.23-.74-.14-.74-.46-1.39-.97-1.94-.37-.42-.79-.79-1.25-1.06-1.06-.56-2.78.19-3.1,1.3v.19c.32-.19.51-.37.74-.56v1.06h.09c0-.14.05-.32.09-.46.09-.23.14-.51.32-.69.05-.09.23-.14.37-.19,0,.09.09.23.09.37,0,.32-.09.65-.09.97s.09.32.14.46c.09-.09.32-.19.37-.32.09-.32.09-.6.19-.93,0-.14,0-.42.23-.42s.37.14.42.37v1.34h.09c.09-.09.19-.32.32-.37.14-.14.37-.37.51-.46.05,0,.32,0,.37.09.05.05,0,.23,0,.37s-.09.09-.19.19c-.19.32-.42.6-.6.93l.09.09c.09-.05.19-.14.32-.19.19-.09.42-.19.6-.19s.32.09.32.19-.09.23-.14.32c-.19.19-.46.42-.65.65-.19.19-.19.51,0,.79h-.09l-.09.05ZM42.02,22.41v.09c.19.09.37.23.51.19.6-.09,1.16-.05,1.57.46,0,0,.14.05.19,0,.05,0,.09-.14.05-.19-.05-.09-.09-.19-.19-.32-.14-.14-.32-.32-.51-.46,0,0,0-.05-.05-.09.51.05.56-.32.74-.56s.42-.32.6,0c.6-.51,1.02-.56,1.2-.05-.09,0-.23.05-.37.09-.42.19-.69.46-.74.93,0,.05,0,.19.05.19h.19c.32-.37.6-.56,1.16-.6.32,0,.46.05.6.23s.14.19.32.23c.37.09.65.19,1.02.19s.23-.05.32-.09c0-.05,0-.23-.09-.32-.19-.14-.46-.32-.69-.42-.32-.09-.42-.19-.46-.51-.09-.93-.93-1.57-1.85-1.57s-1.76.6-1.9,1.53c-.09.42-.37.65-.74.65h-.32c-.19.05-.42.14-.6.23h.05l-.05.19ZM60.06,51.17h.09l.09-.09c.56-.51,1.11-.97,1.71-1.39.09-.05.23,0,.37,0-.05.09-.05.32-.14.37-.09.09-.23.19-.51.42.46.05.79.09,1.2.19v-.56c-.19-.19-.09-.37-.05-.51.19-.65-.14-1.3-.83-1.48-1.2-.23-2.82.09-3.7,1.57-.37.6-.37.65.19,1.16h.05c.14-.46-.05-1.06.6-1.39v2.22c0,.09.09.19.19.37.05-.09.14-.23.19-.37s0-.23,0-.37v-1.39c0-.19.09-.46.14-.65,0-.09.14-.09.19-.19.05.09.09.19.09.23v1.94h.09l.05-.09h0ZM71.57,23.19h.14c.05-.14.14-.37.14-.51v-2.78h-.51c-.69-.09-1.16.37-1.67.74-.05,0-.09.09-.09.19v2.91c0,.19.14.37.42.32.46-.09,1.06-.83,1.06-1.34v-1.57c0-.09.14-.19.19-.32.05.09.19.19.19.32v1.67c0,.14.09.32.14.46v-.09h0ZM59.96,63.71c.6-.65.6-1.39,0-2.13-.09-.09-.09-.23-.09-.42.09,0,.32-.09.42-.09.51.09.74.46.93.97.14.6,0,1.16-.19,1.71-.05.14-.05.32-.09.46.42-.42.65-.83.65-1.39s0-1.06-.05-1.62c.42.09.51.42.6.74.14.65.14,1.3-.09,1.94-.05.19-.09.37-.14.56h.09c.51-.74.74-1.57.65-2.45-.09-.93-.65-1.48-1.57-1.62-1.2-.14-2.13.37-2.91,1.16-.09.14-.19.37-.32.51,0,0,.05.05.05.09.51-.42,1.06-.79,1.71-.23.6.46.6,1.06.46,1.76h-.05l-.05.05h0ZM54.46,19.63c0-.65-.51-.83-.93-1.2.09-.05.09-.09.19-.09.46-.09.74.19,1.02.51s.51.6.19,1.06v.23c.09,0,.19,0,.23-.05.05,0,.09-.09.19-.09.37-.37.74-.51,1.25-.46.19,0,.46,0,.74-.09-.19-.32-.37-.51-.56-.69-.37-.32-.79-.23-1.2-.14-.37-1.06-1.06-1.53-1.94-1.25-.74.19-1.3.97-1.16,1.57.74-.05,1.39.14,1.94.74h-.05l.09-.05ZM80.55,37.67v.09c.09,0,.19.05.32.09.65.14,1.39.32,2.08.51,1.62.46,3.24,1.02,4.72,1.85.37.19.74.37.83.79,0,.05.23.09.32.09.19-.23.42-.05.56.05l1.94,1.94c.32.32.51.65.74,1.02.05-.09.05-.14.09-.19.32-.32.23-.51,0-.74-.83-.74-1.57-1.71-2.5-2.36-2.64-1.85-5.64-2.68-8.74-3.24h-.37v.09h0ZM104.27,47.47c.23-.23.05-.46,0-.65-.05-.09-.05-.32,0-.42,0-.09.19-.14.32-.09.09,0,.32.14.37.32s0,.37.05.51c0,.09.09.23.14.23.09,0,.19-.05.32-.09.19-.14.37-.32.6-.51-.51-.6-1.25-.83-2.08-.69-1.34.23-2.08,1.2-2.36,2.41-.19.65.09,1.3.51,1.94.05-.19.09-.32.09-.42.09-.51.37-1.02-.19-1.34-.05,0-.05-.32,0-.37.09-.05.32-.09.37-.05.19.09.37.23.51.37.37-.19.14-.37,0-.56-.14-.14-.19-.37,0-.46.09-.05.32,0,.46.05.09,0,.14.14.23.32.23-.19.09-.37,0-.6-.05-.09,0-.32,0-.42h.46c.14.09.23.32.42.51h-.23ZM78.51,19.95v3.38c0,.23.32.56.51.74.42.32.69.05.69-.42v-2.68c0-1.16.23-1.06-1.16-1.06h-.09.05v.05h0ZM87.85,22.87v3.47c0,.19,0,.46.32.46s.32-.19.37-.46v-1.25c0-.19,0-.42.19-.42s.19.23.19.37v1.48c0,.09.19.19.32.37.05-.09.19-.23.19-.37v-3.01c0-.09-.09-.23-.19-.37-.37-.46-.83-.32-1.39-.23h.05l-.05-.05h0ZM53.58,51.5l.09.09c.46-.09.83-.32,1.3-.37,1.16-.19,2.17,0,2.87,1.02.37.56.46,1.16.51,1.8,0,.09.05.23.09.37h.09c0-.14.09-.32.09-.46.09-.83-.09-1.67-.56-2.36-.93-1.48-2.78-1.8-4.07-.74-.19.14-.37.42-.51.6h.05l.05.05h0ZM92.8,41.37c.14.09.32.14.37.19.51,0,1.02.05,1.48,0,.19,0,.46-.19.65-.32-.19-.14-.37-.37-.56-.51-.19-.09-.37-.23-.6-.37v-.09c.56,0,1.11.05,1.62.09v-.09c-.19-.09-.37-.23-.56-.37-.09-.09-.32-.19-.37-.32-.32-.65-.83-.97-1.39-1.3-.09-.05-.23,0-.37,0,0,.09.05.19.09.32.19.19.37.42.56.6s.42.32.6.51c0,0-.05.09-.09.09-.09,0-.19,0-.37-.05-.37-.05-.74-.09-1.11-.14-.09,0-.23.09-.37.09l.32.32c.14.09.37.19.51.32.32.19.6.46,1.02.74-.56.14-1.06-.05-1.57.32h.14v-.05h0ZM61.68,18.84c.19-.19.42-.42.6-.56.09-.05.32,0,.42,0,0,.09,0,.32-.05.42s-.19.14-.23.23c-.05.05-.05.19-.09.32h.32c.14-.05.32-.14.46-.32.32-.19.46-.56.32-1.02-.09-.42-.37-.65-.74-.65s-.23-.05-.37-.19c-.19-.37-.65-.42-.93-.09-.09.09-.14.19-.19.37-.65,0-.93.32-1.02.83,0,.51.32.93.97,1.06-.09-.19-.19-.37-.32-.46-.14-.14-.37-.32-.09-.51.19-.19.42-.05.56.09.09.09.23.32.42.46h.05-.09ZM52.7,58.85c.19-.32.51-.37.79-.32.69.14,1.2.51,1.39,1.2.05.19.14.37.42.23.09-.65-.37-1.57-.97-1.94s-1.39-.37-1.99.14c-.46.37-.83.79-.74,1.53.14-.05.23-.05.37-.09.56-.42.97-.37,1.48.09.19.19.37.14.56,0-.19-.6-.74-.69-1.2-.93h-.05l-.05.09h0ZM103.16,37.95c-.56,0-.79.14-.79.65v4.81h.09c.09-.32.14-.6.37-.83.46-.51.37-1.06.37-1.67v-3.01h0l-.05.05ZM97.66,38.83c.46-.05.6-.23.6-.6v-4.76c0-.09,0-.19-.05-.32,0-.09-.14-.19-.19-.19-.09,0-.19.09-.23.19s0,.19,0,.37v5.37h-.09l-.05-.05ZM90.68,56.82c.19-1.11-1.02-2.68-2.08-2.78-.32,0-.6,0-.83.05v.09c1.16.69,1.85,1.76,2.45,2.87.05.09.14.23.23.37.05,0,.09-.09.14-.09-.19-1.16-.97-1.94-1.62-2.82.37.32.65.65.97,1.02.32.37.51.79.79,1.25h-.09l.05.05h0ZM47.52,24.26c.46.05.65.37.83.74,0,.09.19.23.32.19.19,0,.37-.14.32-.37v-.14c-.19-.74-.93-1.25-1.67-1.2-.83,0-1.48.6-1.57,1.39,0,.09.05.37.14.42.23.09.23-.14.32-.32.09-.32.19-.65.6-.65s.46.32.6.6c0,.09.14.09.23.19.05-.09.14-.19.09-.32,0-.19-.09-.37-.14-.6h-.09v.09ZM99.09,46.41c.93-.6.51-2.41-.37-3.1-.97.6-1.16,2.5-.37,3.05,0-.74-.09-1.48.32-2.17.37.74.37,1.53.42,2.27h0v-.05h0ZM82.49,14.87h.05v3.24c0,.09.09.19.09.32.05-.09.09-.19.19-.37v-6.29c0-.09-.09-.23-.19-.37-.05.09-.14.19-.19.37v3.15h.05v-.05h0ZM66.9,18.84v-.37c0-2.08,0-4.12.05-6.2v-.32c0-.09-.09-.14-.19-.19-.05.05-.14.09-.19.19s0,.19,0,.32v6.24c0,.19,0,.42.32.37h.05l-.05-.05ZM89.8,16.62c-.37-.09-.46-.42-.6-.65-.05-.05-.14-.09-.23-.14,0,.09-.09.19-.09.32.09.23.19.51.42.65.46.32.51.65.46,1.16v2.64c0,.09.09.19.14.32.05-.09.14-.19.19-.32v-.23c.09-1.39-.23-2.82.32-4.16,0-.05-.09-.19-.14-.32-.09.05-.19.09-.23.14-.09.19-.19.46-.32.65h.14l-.05-.05h0ZM87.25,18.43c.69-.14.93-.83.46-1.34-.51-.56-1.57-.51-1.99.09-.32.46-.19.83.23,1.16,0-.19,0-.37.05-.51,0-.09.09-.14.19-.19,0,0,.14.09.19.14.05.14.09.32.19.51.09-.19.19-.42.32-.56s.14-.32.37-.19c.19.09.19.32.09.46,0,.09-.05.19-.09.37h0v.09-.05h0ZM99.74,48.26c1.06.05,2.13-1.57,1.71-3.15-.79.37-1.34.93-1.62,1.76.51,0,.56-.65,1.11-.6-.09.83-.74,1.34-1.16,1.99h-.05,0ZM56.63,21.85s.05.05.09.09c.14-.05.32-.09.46-.14.37-.09.56-.46.6-.79.05-.42-.09-.69-.46-.93-.46-.23-.93-.19-1.3.09-.46.32-.65.65-.65,1.16s.09.14.14.19c0,0,.14-.05.19-.09.09-.09.14-.32.23-.46.23-.37.69-.42,1.02-.09s.19.32,0,.46c-.09.09-.19.32-.37.46h0l.05.05ZM86.14,56.91c.65.32,1.3.51,1.94.83.6.32,1.16.74,1.76,1.11l.09-.09c-.37-.37-.74-.65-1.16-1.06.51.32.93.51,1.34.74-.46-1.16-2.96-1.99-3.98-1.53h-.05.05ZM58.67,42.25c.83-1.02,1.94-1.71,3.1-2.36-.09-.37-.32-.42-.6-.23-.46.23-.93.46-1.3.74-.6.42-1.2.83-1.85,1.3.23.19.46.37.65.51h0v.05ZM58.85,18.71h0v2.54c0,.09.09.19.19.32.05-.09.14-.19.19-.32v-5c0-.09-.09-.37-.19-.37-.23,0-.19.19-.19.37v2.41h0v.05ZM97.89,48.26c-.37-.46-.74-.83-1.06-1.3-.09-.14-.09-.37-.19-.56.19.05.42.09.6.19s.32.23.51.42c-.09-.74-1.06-1.57-1.71-1.62-.32,1.62.93,3.05,1.85,2.87h0ZM80.22,20.37v3.61c0,.09.19.32.32.42.09-.14.19-.32.19-.46v-3.24c0-.42-.05-.46-.51-.37h0v.05h0ZM91.88,56.26c.46-.46.42-1.02.37-1.53v-.83c0-.42-.05-.51-.46-.42-.14,0-.32.09-.42.19-.51.46-.6,1.57-.14,2.13.19-.51,0-1.16.46-1.62.09.37.14.65.14,1.02v1.06h.05,0ZM94.65,50.62l.09.09c-.14.32-.37.65-.51.97l.14.09c.56-.69,1.11-1.39,1.71-2.13-1.2-.09-2.64,1.11-2.45,2.08.37-.37.65-.74,1.02-1.06h0v-.05h0ZM88.55,60.47c-.19-.46-.69-.74-1.3-.74s-1.48.19-1.99.93c.37,0,.65.09,1.02-.05.51-.23,1.11-.32,1.71-.19.19,0,.37.05.6.09h0l-.05-.05h0ZM78.05,19.86c-.23.05-.51-.09-.51.32v2.82c0,.09.14.23.23.37.09-.09.32-.23.32-.42v-3.1h-.05,0ZM51.27,34.62c-.42.32-.6.65-.6,1.06v1.2c0,.56,0,.6.6.79v-3.1h0v.05ZM69.31,38.5s0-.09-.05-.09c-2.08.37-3.93,1.16-5.64,2.41.19.14.37.14.56,0,1.3-.93,2.78-1.62,4.3-2.08.32-.09.56-.19.83-.23h-.05.05ZM53.54,38.59c1.11-1.25,1.76-2.68,1.62-3.24-.83.65-1.57,2.08-1.62,3.24ZM68.34,14.31h0v1.8c0,.09.09.14.19.23.05-.05.14-.14.19-.19v-3.52c0-.09-.14-.23-.19-.37-.05.09-.19.23-.19.37v1.67h0ZM81.24,14.36h0v-1.67c0-.09-.09-.23-.19-.42-.05.09-.14.23-.19.37v3.52s.09.09.14.19c.05-.05.14-.09.19-.19s0-.23,0-.37v-1.57h0v.09l.05.05h0ZM55.02,39.57c.74-.42,1.57-.65,1.94-1.57-1.16.09-2.41,1.02-2.68,1.76.32-.19.56-.32.83-.46h0c-.05.09-.09.14-.14.23h0l.05.05ZM54.32,52.24c.56,0,1.16-.09,1.67,0s1.02.46,1.53.65c.05-.42-.51-.97-1.2-1.16s-1.71,0-1.94.51h-.05ZM80.92,58.57c0-.42,0-.74.05-1.16,0-.05,0-.19-.09-.19-.37-.19-.74-.37-1.16-.56,0,.09,0,.14-.05.19,0,.19-.05.37-.09.51-.05.51,0,.6.51.65.05-.19.09-.37.14-.56h.09c0,.23.05.51.05.74s.09.42.46.37h.09,0ZM91.55,45.25c.23-.19.32-.42,0-.6-.09-.09-.14-.19-.19-.32-.51-.83-1.16-1.57-1.9-2.22-.05-.05-.19,0-.32-.05,0,.09,0,.23.09.32.46.51.93,1.02,1.34,1.57.37.46.6.93.97,1.34h0v-.05ZM95.76,23.93c.74-.83,1.62-1.02,2.45-.09.14-.32.05-.56-.32-.83-.51-.46-1.3-.42-1.85.09-.37.32-.46.6-.32.93h0l.05-.09h0ZM53.17,57.23c-.32-.09-.51-.09-.79,0-.19.09-.42.09-.6.09-.42,0-.74,0-1.16.05-.37.05-.65.19-.79.6h.32c.51,0,1.02,0,1.57-.05h.19c.46-.23.93-.51,1.39-.74h-.09l-.05.05ZM54.04,20.79c.32-.19.19-.51-.14-.93-.51-.56-1.48-.69-1.9-.32.19.23.46.46.6.65.65-.37.74-.32,1.48.51h0l-.05.09ZM105.62,49.46c-.51-.42-1.53-.14-2.08.37-.42.37-.69.74-.6,1.39.65-.93,1.57-1.48,2.68-1.71h0v-.05ZM96.78,57.37c1.02-.46,2.08-.46,3.24-.32-.19-.51-.6-.6-1.02-.6-.83,0-1.71,0-2.22.83h0v.09ZM54.69,53.21c.32.09.46.14.65.19.6.19,1.2.46,1.57,1.06.05.09.23.09.42.14,0-1.16-1.48-1.99-2.54-1.39h-.09ZM93.17,47.94c-.46.65-.56,1.34-.32,2.13.09-.32.19-.65.32-.97h.09v1.2c.56-.6.51-1.71-.09-2.36h0ZM65.38,17.46v-1.39c0-.09-.09-.23-.19-.37-.05.09-.19.23-.19.37v1.62c0,.09,0,.23.09.32.32.14.6.32.93.46.06-.49-.14-.8-.6-.93h0l-.05-.09ZM45.44,51.59h.09c0-.09.05-.19.05-.32-.09-.6-.46-1.06-1.06-1.2-.37-.09-.65-.14-.97-.46s-.6-.23-.74-.09c.32.32.65.56.97.83h.23c.56-.05.93.19,1.16.65.09.14.19.37.23.51h0l.05.09ZM99.51,57.74c-.79-.46-2.36-.14-2.87.46-.05.05-.05.19-.09.32,0,0,.05,0,.09.05.65-.46,1.39-.6,2.22-.6s.37-.09.6-.19h.05v-.05h0ZM88.04,58.71c-.6-.37-1.2-.32-1.76-.09-.51.19-.79.51-.79.83.83-.23,1.67-.46,2.54-.74ZM51.96,44.7c.23-.74-.51-1.8-1.39-2.08,0,1.3,1.16,1.67,1.39,2.08ZM69.59,61.67c.46-.19.51-.46.19-1.16-.37.14-.69.32-1.06.51-.05,0-.09.09-.09.19,0,.46.09.83.09,1.2h.09c.05-.09.14-.19.14-.32v-.65c0-.37.09-.46.46-.46,0,.19.05.37.09.56h0v.09l.09.05h0ZM53.44,43.45c-.23.19-.46.42-.65.6.56.56,0,1.06,0,1.57.74-.37,1.06-1.34.65-2.17h0ZM103.49,49.09c.79-.65,1.67-.74,2.54-.83-.6-.42-1.2-.46-1.85-.09-.37.19-.65.42-.69.93h0ZM43.59,43.64c.09-.32,0-.65-.37-.97-.46-.42-1.16-.6-1.53-.42.6.46,1.2.93,1.85,1.34h0l.05.05ZM92.25,51.91c0-.56-.83-1.3-1.57-1.3s-.19.19-.19.19c.14.42.42.69.83.83-.09-.19-.19-.37-.32-.51h0c.37.23.74.51,1.11.74h.09l.05.05h0ZM86.74,62.78c-.32-.65-1.57-1.2-2.17-1.06-.05,0-.09.09-.09.09,0,.05.05.09.09.14.69.23,1.39.51,2.17.74h0v.09ZM62.18,57.7c-.19-.6-.6-.83-1.16-1.02-.32-.05-.6-.09-.83.23.19.05.37.09.51.19.32.14.65.32.93.51.19.19.37.19.6.05h0l-.05.05ZM51.87,20.28c-.32.32-.37,2.27,0,2.64.32-.37.37-2.27,0-2.64ZM78.28,15.28h0v.74c0,.09.09.23.19.37.05-.09.19-.19.19-.37v-1.67c0-.09-.09-.19-.19-.32-.09.09-.19.19-.19.32v.93h0ZM40.68,43.08v.09c.6.23,1.16.51,1.71.69.05,0,.19,0,.19-.05,0-.09,0-.19-.05-.32-.46-.42-.93-.65-1.53-.65s-.19.09-.37.14h0l.05.09ZM56.96,41.09v.09c.19.05.46.19.51.14.46-.23.83-.56,1.3-.83.05,0,.05-.19,0-.32,0,0-.19-.09-.23-.05-.56.32-1.11.6-1.62.93h.05v.05ZM52.98,48.63c-.23,0-.42.05-.56.05-.23,0-.46-.05-.69-.05s-.19.09-.32.14c.05.09.09.19.19.23.51.14,1.02.32,1.53.42l.09-.09c-.09-.23-.19-.51-.23-.69h0ZM91.92,19.54c-.05-.37-.32-.51-.65-.46-.51.09-.65.46-.51,1.06h1.06c-.09-.42-.46-.23-.65-.42.09-.46.51-.19.74-.23h0v.05h0ZM51.08,23.01c0-.09.05-.14.05-.19,0-.56-1.11-1.39-1.67-1.25-.05,0-.09.09-.19.14.05.05.09.09.14.14.37.23.69.51,1.06.74.19.09.37.32.51.46h.09v-.05ZM55.52,36.56c-.19.6-.46,1.16-.65,1.71.51-.32,1.16-.46,1.06-1.2,0-.19,0-.46-.37-.51h-.05ZM54.55,21.71c-.65-.19-1.06.05-1.48.37-.32.19-.51.51-.51.93.65-.46,1.25-.83,1.94-1.3h.05ZM42.48,44.47h-.09c-.46.14-.83.32-1.2.46-.05,0-.09.19-.09.32.09,0,.19.09.32.05.51-.09,1.02-.23,1.48-.42.09,0,.14-.14.19-.19-.09-.05-.19-.09-.32-.14h-.23l-.05-.09ZM42.2,46.6c.37-.09,1.3-1.34,1.2-1.67-.6.09-1.2.97-1.2,1.67ZM43.22,40.03c-.23-.19-.37-.19-.65-.05-.56.32-1.02.93-.97,1.25.51-.42,1.06-.79,1.62-1.16h0v-.05ZM98.49,52.61c-.19-.46-.83-.69-1.2-.46-.19.09-.23.32,0,.37.42.19.83.32,1.25.09h-.05,0ZM60.33,41.55s-.05-.09-.09-.09c-.56.32-.97.74-1.48,1.16.09.14.14.32.23.46.46-.51.93-1.02,1.3-1.48h0l.05-.05ZM55.02,46.27c-.6,0-1.34.37-1.48.83.19-.09,1.2.19,1.48-.83ZM60.52,51.87v.14c.51.09,1.06.23,1.62.37.05,0,.14-.09.32-.23-.6-.14-1.06-.32-1.57-.42-.09,0-.23.09-.37.19h0v-.05ZM44.19,25.04s-.14-.09-.23-.09c-.42,0-1.06.69-1.02,1.06,0,.05.05.14.09.14s.14,0,.19-.05c.32-.37.6-.69.97-1.06ZM105.06,44.7l.09.09c.46-.19.93-.46,1.39-.65.05,0,.05-.19.09-.32-.09,0-.19-.05-.32,0-.37.19-.69.46-1.06.65-.09.05-.14.19-.19.32h0v-.09h0ZM103.72,42.99c-.19.19-.37.42-.51.6.46.19.83.42,1.3.6l.09-.09c-.32-.37-.51-.69-.83-1.16h-.05v.05h0ZM48.26,56.82h1.06c-.09-.46-.32-.65-.6-.65s-.51.32-.51.65h.05ZM42.34,41.42l.09.09c.46-.19.83-.37,1.25-.56.09,0,.09-.14.19-.23-.09-.05-.23-.19-.32-.14-.32.09-.56.23-.79.46-.14.09-.32.32-.42.46h-.05l.05-.09ZM49.28,54.83h1.71c-.37-.42-.74-.46-1.16-.42-.23,0-.51.05-.6.42h.05ZM61.12,51.04v.19c.46.09.93.19,1.34.32.05,0,.14-.09.23-.14-.05-.05-.09-.14-.19-.19-.37-.09-.65-.14-1.02-.19-.09,0-.32.05-.42.09h0l.05-.09ZM106.22,43.22c-.42-.42-.46-.42-.74,0-.09.14-.23.32-.37.46-.05.09-.09.23-.09.37,0,0,.05,0,.09.05.37-.32.74-.51,1.16-.79h-.05v-.09h0ZM56.45,57.74c-.09-.09-.14-.23-.32-.32-.05,0-.19.09-.32.23-.05.19-.09.42-.09.6s.09.19.19.32c0,0,.19-.09.23-.14.09-.19.14-.46.23-.65h0l.09-.05ZM47.71,53.76c-.19-.37-.51-.42-.83-.37-.23,0-.46.14-.56.46.51,0,.97.19,1.39-.09ZM104.51,44.93s0-.09.05-.14c-.37-.32-.83-.46-1.3-.6,0,0-.14.09-.14.14,0,.09.05.23.09.23.46.09.83.19,1.3.37h0ZM83.74,17.27s.05,0,.09.05c.09-.09.32-.19.32-.32v-.93c0-.32-.09-.14-.19-.19-.05.09-.19.14-.19.23v1.16h-.05ZM84.94,17.78c-.37,0-.69,0-1.02.09-.05,0-.09.14-.19.23.05.05.14.14.19.14.37,0,.65,0,1.02-.05v-.46h0v.05ZM49.93,56.08h1.62c-.14-.32-.42-.37-.65-.37s-.65,0-.97.37ZM61.58,53.07v-.14c-.46-.09-.97-.23-1.39-.37-.05,0-.14.05-.19.09,0,.05.05.14.09.19.42.09.79.23,1.2.37.09,0,.19-.05.32-.09h0l-.05-.05ZM52.66,56.26c.6.19,1.02,0,1.02-.51s0-.19-.09-.23h-.19l-.69.69h0l-.05.05ZM107.19,44.93v-.14c-.09-.05-.23-.19-.32-.14-.51.19-1.02.46-1.53.65v.09c.6-.14,1.16-.32,1.71-.46h.14ZM88.87,64.36l.09.09c.37-.23.69-.51,1.06-.74v-.19s-.14-.09-.19-.05c-.42.19-.79.51-1.02.97h.05v-.09h0ZM52.24,50.25c.42.05.74.09,1.16.14.05-.37,0-.51-.37-.51h-.69c0,.09-.05.19-.09.37h0ZM105.66,40.72v.46c.42.19.79.37,1.2.56,0-.05.05-.09.09-.14-.32-.42-.83-.51-1.3-.83h0v-.05ZM46.6,34.8c.23,0,1.06-.56,1.06-.74s-.19-.19-.23-.19c-.37.19-.65.46-.79.93h-.05ZM42.85,34.85c0-.09,0-.14-.05-.19-.23-.23-.46-.51-.69-.74s-.19,0-.19.05-.05.19,0,.23c.19.19.46.46.69.65h.32-.09ZM39.01,32.4c-.05-.37-.14-.46-.83-.37-.19,0-.46,0-.37.37h1.2ZM40.4,38.87c.32.32.51.6.74.83,0-.32.05-.6.09-.93-.32,0-.56,0-.93.05h.05l.05.05ZM107.23,39.7c-.14-.14-.32-.32-.42-.46-.32.19-.19.37.37.79.51-.42.6-.51.46-.74-.09.14-.23.32-.42.46h0v-.05h0ZM107,40.95c0-.37-.56-.97-.74-.97s-.14.05-.19.09c0,.05,0,.19.05.23.32.19.56.37.93.6h0l-.05.05ZM105.25,42.62s-.09-.05-.09-.09c-.05.05-.14.09-.19.19-.19.23-.37.23-.51,0-.05-.09-.19-.09-.32-.19l-.09.09c.19.23.37.51.6.74.19-.32.42-.56.6-.79h0v.05h0ZM41.74,38.92c0,.42-.05.69-.09,1.06.23-.32.46-.51.65-.74-.09-.05-.32-.19-.56-.37h0v.05ZM107.56,41.69c.65-.05,1.2-.46,1.06-.79-.37.23-.79.37-1.06.79ZM107.51,40.91c.23-.19.51-.37.74-.51,0,0,.05-.14,0-.23,0-.05-.09-.09-.19-.09-.19,0-.6.56-.56.83h0ZM45.72,54.92c.23.05.51.09.69.09s.19-.05.19-.09,0-.19-.05-.23c-.32-.32-.65-.19-.83.19h0v.05ZM49.28,20.6c-.46-.19-.83-.14-1.02.09v.19s.09.05.19.05c.32-.09.51-.23.83-.42h-.05l.05.09ZM48.77,19.86c-.23-.23-.74-.23-.93,0v.19s.14.09.19.05c.19-.05.46-.09.69-.19h0l.05-.05ZM105.48,41.79v.09c.19.32.83.51,1.2.37-.46-.19-.83-.37-1.2-.51h0v.05ZM103.86,45.39h0c-.32-.09-.6-.19-.93-.23v.51c.32-.09.6-.19.93-.32h0v.05ZM47.29,55.57c.19,0,.42,0,.6-.05.05,0,.14-.09.14-.19s-.09-.14-.19-.14c-.23-.05-.51.09-.56.46h0v-.09ZM107.23,46.04c-.14-.51-.32-.51-1.06-.23.42.09.69.14,1.06.23ZM106.59,47.71c-.09-.19-.19-.46-.37-.74-.19.42-.05.65.37.74ZM51.27,50.34c.19-.09.32-.09.37-.19.05-.14.05-.37.09-.51-.09,0-.32,0-.32.05-.05.14-.09.37-.14.65h0ZM38.41,33.27v-.09c-.09-.05-.23-.09-.37-.09s-.14.09-.19.19c.09.05.19.19.37.19s.14-.09.23-.14h-.05v-.05ZM71.57,38.09v-.09c-.42.05-.83,0-1.2.19v.09c.42-.05.79-.09,1.2-.19ZM60.24,53.76v-.09c-.19-.09-.37-.14-.56-.19-.05,0-.09,0-.19.05,0,.05.05.19.09.19.19.05.42.05.6.09h.05v-.05ZM53.95,26.38c.19.14.37.32.51.46v-.56c-.14.05-.32.09-.51.14h0v-.05ZM50.16,43.73c-.09.09-.19.14-.42.32.19.09.37.14.6.23-.09-.19-.14-.37-.19-.51h0v-.05ZM77.91,37.95v.09h.74s0-.05,0-.05c-.23,0-.51,0-.74-.05h0Z"/>
      <path class="cls-1" d="M108.95,22.04s-.19-.05-.19-.09c-.32-.6-.74-.69-1.3-.74h-.32c.46-.74,1.2-1.8,1.85-1.25.51.46.6,1.76,0,2.13h-.05v-.05Z"/>
      <path class="cls-1" d="M90.07,8.53c.14-.46.56-.65.97-.51.19.09.37.05.51-.09.32-.23.65-.32.93-.09.05,0,.09.09.09.14s-.09.09-.14.09c-.42,0-.74.05-.93.51,0,0-.19.05-.19,0-.32-.37-.65-.32-1.06-.09h-.19.05l-.05.05h0Z"/>
      <path class="cls-1" d="M96.46,8.58c-.19.05-.32.09-.42.09-.32.05-.51.19-.6.51,0,.05-.19.19-.19.19-.37-.23-.74-.19-1.16,0,0-.37.23-.6.65-.56.32,0,.46,0,.65-.19.32-.32.74-.32,1.06,0h0v-.05Z"/>
      <path class="cls-1" d="M39.43,28.37c-.37,0-.6-.19-.6-.46s.19-.46.51-.46.69.32.65.56c-.05.37-.42.32-.6.37h.05Z"/>
      <path class="cls-1" d="M76.2,37.21v7.68c0,.09-.05.32-.09.37-.19.09-.37,0-.37-.32v-15.45c.09-.09.14-.37.23-.37.23,0,.23.19.23.37v7.68h-.05l.05.05Z"/>
      <path class="cls-1" d="M73.7,37.72v7.35c0,.09-.14.19-.23.19s-.19-.09-.19-.19v-14.75c0-.09.14-.19.23-.19s.14.09.19.19v7.35h0v.05Z"/>
      <path class="cls-1" d="M80.59,62.55c.14-.42.32-.74.42-1.06,0-.05.14-.09.19-.19.05.09.14.19.14.32-.05.46-.09.93-.19,1.39.37-.19.51-.74,1.06-.74-.09.37-.14.6-.19.93.09,0,.19.05.32.09-.19.37-.42.65-.6,1.02-.09.19-.32.32-.51.09-.65-.42-1.3-.6-2.08-.37-.09,0-.19,0-.32-.09s-.37-.19-.46-.37c-.09-.09-.09-.32-.19-.42.14,0,.32-.09.46-.05.19.05.46.19.74.37-.05-.19-.09-.32-.14-.37-.09-.14-.19-.32-.32-.46s-.32-.37,0-.51c.09-.05.37.09.46.19s.19.23.32.37.14.19.32.23c-.05-.32-.14-.65-.19-.97,0-.19-.09-.37-.09-.51s.09-.19.14-.32c.09.05.23.09.32.19.14.37.23.65.37,1.02,0,.05,0,.09.09.19h0s0-.05,0-.05l-.09.09h0Z"/>
      <path class="cls-1" d="M74.44,38.09v-5.46c0-.09.14-.19.19-.32.05.09.14.14.19.23v11.01c0,.09-.14.19-.19.19-.09,0-.19-.09-.19-.19v-5.46h0Z"/>
      <path class="cls-1" d="M74.67,47.94c-.93-.09-1.99-.19-3.05-.37h-.09c-.09-.09-.37-.19-.37-.32,0-.32.23-.19.46-.19,1.2.09,2.41.19,3.65.32.6,0,1.16-.05,1.71-.05s.23.09.42.19c-.09.09-.19.32-.37.32-.69.09-1.39.09-2.31.19h0v-.09h-.05,0Z"/>
      <path class="cls-1" d="M70,48.77c-1.16-.37-1.71-.6-2.5-1.02-.6-.32-1.11-.69-1.62-1.11-.19-.14-.46-.42-.19-.65.23-.19.46.05.6.19.93.93,2.08,1.39,3.28,1.76.19.05.46.09.65.19.09,0,.19.19.14.32,0,.09-.14.32-.32.23h-.05v.09Z"/>
      <path class="cls-1" d="M82.3,45.12c0,.42-.32.79-.6,1.16-.51.51-1.2.79-1.85,1.02-.09,0-.32-.09-.46-.14.09-.09.14-.32.32-.37.42-.19.83-.37,1.2-.6.79-.51.93-1.16.46-1.94-.05-.09,0-.19,0-.32h.37c.37.14.65.74.65,1.25h-.05l-.05-.05h0Z"/>
      <path class="cls-1" d="M75.97,61.72c-.32-.05-.6-.09-.93-.19-.46-.14-.51-.6-.09-.93.51-.42,1.57-.37,1.99.05.32.32.32.65-.09.83-.32.09-.6.14-.83.19h-.05v.05h0Z"/>
      <path class="cls-1" d="M79.25,49.65s.14-.05.19,0c.09,0,.19.09.23.14-.05.09-.09.19-.19.19-.37.09-.65.14-1.02.19-1.39.23-2.82.32-4.16.19-.09,0-.37-.05-.37-.19s.23-.19.42-.19h1.39s2.36-.19,3.47-.37l.05.05Z"/>
      <path class="cls-1" d="M71.81,50.25c-1.48-.23-2.87-.56-4.16-1.06-.46-.19-.83-.37-1.25-.6-.09-.05-.32-.19-.19-.37s.32-.05.42,0c1.57.83,3.24,1.25,4.95,1.57.09,0,.19,0,.32.05s.32.09.32.19-.19.09-.23.14h-.05l-.14.09h0Z"/>
      <path class="cls-1" d="M74.95,26.8v1.62c0,.09-.09.23-.19.37-.09-.09-.23-.23-.23-.37v-3.28c0-.09.14-.19.19-.37.05.09.19.19.19.37v1.67h.05Z"/>
      <path class="cls-1" d="M73.7,25.69v1.02c0,.09-.14.19-.19.32-.09-.09-.23-.19-.23-.32v-1.99c0-.09.14-.19.19-.32.09.09.19.19.23.37v.97h0v-.05Z"/>
      <path class="cls-1" d="M67.18,44.84c.09-.32.19-.6.37-.83.05-.09.32-.19.46-.09.23.09.09.23,0,.42-.19.37-.19.69-.05,1.06.05.19.09.37-.09.46-.09,0-.32-.09-.37-.19-.09-.19-.14-.46-.23-.74h-.05l-.05-.09Z"/>
      <path class="cls-1" d="M69.82,47.24c-.51-.23-.97-.51-1.39-.74-.09-.05-.05-.23-.09-.42.09,0,.32-.09.37-.05.46.19.83.46,1.3.65.05,0,.14.19.09.32,0,.09-.14.14-.32.23h.05,0Z"/>
      <path class="cls-1" d="M75.69,26.71v-.74c0-.09.14-.19.23-.32.05.09.19.19.19.32v1.53c0,.09-.14.19-.19.37-.09-.09-.19-.19-.23-.37v-.79Z"/>
      <path class="cls-1" d="M76.15,22.04v.74c0,.09-.09.19-.19.32-.09-.09-.23-.19-.23-.32v-1.53c0-.09.14-.19.23-.32.05.09.19.19.19.32v.74h0v.05Z"/>
      <path class="cls-1" d="M73.7,22.82v.51c0,.09-.09.19-.19.19s-.19-.09-.19-.14v-1.11s.14-.14.23-.14.14.09.19.19v.51h-.05Z"/>
      <path class="cls-1" d="M74.9,20.88c-.23.09-.42.05-.42-.19v-1.02c0-.09.14-.19.19-.32.05.09.19.19.19.32v1.16h0l.05.05Z"/>
      <path class="cls-1" d="M73.7,19.91v.32c0,.09-.14.19-.19.23-.09-.09-.19-.14-.19-.23v-.65c0-.09.14-.19.23-.23.05.09.14.19.19.32v.32h-.05v-.09Z"/>
      <path class="cls-1" d="M76.2,19.95c-.09.14-.19.46-.32.46-.37,0-.23-.32-.19-.51,0-.19.09-.46.19-.46.37,0,.19.32.32.56h0v-.05Z"/>
      <path class="cls-1" d="M75,45.3c-.32,0-.56.09-.51-.23,0-.19-.14-.56.19-.51.46.05.09.46.32.74h0Z"/>
      <path class="cls-1" d="M56.87,35.5c.14.09.23.14.32.19.42.37.65.32,1.11,0,.37-.23.74-.42,1.2-.6.09-.05.32-.09.46,0,.19.05.37.19.51.37-.14.09-.32.19-.46.23-.6.14-1.16.37-1.71.74-.23.19-.65.23-1.02.37-.05,0-.19,0-.19-.05-.19-.37-.32-.74-.23-1.25h.05-.05Z"/>
      <path class="cls-1" d="M53.63,35.03c0-.19-.09-.46-.09-.65v-2.54s.14-.14.23-.14.09.09.19.14v2.78c0,.14-.09.37-.14.51h-.19v-.09Z"/>
      <path class="cls-1" d="M53.86,14.96c-.79.32-1.57.65-2.13,1.48,0-.93,1.39-1.85,2.13-1.48Z"/>
      <path class="cls-1" d="M95.35,28.65c.69-.32,1.34-.09,1.9.51-.09.23-.23.32-.46.09-.42-.37-.93-.51-1.39-.6h-.05Z"/>
      <path class="cls-1" d="M96.87,28c.46-.19.93,0,1.3.51-.14.19-.32.19-.51.05-.23-.19-.51-.37-.79-.6h0v.05Z"/>
      <path class="cls-1" d="M106.45,26.98v6.15c-.65-.37-1.2-.69-1.94-.6v-3.24s0-.14.09-.19c.6-.65,1.2-1.39,1.85-2.13h0Z"/>
      <path class="cls-1" d="M51.36,45.95c-.6.05-1.2.19-1.8.19s-.32-.19-.46-.37c.09-.09.23-.32.37-.32.65-.05,1.3-.19,1.85.37,0,0,.05.05.05.09h0v.05Z"/>
      <path class="cls-1" d="M60.61,50.16c-.32-.6-.14-1.34.37-1.62v1.3c0,.09-.19.19-.32.32h-.05Z"/>
    </g>
  </g>
  <g>
    <g>
      <path class="cls-2" d="M39.75,83c.37.6.65,1.06,1.06,1.53.14.19.37.46.51.6.32.32.6.6.93.83.14.19.37.37.6.51,1.3.83,3.15,1.94,4.81,1.67.19.05.37.09.6.09,1.53,0,3.05-.09,4.53-.6.19-.05.42-.14.6-.32,1.76,1.3,4.76.65,6.85.65s2.17,0,3.05-.46c.19.09.46.14.6.19.65.09,1.3.19,1.99.14.19,0,.46-.05.6-.09h0c-.37.09.69.09.65.09.37,0,.6-.09.93-.19.83-.32,1.57-.93,1.8-1.85,0-.14.05-.32.09-.51.09.05.19.09.32.09.09.42.37.74.6,1.02.65.69,1.53,1.39,2.5,1.39s1.71-.37,2.27-1.06c.19-.23.19-.37.37-.6.37.37.74.6,1.2.83.19.09.42.19.6.19.19.14.46.23.65.37,1.71.65,3.28.42,5,.09.14,0,.32-.05.42-.14.19,0,.46-.09.6-.19.74-.42,1.53-.97,2.17-1.62.32,1.3,1.3,1.99,2.82,2.13.14,0,.37,0,.51-.05.09,0,.23,0,.46.05h1.3c.93,0,1.76,0,2.54-.32h0c.46.19.93.37,1.39.37h3.84c.37,0,.05,0,.09,0h.37c1.99,0,4.39.19,5.27-1.99.74-1.85,1.39-3.98-.65-5.27-.05-.05-.14-.09-.19-.09,0-.32,0-.6.09-.93v-.09c.65-.69,1.02-1.62,1.02-2.73,0-1.76-1.8-3.24-3.52-3.24h-4.07c-.74,0-1.48,0-2.17.05-1.02-.19-2.17,0-3.1,0s-2.36-.09-3.52-.09-2.68-.09-3.61.93c-.46-.32-.93-.51-1.48-.69-2.31-.83-5.04-.51-7.03.83-.6-.74-1.57-1.06-2.64-1.16h-.56c-1.16,0-2.64-.09-3.52.51-.51.37-.83.74-1.06,1.2l-.32-.32-.46-.46s-.05,0-.14-.09c-.65-.51-1.34-.93-2.22-.93s-.46,0-.65.09h-.09c-.65,0-1.34.14-1.94.46-.09-.05-.19-.09-.32-.09-.83-.37-2.13-.32-3.28-.32s-1.62-.05-2.5-.09v-.23c0-.46,0-.93-.05-1.34,0-.05-.05-.42-.09-.6,0,.19-.09-.74-.14-.83-.05-.19-.14-.46-.23-.65-.09-1.57-.6-2.82-2.27-3.33-1.76-.6-3.61-.46-5.41-.23-1.94.19-4.02.65-5.69,1.76-.32.19-.51.42-.74.6-.09.05-.23.14-.37.23-.42.37-.74.65-1.06,1.06-.09.09-.19.14-.32.32-1.99,2.27-2.78,5.46-2.54,8.46.09,1.57.83,2.96,1.57,4.26v.09l-.14.09-.09.05h0ZM89.7,80.31,89.8,79.62h0Z"/>
      <path class="cls-2" d="M68.15,74.39s.09,0,.19.14c0,0-.23-.32-.19-.14Z"/>
      <path class="cls-2" d="M49.97,89.05c.32,0,.42-.09,0,0h0Z"/>
      <path class="cls-2" d="M129.9,96.09c-.05-.46-.32-.93-.74-1.3h0c.09-.37.19-.74.19-1.16s-.05-.74-.05-.56v-.37c0-.93-.09-1.71-.74-2.36-.79-.93-2.17-1.57-3.42-1.3-.51-.09-1.02-.14-1.53-.14-1.57-.09-3.28.19-4.53,1.06-.6-.74-1.57-1.06-2.54-1.16-.32,0-.56,0-.79.09h-1.62c-1.02,0-1.9.42-2.45,1.25-.09.09-.14.23-.19.42-1.16-1.2-2.27-1.8-4.16-1.62-.37,0-.65.09-1.02.23-.74-.37-1.62-.42-2.45-.37-1.53.05-3.28-.23-4.44,1.02-.32.37-.51.65-.65,1.02-.65-.65-1.39-1.16-2.36-1.48-.14-.05-.37-.09-.51-.09s-.14-.05-.19-.05c-1.62-.37-3.28-.32-5-.32s-.37,0-.51.05c-.19,0-.42,0-.6.09-.05,0-.09,0-.19.05-.42-.23-.93-.37-1.48-.23-1.16,0-2.41-.05-3.38.46-.19-.09-.37-.14-.51-.19-.32-.09-.6-.09-.93-.14h-3.7c-.09,0-.19,0-.37.05-1.06-.37-2.27-.05-3.42-.05s0,0,0,0h-.37c-1.34,0-2.73-.09-4.07-.05-.46,0-.83.09-1.16.19-.37-.09-.74-.14-1.16-.14h-2.45c-.51,0-1.06.09-1.53.37-.51.32-.83.74-1.11,1.2-.6-.69-1.3-1.34-2.27-1.62-.93-.19-2.17-.09-3.1.23h-.05c-.32-.09-.65-.19-1.02-.19-.23-.05-.51-.09-.74-.09h-1.16c-.23,0-.42,0-.56.09-.46-.05-.83-.05-1.3,0h-.05c-.19,0-.37-.05-.56-.05h-1.94c-.51,0-.93,0-1.34.19h0l.14-.09s.09,0,.14-.05h0c-.32,0-1.02,0-.32,0h-.37c-.51-.09-1.16-.09-1.67-.05-.6.05-1.16.32-1.62.65-.69-.65-1.71-.74-2.78-.56-.19-.05-.42-.05-.6-.05h-.23c-.69,0-1.48,0-2.13.32-.32.09-.56.32-.79.51-.83-.46-1.8-.74-2.87-.83-1.34-.09-2.68.09-3.84.09s-.32-.05-.51-.05c-.37,0-.69-.09-1.06-.05-.74.05-1.48.37-1.94.83-.19-.56-.46-1.16-.65-1.67-.09-.23-.23-.51-.37-.74-.05-.14-.14-.32-.19-.46,0,.05.19.23.09,0-.09-.46-.32-.93-.51-1.34,0-.09-.09-.19-.14-.32v-.37c.23-2.82-2.36-3.98-4.63-2.73-1.99,1.06-2.08,2.87-2.96,4.67-1.02,1.99-1.48,4.3-2.36,6.38-.46,1.02-.79,1.99-1.16,3.05-.09.37-.23.69-.37,1.06-.37.19-1.02.65-1.06.74-.46.46-.74.83-.93,1.53-.32,1.34.46,2.73,1.76,3.1,1.06.32,2.27.19,3.33.09.65-.05,1.9.23,2.82,0,.79-.23,1.39-.93,1.71-1.62.19.37.46.65.83.93,1.25.83,2.22.93,3.65.93h6.57c1.48,0,0,0,0,0,1.16.14,2.54-.09,3.65-.51.09,0,.19-.09.32-.09.32-.05.6-.14.93-.37.09-.05.19-.14.32-.19,1.06-.56,1.85-1.48,2.41-2.45.09.19.19.46.32.65.32.65.51,1.57,1.06,2.13,1.25,1.39,3.1,1.2,4.26,0,.19.19.46.42.65.51,1.16.65,2.73.37,3.93.32,1.62-.05,3.93.42,5.55-.42.19.09.46.14.6.19.65.09,1.3.19,1.94.14.14,0,.32,0,.46-.05.19,0,.37.05.51.05.6,0,1.16-.14,1.71-.46.6-.37,1.11-.93,1.2-1.62h0c.09.05.14.14.14.09.09.14.32.32.46.46.51.6,1.16,1.25,1.94,1.39.32.05.56.05.83.05h.79c.09,0,.19-.05.32-.09.09,0,.14-.05.23-.09.14-.09.32-.23.46-.37h0c.14-.09.32-.32.37-.46h0c.46.79,1.3,1.25,2.45,1.3.14,0,.32,0,.46-.05.09,0,.19,0,.42.05h.56c1.16,0,2.64.19,3.61-.46.69-.46,1.16-1.16,1.3-1.9.69,1.16,1.85,1.99,3.47,2.41,1.94.51,3.98,0,5.41-1.06.69.79,1.8,1.02,2.87,1.02h2.17c.93,0,1.67-.32,2.41-.83h.05c1.16.93,2.91,1.16,4.3.6.32.14.6.23.97.32h.83c.37,0,.74-.09,1.16-.32.14,0,.32,0,.46.05h.19c.97.09,2.13.09,2.96-.32.42.32.83.51,1.39.51s.19,0,.32,0,1.06-.14.51-.05c-.42.05-.05,0,0,0h.56c.19.05.42.05.6,0,.42-.05.6-.09,1.02-.37.69-.37,1.2-.97,1.48-1.71v-.14c1.25,1.39,2.68,2.96,4.72,1.71.46-.23.69-.6.93-1.02.79.65,1.76,1.16,2.87,1.48,1.2.37,2.64.46,3.89.37.46,0,.74-.09,1.16-.32h.09c.32-.09.6-.19.93-.32.65-.32,1.2-.6,1.62-1.16,0-.05.19-.37.32-.56.09-.19.23-.42.32-.46.23-.51.37-1.16.32-1.76.14-.19.32-.46.42-.6.37-.6.42-1.34.14-1.99h.23l-.09-.23v.05h0ZM125.41,93.82,124.76,94.1,126.75,91.09,16.4,97.43,23.75,99.28c-.32-.69-.83-1.16-1.48-1.48,0-.19.09-.37.09-.56h2.13c.09.19.19.46.37.74-.09.05-.14.09-.23.14-.42.32-.69.65-.93,1.06h.05v.09h0Z"/>
    </g>
    <g>
      <path class="cls-3" d="M62.51,83.04h-.19c-.09,0-.37.32-.74.79s-.93.83-1.62,1.02h-.05s-.74.05-.74.05c-.79,0-1.3-.09-1.53-.23s-.32-.65-.32-1.48v-.37c0-.09,0-.19-.05-.46-.05-.19-.05-.37-.05-.46s0-.14.05-.32.05-.32.05-.32c.09-.09.23-.09.42-.09h1.34c.32,0,.6.09.83.32h.19c.09.19.19.42.32.65,0,0,.05.09.14.19s.19.19.23.19c.19,0,.32-.19.32-.51v-1.9c0-.37.05-.65.14-.83-.14-.19-.37-.32-.51-.32h-.14c-.09.19-.19.37-.19.46-.19.19-.32.37-.42.51-.23.14-.65.23-1.16.19h-1.39v-.19h0c-.37.14-.79.37-1.06.42-.14,0-.46.19-.83.37v.51c0,.14,0,.32-.05.56s-.05.46-.05.6,0,.51.05.93c0,.46.05.74.05.97v.09c-.05.23-.09.37-.19.42-.42.19-.74.32-1.02.42-.09.14-.19.32-.32.46.09.32.32.46.56.46h6.48c.19,0,.51-.09.93-.32.46-1.11.69-1.85.69-2.17s-.09-.32-.37-.46h0l.14-.09h.05ZM43.41,73.84v-2.96c-.19.19-.42.37-.56.46-.32.37-.51.6-.65.74.51.69,1.2,1.8,1.2,1.71h0v.05h0ZM46.88,84.01c-.32-.19-.51-.37-.65-.46-.19-.14-.37-.32-.46-.42-.46-.37-.79-.65-1.02-.93-.32-.37-.51-.65-.74-1.02h-.09c-.37.09-.69.14-.93.19.09,0,.23-.05.37-.09h0s.09,0,.19-.05h0s.09,0,.19-.05c0,0,.09,0,.14-.05-.23-.42-.46-.79-.56-1.2-.19-.69-.37-1.57-.37-2.68s.09-1.39.23-1.9c0-.09.05-.19.09-.32h0c-.09-.37-.69-1.71-1.16-2.64-.05-.09-.09-.19-.14-.32-.09.09-.19.23-.32.32-.46.6-.74,1.2-1.02,1.94-.37,1.02-.56,1.8-.6,2.41v1.9c0,.19.05.6.19.97.19.51.32.74.32.93.37.74.65,1.3.93,1.62.14.32.32.56.51.83.32.19,1.2.79,1.57,1.02.42.32.14.32.09.65.19.14.46.32.6.37.74.6,1.71.93,2.73,1.06.05,0,.09-.09.19-.09s.09-.05.09-.09c.51-.37.46-.79.56-1.67-.51-.05-.83-.09-1.02-.23h.05-.05.09,0ZM53.35,82.44s-.09.05-.23.32c-.14.19-.19.32-.23.32-.09,0-.19.09-.37.32-.09.19-.23.32-.37.32h-.19s-.14.09-.32.14c-.19,0-.32.09-.32.19-.09.09-.23.14-.37.19h0c-.09.14-.14.32-.19.37t0,0c0,.09-.05.14-.05.19,0,.32.83.32.83.32,0,0,.65.09,1.25.19.14-.09.32-.19.42-.37.32-.23.51-.51.6-.65.32-.19.46-.46.46-.69-.19-.79-.51-1.16-.93-1.06h0s-.05-.05-.05-.05l.05-.05h0ZM48.45,86h0c.19-.23.93-1.02,1.48-1.62h-.37c.09,0-.14,0-.65-.05h-.19v.46c-.09.23-.51.83-.83,1.39,1.67,0,2.96-.14,3.93-.51-.42-.19-.79-.37-1.16-.37-.93-.09-2.13.65-2.17.65h0l-.05.05h0ZM42.02,83.04c.32.42.6.79,1.02,1.2.09.05.19.09.32.19-.14-.56-1.02-1.2-1.25-1.39h-.09ZM54.28,76.8c0,.09.19.32.6.46.42.19.6.46.6.79v1.25c0,.14,0,.32-.05.51,0,.32-.05.46-.05.56h0c.32-.14.56-.32.74-.37.65-.32.65-.56.83-.83.05-.09.19-.32.37-.51v-.37c0-.32-.05-.6-.09-.74,0-.09.19-.19.51-.19.05-.05.69-.09,1.99-.09s.46.09.69.32h1.62v-.83c0-.37-.09-.14-.37-.32-.23-.09-.42-.19-.46-.19h-6.2c-.51,0-.93.19-.93.6h.09l.09-.05h0ZM65.42,76.2h-.32.32ZM68.43,79.67h0s0-.19.09-.42c0-.05.05-.09.09-.09h.09c-.32-.37-.51-.6-.6-.74-.23-.19-.46-.37-.56-.51-.51-.6-.83-1.02-1.02-1.2-.05,0-.19-.09-.42-.32-.19-.14-.42-.23-.51-.23h-.09s2.27,2.31,2.45,2.73c.14.37.37.65.37.74h0s.05.05.05.05h.05ZM60.89,77.86c.42.37.6.6.69.6.09-.05.19-.09.32-.19.05-.05.09-.09.09-.19s.09-.09.09-.23h-1.2,0ZM43.92,73.51c.37-.46.65-.74.93-.97.37-.37.56-.65.74-.83.19-.09.37-.19.42-.23.37-.23.65-.51,1.02-.74.19-.09.6-.23,1.34-.37.46-.09.74-.09.93-.09,1.02,0,1.71.19,2.17.56.09.05.51.37,1.11,1.02.56.51.93.93,1.06,1.11.09.09.09.32.14.51,0,.19.09.32.19.32h.6c0-.56,0-1.02-.05-1.34,0,0,0-.09-.05-.32s-.05-.19-.05-.23c0-.09,0-.19-.05-.32,0-.19-.09-.37-.32-.6v-.65c0-.42,0-.65-.19-.83-.14-.19-.56-.32-1.16-.42-.37-.09-.6-.19-.74-.23-.19,0-.46,0-.65.05-.19,0-.46.05-.6.05-1.48,0-2.73.14-3.84.46-1.3.37-2.22.74-2.73,1.11-.14.09-.32.19-.46.37.05.83.14,2.36.19,3.47.05-.32.09-.56.14-.74h0s-.09.05-.09.05v-.14h0ZM57.42,79.34c-.14.32-.23.56-.23.56h.23v-.56h0ZM67.87,80.87c.09.05.74.51.74.42s-.32-1.16-.74-1.85c-.51-.65-1.85-2.17-2.27-2.54s-.42-.6-.51-.6-.09,0-.19-.05c-1.02.05-1.48.32-1.53.6.19.19.37.37.51.42.19.09.32.19.46.32h.46-.37c.23.14.37.32.42.37.09.09.09.51.09,1.2v3.98c0,.32-.05.6-.19.97-.09.37-.19.51-.19.56,0,.09,0,.19-.05.19-.65.05-1.02.23-1.02.6s.14.23.46.37c.09.09.46.09,1.11.09s.23,0,.46,0h.46c.32,0,.56,0,.79.05.37-.09.51-.23.51-.46s-.19-.37-.6-.46-.6-.32-.6-.51,0-.14.05-.32c0-.09.05-.23.05-.37s0-.37-.05-.65c0-.32-.05-.51-.05-.6,0-.37,0-.79.05-1.48,0-.65.05-1.11.05-1.39v-.65c.83.97,1.53,1.67,1.94,2.13.14.19.51.51,1.06,1.02.46.42.74.74,1.02,1.02.05.09.19.19.32.37-.37-.51-.83-.97-1.06-1.16-.37-.37-1.48-1.39-1.57-1.48h0l-.05-.09h0ZM100.85,81.79c0,.09.09.19.09.37,0,0,.05.09.14.19s.19.19.23.19c.19,0,.32-.14.32-.51-.14-.09-.32-.19-.46-.23-.09-.05-.19-.05-.37,0h.05ZM95.95,82.39c0,.19,0,.51.05.93v.23c.74-.32,1.62-.69,1.85-.93v-.19c-.32-.14-1.2-.23-1.9-.37v.32h0ZM95.16,77.12s.09.05.19.09c.42.19.6.46.6.79v1.25c0,.14,0,.32-.05.51,0,.32-.05.46-.05.56.05.32.09.6.09.93s0,.32-.05.56h0c.51.19,1.2.32,1.8.42v-.19s0-.14.05-.32.05-.32.05-.32c.09-.09.23-.09.42-.09h1.34c.32,0,.6.09.83.32h.19s0,.09.05.09c.14-.05.37,0,.46,0,.19.05.37.09.46.14v-1.62c0-.37.05-.65.14-.83h-.05c-.23-.05-.46-.09-.74-.14-.05.09-.09.19-.09.32-.19.19-.32.37-.42.51-.23.14-.65.23-1.16.19h-1.39v-1.85c0-.32-.05-.6-.09-.74,0-.09.19-.19.51-.19.05-.05.69-.09,1.99-.09s.69.19,1.11.6c.42.37.6.6.69.6.09-.05.19-.09.32-.19.05-.05.09-.09.09-.19.09-.09.19-.51.19-1.16-.32-.19-.6-.46-.93-.69h-6.11c-.51,0-.6.05-.74.19h0s-.05,0-.05-.09-.05-.09-.09-.09c-.32,0-.74,0-1.34.05-.6,0-1.02.05-1.3.05s-.46,0-.83-.05c-.37,0-.65-.05-.93-.05h-3.05c-.37,0-.6.09-.69.23s-.19.46-.37.93-.19.74-.19.93,0,.37.09.69c.51,0,.83-.09.97-.37.19-.32.37-.6.56-.93.46-.09.69-.19.83-.19h1.02c.09,0,.19.09.19.37v.46s0,.14.09.42c.05.23.09.42.09.51s0,.23-.09.46c-.05.19-.09.37-.09.51s0,.19.05.32c0,.14.05.32.05.37s0,.23-.05.46c0,.19-.05.37-.05.42s0,.14.05.32c0,.09.05.19.05.32v1.62c.32.09.51.09.97.23.14,0,.51.05.97,0v-3.84c0-.19,0-.51.05-.83,0-.37.05-.65.05-.83s0-.19-.05-.37c0-.14-.05-.23-.05-.32v-.09h.19v-.37h1.25c.37,0,.51.09.51.23v.32c0,.46.19.65.51.65h.09s.14-.05.14-.05c.37-.19.56-.6.6-1.2v-.19h0l.09-.19.05-.28h0ZM102.98,83.04h-.19c-.09,0-.37.32-.74.79-.37.46-.93.83-1.62,1.02h-.05s-1.2.05-1.2.05c.09.37.19.6.23.83v.09s0,.05.05.09h2.17c.19,0,.51-.09.93-.32.46-1.11.69-1.85.69-2.17s-.09-.32-.37-.46h.09v.09h0ZM98.17,84.66c-.19-.14-.32-.65-.32-1.48v-.32c-.32,0-1.16.42-1.85.83v.6c-.05.23-.09.37-.19.42-.46.19-.79.37-1.06.46l-.19.32c.09.37.32.51.6.51h3.93c-.09-.37-.23-.74-.37-1.06-.32,0-.46-.09-.56-.19h0v-.09h0ZM71.99,85.17l.19.19c.37.42.6.6.74.6s.32,0,.46-.09v-.09s.05-.32.05-.32c-.46-.09-.79-.14-.93-.14-.19,0-.37-.09-.51-.05h0v-.09ZM79.25,85.68c-.09,0-.32,0-.46.05h0s-.09,0-.19.05c.6.23,1.25.37,1.94.37s.69-.09,1.76-.32c-.51-.19-1.16-.46-1.39-.46s-1.25.32-1.67.32h0s0,0,0,0h0ZM92.66,85.17c-.14,0-.32-.09-.46-.14-.09.09-.23.19-.37.32-.32.19-.65.32-.65.32v.37h.97c.69,0,1.06-.19,1.06-.51s-.19-.23-.51-.32h-.05v-.05h0ZM73.98,76.2c-1.2,0-2.13,0-2.73.05-.09,0-.19,0-.32.09s-.14.19-.14.32.09.32.42.46c.19.05.42.09.6.19.37,0,.51.37.51,1.02v3.61c0,.37-.05.6-.14.65-.05-.05-.32-.23-.65-.56-.32-.23-.51-.46-.6-.65-.37-.46-.65-.83-.93-1.06h0c-.51-.56-.93-.97-1.16-1.2,0,.32-.14,1.06,0,1.57.19.6.74,1.25,1.76,2.17,1.02.93,1.02,1.16,1.39,1.39.19.09.83.32,1.48.51v-2.27c0-.14,0-.51.05-.83s.05-.65.05-.83v-1.94c0-1.06.14-1.62.46-1.67,0,0,.19-.05.51-.19.19-.09.37-.19.37-.42,0-.37-.32-.51-.83-.51h.09l-.14.14-.05-.05h0ZM84.39,77.95c-.23-.51-.37-.74-.37-.74.37.42,1.02,2.27,1.2,2.54s.46.6.69.79h.05c0-.09,0-.19-.05-.37-.05-.23-.09-.46-.09-.6s-.09-.46-.32-.79c-.19-.42-.32-.65-.46-.79-.46-.6-1.06-1.11-1.8-1.48s-1.48-.56-2.22-.56c-1.2,0-2.17.19-2.91.56s-1.48,1.06-2.13,1.99c-.09.19-.19.42-.32.56-.42.23-.6.93-.6,1.94s.51,2.54,1.57,3.56c.37.32.65.56,1.06.74.74-.09,1.3-.37,1.76-.74-.51-.19-.97-.56-1.39-1.06-.37-.46-.6-.74-.65-1.06-.14-.56-.19-1.2-.19-1.94s.32-1.8.93-2.5,1.39-1.02,2.36-1.02.74.09,1.16.23c.42.14.83.56,1.3,1.16.46.6.69,1.16.69,1.62v1.06s.05,0,.05.05h-.05v.83c0,.09-.09.37-.37.83-.19.42-.32.69-.42.93-.51.65-1.16,1.06-2.08,1.11.05.09.14.14.23.14s.32.09.51.19c.32.09.6.32,1.02.46h.09c.51-.37.97-.6,1.2-.79.37-.37.6-.6.74-.79.19-.23.42-.46.51-.6.46-.79.65-1.71.65-2.64-.37-.23-.6-.46-.74-.56-.46-.32-.65-1.85-.93-2.41h.19l.14.14h0ZM91.88,85.08c.09-.05.14-.09.23-.14-.09-.05-.14-.09-.19-.19h-.19c-.37-.09-1.34-.19-2.08-.19-.05.14-.09.32-.23.42-.37,0-.65.09-1.02.19h-.05c0,.09,0,.19.05.23,0,.23,0,.46.05.51s.23.09.51.09c-.09-.05.05-.05.6-.05s.14,0,.32.05h1.11c0-.19,0-.37-.05-.37-.09-.09-.19-.51-.19-.51l.32.32s.42,0,.74-.32h.09l-.05-.05h0Z"/>
      <path class="cls-3" d="M57.56,98.21h-.14c-.09,0-.37.23-.69.74s-.93.83-1.57.97h-.05s-.69.05-.69.05c-.79,0-1.25-.09-1.48-.23s-.32-.6-.32-1.39v-.37c0-.09,0-.19-.05-.42-.05-.19-.05-.37-.05-.42s0-.14.05-.32.05-.23.05-.32c.09-.09.23-.09.37-.09h1.3c.32,0,.56.09.79.23h.19l.32.65s.05.09.14.19c.09.09.19.19.23.19.19,0,.23-.14.23-.51v-1.8c0-.37.05-.65.14-.83-.14-.19-.37-.32-.51-.32h-.14c-.09.19-.19.37-.19.46-.19.19-.32.37-.37.46-.23.14-.6.19-1.16.19h-1.34v-1.76c0-.32,0-.56-.09-.74,0-.09.14-.14.51-.14.05-.05.65-.09,1.94-.09s.65.19,1.06.56c.37.37.6.56.65.56.09-.05.19-.09.23-.14-.23-.23-.6-.51-.93-.79-.46-.42-.83-.74-1.06-.93-.09-.05-.19-.09-.32-.19h-1.34s-.14.05-.23.09c-.23.09-.56.19-.83.23-.51.09-1.39,1.25-1.53,1.2v1.39c0,.14,0,.32-.05.51,0,.32-.05.46-.05.51.05.32.09.56.09.83s0,.32-.05.51c0,.23-.05.46-.05.56,0,.19,0,.51.05.93,0,.42.05.69.05.93v.09c-.05.23-.09.37-.19.37-.46.19-.74.37-1.02.42l-.19.32c.09.37.32.51.56.51h6.29c.19,0,.51-.09.93-.32.46-1.06.65-1.76.65-2.13s-.09-.32-.37-.46h.19-.05l.09.09h0ZM39.89,93.73c-.32-.46-.56-.69-.65-.79-.32-.19-.51-.37-.69-.46-.65-.46-1.2-.65-1.62-.74-.42-.05-1.16-.05-2.22-.05s-.56,0-1.02.05c-.46,0-.74.05-1.02.05h-.42c-.19.51-.37,1.02-.51,1.39v.93c0,.09,0,.37.05.6,0,.32.05.51.05.65v1.02c-.09.09-.09.46-.09,1.06s0,.19.05.37c0,.14.05.32.05.37,0,.93-.05,1.48-.19,1.71v.09c-.09,0-.19,0-.42.09-.14.05-.32.09-.37.09h0s-.09-.05-.19-.09c-.37-.19-.65-.46-.83-.65-.23-.32-.69-1.48-1.34-3.56-.19-.56-.42-.97-.56-1.2-.09-.46-.19-.83-.19-1.06-.37-.83-.6-1.39-.79-1.85-.32-.83-.56-1.48-.65-1.9l-.6-1.3c-.05-.32-.09-.51-.09-.65-.09-.32-.19-.51-.23-.65,0-.09-.09-.32-.23-.51-.09-.19-.19-.37-.19-.51v-1.53c0-.14-.09-.32-.42-.32s-.79.23-1.62.83c-.05.09-.09.19-.09.32v.14c-.32.6-.51,1.2-.65,1.76-.05.14-.19.46-.46.93-.19.37-.37.65-.42.93-.37,1.25-.83,2.73-1.48,4.3-.37.93-.65,1.57-.83,1.99-.74,2.17-1.16,3.38-1.3,3.61-.23.46-.6.69-1.06.83-.09.09-.32.23-.56.46-.05.09-.09.19-.09.32,0,.19.09.32.23.32s.46,0,.93.05h.83c.19,0,.32,0,.56-.05.23,0,.42-.05.51-.05.19,0,.51,0,.93.05.42,0,.65.05.83.05.32,0,.46-.09.46-.42s-.19-.42-.6-.6c-.32-.09-.6-.19-.93-.32-.23-.37-.37-.65-.37-.93s0-.19.05-.37l.09-.37c.32-1.57.6-2.5,1.06-2.87h1.48c-.09-.51-.23-1.02-.37-1.34h-.65c.14-.42.32-.93.56-1.53.05-.19.14-.46.23-.65h0c.09-.37.19-.69.32-1.06.09-.51.14-.69.14-.74v.23c0-.09.05-.19.09-.32.32-.97.51-1.48.65-1.57,0,0,0,.05.05.09.19.09.37.46.56,1.06.09.46.19.83.37,1.3.32.6.51,1.11.65,1.39.19.6.42,1.16.6,1.62-.19.09-.6.14-1.06.14h-2.27c.05.23.19.74.37,1.34h2.54s.32.09.93.23h.05v.14c.32.65.46,1.2.6,1.57.09.37.32.65.42,1.02.19.46.32.79.32,1.02s0,.05,0,.09,0,.09-.05.09c0,.14-.09.32-.23.46,0,.05-.32.14-.74.32-.32.09-.51.19-.6.37.32.19.6.42.93.6h3.05l-.65-.65c-.37-.42.09-2.87.09-3.01,0,.09,0,2.08.05,2.54,0,.23.37.65.74,1.06h4.86c-.79-.74-1.57-1.53-1.62-1.62.09.09.69.6,1.48,1.25.09.09.32.23.46.37h.05c1.11,0,1.99-.14,2.73-.46-.09-.42-.23-.83-.37-1.3-.19.14-.42.32-.6.46-1.16.19-1.8.32-1.9.32-.74,0-1.16-.46-1.16-1.25s0-.19,0-.42v-2.91c0-.19,0-.51.05-.83,0-.42.05-.65.05-.93,0-.46,0-.65.09-.74s.37-.14.74-.14c.97,0,1.62.09,1.9.23.42.19.65.37.79.46s.37.37.6.69c.14.19.32.32.37.42.09.32.19.74.32,1.39,0,.05,0,.09.05.19s.05.19.05.23l-.19.83c-.09.46-.19.83-.23,1.06-.09.23-.37.46-.56.69.14.65.32,1.2.46,1.34h.05c.09-.05.19-.09.23-.19.19-.42.46-1.2.6-1.76-.09.51-.32,1.11-.42,1.67.05,0,.19-.09.32-.09.19-.05.32-.09.42-.19.19-.23.32-.42.37-.51.46-.6.65-1.16.79-1.62.09-.56.19-.93.19-1.06,0-.74-.09-1.39-.32-1.94-.05-.09-.23-.37-.56-.79l.09-.19h0v-.14l-.05.05h0ZM61.63,100.16c-.09.23-.14.46-.19.6h0v.19h.19c.37-.09.51-.23.51-.46s-.19-.32-.51-.46h0v.14ZM42.39,91.69c-.93.05-1.39.09-1.48.09-.14.09-.19.19-.19.37s.09.14.37.32l.14.14c.42-.32.93-.69,1.16-.93h0ZM49.74,92.62c-.19-.09-.37-.32-.56-.51s-.37-.32-.51-.46h-.37c-.23,0-.46-.05-.51-.05-.51,0-.74.14-.74.46s.14.32.46.37.46.23.46.56-.19.83-.56,1.71c-.51,1.16-.74,1.76-.74,1.76-.23.74-.46,1.25-.56,1.62-.51-.93-.74-1.53-.79-1.76s-.09-.42-.14-.51c-.09-.14-.19-.23-.23-.32-.14-.19-.32-.51-.42-.93s-.23-.65-.37-.83c-.32-.51-.51-.79-.51-.83.09-.23.19-.42.32-.46.23-.09.42-.14.51-.23,0-.19-.09-.37-.23-.46,0-.05-.09-.14-.19-.23h-.51c-.19.05-.37.09-.46.09-.32,0-1.11.6-1.71,1.02.09.09.19.19.32.23.09.19.19.46.32.83.09.37.23.65.37.83.32.46.46.74.6,1.02.09.32.19.56.19.69.19.37.37.6.46.74.14.42.32.65.42.83.19.46.32.74.37,1.02.19.37.37.6.46.79.19.51.32.93.42,1.16.09.19.37.32.6.37.23-.09.46-.32.56-.6.09-.32.19-.51.32-.79-.65-1.16-1.3-2.27-1.39-2.36h0c.05.09.93,1.16,1.57,1.94.19-.46.37-.79.51-1.06.19-.46.32-.79.37-1.06.09-.14.14-.32.19-.37.14-.69.37-1.25.56-1.62.46-1.02.74-1.71.97-2.22.05-.14.19-.32.46-.51h-.05l-.28.14h0ZM67.36,94.28l-.19,1.39c0-.19.09-1.16.09-1.39s0-.65-.09-.74l-.19-.37c0,.14.05.37.05.56v3.52c0,.37-.05.56-.14.65-.05-.05-.32-.23-.6-.56-.32-.23-.51-.46-.6-.6-.37-.46-.65-.79-.83-1.02h0c-.51-.56-.93-.93-1.16-1.16-.32-.37-.51-.6-.65-.74-.23-.19-.42-.37-.56-.46-.51-.6-.79-1.02-.97-1.16-.05,0-.19-.09-.42-.32s-.37-.23-.46-.23c-1.48,0-2.17.19-2.17.6.19.19.37.37.46.42.56.37.83.56.93.65s.09.51.09,1.16v3.89c0,.32-.05.6-.14.93-.09.37-.14.51-.14.51,0,.09,0,.14-.05.19-.65.05-1.02.23-1.02.56s.14.23.46.37c.09.09.46.09,1.06.09s.23,0,.46,0h.42c.09-.19.32-.56.51-.93-.19-.09-.37-.23-.37-.42s0-.14.05-.32c0-.09.05-.23.05-.32,0-.14,0-.37-.05-.6,0-.32-.05-.46-.05-.6,0-.32,0-.74.05-1.39,0-.6.05-1.06.05-1.39v-.65c.83.93,1.48,1.62,1.9,2.08.14.19.51.51,1.02.97.46.37.74.69.97,1.02.09.09.19.23.46.46,1.02-.6,2.22-1.2,2.73-1.53v-.42c.05-.37.05-.65.05-.83v-.51c-.32-.51-.83-1.3-.83-1.3v.09h-.05v-.09l-.14-.05h0ZM68.06,97.75v-.42c-.51.37-1.67,1.16-2.5,1.67.32.23.46.46.56.65,0,0,.23.32.65.74.37.37.6.56.69.56h0s.09-.09.09-.19.05-.09.05-.14c.09-.46.19-1.3.37-2.17h0v-.69h.09ZM68.57,91.64h-1.94c.32.51.97,1.8,1.57,2.5,0-.93.14-1.48.46-1.53,0,0,.19-.05.51-.14.19-.09.37-.19.37-.37,0-.32-.32-.46-.83-.46h-.14ZM67.83,100.94s.09,0,.09-.05v-.09s.05-.05.05-.05c0,.05-.05.09-.09.09,0,0-.05.05-.09.09h.05ZM97.1,94.28h0c0-1.11-.6-1.85-1.8-2.27h0c.09.56,1.02,1.48,1.8,2.27h0ZM120.09,93.87c.09-.19.32-.37.46-.51.09-.05.19-.09.32-.23.6-.42,1.48-.6,2.64-.6s.42,0,.6.09c.6.19.97.51,1.11.79.37.65.56,1.02.6,1.11.09.09.19.14.37.14.37,0,.51-.14.51-.51v-1.67c0-.19-.09-.32-.14-.32l-.09-.09s-.09,0-.09-.05c-.42-.32-.74-.46-1.06-.46-.09.09-.19.09-.19.14l-1.39-.32h-.69c-.09,0-.46,0-.93.09-.69.09-1.3.32-1.71.51s-.37.19-.56.37c.09.32.14.6.23.93,0,.14.09.37.23.56h0s-.14,0-.14,0l-.09.05h0ZM82.49,92.52c.42-.09.65-.19.74-.32v-.19c0-.19-.37-.32-1.11-.32.05.32.09.6.14.83.05,0,.09-.05.19-.05h0l.05.05h0ZM51.64,91.83c.23-.09.6-.19,1.02-.19h-2.17c-.46,0-.32,0-.42,0h-.09c-.09,0-.32,0-.51.05h-.05c.32.19,1.16.74,1.39.74s.42-.32.97-.56h-.14v-.05h0ZM31.43,92.76c.14,0,.32.14.37.32.09-.46.19-.97.32-1.3h-.09c-.37,0-.6-.05-.74-.05-.46,0-.65.19-.65.51.09.09.14.19.19.32.05.09.32.14.65.23h0l-.05-.05h0ZM65.93,92.52c.19.05.37.09.56.19.09,0,.19,0,.32.09-.19-.42-.46-.93-.65-1.2h-.19c-.09,0-.19,0-.32.09s-.14.19-.14.32.09.32.42.46h.05l-.05.05h0ZM57,93.4c.09-.14.19-.6.19-1.34s-.09-.14-.37-.32c-.19-.09-.37-.19-.46-.19h-1.25c.65.65,1.34,1.39,1.8,1.9,0,0,.05-.09.05-.14h0v.09h.05ZM116.11,91.64h-1.71c.14.23.37.46.46.6-.09-.09-.37-.37-.51-.6h-.79c-.09,0-.19,0-.32.09s-.14.19-.14.32.09.23.32.37c.42.14.74.23,1.06.32h-.23c.32.05.42.42.42.97v1.76c.09.19.19.42.23.46,0-.05-.09-.19-.23-.37v1.67c0,.37-.05.56-.14.65-.05-.05-.32-.23-.6-.56-.32-.23-.51-.46-.6-.6-.37-.46-.65-.79-.83-1.02h0c-.32-.37-.56-.6-.74-.79-.09.32-.19.6-.32.93-.09.37-.23.65-.37,1.02.14.14.37.37.65.6.46.37.74.69.97,1.02.09.09.23.32.46.46l2.45-.32h0c-.09,0-1.06.32-2.13.6.19.19.37.37.42.51,0,0,.23.32.65.74.37.37.6.56.74.56s.32,0,.46-.09v-.09c.05-.19.05-.46.09-.79,0-.37.05-.6.05-.79v-1.39c0-.14,0-.46.05-.83s.05-.65.05-.83v-1.85c0-1.02.14-1.57.46-1.62,0,0,.19-.05.51-.14.19-.09.37-.19.37-.37,0-.32-.32-.46-.83-.46v.09h-.23l-.14-.23h0ZM100.67,100.99h.6c-.32-.05-.65-.09-1.02-.19.05.09.19.19.37.19h.05,0ZM104.51,100.16c-.51-.14-.74-.32-.79-.42,0-.09-.05-.6-.05-1.34s0-.42,0-.69v-2.45c0-.19,0-.51.05-.93,0-.42.05-.65.05-.83v-.69c0-.09.09-.14.23-.14s.46-.05.65-.14.37-.19.37-.42v-.32c-.19-.14-.37-.19-.46-.19h-1.25c-.32.05-.56.05-.69.05h-1.3c-.14,0-.32.05-.51.14s-.32.19-.32.37.14.32.51.46c.23.05.51.09.74.14.09.05.19.32.19.6v1.71s0,.05-.05.37c-.05.09-.05.46-.05,1.02s0,.09.05.23.05.19.05.23c0,.19,0,.51-.05.93s-.05.74-.05,1.02,0,.09.05.23.05.19.05.23c0,.14-.05.37-.19.6,0,0-.37.09-.83.23-.37.09-.51.23-.56.42.93.09,1.85.19,2.54.32-.19-.69-.37-1.3-.46-1.57-.19-.46.56-1.9.65-2.5.09-.56.14-.79.19-.79.05.51-.51,2.41-.51,2.82s0,.74.09,1.06c0,.09.14.46.32,1.02h.32c.65.09,1.16.09,1.57,0,.05,0,.09-.05.14-.09v-.09c.05-.19-.09-.37-.56-.51h-.14v-.09h0ZM98.63,100.16c-.37-.14-.6-.19-.65-.23-.14-.19-.19-.32-.23-.42-.19-.19-.37-.32-.46-.37-.32-.37-.51-.6-.65-.79-.51-.51-.74-.74-.83-.79-.42-.32-.65-.51-.83-.65.19,0,.37-.05.46-.14s.19-.14.32-.19c.09-.05.19-.09.32-.09.19-.14.37-.32.42-.42.46-.46.65-.93.69-1.48-.09-.09-.19-.19-.37-.32-.74-.65-1.62-1.71-1.8-1.85h0c-.09-.05-.32.37-.46.74.14.09.37.32.56.56.05.37.09.65.09.83.05.19.09.23.09.23h0c0,.37-.09.6-.51.93-.37.23-.69.42-1.06.42s-.74,0-1.16-.09c0-.09-.05-.46-.05-1.02s0-.42-.05-.65c0-.23-.05-.42-.05-.51v-.46c0-.23,0-.42.09-.51.19-.09.42-.09.6-.09.46,0,.83.09,1.06.23.05,0,.09.05.14.09.05-.37.09-.69.19-1.06v-.09c-.56-.09-.93-.19-.97-.19h-3.42c.6,1.34,1.25,2.68,1.25,2.68,0,0-.51-.46-.93-.97.05.19.05.37.05.6v3.7c.32.19.65.42,1.02.6.32.14.51.32.79.46v-.51c0-.37.05-.6.05-.74s0-.09-.05-.14v-.32s0-.05.05-.05h.42c.51.65.93,1.11,1.2,1.34.23.32.42.56.51.74.46.42.83.65,1.06.83.51.09.83.19,1.11.19s1.16.09,2.13.19c-.05-.09-.19-.19-.42-.23h0l.32-.09-.05.09h0ZM96.69,100.48h-.42c.46.37.93.51,1.34.51s.51,0,.74-.09c.23-.05.46-.14.51-.23-.79-.09-1.57-.14-1.94-.19h-.32.09,0ZM92.57,99.51c0-.09-.05-.19-.09-.32-.51-.23-1.2-.56-1.85-.83h0c0,.97-.09,1.48-.32,1.67-.05,0-.23.09-.6.19-.32.09-.46.19-.46.37s.05.14.14.32c.42.09.65.14.65.14h3.01l.32-.14c.14-.09.23-.14.37-.23h0c-.46-.46-.83-.83-1.2-1.11h.05v-.05ZM127.17,96.83c-.09-.09-.19-.14-.32-.14h-3.28c-.37.19-.56.37-.56.42l.14.37c.51.23.97.37,1.25.46.14.19.19.46.19.6v.74c0,.32-.19.51-.51.65s-.23.09-.37.09v.32s0-.09-.09-.32c-.14,0-.32.05-.46.05-1.57,0-2.64-.46-3.28-1.39-.05-.05-.09-.37-.32-.83-.09-.51-.19-.83-.19-.93v-.6c-.05-.14-.05-.19-.05-.19,0,0,0-.05.09-.23.09-.46.19-.93.32-1.34v-.09c-.32-.51-.51-1.11-.65-1.67-.14.14-.37.32-.51.46-.46.42-.65.65-.74.83l-.09.37c-.09.19-.14.32-.19.37-.19.51-.32,1.06-.32,1.71,0,1.57.6,2.78,1.85,3.61,1.06.74,2.41,1.11,4.02,1.11s1.06-.09,1.76-.32c.83-.19,1.3-.51,1.3-.83.19-.19.37-.42.37-.56,0-.97,0-1.48.05-1.62,0-.05.09-.14.32-.32s.32-.32.37-.46c0-.09-.05-.19-.14-.32v-.09h0v.14l.05-.05h0ZM109.96,93.31c-.51-.6-.79-1.02-.97-1.16-.05,0-.19-.09-.42-.32-.19-.14-.37-.23-.46-.23-1.48,0-2.17.19-2.17.6.19.19.37.37.46.42.56.37.83.56.93.65s.09.51.09,1.16v3.89c0,.32-.05.6-.14.93-.09.37-.14.51-.14.51,0,.09,0,.14-.05.19-.65.05-1.02.23-1.02.56.32-.09.6-.23,1.02-.37.65-.19,1.16-.42,1.57-.51,0-.05,0-.14.05-.32,0-.09.05-.23.05-.32,0-.14,0-.37-.05-.6,0-.32-.05-.46-.05-.6,0-.32,0-.74.05-1.39,0-.6.05-1.06.05-1.39v-.65c.74.83,1.39,1.53,1.8,1.94.19-.74.32-1.53.32-2.36-.05-.09-.09-.14-.19-.19-.23-.19-.42-.37-.56-.46h-.14l-.05.05h0ZM109.45,100.29c-.6.19-1.3.46-1.94.69h.93c.32,0,.56,0,.74.05.37-.09.51-.23.51-.46s-.09-.19-.19-.32h0l-.05.05h0ZM86.42,98.07c-.32,1.34-1.02,1.99-2.13,1.99s-1.71-.37-2.08-1.06c-.09-.37-.14-.6-.14-.74l-.09-.09c0-.09-.05-.32-.05-.56s0-.32.05-.46c0-.19.05-.37.05-.46v-.69c-.23.09-1.16.51-1.85.74v.37c0,.32-.05.51-.05.65s.09.6.23,1.2.32.93.37,1.02c.19.37.6.65,1.25.93.6.23,1.11.37,1.57.37,1.25,0,2.22-.32,2.82-.83.32-.19.46-.42.6-.51.32-.37.51-1.02.65-1.8h-1.25.05v-.05ZM75.92,100.25c-.42-.09-.69-.32-.93-.56v-.69h-.56c-.32.09-.51.42-.6.74-.09.42-.19.6-.19.74v.46h1.76c.65,0,1.02-.14,1.02-.51s-.19-.23-.51-.32h0v.14h0ZM78.05,91.64c0-.09-.05-.09-.09-.09-.32,0-.74,0-1.3.05-.56,0-1.02.05-1.25.05s0,0,0,0c-.37.46-.69.97-1.06,1.39-.51.65-.93,1.3-1.16,1.8h0c-.05.19-.09.37-.09.46s0,.14.05.32c0,.14.05.23.05.37s0,.23-.05.42c0,.19-.05.32-.05.42s0,.14.05.32v.19c.09.19.19.46.32.56.09.32.09.42.32.51s.51.09.79.19h.05c.09,0,.32.05.46.09v-3.15c0-.19,0-.46.05-.83,0-.37.05-.6.05-.79s0-.19-.05-.37c0-.14-.05-.23-.05-.32v-.09h.19v-.37h1.2c.32,0,.51.09.51.23v.23c0,.42.19.6.51.6h.09s.14-.05.14-.05c.42-.19.6-.65.6-1.34s-.09-.46-.23-.56c0,0-.05,0-.05-.09h0v-.14h0ZM73.52,100.06c.09-.51.32-.93.19-1.16-.05-.19-.32-.51-.51-.79v.37c0,.79-.09,1.3-.42,1.62-.32,0-.65.09-.97.19h-.05c0,.09,0,.19.05.23,0,.23,0,.42.05.46s.19.09.51.09c-.09-.05.05-.05.6-.05s.14,0,.32.05h.19c.09-.32-.09-.51,0-.97h0l.05-.05h0ZM89.7,91.78h-.05c-.19.09-.37.32-.37.46.46.19.74.37.93.51-.09-.23-.32-.6-.46-1.02h-.05v.05h0ZM87.81,91.64h-2.36c-.32.14-.46.32-.46.46s.09.23.32.37.37.14.51.14c.46,0,.65.32.65.83v2.82c0,.51,0,1.02-.09,1.39h1.16v-2.36c0-1.34,0-.32,0-.46v-1.62c0-.37.19-.6.56-.74.37-.09.56-.23.56-.42s-.37-.37-1.06-.37h.09l.14-.09v.05h0ZM72.87,92.76c.09,0,.19.09.19.37v.46s0,.09.05.37c.51-.6,1.25-1.57,1.76-2.27h-.37c-.37,0-.65-.05-.83-.05h-2.96c-.37,0-.6.09-.69.23s-.19.46-.32.83-.14.69-.14.83,0,.37.09.65c.51,0,.79-.09.93-.37.19-.32.37-.6.51-.93.46-.09.65-.19.79-.19h.97s.05,0,.05,0v.05h0ZM80.08,93.68v.37c.42-.46,1.02-.6,1.02-.6,0,0-.74.42-1.02.74v1.3c0,.09,0,.23.05.46,0,.19.05.37.05.46s0,0,0,0c.32-.09.6-.19.79-.19.42-.09.83-.19,1.02-.32v-.42c0-.51-.05-.83-.05-1.06s0-.32.05-.51c0-.19.05-.42.05-.51v-.46c0-.19.09-.37.23-.46-.05-.19-.14-.56-.23-.93-1.53,0-2.41,0-2.73-.05-.37.14-.51.37-.51.51s.19.23.65.37.65.37.65.83v.32h-.05v.09l.05.05h0Z"/>
    </g>
  </g>
</svg>