<?xml version="1.0" encoding="UTF-8"?>
<svg id="Capa_1" xmlns="http://www.w3.org/2000/svg" version="1.1" viewBox="0 0 271 247">
  <!-- Generator: Adobe Illustrator 30.0.0, SVG Export Plug-In . SVG Version: 2.1.1 Build 123)  -->
  <defs>
    <style>
      .st0 {
        fill: #996822;
      }

      .st1 {
        fill: #fff;
      }

      .st2 {
        fill: #00496d;
      }
    </style>
  </defs>
  <g>
    <path class="st1" d="M224.78,88.97c-.1-2.6-.7-5.4-1.4-7.9,0-.4.2-1.2.2-1.4.2-.8.4-1.5.5-2.3.4-2.2.4-4.2-.2-6.3.4-1.8.3-3.7-.1-5.5.2-1.7.1-3.6-.4-5.5v-.4c.1-1,0-2-.2-2.8,0-.4,0-.8-.1-.8v-2.5c0-.4,0-.9-.1-1.3.5-1,1-2,1.1-3,.4-2.1.4-3.5,0-5.5-.2-1.1-.8-2.3-1.4-3.3-1.1-1.6-2.5-2.8-4.1-3.7-1.2-1.5-2.8-2.6-4.7-3-.7-1.3-1.6-2.3-2.9-3.2.2-3-1.6-6-4-7.6-1.8-1.3-3.7-1.7-5.4-1.6-.3-.2-.7-.4-1.1-.5-1.1-.4-2.2-.7-3.2-.7-.2-.2-.5-.7-.9-.8v-1c-.2-1.5-1-3-2.2-4.2h0c-.7-.7-1.3-1.1-2-1.4-1.4-.9-3-1.4-4.9-1.3-1,0-1.8.2-2.6.4-2.5-1.8-6-2.3-8.9-1.3-1.4,0-2.8.4-4,1.1-1.1-.8-2.2-1.3-3.5-1.4-.8-.4-1.6-.7-2.6-.8h-2c-1-.2-2-.2-3-.1-1.3.1-2.4.5-3.4,1.2-1,.1-2,.4-3,1-.7.4-1.3.9-1.8,1.4-1.6.7-3,1.6-4,3-1.2.4-2.3,1.1-3,2.2-.2.1-.3.2-.5.4-.7.4-1.1,1-1.5,1.5-.9.4-1.6,1.1-2.2,2h0c-.5-.7-1.2-1.2-2-1.6,0,0,0-.1-.1-.2-1-1.5-2.1-2.6-3.4-3.3-1-1.3-2.4-2.3-3.9-2.5h-.2c-.2-.2-.5-.4-.9-.5-1-.9-2.1-1.5-3.2-1.6h0c-.8-.4-1.4-.8-2.3-1.1-.7-.4-1.3-.8-2.2-1-1.4-.4-2.8-.4-4.2-.1h-2.2c-1.4.2-2.6.7-3.7,1.4-.4.1-1,.3-1.4.5-1.4-1.7-3.4-2.9-5.8-2.6-1,.1-1.8.2-2.6.5-.8-.4-1.6-.9-2.6-1.2-2.8-.9-6,.2-7.9,2.3-3.2.9-5.9,4.3-5.9,7.5h0c-.5.1-1.1.2-1.6.4-1.2.3-2.3,1-3.2,1.7-1.3.5-2.6,1.4-3.6,2.8-.9,1.1-1.4,2.6-1.6,4-.1.3-.2.7-.4,1.1-1,.9-1.8,2-2.5,3-2,.2-3.7,1.4-5,3-.4.2-.9.5-1.3.9-1.1,1-1.8,2-2.3,2.9-.9,1-1.5,2.1-2,3.5,0,.3-.1.7-.2,1.1-.9,1.1-1.6,2.3-2.2,3.5-.8,1.5-1,3.2-1,4.6s0,.4-.1.7c-1.4,1.4-2.3,3.4-2.5,5.4h0c-.8,1.3-1.2,3.2-1.2,4.5v.5c-.8.8-1.7,1.6-2.3,2.5-1.2,2-1.8,4-2,6.3-.2,3.8,1,7.9,3.7,10.8,0,.3-.1.7-.1.9-1,2-1.4,4.2-.8,6v.2c-.2,1.6,0,3.3,1.1,4.7,0,.1.2.2.2.4,0,.4,0,1,.2,1.5.2,1.1.7,2,1.1,2.8,0,.9,0,1.7.3,2.6.2.8.5,1.4.9,2,0,1.1.2,2.1.7,3,.2,1,.8,2,1.4,2.6.2,1.3.7,2.4,1.3,3.5s1.1,1.6,1.3,1.8c.7,1.4,1.6,3.4,2,3.7h.1v.3c.2,1.8,1.5,3.9,2.7,5.2.3.3,1.3,1.2,2,1.8.7,1.1,1.6,2.5,1.7,2.6.7.8,1.6,1.8,2.6,2.3,0,.1,0,.2.1.3,1,1.5,2.3,2.8,3.8,3.7h0c.4,1,1.4,2.2,1.7,2.6,1.6,2,3.3,2.7,5.2,3.2.4.3.8.7.8.7.8.8,1.4,1.6,2.5,2.2.9.5,1.8,1,2.8,1.2h.7c.4.8,1.1,1.3,1.6,2,2,1.8,4.6,2.7,7.3,2.6.3.2.8.5,1,.8.4.3,4.6,2.2,6.4,2.5.8.5,1.7,1,2.6,1.3,1.1.3,2,.4,3,.4,2.1,1.3,4.2,1.7,6.6,1.6h0c.9.4,1.8.8,2.7,1.1.4,0,2.5.3,4.1.3.7.3,1.4.5,2.2.7,1.3.2,2.4.2,3.6,0,1,.2,1.8.4,2.9.4s1.3,0,2-.1c2,.5,3.8.4,5.8,0,.8.2,1.6.2,2.4.2,1.1,0,2.1-.2,3-.5,2.1.2,4.1.2,6-.8,1.6.2,3.4,0,4.8-.3.5-.1,2-.7,2.6-1h1.1c1.6,0,3-.4,4.5-1.1.4-.1.8-.3,1.1-.5,1.1.3,3.2-.7,4.2-1.1.8-.2,1.4-.7,2.2-1.2.8,0,1.4,0,2.2-.2,1.6-.4,3.2-1.3,4.3-2.4.1-.1.4-.3.8-.7.5,0,1.1-.1,1.6-.2,1.5-.4,3.2-1.4,4.3-2.5.2-.2.7-.8,1.1-1.3.1,0,.3,0,.4-.1,1.1-.3,2.3-.9,3.4-1.4,1.1-.8,2.2-1.6,2.9-2.7,1-.3,2.6-1.1,2.8-1.2,1.3-.8,2.6-2.2,3.4-3.5.2-.4.4-.9.7-1.3.8-.4,1.7-1,2.2-1.4.9-.9,1.7-1.8,2.3-2.9.1-.2.2-.4.2-.7,0,0,.1,0,.2-.1,2.1-1.3,3-3.6,4.2-5.4.5-.9,1.6-1.6,2.3-2.6.3-.4.7-1,.8-1.4h0c1.1-.2,2-2.6,2.3-3.7.3-.7.5-1.3.7-2,.2-.3.4-.8.8-1.1.1-.2.8-2.4,1.2-3.7.7-1.1,1.3-2.5,1.4-2.7.2-.8.2-1.4.3-2.2.4-.8.9-1.4.9-1.5.4-1.4.8-3,1-4.6.5-2.8,1-5.8.8-8.6v-.5.8l-.2-.1ZM93.48,143.87h.2c.5,0,.4,0-.2,0h0ZM138.48,157.07h0q.4-.07,0,0ZM142.78,156.87q-.2-.07,0,0h0ZM190.78,142.37c0-.1.2-.2.2-.1h-.2v.1ZM202.38,134.27s0-.2.2-.3c0,.1-.1.2-.2.3ZM221.08,105.47c-.7.9-.4.4.1-.4,0,.1,0,.2-.1.4ZM222.88,56.17h0s0,0,0,0h0ZM223.28,80.97h0v-.2.3h0v-.1Z"/>
    <g>
      <path class="st2" d="M215.38,61.27c.8,1.3.8,3.2,0,4.5-.4.8-1.3.9-2,1.3-.1,0,0,.4-.1.7h.7c.5-.2,1-1.1,1.4-.9,1.3.8.7,3,0,4.3-.5,1-1.7,1.4-1.6,2.7.3,0,.7-.2.8-.4.2-.2.3-1.1.8-1,2.5.9,0,5.3,0,7.9-.7-.5-1.3-1.1-2-1.5s-.8-.2-.9.1c1,1.1,2.3,1.8,2.8,3.2,2.2,5.4,2,9.7,0,17.6-.2.8-1.3,1.1-1.1,2.1.2,1.3-.1,2.2-1,3-.3.3-.7.9-.7,1.3.1,1.4-.4,2.4-1.4,3.3-.5.4-.8,1-.7,1.6.2,1-.1,1.6-1,2.3-.4.4-1,1-1.1,1.5-.2,1-.8,1.6-1.5,2.2-.5.4-1.1,1-1.3,1.6-.7,1.6-1.6,2.8-3,3.8-.5.4-1.2,1-1.4,1.5-.5,1.4-1.5,2.4-2.8,3s-1.8,1.3-2.2,2.5c-.4,1.2-1.2,1.8-2.4,2-1.4.2-2.5,1-3.2,2.2-.8,1.3-1.8,2-3.4,2s-2.2.8-2.8,1.6c-.2.3-.4.8-.8,1.1-.7.8-1.4,1.3-2.4,1.1-1.4-.3-2.4.2-3.3,1.2-.3.3-.7.7-1,1.1-.8.8-1.6,1.1-2.6.9-1.4-.3-2.6.2-3.5,1.3-.7.8-1.6,1.1-2.6.9-1.1-.2-2,0-2.6.8-1.1,1-2.3,1.3-3.7.8-1.2-.4-2.2-.1-3.2.7-1,1-2.2,1.1-3.5.7-1.1-.4-2.2-.3-3,.4-1,.8-2,.9-3,.4-.8-.2-1.4-.2-2.2.1-.8.4-1.7.7-2.6.1-1-.4-1.8-.3-2.7.2s-1.7.7-2.6,0c-.8-.5-1.4-.7-2.2-.2-.9.3-1.7.3-2.6-.1-.7-.4-1.4-.4-2.2-.1-1,.4-1.8.2-2.6-.5-.9-.8-1.8-1-2.8-.4-1.2.4-2.3.4-3.4-.7s-1.4-.9-2.4-.5c-1.7.7-3.2.3-4.3-1.2-.4-.7-1-.8-1.7-.5-1.4.5-2.6.1-3.6-1-.8-.9-1.6-1.1-2.7-.9-1.2.3-2.2-.1-2.9-1.1-1.1-1.4-2.5-2.3-4.6-1.8-1.4.4-2.6-.1-3.2-1.5-.8-2-2.2-2.6-4.2-2.7-.7,0-1.4-.2-1.7-.7-.8-1.1-1.8-2-2.8-2.8-.4-.3-.7-.5-1.2-.4-1.4.2-2.3-.4-2.5-1.8-.1-1.1-.7-1.6-1.4-2.2-.5-.3-1.1-.8-1.6-1-.8-.4-1.4-1-1.6-1.8-.2-1.1-.9-1.6-1.8-2.1-1.3-.5-2.2-1.5-2.5-2.9-.2-1-.8-1.5-1.6-1.8s-1.4-1-1.7-1.8c-.2-.7-.3-1.2-.4-1.8-.1-1-.5-1.6-1.3-2.3-.8-.5-1.2-1.3-1.3-2.3,0-.8-.4-1.3-1-1.7-.7-.4-1.1-1.1-1-1.8,0-.9-.2-1.6-.9-2.2-.8-.8-1.1-1.6-.8-2.7.2-.8,0-1.4-.7-2-.7-.7-1-1.4-.8-2.3.3-1,0-1.8-.7-2.5s-1-1.7-.5-2.8c.4-1,0-1.7-1-2.2-.2,0-.3-.4-.5-.7.2-.2.5-.4.8-.5.2,0,.5.1.8.2.7.1,1.3.2,2,.4,0,0,0-.1.1-.2-.3-.2-.7-.5-1-.8-.9-.5-1.8-1-2.6-1.4-.2-.1-.2-.5-.4-.8.2-.1.7-.3.9-.4.2,0,.4.1.7.2,1.1.7,2.1,1.3,3.2,2,.4.2.9.7,1.4,1.1,0-.3,0-.5-.1-.7-.7-1.1-1.4-2-2.6-2.3-.2,0-.7-.1-.8-.3-.5-.7-1-1.3-1.4-2-.2-.3-.4-.8,0-1.1.4-.4.8-.1,1.1.2.4.4.8,1,1.2,1.4.4-.4.5-.4.2-1.1-.3-.8-.8-1.4-1.1-2.3-.1-.3-.1-.9,0-1.1.3-.4.8,0,1,.2.5.8,1,1.6,1.4,2.5.1.2.2.5.4.8h.2c0-.2,0-.4.1-.8,0-.7.1-1.2.3-1.7,0-.2.4-.3.7-.5.2.2.4.4.5.7v2c0,.2.1.4.2.7.1-.1.3-.2.4-.4.2-.5.4-1.1.7-1.6.2-.2.7-.4,1-.7,0,.3.3.8.2,1.1,0,.4-.3,1-.4,1.4v.8c.2-.1.5-.2.7-.4.5-.7,1-1.3,1.5-1.7.4-.4.5-.7,0-1-.9-.5-1.7-1.1-2.6-1.7l-.2.2c-1.8,1.1-3.5,1-5-.2-.7-.4-.8-1.4-1.3-1.8-.7-.4-1.5-.3-2.2-.8-2-1.1-2.7-3-2.6-5.2,0-2.1.9-3.8,2.8-4.9.2-.1.5-.3.7-.7.7-2.2,2-3.3,4.2-3.4.2,0,.5-.2.7-.4.4-1,.3-2-.4-2.6-.5-.5-1.1-1-1.6-1.4-.3-.3-1.1-.3-.9-1.1s1-.4,1.4-.4h.1c1.2.3,2,1.1,2.6,2.1.1.2.4.2.7.4,0-.2.2-.5.2-.8,0-.4-.2-.8-.4-1.1-.7-.8-1.4-1.4-2.2-2.1-.3-.2-.7-.5-.3-1,.2-.4.7-.3,1.1-.1.2.1.7.2,1,.4,0-1.4-1-1.6-1.8-2.2.3-.8.7-1,1.4-.7,1,.4,1.7,1.1,2.2,2.2,0,.1.2.2.4.4.1-.2.4-.3.4-.5s0-.5-.1-.8c-.4-1.3-1.3-2.1-2.6-2.6-.4-.2-1-.4-1.6-.7.3-.7.5-1.3,1-1.8.9-1.2,1.8-2.4,3.5-2.6.1,0,.2-.2.4-.4l-.4-.4c-.2-.1-.7-.2-.9-.4s-.4-.7-.3-.9c.1-.4.5-.7,1-.3.2.1.5.3.8.4h.5v-.7c-.2-.3-.7-.7-.9-1-.1-.2-.2-.5,0-.8.1-.2.4-.3.7-.2.3,0,.5.3.9.5s.9.4,1.3.8c0,0,.1-.1.1-.2-.2-.7-.7-1.3-.9-2,0-.2.1-.7.2-1,.3.1.7.1,1,.3.2.1.3.4.4.7.2.3.4.7.8,1h.3v-2.2c0-.3.4-.8.7-.8.4-.1.7.3.8.8,0,.4,0,.9.1,1.3,0,.2.2.4.2.7.1-.1.3-.2.4-.4.2-.4.4-1,.9-1.4.1-.2.7-.2.8-.1.2,0,.3.4.2.8,0,.3-.2.7-.3,1s-.2.8-.3,1.1c0,0,.1,0,.2.1.4-.4,1-1,1.4-1.4s.7-.5,1.1-.1c.3.4.2.8,0,1.2-.2.3-.5.7-1,1.2.3,0,.4,0,.5-.1,2.1-.7,4,0,5.1,1.6.2.4.5.5,1,.3s.4-.5.3-1c-.4-1.4-1.7-2.4-3.4-2.5-.7,0-1.1-.2-1.3-1-.1-.4-.4-.9-.7-1.3-1-1.4-2.5-2.1-4.2-2.3.2-.4.4-.8.5-1.1,1-1.8,2.4-2.7,4.5-2.6,1.1,0,2.2.4,3,1.2.2.1.5.1.8.2v-.8c-.1-.3-.4-.5-.8-.8-1-.9-2.2-1.2-3.5-1.3-.2,0-.7-.2-.7-.3,0-.2,0-.7.2-.8.2-.2.7-.2.9-.3h1v-.2c-.2-.2-.5-.4-.9-.7-.4-.2-.8-.7-.4-1.1s.9-.4,1.3-.2c.3.2.7.4,1,.7.1-.8-.8-1.6.2-2.2.8-.4,1,.5,1.4,1,.2-.2.4-.4.8-.7.2-.2.7-.5.8-.4.9.7,1.3-.3,2-.4.5-.1,1.1-.2,1.7,0,.4.1,1,.4,1.3.8.8-.2,1.5-.4,2.2-.7.2,0,.4-.2.7-.3-.2-.1-.4-.4-.7-.4-1-.4-2.1-.8-3-1.3-.4-.2-.7-.8-.9-1.1.4-.1,1-.3,1.4-.3,1,.1,1.8.4,2.8.7-.2-.3-.5-.7-.8-1-.7-.8-1.2-1.6-1.8-2.4-.2-.2-.1-.7-.2-1.1.3,0,.8,0,1.1.1,1.4.7,2.5,1.8,3.4,3,.2.2.3.4.5.7.1-.2,0-.4,0-.7-.4-1.4-1-2.9-1.4-4.3-.1-.3,0-.8.1-1.2.4.1.9.2,1.1.5.7,1,1.1,2,1.6,3,.2.3.2.7.4,1.2.4-.5.7-1,1-1.3.8-.8,1.4-1.6,2.2-2.3.2-.2.7-.1.9-.2,0,.3.1.7,0,1-.4,1-1,1.8-1.4,2.8-.1.2-.2.4-.2.5,1-.4,1.8-.9,2.8-1.3.2,0,.7,0,1,.1,0,.2,0,.7-.2.9-.4.4-1,1-1.4,1.3,2-.8,3.9-1.1,5.8.5,0-1,.2-1.6,1.1-1.4,0-.4,0-1.1.3-1.3.2-.2.9-.2,1.3-.2-.3-.8-.2-1.3.4-1.3s1.3,0,2,.1c0-.4,0-1.1.8-1.2,1-.2,1,.7,1.3,1.3.2-.4.4-.7.7-1,.2-.4.7-.5,1.1-.3s.4.4.3.9v1c.4-.4.7-.9,1-1.1.2-.1.8-.1,1.1,0,.4.1.2.4.2.8s-.2.5-.2.8c.4-.1.8-.4,1.2-.5.2,0,.7,0,1,.1s0,.5,0,.8-.2.5-.2.8c.8-.2,1.4-.3,2.2-.5l.2.2c-.2.5-.4,1.1-.7,1.8.3-.1.8-.2,1.1-.4.3-.2.7-.4,1.1-.7.2,0,.7,0,.8.1s.1.5,0,.8c-.2.5-.4,1.1-.8,1.6l.2.2c.8-.2,1.4-.5,2.2-.8.4-.2.7,0,.9.4s0,.7-.3.8c-.2,0-.3.2-.8.7.8.1,1.3.2,1.8.3,0,.4-.2,1-.3,1.7.5-.2,1.1-.4,1.6-.5.3,0,.8.1,1.1.2-.2.2-.3.7-.5.9-.2.2-.4.4-.7.5h1.4c.4,0,.7.1.8.2,0,.2,0,.5-.2.8,0,.2-.2.3-.4.4.7,0,1.1-.2,1.5-.4.5-.1,1,.2.8.8-.1.3-.3.7-.5,1.1.4-.2.8-.4,1.1-.4.4-.1,1.1-.3,1.4-.1.4.3.1.9-.1,1.3v.2c.4-.1.8-.2,1.1-.2h1.1c.4,0,.9.2,1.4.4-.1-.3-.2-.4-.2-.5v-1.2h1.2c.2,0,.3.1.5.2,0-.2-.2-.3-.2-.4,0-.2-.2-.7,0-.9.1-.2.5-.2.8-.2s.4.1.7.1h.9c-.4-.5-.8-1-1.1-1.4,0,0,.1-.2.2-.2.9.1,1.8.2,2.6.3,0-.1.2-.2.2-.3-.4-.2-.8-.4-1.1-.8-.2-.1-.4-.7-.3-.7.2-.2.5-.4.9-.4s.7.2.9.2c.3.1.8.2,1.1.4-.2-.4-.3-.8-.7-1.1-.2-.4-.4-.9,0-1.1.2-.2.8,0,1.1,0,.4.1.7.4,1,.8,0-.4-.1-.8-.2-1.1-.2-.4-.4-1,0-1.1.3-.1.8,0,1.3,0s.4.2.7.4c0-.7-.2-1.3,0-1.5.2-.3,1-.4,1.3-.5,0-.3-.1-.9.1-1.1.7-.7,1.2,0,1.6.3.1-.4,0-1.1.3-1.3.2-.2.9,0,1.3,0-.2-.9,0-1.4.8-1.3.7,0,1.3.2,2,.4.2-.5-.1-1.4.9-1.5,1.1,0,1,1,1.4,1.6.4-.4.3-1.6,1.4-1.4,1,.1.8,1,.8,1.6.9-1,1.3-1.3,1.7-1,.3.2.4.8.5,1.2.3,0,1-.1,1.3.1.2.2.2.9.3,1.2.3,0,1,0,1.1.2.2.3.1,1,.2,1.3.2.2.8.3,1,.7.2.3,0,.9,0,1.3,1-.8,2.2-1.4,3.4-.4,1.2-1.4,3.9-.9,4.7,1,0,.2.1.4.3.4.7.3,1.3.7,2,.9.4-.7,1.3,0,1.8-.2,0-.2-.1-.3-.2-.5,0-.2-.1-.3-.1-.4.2-.2.4-.3.5-.5.2-.4.7-.7,1.1-.3.2.2.5.4.8.7.1-.2.2-.4.2-.7,1,0,1.5.2,1.8.9,0-.1.2-.2.2-.3.2-.5.8-.7,1.1-.4.2.1.2.7.3,1.1v1c.7-.3,1.1-1.1,1.8-.5.2.2.2.9.3,1.3.3-.3,1-.2,1.3.1.2.3.2,1,.2,1.4,1.1,0,1.3.2,1.1,1.4.4.2.7,0,1-.3.4-.4,1-.8,1.5-1.1.7-.2,1,.1,1,.8.1.9.4,1.6.8,2.5h.2c.2-.2.4-.7.7-.9.7-1,1.6-1.3,2.6-1.1.2,0,.5.3.8.4-.1.2-.2.4-.4.7-.4.5-.9,1-1.4,1.6,1.8.2,2.1.4,2.4,1.2-.7.2-1.3.4-2,.8-.9-1.3-2-1.8-3.4-1.1-.8-1.3-1.8-1.5-3.2-.9-1.4-1.2-2-1.1-2.8.5,0,.1-.3.2-.5.2-1.2,0-1.7.4-2.1,1.5,0,.2-.3.4-.5.7l-.7.3c-.8.3-1.4.8-2.2,1-.8.1-1.4.4-1.7,1.1-.2.5-.5.7-1.1.4-.7-.2-1.1,0-1.4.4-.7.9-.2,2.5.8,3,.5.2.8,0,.8-.7v-1c0-.3.3-.5.5-.7.2,0,.4.1.7.2.1,0,.1.2.2.3.2.1.4.2.7.4.1-.2.2-.4.3-.8,0-.3,0-.8.1-1,.2-.3.5-.7.8-.8.2,0,.7.4.7.8.1.3,0,.8,0,1.1s.3.4.5.4.4-.2.4-.4c0-.8.3-1.3.8-1.3.1-.7.1-1.1.3-1.5,0-.1.8.1,1.2.2.3,0,.8,0,1-.1.1,0,0-.5,0-.8s0-.8.2-1c.2-.4.7-.2,1,0,.2.2.4.4.7.5.7.4,1,.2,1.1-.5,0-.2,0-.7.1-.8.2-.2.5-.4.8-.4s.4.4.7.7c.1.2,0,.4,0,.7.1.8.4,1,1.1.5.4-.2.8-.5,1.1-.8.4-.4.9-.1,1.1.2s-.1.4-.2.7c-.1.1-.3.2-.4.4,0,.2-.2.7,0,.7.2.1.5.2.8.2s.2-.2.3-.2c.2-.1.7-.3.8-.2.2.1.4.4.5.8v.8h1.3v-1.1c0-.5.1-1.1.9-1,.7,0,.8.5.8,1.1v1.1l.2.2c.4-.3.8-.7,1.2-1,.2-.1.7-.2.8-.1.2.1.4.5.4.8s-.1.5-.2.7c.4.2.9.4,1.3.5-.2.2-.5.5-.9.7-2,1.1-2.8,3.4-2.1,5.2.8,0,1.3-.3,1.2-1.3v-1c.1-1.1.9-2,1.6-2.2,0,.2.1.5.1.8v2.2c0,.2.2.5.2.8l.7-.7c.4-1,1.1-1.8,2.1-2.3.2-.1.7,0,1-.1v.9c-.2.7-.7,1.3-1,2s-.8,1.1-1.1,1.6c-2.5-1.1-4.6-.8-5.8,1.1-.4.7-1.2.8-1.5.1-.8-1.1-1.7-2.3-1.8-3.8,0-.7.2-1.3.2-2.1s0-.4-.1-.7c-.2,0-.4,0-.7.1-.1,0-.2.2-.4.4-1,1.4-.8,3.4.2,4.7.3.4.8.9,1.1,1.3-.7.2-1.1.5-1.6.8-.7-.4-1.2-1-1.8-1.4-1.1-.7-2.3-.8-3.5-.1-.2.1-.2.4-.4.7.2,0,.5.3.8.2,1.3-.3,2.5.1,3.5,1,.2.2.8.4.4,1-.2.2-.7.2-1,.2-2.3-.2-4.1,1.3-4,3.7v.4c-.7.4-1.1.7-1.6,1.1-.7.7-.5,1.5.1,2.2s1.4.5,2-.1c.2-.2.5-.3.9-.4,1.3,0,2.6,0,3.9-.1.2,0,.5-.2.8-.4-.2-.2-.5-.4-.8-.5-1-.1-2,0-3-.2-.4,0-1.2,0-1.1-.8,0-.4,1-.7,1.6-.4,0,0,.1,0,.2.1.4,0,.8.1,1.2.1s1-.1,1.4-.1h2.7c.1,0,.4-.2.4-.3s-.1-.4-.2-.4c-.2-.1-.5-.2-.8-.2h-1.6c-.4-.1-.9-.4-1.3-.7,0,0,0-.4.1-.4h2.9c.4-.2.9-.2,1.3.1s.9.2,1.2-.1.3-.3.7-.5c.2.1.3.2.4.3.8.8,1.1.7,1.6-.2.3-.7.7-.7,1,0,.7.8,1,1,1.7.3.4-.2.8-.2,1.1,0,.7.3,1.3.4,2.1,0,.3-.1.9-.1,1.3,0s.5.4,0,.7c-.7.2-1.2.4-1.8.7-.4.1-1,0-1.5.1-.7,0-.8.4-.5,1,1,0,1.8-.1,2.7,0,1,.1,1.6,0,2.3-.7v1.6c-.8.1-1.5.1-2.3.3-.2,0-.4.3-.7.5.2.1.4.3.5.3h2.3c0,1.3,1,3,0,3.8-.5.4-1.3-.4-2.1-.5-.1,0-.3.2-.5.4l.4.4c.7.3,1.7.3,2.2,1h.5v-.2l1.3,1.1-1.4-.9ZM94.98,57.57c1.3-1,2.6-1.8,3.7-2.7.8-.8,1.6-1.2,2.8-1.3,2,0,3.5-1,4.8-2.4.4-.5,1-.8,1.6-.8,1.4-.1,2.8-.4,3.8-1.4.2-.2.7-.3,1-.3.9,0,1.6,0,2.5-.2.7-.1,1.4-.2,2-.7,1.2-1,2.5-1.3,4-1.2,1,0,1.8-.1,2.5-.8,1.1-1,2.5-1.2,3.8-1.1,1.1,0,2.2-.1,3.2-.9,1.2-1.1,2.6-1.4,4.2-1.3h.3c1.7,0,1.5-.3,1.5,1.5v53.6c0,.2-.2.4-.4.7-.2-.2-.4-.4-.4-.7-.1-.3,0-.7-.1-1.3-.4.2-.8.5-1.2.8-.2,0-.3.1-.5.2,0-.2-.2-.7,0-.7.2-.2.7-.5,1-.8,1-.4,1.1-.8.5-1.8-.8.3-1.6.7-2.4,1-.8.4-1.4,1-1.5,1.8,0,.2-.4.3-.7.5-.2-.2-.7-.7-.5-.8.2-.7.5-1.3,1.1-1.6,1-.7,2.2-1.1,3.4-1.5.87-.27,1.2-.83,1-1.7v-.2c-.3,0-.8,0-1.1.1-2.1.7-4,1.3-6.1,2-.2,0-.5.2-.8.2s-.4-.1-.5-.2c0-.1,0-.4.2-.7s.4-.2.7-.3c2.3-1.1,4.6-2,7-2.4.7-.1.8-.3.4-1-3.4.4-6.7,1.2-9.7,3-.9.5-1.6,1.2-2.5,1.7-.2.1-.7,0-.9,0,0-.2,0-.7.1-.9,0-.1.2-.2.4-.3,2.5-2.1,5.3-3.4,8.4-4.1,1.2-.3,2.5-.7,3.7-.9.1,0,.2-.2.4-.4-.2-.1-.3-.2-.5-.2h-.9c-2.7.3-5.3,1.1-7.8,2.2-2.2,1-4.1,2.2-5.8,3.8s-2,2.5-2.2,4c0,.4-.2,1-.8.8-.5,0-.7-.5-.5-1,.2-.9.4-1.8.8-2.6.9-1.8,2.3-3.2,3.9-4.2,3.2-2.2,6.7-3.5,10.5-4.3.9-.2,1.8-.3,2.7-.5.1,0,.2-.2.3-.3-.1,0-.2-.2-.4-.2h-.7c-1.6.3-3.4.5-5,1-4.2,1.1-8.3,2.9-11.4,6.1-2,2-3.4,4.2-3,7.1v.5h-.2c-.2-.4-.5-.9-.9-1.2s-.5-1-.4-1.6c.2-1.4.7-2.6,1.5-3.8,1-1.1,2-2.3,2.9-3.5,0-.1-.1-.3-.3-.7-2.7,2.1-5.1,4.3-5.7,7.9-.2,0-.3-.1-.5-.1s-.2,0-.4-.1c0,.2.1.5.3.7,2.1,1.1,3,2.9,3.4,5.2,0,.4.2.8.7.9,1.6.4,2.4,1.5,2.5,3.2,0,.4.2.8.5,1.1.7.7.9,1.4.9,2.3,0,1.3.4,2.5,1.2,3.6,1.1,1.5,2.4,2.6,4.1,3.5.7.3,1.3.4,2.1.4,1.8-.1,3.5.4,5,1.4,1.1.8,2.3,1.6,3.4,2.6.2.2.4.5.4.8.2.8.3,1.5.5,2.3.4,1.3,1,2.5,1.4,3.8-.4.1-.8.2-1.1.4-1.1.3-2.3.8-3.4,1.1-.4.1-.7.2-.4.8.2.8.4,1.6.7,2.5.2,1.1.7,2.2,1,3.3-1.2.7-2.3,1.2-3.5,1.8.8.7,1.4,1.3,2.1,1.8.4.4.4.8-.2,1s-1.4.7-2.1.8c-.2,0-.5,0-.7-.1-.8-.4-1.7-.3-2.4.5,1.1.7,2.2,1.3,3.2,2,.1,0,.4,0,.5-.1.7-1.1,1.6-1.8,2.8-2.2.2,0,.3-.2.5-.3,2-1.6,4.2-2.2,6.6-.3.3-.2.7-.4,1-.4.7-.1,1.1-.4,1.4-1,.4-.8,1.3-.7,1.8,0,.2.3.4.8.8,1.1.2-.1.5-.2.8-.4,1.5-.9,3-1,4.6,0,.1.1.4.2.5.1,1.2-.3,2.3,0,3.2.8,1-.8,1.3-.8,2.3-.2.5.3,1.1.7,1.8,1,0-.4-.1-.7-.1-.9,0-.7-.1-1.2,0-1.7,0-.3.7-.5,1-.8.2.2.4.5.5.8.3,1,.7,2,1,2.8,0,.2.3.3.5.4l.3-.7v-.5c-.1-.8-.4-1.5-.4-2.3-.1-1.2.4-1.6,1.7-1.4,0,1-.2,2,.7,2.8v-.9c0-.4,0-.8.5-.8,1,0,1.8-.1,2.8-.2h.7v-.2c-.4-.2-.8-.5-1.1-.7-.7-.2-1.4-.4-2.1-.8-1.8-1-3.7-1.4-5.5,0-.4.3-.8,0-.7-.4.1-.5.4-1,.7-1.5.2-.4.4-.7.9-1.2-3.8-2-7.5-3.9-11.2-5.9,0-.2.2-.7.3-1,.5-1.6,1.5-3.2,1.5-5s0-.2.2-.3c1.6-1.3,3.2-2.7,5.3-3,1-.2,2.2,0,3-.2,1-.2,2-.8,2.9-1.2h.4c1.6-.1,2.7-1.1,3.4-2.6.2-.4.4-.8.4-1.1.4-1.4,1.3-2.4,2.7-2.9.3-.1.7-.3,1-.4,2.2-1.2,3.7-2.9,4.3-5.4.4-1.5.2-2.9.1-4.3-.1-1.7-.8-3.3-1.8-4.6.1.7.4,1.1.7,1.7.8,2.3.7,4.6-.8,6.7-.2.4-.7.7-1,.2-.1-.1-.1-.7,0-.8,1.5-3.4,1.1-6.5-1.1-9.3-.9-1.1-2-2.2-3.2-3-3.5-2.6-7.6-4.1-11.8-5-2.3-.4-4.6-.7-6.7-1-.4,0-.8-.1-1,.4.1,0,.1.1.2.1h.8c4.6.4,8.8,1.4,13,3.2,2.9,1.3,5.4,3,7.4,5.5,2.1,2.8,2.2,6.2,0,8.9-.9,1.1-2,2.2-3.2,2.9-1.3,1-2.7,1.6-4.1,2.3-.2,0-.5-.1-.8-.1.1-.2.2-.4.4-.7s.3-.1.4-.2c2-1,3.8-2.2,5.3-3.9,2.3-2.8,2.5-6,.2-8.8-.7-.8-1.2-1.4-2-2-5.1-3.8-11.1-5.2-17.3-5.7-.2,0-.4.3-.8.4.2.1.4.3.8.4,3.4.4,6.6,1.1,9.9,2.3,2.8,1.1,5.4,2.4,7.3,4.7,2,2.5,2,5.3-.2,7.6-2.3,2.5-5.2,3.8-8.4,4.9-.2,0-.5-.2-.8-.3.1-.2.2-.5.4-.7s.5-.2.8-.3c2.3-.9,4.3-2,6.2-3.7,2.3-2.2,2.5-4.8.4-7.1-.8-.9-1.7-1.6-2.7-2.3-4-2.5-8.5-3.4-13.2-3.8-.7,0-.8.2-.7.9.2,0,.4.1.7.1,2.2.4,4.3.9,6.6,1.4,2.5.7,4.8,1.6,6.6,3.5,2,1.8,2.1,4,.3,6.1-.1.2-.3.4-.5.5-2.3,2.2-5.1,3.2-8.2,3.9h-.2c-.2-.1-.4-.2-.8-.4.1-.2.2-.5.5-.7.4-.2.9-.2,1.3-.4,2.2-.7,4.3-1.6,6.1-3.2,2-2,1.8-4-.3-5.5-1.6-1.2-3.4-2.1-5.4-2.5-2.1-.5-4.1-1-6.2-1.4-.4-.1-.9,0-1,.7,0,.5-.2,1.1.7,1.2.8,0,1.4.3,2.1.7,1,.3,2,.8,2.4,1.6.2.4.2,1,.2,1.4s-.3.3-.7.4c-.1,0-.4-.2-.4-.4-.5-1.6-2.4-2.9-4.2-2.8-.13.73.13,1.27.8,1.6.2.1.5.2.8.4.4.3.4.7,0,1-.5-.3-1.1-.7-1.6-1,0,.7,0,1-.1,1.3,0,.2-.3.3-.4.5-.1-.2-.3-.3-.4-.5v-54.7c0-.5.2-.8.8-.8h4.7c.3,0,.7,0,1,.2,1.1.8,2.4,1,3.7.7.8-.1,1.3,0,1.8.4,1.1,1,2.4,1.4,3.8,1.5,1.5,0,2.8.4,4,1.6s3,2.1,5,1.8c1-.1,1.8.2,2.6.9,1,1,2.2,1.4,3.6,1.4s.7.3,1,.5c.2.2.2.4.3.7l1.1-1.1c.4,1.8.8,2.2,2.1,2.3-.2-.3-.4-.5-.7-.9-.1-.2-.2-.7,0-.8.1-.2.5-.4.8-.3.4,0,.8.2,1.1.4.2.2.4.5.7.8.1.1.4.2.7.4,0-.2.2-.5.2-.7-.2-.5-.7-1.1-1.1-1.5s-.7-.4-1-.7c.9-.9,1.6-1,2.6-.4.2.1.4,0,.8,0,0-.2,0-.5-.1-.8s-.4-.4-.7-.7c-.3-.2-.7-.3-1-.4.8-1,1.6-.8,3.3.7-.1-.4-.4-.8-.7-1.1-.1-.2-.2-.5-.3-.8h1.1c.2,0,.4.3.7.5.3.5.7,1.1,1,1.7,1.2-.7,2.3-.5,3.5.3.1,0,.4.1.5,0,.1-.2.2-.4.2-.7-.2-.8-.7-1.4-1.4-1.6-.7-.1-1.3,0-1.8-.1-.2-.4-.3-1-.7-1.4-1-1.2-2.4-1.6-3.8-1.2-1.3.4-2.2,1.4-2.3,3,0,.2-.2.7-.4.8-.9.2-1.4.7-2,1.3-.1.1-.4.2-.5.2s-.4-.4-.3-.5c.1-.4.2-1.1.7-1.3.4-.4,1.1-.7,1.7-.9v-1c-1,0-1.7.2-2.4.9-.2.2-.4.4-.7.4-1.3.3-2.6.7-3.8.9-.2,0-.7-.2-.8-.4-.1-.7-.5-.7-1-.7-.8.1-1.6.2-2.5.3-.2,0-.5-.2-.8-.2.2-.2.3-.7.7-.7.4-.2,1-.2,1.4-.3.2,0,.5-.2.5-.4v-3.4c-1.2.2-2.3.3-3.3.5-1.4.2-2.7.7-4.1.9-.2,0-.4-.2-.7-.2.2-.2.3-.5.5-.7s.7-.2.9-.2c0-.9-.5-1.1-1.3-1-1.3.1-2.5.2-3.7.4-.3,0-.8.2-.9,0-.5-.7-1.1-.2-1.6-.2-1,0-2,.1-2.9.1s-.9-.2-.9-.4c-.1-.5.3-.5.8-.7.5,0,1.1-.1,1.6-.2v-.8c-.5-.1-1.4-.2-1.4-.4,0-.9.8-.8,1.3-1v-.8h-29.8c-1.8,0-1.5-.2-1.5,1.5v.8c-.1,1.1-.1,2.2,1.4,2.3.2,0,.3.4.5.7-.2.1-.5.4-.8.3-1.1-.2-2.2-.4-3.2-.8-1.1-.4-2.2-1-3.4-1.4-.1,0-.2-.1-.3-.2-.3-.9-1.2-.7-1.8-1v1.4c.3,0,.7.1.9.2.3.2.7.5,1,.8l2.2,1.1c.1,0,.1.4.2.7-.4,0-1,.3-1.3.1-1.3-.4-2.5-1.1-3.8-1.6-.4-.2-.8-.2-1,.2-.1.4-.2.9.4,1,.2,0,.4.1.7.3s.5.7.8,1c-.4,0-.8.1-1.2.1-1,0-2.1-1-3,.2h-.4c-.4,0-.8,0-1.2-.2-1-.2-2-.5-3-.9v3c0,1.1-.2,1.4-1.4,1.2-.5-.1-1.1-.3-1.4.3,0,.1-.4.1-.8.2h-1.3c.7.7.4,1-.1,1.1-.4.1-.9.1-1.4.2,0,.8-.4.9-1,.8-.7,0-1.1-.3-1.6-.4-.2,0-.7-.2-.9-.1-.8.2-1.4.4-2.2.8-.2,0-.4.3-.9.7.5.1.9.2,1.1.3s.4.4.4.7-.3.4-.5.4h-2.6c-.5,0-1,.2-1.5.4-.2,0-.4.1-.7.1v.2c1.4.4,1.8,1.6,2.5,2.8h.2v.3h-1l.4.6ZM120.28,81.97c2-.4,3.7-1,5.4-1.3,2.7-.5,5.4-1,8.3-1.4.4,0,.8,0,.7-.7v-2.6c0-.7-.2-.8-.8-.7-5.2.3-10.2,1.4-15.2,2.8-1,.3-1.1.2-1.4-1,1.2-.3,2.5-.7,3.7-1s1.8-1.1,2-2.3h0c.2-.2.4-.5.7-.8.2.2.4.4.5.7.1.4.1,1,.1,1.5.5-.1,1-.2,1.4-.2.7-.1,1-.4,1.1-1.1,0-.4,0-1,.5-1s.2.7.4,1c.1.2.4.7.5.7.3-.1.7-.3.8-.7.1-.2,0-.7,0-1v-5.1c0-.1.2-.3.4-.3s.3.2.4.3v5.3c0,.4,0,1,.7,1s.8-.4,1-.9v-7.1c0-.4-.2-1,.4-1s.4.7.4,1v4.7c0,.4.1.8.2,1.1.2.5.8.8,1.4.7.7-.2.7-.7.7-1.2v-11.4c0-1.7-.8-3.2-1.3-4.6-.2-.7-.8-.7-1.1-.1-.3.4-.5,1-.7,1.4-.1.8,0,1.4-.2,2.2,0,.2-.2.7-.4.8-.5,0-.4-.4-.4-.8v-1.1c0-.4,0-.9-.1-1.3,0-.2-.2-.7-.4-.7s-.5.2-.7.4c-.2.4-.4,1-.7,1.4-.3,1.6-.7,3.4-1,5-.1.8-.4,1.3-1.1,1.6-1.2.5-2.4,1.1-3.6,1.4-.7.2-1,.7-1,1.3,0,1.2-.2,2.3-.3,3.5-.1,1.1-.7,1.8-1.8,2.2-.4.1-1,.3-1.3.7-.5.8-1.3,1-2.1,1.2-1,.3-2,.8-3,1.2-.4.1-.8.3-1.3.4-.8,0-1.2-.7-.8-1.2.1-.2.4-.3.8-.4,1.5-.3,2.1-1,2.1-2.5v-4.6c0-.1.2-.4.4-.4s.4.2.4.4v4.1c0,.2.3.5.5.8.2-.2.4-.4.7-.8v-3.8c0-.4-.3-1.3.4-1.3s.4.9.4,1.3v3.4c0,.2.2.7.4.7,1,.2,2.3-.8,2.4-1.7.2-1.4.4-2.8.5-4.2,0-.8.4-1.1,1.1-1.3.9-.2,1.6-.7,1.8-1.6,0-.4.4-.4.7-.1.8.7,1.3.7,1.6-.3,1-2.3,1-4.7.8-7.1h0c-.2-.7-.7-.8-1-.3-.4.4-.8,1.1-1,1.6-.2.7-.2,1.3-.4,2,0,.2-.3.4-.4.7-.2-.2-.4-.4-.5-.7-.1-.5-.1-1.2-.3-1.7-.1-.4-.5-1-.9-1s-.9.3-1.1.7c-.3.5-.7,1.2-.8,1.8-.2,1.3-.4,2.6-.8,3.9,0,.2-.2.5-.3.8h-.2c0-.3-.1-.7-.1-1v-2.6c0-.4-.4-.8-.7-1.1-.3.2-.8.4-1,.8-.4.8-.8,1.6-1.1,2.5-.4,1-.9,1.8-.8,2.9,0,.2,0,.4-.1.5h-.2c0-.3-.1-.8-.1-1.1,0-.5,0-1-.2-1.5,0-.3-.4-.7-.7-.9-.3.2-.8.4-.9.7-.3.8-.7,1.5-.8,2.3-.2,1.4-.4,3-.7,4.5,0,.2-.2.4-.4.7-.1-.2-.2-.4-.2-.7v-4.1c0-.4,0-.9-.1-1.3,0-.2-.3-.4-.5-.4s-.4.2-.5.3c-.1.4-.2.8-.2,1.2v5.4c0,.4,0,1-.5,1s-.4-.5-.5-.9c-.2-1.6-.4-3.2-.8-4.7,0-.4-.4-1-.7-1.3s-.7-.4-1,0c-1.4,1.4-2.5,3-2.3,5.2v1c0,.4,0,1-.7.9-.2,0-.4-.7-.5-1v-2.7c-.1-.2-.3-.7-.5-.7s-.7.2-.8.4c-.2.2-.4.7-.4,1-.7,1.8-1.2,3.7-1.8,5.5,0,.2-.1.5-.2.7-.2.2-.7.4-1,.3-.1,0-.4-.4-.4-.7v-12.2c0-2.2-1.2-3.5-3.4-3.8-.5,0-.8-.2-.9-.8-.2-1.4-1.6-2.4-3.2-2.5-1.4-.1-2.8.8-3.4,2-.1.2-.4.4-.7.5-.7.2-1.2.4-1.7.8-.9.5-1.1,1.4-1.1,2.4s.7,1.1,1.1,1c.8-.4,1.4-.2,2,.4.2.2.4.5.8.8.4-.8-.2-.9-.4-1.1s-.2-.4-.4-.8c.2-.1.7-.4.9-.3.4,0,.9.4,1.3.7h1c.7-.3,1.2-.8,1.8-1.1.4-.3,1-.7,1.3.1,0,.1.4.1.7,0,1-.1,1.6.4,2.2,1.1.1.1,0,.5.1,1-.5-.2-.8-.4-1.1-.7-1.4-.7-3.5,0-4,1.3v.8c.2,0,.4,0,.7-.1,1.3-1,2.2-1,3.5,0,.2.1.5,0,.8,0s.7-.1.9-.2c0,.3.1.7,0,1,0,.4-.2,1-.2,1.4v1.1c0,.1-.2.2-.4.4-.1-.1-.2-.2-.3-.4,0-.2,0-.7-.1-1.1-.5.7-1,1.1-1.4,1.4-.2.2-.4.5-.8.5-1,0-1,.7-1,1.4v3.5c0,.9-.2,1.7-.3,2.6v6.7c0,.4,0,1,.8.9.4-2.6,1-5.2,2.3-7.5h.2v4.6c.3-.2.4-.5.7-.8,1-1.6,2-3.2,3.7-4.2.7-.4.8-.3.9.4v1.6c0,.7.1,1,.7,1.2,1.1.7,1.3,1,1.1,2.3,0,.3,0,.7-.1,1.1.5,0,1-.1,1.4-.1,1.3,0,1.5.2,1,1.4-.3.8-.8,1.4-1.2,2.2.5-.2,1-.5,1.4-.8s.9-.2,1.1.2-.2.7-.5.9c-1.1.8-2.3,1.4-3.5,2.2-.2.1-.4.4-.7.7,0,0,.1.1.1.2,3.3-1.4,7-3.2,10.3-4.6-.8-1.3-1.3-2.1-1.4-2.3-.3-.5-.8-1-1-1.5,0-.2.1-.7.2-.9.2,0,.5.1.8.2.1,0,.2.2.3.4,1.3,1.8,2.5,3.7,3.7,5.4.2.3.5.7.8,1,0,0,.1,0,.2-.1,0-.3-.2-.7-.2-1,1.4-.7,2.8-1.2,4.2-1.7,0-.7-.2-.7-.8-.4-1.3.5-2.5,1-3.8,1.5-.2-.3-.4-.7-.7-1,1.4-.7,2.8-1.1,4.2-1.7-.1-.7-.4-.8-1-.5-1,.4-2,.8-3,1.2-.7.2-1.1,0-1.3-.8,1.4-.5,2.7-1.1,4-1.5,0-.7-.4-.8-1-.5-1.1.4-2.2.8-3.2,1.2-.4.1-.7.1-.8-.4,1.3-.5,2.6-1.1,4-1.6-.1-.2-.2-.4-.3-.5-.3-.4-.8-1-.1-1.3.7-.4.9.2,1.1.7,1.4,2,2.7,3.9,4,5.9.1.1.3.2.5.3v-.7c-.2-.4-.5-1-1-1.5l.4-.2h0l.2.3.1-.1ZM159.28,52.47v-5.5c0-.2-.1-.7-.2-.8-.5-.4-1.1-.9-1.6-1.2-1-.5-1.7,0-1.7,1.1v7.2c0,1.7,1,2.8,2.1,3.8.9.8,1.5.5,1.8-.9v-2.3c0-.1.2-.2.3-.4.1.1.3.2.3.4v5.8c0,.3,0,.8.2,1.1.7.9,1.2,1.7,1.2,2.8s.2.8.8.8.4-.5.4-.8v-6.3c0-.2.2-.8.4-.8.5,0,.4.4.4.8v6.6c0,.3,0,.8.1,1.1.2.5.7,1,1.2.9.7,0,.7-.5.7-1.1v-5.7c0-.2.2-.5.4-.9.1.2.4.5.4.8,0,1.7.1,3.5,0,5.2-.1,1.6,1,2.6,2.3,3,1,.3,1.4,1,1.4,2v.4c0,.2-.2.4-.3.8-.2-.2-.5-.5-.5-.8,0-.9-.4-1.3-1.2-1.3s-.4,0-.7-.1c-2-.7-4-1.1-6.1-1.7-2-.7-3.7-1.4-4.3-3.6,0-.3-.4-.8-.8-.9-1.4-.7-2.1-1.6-2.4-3-.1-.8-.4-1.6-.8-2.4-.2-.3-.7-.5-1.1-.9-.2.4-.5.8-.7,1.1-.1.9,0,1.7-.1,2.6,0,.2-.2.4-.4.7-.1-.2-.4-.4-.4-.7,0-.9,0-1.7-.1-2.6,0-.3-.3-.7-.5-1-.2.2-.7.4-.8.7-.3,1.1-.8,2.3-.8,3.5v12.1c0,4,.2.7.4,1,.3-.2.8-.4,1-.8.1-.2.1-.7.1-.9v-2.2c0-.2.2-.4.4-.7.1.2.4.4.4.7v2.2c0,.4,0,1.1.7,1.1s.7-.7.8-1.1v-5.9c0-.2.2-.2.4-.4.1.1.4.2.4.4v7c0,.4,0,.8.1,1.2.3,1.1,2.2,1.8,3,1.1.7-.4,1-.3,1.3.2s.9.5,1.3.4c.2,0,.2-.5.4-.9.1-.2.3-.4.4-.7.1.2.3.4.4.7v.4c0,.7.2,1,.8,1s.4-.7.4-1c0-1.6,0-3.4.1-5.1,0-.2.2-.4.4-.7.1.2.4.4.4.7v5.7c0,.2.4.5.7.9.2-.2.7-.4.9-.8.1-.3,0-.8,0-1.1v-1.7c0-.2.3-.5.4-.8.1.2.4.5.4.8v3.2c0,.2,0,.7.2.9.1.2.5.3.8.3s.3-.4.4-.7v-4.5c0-.2.2-.4.4-.7.1.2.3.4.4.7v4.5c0,.4,0,1.1.7,1.1s.8-.5.9-1.1v-3.4c0-.4-.1-1,.5-1s.4.7.4,1v5.1c.2.3.4.8.8.8.5,0,.4-.4.4-.8v-4c0-.4-.1-1.1.4-1.1s.4.7.4,1.1v4.7c0,.3.2.7.4,1,.2-.2.7-.3.8-.7.5-.8,1-1.6,1.4-2.5,1-1.7,1.1-1.7,3-1.3.9.2,1.7.3,2.3-.7h.2c0,.2.2.4.3.8.3,1.1,1,1.8,2.2,2.1,1,.1,1.4.8,1.5,1.6.1,1.8,1.6,2.3,2.8,3.4,0-.3.1-.4.1-.7v-7.5c0-.2,0-.4-.2-.7-.8-1.3-1.4-2.7-2.2-4-.1-.2-.4-.5-.8-.7-1.4-.2-2.4-1.1-3.2-2.3,0-.1-.2-.2-.2-.3-.2.8-.1,1.6-.2,2.3,0,.2-.4.4-.7.8-.2-.2-.5-.4-.7-.7-.2-.4-.2-.8-.3-1.3-.2-1.1-.5-2.3-1-3.5-.1-.3-.3-.9-.9-.7-.2.1-.7.7-.7,1-.1.9,0,1.6-.1,2.5,0,.2-.3.5-.4.8-.1-.2-.4-.5-.4-.8v-3c0-1-.4-1.6-1-1.6s-.9.5-1,1.6c0,.4-.1.9-.2,1.3h-.3c-.1-.3-.2-.7-.3-1-.2-.8-.3-1.6-.5-2.5-.2-1.2-.4-1.3-1.7-1.4-1.4,0-2-.7-2-2.1v-7.1c0-1.1-.3-1.4-1.6-1.5v4.2c0,.2-.2.3-.4.5-.1-.2-.3-.3-.4-.5s0-.4,0-.7v-3.6c0-.3,0-.7-.2-1-1.4-1.7-3.5-2.2-5.8-2.1v5.1c0,.4,0,.8-.7.7h.8l.7.4ZM178.78,108.67c0-2.3.7-4.2,2.4-5.9,1.6,1.3,2.5,3,2.3,5.2.8-.3,1.4-.7,2.1-1-.2-.2-.4-.4-.5-.7-.1-.2-.2-.4-.3-.7.2,0,.4-.2.7-.2h2.6c-.2-.3-.2-.4-.3-.7-1.6-2-1.8-4.2-1.6-6.6,0-.8.3-1,1.1-.8.9.2,1.8.5,2.7.8.2-2.2,1.3-3.8,2.8-5.4.3-.3.7-.4,1,0,.5.5,1,1.1,1.4,1.5.2-.2.5-.5.8-.4.2,0,.4.4.7.8.1.2.2.4.3.7s.4.4.5.4c.3-.1.7-.3.9-.5s0-.4,0-.7v-9.6c0-.3,0-.7-.1-1-1.2.4-2.3.7-3.4,1.1-.2,0-.7.2-.8.4-.4.7-1.2,1-2,1.2-1.3.4-2.3,1.3-2.8,2.6-.1.3-.3.8-.4,1.1-.9,2-2.3,3.4-4.3,3.8-.4.1-1,.3-1.4.4-1.8.4-2.6,1.8-2.8,3.5-.1,1.8-1,3.3-2.2,4.5s-1.2,1.5-1.4,2.5c-.2.8-.7,1.6-1.1,2.3-1.2,1.7-2.7,3.2-4.7,4.1-1.3.7-2.1,1.5-2.5,2.8-.2.5-.4,1.1-.8,1.6-.9,1.3-2.2,2-3.6,2.4-1,.2-2,.7-2.8,1.1-.7.2-1.1.4-1.7.3-2.5-.4-4.3.8-6.4,2.3,1.1.5,2,1.1,3,1.4.4.2.5.4.5,1-.1,1-.1,2.1-.2,3,0,.2.1.4.2.7h.3v-1.1c.1-.8.2-1.4.4-2.2,0-.1.2-.2.4-.3,0,.2.2.3.1.5,0,.2-.2.5-.2.8,1.1.9.2,2.3.8,3.3.2-.3.4-.7.7-.9.2.3.5.7.8,1,.4.7.9,1.2,1.4,2,.2-.5.4-.9.7-1.3s.2-.7-.2-.9c-.3-.1-.7-.3-1-.7-.1-.1-.2-.4-.2-.7.2,0,.4-.2.7-.2.5.1,1.1.4,1.6.5.2,0,.5.1.7,0,1.4-.7,2.9-1.4,4.3-2.1l-.2-.2c-1.1-.5-2.1-1.1-3.2-1.6-.2-.1-.4-.4-.8-.8.2-.2.5-.7.9-.7,1.5-.7,3.2-.8,4.7-.5.8.1,1.4.2,2.3.4-.7-1.8-1.7-3-3.2-4-.3-.2-.7-.5-1-.8,1.4-1.3,3.7-2.3,6.4-.8.9-1.1,1.8-2.3,2.7-3.4,0-.1-.3-.3-.4-.5-.7-1-1.2-2-1.7-2.9-.2-.4,0-.7.3-1,1-.5,2.1-.7,3.3-.1-.2-1.8-.3-3.6,1.2-4.9,0,1.4-.8,2.8,0,4.2h0c0-.1-.2.2-.2.2l-.3.4ZM100.08,107.27c.7-.5,1.1-1.1,1.7-1.4.2-.2.7,0,1.1,0,0,.3,0,.7-.2,1-.3.5-.8,1-1.2,1.5.7.1,1.1.2,1.6.4.7.2.9,0,1.1-.4,1.5-2.8,4-4.5,7.2-4.9.4,0,.8,0,1.3-.1v-.8c-.2-1.8-1.3-3.2-2.9-3.9-1.6-.8-2.7-1.8-3.5-3.5-.2-.4-.4-.8-.7-1.1-.7-1.1-1.4-2-2.6-2.3-1.3-.4-2.5-1-3.7-1.3-1.8-.4-3.2-1.5-4.2-3-.7-.8-1.3-1.4-2.3-1.5-1.8-.2-3-1.3-4.3-2.4-.8-.5-1.1-1.3-1.3-2.2-.1-.8-.2-1.6-.3-2.5-1.6,1.2-3.2,1.5-4.9.4-.2,2.6.7,5.4-2.2,7.4,1.1,0,1,.7,1,1.1s-.1,1-.2,1.5c-.1.8-.2,1.6-.3,2.5h.2c.1-.2.2-.5.3-.8.4-1.2,1-2.5,1.4-3.7,0-.2.4-.2.7-.4.1.2.3.4.3.8s-.1.7-.2,1c-.4,1.4-1,2.9-1.4,4.3,0,.2-.1.4-.2.8.2-.1.4-.2.5-.4l2-4c.4-.8.8-1.6,1.2-2.3.1-.2.5-.3.7-.2s.3.4.3.8-.2.7-.3,1c-1,2-1.8,3.9-2.7,5.9-.1.2-.2.5-.2.8,0,0,.1,0,.2.1.1-.2.3-.4.4-.7.7-1,1.3-2,2-2.8.3-.4.7-1.3,1.3-.9.8.4,0,1.1-.2,1.6-.7,1.1-1.3,2.1-2.1,3.3.7,0,1.1-.1,1.5-.2.8-.2,1.5-.4,2-.9.3-.2.1-1.1.1-1.6v-.3c.1-1,.3-1.1,1.3-.8,1.6.7,3,1.6,3.9,2.9.9-.4,1.7-.8,2.5-1.1.4-.2.8,0,1,.4.1.8.3,1.4.4,2.2.1,1.5-.4,2.9-1.5,4.2,1.8-.4,3.4-.8,5.1-1.2-.4,3.5-2.5,5.1-5.2,6,.5,1.4,1,2.8,1.5,4.1.5-.1.8-.4.4-1-.2-.4-.4-.9-.5-1.3-.2-.7-.2-1.3.5-2,.5.9,1,1.6,1.4,2.5.1-1,.2-1.7.4-2.5,0-.2.4-.4.7-.7.1.2.3.5.3.8v2.2h0v-.4h-.2ZM125.88,133.77c.2.7.3,1.3.5,1.8,0,.2.3.4.5.7,0-.2.2-.7.2-.9,0-.8,0-1.6-.2-2.5,0-.8.1-1.1.9-1.4.9-.3,1.7-.8,2.6-1.3-.2-.4-.4-.8-.7-.9-1.7-1.1-3.4-2.5-5.5-2.8-.5,0-1-.5-1.5-.8-.7-.3-1.2-.8-1.8-1.1-.7-.2-1.3-.2-1.8-.4-1.6-.2-2.9-.9-3.8-2.4-1.5-2.4-5.3-2.7-7.4-.9-.1.1-.2.3-.4.5,1.7-.7,3.4-.8,5.1-.2,0,0,0,.2.1.2l-.7.2c.4.2.7.4,1,.4,1.8.7,3,2.2,3.2,3.8,0,.7-.1.9-.8.9h-2.8c-.8,0-1.7.2-2.3,0-.7-.3-1-1.3-1.4-2-.5-.8-1.3-1.4-2.2-1.5-1-.1-1.4-.5-1.8-1.5-.4-1.2-1.6-1.6-2.6-1.3,1.4.7,1.8,1.1,1.5,2.2-1.1-.8-2.4-1-3.7-.4-1.2.4-2.3,1-2.9,2.2.9.5,1.6,1.1,2.5,1.6v-.4c-.4-1,0-1.8,1.1-1.6.8.1,1.6.5,2.3,1s.7,1,.5,1.7c-.2.9-.2,1.8-.2,2.7s.2.4.4.8c0,0,.1,0,.2-.1,0-.4,0-1,.1-1.4,0-.4.1-1,.2-1.4,0-.2.3-.4.4-.4.2,0,.4.2.5.4.2.3.2.8.4,1.1.1.4.2.9.3,1.3.7,0,.8-.2.8-.8s-.2-1.3-.3-2.1v-.8c.2,0,.7,0,.8.1.4.7,1.1,1.2,1.3,2,.3,1.3,1.1,1.8,2.3,2,.2,0,.5,0,.8.1,2.8.4,4.3,2.3,4.6,5.1.1,2-.5,3.8-1.4,5.4v.7c.2,0,.5-.1.7-.2,1.4-1.8,2.2-3.9,1.6-6.2-.2-1.3-.9-2.6-1.3-3.9,0-.2,0-.7.1-.9.2,0,.7,0,.8.2.2.2.4.5.5.8.2.4.4,1,.8,1.6.1-.8.2-1.4.4-2.1.1-.3.4-.8.8-.8.7,0,.4.5.4,1,0,.8-.2,1.6-.3,2.3.9-.5,1.7-1.1,2.6-1.5,1.1-.4,2.2-.4,3.3.2.3.2.7.5.2.9-.2.3-.7.7-1.1.2-.4-.4-.9-.4-1.3-.2-1.2.7-2.1,1.4-2.6,2.7-.1.2,0,.7-.1.9h.2c.8-.7,1.4-1.4,2.3-1.8.9-.4,2-.7,3-1l.2.2h-.1ZM88.38,29.97s.1,0,.2.1c.3-.4.7-.8,1.1-1.1s.9-.7,1.4-.8c.8-.2,1.1-.1,1.4.2-2.2,1.4-2.9,2.5-2.4,3.4.4-.4.8-.9,1.1-1.2.3-.2.9-.7,1.2-.5.4.1.8,0,1.1-.1.9-.4,2.2,0,2.7.7.4.7.3,1-.4,1.1-.8.2-1.6.3-2.4.7-3.2,1.7-3.2,3.8-2.9,7.2.8.1,1-.2.9-.8,0-.4,0-.9.2-1.1,1-1.2,2.1-2.5,3.7-2.8,1.3-.3,2.5-.5,3.4.8,0,.1.2.2.4.2h1c-.1-.2-.2-.4-.3-.8,0-.1-.2-.2-.2-.2-.2-.2-.8-.5-.3-1,.2-.1.7,0,1,0s.2.1.4.2c.7.4,1.3.4,2.1,0-.3-.2-.5-.5-.8-.8s-.7-.3-.8-.5c-.1-.1-.2-.4-.2-.7.2,0,.5-.2.8-.2.4.1.9.4,1.3.5s1,.2,1.4.3c.2,0,.4-.1.8-.2-.1-.2-.2-.4-.4-.7-.2-.2-.5-.3-.8-.4-.3-.2-1-.4-.8-1,.2-.7.9-.2,1.3,0,.4.1.8.3,1.2.5s.8.4,1.1.4h.9c-.1-.2-.2-.7-.4-.8-.7-.4-1.3-.8-1.8-1.2-.2-.1-.2-.4-.4-.8.3,0,.7-.3,1-.2.4,0,.8.4,1.1.5h.8v-.9c-.2-.3-.7-.5-.9-.8-.1-.1-.2-.4-.1-.7.1-.1.4-.2.7-.2s.4.2.5.3c.5.7,1,.7,1.5,0,0,0,.2-.2.3-.2h.9c0,.2-.1.7-.2.8-.2.3-.7.7-.9,1v.7h.7c.4-.2.8-.5,1.1-.7.3,0,1,0,1.1.2.3.4-.2.7-.5.8-.7.4-1.3.8-2,1.2-.2.1-.2.4-.3.7.2,0,.5.2.8.2.4,0,.8-.2,1.1-.4.7-.2,1.2-.7,1.8-.8.2,0,.5.1.8.2-.1.2-.1.5-.3.7-.4.2-.9.4-1.2.8-.2.1-.3.4-.4.7,0,.1.1.2.2.3.8-.2,1.6-.4,2.5-.7s.8-.4,1.2-.4.5.2.8.2c-.1.2-.2.4-.3.7-.2.2-.7.4-1,.7-.4.3-.3.7.1.8s1.1,0,1.5,0c.8-.2,1-.1,1,.7v2.6c0,.4.2.8.4,1.2.1-.4.4-.8.4-1.2v-7c0-.9.2-1.4,1.1-1.8,1.1-.4,1.6-1.3,1.4-2.5,0-.2-.2-.4-.3-.7-.1.2-.4.4-.4.7.1,1.3-.8,1.6-1.7,2v-2c0-.2-.2-.4-.4-.7-.1.2-.4.4-.4.7v4.3c-.8-1-1.6-1.3-2.8-1.3v-1.1c.1-2.3-1-3.4-3.3-3.2-.2,0-.5-.1-.7-.2-1.6-2.3-4-2.3-5.8,0-.1.1-.4.2-.7.2-2-.2-3.4,1.1-3.2,3.2,0,.4,0,.8.1,1.2-1.6-.1-2.6.8-3.4,2.1-.1-.7-.2-1.1-.2-1.6-.2-1.8-1.1-2.5-2.8-2-.5.1-.9.1-1.2-.4-.2-.3-.5-.5-.9-.7-2.2-1-4.3.9-4.9,2.5v.7h-.3l.2.2h-.4ZM106.28,61.97c1.1-.4,2.3-.8,3.2-1.4,1.4-1.1,2.8-1.2,4.3-1,.4,0,1-.1,1.2-.4.8-.7,1.4-1.4,2.1-2.3.2-.4.4-1,.4-1.4v-4.7c0-.3.2-1,.4-1,.7,0,.4.5.5,1v4.1c0,.2.2.7.3.7.2,0,.5-.1.8-.3s.2-.4.2-.8v-2.7c0-.2.3-.4.4-.7.1.2.3.4.4.7s0,.5,0,.9v2.3c.4-.2,1-.3,1-.4.2-.7.8-.9,1.3-1.1,1-.3,1.4-1,1.4-2v-1.1c0-.2.2-.4.4-.7.1.2.4.4.4.7v2.1c0,.3.3.8.7.8.4.1.7-.3.7-.8v-4.9c0-.2.2-.3.4-.5.1.1.4.3.4.5v4.6c0,.5.1,1,.8,1s.8-.4.8-1v-6.4h-2.8c-1.3,0-2.3.9-3.2,1.6-.3.2-.2,1.2-.2,1.8v.5c0,.2-.2.4-.4.5-.1-.2-.3-.3-.3-.5,0-.8,0-1.4-.1-2.3-1.2.2-2.4,0-3.3.7-1.6,1-3.3,1.6-5.2,1.5h-.4c-1.3.1-1.6.4-1.6,1.7v3.7c0,.2-.2.4-.3.7h-.4c-.1-.2-.2-.4-.2-.8v-3.8c-.8,0-1.3.1-2,.1h-.7c-.9.2-1.7,1.3-1.7,2.2v8.4h.2v.2h.1ZM87.48,73.97h.1c.4.1,1-.2,1.3-.1.7.1,1.1-.1,1.3-.7,1.3-1.8.5-5.1-2.1-5.4-.1,0-.2,0-.3-.1v-.3c0-2.2-1.4-3.4-3.6-3.2-.5,0-.8-.2-1-.7-.8-1.4-1.8-1.8-3.5-1.4-.4,0-.7,0-.8-.3-.9-1.3-2.3-1.8-3.8-1.4-1,.2-1.7,1-2.2,1.8-1.8-.5-3.3-.1-4,1.2-.3.5-.7.7-1.2.4-1.8-.3-3.3.9-3.4,2.6v1c-.8.3-1.8,0-2.1,1.1h.8c1.4,0,2.8,0,3.9,1.2,0,.1.5.1.7,0s.2-.5.2-.7c-.3-.4-.8-1-1.1-1.3-.2-.2-.3-.5-.5-.8.4,0,.8-.2,1.1-.2s.7.3.9.7c.3.2.5.7.9.9.3.1.8,0,1.2,0v-1.1c0-.2-.3-.4-.7-.7-.3-.2-.7-.4-1.1-.8v-.3c.4,0,.8-.2,1.1-.2,1.1.3,1.8,1.1,2.2,2.3,0,.2.1.5.3.8.4.4,1,.8,1.5,1.1.2.1.7,0,.8,0,.1-.1.1-.5,0-.8-.2-.4-.7-.8-1-1.1s-.4-.5-.1-.9.7-.2,1,.1.8.8,1.1,1.1c1,.8,2,.8,2.9,0,.2-.1.3-.4.7-.4s.8-.1,1,0c.4.2.1.7-.1.9-.3.3-.7.7-1,1.1,0,.1-.1.4,0,.5,0,.1.3.2.5.2s.4-.2.8-.4c.5-.3,1-.9,1.6-1.1,1-.2,1.8-.7,2.3-1.4.2-.4.8-.4,1.1-.1.4.4,0,.7-.2,1-.3.4-.7,1-.9,1.5,0,.2,0,.7.2.8s.4,0,.8-.2.7-.5,1-.8c.8-.4,1.2-.2,1.6.4-.7.5-1.3,1-1.8,1.6-.2.2-.2.8-.3,1.1.4,0,.8.2,1.2.1.2,0,.5-.3.8-.5s.5-.5.9-.7c.2,0,.7,0,.8.1s0,.7,0,.8c-.2.3-.7.5-.9.9-.2.2-.2.4-.4.8h-.5ZM198.38,117.47c-.7-.7-1-.9-1.8-.4-2.5,1.2-5.1,1.4-7.6.7-1-.3-1-.5-.3-1.3,2.3,1.1,4.7.9,7.1-.2-.8-.8-1.6-.8-2.4-.5-1.3.4-2.5.2-3.7-.1-1.6-.4-1.7-1.3-.7-2.6.2-.2.7-.4,1-.7,1.3-.4,2.8,0,3.7,1.1.1.1.2.3.4.4,1,.2,2.1.5,3.2.8,0-1.1-1.3-1.5-1.8-2.5,1.7-1,2.2.8,3.2,1.3,0-.4-.2-.9-.3-1.3,0-.2,0-.4-.1-.8.2,0,.7,0,.8.1.4.4.8,1,1.1,1.6s.4.7,1.1.3c-.2-.4-.2-1-.5-1.4-1.1-1.7-2.5-3-4.5-3.7-3.5-1.3-6.7-.1-8.6,3-.3.5-.8,1.1-1.3,1.4-.8.8-1.7,1.4-2.5,2.3-1.2,1.3-1.3,1.3-2.8.2-1.2-1-2.5-.9-3.7-.2-.7.3-1.2.9-1.3,1.6.9-.4,1.6-.9,2.5-1.1,1.4-.4,2.5.2,2.7,1.8,0,.2,0,.4.1.7.9,2,2.4,3.3,4.3,4h.7v-.2c-.2-.2-.7-.4-.9-.7-1-.9-2-1.6-2.7-2.6-.7-.9-.4-1.3.5-2v.2c.1,1.6,1.2,2.5,2.5,3.2,4,2.2,8.3,2.1,12.6.7,1-.3,1.7-.8,2.8-1.3-.4-.3-.7-.7-.9-.8-.1,0-.4-.1-.5,0-2,1.6-4.3,2-6.7,2.1-2.3,0-4.6-.3-6.6-1.6-.7-.4-1.1-1-1.6-1.4-.3-.3-.2-.8.2-1.1.1,0,.4.2.7.3.4.4.9,1,1.4,1.3,3.2,1.7,6.4,1.8,9.7.8.8-.2,1.4-.7,2.2-1.1h-.2v-.3h-.5ZM171.08,33.67s0-.2.1-.2c-.3-.2-.7-.4-1-.7-.4-.2-1-.3-1.5-.7-.3-.1-.9-.3-.5-.9.2-.4.8-.3,1.1,0,.2.1.4.3.8.4.8.2,1.4.4,2.3.7.2,0,.5,0,.7-.2s0-.5,0-.7c-.2-.2-.5-.3-.8-.4-.7-.2-1.2-.4-1.8-.8-.2-.1-.3-.4-.4-.7.2,0,.7-.2.9-.2.4.1,1,.3,1.4.5,1,.5,1.8.4,2.8,0,.4-.2,1-.4,1.5-.5.2,0,.4.2.7.3-.1.2-.2.4-.3.7-.3.2-.7.3-1.1.4-.4.2-1,.3-1.4.7-.2.1-.2.5-.2.9,0,0,.3.2.4.1,1.1-.4,2.3-.9,3.4-1.3.2,0,.7.1.9.2-.1.2-.1.7-.3.8-.7.3-1.2.5-1.8.8-.2.1-.5.4-.8.7,0,0,0,.1.1.2,1.2,0,2.3,0,3.4-.5s.9-.7,1.2,0c.3.5-.2.8-.5,1.1s-.3.4-.5.8c2.3.2,3.4-1.4,3.5-2.6.1-1.4-.7-2.3-2.2-2.4-.2-1.5-.4-1.6-2-2.1-.4-1.6-1.1-2-2.8-1.3-.4-.3-1-.9-1.3-.9-1,0-1.8.2-2.8,0-.3,0-.9.5-1.3.8-1.3-.7-2.1-.2-2.6,1.1,0,.1-.1.3-.2.3-1.2.1-1.5,1-1.7,2-.7,0-1.3.1-2,.2v-4.6c0-.2-.3-.4-.4-.8-.1.2-.4.4-.4.8v2.8c-1.3-.2-1.6-.7-1.8-1.8,0-.2,0-.3-.1-.5,0-.1-.2-.2-.3-.2s-.2.2-.2.2c-.2.9.1,2.2,1,2.6.3.2.7.4,1.1.7s.5.4.5.9v7.8c1.2-1.2.5-2.6,1-4,.2.2.4.4.7.4.7.2,1.3.4,2,.7.1,0,.4-.1.7-.2-.1-.2-.2-.4-.3-.5-.3-.3-1.1-.4-.8-1.1.4-.7,1,0,1.4,0,1.1.4,2.1.5,3.2.4h.1l-.8-.2ZM188.98,85.57c.1,0,.2,0,.3.1.2-.5.8-1.1.8-1.6v-14.5c0-.3,0-.8-.2-1-1.4-1.6-2.6-3.7-5.3-3.5h-.2c-.1,0-.3-.2-.3-.3s0-.3.2-.4.4-.2.7-.2c1.4-.2,2.7,0,3.8.9.3.2.7.4,1,.7.4-.3.8-.7,1.1-1,1-.8,2.2-1,3.4-.7.3,0,.5.5.8.8-.2,0-.7.1-.9.1-1.5-.1-2.7.7-3,1.8,0,.2.1.7.1.9.2-.2.4-.3.8-.5.4-.3.9-1,1.1-1,.9.2,1.6.1,2.5.1s1.3,0,1.7-.7c.8-1.2.4-2.6-.7-3.6-.1-.1-.2-.3-.2-.4-.4-.4-.8-.9-1.3-1.1-.4-.2-1-.1-1.5-.2,0,0,0-.1-.1-.2-.5-1.4-1.6-2.3-3-2.3s-2.5.7-3.2,2c0,.2-.4.4-.8.4-1.7.2-2.9,1.1-3.7,2.6s-.4,3.2,1,4.2c.5.4,1,.4,1.3-.1,0-.1.3-.2.4-.2.4.1,1,.2,1.3.4.7.5,1.3,1.1,1.8,1.7.2.2.4.8.4,1.1v15.5h.1-.1l-.1.2ZM172.48,81.17c-.4-.1-.7-.3-1-.4-5.1-1.8-10.2-3.4-15.5-4.2-2.2-.4-4.3-.7-6.5-1-.8-.1-1,.2-1,1v2.2c0,.7.2.8.8.9,4.2.4,8.5,1.3,12.6,2.5,3.8,1.2,7.6,2.7,11.2,4.6,3.6,1.8.8.4,1.1-.2-1.1-.8-2.3-1.5-3.5-2.4.7-1,1.2-1.8,1.8-2.8h0v-.2ZM132.78,126.47c1-.1,1.3-.7,1.1-1.5-.1-.7-.2-1.2-.3-1.8,0-.5-.2-.9-.8-1.1s-1.1-.7-1.4-1.1c-1.4-1.8-3.4-2.3-5.5-2.2-.5,0-1.2,0-1.6-.2-.7-.2-1.2-.7-1.8-1-2.8-1.8-4.7-4.2-4.9-7.6v-.4c-.4,1.6-.8,3.3-1.4,4.9-.7,1.7-2.2,2.6-3.5,3.8.2,0,.3.1.4.2.7.4,1.1.2,1.6-.2.8-.8,1.7-1.2,2.6-1.7.2-.1.5.1.9.2-.1.2-.2.4-.4.7s-.4.2-.7.3c-.7.4-1.3,1-1.7,1.8.3,0,.5,0,.8-.1s.8-.3,1.1-.4h1.3c-.2.3-.4.8-.7,1.1l-.8.8c1.1.8,2,.8,2.8.1.2-.1.4-.3.7-.3h1c-.1.2-.1.7-.3.8-.2.4-.7.7-1,1.1.9.2,1.5.3,2.2-.2.3-.2.8-.4,1.3-.5.4-.1.7,0,.5.5,0,.2-.1.4-.2.7-.2.4-.1.8.4.9,1,.2,2,.4,3,.7.27.73.87,1.07,1.8,1,.2,0,.4.2.4.3.1.2.2.5.2.8.1.8.7.8,1.3.7.8-.1,1-.5.8-1.2-.2-.8-.3-1.4-.4-2.2h.2c.2.1.4.2.5.4.2.8.4,1.6.7,2.5h0l-.2-.2v-.4ZM205.98,61.47h-.2v-1.6c0-.7-.2-1.1-.8-1.4-1-.7-1.6-1.5-2-2.6,0-.2-.4-.3-.7-.4-.1.2-.4.4-.4.7,0,1,.4,2,1.1,2.5,1.4,1,1.4,2.3,1.3,3.8v28.7c.9,0,1.1-.2,1.1-.9v-15.3c0-.8.2-1.3,1-1.6,1.1-.4,3.4,1.1,3.4,2.3v7.5c0,.3,0,.7.1,1,.9,0,1.1-.4,1.1-1.3v-26.3c0-.3.2-.9-.5-.9s-.7.4-.7.9c0,.7-.2,1.2-.8,1.6-.4.4-.8.9-1.1,1.3-.8.8-1.4,1.6-2.2,2.4h0l.2-.2.1-.2ZM196.08,75.37c-1.6.7-2.1,1.3-1.8,2.6,0,.5.3,1.1,1,1,.7,0,.2-.7.4-1,0-.2.2-.7.4-.8.2,0,.7,0,.9.2.4.7.8.7,1.2,0,0-.1.4-.4.5-.3.2.1.3.3.4.5s0,.4,0,.7c0,5.8.1,11.5.1,17.3v1h.2c.1-.2.3-.4.4-.7v-2c0-5.2,0-10.3.1-15.5v-1c0-.2.2-.4.3-.5,0,0,.3.1.4.2.2.2.3.4.5.8.4-.4,1-.8,1.1-1.1,0-1.3,0-2.6-.1-4,0-.2-.4-.5-.8-.7-.1,0-.4.2-.7.4-.2.1-.4.3-.7.5,0-.2-.2-.5-.2-.8v-14.5c0-.2-.3-.4-.5-.5-.2.2-.4.4-.5.7v15.1c0,.2-.2.3-.3.5-.1-.1-.3-.2-.4-.4-.5-.9-.8-.9-1.3,0-.1.1-.3.2-.4.4-.2.2-.4.5-.4.9v.9h.1l.1.1ZM176.48,52.57v3.4c0,.2-.2.3-.4.5-.1-.2-.4-.3-.4-.5,0-1-.1-1.8,0-2.7,0-.8-.3-1.1-1.1-1.1v7.6c0,.7.4.8,1.2.7v-2c0-.2.2-.4.4-.7.1.2.4.4.4.8v2c0,.7.4,1,1.3.8v-2.6c0-.2.3-.4.4-.7.1.2.4.4.4.7v2c-.1,1.3.7,2.3,1.4,3.2.4.5.8.4,1-.2.7-2.2,2-3.5,4.1-4,.9-.2,1.1-.8,1.4-1.4.2-.5,0-1.2-.7-1.3-1.1-.1-2.2-.2-3.4-.3,0,.5,0,1-.1,1.4,0,.2-.2.3-.4.4-.1-.1-.2-.2-.3-.4v-1c0-.7-.2-1.1-.9-1.4-1.3-.5-2.2-1.4-3-2.5-.3-.4-.8-.7-1.4-.4h.1-.1l.1-.3ZM78.28,84.37c.1-2.8.2-5.4.4-8.2,0-.9.3-1.6.4-2.5,0-.2-.2-.4-.2-.8-.2.1-.5.2-.7.4s-.2.5-.2.8c-.1.8-.2,1.6-.4,2.3-.1.3-.4.8-.8.8s-.8-.2-1-.5c-.2-.4-.4-1-.5-1.4-.1-.7-.2-1.2-.3-1.8,0-.2-.4-.4-.7-.7-.1.2-.4.7-.4.9.2,2,.8,3.9,2.2,5.5.2.2.3.7.3.9v8.2c0,.2,0,.7.2.8.8.8.8,1.1-.2,1.5v3.7c.7-.2.8,0,.7.5,0,.7-.1,1.3,0,2,.2.7.1,1.1-.7,1.3v1.1c.2,0,.4.1.7.2,1.3.4,1.4.4,1.4-1v-11.4c0-.8.2-1.3.8-1.8s1.3-1.3,1.4-2.1c.2-1.3,0-2.6,0-3.8-.8-.1-1,.1-1,.8v2.6c0,.8-.4,1.2-1.4,1.4h0v.4-.1ZM97.28,120.37c.1-.4.2-.8.2-1.1,0-1.8-.7-3.4-2.2-4.5-.3-.2-.7-.7-.9-1-1.2-2.1-3.2-3-5.4-2.9-2.4,0-4.1,1.3-5.3,3.4-.1.2,0,.7,0,.9.2,0,.7-.1.8-.3.7-.3,1.1-.9,1.7-1.1.8-.2,1,0,.8.9s-.2,1.1-.1,1.2c.7.3.9-.3,1.1-.7.3-.4.7-.3,1,0s.1.4.1.8-.2.7-.3,1.1c.8-.2,1.4-.4,2.1-.7.2-.1.3-.4.5-.8s.5-.7,1-.3c.4.2.3.7.1,1-.3.7-.7,1.2-1.1,1.8-.3.5-.2.9.1,1.2.7-.7,1.3-1.2,2-1.6.2-.1.7,0,1,.1-.1.2-.1.7-.3.9-.4.7-1.1,1.2-1.5,1.8-.1.2-.1.4-.2.8,1.6-1,2.8-2.8,4.9-.5h0v-.3l-.1-.1ZM83.48,103.77h.2c.2-.2.3-.5.7-.9.3-.4.7-1,1-1.3.1-.1.5,0,.8-.1v.8c-.3,1-.8,2-1,3-.1.7-.1,1.2-.1,1.8h.2c.1-.4.3-1,.5-1.4.2-.7.5-1.1.9-1.6.1-.1.4-.1.8-.2,0,.2.1.4.1.7,0,.4-.2.9-.3,1.3-.1,1-.2,1.8-.4,2.7h.3c.1-.4.3-.8.4-1.2.2-.5.4-1.1.8-1.6,0-.2.4-.2.7-.3,0,.2.2.4.2.7,0,.4-.1.8-.1,1.1,0,.8-.1,1.4-.1,2.3h.3c.4-1.3.8-2.5,1.1-3.8-.2,0-.4,0-.5-.2-.2-.2-.2-.4-.4-.7.2-.1.4-.3.7-.3s.7.1.9.2c1.1.2,2.1.4,3.4.7-.3-.8-.5-1.3-.8-1.7,0-.1-.3-.2-.5-.2-1.4,0-2.9.1-4.3.1s-.8-.4-.9-.8c0-.7.4-.7,1-.7h1c1.1.1,2.2.2,3.5.4-1-1.1-1.8-2.3-2.8-3.2-1.8-1.8-4.1-2.5-6.6-2.1-1.2.2-2.1.8-2.5,1.8,1.3-.2,2.6-.4,4-.5.2,0,.9.4,1,.7,0,.4-.4.5-.9.5-1.2,0-2.3.3-3.4,1l-.8.8s0,.1.1.2c1-.2,1.8-.4,2.9-.7-.2,1.1-.4,2-.7,2.8h-.1c0,.1,0-.1,0-.1h-.3ZM98.98,66.47c.8.2,1.3,0,1.6-.7,0-.2.3-.4.5-.4,1.5-.4,1.6-.4,1.6-2.1v-6.4c0-.4-.1-1.1.5-1.1s.4.7.4,1.1v6.1c0,.2.2.7.3.7.2,0,.7-.1.7-.3.2-.3.3-.8.3-1.1v-8.2c-1.5.2-2.9.5-4.3.9-1,.2-1.8,1.4-1.8,2.4v9.1h.2ZM182.78,134.27h.2c.1-.3.4-.7.4-1.1,0-1.7-1.6-3.3-3.4-3.2h-.7c-.5,0-1.1-.2-1.6,0-.9.3-1.6.9-2.5,1.3-.2.1-.4,0-.7.1,0-.2-.1-.5,0-.7.2-.3.4-.7.8-.9.8-.4,1.4-.9,2.2-1.3-.7,0-1.3,0-1.8.1-1.6.5-2.5,1.8-3,3.4-.2.7-.7,1.1-1.3,1.3-1,.2-1.7.8-2.2,1.7-.1.2,0,.7,0,1,.7-.4,1.1-.8,1.6-1.2.2-.1.7-.1.8,0s.2.5.1.8c-.1.3-.4.7-.7.9-.7.8-1.1,1.4-.8,2.6.2-.2.4-.3.7-.5.7-.7,1.3-1.2,2-1.8.4-.3.4-.8.4-1.3s0-1.4.2-2.1c.1-.5.7-.8,1.1-.4v2.6c0,.2.2.3.2.5.1-.2.3-.3.4-.5s0-.4,0-.7c.1-1.1.7-2.2,1.6-2.7.2-.1.7-.1.9-.2v.9c-.4.9-.8,1.7-.4,2.7,0,.2.3.4.4.7.1-.2.2-.4.3-.7v-.7c.2-.5.4-1.1.8-1.5s.7-.2.8.2c0,.4,0,1,.1,1.4,0,.2.2.4.4.7.2-.2.4-.4.5-.8v-1.5c0-.5,0-1,.7-1.1s.8.3,1,.8c.1.3.2.8.3,1.1h.1l.1.1ZM80.48,112.57c.2-.2.4-.3.5-.4.7-.8,1.3-1.4,2.2-2.2.5-.4.7-1,.5-1.6-.3-1.6-1-3-2.1-4.2-.8-.9-1.7-1.7-2.7-2.3-2.3-1.2-6,.4-6.7,2.8v.4c.7-.4,1.1-.8,1.6-1.2v2.3h.2c0-.3.1-.7.2-1,.2-.5.3-1.1.7-1.5.1-.2.5-.3.8-.4,0,.2.2.5.2.8,0,.7-.2,1.4-.2,2.1s.2.7.3,1c.2-.2.7-.4.8-.7.2-.7.2-1.3.4-2,0-.3,0-.9.5-.9s.8.3.9.8v2.9h.2c.2-.2.4-.7.7-.8.3-.3.8-.8,1.1-1,.1,0,.7,0,.8.2.1.1,0,.5,0,.8s-.2.2-.4.4c-.4.7-.9,1.3-1.3,2l.2.2c.2-.1.4-.3.7-.4.4-.2.9-.4,1.3-.4s.7.2.7.4-.2.5-.3.7c-.4.4-1,.9-1.4,1.4-.4.4-.4,1.1,0,1.7h-.2l-.2.1ZM70.68,49.27v.2c.4.2.8.5,1.1.4,1.3-.2,2.5-.1,3.4,1,0,0,.3.1.4,0,.1,0,.2-.3.1-.4-.1-.2-.2-.4-.4-.7-.3-.3-.7-.7-1.1-1,0,0,0-.1-.1-.2,1.1.1,1.2-.7,1.6-1.2s.9-.7,1.3,0c1.3-1.1,2.2-1.2,2.6-.1-.2,0-.5.1-.8.2-.9.4-1.5,1-1.6,2,0,.1,0,.4.1.4h.4c.7-.8,1.3-1.2,2.5-1.3.7,0,1,.1,1.3.5s.3.4.7.5c.8.2,1.4.4,2.2.4s.5-.1.7-.2c0-.1,0-.5-.2-.7-.4-.3-1-.7-1.5-.9-.7-.2-.9-.4-1-1.1-.2-2-2-3.4-4-3.4s-3.8,1.3-4.1,3.3c-.2.9-.8,1.4-1.6,1.4h-.7c-.4.1-.9.3-1.3.5h.1l-.1.4ZM109.68,111.47h.2l.2-.2c1.2-1.1,2.4-2.1,3.7-3,.2-.1.5,0,.8,0-.1.2-.1.7-.3.8-.2.2-.5.4-1.1.9,1,.1,1.7.2,2.6.4v-1.2c-.4-.4-.2-.8-.1-1.1.4-1.4-.3-2.8-1.8-3.2-2.6-.5-6.1.2-8,3.4-.8,1.3-.8,1.4.4,2.5h.1c.3-1-.1-2.3,1.3-3v4.8c0,.2.2.4.4.8.1-.2.3-.5.4-.8s0-.5,0-.8v-3c0-.4.2-1,.3-1.4,0-.2.3-.2.4-.4.1.2.2.4.2.5v4.2h.2l.1-.2ZM134.58,50.97h.3c.1-.3.3-.8.3-1.1v-6h-1.1c-1.5-.2-2.5.8-3.6,1.6-.1,0-.2.2-.2.4v6.3c0,.4.3.8.9.7,1-.2,2.3-1.8,2.3-2.9v-3.4c0-.2.3-.4.4-.7.1.2.4.4.4.7v3.6c0,.3.2.7.3,1v-.2h0ZM109.48,138.57c1.3-1.4,1.3-3,0-4.6-.2-.2-.2-.5-.2-.9.2,0,.7-.2.9-.2,1.1.2,1.6,1,2,2.1.3,1.3,0,2.5-.4,3.7-.1.3-.1.7-.2,1,.9-.9,1.4-1.8,1.4-3s0-2.3-.1-3.5c.9.2,1.1.9,1.3,1.6.3,1.4.3,2.8-.2,4.2-.1.4-.2.8-.3,1.2h.2c1.1-1.6,1.6-3.4,1.4-5.3-.2-2-1.4-3.2-3.4-3.5-2.6-.3-4.6.8-6.3,2.5-.2.3-.4.8-.7,1.1,0,0,.1.1.1.2,1.1-.9,2.3-1.7,3.7-.5,1.3,1,1.3,2.3,1,3.8h-.1l-.1.1ZM97.58,43.27c0-1.4-1.1-1.8-2-2.6.2-.1.2-.2.4-.2,1-.2,1.6.4,2.2,1.1s1.1,1.3.4,2.3v.5c.2,0,.4,0,.5-.1.1,0,.2-.2.4-.2.8-.8,1.6-1.1,2.7-1,.4,0,1,0,1.6-.2-.4-.7-.8-1.1-1.2-1.5-.8-.7-1.7-.5-2.6-.3-.8-2.3-2.3-3.3-4.2-2.7-1.6.4-2.8,2.1-2.5,3.4,1.6-.1,3,.3,4.2,1.6h-.1l.2-.1ZM153.98,82.27v.2c.2,0,.4.1.7.2,1.4.3,3,.7,4.5,1.1,3.5,1,7,2.2,10.2,4,.8.4,1.6.8,1.8,1.7,0,.1.5.2.7.2.4-.5.9-.1,1.2.1l4.2,4.2c.7.7,1.1,1.4,1.6,2.2.1-.2.1-.3.2-.4.7-.7.5-1.1,0-1.6-1.8-1.6-3.4-3.7-5.4-5.1-5.7-4-12.2-5.8-18.9-7h-.8v.2ZM205.28,103.47c.5-.5.1-1,0-1.4-.1-.2-.1-.7,0-.9,0-.2.4-.3.7-.2.2,0,.7.3.8.7s0,.8.1,1.1c0,.2.2.5.3.5.2,0,.4-.1.7-.2.4-.3.8-.7,1.3-1.1-1.1-1.3-2.7-1.8-4.5-1.5-2.9.5-4.5,2.6-5.1,5.2-.4,1.4.2,2.8,1.1,4.2.1-.4.2-.7.2-.9.2-1.1.8-2.2-.4-2.9-.1,0-.1-.7,0-.8.2-.1.7-.2.8-.1.4.2.8.5,1.1.8.8-.4.3-.8,0-1.2-.3-.3-.4-.8,0-1,.2-.1.7,0,1,.1.2,0,.3.3.5.7.5-.4.2-.8,0-1.3-.1-.2,0-.7,0-.9h1c.3.2.5.7.9,1.1h-.5ZM149.58,43.97v7.3c0,.5.7,1.2,1.1,1.6.9.7,1.5.1,1.5-.9v-5.8c0-2.5.5-2.3-2.5-2.3h-.2.1v.1ZM169.78,50.27v7.5c0,.4,0,1,.7,1s.7-.4.8-1v-2.7c0-.4,0-.9.4-.9s.4.5.4.8v3.2c0,.2.4.4.7.8.1-.2.4-.5.4-.8v-6.5c0-.2-.2-.5-.4-.8-.8-1-1.8-.7-3-.5h.1l-.1-.1ZM95.68,112.17l.2.2c1-.2,1.8-.7,2.8-.8,2.5-.4,4.7,0,6.2,2.2.8,1.2,1,2.5,1.1,3.9,0,.2.1.5.2.8h.2c0-.3.2-.7.2-1,.2-1.8-.2-3.6-1.2-5.1-2-3.2-6-3.9-8.8-1.6-.4.3-.8.9-1.1,1.3h.1l.1.1ZM180.48,90.27c.3.2.7.3.8.4,1.1,0,2.2.1,3.2,0,.4,0,1-.4,1.4-.7-.4-.3-.8-.8-1.2-1.1-.4-.2-.8-.5-1.3-.8v-.2c1.2,0,2.4.1,3.5.2v-.2c-.4-.2-.8-.5-1.2-.8-.2-.2-.7-.4-.8-.7-.7-1.4-1.8-2.1-3-2.8-.2-.1-.5,0-.8,0,0,.2.1.4.2.7.4.4.8.9,1.2,1.3.4.4.9.7,1.3,1.1,0,0-.1.2-.2.2-.2,0-.4,0-.8-.1-.8-.1-1.6-.2-2.4-.3-.2,0-.5.2-.8.2l.7.7c.3.2.8.4,1.1.7.7.4,1.3,1,2.2,1.6-1.2.3-2.3-.1-3.4.7h.3v-.1ZM113.18,41.57c.4-.4.9-.9,1.3-1.2.2-.1.7,0,.9,0,0,.2,0,.7-.1.9s-.4.3-.5.5c-.1.1-.1.4-.2.7h.7c.3-.1.7-.3,1-.7.7-.4,1-1.2.7-2.2-.2-.9-.8-1.4-1.6-1.4s-.5-.1-.8-.4c-.4-.8-1.4-.9-2-.2-.2.2-.3.4-.4.8-1.4,0-2,.7-2.2,1.8,0,1.1.7,2,2.1,2.3-.2-.4-.4-.8-.7-1-.3-.3-.8-.7-.2-1.1.4-.4.9-.1,1.2.2.2.2.5.7.9,1h.1-.2ZM93.78,128.07c.4-.7,1.1-.8,1.7-.7,1.5.3,2.6,1.1,3,2.6.1.4.3.8.9.5.2-1.4-.8-3.4-2.1-4.2s-3-.8-4.3.3c-1,.8-1.8,1.7-1.6,3.3.3-.1.5-.1.8-.2,1.2-.9,2.1-.8,3.2.2.4.4.8.3,1.2,0-.4-1.3-1.6-1.5-2.6-2h-.1l-.1.2ZM202.88,82.87c-1.2,0-1.7.3-1.7,1.4v10.4h.2c.2-.7.3-1.3.8-1.8,1-1.1.8-2.3.8-3.6v-6.5h0l-.1.1ZM190.98,84.77c1-.1,1.3-.5,1.3-1.3v-10.3c0-.2,0-.4-.1-.7,0-.2-.3-.4-.4-.4-.2,0-.4.2-.5.4s0,.4,0,.8v11.6h-.2l-.1-.1ZM175.88,123.67c.4-2.4-2.2-5.8-4.5-6-.7,0-1.3,0-1.8.1v.2c2.5,1.5,4,3.8,5.3,6.2.1.2.3.5.5.8.1,0,.2-.2.3-.2-.4-2.5-2.1-4.2-3.5-6.1.8.7,1.4,1.4,2.1,2.2s1.1,1.7,1.7,2.7h-.2l.1.1ZM82.58,53.27c1,.1,1.4.8,1.8,1.6,0,.2.4.5.7.4.4,0,.8-.3.7-.8v-.3c-.4-1.6-2-2.7-3.6-2.6-1.8,0-3.2,1.3-3.4,3,0,.2.1.8.3.9.5.2.5-.3.7-.7.2-.7.4-1.4,1.3-1.4s1,.7,1.3,1.3c0,.2.3.2.5.4.1-.2.3-.4.2-.7,0-.4-.2-.8-.3-1.3h-.2v.2ZM194.08,101.17c2-1.3,1.1-5.2-.8-6.7-2.1,1.3-2.5,5.4-.8,6.6,0-1.6-.2-3.2.7-4.7.8,1.6.8,3.3.9,4.9h0v-.1ZM158.18,32.97h.1v7c0,.2.2.4.2.7.1-.2.2-.4.4-.8v-13.6c0-.2-.2-.5-.4-.8-.1.2-.3.4-.4.8v6.8h.1v-.1ZM124.48,41.57v-.8c0-4.5,0-8.9.1-13.4v-.7c0-.2-.2-.3-.4-.4-.1.1-.3.2-.4.4s0,.4,0,.7v13.5c0,.4,0,.9.7.8h.1l-.1-.1ZM173.98,36.77c-.8-.2-1-.9-1.3-1.4-.1-.1-.3-.2-.5-.3,0,.2-.2.4-.2.7.2.5.4,1.1.9,1.4,1,.7,1.1,1.4,1,2.5v5.7c0,.2.2.4.3.7.1-.2.3-.4.4-.7v-.5c.2-3-.5-6.1.7-9,0-.1-.2-.4-.3-.7-.2.1-.4.2-.5.3-.2.4-.4,1-.7,1.4h.3l-.1-.1ZM168.48,40.67c1.5-.3,2-1.8,1-2.9-1.1-1.2-3.4-1.1-4.3.2-.7,1-.4,1.8.5,2.5,0-.4,0-.8.1-1.1,0-.2.2-.3.4-.4,0,0,.3.2.4.3.1.3.2.7.4,1.1.2-.4.4-.9.7-1.2s.3-.7.8-.4c.4.2.4.7.2,1,0,.2-.1.4-.2.8h0v.2-.1ZM195.48,105.17c2.3.1,4.6-3.4,3.7-6.8-1.7.8-2.9,2-3.5,3.8,1.1,0,1.2-1.4,2.4-1.3-.2,1.8-1.6,2.9-2.5,4.3h-.1ZM102.28,48.07s.1.1.2.2c.3-.1.7-.2,1-.3.8-.2,1.2-1,1.3-1.7.1-.9-.2-1.5-1-2-1-.5-2-.4-2.8.2-1,.7-1.4,1.4-1.4,2.5s.2.3.3.4c0,0,.3-.1.4-.2.2-.2.3-.7.5-1,.5-.8,1.5-.9,2.2-.2s.4.7,0,1c-.2.2-.4.7-.8,1h0l.1.1ZM166.08,123.87c1.4.7,2.8,1.1,4.2,1.8,1.3.7,2.5,1.6,3.8,2.4l.2-.2c-.8-.8-1.6-1.4-2.5-2.3,1.1.7,2,1.1,2.9,1.6-1-2.5-6.4-4.3-8.6-3.3h-.1.1ZM106.68,92.17c1.8-2.2,4.2-3.7,6.7-5.1-.2-.8-.7-.9-1.3-.5-1,.5-2,1-2.8,1.6-1.3.9-2.6,1.8-4,2.8.5.4,1,.8,1.4,1.1h0v.1ZM107.08,41.27h0v5.5c0,.2.2.4.4.7.1-.2.3-.4.4-.7v-10.8c0-.2-.2-.8-.4-.8-.5,0-.4.4-.4.8v5.2h0v.1ZM191.48,105.17c-.8-1-1.6-1.8-2.3-2.8-.2-.3-.2-.8-.4-1.2.4.1.9.2,1.3.4s.7.5,1.1.9c-.2-1.6-2.3-3.4-3.7-3.5-.7,3.5,2,6.6,4,6.2h0ZM153.28,44.87v7.8c0,.2.4.7.7.9.2-.3.4-.7.4-1v-7c0-.9-.1-1-1.1-.8h0v.1ZM178.48,122.47c1-1,.9-2.2.8-3.3v-1.8c0-.9-.1-1.1-1-.9-.3,0-.7.2-.9.4-1.1,1-1.3,3.4-.3,4.6.4-1.1,0-2.5,1-3.5.2.8.3,1.4.3,2.2v2.3h.1ZM184.48,110.27l.2.2c-.3.7-.8,1.4-1.1,2.1l.3.2c1.2-1.5,2.4-3,3.7-4.6-2.6-.2-5.7,2.4-5.3,4.5.8-.8,1.4-1.6,2.2-2.3h0v-.1ZM171.28,131.57c-.4-1-1.5-1.6-2.8-1.6s-3.2.4-4.3,2c.8,0,1.4.2,2.2-.1,1.1-.5,2.4-.7,3.7-.4.4,0,.8.1,1.3.2h0l-.1-.1ZM148.58,43.77c-.5.1-1.1-.2-1.1.7v6.1c0,.2.3.5.5.8.2-.2.7-.5.7-.9v-6.7h-.1,0ZM90.68,75.67c-.9.7-1.3,1.4-1.3,2.3v2.6c0,1.2,0,1.3,1.3,1.7v-6.7h0v.1ZM129.68,84.07s0-.2-.1-.2c-4.5.8-8.5,2.5-12.2,5.2.4.3.8.3,1.2,0,2.8-2,6-3.5,9.3-4.5.7-.2,1.2-.4,1.8-.5h-.1.1ZM95.58,84.27c2.4-2.7,3.8-5.8,3.5-7-1.8,1.4-3.4,4.5-3.5,7ZM127.58,31.77h0v3.9c0,.2.2.3.4.5.1-.1.3-.3.4-.4v-7.6c0-.2-.3-.5-.4-.8-.1.2-.4.5-.4.8v3.6h0ZM155.48,31.87h0v-3.6c0-.2-.2-.5-.4-.9-.1.2-.3.5-.4.8v7.6c0,.1.2.2.3.4.1-.1.3-.2.4-.4s0-.5,0-.8v-3.4h0v.2l.1.1ZM98.78,86.37c1.6-.9,3.4-1.4,4.2-3.4-2.5.2-5.2,2.2-5.8,3.8.7-.4,1.2-.7,1.8-1h0c-.1.2-.2.3-.3.5h0l.1.1ZM97.28,113.77c1.2,0,2.5-.2,3.6,0s2.2,1,3.3,1.4c.1-.9-1.1-2.1-2.6-2.5s-3.7,0-4.2,1.1h-.1ZM154.78,127.47c0-.9,0-1.6.1-2.5,0-.1,0-.4-.2-.4-.8-.4-1.6-.8-2.5-1.2,0,.2,0,.3-.1.4,0,.4-.1.8-.2,1.1-.1,1.1,0,1.3,1.1,1.4.1-.4.2-.8.3-1.2h.2c0,.5.1,1.1.1,1.6s.2.9,1,.8h.2,0ZM177.78,98.67c.5-.4.7-.9,0-1.3-.2-.2-.3-.4-.4-.7-1.1-1.8-2.5-3.4-4.1-4.8-.1-.1-.4,0-.7-.1,0,.2,0,.5.2.7,1,1.1,2,2.2,2.9,3.4.8,1,1.3,2,2.1,2.9h0v-.1ZM186.88,52.57c1.6-1.8,3.5-2.2,5.3-.2.3-.7.1-1.2-.7-1.8-1.1-1-2.8-.9-4,.2-.8.7-1,1.3-.7,2h0l.1-.2ZM94.78,124.57c-.7-.2-1.1-.2-1.7,0-.4.2-.9.2-1.3.2-.9,0-1.6,0-2.5.1-.8.1-1.4.4-1.7,1.3h.7c1.1,0,2.2,0,3.4-.1h.4c1-.5,2-1.1,3-1.6h-.2l-.1.1ZM96.68,45.77c.7-.4.4-1.1-.3-2-1.1-1.2-3.2-1.5-4.1-.7.4.5,1,1,1.3,1.4,1.4-.8,1.6-.7,3.2,1.1h0l-.1.2ZM208.18,107.77c-1.1-.9-3.3-.3-4.5.8-.9.8-1.5,1.6-1.3,3,1.4-2,3.4-3.2,5.8-3.7h0v-.1ZM189.08,124.87c2.2-1,4.5-1,7-.7-.4-1.1-1.3-1.3-2.2-1.3-1.8,0-3.7,0-4.8,1.8h0v.2ZM98.08,115.87c.7.2,1,.3,1.4.4,1.3.4,2.6,1,3.4,2.3.1.2.5.2.9.3,0-2.5-3.2-4.3-5.5-3h-.2ZM181.28,104.47c-1,1.4-1.2,2.9-.7,4.6.2-.7.4-1.4.7-2.1h.2v2.6c1.2-1.3,1.1-3.7-.2-5.1h0ZM121.18,38.57v-3c0-.2-.2-.5-.4-.8-.1.2-.4.5-.4.8v3.5c0,.2,0,.5.2.7.7.3,1.3.7,2,1,.13-1.07-.3-1.73-1.3-2h0l-.1-.2ZM78.08,112.37h.2c0-.2.1-.4.1-.7-.2-1.3-1-2.3-2.3-2.6-.8-.2-1.4-.3-2.1-1s-1.3-.5-1.6-.2c.7.7,1.4,1.2,2.1,1.8h.5c1.2-.1,2,.4,2.5,1.4.2.3.4.8.5,1.1h0l.1.2ZM194.98,125.67c-1.7-1-5.1-.3-6.2,1-.1.1-.1.4-.2.7,0,0,.1,0,.2.1,1.4-1,3-1.3,4.8-1.3s.8-.2,1.3-.4h.1v-.1ZM170.18,127.77c-1.3-.8-2.6-.7-3.8-.2-1.1.4-1.7,1.1-1.7,1.8,1.8-.5,3.6-1,5.5-1.6ZM92.18,97.47c.5-1.6-1.1-3.9-3-4.5,0,2.8,2.5,3.6,3,4.5ZM130.28,134.17c1-.4,1.1-1,.4-2.5-.8.3-1.5.7-2.3,1.1-.1,0-.2.2-.2.4,0,1,.2,1.8.2,2.6h.2c.1-.2.3-.4.3-.7v-1.4c0-.8.2-1,1-1,0,.4.1.8.2,1.2h0v.2l.2.1ZM95.38,94.77c-.5.4-1,.9-1.4,1.3,1.2,1.2,0,2.3,0,3.4,1.6-.8,2.3-2.9,1.4-4.7h0ZM203.58,106.97c1.7-1.4,3.6-1.6,5.5-1.8-1.3-.9-2.6-1-4-.2-.8.4-1.4.9-1.5,2h0ZM74.08,95.17c.2-.7,0-1.4-.8-2.1-1-.9-2.5-1.3-3.3-.9,1.3,1,2.6,2,4,2.9h0l.1.1ZM179.28,113.07c0-1.2-1.8-2.8-3.4-2.8s-.4.4-.4.4c.3.9.9,1.5,1.8,1.8-.2-.4-.4-.8-.7-1.1h0c.8.5,1.6,1.1,2.4,1.6h.2l.1.1ZM167.38,136.57c-.7-1.4-3.4-2.6-4.7-2.3-.1,0-.2.2-.2.2,0,.1.1.2.2.3,1.5.5,3,1.1,4.7,1.6h0v.2ZM114.28,125.57c-.4-1.3-1.3-1.8-2.5-2.2-.7-.1-1.3-.2-1.8.5.4.1.8.2,1.1.4.7.3,1.4.7,2,1.1.4.4.8.4,1.3.1h0l-.1.1ZM91.98,44.67c-.7.7-.8,4.9,0,5.7.7-.8.8-4.9,0-5.7ZM149.08,33.87h0v1.6c0,.2.2.5.4.8.1-.2.4-.4.4-.8v-3.6c0-.2-.2-.4-.4-.7-.2.2-.4.4-.4.7v2h0ZM67.78,93.97v.2c1.3.5,2.5,1.1,3.7,1.5.1,0,.4,0,.4-.1,0-.2,0-.4-.1-.7-1-.9-2-1.4-3.3-1.4s-.4.2-.8.3h0l.1.2ZM102.98,89.67v.2c.4.1,1,.4,1.1.3,1-.5,1.8-1.2,2.8-1.8.1,0,.1-.4,0-.7,0,0-.4-.2-.5-.1-1.2.7-2.4,1.3-3.5,2h.1v.1ZM94.38,105.97c-.5,0-.9.1-1.2.1-.5,0-1-.1-1.5-.1s-.4.2-.7.3c.1.2.2.4.4.5,1.1.3,2.2.7,3.3.9l.2-.2c-.2-.5-.4-1.1-.5-1.5h0ZM178.58,43.07c-.1-.8-.7-1.1-1.4-1-1.1.2-1.4,1-1.1,2.3h2.3c-.2-.9-1-.5-1.4-.9.2-1,1.1-.4,1.6-.5h0v.1ZM90.28,50.57c0-.2.1-.3.1-.4,0-1.2-2.4-3-3.6-2.7-.1,0-.2.2-.4.3.1.1.2.2.3.3.8.5,1.5,1.1,2.3,1.6.4.2.8.7,1.1,1h.2v-.1ZM99.88,79.87c-.4,1.3-1,2.5-1.4,3.7,1.1-.7,2.5-1,2.3-2.6,0-.4,0-1-.8-1.1h-.1ZM97.78,47.77c-1.4-.4-2.3.1-3.2.8-.7.4-1.1,1.1-1.1,2,1.4-1,2.7-1.8,4.2-2.8h.1ZM71.68,96.97h-.2c-1,.3-1.8.7-2.6,1-.1,0-.2.4-.2.7.2,0,.4.2.7.1,1.1-.2,2.2-.5,3.2-.9.2,0,.3-.3.4-.4-.2-.1-.4-.2-.7-.3h-.5l-.1-.2ZM71.08,101.57c.8-.2,2.8-2.9,2.6-3.6-1.3.2-2.6,2.1-2.6,3.6ZM73.28,87.37c-.5-.4-.8-.4-1.4-.1-1.2.7-2.2,2-2.1,2.7,1.1-.9,2.3-1.7,3.5-2.5h0v-.1ZM192.78,114.57c-.4-1-1.8-1.5-2.6-1-.4.2-.5.7,0,.8.9.4,1.8.7,2.7.2h-.1ZM110.28,90.67s-.1-.2-.2-.2c-1.2.7-2.1,1.6-3.2,2.5.2.3.3.7.5,1,1-1.1,2-2.2,2.8-3.2h0l.1-.1ZM98.78,100.87c-1.3,0-2.9.8-3.2,1.8.4-.2,2.6.4,3.2-1.8ZM110.68,112.97v.3c1.1.2,2.3.5,3.5.8.1,0,.3-.2.7-.5-1.3-.3-2.3-.7-3.4-.9-.2,0-.5.2-.8.4h0v-.1ZM75.38,54.97c-.1,0-.3-.2-.5-.2-.9,0-2.3,1.5-2.2,2.3,0,.1.1.3.2.3s.3,0,.4-.1c.7-.8,1.3-1.5,2.1-2.3ZM206.98,97.47l.2.2c1-.4,2-1,3-1.4.1,0,.1-.4.2-.7-.2,0-.4-.1-.7,0-.8.4-1.5,1-2.3,1.4-.2.1-.3.4-.4.7h0v-.2h0ZM204.08,93.77c-.4.4-.8.9-1.1,1.3,1,.4,1.8.9,2.8,1.3l.2-.2c-.7-.8-1.1-1.5-1.8-2.5h-.1v.1ZM84.18,123.67h2.3c-.2-1-.7-1.4-1.3-1.4s-1.1.7-1.1,1.4h.1ZM71.38,90.37l.2.2c1-.4,1.8-.8,2.7-1.2.2,0,.2-.3.4-.5-.2-.1-.5-.4-.7-.3-.7.2-1.2.5-1.7,1-.3.2-.7.7-.9,1h-.1l.1-.2ZM86.38,119.37h3.7c-.8-.9-1.6-1-2.5-.9-.5,0-1.1.1-1.3.9h.1ZM111.98,111.17v.4c1,.2,2,.4,2.9.7.1,0,.3-.2.5-.3-.1-.1-.2-.3-.4-.4-.8-.2-1.4-.3-2.2-.4-.2,0-.7.1-.9.2h0l.1-.2ZM209.48,94.27c-.9-.9-1-.9-1.6,0-.2.3-.5.7-.8,1-.1.2-.2.5-.2.8,0,0,.1,0,.2.1.8-.7,1.6-1.1,2.5-1.7h-.1v-.2ZM101.88,125.67c-.2-.2-.3-.5-.7-.7-.1,0-.4.2-.7.5-.1.4-.2.9-.2,1.3s.2.4.4.7c0,0,.4-.2.5-.3.2-.4.3-1,.5-1.4h0l.2-.1ZM82.98,117.07c-.4-.8-1.1-.9-1.8-.8-.5,0-1,.3-1.2,1,1.1,0,2.1.4,3-.2ZM205.78,97.97c0-.1,0-.2.1-.3-.8-.7-1.8-1-2.8-1.3,0,0-.3.2-.3.3,0,.2.1.5.2.5,1,.2,1.8.4,2.8.8h0ZM160.88,38.17s.1,0,.2.1c.2-.2.7-.4.7-.7v-2c0-.7-.2-.3-.4-.4-.1.2-.4.3-.4.5v2.5h-.1ZM163.48,39.27c-.8,0-1.5,0-2.2.2-.1,0-.2.3-.4.5.1.1.3.3.4.3.8,0,1.4,0,2.2-.1v-1h0v.1ZM87.78,122.07h3.5c-.3-.7-.9-.8-1.4-.8s-1.4,0-2.1.8ZM112.98,115.57v-.3c-1-.2-2.1-.5-3-.8-.1,0-.3.1-.4.2,0,.1.1.3.2.4.9.2,1.7.5,2.6.8.2,0,.4-.1.7-.2h0l-.1-.1ZM93.68,122.47c1.3.4,2.2,0,2.2-1.1s0-.4-.2-.5h-.4l-1.5,1.5h0l-.1.1ZM211.58,97.97v-.3c-.2-.1-.5-.4-.7-.3-1.1.4-2.2,1-3.3,1.4v.2c1.3-.3,2.5-.7,3.7-1h.3ZM171.98,139.97l.2.2c.8-.5,1.5-1.1,2.3-1.6v-.4c0-.1-.3-.2-.4-.1-.9.4-1.7,1.1-2.2,2.1h.1v-.2ZM92.78,109.47c.9.1,1.6.2,2.5.3.1-.8,0-1.1-.8-1.1h-1.5c0,.2-.1.4-.2.8h0ZM208.28,88.87v1c.9.4,1.7.8,2.6,1.2,0-.1.1-.2.2-.3-.7-.9-1.8-1.1-2.8-1.8h0v-.1ZM80.58,76.07c.5,0,2.3-1.2,2.3-1.6s-.4-.4-.5-.4c-.8.4-1.4,1-1.7,2h-.1ZM72.48,76.17c0-.2,0-.3-.1-.4-.5-.5-1-1.1-1.5-1.6s-.4,0-.4.1-.1.4,0,.5c.4.4,1,1,1.5,1.4h.7-.2ZM64.18,70.87c-.1-.8-.3-1-1.8-.8-.4,0-1,0-.8.8h2.6ZM67.18,84.87c.7.7,1.1,1.3,1.6,1.8,0-.7.1-1.3.2-2-.7,0-1.2,0-2,.1h.1l.1.1ZM211.68,86.67c-.3-.3-.7-.7-.9-1-.7.4-.4.8.8,1.7,1.1-.9,1.3-1.1,1-1.6-.2.3-.5.7-.9,1h0v-.1ZM211.18,89.37c0-.8-1.2-2.1-1.6-2.1s-.3.1-.4.2c0,.1,0,.4.1.5.7.4,1.2.8,2,1.3h0l-.1.1ZM207.38,92.97s-.2-.1-.2-.2c-.1.1-.3.2-.4.4-.4.5-.8.5-1.1,0-.1-.2-.4-.2-.7-.4l-.2.2c.4.5.8,1.1,1.3,1.6.4-.7.9-1.2,1.3-1.7h0v.1ZM70.08,84.97c0,.9-.1,1.5-.2,2.3.5-.7,1-1.1,1.4-1.6-.2-.1-.7-.4-1.2-.8h0v.1ZM212.38,90.97c1.4-.1,2.6-1,2.3-1.7-.8.5-1.7.8-2.3,1.7ZM212.28,89.27c.5-.4,1.1-.8,1.6-1.1,0,0,.1-.3,0-.5,0-.1-.2-.2-.4-.2-.4,0-1.3,1.2-1.2,1.8h0ZM78.68,119.57c.5.1,1.1.2,1.5.2s.4-.1.4-.2,0-.4-.1-.5c-.7-.7-1.4-.4-1.8.4h0v.1ZM86.38,45.37c-1-.4-1.8-.3-2.2.2v.4s.2.1.4.1c.7-.2,1.1-.5,1.8-.9h-.1l.1.2ZM85.28,43.77c-.5-.5-1.6-.5-2,0v.4c.1,0,.3.2.4.1.4-.1,1-.2,1.5-.4h0l.1-.1ZM207.88,91.17v.2c.4.7,1.8,1.1,2.6.8-1-.4-1.8-.8-2.6-1.1h0v.1ZM204.38,98.97h0c-.7-.2-1.3-.4-2-.5v1.1c.7-.2,1.3-.4,2-.7h0v.1ZM82.08,120.97c.4,0,.9,0,1.3-.1.1,0,.3-.2.3-.4s-.2-.3-.4-.3c-.5-.1-1.1.2-1.2,1h0v-.2ZM211.68,100.37c-.3-1.1-.7-1.1-2.3-.5.9.2,1.5.3,2.3.5ZM210.28,103.97c-.2-.4-.4-1-.8-1.6-.4.9-.1,1.4.8,1.6ZM90.68,109.67c.4-.2.7-.2.8-.4.1-.3.1-.8.2-1.1-.2,0-.7,0-.7.1-.1.3-.2.8-.3,1.4h0ZM62.88,72.77v-.2c-.2-.1-.5-.2-.8-.2s-.3.2-.4.4c.2.1.4.4.8.4s.3-.2.5-.3h-.1v-.1ZM134.58,83.17v-.2c-.9.1-1.8,0-2.6.4v.2c.9-.1,1.7-.2,2.6-.4ZM110.08,117.07v-.2c-.4-.2-.8-.3-1.2-.4-.1,0-.2,0-.4.1,0,.1.1.4.2.4.4.1.9.1,1.3.2h.1v-.1ZM96.48,57.87c.4.3.8.7,1.1,1v-1.2c-.3.1-.7.2-1.1.3h0v-.1ZM88.28,95.37c-.2.2-.4.3-.9.7.4.2.8.3,1.3.5-.2-.4-.3-.8-.4-1.1h0v-.1ZM148.28,82.87v.2h1.6c0,.1,0-.1,0-.1-.5,0-1.1,0-1.6-.1h0Z"/>
      <path class="st2" d="M215.38,48.47c-.1,0-.4-.1-.4-.2-.7-1.3-1.6-1.5-2.8-1.6h-.7c1-1.6,2.6-3.9,4-2.7,1.1,1,1.3,3.8,0,4.6h-.1v-.1Z"/>
      <path class="st2" d="M174.58,19.27c.3-1,1.2-1.4,2.1-1.1.4.2.8.1,1.1-.2.7-.5,1.4-.7,2-.2.1,0,.2.2.2.3s-.2.2-.3.2c-.9,0-1.6.1-2,1.1,0,0-.4.1-.4,0-.7-.8-1.4-.7-2.3-.2h-.4.1l-.1.1Z"/>
      <path class="st2" d="M188.38,19.37c-.4.1-.7.2-.9.2-.7.1-1.1.4-1.3,1.1,0,.1-.4.4-.4.4-.8-.5-1.6-.4-2.5,0,0-.8.5-1.3,1.4-1.2.7,0,1,0,1.4-.4.7-.7,1.6-.7,2.3,0h0v-.1Z"/>
      <path class="st2" d="M65.08,62.17c-.8,0-1.3-.4-1.3-1s.4-1,1.1-1,1.5.7,1.4,1.2c-.1.8-.9.7-1.3.8h.1Z"/>
      <path class="st2" d="M144.58,81.27v16.6c0,.2-.1.7-.2.8-.4.2-.8,0-.8-.7v-33.4c.2-.2.3-.8.5-.8.5,0,.5.4.5.8v16.6h-.1l.1.1Z"/>
      <path class="st2" d="M139.18,82.37v15.9c0,.2-.3.4-.5.4s-.4-.2-.4-.4v-31.9c0-.2.3-.4.5-.4s.3.2.4.4v15.9h0v.1Z"/>
      <path class="st2" d="M154.08,136.07c.3-.9.7-1.6.9-2.3,0-.1.3-.2.4-.4.1.2.3.4.3.7-.1,1-.2,2-.4,3,.8-.4,1.1-1.6,2.3-1.6-.2.8-.3,1.3-.4,2,.2,0,.4.1.7.2-.4.8-.9,1.4-1.3,2.2-.2.4-.7.7-1.1.2-1.4-.9-2.8-1.3-4.5-.8-.2,0-.4,0-.7-.2s-.8-.4-1-.8c-.2-.2-.2-.7-.4-.9.3,0,.7-.2,1-.1.4.1,1,.4,1.6.8-.1-.4-.2-.7-.3-.8-.2-.3-.4-.7-.7-1s-.7-.8,0-1.1c.2-.1.8.2,1,.4s.4.5.7.8.3.4.7.5c-.1-.7-.3-1.4-.4-2.1,0-.4-.2-.8-.2-1.1s.2-.4.3-.7c.2.1.5.2.7.4.3.8.5,1.4.8,2.2,0,.1,0,.2.2.4h0c0,.1,0-.1,0-.1l-.2.2Z"/>
      <path class="st2" d="M140.78,83.17v-11.8c0-.2.3-.4.4-.7.1.2.3.3.4.5v23.8c0,.2-.3.4-.4.4-.2,0-.4-.2-.4-.4v-11.8h0Z"/>
      <path class="st2" d="M141.28,104.47c-2-.2-4.3-.4-6.6-.8h-.2c-.2-.2-.8-.4-.8-.7,0-.7.5-.4,1-.4,2.6.2,5.2.4,7.9.7,1.3,0,2.5-.1,3.7-.1s.5.2.9.4c-.2.2-.4.7-.8.7-1.5.2-3,.2-5,.4h0v-.2h-.1Z"/>
      <path class="st2" d="M131.18,106.27c-2.5-.8-3.7-1.3-5.4-2.2-1.3-.7-2.4-1.5-3.5-2.4-.4-.3-1-.9-.4-1.4.5-.4,1,.1,1.3.4,2,2,4.5,3,7.1,3.8.4.1,1,.2,1.4.4.2,0,.4.4.3.7,0,.2-.3.7-.7.5h-.1v.2Z"/>
      <path class="st2" d="M157.78,98.37c0,.9-.7,1.7-1.3,2.5-1.1,1.1-2.6,1.7-4,2.2-.2,0-.7-.2-1-.3.2-.2.3-.7.7-.8.9-.4,1.8-.8,2.6-1.3,1.7-1.1,2-2.5,1-4.2-.1-.2,0-.4,0-.7h.8c.8.3,1.4,1.6,1.4,2.7h-.1l-.1-.1Z"/>
      <path class="st2" d="M144.08,134.27c-.7-.1-1.3-.2-2-.4-1-.3-1.1-1.3-.2-2,1.1-.9,3.4-.8,4.3.1.7.7.7,1.4-.2,1.8-.7.2-1.3.3-1.8.4h-.1v.1Z"/>
      <path class="st2" d="M151.18,108.17c.1,0,.3-.1.4,0,.2,0,.4.2.5.3-.1.2-.2.4-.4.4-.8.2-1.4.3-2.2.4-3,.5-6.1.7-9,.4-.2,0-.8-.1-.8-.4s.5-.4.9-.4h3s5.1-.4,7.5-.8l.1.1Z"/>
      <path class="st2" d="M135.08,109.47c-3.2-.5-6.2-1.2-9-2.3-1-.4-1.8-.8-2.7-1.3-.2-.1-.7-.4-.4-.8s.7-.1.9,0c3.4,1.8,7,2.7,10.7,3.4.2,0,.4,0,.7.1s.7.2.7.4-.4.2-.5.3h-.1l-.3.2Z"/>
      <path class="st2" d="M141.88,58.77v3.5c0,.2-.2.5-.4.8-.2-.2-.5-.5-.5-.8v-7.1c0-.2.3-.4.4-.8.1.2.4.4.4.8v3.6h.1Z"/>
      <path class="st2" d="M139.18,56.37v2.2c0,.2-.3.4-.4.7-.2-.2-.5-.4-.5-.7v-4.3c0-.2.3-.4.4-.7.2.2.4.4.5.8v2.1h0v-.1Z"/>
      <path class="st2" d="M125.08,97.77c.2-.7.4-1.3.8-1.8.1-.2.7-.4,1-.2.5.2.2.5,0,.9-.4.8-.4,1.5-.1,2.3.1.4.2.8-.2,1-.2,0-.7-.2-.8-.4-.2-.4-.3-1-.5-1.6h-.1l-.1-.2Z"/>
      <path class="st2" d="M130.78,102.97c-1.1-.5-2.1-1.1-3-1.6-.2-.1-.1-.5-.2-.9.2,0,.7-.2.8-.1,1,.4,1.8,1,2.8,1.4.1,0,.3.4.2.7,0,.2-.3.3-.7.5h.1,0Z"/>
      <path class="st2" d="M143.48,58.57v-1.6c0-.2.3-.4.5-.7.1.2.4.4.4.7v3.3c0,.2-.3.4-.4.8-.2-.2-.4-.4-.5-.8v-1.7Z"/>
      <path class="st2" d="M144.48,48.47v1.6c0,.2-.2.4-.4.7-.2-.2-.5-.4-.5-.7v-3.3c0-.2.3-.4.5-.7.1.2.4.4.4.7v1.6h0v.1Z"/>
      <path class="st2" d="M139.18,50.17v1.1c0,.2-.2.4-.4.4s-.4-.2-.4-.3v-2.4c0-.1.3-.3.5-.3s.3.2.4.4v1.1s-.1,0-.1,0Z"/>
      <path class="st2" d="M141.78,45.97c-.5.2-.9.1-.9-.4v-2.2c0-.2.3-.4.4-.7.1.2.4.4.4.7v2.5h0l.1.1Z"/>
      <path class="st2" d="M139.18,43.87v.7c0,.2-.3.4-.4.5-.2-.2-.4-.3-.4-.5v-1.4c0-.2.3-.4.5-.5.1.2.3.4.4.7v.7h-.1v-.2Z"/>
      <path class="st2" d="M144.58,43.97c-.2.3-.4,1-.7,1-.8,0-.5-.7-.4-1.1,0-.4.2-1,.4-1,.8,0,.4.7.7,1.2h0v-.1Z"/>
      <path class="st2" d="M141.98,98.77c-.7,0-1.2.2-1.1-.5,0-.4-.3-1.2.4-1.1,1,.1.2,1,.7,1.6h0Z"/>
      <path class="st2" d="M102.78,77.57c.3.2.5.3.7.4.9.8,1.4.7,2.4,0,.8-.5,1.6-.9,2.6-1.3.2-.1.7-.2,1,0,.4.1.8.4,1.1.8-.3.2-.7.4-1,.5-1.3.3-2.5.8-3.7,1.6-.5.4-1.4.5-2.2.8-.1,0-.4,0-.4-.1-.4-.8-.7-1.6-.5-2.7h.1-.1Z"/>
      <path class="st2" d="M95.78,76.57c0-.4-.2-1-.2-1.4v-5.5c.1-.1.3-.3.5-.3s.2.2.4.3v6c0,.3-.2.8-.3,1.1h-.4v-.2Z"/>
      <path class="st2" d="M96.28,33.17c-1.7.7-3.4,1.4-4.6,3.2,0-2,3-4,4.6-3.2Z"/>
      <path class="st2" d="M185.98,62.77c1.5-.7,2.9-.2,4.1,1.1-.2.5-.5.7-1,.2-.9-.8-2-1.1-3-1.3,0,0-.1,0-.1,0Z"/>
      <path class="st2" d="M189.28,61.37c1-.4,2,0,2.8,1.1-.3.4-.7.4-1.1.1-.5-.4-1.1-.8-1.7-1.3h0v.1Z"/>
      <path class="st2" d="M209.98,59.17v13.3c-1.4-.8-2.6-1.5-4.2-1.3v-7c0-.1,0-.3.2-.4,1.3-1.4,2.6-3,4-4.6h0Z"/>
      <path class="st2" d="M90.88,100.17c-1.3.1-2.6.4-3.9.4s-.7-.4-1-.8c.2-.2.5-.7.8-.7,1.4-.1,2.8-.4,4,.8,0,0,.1.1.1.2h0v.1Z"/>
      <path class="st2" d="M110.88,109.27c-.7-1.3-.3-2.9.8-3.5v2.8c0,.2-.4.4-.7.7h-.1Z"/>
    </g>
  </g>
  <g>
    <g>
      <path class="st1" d="M65.78,194.27c.8,1.3,1.4,2.3,2.3,3.3.3.4.8,1,1.1,1.3.7.7,1.3,1.3,2,1.8.3.4.8.8,1.3,1.1,2.8,1.8,6.8,4.2,10.4,3.6.4.1.8.2,1.3.2,3.3,0,6.6-.2,9.8-1.3.4-.1.9-.3,1.3-.7,3.8,2.8,10.3,1.4,14.8,1.4s4.7,0,6.6-1c.4.2,1,.3,1.3.4,1.4.2,2.8.4,4.3.3.4,0,1-.1,1.3-.2h0c-.8.2,1.5.2,1.4.2.8,0,1.3-.2,2-.4,1.8-.7,3.4-2,3.9-4,0-.3.1-.7.2-1.1.2.1.4.2.7.2.2.9.8,1.6,1.3,2.2,1.4,1.5,3.3,3,5.4,3s3.7-.8,4.9-2.3c.4-.5.4-.8.8-1.3.8.8,1.6,1.3,2.6,1.8.4.2.9.4,1.3.4.4.3,1,.5,1.4.8,3.7,1.4,7.1.9,10.8.2.3,0,.7-.1.9-.3.4,0,1-.2,1.3-.4,1.6-.9,3.3-2.1,4.7-3.5.7,2.8,2.8,4.3,6.1,4.6.3,0,.8,0,1.1-.1.2,0,.5,0,1,.1h2.8c2,0,3.8,0,5.5-.7h0c1,.4,2,.8,3,.8h8.3c.8,0,.1,0,.2,0h.8c4.3,0,9.5.4,11.4-4.3,1.6-4,3-8.6-1.4-11.4-.1-.1-.3-.2-.4-.2,0-.7,0-1.3.2-2v-.2c1.4-1.5,2.2-3.5,2.2-5.9,0-3.8-3.9-7-7.6-7h-8.8c-1.6,0-3.2,0-4.7.1-2.2-.4-4.7,0-6.7,0s-5.1-.2-7.6-.2-5.8-.2-7.8,2c-1-.7-2-1.1-3.2-1.5-5-1.8-10.9-1.1-15.2,1.8-1.3-1.6-3.4-2.3-5.7-2.5h-1.2c-2.5,0-5.7-.2-7.6,1.1-1.1.8-1.8,1.6-2.3,2.6l-.7-.7-1-1s-.1,0-.3-.2c-1.4-1.1-2.9-2-4.8-2s-1,0-1.4.2h-.2c-1.4,0-2.9.3-4.2,1-.2-.1-.4-.2-.7-.2-1.8-.8-4.6-.7-7.1-.7s-3.5-.1-5.4-.2v-.5c0-1,0-2-.1-2.9,0-.1-.1-.9-.2-1.3,0,.4-.2-1.6-.3-1.8-.1-.4-.3-1-.5-1.4-.2-3.4-1.3-6.1-4.9-7.2-3.8-1.3-7.8-1-11.7-.5-4.2.4-8.7,1.4-12.3,3.8-.7.4-1.1.9-1.6,1.3-.2.1-.5.3-.8.5-.9.8-1.6,1.4-2.3,2.3-.2.2-.4.3-.7.7-4.3,4.9-6,11.8-5.5,18.3.2,3.4,1.8,6.4,3.4,9.2v.2l-.3.2-.2.1ZM173.78,188.47h0ZM173.98,186.97s0,0,0,0h0Z"/>
      <path class="st1" d="M127.18,175.67s.2,0,.4.3c0,0-.5-.7-.4-.3Z"/>
      <path class="st1" d="M87.88,207.37c.7,0,.9-.2,0,0h0Z"/>
      <path class="st1" d="M260.68,222.57c-.1-1-.7-2-1.6-2.8h0c.2-.8.4-1.6.4-2.5s-.1-1.6-.1-1.2v-.8c0-2-.2-3.7-1.6-5.1-1.7-2-4.7-3.4-7.4-2.8-1.1-.2-2.2-.3-3.3-.3-3.4-.2-7.1.4-9.8,2.3-1.3-1.6-3.4-2.3-5.5-2.5-.7,0-1.2,0-1.7.2h-3.5c-2.2,0-4.1.9-5.3,2.7-.2.2-.3.5-.4.9-2.5-2.6-4.9-3.9-9-3.5-.8,0-1.4.2-2.2.5-1.6-.8-3.5-.9-5.3-.8-3.3.1-7.1-.5-9.6,2.2-.7.8-1.1,1.4-1.4,2.2-1.4-1.4-3-2.5-5.1-3.2-.3-.1-.8-.2-1.1-.2s-.3-.1-.4-.1c-3.5-.8-7.1-.7-10.8-.7s-.8,0-1.1.1c-.4,0-.9,0-1.3.2-.1,0-.2,0-.4.1-.9-.5-2-.8-3.2-.5-2.5,0-5.2-.1-7.3,1-.4-.2-.8-.3-1.1-.4-.7-.2-1.3-.2-2-.3h-8c-.2,0-.4,0-.8.1-2.3-.8-4.9-.1-7.4-.1s0,0,0,0h-.8c-2.9,0-5.9-.2-8.8-.1-1,0-1.8.2-2.5.4-.8-.2-1.6-.3-2.5-.3h-5.3c-1.1,0-2.3.2-3.3.8-1.1.7-1.8,1.6-2.4,2.6-1.3-1.5-2.8-2.9-4.9-3.5-2-.4-4.7-.2-6.7.5h-.1c-.7-.2-1.4-.4-2.2-.4-.5-.1-1.1-.2-1.6-.2h-2.5c-.5,0-.9,0-1.2.2-1-.1-1.8-.1-2.8,0h-.1c-.4,0-.8-.1-1.2-.1h-4.2c-1.1,0-2,0-2.9.4h0l.3-.2c.1,0,.2,0,.3-.1h0c-.7,0-2.2,0-.7,0h-.8c-1.1-.2-2.5-.2-3.6-.1-1.3.1-2.5.7-3.5,1.4-1.5-1.4-3.7-1.6-6-1.2-.4-.1-.9-.1-1.3-.1h-.5c-1.5,0-3.2,0-4.6.7-.7.2-1.2.7-1.7,1.1-1.8-1-3.9-1.6-6.2-1.8-2.9-.2-5.8.2-8.3.2s-.7-.1-1.1-.1c-.8,0-1.5-.2-2.3-.1-1.6.1-3.2.8-4.2,1.8-.4-1.2-1-2.5-1.4-3.6-.2-.5-.5-1.1-.8-1.6-.1-.3-.3-.7-.4-1,0,.1.4.5.2,0-.2-1-.7-2-1.1-2.9,0-.2-.2-.4-.3-.7v-.8c.5-6.1-5.1-8.6-10-5.9-4.3,2.3-4.5,6.2-6.4,10.1-2.2,4.3-3.2,9.3-5.1,13.8-1,2.2-1.7,4.3-2.5,6.6-.2.8-.5,1.5-.8,2.3-.8.4-2.2,1.4-2.3,1.6-1,1-1.6,1.8-2,3.3-.7,2.9,1,5.9,3.8,6.7,2.3.7,4.9.4,7.2.2,1.4-.1,4.1.5,6.1,0,1.7-.5,3-2,3.7-3.5.4.8,1,1.4,1.8,2,2.7,1.8,4.8,2,7.9,2h14.2c3.2,0,0,0,0,0,2.5.3,5.5-.2,7.9-1.1.2,0,.4-.2.7-.2.7-.1,1.3-.3,2-.8.2-.1.4-.3.7-.4,2.3-1.2,4-3.2,5.2-5.3.2.4.4,1,.7,1.4.7,1.4,1.1,3.4,2.3,4.6,2.7,3,6.7,2.6,9.2,0,.4.4,1,.9,1.4,1.1,2.5,1.4,5.9.8,8.5.7,3.5-.1,8.5.9,12-.9.4.2,1,.3,1.3.4,1.4.2,2.8.4,4.2.3.3,0,.7,0,1-.1.4,0,.8.1,1.1.1,1.3,0,2.5-.3,3.7-1,1.3-.8,2.4-2,2.6-3.5h0c.2.1.3.3.3.2.2.3.7.7,1,1,1.1,1.3,2.5,2.7,4.2,3,.7.1,1.2.1,1.8.1h1.7c.2,0,.4-.1.7-.2.2,0,.3-.1.5-.2.3-.2.7-.5,1-.8h0c.3-.2.7-.7.8-1h0c1,1.7,2.8,2.7,5.3,2.8.3,0,.7,0,1-.1.2,0,.4,0,.9.1h1.2c2.5,0,5.7.4,7.8-1,1.5-1,2.5-2.5,2.8-4.1,1.5,2.5,4,4.3,7.5,5.2,4.2,1.1,8.6,0,11.7-2.3,1.5,1.7,3.9,2.2,6.2,2.2h4.7c2,0,3.6-.7,5.2-1.8h.1c2.5,2,6.3,2.5,9.3,1.3.7.3,1.3.5,2.1.7h1.8c.8,0,1.6-.2,2.5-.7.3,0,.7,0,1,.1h.4c2.1.2,4.6.2,6.4-.7.9.7,1.8,1.1,3,1.1s.4,0,.7,0,2.3-.3,1.1-.1c-.9.1-.1,0,0,0h1.2c.4.1.9.1,1.3,0,.9-.1,1.3-.2,2.2-.8,1.5-.8,2.6-2.1,3.2-3.7v-.3c2.7,3,5.8,6.4,10.2,3.7,1-.5,1.5-1.3,2-2.2,1.7,1.4,3.8,2.5,6.2,3.2,2.6.8,5.7,1,8.4.8,1,0,1.6-.2,2.5-.7h.2c.7-.2,1.3-.4,2-.7,1.4-.7,2.6-1.3,3.5-2.5,0-.1.4-.8.7-1.2.2-.4.5-.9.7-1,.5-1.1.8-2.5.7-3.8.3-.4.7-1,.9-1.3.8-1.3.9-2.9.3-4.3h.5l-.2-.5v.1ZM250.98,217.67h0ZM249.58,218.27h0ZM253.88,211.77h0ZM15.28,225.47h0ZM31.18,229.47c-.7-1.5-1.8-2.5-3.2-3.2,0-.4.2-.8.2-1.2h4.6c.2.4.4,1,.8,1.6-.2.1-.3.2-.5.3-.9.7-1.5,1.4-2,2.3h.1v.2Z"/>
    </g>
    <g>
      <path class="st0" d="M114.98,194.37h-.4c-.2,0-.8.7-1.6,1.7s-2,1.8-3.5,2.2h-.1c0,.1-1.6.1-1.6.1-1.7,0-2.8-.2-3.3-.5s-.7-1.4-.7-3.2v-.8c0-.2,0-.4-.1-1-.1-.4-.1-.8-.1-1s0-.3.1-.7.1-.7.1-.7c.2-.2.5-.2.9-.2h2.9c.7,0,1.3.2,1.8.7h.4c.2.4.4.9.7,1.4,0,0,.1.2.3.4s.4.4.5.4c.4,0,.7-.4.7-1.1v-4.1c0-.8.1-1.4.3-1.8-.3-.4-.8-.7-1.1-.7h-.3c-.2.4-.4.8-.4,1-.4.4-.7.8-.9,1.1-.5.3-1.4.5-2.5.4h-3v-.4h0c-.8.3-1.7.8-2.3.9-.3,0-1,.4-1.8.8v1.1c0,.3,0,.7-.1,1.2s-.1,1-.1,1.3,0,1.1.1,2c0,1,.1,1.6.1,2.1v.2c-.1.5-.2.8-.4.9-.9.4-1.6.7-2.2.9-.2.3-.4.7-.7,1,.2.7.7,1,1.2,1h14c.4,0,1.1-.2,2-.7,1-2.4,1.5-4,1.5-4.7s-.2-.7-.8-1h0l.3-.2h.1ZM73.68,174.47v-6.4c-.4.4-.9.8-1.2,1-.7.8-1.1,1.3-1.4,1.6,1.1,1.5,2.6,3.9,2.6,3.7h0v.1ZM81.18,196.47c-.7-.4-1.1-.8-1.4-1-.4-.3-.8-.7-1-.9-1-.8-1.7-1.4-2.2-2-.7-.8-1.1-1.4-1.6-2.2h-.2c-.8.2-1.5.3-2,.4.2,0,.5-.1.8-.2h0c.1,0,.2,0,.4-.1h0c.1,0,.2,0,.4-.1,0,0,.2,0,.3-.1-.5-.9-1-1.7-1.2-2.6-.4-1.5-.8-3.4-.8-5.8s.2-3,.5-4.1c0-.2.1-.4.2-.7h0c-.2-.8-1.5-3.7-2.5-5.7-.1-.2-.2-.4-.3-.7-.2.2-.4.5-.7.7-1,1.3-1.6,2.6-2.2,4.2-.8,2.2-1.2,3.9-1.3,5.2v4.1c0,.4.1,1.3.4,2.1.4,1.1.7,1.6.7,2,.8,1.6,1.4,2.8,2,3.5.3.7.7,1.2,1.1,1.8.7.4,2.6,1.7,3.4,2.2.9.7.3.7.2,1.4.4.3,1,.7,1.3.8,1.6,1.3,3.7,2,5.9,2.3.1,0,.2-.2.4-.2s.2-.1.2-.2c1.1-.8,1-1.7,1.2-3.6-1.1-.1-1.8-.2-2.2-.5h.1-.1.2ZM95.18,193.07s-.2.1-.5.7c-.3.4-.4.7-.5.7-.2,0-.4.2-.8.7-.2.4-.5.7-.8.7h-.4c0,.1-.3.2-.7.3-.4,0-.7.2-.7.4-.2.2-.5.3-.8.4h0c-.2.3-.3.7-.4.8q-.07.07,0,0c0,.2-.1.3-.1.4,0,.7,1.8.7,1.8.7,0,0,1.4.2,2.7.4.3-.2.7-.4.9-.8.7-.5,1.1-1.1,1.3-1.4.7-.4,1-1,1-1.5-.4-1.7-1.1-2.5-2-2.3h0c0,.1-.1-.1-.1-.1l.1-.1ZM84.58,200.77h0c.4-.5,2-2.2,3.2-3.5h-.8c.2,0-.3,0-1.4-.1h-.4v1c-.2.5-1.1,1.8-1.8,3,3.6,0,6.4-.3,8.5-1.1-.9-.4-1.7-.8-2.5-.8-2-.2-4.6,1.4-4.7,1.4h0l-.1.1ZM70.68,194.37c.7.9,1.3,1.7,2.2,2.6.2.1.4.2.7.4-.3-1.2-2.2-2.6-2.7-3h-.2ZM97.18,180.87c0,.2.4.7,1.3,1,.9.4,1.3,1,1.3,1.7v2.7c0,.3,0,.7-.1,1.1,0,.7-.1,1-.1,1.2h0c.7-.3,1.2-.7,1.6-.8,1.4-.7,1.4-1.2,1.8-1.8.1-.2.4-.7.8-1.1v-.8c0-.7-.1-1.3-.2-1.6,0-.2.4-.4,1.1-.4.1-.1,1.5-.2,4.3-.2s1,.2,1.5.7h3.5v-1.8c0-.8-.2-.3-.8-.7-.5-.2-.9-.4-1-.4h-13.4c-1.1,0-2,.4-2,1.3h.2l.2-.1ZM121.28,179.57h-.7.7ZM127.78,187.07h0s0-.4.2-.9c0-.1.1-.2.2-.2h.2c-.7-.8-1.1-1.3-1.3-1.6-.5-.4-1-.8-1.2-1.1-1.1-1.3-1.8-2.2-2.2-2.6-.1,0-.4-.2-.9-.7-.4-.3-.9-.5-1.1-.5h-.2c0,.1,4.9,5,5.3,5.9.3.8.8,1.4.8,1.6h0c0,.1.1.1.1.1h.1ZM111.48,183.17c.9.8,1.3,1.3,1.5,1.3.2-.1.4-.2.7-.4.1-.1.2-.2.2-.4s.2-.2.2-.5h-2.6,0ZM74.78,173.77c.8-1,1.4-1.6,2-2.1.8-.8,1.2-1.4,1.6-1.8.4-.2.8-.4.9-.5.8-.5,1.4-1.1,2.2-1.6.4-.2,1.3-.5,2.9-.8,1-.2,1.6-.2,2-.2,2.2,0,3.7.4,4.7,1.2.2.1,1.1.8,2.4,2.2,1.2,1.1,2,2,2.3,2.4.2.2.2.7.3,1.1,0,.4.2.7.4.7h1.3c0-1.2,0-2.2-.1-2.9,0,0,0-.2-.1-.7s-.1-.4-.1-.5c0-.2,0-.4-.1-.7,0-.4-.2-.8-.7-1.3v-1.4c0-.9,0-1.4-.4-1.8-.3-.4-1.2-.7-2.5-.9-.8-.2-1.3-.4-1.6-.5-.4,0-1,0-1.4.1-.4,0-1,.1-1.3.1-3.2,0-5.9.3-8.3,1-2.8.8-4.8,1.6-5.9,2.4-.3.2-.7.4-1,.8.1,1.8.3,5.1.4,7.5.1-.7.2-1.2.3-1.6h0c0,.1-.2.1-.2.1v-.3ZM103.98,186.37c-.3.7-.5,1.2-.5,1.2h.5v-1.2h0ZM126.58,189.67c.2.1,1.6,1.1,1.6.9s-.7-2.5-1.6-4c-1.1-1.4-4-4.7-4.9-5.5s-.9-1.3-1.1-1.3-.2,0-.4-.1c-2.2.1-3.2.7-3.3,1.3.4.4.8.8,1.1.9.4.2.7.4,1,.7h1-.8c.5.3.8.7.9.8.2.2.2,1.1.2,2.6v8.6c0,.7-.1,1.3-.4,2.1-.2.8-.4,1.1-.4,1.2,0,.2,0,.4-.1.4-1.4.1-2.2.5-2.2,1.3s.3.5,1,.8c.2.2,1,.2,2.4.2s.5,0,1,0h1c.7,0,1.2,0,1.7.1.8-.2,1.1-.5,1.1-1s-.4-.8-1.3-1c-.9-.2-1.3-.7-1.3-1.1s0-.3.1-.7c0-.2.1-.5.1-.8s0-.8-.1-1.4c0-.7-.1-1.1-.1-1.3,0-.8,0-1.7.1-3.2,0-1.4.1-2.4.1-3v-1.4c1.8,2.1,3.3,3.6,4.2,4.6.3.4,1.1,1.1,2.3,2.2,1,.9,1.6,1.6,2.2,2.2.1.2.4.4.7.8-.8-1.1-1.8-2.1-2.3-2.5-.8-.8-3.2-3-3.4-3.2h0l-.1-.2ZM197.88,191.67c0,.2.2.4.2.8,0,0,.1.2.3.4.2.2.4.4.5.4.4,0,.7-.3.7-1.1-.3-.2-.7-.4-1-.5-.2-.1-.4-.1-.8,0h.1ZM187.28,192.97c0,.4,0,1.1.1,2v.5c1.6-.7,3.5-1.5,4-2v-.4c-.7-.3-2.6-.5-4.1-.8v.7h0ZM185.58,181.57c.1,0,.2.1.4.2.9.4,1.3,1,1.3,1.7v2.7c0,.3,0,.7-.1,1.1,0,.7-.1,1-.1,1.2.1.7.2,1.3.2,2s0,.7-.1,1.2h0c1.1.4,2.6.7,3.9.9v-.4c0-.1,0-.3.1-.7s.1-.7.1-.7c.2-.2.5-.2.9-.2h2.9c.7,0,1.3.2,1.8.7h.4c0,.1,0,.2.1.2.3-.1.8,0,1,0,.4.1.8.2,1,.3v-3.5c0-.8.1-1.4.3-1.8h-.1c-.5-.1-1-.2-1.6-.3-.1.2-.2.4-.2.7-.4.4-.7.8-.9,1.1-.5.3-1.4.5-2.5.4h-3v-4c0-.7-.1-1.3-.2-1.6,0-.2.4-.4,1.1-.4.1-.1,1.5-.2,4.3-.2s1.5.4,2.4,1.3c.9.8,1.3,1.3,1.5,1.3.2-.1.4-.2.7-.4.1-.1.2-.2.2-.4.2-.2.4-1.1.4-2.5-.7-.4-1.3-1-2-1.5h-13.2c-1.1,0-1.3.1-1.6.4h0s-.1,0-.1-.2-.1-.2-.2-.2c-.7,0-1.6,0-2.9.1-1.3,0-2.2.1-2.8.1s-1,0-1.8-.1c-.8,0-1.4-.1-2-.1h-6.6c-.8,0-1.3.2-1.5.5s-.4,1-.8,2-.4,1.6-.4,2,0,.8.2,1.5c1.1,0,1.8-.2,2.1-.8.4-.7.8-1.3,1.2-2,1-.2,1.5-.4,1.8-.4h2.2c.2,0,.4.2.4.8v1s0,.3.2.9c.1.5.2.9.2,1.1s0,.5-.2,1c-.1.4-.2.8-.2,1.1s0,.4.1.7c0,.3.1.7.1.8s0,.5-.1,1c0,.4-.1.8-.1.9s0,.3.1.7c0,.2.1.4.1.7v3.5c.7.2,1.1.2,2.1.5.3,0,1.1.1,2.1,0v-8.3c0-.4,0-1.1.1-1.8,0-.8.1-1.4.1-1.8s0-.4-.1-.8c0-.3-.1-.5-.1-.7v-.2h.4v-.8h2.7c.8,0,1.1.2,1.1.5v.7c0,1,.4,1.4,1.1,1.4h.2c0-.1.3-.1.3-.1.8-.4,1.2-1.3,1.3-2.6v-.4h0l.2-.4.1-.6ZM202.48,194.37h-.4c-.2,0-.8.7-1.6,1.7s-2,1.8-3.5,2.2h-.1c0,.1-2.6.1-2.6.1.2.8.4,1.3.5,1.8v.2s0,.1.1.2h4.7c.4,0,1.1-.2,2-.7,1-2.4,1.5-4,1.5-4.7s-.2-.7-.8-1h.2v.2ZM192.08,197.87c-.4-.3-.7-1.4-.7-3.2v-.7c-.7,0-2.5.9-4,1.8v1.3c-.1.5-.2.8-.4.9-1,.4-1.7.8-2.3,1l-.4.7c.2.8.7,1.1,1.3,1.1h8.5c-.2-.8-.5-1.6-.8-2.3-.7,0-1-.2-1.2-.4h0v-.2h0ZM135.48,198.97l.4.4c.8.9,1.3,1.3,1.6,1.3s.7,0,1-.2v-.2c.1,0,.1-.7.1-.7-1-.2-1.7-.3-2-.3-.4,0-.8-.2-1.1-.1h0v-.2ZM151.18,200.07c-.2,0-.7,0-1,.1h0c-.1,0-.2,0-.4.1,1.3.5,2.7.8,4.2.8s1.5-.2,3.8-.7c-1.1-.4-2.5-1-3-1s-2.7.7-3.6.7h0c0-.1,0,0,0,0h0ZM180.18,198.97c-.3,0-.7-.2-1-.3-.2.2-.5.4-.8.7-.7.4-1.4.7-1.4.7v.8h2.1c1.5,0,2.3-.4,2.3-1.1s-.4-.5-1.1-.7h-.1v-.1ZM139.78,179.57c-2.6,0-4.6,0-5.9.1-.2,0-.4,0-.7.2s-.3.4-.3.7.2.7.9,1c.4.1.9.2,1.3.4.8,0,1.1.8,1.1,2.2v7.8c0,.8-.1,1.3-.3,1.4-.1-.1-.7-.5-1.4-1.2-.7-.5-1.1-1-1.3-1.4-.8-1-1.4-1.8-2-2.3h0c-1.1-1.2-2-2.1-2.5-2.6,0,.7-.3,2.3,0,3.4.4,1.3,1.6,2.7,3.8,4.7s2.2,2.5,3,3c.4.2,1.8.7,3.2,1.1v-4.9c0-.3,0-1.1.1-1.8s.1-1.4.1-1.8v-4.2c0-2.3.3-3.5,1-3.6,0,0,.4-.1,1.1-.4.4-.2.8-.4.8-.9,0-.8-.7-1.1-1.8-1.1h.2l-.3.3-.1-.1ZM162.28,183.37c-.5-1.1-.8-1.6-.8-1.6.8.9,2.2,4.9,2.6,5.5s1,1.3,1.5,1.7h.1c0-.2,0-.4-.1-.8-.1-.5-.2-1-.2-1.3s-.2-1-.7-1.7c-.4-.9-.7-1.4-1-1.7-1-1.3-2.3-2.4-3.9-3.2s-3.2-1.2-4.8-1.2c-2.6,0-4.7.4-6.3,1.2s-3.2,2.3-4.6,4.3c-.2.4-.4.9-.7,1.2-.9.5-1.3,2-1.3,4.2s1.1,5.5,3.4,7.7c.8.7,1.4,1.2,2.3,1.6,1.6-.2,2.8-.8,3.8-1.6-1.1-.4-2.1-1.2-3-2.3-.8-1-1.3-1.6-1.4-2.3-.3-1.2-.4-2.6-.4-4.2s.7-3.9,2-5.4,3-2.2,5.1-2.2,1.6.2,2.5.5,1.8,1.2,2.8,2.5,1.5,2.5,1.5,3.5v2.3s.1,0,.1.1h-.1v1.8c0,.2-.2.8-.8,1.8-.4.9-.7,1.5-.9,2-1.1,1.4-2.5,2.3-4.5,2.4.1.2.3.3.5.3s.7.2,1.1.4c.7.2,1.3.7,2.2,1h.2c1.1-.8,2.1-1.3,2.6-1.7.8-.8,1.3-1.3,1.6-1.7.4-.5.9-1,1.1-1.3,1-1.7,1.4-3.7,1.4-5.7-.8-.5-1.3-1-1.6-1.2-1-.7-1.4-4-2-5.2h.4l.3.3ZM178.48,198.77c.2-.1.3-.2.5-.3-.2-.1-.3-.2-.4-.4h-.4c-.8-.2-2.9-.4-4.5-.4-.1.3-.2.7-.5.9-.8,0-1.4.2-2.2.4h-.1c0,.2,0,.4.1.5,0,.5,0,1,.1,1.1s.5.2,1.1.2c-.2-.1.1-.1,1.3-.1s.3,0,.7.1h2.4c0-.4,0-.8-.1-.8-.2-.2-.4-1.1-.4-1.1l.7.7s.9,0,1.6-.7h.2l-.1-.1Z"/>
      <path class="st0" d="M104.28,227.17h-.3c-.2,0-.8.5-1.5,1.6s-2,1.8-3.4,2.1h-.1c0,.1-1.5.1-1.5.1-1.7,0-2.7-.2-3.2-.5s-.7-1.3-.7-3v-.8c0-.2,0-.4-.1-.9-.1-.4-.1-.8-.1-.9s0-.3.1-.7.1-.5.1-.7c.2-.2.5-.2.8-.2h2.8c.7,0,1.2.2,1.7.5h.4l.7,1.4s.1.2.3.4c.2.2.4.4.5.4.4,0,.5-.3.5-1.1v-3.9c0-.8.1-1.4.3-1.8-.3-.4-.8-.7-1.1-.7h-.3c-.2.4-.4.8-.4,1-.4.4-.7.8-.8,1-.5.3-1.3.4-2.5.4h-2.9v-3.8c0-.7,0-1.2-.2-1.6,0-.2.3-.3,1.1-.3.1-.1,1.4-.2,4.2-.2s1.4.4,2.3,1.2c.8.8,1.3,1.2,1.4,1.2.2-.1.4-.2.5-.3-.5-.5-1.3-1.1-2-1.7-1-.9-1.8-1.6-2.3-2-.2-.1-.4-.2-.7-.4h-2.9c-.1,0-.3.1-.5.2-.5.2-1.2.4-1.8.5-1.1.2-3,2.7-3.3,2.6v3c0,.3,0,.7-.1,1.1,0,.7-.1,1-.1,1.1.1.7.2,1.2.2,1.8s0,.7-.1,1.1c0,.5-.1,1-.1,1.2,0,.4,0,1.1.1,2,0,.9.1,1.5.1,2v.2c-.1.5-.2.8-.4.8-1,.4-1.6.8-2.2.9l-.4.7c.2.8.7,1.1,1.2,1.1h13.6c.4,0,1.1-.2,2-.7,1-2.3,1.4-3.8,1.4-4.6s-.2-.7-.8-1h.4-.1l.2.2ZM66.08,217.47c-.7-1-1.2-1.5-1.4-1.7-.7-.4-1.1-.8-1.5-1-1.4-1-2.6-1.4-3.5-1.6-.9-.1-2.5-.1-4.8-.1s-1.2,0-2.2.1c-1,0-1.6.1-2.2.1h-.9c-.4,1.1-.8,2.2-1.1,3v2c0,.2,0,.8.1,1.3,0,.7.1,1.1.1,1.4v2.2c-.2.2-.2,1-.2,2.3s0,.4.1.8c0,.3.1.7.1.8,0,2-.1,3.2-.4,3.7v.2c-.2,0-.4,0-.9.2-.3.1-.7.2-.8.2h0c-.1,0-.2-.1-.4-.2-.8-.4-1.4-1-1.8-1.4-.5-.7-1.5-3.2-2.9-7.7-.4-1.2-.9-2.1-1.2-2.6-.2-1-.4-1.8-.4-2.3-.8-1.8-1.3-3-1.7-4-.7-1.8-1.2-3.2-1.4-4.1l-1.3-2.8c-.1-.7-.2-1.1-.2-1.4-.2-.7-.4-1.1-.5-1.4,0-.2-.2-.7-.5-1.1-.2-.4-.4-.8-.4-1.1v-3.3c0-.3-.2-.7-.9-.7s-1.7.5-3.5,1.8c-.1.2-.2.4-.2.7v.3c-.7,1.3-1.1,2.6-1.4,3.8-.1.3-.4,1-1,2-.4.8-.8,1.4-.9,2-.8,2.7-1.8,5.9-3.2,9.3-.8,2-1.4,3.4-1.8,4.3-1.6,4.7-2.5,7.3-2.8,7.8-.5,1-1.3,1.5-2.3,1.8-.2.2-.7.5-1.2,1-.1.2-.2.4-.2.7,0,.4.2.7.5.7s1,0,2,.1h1.8c.4,0,.7,0,1.2-.1.5,0,.9-.1,1.1-.1.4,0,1.1,0,2,.1.9,0,1.4.1,1.8.1.7,0,1-.2,1-.9s-.4-.9-1.3-1.3c-.7-.2-1.3-.4-2-.7-.5-.8-.8-1.4-.8-2s0-.4.1-.8l.2-.8c.7-3.4,1.3-5.4,2.3-6.2h3.2c-.2-1.1-.5-2.2-.8-2.9h-1.4c.3-.9.7-2,1.2-3.3.1-.4.3-1,.5-1.4h0c.2-.8.4-1.5.7-2.3.2-1.1.3-1.5.3-1.6v.5c0-.2.1-.4.2-.7.7-2.1,1.1-3.2,1.4-3.4,0,0,0,.1.1.2.4.2.8,1,1.2,2.3.2,1,.4,1.8.8,2.8.7,1.3,1.1,2.4,1.4,3,.4,1.3.9,2.5,1.3,3.5-.4.2-1.3.3-2.3.3h-4.9c.1.5.4,1.6.8,2.9h5.5s.7.2,2,.5h.1v.3c.7,1.4,1,2.6,1.3,3.4.2.8.7,1.4.9,2.2.4,1,.7,1.7.7,2.2s0,.1,0,.2,0,.2-.1.2c0,.3-.2.7-.5,1,0,.1-.7.3-1.6.7-.7.2-1.1.4-1.3.8.7.4,1.3.9,2,1.3h6.6l-1.4-1.4c-.8-.9.2-6.2.2-6.5,0,.2,0,4.5.1,5.5,0,.5.8,1.4,1.6,2.3h10.5c-1.7-1.6-3.4-3.3-3.5-3.5.2.2,1.5,1.3,3.2,2.7.2.2.7.5,1,.8h.1c2.4,0,4.3-.3,5.9-1-.2-.9-.5-1.8-.8-2.8-.4.3-.9.7-1.3,1-2.5.4-3.9.7-4.1.7-1.6,0-2.5-1-2.5-2.7s0-.4,0-.9v-6.3c0-.4,0-1.1.1-1.8,0-.9.1-1.4.1-2,0-1,0-1.4.2-1.6s.8-.3,1.6-.3c2.1,0,3.5.2,4.1.5.9.4,1.4.8,1.7,1s.8.8,1.3,1.5c.3.4.7.7.8.9.2.7.4,1.6.7,3,0,.1,0,.2.1.4s.1.4.1.5l-.4,1.8c-.2,1-.4,1.8-.5,2.3-.2.5-.8,1-1.2,1.5.3,1.4.7,2.6,1,2.9h.1c.2-.1.4-.2.5-.4.4-.9,1-2.6,1.3-3.8-.2,1.1-.7,2.4-.9,3.6.1,0,.4-.2.7-.2.4-.1.7-.2.9-.4.4-.5.7-.9.8-1.1,1-1.3,1.4-2.5,1.7-3.5.2-1.2.4-2,.4-2.3,0-1.6-.2-3-.7-4.2-.1-.2-.5-.8-1.2-1.7l.2-.4h0v-.3l-.1.1ZM113.08,231.37c-.2.5-.3,1-.4,1.3h0v.4h.4c.8-.2,1.1-.5,1.1-1s-.4-.7-1.1-1h0v.3ZM71.48,213.07c-2,.1-3,.2-3.2.2-.3.2-.4.4-.4.8s.2.3.8.7l.3.3c.9-.7,2-1.5,2.5-2h0ZM87.38,215.07c-.4-.2-.8-.7-1.2-1.1s-.8-.7-1.1-1h-.8c-.5,0-1-.1-1.1-.1-1.1,0-1.6.3-1.6,1s.3.7,1,.8,1,.5,1,1.2-.4,1.8-1.2,3.7c-1.1,2.5-1.6,3.8-1.6,3.8-.5,1.6-1,2.7-1.2,3.5-1.1-2-1.6-3.3-1.7-3.8s-.2-.9-.3-1.1c-.2-.3-.4-.5-.5-.7-.3-.4-.7-1.1-.9-2s-.5-1.4-.8-1.8c-.7-1.1-1.1-1.7-1.1-1.8.2-.5.4-.9.7-1,.5-.2.9-.3,1.1-.5,0-.4-.2-.8-.5-1,0-.1-.2-.3-.4-.5h-1.1c-.4.1-.8.2-1,.2-.7,0-2.4,1.3-3.7,2.2.2.2.4.4.7.5.2.4.4,1,.7,1.8.2.8.5,1.4.8,1.8.7,1,1,1.6,1.3,2.2.2.7.4,1.2.4,1.5.4.8.8,1.3,1,1.6.3.9.7,1.4.9,1.8.4,1,.7,1.6.8,2.2.4.8.8,1.3,1,1.7.4,1.1.7,2,.9,2.5.2.4.8.7,1.3.8.5-.2,1-.7,1.2-1.3.2-.7.4-1.1.7-1.7-1.4-2.5-2.8-4.9-3-5.1h0c.1.2,2,2.5,3.4,4.2.4-1,.8-1.7,1.1-2.3.4-1,.7-1.7.8-2.3.2-.3.3-.7.4-.8.3-1.5.8-2.7,1.2-3.5,1-2.2,1.6-3.7,2.1-4.8.1-.3.4-.7,1-1.1h-.1l-.6.3ZM125.48,218.67l-.4,3c0-.4.2-2.5.2-3s0-1.4-.2-1.6l-.4-.8c0,.3.1.8.1,1.2v7.6c0,.8-.1,1.2-.3,1.4-.1-.1-.7-.5-1.3-1.2-.7-.5-1.1-1-1.3-1.3-.8-1-1.4-1.7-1.8-2.2h0c-1.1-1.2-2-2-2.5-2.5-.7-.8-1.1-1.3-1.4-1.6-.5-.4-.9-.8-1.2-1-1.1-1.3-1.7-2.2-2.1-2.5-.1,0-.4-.2-.9-.7s-.8-.5-1-.5c-3.2,0-4.7.4-4.7,1.3.4.4.8.8,1,.9,1.2.8,1.8,1.2,2,1.4.2.2.2,1.1.2,2.5v8.4c0,.7-.1,1.3-.3,2-.2.8-.3,1.1-.3,1.1,0,.2,0,.3-.1.4-1.4.1-2.2.5-2.2,1.2s.3.5,1,.8c.2.2,1,.2,2.3.2s.5,0,1,0h.9c.2-.4.7-1.2,1.1-2-.4-.2-.8-.5-.8-.9s0-.3.1-.7c0-.2.1-.5.1-.7,0-.3,0-.8-.1-1.3,0-.7-.1-1-.1-1.3,0-.7,0-1.6.1-3,0-1.3.1-2.3.1-3v-1.4c1.8,2,3.2,3.5,4.1,4.5.3.4,1.1,1.1,2.2,2.1,1,.8,1.6,1.5,2.1,2.2.2.2.4.5,1,1,2.2-1.3,4.8-2.6,5.9-3.3v-.9c.1-.8.1-1.4.1-1.8v-1.1c-.7-1.1-1.8-2.8-1.8-2.8v.2h-.1v-.2l-.3-.1ZM126.98,226.17v-.9c-1.1.8-3.6,2.5-5.4,3.6.7.5,1,1,1.2,1.4,0,0,.5.7,1.4,1.6.8.8,1.3,1.2,1.5,1.2h0c.1-.1.2-.2.2-.4s.1-.2.1-.3c.2-1,.4-2.8.8-4.7h0v-1.5h.2ZM128.08,212.97h-4.2c.7,1.1,2.1,3.9,3.4,5.4,0-2,.3-3.2,1-3.3,0,0,.4-.1,1.1-.3.4-.2.8-.4.8-.8,0-.7-.7-1-1.8-1h-.3ZM126.48,233.07s.2,0,.2-.1v-.2c.1,0,.1-.1.1-.1,0,.1-.1.2-.2.2,0,0-.1.1-.2.2h.1,0ZM189.78,218.67h0c0-2.4-1.3-4-3.9-4.9h0c.2,1.2,2.2,3.2,3.9,4.9h0ZM239.48,217.77c.2-.4.7-.8,1-1.1.2-.1.4-.2.7-.5,1.3-.9,3.2-1.3,5.7-1.3s.9,0,1.3.2c1.3.4,2.1,1.1,2.4,1.7.8,1.4,1.2,2.2,1.3,2.4.2.2.4.3.8.3.8,0,1.1-.3,1.1-1.1v-3.6c0-.4-.2-.7-.3-.7l-.2-.2c-.1,0-.2,0-.2-.1-.9-.7-1.6-1-2.3-1-.2.2-.4.2-.4.3l-3-.7h-1.5c-.2,0-1,0-2,.2-1.5.2-2.8.7-3.7,1.1s-.8.4-1.2.8c.2.7.3,1.3.5,2,0,.3.2.8.5,1.2h0c0-.1-.3,0-.3,0l-.2.1ZM158.18,214.87c.9-.2,1.4-.4,1.6-.7v-.4c0-.4-.8-.7-2.4-.7.1.7.2,1.3.3,1.8.1,0,.2-.1.4-.1h0l.1.1ZM91.48,213.37c.5-.2,1.3-.4,2.2-.4h-4.7c-1,0-.7,0-.9,0h-.2c-.2,0-.7,0-1.1.1h-.1c.7.4,2.5,1.6,3,1.6s.9-.7,2.1-1.2h-.3v-.1ZM47.78,215.37c.3,0,.7.3.8.7.2-1,.4-2.1.7-2.8h-.2c-.8,0-1.3-.1-1.6-.1-1,0-1.4.4-1.4,1.1.2.2.3.4.4.7.1.2.7.3,1.4.5h0l-.1-.1ZM122.38,214.87c.4.1.8.2,1.2.4.2,0,.4,0,.7.2-.4-.9-1-2-1.4-2.6h-.4c-.2,0-.4,0-.7.2s-.3.4-.3.7.2.7.9,1h.1l-.1.1ZM103.08,216.77c.2-.3.4-1.3.4-2.9s-.2-.3-.8-.7c-.4-.2-.8-.4-1-.4h-2.7c1.4,1.4,2.9,3,3.9,4.1,0,0,.1-.2.1-.3h0v.2h.1ZM230.88,212.97h-3.7c.3.5.8,1,1,1.3-.2-.2-.8-.8-1.1-1.3h-1.7c-.2,0-.4,0-.7.2s-.3.4-.3.7.2.5.7.8c.9.3,1.6.5,2.3.7h-.5c.7.1.9.9.9,2.1v3.8c.2.4.4.9.5,1,0-.1-.2-.4-.5-.8v3.6c0,.8-.1,1.2-.3,1.4-.1-.1-.7-.5-1.3-1.2-.7-.5-1.1-1-1.3-1.3-.8-1-1.4-1.7-1.8-2.2h0c-.7-.8-1.2-1.3-1.6-1.7-.2.7-.4,1.3-.7,2-.2.8-.5,1.4-.8,2.2.3.3.8.8,1.4,1.3,1,.8,1.6,1.5,2.1,2.2.2.2.5.7,1,1l5.3-.7h0c-.2,0-2.3.7-4.6,1.3.4.4.8.8.9,1.1,0,0,.5.7,1.4,1.6.8.8,1.3,1.2,1.6,1.2s.7,0,1-.2v-.2c.1-.4.1-1,.2-1.7,0-.8.1-1.3.1-1.7v-3c0-.3,0-1,.1-1.8s.1-1.4.1-1.8v-4c0-2.2.3-3.4,1-3.5,0,0,.4-.1,1.1-.3.4-.2.8-.4.8-.8,0-.7-.7-1-1.8-1v.2h-.5l-.3-.5ZM197.48,233.17h1.3c-.7-.1-1.4-.2-2.2-.4.1.2.4.4.8.4h.1ZM205.78,231.37c-1.1-.3-1.6-.7-1.7-.9,0-.2-.1-1.3-.1-2.9s0-.9,0-1.5v-5.3c0-.4,0-1.1.1-2,0-.9.1-1.4.1-1.8v-1.5c0-.2.2-.3.5-.3s1-.1,1.4-.3.8-.4.8-.9v-.7c-.4-.3-.8-.4-1-.4h-2.7c-.7.1-1.2.1-1.5.1h-2.8c-.3,0-.7.1-1.1.3s-.7.4-.7.8.3.7,1.1,1c.5.1,1.1.2,1.6.3.2.1.4.7.4,1.3v3.7c0-.1,0,.1-.1.8-.1.2-.1,1-.1,2.2s0,.2.1.5.1.4.1.5c0,.4,0,1.1-.1,2s-.1,1.6-.1,2.2,0,.2.1.5.1.4.1.5c0,.3-.1.8-.4,1.3,0,0-.8.2-1.8.5-.8.2-1.1.5-1.2.9,2,.2,4,.4,5.5.7-.4-1.5-.8-2.8-1-3.4-.4-1,1.2-4.1,1.4-5.4.2-1.2.3-1.7.4-1.7.1,1.1-1.1,5.2-1.1,6.1s0,1.6.2,2.3c0,.2.3,1,.7,2.2h.7c1.4.2,2.5.2,3.4,0,.1,0,.2-.1.3-.2v-.2c.1-.4-.2-.8-1.2-1.1h-.3v-.2ZM193.08,231.37c-.8-.3-1.3-.4-1.4-.5-.3-.4-.4-.7-.5-.9-.4-.4-.8-.7-1-.8-.7-.8-1.1-1.3-1.4-1.7-1.1-1.1-1.6-1.6-1.8-1.7-.9-.7-1.4-1.1-1.8-1.4.4,0,.8-.1,1-.3s.4-.3.7-.4c.2-.1.4-.2.7-.2.4-.3.8-.7.9-.9,1-1,1.4-2,1.5-3.2-.2-.2-.4-.4-.8-.7-1.6-1.4-3.5-3.7-3.9-4h0c-.2-.1-.7.8-1,1.6.3.2.8.7,1.2,1.2.1.8.2,1.4.2,1.8.1.4.2.5.2.5h0c0,.8-.2,1.3-1.1,2-.8.5-1.5.9-2.3.9s-1.6,0-2.5-.2c0-.2-.1-1-.1-2.2s0-.9-.1-1.4c0-.5-.1-.9-.1-1.1v-1c0-.5,0-.9.2-1.1.4-.2.9-.2,1.3-.2,1,0,1.8.2,2.3.5.1,0,.2.1.3.2.1-.8.2-1.5.4-2.3v-.2c-1.2-.2-2-.4-2.1-.4h-7.4c1.3,2.9,2.7,5.8,2.7,5.8,0,0-1.1-1-2-2.1.1.4.1.8.1,1.3v8c.7.4,1.4.9,2.2,1.3.7.3,1.1.7,1.7,1v-1.1c0-.8.1-1.3.1-1.6s0-.2-.1-.3v-.7s0-.1.1-.1h.9c1.1,1.4,2,2.4,2.6,2.9.5.7.9,1.2,1.1,1.6,1,.9,1.8,1.4,2.3,1.8,1.1.2,1.8.4,2.4.4s2.5.2,4.6.4c-.1-.2-.4-.4-.9-.5h0l.7-.2-.1.2ZM188.88,232.07h-.9c1,.8,2,1.1,2.9,1.1s1.1,0,1.6-.2c.5-.1,1-.3,1.1-.5-1.7-.2-3.4-.3-4.2-.4h-.7.2ZM179.98,229.97c0-.2-.1-.4-.2-.7-1.1-.5-2.6-1.2-4-1.8h0c0,2.1-.2,3.2-.7,3.6-.1,0-.5.2-1.3.4-.7.2-1,.4-1,.8s.1.3.3.7c.9.2,1.4.3,1.4.3h6.5l.7-.3c.3-.2.5-.3.8-.5h0c-1-1-1.8-1.8-2.6-2.4h.1v-.1ZM254.78,224.17c-.2-.2-.4-.3-.7-.3h-7.1c-.8.4-1.2.8-1.2.9l.3.8c1.1.5,2.1.8,2.7,1,.3.4.4,1,.4,1.3v1.6c0,.7-.4,1.1-1.1,1.4s-.5.2-.8.2v.7s0-.2-.2-.7c-.3,0-.7.1-1,.1-3.4,0-5.7-1-7.1-3-.1-.1-.2-.8-.7-1.8-.2-1.1-.4-1.8-.4-2v-1.3c-.1-.3-.1-.4-.1-.4,0,0,0-.1.2-.5.2-1,.4-2,.7-2.9v-.2c-.7-1.1-1.1-2.4-1.4-3.6-.3.3-.8.7-1.1,1-1,.9-1.4,1.4-1.6,1.8l-.2.8c-.2.4-.3.7-.4.8-.4,1.1-.7,2.3-.7,3.7,0,3.4,1.3,6,4,7.8,2.3,1.6,5.2,2.4,8.7,2.4s2.3-.2,3.8-.7c1.8-.4,2.8-1.1,2.8-1.8.4-.4.8-.9.8-1.2,0-2.1,0-3.2.1-3.5,0-.1.2-.3.7-.7s.7-.7.8-1c0-.2-.1-.4-.3-.7v-.2h0v.3l.1-.1ZM217.58,216.57c-1.1-1.3-1.7-2.2-2.1-2.5-.1,0-.4-.2-.9-.7-.4-.3-.8-.5-1-.5-3.2,0-4.7.4-4.7,1.3.4.4.8.8,1,.9,1.2.8,1.8,1.2,2,1.4.2.2.2,1.1.2,2.5v8.4c0,.7-.1,1.3-.3,2-.2.8-.3,1.1-.3,1.1,0,.2,0,.3-.1.4-1.4.1-2.2.5-2.2,1.2.7-.2,1.3-.5,2.2-.8,1.4-.4,2.5-.9,3.4-1.1,0-.1,0-.3.1-.7,0-.2.1-.5.1-.7,0-.3,0-.8-.1-1.3,0-.7-.1-1-.1-1.3,0-.7,0-1.6.1-3,0-1.3.1-2.3.1-3v-1.4c1.6,1.8,3,3.3,3.9,4.2.4-1.6.7-3.3.7-5.1-.1-.2-.2-.3-.4-.4-.5-.4-.9-.8-1.2-1h-.3l-.1.1ZM216.48,231.67c-1.3.4-2.8,1-4.2,1.5h2c.7,0,1.2,0,1.6.1.8-.2,1.1-.5,1.1-1s-.2-.4-.4-.7h0l-.1.1ZM166.68,226.87c-.7,2.9-2.2,4.3-4.6,4.3s-3.7-.8-4.5-2.3c-.2-.8-.3-1.3-.3-1.6l-.2-.2c0-.2-.1-.7-.1-1.2s0-.7.1-1c0-.4.1-.8.1-1v-1.5c-.5.2-2.5,1.1-4,1.6v.8c0,.7-.1,1.1-.1,1.4s.2,1.3.5,2.6.7,2,.8,2.2c.4.8,1.3,1.4,2.7,2,1.3.5,2.4.8,3.4.8,2.7,0,4.8-.7,6.1-1.8.7-.4,1-.9,1.3-1.1.7-.8,1.1-2.2,1.4-3.9h-2.7.1v-.1ZM143.98,231.57c-.9-.2-1.5-.7-2-1.2v-1.5h-1.2c-.7.2-1.1.9-1.3,1.6-.2.9-.4,1.3-.4,1.6v1h3.8c1.4,0,2.2-.3,2.2-1.1s-.4-.5-1.1-.7h0v.3ZM148.58,212.97c0-.2-.1-.2-.2-.2-.7,0-1.6,0-2.8.1-1.2,0-2.2.1-2.7.1s0,0,0,0c-.8,1-1.5,2.1-2.3,3-1.1,1.4-2,2.8-2.5,3.9h0c-.1.4-.2.8-.2,1s0,.3.1.7c0,.3.1.5.1.8s0,.5-.1.9c0,.4-.1.7-.1.9s0,.3.1.7v.4c.2.4.4,1,.7,1.2.2.7.2.9.7,1.1s1.1.2,1.7.4h.1c.2,0,.7.1,1,.2v-6.8c0-.4,0-1,.1-1.8,0-.8.1-1.3.1-1.7s0-.4-.1-.8c0-.3-.1-.5-.1-.7v-.2h.4v-.8h2.6c.7,0,1.1.2,1.1.5v.5c0,.9.4,1.3,1.1,1.3h.2c0-.1.3-.1.3-.1.9-.4,1.3-1.4,1.3-2.9s-.2-1-.5-1.2c0,0-.1,0-.1-.2h0v-.3ZM138.78,231.17c.2-1.1.7-2,.4-2.5-.1-.4-.7-1.1-1.1-1.7v.8c0,1.7-.2,2.8-.9,3.5-.7,0-1.4.2-2.1.4h-.1c0,.2,0,.4.1.5,0,.5,0,.9.1,1s.4.2,1.1.2c-.2-.1.1-.1,1.3-.1s.3,0,.7.1h.4c.2-.7-.2-1.1,0-2.1h0l.1-.1ZM173.78,213.27h-.1c-.4.2-.8.7-.8,1,1,.4,1.6.8,2,1.1-.2-.5-.7-1.3-1-2.2h-.1v.1ZM169.68,212.97h-5.1c-.7.3-1,.7-1,1s.2.5.7.8.8.3,1.1.3c1,0,1.4.7,1.4,1.8v6.1c0,1.1,0,2.2-.2,3h2.5v-5.1c0-2.9,0-.7,0-1v-3.5c0-.8.4-1.3,1.2-1.6.8-.2,1.2-.5,1.2-.9s-.8-.8-2.3-.8h.2l.3-.2v.1ZM137.38,215.37c.2,0,.4.2.4.8v1s0,.2.1.8c1.1-1.3,2.7-3.4,3.8-4.9h-.8c-.8,0-1.4-.1-1.8-.1h-6.4c-.8,0-1.3.2-1.5.5s-.4,1-.7,1.8-.3,1.5-.3,1.8,0,.8.2,1.4c1.1,0,1.7-.2,2-.8.4-.7.8-1.3,1.1-2,1-.2,1.4-.4,1.7-.4h2.1c0-.1.1,0,.1,0v.1ZM152.98,217.37v.8c.9-1,2.2-1.3,2.2-1.3,0,0-1.6.9-2.2,1.6v2.8c0,.2,0,.5.1,1,0,.4.1.8.1,1s0,0,0,0c.7-.2,1.3-.4,1.7-.4.9-.2,1.8-.4,2.2-.7v-.9c0-1.1-.1-1.8-.1-2.3s0-.7.1-1.1c0-.4.1-.9.1-1.1v-1c0-.4.2-.8.5-1-.1-.4-.3-1.2-.5-2-3.3,0-5.2,0-5.9-.1-.8.3-1.1.8-1.1,1.1s.4.5,1.4.8,1.4.8,1.4,1.8v.7h-.1v.2l.1.1Z"/>
    </g>
  </g>
</svg>