<?xml version="1.0" encoding="UTF-8"?>
<svg id="Capa_1" data-name="Capa 1" xmlns="http://www.w3.org/2000/svg" xmlns:xlink="http://www.w3.org/1999/xlink" viewBox="0 0 255.12 141.73">
  <defs>
    <style>
      .cls-1 {
        fill: url(#Degradado_sin_nombre_87-9);
      }

      .cls-2 {
        fill: url(#Degradado_sin_nombre_87-3);
      }

      .cls-3 {
        fill: url(#Degradado_sin_nombre_87-2);
      }

      .cls-4 {
        fill: url(#Degradado_sin_nombre_87-8);
      }

      .cls-5 {
        fill: url(#Degradado_sin_nombre_87-4);
      }

      .cls-6 {
        fill: url(#Degradado_sin_nombre_87-7);
      }

      .cls-7 {
        fill: url(#Degradado_sin_nombre_87-6);
      }

      .cls-8 {
        fill: url(#Degradado_sin_nombre_87-5);
      }

      .cls-9 {
        fill: url(#Degradado_sin_nombre_21-5);
      }

      .cls-10 {
        fill: url(#Degradado_sin_nombre_21-7);
      }

      .cls-11 {
        fill: url(#Degradado_sin_nombre_21-8);
      }

      .cls-12 {
        fill: url(#Degradado_sin_nombre_21-3);
      }

      .cls-13 {
        fill: url(#Degradado_sin_nombre_21-4);
      }

      .cls-14 {
        fill: url(#Degradado_sin_nombre_21-6);
      }

      .cls-15 {
        fill: url(#Degradado_sin_nombre_21-2);
      }

      .cls-16 {
        fill: url(#Degradado_sin_nombre_21-9);
      }

      .cls-17 {
        fill: #1d0c06;
      }

      .cls-18 {
        fill: url(#Degradado_sin_nombre_87);
      }

      .cls-19 {
        fill: url(#Degradado_sin_nombre_18);
      }

      .cls-20 {
        fill: url(#Degradado_sin_nombre_22);
      }

      .cls-21 {
        fill: url(#Degradado_sin_nombre_21);
      }

      .cls-22 {
        fill: #fff;
        stroke: #fff;
        stroke-miterlimit: 2;
      }

      .cls-23 {
        fill: url(#Degradado_sin_nombre_21-11);
      }

      .cls-24 {
        fill: url(#Degradado_sin_nombre_21-10);
      }

      .cls-25 {
        fill: url(#Degradado_sin_nombre_21-16);
      }

      .cls-26 {
        fill: url(#Degradado_sin_nombre_21-18);
      }

      .cls-27 {
        fill: url(#Degradado_sin_nombre_21-12);
      }

      .cls-28 {
        fill: url(#Degradado_sin_nombre_21-13);
      }

      .cls-29 {
        fill: url(#Degradado_sin_nombre_21-15);
      }

      .cls-30 {
        fill: url(#Degradado_sin_nombre_21-14);
      }

      .cls-31 {
        fill: url(#Degradado_sin_nombre_21-17);
      }

      .cls-32 {
        fill: url(#Degradado_sin_nombre_87-10);
      }

      .cls-33 {
        fill: url(#Degradado_sin_nombre_87-14);
      }

      .cls-34 {
        fill: url(#Degradado_sin_nombre_87-13);
      }

      .cls-35 {
        fill: url(#Degradado_sin_nombre_87-12);
      }

      .cls-36 {
        fill: url(#Degradado_sin_nombre_87-11);
      }
    </style>
    <linearGradient id="Degradado_sin_nombre_21" data-name="Degradado sin nombre 21" x1="211.34" y1="85.22" x2="227.23" y2="33.46" gradientUnits="userSpaceOnUse">
      <stop offset=".12" stop-color="#ff9a00"/>
      <stop offset="1" stop-color="#ff010b"/>
    </linearGradient>
    <linearGradient id="Degradado_sin_nombre_21-2" data-name="Degradado sin nombre 21" x1="174.16" y1="73.81" x2="190.04" y2="22.08" xlink:href="#Degradado_sin_nombre_21"/>
    <linearGradient id="Degradado_sin_nombre_87" data-name="Degradado sin nombre 87" x1="43.58" y1="68.07" x2="49.48" y2="25.85" gradientUnits="userSpaceOnUse">
      <stop offset="0" stop-color="#4fb3e4"/>
      <stop offset=".12" stop-color="#45aee2"/>
      <stop offset=".32" stop-color="#2ca4dc"/>
      <stop offset=".57" stop-color="#0392d4"/>
      <stop offset=".58" stop-color="#0091d4"/>
      <stop offset="1" stop-color="#007bc3"/>
    </linearGradient>
    <linearGradient id="Degradado_sin_nombre_87-2" data-name="Degradado sin nombre 87" x1="79.92" y1="73.15" x2="85.82" y2="30.93" xlink:href="#Degradado_sin_nombre_87"/>
    <linearGradient id="Degradado_sin_nombre_87-3" data-name="Degradado sin nombre 87" x1="111.04" y1="77.5" x2="116.94" y2="35.28" xlink:href="#Degradado_sin_nombre_87"/>
    <linearGradient id="Degradado_sin_nombre_87-4" data-name="Degradado sin nombre 87" x1="141.63" y1="81.78" x2="147.53" y2="39.55" xlink:href="#Degradado_sin_nombre_87"/>
    <linearGradient id="Degradado_sin_nombre_21-3" data-name="Degradado sin nombre 21" x1="194.89" y1="80.36" x2="210.78" y2="28.6" xlink:href="#Degradado_sin_nombre_21"/>
    <linearGradient id="Degradado_sin_nombre_21-4" data-name="Degradado sin nombre 21" x1="204.68" y1="83.37" x2="220.57" y2="31.61" xlink:href="#Degradado_sin_nombre_21"/>
    <linearGradient id="Degradado_sin_nombre_21-5" data-name="Degradado sin nombre 21" x1="214.83" y1="86.48" x2="230.72" y2="34.72" xlink:href="#Degradado_sin_nombre_21"/>
    <linearGradient id="Degradado_sin_nombre_21-6" data-name="Degradado sin nombre 21" x1="200.4" y1="82.05" x2="216.29" y2="30.29" xlink:href="#Degradado_sin_nombre_21"/>
    <linearGradient id="Degradado_sin_nombre_21-7" data-name="Degradado sin nombre 21" x1="209.97" y1="84.99" x2="225.87" y2="33.23" xlink:href="#Degradado_sin_nombre_21"/>
    <linearGradient id="Degradado_sin_nombre_21-8" data-name="Degradado sin nombre 21" x1="212.88" y1="85.89" x2="228.77" y2="34.13" xlink:href="#Degradado_sin_nombre_21"/>
    <linearGradient id="Degradado_sin_nombre_21-9" data-name="Degradado sin nombre 21" x1="212.84" y1="85.87" x2="228.73" y2="34.11" xlink:href="#Degradado_sin_nombre_21"/>
    <linearGradient id="Degradado_sin_nombre_21-10" data-name="Degradado sin nombre 21" x1="216.38" y1="86.96" x2="232.27" y2="35.2" xlink:href="#Degradado_sin_nombre_21"/>
    <linearGradient id="Degradado_sin_nombre_21-11" data-name="Degradado sin nombre 21" x1="212.78" y1="85.85" x2="228.67" y2="34.09" xlink:href="#Degradado_sin_nombre_21"/>
    <linearGradient id="Degradado_sin_nombre_21-12" data-name="Degradado sin nombre 21" x1="219.27" y1="87.85" x2="235.16" y2="36.09" xlink:href="#Degradado_sin_nombre_21"/>
    <linearGradient id="Degradado_sin_nombre_21-13" data-name="Degradado sin nombre 21" x1="218.46" y1="87.6" x2="234.35" y2="35.84" xlink:href="#Degradado_sin_nombre_21"/>
    <linearGradient id="Degradado_sin_nombre_21-14" data-name="Degradado sin nombre 21" x1="219.02" y1="87.77" x2="234.91" y2="36.01" xlink:href="#Degradado_sin_nombre_21"/>
    <linearGradient id="Degradado_sin_nombre_21-15" data-name="Degradado sin nombre 21" x1="212.3" y1="85.71" x2="228.19" y2="33.95" xlink:href="#Degradado_sin_nombre_21"/>
    <linearGradient id="Degradado_sin_nombre_21-16" data-name="Degradado sin nombre 21" x1="189.62" y1="78.74" x2="205.51" y2="26.98" xlink:href="#Degradado_sin_nombre_21"/>
    <linearGradient id="Degradado_sin_nombre_21-17" data-name="Degradado sin nombre 21" x1="184.75" y1="77.25" x2="200.64" y2="25.49" xlink:href="#Degradado_sin_nombre_21"/>
    <linearGradient id="Degradado_sin_nombre_18" data-name="Degradado sin nombre 18" x1="198.46" y1="71.03" x2="181.21" y2="130.96" gradientUnits="userSpaceOnUse">
      <stop offset="0" stop-color="#ff9a00"/>
      <stop offset="1" stop-color="#ff010b"/>
    </linearGradient>
    <linearGradient id="Degradado_sin_nombre_21-18" data-name="Degradado sin nombre 21" x1="149.1" y1="56.81" x2="131.84" y2="116.75" xlink:href="#Degradado_sin_nombre_21"/>
    <linearGradient id="Degradado_sin_nombre_22" data-name="Degradado sin nombre 22" x1="109.45" y1="45.4" x2="92.2" y2="105.33" gradientUnits="userSpaceOnUse">
      <stop offset=".23" stop-color="#ff9a00"/>
      <stop offset="1" stop-color="#ff010b"/>
    </linearGradient>
    <linearGradient id="Degradado_sin_nombre_87-5" data-name="Degradado sin nombre 87" x1="55.72" y1="70.38" x2="39.14" y2="108.75" xlink:href="#Degradado_sin_nombre_87"/>
    <linearGradient id="Degradado_sin_nombre_87-6" data-name="Degradado sin nombre 87" x1="52.93" y1="69.18" x2="36.36" y2="107.55" xlink:href="#Degradado_sin_nombre_87"/>
    <linearGradient id="Degradado_sin_nombre_87-7" data-name="Degradado sin nombre 87" x1="49.53" y1="67.71" x2="32.96" y2="106.08" xlink:href="#Degradado_sin_nombre_87"/>
    <linearGradient id="Degradado_sin_nombre_87-8" data-name="Degradado sin nombre 87" x1="33.47" y1="60.77" x2="16.89" y2="99.14" xlink:href="#Degradado_sin_nombre_87"/>
    <linearGradient id="Degradado_sin_nombre_87-9" data-name="Degradado sin nombre 87" x1="49.53" y1="67.71" x2="32.96" y2="106.08" xlink:href="#Degradado_sin_nombre_87"/>
    <linearGradient id="Degradado_sin_nombre_87-10" data-name="Degradado sin nombre 87" x1="67.14" y1="75.32" x2="50.57" y2="113.68" xlink:href="#Degradado_sin_nombre_87"/>
    <linearGradient id="Degradado_sin_nombre_87-11" data-name="Degradado sin nombre 87" x1="68.25" y1="75.8" x2="51.68" y2="114.16" xlink:href="#Degradado_sin_nombre_87"/>
    <linearGradient id="Degradado_sin_nombre_87-12" data-name="Degradado sin nombre 87" x1="33.09" y1="60.61" x2="16.52" y2="98.98" xlink:href="#Degradado_sin_nombre_87"/>
    <linearGradient id="Degradado_sin_nombre_87-13" data-name="Degradado sin nombre 87" x1="70.43" y1="76.74" x2="53.85" y2="115.1" xlink:href="#Degradado_sin_nombre_87"/>
    <linearGradient id="Degradado_sin_nombre_87-14" data-name="Degradado sin nombre 87" x1="70.11" y1="76.6" x2="53.54" y2="114.97" xlink:href="#Degradado_sin_nombre_87"/>
  </defs>
  <path class="cls-21" d="M232.56,43.7c-1.45,1.79-2.66,3.78-4.59,5.13l4.07-6.04,1.03-1.38c.57-.76,1.11-1.23,1.33-2.16l.92-1.27.66-1.22,1.13-1.85c-.62.22-.92.68-1.33,1.04l-2.62,2.31-3.75,3.64c-.45.44-.94.8-1.49.95l2.11-2.43c.08-.09.21-.34.23-.44.02-.1-.22-.24-.34-.27l-5.07,4.42-2.39-3.77.76,1.88-.13.13,1.04,1.98-6.53,5.33-.17.11-.13.22c-2.19,1.86-5.6,4.17-8.26,4.14-.43,2.03-.95,5.94.39,8.85,1.05-.2,2.05-.52,2.99-1.02l1.57-1.15.29.62,4.83-2.78-.37-.51c-.07-.09.37-.31.46-.24l.36.27,2.3-1.76,2.54,3.06c.8.32,1.08.68,1.92,1.34l-.47-2.36-.6-1.03.91.77.13-.14-1.81-2.06c.95.44,1.57,1.26,2.32,2.03l.88.91.75-.73-.99-1.6,1.29.69c.13.07.4.08.5-.02.42-.43-1.09-1.69-1.45-3.06l1.84,1.68,1.08.12-1.63-2.28c.84.55,1.32,1.22,2,2.02l1.21-.25-1.16-1.82-2.09-3.38,1.76-2.16c.83-1.02,1.6-1.79,2.31-3.07l-1.8.9,1.23-1.19,1.72-1.84,2.8-4.47-3.58,4.05-.92,1.14ZM216.59,58.6l4.16-3.39c-1.08,1.44-2.58,2.62-4.16,3.39Z"/>
  <path class="cls-15" d="M179.76,60.06c-1.14-.01-2.15-.45-2.85-1.55l-.65.1c-.14.02-.34-.33-.37-.47-.03-.14.38-.28.64-.35-.19-3.93,2.88-8.08,6.41-10.31l2.39,4.23,7.07-5.74-.68-1.12.27-.52-1.19-2.19,1.55-1.19,2.53-1.97c-.02-.36.03-.73.19-.9.12-.13.51-.12.84-.06,1.8-1.42,3.43-3.32,4.58-5.37l.69-1.23c1-1.78,2.02-4.89.59-5.58l.43-1.06c-.32-2.38-1.85-3.97-3.97-4.89-.74-.35-1.48-.48-2.26-.59-1.7-.24-3.31-.73-5.02-.39-1.55.31-2.32-.84-6.8,2.09-3.97,2.59-6.41,6.89-6.33,11.7.04,2.59.83,4.99,1.73,7.31-7.26,4.06-13.68,8.72-14.06,17.51.17.3.08.55.06.95-.08,2.12.57,4.29,1.64,6.11,1.41,2.41,3.88,3.78,6.6,4.23,2.13.35,4.34.48,6.39.09-1.35-2.92-.82-6.82-.39-8.85ZM198.21,34.13c-.09.99-1.12,1.4-1.85,2.03l-3.45,2.98-.22-.18,2.08-1.81,3.44-3.02ZM192.91,25.79c.91.15,1.83.85,1.85,1.76.05,2.99-3.97,6.06-6.85,7.84l-.66-3.17c-.23-3.23,2.55-6.95,5.66-6.42Z"/>
  <path class="cls-18" d="M59.68,59.03l1.35,6.72.53,2.13-4.76.02.09-1.02c-.31.11-.5.22-.47.32l.2.62-3.11.06-6.06.03-3.26-19.61-.95-.02-4.77,19.65-3.77-.1c.06-.8.19-1.46.44-2.19l-.25-.96-1.01,2.25c-1.15.11-1.32,1.37-2.18.52l-1.96.42-4.96.05,5.03-21.66.8-4.18,4.14-18.08.7-.47c.14-.09-.32-.56-.45-.7l1.08-5,.06-1.39,25.35.03c2.62,0,5.02,1.26,6.36,3.31-.51.36-.77.59-1.15,1.03-.98,1.13-2.46,1.37-2.23,1.61l.22.23,1.33-.63,2.17-1c.46.24.76,1.45.39,1.94l-.33.44c-.08.11.3.48.29.62l-.32,2.84-3.01,12.63c-.25,1.04-.72,1.88-1.31,2.7-.11.34-.27,1.11-.5,1.19l-.56.19c-.11.04-.12.39-.16.65-1.28,1.48-3,2.41-4.88,3.03-.7-.05-1.27-.22-1.69-.61l.11.47c.07.28-.89.13-.88.31l.02.31c0,.11.95-.13,2.01.57l1.29,5.92.63,2.84c.02.41-.24,1.28-.34,1.7l.43-.09c.09-.02.31.27.33.38ZM52.56,37.65l1.99-8.64c.13-.58-.02-1.36-.33-1.75-.95-1.23-3.8-.78-5.95-.7l-3.18,13.63,4.51-.06c1.43-.02,2.61-1.02,2.95-2.48Z"/>
  <path class="cls-3" d="M80.2,56.18c-.31.75-.48,1.43-1.23,1.91-.16.1-.39.44-.42.6.51-.18,1.3-.79,1.84-.79h14.24s-.58,2.26-.58,2.26c-.13.49-.5.91-.98,1.14.3.56.56,1.46.27,2.15l-.74,1.74c.03.89-.06,1.73-.38,2.69l-5.16-.16c.47-.64.75-.8.69-1.58l-1.32,1.13c-.96-.12-1.92.04-2.65.5l-3.19.13-16.06.02.73-2.91,5.96-25.44,1.72-.63c.18-.07.73-.07.79.08l.26.65c.14-.51.39-.99.71-1.41l-1.11-.12c-.56.25-1.36.51-2.12.57l2.97-12.58,1.35-5.91.47-2.7,26.12-.02.39.43c.12.14.69-.08,1-.16l-.52,1.79c-.19.66-.51,1.21-1.06,1.75.27.3.53.92.41,1.39l-1.2,5-7.45-.1-4.39.04-2.34.11-.71,2.57-.78,3.01c-.24.94-.38,1.8-.87,2.59v1.26s12.53,0,12.53,0l-1.28,5.28-.44,1.22-.68,3.59-6.41-.15.41-.63-.99-.19-2.41.55c-.97.22-1.82.38-2.91.33l-1.75,7.13-.76,1.88Z"/>
  <path class="cls-2" d="M126.36,57.87c-.19.82-.41,1.66-.75,2.4-.18.39-.16.75-.26,1.14l-1.51,6.47-4.24-.23c-.66-.04-.76-.29-1.62.12l.85-1.33-1.43.69c-.77.21-2,.7-2.88.71l-16.18.05c.55-1.26,1.75-1.12,2.13-2.34-1.38.63-2.29,2.22-4.13,2.38l5.99-25.15,1.55-1.38,1.95-1.68.84-.71c-.26-.09-.53-.2-.59-.14l-.4.39c-.28.28-.81.58-1.22.8l-1.76.94,3.89-16.55.78-3.21.65-3.74h26.76s-.79.85-.79.85l1.36-.2c-.18.94-.37,1.89-.74,2.72-.17.39-.15.48-.24.89l-1.35,5.92h-14.07s-2.27,9.48-2.27,9.48h12.58s-1.56,6.08-1.56,6.08l-.53.38c-.11.08.25.57.23.71l-.58,2.88-5.21-.1c-.62-.01-1.13-.22-1.83-.03-.29.08-.84-.24-1.09-.45-.33.18-1.04.51-1.43.52l-2.76.05-2.56,10.06c-.13.49-.76.77-1.22.53l-.96,1.18,2.11-1.1h14.47Z"/>
  <path class="cls-5" d="M137.29,67.69l1.08-3.96c-.05-.01-.39-.03-.4.05l-.08.58-.87,1.53c-.9,1.59-.92.85-2.01,1.83-.1.09-.29-.39-.35-.57-.5.37-1.1.75-1.76.75h-4.99s6.3-26.88,6.3-26.88l4.15-17.51c.81-.07,1.26-.23,1.7-.91l-1.5.17.56-2.79.35-2.47h26.82s-2.53,10.26-2.53,10.26l-13.38.02-2.59,10.25h11.98s-2.49,10.01-2.49,10.01h-11.76s-2.12,8.98-2.12,8.98l-1.83,7.14c-.62.76-.84,1.59-.81,2.52l-.37,1.17-3.08-.18Z"/>
  <g>
    <path class="cls-22" d="M214.68,71.58l-2.96-.03c-.59-.57-1.17-1.35-1.13-2.06-.67-.74-.04-1.27-.64-1.96l-2.13-.1.09-1.97c.07-.65.03-1.24-.27-1.83.16-.51.07-.97-.28-1.35-.16-1.26-.8-2.46-2-2.85-.61-.2-1.29-.31-1.81.05l1.1.18c.17.03.33.55.39.72.69.1,1.31.35,1.63,1.03.8,1.68,1.08,3.64.77,5.49-.17,1-.36,2.06-1.16,2.72-.43.36-1.2-.26-1.21-.66.29.13.72.15.86-.05,1.56-2.14.89-6.67-.42-6.66-.44,0-.75.6-.88.98-.6,1.72-.51,3.48-.09,5.25.15.66.36,1.43,1.04,1.72.48.2.9-.24,1.23-.65.07.28-.11.6-.28.89l-.46.78-.11-.64-.38.49c-.15-.11-.33-.2-.4-.14l-.36.3-.09-.43c-.02-.07-.28.05-.33.1s-.03.04-.03.37c-.75.33-1.73.44-2.22-.16l.05.41-.33-.2c-.06-.04-.15.06-.25.14-.62-.02-1.08-.52-1.07-1.19-.65-.23-.84-.86-.61-1.46-.31-.36-.45-.71-.5-1.25-.36-.23-1.12-.21-1.58,0l-1.42.63.24-.57-2.25,1.35c-.19-.57-.31-1.15-.33-1.66-.84,0-1.7-.11-2.54-.25l-1.46.47c-.04.67-.03,1.34-.42,1.77-.29.33-.41.45-.4.98l-1.34,1.29-3.73.13c-.75.15-1.45-.36-1.6-1.12-.69-.23-1.1-.9-.8-1.61-.65-.39-.82-1.05-.44-1.73-.59-.62-.61-1.48-.08-2.16-.34-.73-.2-1.54.41-2.05-.17-.42-.02-.77.35-.98.08-.5.34-.9.89-1.04.07-.59.54-.98,1.17-.86.36-.39.85-.49,1.36-.31.53-.15,1.15-.07,1.61.19-.15-.5-.21-1.01-.23-1.54-.72-.53-1.78-.96-2.08-1.92-.23-.76.22-1.8.7-2.41.28-.36.9-.42,1.3-.48l.26-.55,3.16-.08c.39.43.9.42,1.29.07l1.21-.04c.67-.97,1.46-1.73,2.74-1.87-.09-.67-.35-1.38-.7-2.07l-.83.53c-.3.19-.64.34-.95.06-.68-.62-1.26.21-2.41-.67l.45-.39c-.08-.5.15-1.02.65-1.19.57-.19,1.22-.08,1.74.16-.29.24-.52.4-.62.56s-.02.68.06.72c.09-.34.19-.75.39-.87.31-.18.63-.23,1.09-.29.21.09.2,0,.07-.11l-.93-.66c.49-.09.9.02,1.44.22l-.42-.51.69-.17-1.13.05,1.94-1.56c.05-.04.31-.06.31-.02,0,.06-.02-.31.02-.36.43-.56,1.08-1.65,1.43-2.39.42-.88,1.26-1.22,2.08-1.59-.39-.99-.64-2.12-.74-3.2l-.85-.14.8-.92c.7-1.98,2.39-2.63,4.45-2.09l-.28.37.61-.17c.83.38,1.31,1.04,1.51,1.99l-1.13.88.12.93,1.08-.88c.09.69-.09,1.37-.54,1.96l.37.08c-.98,1.23-3,3.22-4.02,2.63-.48-.27-.88-.86-1.27-1.28.18.57.61,1.08,1.14,1.43.41.27,1.14.2,1.52-.11l2.19-1.74c-.05.94-.64,1.49-1.22,2.14,1.04-.52,1.55-1.54,1.71-2.64l1.75.44c.81.2,1.57.37,2.1,1.12l1,1.42-.28.79c.2-.08.49-.2.66-.18s.41.37.5.52l.57.66c-.43-.01-.74-.03-1.04.2.9-.01,1.61.21,1.95.99s.09,1.58-.62,2.06c-.86.58-1.8.9-2.85.76l.5,1.7c-.16.14-.51.32-.77.43.86.13,1.05.78,1.06,1.87-.41-.81-1.12-1.41-2.11-1.27l1.4.8h-.74s.21.23.21.23c.04.04.08.22.02.2l-.27-.1s-.06.13-.04.16l.13.17v.74c.11.05-.22-.14-.22-.08l.02.45c.28.24.85.62.93,1.05l.36,1.9c.04.15.38.51.3.64-.14.24-.59.41-.96.58l.78.05.6,2.76.18,1.27c.03.18-.04.49-.14.65l.3.58-.67-.05.46.51c-.39.12-.51.15-.7.34.7.02,1.28.09,1.61.76l-1.73.19,1.69.25c-1,.25-2.08.29-2.15-.36-.33-2.88-.75-5.65-1.42-8.46-.42-1.75-1.11-3.92-3.02-3.77l-6.18.47c-.7.05-1.34.59-1.89.93l4.84-.74-.24.29s.06.16.17.29c1.6-.73,4.19-1.31,4.9.16-1.04-.28-2.04-.08-2.95.4l2.18-.2c.62-.06,1.22.45,1.37,1.05l.97,3.87.78,4.51.47,2.21,2.78-.09c.7-.02,1-.75,1.11-1.31l.81-4.04c1.24-.15,2.63.13,2.97,1.35l-.99-.79-.19-.12s-.21,0-.19.05l.11.34.05.26s-.08-.01-.15-.07l-.62-.14.35.75c.13-.24.68-.54.96-.34,1.49,1.1,1.35,4.91.84,6.92-.13.5-.38.84-.78,1.2l-.71-.73c.55-.04.76-.17.91-.57.55-1.45.59-3.06.19-4.58-.1-.39-.46-.89-.84-.89-.56.42-.77,1.13-.87,1.81-.27,1.78-.15,5.19,1.15,5.24.49.02.7-.74.84-.25-.16.54-.74,1.27-1.32,1.41l-.02-.23s-.08-.04-.1-.02l-.19.24-.06-.52-.44.59ZM202.37,36.84l1.86.02c-1.44-.77-2.05-.2-3.08-.25-.74-.03-1.43.05-2.03.31l3.25-.07ZM202.2,39.44c.69.21,1.37-.3,1.67-.85.17-.31.03-.86-.15-1.21-1.43-.11-2.74-.1-4.2.17-.23,1.4.74,2.27,1.03,2.01l.57-.51c.21-.19.79.3,1.08.39ZM208.89,47.84c.14.02.28.5.29.6.32-.69-.16-1.1-.75-1.43.59-.11.81.19,1.33.46l-.41-.65,1.1.28-.38-.46.72.19-.51-.59,1.08.37c-.3-.37-.41-.42-.9-.83l1.33.07c-.29-.35-.96-.56-1.43-.28l-1.14.68-1.42-1.31c.35.59.56,1,.66,1.65-.78.75-1.83-.22-2.63.82-.27.35-.26.91-.13,1.36l-1.1.07.76.21.68.19c-.33-.96.05-2.11.77-1.92.1.03-.72.72-.18,1.61.07-.51.14-1.08.39-1.51.1-.18.59,0,.77.05l.57.18c-.44.62-.46,1.13-.15,1.63.08-.08.17-.18.17-.18s-.09-.13-.13-.19c-.24-.35.22-1.13.64-1.08ZM196.72,48.82h2.37c.38,0,.7.32.91.63.33.06.88-.25,1.12-.58-.18-.64-.51-1.17-.82-1.77l-.84-1.62-1.28,1.2c-.87.82-1.82,1.68-3.07,1.72l-.18-.32s-.12.08-.12.12v.2c.46.05.83.45.98.92.25-.24.63-.5.93-.5ZM205.05,48.06l.18-.18c-.54-.41-1.4-.5-1.83.02,1.3-.44,1.53.28,1.65.16ZM203.48,48.2c-.9-.5-2.13.5-2.44,1.32.76-.78,1.35-1.29,2.44-1.32ZM197.75,52.82c1.12-.42,2.07-1.18,3.27-1.05.68.07,1.2.78,1.84.96-.5-.75-1.36-1.05-2.14-1.37l1.02-.85-.08-.6,1.05-.86c-.92.01-1.31,1.46-2.76,1.68l.32.66h-1.09s-2.4,1.39-2.4,1.39c-.5.29-1.33-.01-1.9.2.87.03,1.94.2,2.87-.16ZM190.17,54.6c-.11,0-.28.11-.39.23l1.36-.07,4.21-.11,1.57-1.22-5.25.25-.07.19,4.24-.09c-.13.19-.5.57-.72.58l-3.39.16-1.56.09ZM189.83,53.7c-.97-.27-2.27-.26-2.93.26l2.93-.26ZM190.33,53.74c-.62.13-1.23.46-1.27,1.15l1.27-1.15ZM199.5,56.27l.96-1.77-3.82.82-.79,2.12,3.66-1.18ZM188.32,57.61l.1-2.12-2.48-.63c-.08.71-.06,1.1.07,1.69l2.31,1.06ZM189.5,58.43c-1.23-.14-1.87-.81-2.95-1.05.74.56,1.62.97,2.55,1.3l5.29-.07c1.8-.64,3.56-1.07,5.34-1.91l-3.15.95-2.76.76,1.08-2.98c-.28.26-.39.5-.55.83l-4.62.29c1.51.54,3.03.1,4.52.09l-.6,1.51h-3.97s-.21-2.36-.21-2.36c-.29.87-.05,1.75.02,2.65ZM194.78,62.3c.18-.61.27-.98.66-1.22.99-.59,1.71-1.38,2.18-2.4-.32.06-.51.22-.64.43-.49.77-1.13,1.38-1.88,1.86l-.31-.2v1.53ZM189.31,63.43c-.54-1.4-.89-2.75-1.11-4.17l-.76-.4c.06.81.37,1.46.88,2.04.19.91.41,1.83.99,2.53ZM198.68,62.06l-.36-1.17c-.15-.49-.22-.96-.59-1.38.12,1.01.39,2.31.95,2.55ZM189.62,61.71l3.46.11c.12,0,.38.02.44-.06s.12-.3.13-.41l.11-1.42v-.27s-.18.17-.18.21l-.1,1.55-3.74-.03-.3-1.57c0,.71.07,1.15.19,1.9ZM204.22,60.95l.55-.54c-.84-.77-2.12-.34-2.65.58.94-.36,1.6-.82,2.1-.03ZM201.65,61.41l.33-.39-.65-.88-.26.37.58.9ZM201.27,63.2l1.2-.91c.37-.24.75-.35,1.17-.25l.38-.7c-.61-.55-2.1.43-2.59,1.35l-.82-1.37-.32.45.98,1.42ZM184.8,62.24c.38-.13.17-.69-1.19.15-.27.17-.44.47-.43.75.45-.37,1.05-.7,1.62-.9ZM196.54,62.1l2.63.99.14-.34s-2-1.07-2.77-.65ZM200.69,64.68l.47.68c.35-.68,1.04-1.36,1.91-1.55.23-.05.28-.61.13-.92-.98.36-1.67,1.01-2.18,2-.22-.78-.34-1.57-1.06-1.77-.26.24-.08.66.11.86l.63.7ZM182.43,64.5c.1-.53-.07-1.04-.38-1.39-.24.57.03,1.01.38,1.39ZM184.4,63.14l-1.42,1.06c-.32.24-.46.69-.36,1.07.85-1.19,2.05-1.24,1.78-2.14ZM189.31,63.56c-.48-.34-1.72.23-2.08.88l2.08-.88ZM198.67,64.92l-2.63-.74c.93.57,1.8.85,2.88,1.18.02-.12-.12-.4-.25-.44ZM201.23,67.39c.4-.76.86-1.36,1.68-1.7l-.02-.96c-.68.52-1.21,1-1.5,1.68-.12.28-.16.4-.45.6l.28.39ZM184.04,65.02c-1.89,1.21-1.47,2.58-1.32,2.24l.12-.25c.49-1.05,1.59-1.14,1.2-2ZM200.76,66.81c.05-.37-.1-.79-.36-1.07l-.67-.69c-.23.41-.08.65.18.9l.85.85ZM182.34,66.52c-.17-.56-.37-.88-.67-1.31-.11.55.05,1.1.67,1.31ZM190.16,65.57l-.32-.36-2.41,1.15.15.19,2.58-.98ZM184.19,67.44l-.08-.66c-.61.53-1.06,1.22-.9,1.98.35-.55.53-.86.99-1.32ZM202.77,67.63c.32-.22.37-.44.1-.94-.64.55-1.27,1.31-1.23,2.29.34-.47.65-1.01,1.13-1.35ZM184.37,69.34c.09-.11.23-.32.21-.42-.02-.08-.1-.24-.16-.35-.35.52-.54.84-.59,1.44l.55-.67ZM203.39,69.23c.13-.12-.03-.61-.23-.65l-.73,1.52.96-.86Z"/>
    <path class="cls-22" d="M212.65,59.32l.51-1.29c.63-1.6,1.54-2.01,3.34-2.14l.32,1.21-2.26.79c-.41.74-.65,1.62-.88,2.44l-.86.09.3.13c.07.03.13.23.12.31l-.71,3.89c-.03.17-.26.49-.37.61l-.73-.42c-.14-.49-.38-.94-.67-1.32l-.32-5.05-1.04-3.88c.98,0,1.74.18,1.99.99v-.87s3.96-.09,3.96-.09c.19,0,.5.25.51.42,0,.22-.31.49-.53.48l-.52-.04c-.09,0-.08-.15-.14-.32l-2.49.05c-.1,0-.09.32-.01.33l1.11.07c-.99.22-2.04.52-2.49,1.54.41-.31.86-.58,1.34-.59l1.28-.04c-.44.88-.67,1.7-.74,2.7Z"/>
    <path class="cls-22" d="M222.85,69.49l-.57.79-1.73.68-.86.35c.52,0,.96-.04,1.35.06l1.26.33c-.53.71-1.21.2-1.77.11-.56.08-1.11.39-1.82.13l.67-.33-.07-.22-1.64.53.27-.35-1.97.2c.73-.63,1.17-1.25,1.59-2.12l.6-.7c-.18-.49.27-1.2.68-1.17l.33.03c.14.01,0-.62.67-.86l.74-1.21.45-.82c.31-.57.5-1.31,1.18-1.56l.17.47c.03.08.25-.02.36-.05l-.37.79c-.13.27-.23.59-.39.81l-.79,1.08c-.19.27-.29.56-.48.86l-.98,1.5c.66-.28,1.23-.61,1.84-1.02l1.02-.68.78-.54c.23-.4.68-.76,1.12-.56l-1.39,1.61c-.24.14-.54.35-.75.56l-1.4,1.31-.48-.03c-.14.53-.49.63-1.02,1.07.44-.12.8-.31,1.25-.5.3-.11.83-.32,1.11-.36l1.06-.16Z"/>
    <path class="cls-22" d="M206.04,63.11c1.22,3.06-.43,6.17-.91,5.53-1.26-1.66-.54-6.19.42-5.99.16.03.43.28.5.46ZM205.07,66.6c.62-.47.65-1.53,0-1.79.2.66.17,1.19,0,1.79Z"/>
    <path class="cls-22" d="M215.81,63.71c.92.27,1.04,5.01-.43,5.24-.93-1.8-.22-5.42.43-5.24Z"/>
    <path class="cls-22" d="M221.2,58.72c.67.43.24,1.46-.64,2.07-.44-.78-.15-1.72.64-2.07Z"/>
    <path class="cls-22" d="M220.82,61.83l-.9,1.52c-.76-.53-.44-1.44.04-1.9l.86.38Z"/>
    <path class="cls-22" d="M224.09,62.58l-.72.7.07-1.26.65-.54c.09-.07.33-.15.42-.13.12.01.25.37.2.48-.14.26-.42.58-.61.77Z"/>
    <path class="cls-22" d="M219.21,65.43c.13.34-.22,1.08-.67,1.48-.31-.85.56-1.76.67-1.48Z"/>
    <path class="cls-22" d="M226.9,63.98c.04.69-.42.86-.86.83,0-.15.05-.48.14-.59.11-.14.49-.24.72-.24Z"/>
    <path class="cls-22" d="M224.68,69.53c-.25.36-1.19.74-1.44.32l1.19-.5s.27.15.25.18Z"/>
    <path class="cls-22" d="M225.86,66.88c.11.38-.82.56-.93.26-.14-.4.8-.72.93-.26Z"/>
    <path class="cls-22" d="M218.56,64.72c0-.5.21-.91.52-1.21.29.51.01,1.03-.52,1.21Z"/>
    <path class="cls-22" d="M201.72,38.96c-.72-.59-.89.6-1.47.34-.06-.43.37-1.12.76-1.19.38-.02.47-.11.82-.2l1.12-.28c.44-.11.73.81.48,1.12-.2.25-.56.51-.8.54-.27.04-.7-.15-.92-.33Z"/>
    <path class="cls-22" d="M191.23,61.23l-4.16,3.39c1.58-.77,3.08-1.95,4.16-3.39Z"/>
  </g>
  <g>
    <path class="cls-12" d="M214.68,71.58l-2.96-.03c-.59-.57-1.17-1.35-1.13-2.06-.67-.74-.04-1.27-.64-1.96l-2.13-.1.09-1.97c.07-.65.03-1.24-.27-1.83.16-.51.07-.97-.28-1.35-.16-1.26-.8-2.46-2-2.85-.61-.2-1.29-.31-1.81.05l1.1.18c.17.03.33.55.39.72.69.1,1.31.35,1.63,1.03.8,1.68,1.08,3.64.77,5.49-.17,1-.36,2.06-1.16,2.72-.43.36-1.2-.26-1.21-.66.29.13.72.15.86-.05,1.56-2.14.89-6.67-.42-6.66-.44,0-.75.6-.88.98-.6,1.72-.51,3.48-.09,5.25.15.66.36,1.43,1.04,1.72.48.2.9-.24,1.23-.65.07.28-.11.6-.28.89l-.46.78-.11-.64-.38.49c-.15-.11-.33-.2-.4-.14l-.36.3-.09-.43c-.02-.07-.28.05-.33.1s-.03.04-.03.37c-.75.33-1.73.44-2.22-.16l.05.41-.33-.2c-.06-.04-.15.06-.25.14-.62-.02-1.08-.52-1.07-1.19-.65-.23-.84-.86-.61-1.46-.31-.36-.45-.71-.5-1.25-.36-.23-1.12-.21-1.58,0l-1.42.63.24-.57-2.25,1.35c-.19-.57-.31-1.15-.33-1.66-.84,0-1.7-.11-2.54-.25l-1.46.47c-.04.67-.03,1.34-.42,1.77-.29.33-.41.45-.4.98l-1.34,1.29-3.73.13c-.75.15-1.45-.36-1.6-1.12-.69-.23-1.1-.9-.8-1.61-.65-.39-.82-1.05-.44-1.73-.59-.62-.61-1.48-.08-2.16-.34-.73-.2-1.54.41-2.05-.17-.42-.02-.77.35-.98.08-.5.34-.9.89-1.04.07-.59.54-.98,1.17-.86.36-.39.85-.49,1.36-.31.53-.15,1.15-.07,1.61.19-.15-.5-.21-1.01-.23-1.54-.72-.53-1.78-.96-2.08-1.92-.23-.76.22-1.8.7-2.41.28-.36.9-.42,1.3-.48l.26-.55,3.16-.08c.39.43.9.42,1.29.07l1.21-.04c.67-.97,1.46-1.73,2.74-1.87-.09-.67-.35-1.38-.7-2.07l-.83.53c-.3.19-.64.34-.95.06-.68-.62-1.26.21-2.41-.67l.45-.39c-.08-.5.15-1.02.65-1.19.57-.19,1.22-.08,1.74.16-.29.24-.52.4-.62.56s-.02.68.06.72c.09-.34.19-.75.39-.87.31-.18.63-.23,1.09-.29.21.09.2,0,.07-.11l-.93-.66c.49-.09.9.02,1.44.22l-.42-.51.69-.17-1.13.05,1.94-1.56c.05-.04.31-.06.31-.02,0,.06-.02-.31.02-.36.43-.56,1.08-1.65,1.43-2.39.42-.88,1.26-1.22,2.08-1.59-.39-.99-.64-2.12-.74-3.2l-.85-.14.8-.92c.7-1.98,2.39-2.63,4.45-2.09l-.28.37.61-.17c.83.38,1.31,1.04,1.51,1.99l-1.13.88.12.93,1.08-.88c.09.69-.09,1.37-.54,1.96l.37.08c-.98,1.23-3,3.22-4.02,2.63-.48-.27-.88-.86-1.27-1.28.18.57.61,1.08,1.14,1.43.41.27,1.14.2,1.52-.11l2.19-1.74c-.05.94-.64,1.49-1.22,2.14,1.04-.52,1.55-1.54,1.71-2.64l1.75.44c.81.2,1.57.37,2.1,1.12l1,1.42-.28.79c.2-.08.49-.2.66-.18s.41.37.5.52l.57.66c-.43-.01-.74-.03-1.04.2.9-.01,1.61.21,1.95.99s.09,1.58-.62,2.06c-.86.58-1.8.9-2.85.76l.5,1.7c-.16.14-.51.32-.77.43.86.13,1.05.78,1.06,1.87-.41-.81-1.12-1.41-2.11-1.27l1.4.8h-.74s.21.23.21.23c.04.04.08.22.02.2l-.27-.1s-.06.13-.04.16l.13.17v.74c.11.05-.22-.14-.22-.08l.02.45c.28.24.85.62.93,1.05l.36,1.9c.04.15.38.51.3.64-.14.24-.59.41-.96.58l.78.05.6,2.76.18,1.27c.03.18-.04.49-.14.65l.3.58-.67-.05.46.51c-.39.12-.51.15-.7.34.7.02,1.28.09,1.61.76l-1.73.19,1.69.25c-1,.25-2.08.29-2.15-.36-.33-2.88-.75-5.65-1.42-8.46-.42-1.75-1.11-3.92-3.02-3.77l-6.18.47c-.7.05-1.34.59-1.89.93l4.84-.74-.24.29s.06.16.17.29c1.6-.73,4.19-1.31,4.9.16-1.04-.28-2.04-.08-2.95.4l2.18-.2c.62-.06,1.22.45,1.37,1.05l.97,3.87.78,4.51.47,2.21,2.78-.09c.7-.02,1-.75,1.11-1.31l.81-4.04c1.24-.15,2.63.13,2.97,1.35l-.99-.79-.19-.12s-.21,0-.19.05l.11.34.05.26s-.08-.01-.15-.07l-.62-.14.35.75c.13-.24.68-.54.96-.34,1.49,1.1,1.35,4.91.84,6.92-.13.5-.38.84-.78,1.2l-.71-.73c.55-.04.76-.17.91-.57.55-1.45.59-3.06.19-4.58-.1-.39-.46-.89-.84-.89-.56.42-.77,1.13-.87,1.81-.27,1.78-.15,5.19,1.15,5.24.49.02.7-.74.84-.25-.16.54-.74,1.27-1.32,1.41l-.02-.23s-.08-.04-.1-.02l-.19.24-.06-.52-.44.59ZM202.37,36.84l1.86.02c-1.44-.77-2.05-.2-3.08-.25-.74-.03-1.43.05-2.03.31l3.25-.07ZM202.2,39.44c.69.21,1.37-.3,1.67-.85.17-.31.03-.86-.15-1.21-1.43-.11-2.74-.1-4.2.17-.23,1.4.74,2.27,1.03,2.01l.57-.51c.21-.19.79.3,1.08.39ZM208.89,47.84c.14.02.28.5.29.6.32-.69-.16-1.1-.75-1.43.59-.11.81.19,1.33.46l-.41-.65,1.1.28-.38-.46.72.19-.51-.59,1.08.37c-.3-.37-.41-.42-.9-.83l1.33.07c-.29-.35-.96-.56-1.43-.28l-1.14.68-1.42-1.31c.35.59.56,1,.66,1.65-.78.75-1.83-.22-2.63.82-.27.35-.26.91-.13,1.36l-1.1.07.76.21.68.19c-.33-.96.05-2.11.77-1.92.1.03-.72.72-.18,1.61.07-.51.14-1.08.39-1.51.1-.18.59,0,.77.05l.57.18c-.44.62-.46,1.13-.15,1.63.08-.08.17-.18.17-.18s-.09-.13-.13-.19c-.24-.35.22-1.13.64-1.08ZM196.72,48.82h2.37c.38,0,.7.32.91.63.33.06.88-.25,1.12-.58-.18-.64-.51-1.17-.82-1.77l-.84-1.62-1.28,1.2c-.87.82-1.82,1.68-3.07,1.72l-.18-.32s-.12.08-.12.12v.2c.46.05.83.45.98.92.25-.24.63-.5.93-.5ZM205.05,48.06l.18-.18c-.54-.41-1.4-.5-1.83.02,1.3-.44,1.53.28,1.65.16ZM203.48,48.2c-.9-.5-2.13.5-2.44,1.32.76-.78,1.35-1.29,2.44-1.32ZM197.75,52.82c1.12-.42,2.07-1.18,3.27-1.05.68.07,1.2.78,1.84.96-.5-.75-1.36-1.05-2.14-1.37l1.02-.85-.08-.6,1.05-.86c-.92.01-1.31,1.46-2.76,1.68l.32.66h-1.09s-2.4,1.39-2.4,1.39c-.5.29-1.33-.01-1.9.2.87.03,1.94.2,2.87-.16ZM190.17,54.6c-.11,0-.28.11-.39.23l1.36-.07,4.21-.11,1.57-1.22-5.25.25-.07.19,4.24-.09c-.13.19-.5.57-.72.58l-3.39.16-1.56.09ZM189.83,53.7c-.97-.27-2.27-.26-2.93.26l2.93-.26ZM190.33,53.74c-.62.13-1.23.46-1.27,1.15l1.27-1.15ZM199.5,56.27l.96-1.77-3.82.82-.79,2.12,3.66-1.18ZM188.32,57.61l.1-2.12-2.48-.63c-.08.71-.06,1.1.07,1.69l2.31,1.06ZM189.5,58.43c-1.23-.14-1.87-.81-2.95-1.05.74.56,1.62.97,2.55,1.3l5.29-.07c1.8-.64,3.56-1.07,5.34-1.91l-3.15.95-2.76.76,1.08-2.98c-.28.26-.39.5-.55.83l-4.62.29c1.51.54,3.03.1,4.52.09l-.6,1.51h-3.97s-.21-2.36-.21-2.36c-.29.87-.05,1.75.02,2.65ZM194.78,62.3c.18-.61.27-.98.66-1.22.99-.59,1.71-1.38,2.18-2.4-.32.06-.51.22-.64.43-.49.77-1.13,1.38-1.88,1.86l-.31-.2v1.53ZM189.31,63.43c-.54-1.4-.89-2.75-1.11-4.17l-.76-.4c.06.81.37,1.46.88,2.04.19.91.41,1.83.99,2.53ZM198.68,62.06l-.36-1.17c-.15-.49-.22-.96-.59-1.38.12,1.01.39,2.31.95,2.55ZM189.62,61.71l3.46.11c.12,0,.38.02.44-.06s.12-.3.13-.41l.11-1.42v-.27s-.18.17-.18.21l-.1,1.55-3.74-.03-.3-1.57c0,.71.07,1.15.19,1.9ZM204.22,60.95l.55-.54c-.84-.77-2.12-.34-2.65.58.94-.36,1.6-.82,2.1-.03ZM201.65,61.41l.33-.39-.65-.88-.26.37.58.9ZM201.27,63.2l1.2-.91c.37-.24.75-.35,1.17-.25l.38-.7c-.61-.55-2.1.43-2.59,1.35l-.82-1.37-.32.45.98,1.42ZM184.8,62.24c.38-.13.17-.69-1.19.15-.27.17-.44.47-.43.75.45-.37,1.05-.7,1.62-.9ZM196.54,62.1l2.63.99.14-.34s-2-1.07-2.77-.65ZM200.69,64.68l.47.68c.35-.68,1.04-1.36,1.91-1.55.23-.05.28-.61.13-.92-.98.36-1.67,1.01-2.18,2-.22-.78-.34-1.57-1.06-1.77-.26.24-.08.66.11.86l.63.7ZM182.43,64.5c.1-.53-.07-1.04-.38-1.39-.24.57.03,1.01.38,1.39ZM184.4,63.14l-1.42,1.06c-.32.24-.46.69-.36,1.07.85-1.19,2.05-1.24,1.78-2.14ZM189.31,63.56c-.48-.34-1.72.23-2.08.88l2.08-.88ZM198.67,64.92l-2.63-.74c.93.57,1.8.85,2.88,1.18.02-.12-.12-.4-.25-.44ZM201.23,67.39c.4-.76.86-1.36,1.68-1.7l-.02-.96c-.68.52-1.21,1-1.5,1.68-.12.28-.16.4-.45.6l.28.39ZM184.04,65.02c-1.89,1.21-1.47,2.58-1.32,2.24l.12-.25c.49-1.05,1.59-1.14,1.2-2ZM200.76,66.81c.05-.37-.1-.79-.36-1.07l-.67-.69c-.23.41-.08.65.18.9l.85.85ZM182.34,66.52c-.17-.56-.37-.88-.67-1.31-.11.55.05,1.1.67,1.31ZM190.16,65.57l-.32-.36-2.41,1.15.15.19,2.58-.98ZM184.19,67.44l-.08-.66c-.61.53-1.06,1.22-.9,1.98.35-.55.53-.86.99-1.32ZM202.77,67.63c.32-.22.37-.44.1-.94-.64.55-1.27,1.31-1.23,2.29.34-.47.65-1.01,1.13-1.35ZM184.37,69.34c.09-.11.23-.32.21-.42-.02-.08-.1-.24-.16-.35-.35.52-.54.84-.59,1.44l.55-.67ZM203.39,69.23c.13-.12-.03-.61-.23-.65l-.73,1.52.96-.86Z"/>
    <path class="cls-13" d="M212.65,59.32l.51-1.29c.63-1.6,1.54-2.01,3.34-2.14l.32,1.21-2.26.79c-.41.74-.65,1.62-.88,2.44l-.86.09.3.13c.07.03.13.23.12.31l-.71,3.89c-.03.17-.26.49-.37.61l-.73-.42c-.14-.49-.38-.94-.67-1.32l-.32-5.05-1.04-3.88c.98,0,1.74.18,1.99.99v-.87s3.96-.09,3.96-.09c.19,0,.5.25.51.42,0,.22-.31.49-.53.48l-.52-.04c-.09,0-.08-.15-.14-.32l-2.49.05c-.1,0-.09.32-.01.33l1.11.07c-.99.22-2.04.52-2.49,1.54.41-.31.86-.58,1.34-.59l1.28-.04c-.44.88-.67,1.7-.74,2.7Z"/>
    <path class="cls-9" d="M222.85,69.49l-.57.79-1.73.68-.86.35c.52,0,.96-.04,1.35.06l1.26.33c-.53.71-1.21.2-1.77.11-.56.08-1.11.39-1.82.13l.67-.33-.07-.22-1.64.53.27-.35-1.97.2c.73-.63,1.17-1.25,1.59-2.12l.6-.7c-.18-.49.27-1.2.68-1.17l.33.03c.14.01,0-.62.67-.86l.74-1.21.45-.82c.31-.57.5-1.31,1.18-1.56l.17.47c.03.08.25-.02.36-.05l-.37.79c-.13.27-.23.59-.39.81l-.79,1.08c-.19.27-.29.56-.48.86l-.98,1.5c.66-.28,1.23-.61,1.84-1.02l1.02-.68.78-.54c.23-.4.68-.76,1.12-.56l-1.39,1.61c-.24.14-.54.35-.75.56l-1.4,1.31-.48-.03c-.14.53-.49.63-1.02,1.07.44-.12.8-.31,1.25-.5.3-.11.83-.32,1.11-.36l1.06-.16Z"/>
    <path class="cls-14" d="M206.04,63.11c1.22,3.06-.43,6.17-.91,5.53-1.26-1.66-.54-6.19.42-5.99.16.03.43.28.5.46ZM205.07,66.6c.62-.47.65-1.53,0-1.79.2.66.17,1.19,0,1.79Z"/>
    <path class="cls-10" d="M215.81,63.71c.92.27,1.04,5.01-.43,5.24-.93-1.8-.22-5.42.43-5.24Z"/>
    <path class="cls-11" d="M221.2,58.72c.67.43.24,1.46-.64,2.07-.44-.78-.15-1.72.64-2.07Z"/>
    <path class="cls-16" d="M220.82,61.83l-.9,1.52c-.76-.53-.44-1.44.04-1.9l.86.38Z"/>
    <path class="cls-24" d="M224.09,62.58l-.72.7.07-1.26.65-.54c.09-.07.33-.15.42-.13.12.01.25.37.2.48-.14.26-.42.58-.61.77Z"/>
    <path class="cls-23" d="M219.21,65.43c.13.34-.22,1.08-.67,1.48-.31-.85.56-1.76.67-1.48Z"/>
    <path class="cls-27" d="M226.9,63.98c.04.69-.42.86-.86.83,0-.15.05-.48.14-.59.11-.14.49-.24.72-.24Z"/>
    <path class="cls-28" d="M224.68,69.53c-.25.36-1.19.74-1.44.32l1.19-.5s.27.15.25.18Z"/>
    <path class="cls-30" d="M225.86,66.88c.11.38-.82.56-.93.26-.14-.4.8-.72.93-.26Z"/>
    <path class="cls-29" d="M218.56,64.72c0-.5.21-.91.52-1.21.29.51.01,1.03-.52,1.21Z"/>
    <path class="cls-25" d="M201.72,38.96c-.72-.59-.89.6-1.47.34-.06-.43.37-1.12.76-1.19.38-.02.47-.11.82-.2l1.12-.28c.44-.11.73.81.48,1.12-.2.25-.56.51-.8.54-.27.04-.7-.15-.92-.33Z"/>
    <path class="cls-31" d="M191.23,61.23l-4.16,3.39c1.58-.77,3.08-1.95,4.16-3.39Z"/>
  </g>
  <g>
    <path class="cls-17" d="M57.73,125.22v-8.7h2.36c.63,0,1.09.15,1.38.46s.43.82.43,1.53v.38c0,.41-.07.74-.22.99-.15.25-.37.42-.67.5.39.1.66.33.79.69.13.36.2.81.2,1.33,0,.56-.05,1.06-.16,1.48-.11.42-.3.75-.57.98-.28.23-.67.35-1.18.35h-2.36ZM59.43,119.8h.36c.16,0,.27-.06.31-.19.05-.13.07-.28.07-.45v-.87c0-.28-.12-.42-.37-.42h-.37v1.93ZM59.61,123.69c.45,0,.68-.21.68-.64v-1.09c0-.25-.04-.44-.11-.59-.07-.14-.21-.21-.42-.21h-.32v2.52c.07,0,.13,0,.17,0Z"/>
    <path class="cls-17" d="M65.66,125.22v-2.86l-1.39-5.84h1.73l.48,2.95.48-2.95h1.72l-1.38,5.84v2.86h-1.64Z"/>
    <path class="cls-17" d="M75.55,125.22v-8.7h3.48v1.68h-1.71v1.7h1.64v1.64h-1.64v1.99h1.82v1.7h-3.59Z"/>
    <path class="cls-17" d="M81.49,125.22l.93-4.61-.74-4.09h1.7l.45,2.99.4-2.99h1.71l-.74,4.09.93,4.61h-1.76l-.55-3.4-.56,3.4h-1.77Z"/>
    <path class="cls-17" d="M89.41,125.22v-7.03h-1.03v-1.67h3.81v1.67h-1.03v7.03h-1.74Z"/>
    <path class="cls-17" d="M94.7,125.22v-8.7h2.67c.44,0,.78.1,1.01.3s.38.49.46.85c.08.36.12.79.12,1.28s-.06.85-.18,1.14c-.12.28-.35.48-.68.59.27.06.47.19.58.41.11.22.17.5.17.84v3.29h-1.72v-3.41c0-.25-.05-.41-.16-.47-.1-.06-.27-.09-.5-.09v3.97h-1.76ZM96.47,119.74h.42c.24,0,.36-.26.36-.79,0-.34-.03-.56-.08-.67-.05-.11-.15-.16-.3-.16h-.41v1.61Z"/>
    <path class="cls-17" d="M101.55,125.22v-8.7h3.48v1.68h-1.71v1.7h1.64v1.64h-1.64v1.99h1.82v1.7h-3.59Z"/>
    <path class="cls-17" d="M107.74,125.22v-8.7h2.65l.73,5.31.73-5.31h2.67v8.7h-1.59v-6.27l-1,6.27h-1.56l-1.06-6.27v6.27h-1.57Z"/>
    <path class="cls-17" d="M117.32,125.22v-8.7h3.48v1.68h-1.71v1.7h1.64v1.64h-1.64v1.99h1.82v1.7h-3.59Z"/>
    <path class="cls-17" d="M127.67,125.22l.84-8.7h2.95l.83,8.7h-1.65l-.12-1.4h-1.05l-.11,1.4h-1.69ZM129.6,122.43h.79l-.38-4.43h-.08l-.33,4.43Z"/>
    <path class="cls-17" d="M134.85,125.22v-8.7h2.39c.63,0,1.1.17,1.41.52.32.35.47.86.47,1.53v4.07c0,.82-.14,1.46-.43,1.91-.29.45-.79.67-1.52.67h-2.33ZM136.6,123.68h.3c.32,0,.48-.16.48-.46v-4.49c0-.29-.04-.48-.12-.56-.08-.08-.23-.13-.47-.13h-.19v5.64Z"/>
    <path class="cls-17" d="M142.67,125.22l-1.07-8.71h1.66l.64,5.92.57-5.92h1.66l-1.07,8.71h-2.37Z"/>
    <path class="cls-17" d="M148.65,125.22v-8.7h3.48v1.68h-1.71v1.7h1.64v1.64h-1.64v1.99h1.82v1.7h-3.59Z"/>
    <path class="cls-17" d="M154.84,125.22v-8.7h1.79l.8,4.17v-4.17h1.68v8.7h-1.7l-.87-4.35v4.35h-1.7Z"/>
    <path class="cls-17" d="M162.66,125.22v-7.03h-1.03v-1.67h3.81v1.67h-1.03v7.03h-1.74Z"/>
    <path class="cls-17" d="M169.95,125.3c-.73,0-1.26-.2-1.6-.61-.34-.41-.51-1.01-.51-1.8v-6.37h1.69v6.3c0,.15,0,.28.02.42s.05.24.11.33c.06.09.16.13.29.13s.23-.04.29-.13c.06-.08.1-.19.11-.33s.02-.28.02-.42v-6.3h1.69v6.37c0,.79-.17,1.39-.51,1.8-.34.41-.88.61-1.6.61Z"/>
    <path class="cls-17" d="M174.76,125.22v-8.7h2.67c.44,0,.78.1,1.01.3s.38.49.46.85c.08.36.12.79.12,1.28s-.06.85-.18,1.14c-.12.28-.35.48-.68.59.27.06.47.19.58.41.11.22.17.5.17.84v3.29h-1.72v-3.41c0-.25-.05-.41-.16-.47-.1-.06-.27-.09-.5-.09v3.97h-1.76ZM176.53,119.74h.42c.24,0,.36-.26.36-.79,0-.34-.03-.56-.08-.67-.05-.11-.15-.16-.3-.16h-.41v1.61Z"/>
    <path class="cls-17" d="M181.53,125.22v-8.7h1.68v8.7h-1.68Z"/>
    <path class="cls-17" d="M185.93,125.22v-8.7h1.79l.8,4.17v-4.17h1.68v8.7h-1.7l-.87-4.35v4.35h-1.7Z"/>
    <path class="cls-17" d="M194.79,125.3c-1.24,0-1.86-.89-1.86-2.67v-3.75c0-1.62.71-2.44,2.14-2.44.59,0,1.04.12,1.35.35.31.24.53.58.65,1.03.12.45.18,1,.18,1.65h-1.7v-.77c0-.19-.03-.35-.08-.47-.05-.13-.16-.19-.32-.19-.2,0-.33.07-.4.2-.06.14-.1.28-.1.44v4.22c0,.23.03.42.09.57.06.15.18.22.36.22s.31-.07.37-.22c.06-.15.09-.34.09-.58v-1.24h-.46v-1.5h2.13v5.07h-.7l-.3-.73c-.3.54-.78.81-1.43.81Z"/>
  </g>
  <g>
    <path class="cls-19" d="M181.55,110.88c-.65.19-1.35.22-1.6-.54l3.69-1.94c-1.27,0-2.09.86-3.76-.22l1.09-.8-4.61.31c.22-.7.65-.98,1.23-1.19l2.65-.96-1.05-.33,2.68-1.14c.38-.29.61-1.19.9-1.66l3.44-5.61-.96-.26,1.41-1.27-.76-.34c.38-.57.83-.91,1.49-1.14l.72-.76c-1.02.1-1.7.23-2.85.14.81-.69,1.67-.83,2.52-1.33.58-.34,1.23-.63,1.96-.82l4.12-5.91-2.22.04,1.69-1.42-1.25-.62,2.67-1.51-1.86-.06c-.61-.02-1.05-.05-1.49.43l-6.25,6.77-2.18,2.33-10.92,12.18c-.61,0-.35.85-1.3,1.42-.73-.19-1.17.9-1.23.71l-.17-.49-.88,1.13,1.33-.34-1.98,2.41c-.15.18-.56.5-.77.46-.23-.05-.71-.37-.8-.49.18-.18.44-.4.36-.43l-.38-.14.1-.69-1.99,2.51c-.09.11-.52.28-.57.17l-.31-.6c-.31.39-.73.8-1.26,1.23-.76-1.08-.92-2.13-1.06-3.34-.52-.04-.71.32-.8,1.08-.35-.04-.85-.38-1.05-.68-.33-.49-.28-1.03-.11-1.63l4.31-15.98.49-1.65c.26-1.83.94-3.46,1.61-5.13l1.66-4.17.84-.56c.09.01.32.48.28.7l-.56,3.23c.7-1.87,1.28-3.75,2.25-5.52,1.5-.62,1.33-2.04,2.19-2.14v2.41c-.02.7.19,1.07.03,1.76l-.85,3.78c.69-1.06,1.14-2.2,1.66-3.43.07-.18.83-.35.81-.16-.25,2.4-.83,4.57-1.55,6.83l-1.09,3.44-.87,2.87-1.29,4.31,2.46-2.97,8.28-9.06,4.91-4.94c.15-.03.75,0,.76-.15l.04-.59,2.41-2.05c1.18-1,2.34-1.98,3.8-2.72-.88,1.59-2.32,2.36-3.18,3.87l2.73-2.08,2.25-1.72,1.81-1.32,2.27-1.39-1.36,1.65-.77.81c-.05.13-.2.56-.34.69l-1.63,1.65c-.1.1-.09.43-.03.62l-4.64,5.37c2.49-2.11,4.66-4.27,7.33-5.96-.2.6-.4.89-.75,1.26l-1.56,1.62c-.04.37-.2.76-.68,1.29l4.63-1,1.27-.75c.2-.12.7.03.87.16l5.73-.83c4.27-.62,8.49-.87,12.91-.61l-4.25.68,8.2.03,2.16.28-5.41.86.06.26,1.85-.08-.14.23-3.11.56-2.09.39-2.9.58c2.48-.08,4.74-.24,7.15.09-.57.81-1.37.4-2,.62-.89.31-1.69.43-2.6.58l-1.99.33-5.41.85-5.27.96-3.61,5.12,5.32-.79c2-.3,3.94-.4,6.07-.24l-3.6.74,5.16-.11,2.05.17c.27.03.28.09.01.14l-2.06.52-2.5.64c.71.09,1.1.04,1.85.24l-5.7,1.21c-.28.13-.22.2.04.2,1.08-.13,1.93-.17,2.91-.09.85.07,1.78-.18,2.76.11-1.93.9-3.81.96-5.71,1.47l-1.22.33-2.2.46-7.6,1.64-3.13,4.53.53-1.71c-1.37,1.26-.85,1.95-1.28,2.9,5.4-1.16,10.74-2.26,16.23-2.74l1.85-.16,2.93-.05-2.54.44-3.99.78,8.48-.71c2.05-.17,4.01-.25,6.18.17l-5.39.89-3.29.55-.02.25,4.55-.4-2.46.58-9.04,1.69.11.19c1.56-.07,3.04-.7,4.79-.49l-3.94.93,3.85-.31,3.03-.13c-.5.51-.99.54-1.79.69l-.21-.33-.27.04c-.89.67-1.78.83-2.91.81l-1.69.59c-.76-.62-1.29.05-2.04.23l-3.71.88-2.03.5-9.45,2.58-2.8.73-1.86.47-1.95.57ZM179.27,94.2l.16.16,2.13-2.16-.16-.16-2.13,2.16ZM186.64,108.29l3.64-.85c-2.26.04-4.35.6-6.36,1.38.97-.06,1.82-.32,2.72-.53Z"/>
    <path class="cls-26" d="M147.28,110.36l-2.42-2.34c-.05,0-.53.02-.62-.07l-1.12-1.23c-.06.2-.18.65-.18.85,0,.16,1.33,1.16,1.81,2.64-.91-.55-1.59-1.14-2.38-1.84l-.64,1.02-1.06,1.23.79-2.85-2.47-2.59-.36.16-2.57-2.36-1.4-1.28-1.3-1.16-3.1-3.03-.79-1.14-2.41-2.51-2.17,3.88-3.25,5.45c-.79-.15-.56,1.17-1.56,1.09l.32-1.11,1.13-3.42-2.57,4.1c-.25.41-.4.76-.98.94l1.26-3.03c-1.18,1.2-1.67,2.84-2.88,3.96l-1.11,1.02-1.1.9,2.25-5.72,1.02-2.29-1.74,1.74c.55-1.88,1.43-3.35,2.19-5.03l1.02-2.27,1.13-2.5c.24-.53.36-1.18.79-1.71-.05-.48.1-.92.69-1l1.88-3.56,4.05-7.12-2.44.22-.79-.35-1.97.27c.03-1.31,2.18-1.84,2.04-2.01l-.41-.5,2.18-.93-5.05.43-.3-.19c-.08-.05.17-.28.28-.34l1.59-.81c.82-.42,1.86-.64,2.71-.8l2.79-.53v-.14s-.78-.15-.78-.15l3.21-.75,1.38-.39,3.85-.54c4.13-.58,11.01-.14,14.51,2.05,1.46.91,2.39,2.08,2.77,3.75.48,2.18-.29,4.47-1.79,6.15-2.48,2.79-5.02,4.37-8.36,5.87l-3.39,1.53-4.4,1.74,3.12,3.76-.53-.1,1.73,1.95c.58.28,1.2.75,1.03,1.49.74.96,1.31,1.79,2.21,2.57l-.6-1.32,1.9,1.87.91-2.16c3.07-6.31,6.27-12.44,9.88-18.46l4.02-6.72c.52-1.42,1.47-2.44,3.09-2.58l.39.95.38-.02c.11,0,.09.42.08.54l.7.41-.41,1.46,1.99-2.1c.24.04.56.03.69-.06l1.01-.67c.23.78.17,1.36.07,1.95.06.15.29.68.2.86l-1.14,2.28-.54,1.14-7.09,12.05-4.11,7.22-.3-.63-.44.98.51.28-3.13,5.5-1.13,1.43-.66-.52c-.14-.11.04-.61.12-.8l1.21-3.07-1.57,2.26-1.07,1.61-1.02-.9c-.07-.06-.25-.17-.33-.2-.1-.05-.22.33-.17.35l4.01,4.88c-.69-.04-.9-.63-1.31-.93l-1.6-1.18,2.77,2.96c.84.9,1.52,1.82,2.02,2.98l-1.8-1.54-3.89-3.49,1.37,2.04.17.25c.04.06-.04.28-.11.27-.1,0-.33-.1-.42-.19ZM129.86,86.94c1.42-.16,2.19-.52,3.2-.91,3.24-1.18,6.3-2.59,9.19-4.48.91-.59,1.7-1.3,2.3-2.16.39-.56.23-1.27-.4-1.56-1.05-.49-2.24-.88-3.44-.81l-4.52.24-4.54,7.87-.68.87.04-1.41-1.15,2.35ZM132.21,90.5l-2.69-1.28-1.18-.61c.53.91,3.26,2.46,3.88,1.89ZM141.74,106.45c.24-.3.46-.54.39-.62l-.31-.37c-.98-1.16-2.04-2.09-3.31-3l1.63,2.02,1.61,1.97ZM141.04,106.19l-.93-1-2.49-2.29,2.2,2.4c.38.41.76.75,1.22.89Z"/>
    <path class="cls-20" d="M74.54,105.99c-1.26.07-2.31.45-3.55.29-.47-.06-1.06.31-1.6-.05l3.59-1.49,5.87-1.91c-1.15-.37-1.95.48-3.17.22l5.13-1.8,1.67-3.74c1.8-4.03,3.74-7.87,5.86-11.78l.54-1.27,4.15-7.44-3.15.43c-.29.04-.85-.04-1.12.09-1.06.48-2.07.64-3.16.8l-2.32.34c.79-.62,1.51-.85,2.36-1.26,1.59-.76,3.28-1.08,5.07-1.64-.49-.07-1.02.07-1.58.18l-5.24,1-1.57.12-2.12.56c-.64.17-1.25.24-1.75-.21.49-.77,1.17-1.03,1.92-1.34l2.78-1.17c2.94-1.24,5.81-2.23,8.91-2.93-1.82-.07-3.43.63-5.18.89l-3.58.53c.44-.49,1.1-.57,1.67-.79l2.49-.99c.61-.24,1.25-.28,1.89-.3.33-.15.94-.44,1.34-.53l3.53-.76c.54-.12,1.59.17,2.22.09l2.74-.34-.16-.18-2.86.26c1.01-.66,2.02-.32,3.04-.5l1.22-.21c2.46-.15,4.81-.08,7.25.32l2.82.87c.3-.12.77-.2,1.13-.08,3.15,1.03,5.98,2.73,7.72,5.63l-.99-.47,1.32,1.81.17-.58c1.18,1.53.34,2.4.97,2.76.79,3.15-.15,6.28-1.67,9.03-1,1.8-2.07,3.33-3.58,4.74-2.71,2.54-5.71,4.54-8.95,6.38l-.38.22c-.1.06-.22-.06-.42-.23-.65.35-1.13.73-1.88,1.32l.29-.58c-1.7.61-3.02,1.71-4.62,2.48-2.76,1.33-5.69,2.2-8.51,3.24-.32-.15-.64-.09-.97,0l-2.17.67-2.21.73-.95,1.38c-.22-.09-.42-.2-.38-.29l.23-.62c-1.1,0-2.24.24-3.34.68l-1.8.71c-.38.15-1.28.27-1.57.56-.41.41-.71.93-1.27,1.32l.2-1.24-2.12.46c.78-1.7,2.53-1.28,3.07-2.28l.73-1.36c-.98.16-1.49.36-2.41.01l2.79-1.41-3.13.59-1.22.07ZM101.89,94.07l-2.19.6,5.1-2.87c3.34-2.25,6.73-5.4,7.13-9.53-.42-4.5-4.97-5.57-9.24-5.8l-3.74,6.51-6.8,12.68-1.36,2.5,8.03-3.03c-.91.92-2.09,1.11-3.04,1.94,2.21-.86,4.17-1.88,6.12-2.99ZM91.59,94.46c-.74,1-1.26,1.93-1.64,3.06.85-.89,1.36-1.88,1.64-3.06ZM82.85,100.16l1.42-2.91-.2-.13-2.01,3.61c.38.07.6-.18.78-.57ZM86.71,105.94c2.67-.85,5.17-1.61,7.77-2.83l-7.38,2.21c-.15.11-.35.4-.39.62ZM82.08,107.13l1.76-.56c.13-.04.23-.53.23-.72l-2.84.88c-.75.23-1.53.15-1.78,1.27l2.63-.86Z"/>
  </g>
  <g>
    <path class="cls-8" d="M59.04,96.74c-.22.35-.9.65-1.39.67l-.35,1.03,1.24-.47.7-.39c.18-.1.62.31.61.54-.07,1.15-1.16,1.01-1.8,1.57.6.56,1.27.34,1.92,0,.25-.11.74.26.86.5.13.27.13.99-.16,1.13-.31.15-.73.09-1.06.05.01.12.29.52.44.49l.69-.13c.31-.06.67.38.95.9.53-.75.87-1.69,1.17-2.63.07-.23.71-.2.87-.02.23.25.26.66.1,1.02l-.76,1.66.68.28.67-.88.94-1.1c.4.18.91.75.92,1.11.02.67-.4,1.27-.85,1.56v.38c0,.1-.16.17-.4.35.86.5,1.7.15,2.32.91.61.74,1.24,1.27,2,1.85l-6.59-1.5c-4.04-.7-8.02-.62-11.95.52l-6.16,1.8c-3.28.96-6.5,1.74-9.94,1.8-3.46.07-6.78-.37-9.98-1.67,2.07.02,3.86-.22,5.77-.7.91-.23,1.88.2,2.83-.45l-2.41-.46c-.03-.74.8-1.26,1.45-.95l1.36.65c.44.21,1.16.25,1.6.16l-1.05-.33c.02-.4.38-.99.76-1.09l1.99-.52c2.32-.61,3.67.65,6.09.44l-3.36-1.15c-.84-.29-1.7-.51-2.58-.55-2.02-.11-3.78.42-5.52,1.43l-1.71,1.2c-2.18,1.03-4.69,1.26-7.1.88-.74-.11-1.47-.6-2.05-.93l1.8-.32c.27-.05.9-.25.9-.51v-.54c0-.34,1.15-.07,1.41-1.22-1.96-.78-2.79.94-3.65.37l.78-.74c-1.34-.27-1.72.57-2.53-.35l-.8-.92c.43-.53,1.14-.5,1.56,0s1.16.82,1.72.37c-.36-.36-.8-.88-.86-1.2-.02-.11.3-.4.4-.35.84.36.91,1.25,1.71,1.61l1.58-.06c-.05-.86-1.51-.67-1.87-2.04l1.26-.7-1.84-.97-1.94-.97c-.75-.37-1.47-.83-1.2-1.47s1.28.7,1.99.56l-1.69-4.21c-.07-.18.09-.6.23-.68.48-.28,1.37,1.2,1.55,1.85l.62,2.33c.28,1.04.95,1.82,2.05,2.13.09-1.81-1.23-2.94-.77-3.45.12-.14.52-.16.7-.08,1.37.61.56,2.08,1.19,3.98.06.18.42.5.59.46l.85-.18c.31-.06.49.75.6,1.23l.84-.72,1.68,1.19c-.08-.54-.3-1-.5-1.55-.32-.85-.68-1.53-1.87-1.64l.6-.25c-1.08-1.02-1.92-2.02-2.56-3.29l-2.11-1.1c-1.01-.67-1.66-1.7-1.78-2.92-1.37-1.68-2.01-5.01-.98-4.96s.1,2.57,1.56,3.95l.16-2.05c.01-.17.29-.65.41-.55l.56.45c-.04,1.08-.22,2.06-.51,3.11.19,1.24,1.16,2.01,2.31,2.42-.86-2.31.28-4.2-.77-6.49l-.84-1.83c-.12-.27,0-.83.27-1.14l.72,1.13.05-1.82c0-.18.37-.5.54-.5,1.04-.01.12,2.21.29,3l.59,2.8c.42-.42.72-.98.79-1.59l.19-1.8c.02-.2.38-.51.56-.52.97-.06.47,3.15-.68,4.5-.6.71-1,1.33-.81,2.33.38,1.99.9,4.14,2.69,5.17l.06-2.64c.01-.57-.21-1.2-.53-1.71-.75-1.22-.23-2.3.05-2.13.08.05.24.22.27.32l.52,1.55c.55-1.15-.05-2.25.17-3.65.03-.22.49-.51.68-.44s.39.49.37.72l-.33,3.14c.92-.35.83-1.14,1.16-1.85l.23-.49c.05-.12.46-.09.52.03.49.9-.62,2.85-1.8,3.74-.04,2.82-.48,4.49,1.53,6.98,2.22-2.63.47-4.19.45-4.7l-.05-2.24c0-.2.34-.6.54-.61s.48.36.47.58l-.07,1.53c-.03.57.07,1.11.41,1.67,1.51-1.94.47-3.79,1.04-5.34.07-.18.49-.44.67-.37s.41.48.37.67l-.4,2.08c-.02.11.13.54.22.49l.39-.24.39-.24c.11-.07.25.44.16.52l-1.15,1.08-.93,2.71c.66-.19,1.49-.51,1.72-1.13.85-2.23.51-4.45,1.64-3.93.6.28-.78,1.67-.51,3.32l1.11-1.33c.41.38.37.92,0,1.26l-1.11,1.04c-.47.45-.85,1.09-1.53,1.33-1.06.37-1.68,1.02-2.06,2.11-.07.2-.2.68-.17.89.03.24.45.48.7.63l.62.38c-.38-1.12.99-2.25,1.19-2.15l1.02.48c-.08-.58-.1-1.21.47-1.58l1.47.36c-.24-.88.01-1.54.68-1.89.12-.11.34-.47.5-.45.19.01.52.18.77.33l.93-1.29c.28.3.69.89.56,1.14l-1.05,2.13c1.24.06,1.29-2.07,2.42-1.79.24.06.6.51.6.73l-1.13,1.27c-.56.63-1.46,1-1.26,2.08l1.89-1.06.91.76-.3-.84c-.06-.17.24-.5.39-.67l.35-.39c.1-.11.49.05.64,0,.69-.19,1.72-.24,2.21.46l.18,1.28.3-.67c.05-.12.29-.11.52-.11l.44-.38,1.54-.02c-.21-.56-.74-1-1.25-1.04-.21-.02-.35.41-.41.82l-.55-.48c-.6-.53-.46-1.59-.04-1.89.05-.04.4-.04.46-.05.15-.02-.05-.31.16-.86.05-.12.42.09.5.21l.72,1.05,1.51,1.54c.12-.66.03-1.28-.3-1.78l-1.01-1.52c-.15-.23,0-.66.23-.76.35-.15.61.09.76.45l.25.62.03-1.67c.04-.41,1.28-.43,1.35.04.23,1.57-.62,3.15.17,4.25l.96-2.26.31-1.06c.03-.11.15-.35.23-.42.1-.09.43.07.51.17l1.02,1.18-.46,1.39c-.18.55-.95,1.16-1.39,1.55.55,0,1.03.08,1.36.37l.75.65c-.21-.64.05-1.57.52-1.81.11-.06.55.02.56.03.1-.25.33-.69.54-.78l.6-.24c.13-.05.38.45.36.6ZM51.86,101.89l1.64-.18-1-.54-.91-.41c-.85-.38-1.99-.57-2.92-.76l-1.39.8.82.04,1.62-.06c.42.03,1.22.31,1.65.48.08.21.32.64.49.63ZM48.86,103.1l.99-.19c-.4-.25-.88-.13-1.43-.1-.73.05-1.29-.81-1.76-1.17-.78-.61-1.75-.04-2.43.34l-1.79,1c1.68-.49,3.08-1.11,4.84-.13.48.26,1.04.36,1.58.26Z"/>
    <path class="cls-7" d="M53.22,84.74l-.94.66-.22-.59c-.04-.11-.48-.06-.43-.04l.39.49c.08.1-.21.42-.34.48l-1.48.63c-1.35.59-2.74.9-4.2.69l-.42-.32c-.1-.08.13-.41.24-.49,1.75-1.37,3.38-2.77,4.82-4.48.54-.64,1.1-1.3,1.86-1.63.47-.21.82-.35,1.13-.74l-1.71.76c-.88.39-1.38,1.36-1.98,2.15-2.71.68-5.42.59-8.2.12l-2.52-.43c-.09-.01-.38-.24-.35-.31s-.13.28-.17.35c-1.31,1.08-2.72,1.99-4.27,2.74-1.68.61-3.23.02-3-.45l.29-.58.76-1.08c.82-1.13,2-1.72,3.38-1.93l.43-.29c.09-.06-.04-.34-.08-.49,4.45,1.53,8.82,1.04,13.27-.23,1.46-.42,2.57-1.15,3.63-2.2.84-.83,1.86-1.36,2.91-1.99l.81-1.54c.05-.09.33-.36.42-.32l.47.18,1.26-.98c.81-.63,1.51-1.39,2.42-1.85,1.28-.65,2.68-.75,4.01-.26.73.27,1.26,1.14.95,1.89-.69.11-1.64.27-2.31.53l-2.34.9c1.23.36,2.57-1.14,4.56-1.14-.94,1.6-2.53,2.05-4.1,2.72-1.71.73-3.17,2.11-4.32,3.5.5-.12,1.04-.77,1.32-1.08.16-.17.68,0,.92.02,1.22.09,2.38.96,2.15,2.36-.49,2.53-2.22,4.59-4.56,5.62h-.65c-.63-.02,1.09-2.1,1.01-3.94-.03-.65-.08-1.14.25-1.65l-.85.02c.56-1.08.19-1.8-.42-2.55-.55-.68-1.32-1.21-2.24-.66.59.02,1.04.1,1.59.38l-1.35.31,1.24.14c.68.07,1.22.7,1.07,1.43-.34,1.6-1.24,2.82-2.54,3.91l-.14-.8c-.13.3-.1.61-.04,1.01l-1.01.89-.26-.6c-.01.12,0,.7-.12.78ZM63.13,71.49l-.99.15,1.16.51c.24.1.7.26.91.15.17-.09.42-.46.43-.66,0-.22-.46-.54-.67-.56s-.61.12-.77.27l.09.11s.38-.22.42-.12l.18.41.3-.24c.05-.04.23.13.2.19l-.17.37c-.07.16-.57.18-.67.04l-.38-.53-.05-.08Z"/>
    <path class="cls-6" d="M50.65,78.94c-2.78,1.12-5.59,1.47-8.5,1.65-2.22.14-4.26-.39-6.39-1.09l.32.54c-.68-.13-1.1-.21-1.75-.69l2.57-1.43c1.82-1.75,3.84-3.16,6.22-4.14.16.04.41.16.51.25.26.26-.89.5-.3.8l.94-.93-.32-.49c1.63-.69,3.22-1.1,4.91-1.35.09.09.25.26.25.25s.16-.2.25-.31c2.23-.14,4.51,0,6.58.69l-1.17,1.19-1.29.97c-.96.73-1.74,1.61-2.78,2.27-.75.48-1.68.73-2.48,1.17,1.51-.2,2.71-1.05,3.87-1.95l2.59-2.01,1.55-1.55c.33.09.78.32,1.08.52-1.09.63-1.05,1.57-1.69,2.15-2.02.88-3.35,2.85-4.96,3.5ZM53.08,74.85c-.21-.98-.74-1.94-1.62-2.53l1.62,2.53ZM44.61,79.16l-1.4.03h-3.45c-1.08-.01-2.01-.63-3.03-.95,1.15,1.17,4.9,1.47,6.35,1.2l1.52-.28Z"/>
    <path class="cls-4" d="M25.3,76.32c-.78-.55-1.18.62-2.61,1.02l.54-1.55c0-.46-.41-1.17-.63-1.85.82.26,1.41.68,2.06,1.21l1-.31-.3-.49c.66-.37,1.25-.62,1.98-.84l.39-.66,1.36.85c1.25.37,2.37.96,3.14,1.96-.48.99-1.5,1.18-2.37,1.68-.51.29-.8.98-1.58.97l.43-.89-1.31-.03c-.32,0-1.26.67-1.93-.53-.03-.33-.05-.46-.16-.54Z"/>
    <path class="cls-1" d="M39.65,88.54c-.48-.34-.73.39-1.61.63l.33-.96c0-.28-.25-.72-.39-1.14.5.16.87.42,1.27.75l.62-.19-.19-.3c.41-.23.77-.38,1.22-.52l.24-.41.84.52c.77.23,1.46.59,1.94,1.21-.3.61-.93.73-1.46,1.04-.31.18-.49.6-.98.6l.27-.55-.81-.02c-.2,0-.78.41-1.19-.33-.02-.2-.03-.29-.1-.33Z"/>
    <path class="cls-32" d="M60.48,92.43c.06.41-.39.81-.69.8s-.7-.3-.79-.57c-.12-.36.14-.9.57-.95.36-.05.86.29.92.72Z"/>
    <path class="cls-36" d="M61.57,90.09c.28-.13.77.05.84.26.1.3-.02.78-.25.89s-.7.03-.85-.14c-.2-.23-.19-.8.26-1.01Z"/>
    <path class="cls-35" d="M18.86,94.96c-.19.2-.59-.12-.73-.34-.16-.25-.19-.8.11-.89.56-.16,1.1.71.61,1.23Z"/>
    <path class="cls-34" d="M63.99,92.84c-.2.25-.57.28-.72.16s-.23-.6-.08-.72c.13-.1.44-.2.63-.19s.34.53.16.74Z"/>
    <path class="cls-33" d="M61.89,94.74c.14-.11.68.12.67.3s-.13.45-.24.61c-.11.14-.57.02-.67-.13-.11-.18,0-.58.24-.77Z"/>
  </g>
</svg>