<?xml version="1.0" encoding="UTF-8"?>
<svg id="Capa_1" xmlns="http://www.w3.org/2000/svg" version="1.1" viewBox="0 0 126.43 63.79">
  <!-- Generator: Adobe Illustrator 30.3.0, SVG Export Plug-In . SVG Version: 2.1.3 Build 182)  -->
  <defs>
    <style>
      .st0 {
        fill: #78ba00;
      }
    </style>
  </defs>
  <g>
    <polygon class="st0" points="87.13 26.82 107.91 27.56 87.13 28.3 87.13 26.82 87.13 26.82"/>
    <polygon class="st0" points="51.76 28.3 31.52 27.56 51.76 26.82 51.76 28.3 51.76 28.3"/>
  </g>
  <g>
    <path class="st0" d="M53.86,40.59l-2.49-.02.03,4.99c2.46.06,5.35.62,6.75-1.38l.91-1.3c.24-.04.62.02,1,.12l-.75,4.05-14.18.02-.03-.77c0-.28,1.91-.13,1.91-1.12l.02-10.17c0-.27-.32-.73-.54-.77l-1.37-.22-.04-.92h13.99s.11,3.58.11,3.58c-.43.04-.94.07-1.23.03l-.67-1.17c-.32-.57-1.07-1.03-1.76-1.03l-4.16-.03v4.71s2.58-.04,2.58-.04c.9-.01,1.47-.71,1.66-1.59.27-.07.64-.09,1.05-.07l.02,4.63h-1.07c-.18-.89-.79-1.53-1.74-1.54Z"/>
    <path class="st0" d="M44.06,44.8c-2.5,3.3-8.86,2.79-12.48,1.95l-.39-4.07c.4-.11.85-.16,1.22-.08.46,1.1,1.03,2.1,2.08,2.68,2.15,1.19,5.7.9,6.13-.78.14-.55.08-1.24-.35-1.62-.56-.49-1.27-.78-1.98-.99-1.57-.47-3.07-.93-4.53-1.64-1.16-.57-2.13-1.53-2.3-2.85-.19-1.43.63-2.73,1.87-3.45,2.91-1.69,6.83-1.37,10.03-.53l.25,3.61-1.26.03c-.38-1.05-.88-1.97-1.86-2.5-1.18-.64-2.67-.67-3.89-.18-.88.36-1.37,1.43-.82,2.23.38.54,1.1.87,1.73,1.08l3.56,1.16c.89.29,1.71.75,2.44,1.33,1.45,1.15,1.68,3.15.55,4.63Z"/>
    <path class="st0" d="M100.15,42.37h-5.76s-1.04,2.35-1.04,2.35c-.18.42-.02,1.01.47,1.13l1.33.34c.24.06.27.73.06.88h-6.27s-.09-.67-.09-.67c-.07-.5,1.48,0,2.19-1.47l5.66-11.75,3.41-.22,5.7,11.57c.47.96,1.12,1.61,2.3,1.64.14.19.16.65.06.9h-8.2c-.24-.01-.25-.82-.02-.89.46-.13,1.08-.21,1.47-.49.23-.17-.03-.83-.16-1.09l-1.11-2.24ZM99.46,40.9l-2.26-4.65-2.16,4.64h4.42Z"/>
    <path class="st0" d="M85.95,34c-.15-.1-.14-.68-.03-.89h6.2s.02.94.02.94c-1.11-.02-1.86.53-2.33,1.5l-5.76,11.63h-2.89s-5.23-10.02-5.23-10.02c-.47-.9-.86-1.78-1.5-2.56-.4-.49-1.21-.46-1.88-.59-.06-.2-.06-.66-.03-.9h8.66s.03.88.03.88l-1.21.22c-.15.03-.4.19-.47.29-.09.13-.08.54,0,.69l4.3,8.33,3.81-7.91c.22-.45.16-.89-.09-1.27l-1.6-.34Z"/>
    <path class="st0" d="M75.45,42.62l-.71,4.45h-13.95s0-.88,0-.88l1.29-.27c.35-.07.64-.54.64-.93v-9.99c0-.36-.36-.75-.66-.8l-1.3-.21v-.88s8.47,0,8.47,0c.04.24.04.7,0,.91l-1.22.18c-.48.07-.9.51-.9,1.01v10.25c1.39.26,2.68.28,4.03.11,1.73-.22,2.43-1.65,3.23-3.03.25-.05.73,0,1.09.09Z"/>
  </g>
  <g>
    <path class="st0" d="M60.75,30.39c-.91.18-1.55-.41-1.61-1.19-.1-1.3.68-2.43,1.88-2.89.59-.23,1.15-.09,1.74.21l.44-1.72c.13-.5-.8-.42-.66-.64.04-.06.23-.25.32-.26l1.81-.18-1.47,5.87c.49.28.31-.08,1.05-.26.09-.02.04.34-.02.41-.82.88-1.84.76-1.96.5l-.31-.64c-.3.29-.75.71-1.21.8ZM61.54,29.45c.71-.79,1.27-2.39.64-2.67-.16-.07-.63-.05-.79.08-.7.57-1.11,1.66-.84,2.6.1.36.74.27.99,0Z"/>
    <path class="st0" d="M80.29,29.45c-.21.72-1.17,1.13-1.91.88-.18-.06-.36-.49-.42-.76-.47.59-1.47,1.21-2.29.65-.23-.16-.49-.59-.52-.94-.12-1.47.83-2.73,2.25-3.08.47-.12.98.2,1.36.32.32-.04.87-.51,1.26-.2l-.78,2.95c-.03.11.04.41.11.45.27.15.71-.71.94-.26ZM77.99,26.68c-1.01.05-1.62,1.59-1.49,2.6.02.17.29.43.44.43,1.18-.05,2.05-3.07,1.05-3.03Z"/>
    <path class="st0" d="M66.32,29.39c.33.56,1.27.3,1.94-.23.07-.05.37-.08.37,0-.06.73-1.72,1.73-3.04,1.04-.55-.28-.81-.92-.73-1.56.21-1.67,1.81-2.78,3.46-2.37.26.06.59.42.64.65.26,1.13-1.8,1.64-2.76,1.69-.04.15.01.61.12.79ZM67.77,27.18c.04-.12-.08-.47-.2-.49-.75-.09-1.3.87-1.32,1.45.72,0,1.31-.22,1.52-.96Z"/>
    <path class="st0" d="M74.63,29.49c-.39.79-1.77,1.23-2.22.72-.14-.15-.24-.66-.19-.88l1.19-4.49c.02-.07.04-.34-.03-.36l-.33-.1c-.09-.03-.3-.16-.28-.24s.21-.23.31-.24l1.83-.2-1.41,5.51c-.03.11,0,.46.09.46.12,0,.36-.05.46-.13l.29-.24c.06-.05.31.14.28.2Z"/>
  </g>
  <g>
    <path class="st0" d="M20.66,19.17l.07,2.13c1.44-.02,1.99.11,2.67-1.01l.18-.3c.04-.07.38.06.37.14l-.23,1.63-5.05.36c-.09,0-.3-.08-.29-.17s.14-.23.24-.25c.37-.06.51-.33.5-.72l-.08-3.95c-.01-.77-.64-.38-.84-.73-.05-.08.14-.26.24-.26l4.99-.2c.06.16.31,1.95-.2,1.59-.43-.3-.42-.94-1.06-.93l-1.54.03v1.97c2.2.2,1.12-.78,1.98-.61l.04,1.83c-.99.19.15-.78-1.99-.55Z"/>
    <path class="st0" d="M29.29,19.96l-.28,1.59-4.64.16c-.1,0-.26-.2-.21-.25.41-.35.71-.31.71-.6l-.05-4.06c0-.31-.21-.52-.48-.58l-.25-.06c-.07-.02.02-.35.09-.36l2.78-.09c.08,0,.24.23.19.27-.38.31-.81.21-.8.59l.08,4.42c1.49.07,1.62-.05,2.27-.95l.2-.28c.05-.07.42.08.4.19Z"/>
  </g>
  <g>
    <path class="st0" d="M68.6,20.79l-15.37.08c-.2,0-.67-.05-.67-.2s0-.42.01-.59c.01-.22,1.01-.13,1.45-.52.17-.16.04-.71-.07-.94l-1.06-2.26-5.01.05-.94,2.28c-.08.2-.09.73.04.89.15.19.61.31.91.38l.7.15c.19.04.14.7.01.85l-5.4.18c-.17,0-.3-.51-.23-.66.27-.54,1.36-.28,1.81-1.27l5.08-11.17,3.1-.27,5.29,11.2c.26.55.79.85,1.28.88.54.04,1.4-.07,1.62-.66v-9.58c0-1.12-2.82-.21-1.7-1.71h8.34c2.1-.01,5.26.5,5.27,3.02,0,1.13-.63,2.11-1.74,2.51l-1.09.4c1.08.42,2.17.51,2.96,1.35,1.37,1.45.82,3.85-.96,4.78-1.06.56-2.26.83-3.6.84ZM69,10.92c-.18-2.21-2.31-1.74-3.92-1.76l.02,4.27c.85.01,1.72,0,2.54-.19,1.05-.23,1.46-1.28,1.37-2.33ZM52.3,15.02l-1.97-4.06-1.85,4.11,3.82-.05ZM69.78,17.12c.07-1.24-.76-2.18-1.91-2.3-.92-.1-1.8-.08-2.8-.07l.05,4.59c1.2.18,2.29.26,3.37-.11.83-.28,1.25-1.18,1.3-2.11Z"/>
    <path class="st0" d="M99.29,16.59c-.55-.83-1.29-1.22-2.3-1.01l-.03,3.58c-.01,1.61,1.6,1,1.85,1.51.09.18.02.79-.19.78l-7.33-.36c-.19,0-.28-.45-.23-.61.2-.67,1.9.17,1.9-1.45v-8.82c0-.27-.08-.73-.23-.88-.39-.4-.93-.28-1.6-.53-.17-.06-.08-.63-.03-.83l9.3.09c2.05.02,4.8.85,5.03,3.16.22,2.16-1.45,3.39-3.68,3.72,1.75,1.07,3,3.25,4.11,5.01.5.8,1.33,1.24,2.23,1.41.15.16.12.76-.08.89l-5.36-.57-3.34-5.1ZM101.22,11.65c.01-1.25-.72-2.16-1.92-2.31-.74-.09-1.52-.06-2.32,0v5.02c.85,0,1.53-.02,2.23-.15,1.24-.23,2-1.23,2.01-2.55Z"/>
    <path class="st0" d="M87.12,20.26c-2.83,1.29-6.09,1.2-8.86-.04-2.28-1.03-3.57-3.16-3.64-5.6-.08-2.38.99-4.51,3.11-5.71,2.95-1.67,6.65-1.67,9.64-.1,2.36,1.24,3.6,3.61,3.36,6.25-.21,2.26-1.42,4.19-3.61,5.19ZM83.04,19.81c1.39-.06,2.32-.85,2.84-2.03.75-2.18.79-4.62-.09-6.74-.59-1.42-1.81-2.09-3.28-2.07s-2.61.72-3.11,2.12c-.72,2-.74,4.28,0,6.28.58,1.56,1.89,2.52,3.64,2.44Z"/>
    <path class="st0" d="M42.56,19.65c-2.58,2.48-7.69,2.23-10.98,1.43l-.33-3.86c.35-.15.89-.19,1.17-.05.39,1.28,1.15,2.42,2.46,2.86,1.52.51,4.97.44,4.99-1.7.02-2.57-4.32-2.01-7.19-4.26-1.38-1.08-1.62-2.95-.54-4.32,2.05-2.6,7.42-2.42,10.31-1.54l.25,3.34c-1.8.94-1.07-1.25-2.75-2.17s-4.87-.66-4.83,1.21c.05,2.5,7.92,2.01,8.46,6.01.16,1.15-.18,2.24-1.02,3.04Z"/>
  </g>
  <g>
    <path class="st0" d="M91.03,51.36c.14-.09.45,0,.48.13s-.02.39-.12.47-.41.03-.5-.09-.03-.41.14-.51Z"/>
    <path class="st0" d="M63.68,52.95c-1.15,1.13-.67,2.39-1.54,1.84l.47-1.59c.02-.07,0-.3-.07-.32s-.22.02-.28.07c-1.11,1.02-.59,2.28-1.53,1.85l.48-1.81-.51.08c.16-.44.61-.65,1.08-.51l-.1.7c.21-.35.97-1.07,1.35-.73.09.09.11.36.15.62.17-.29.99-1,1.39-.57.08.08.11.36.07.48l-.45,1.49.58-.29c-.08.5-.59.73-.99.61-.13-.04-.18-.4-.13-.54l.41-1.18c.02-.06,0-.27-.06-.29-.07-.03-.28.01-.33.07Z"/>
    <path class="st0" d="M49.66,53.2c-.1-.16-.58-.11-.8-.06-.11.46-.17.87-.23,1.38.5.07.94.08,1.37-.01l.71-.71c-.05.44-.14.7-.26,1.04h-3c.16-.16.28-.23.51-.36l.59-2.83-.43-.36,2.8-.04c-.03.37-.06.59-.19,1.01l-.25-.51c-.05-.11-.33-.21-.45-.21l-.84.04-.26,1.19c.52.23.83.08,1.25-.39-.05.45-.12.76-.26,1.2l-.25-.38Z"/>
    <path class="st0" d="M96.7,55.85c-.83.6-2.24.27-2.17-.35.01-.12.2-.32.31-.37l.41-.19c-.07-.14-.2-.3-.15-.37l.24-.38c.04-.25-.55-.68.05-1.29s1-.08,1.77-.38c.08-.03.24.11.25.19.01.09-.27.18-.37.23-.06.24-.08.68-.22.89-.41.6-1.26.2-1.2.62l.96.39c.15.06.36.28.38.42.03.16-.11.49-.26.6ZM96.42,53.51c.11-.2.03-.73-.2-.72-.53.02-.66.8-.46,1.13.05.09.36.12.41.03l.26-.44ZM96.51,55.45c-.41-.29-1.08-.58-1.33-.31-.12.13-.14.49,0,.59.42.34,1.19.3,1.34-.28Z"/>
    <path class="st0" d="M73.83,54.25c-.24.47-.76.89-1.21.61-.49-.3-.18-1.8.9-2.23.18-.07.47-.07.74-.09l.26-1.02-.39-.28c.35-.1.71-.16,1.05-.17l-.87,3.41c.18-.03.31-.07.54-.14-.05.32-.57.7-.92.55-.16-.07-.15-.52-.1-.64ZM74.13,52.91c-.08-.17-.51-.09-.65.08-.33.4-.73,1.27-.4,1.59.28.28,1.19-1.17,1.05-1.67Z"/>
    <path class="st0" d="M71.03,53.67c-.37-.05-.84-.08-1.18.04-.23.08-.4.65-.46.83l.38.3h-1.28c.33-.29.56-.47.77-.8l1.68-2.55c.1-.15.29-.26.46-.23l.3,3.08c.01.13.2.28.41.5h-1.52s.45-.3.45-.3v-.87ZM71.03,53.34l-.16-1.32-.84,1.35c.37.05.71.06,1-.03Z"/>
    <path class="st0" d="M43.79,53.09c.02.91-.65,1.75-1.54,1.84-.15.01-.43-.06-.53-.13-.11-.08-.16-.39-.12-.54l.61-2.42c.02-.09.08-.29.02-.34l-.34-.26,1.04-.2-.45,1.84.55-.31c.32-.18.76.1.77.52ZM43.23,53.2c0-.09-.12-.3-.21-.3-.58.01-1,1.24-.92,1.73.66.29,1.1-.82,1.12-1.43Z"/>
    <path class="st0" d="M82.11,54.92c-.12-.02-.19-.37-.15-.49l.42-1.26c.02-.05-.01-.2-.05-.24-.05-.06-.28-.02-.35.04-.94.79-.8,1.75-1.13,1.94-.09.05-.43-.03-.41-.13l.48-1.81-.49.12c.11-.44.64-.64,1.04-.45l-.06.63c.31-.36.97-1.06,1.42-.65.1.09.15.37.11.51l-.4,1.45.55-.28c-.01.41-.51.72-.97.63Z"/>
    <path class="st0" d="M93.52,54.52l.4-1.32c.23-.75-1.06-.1-1.32,1.57-.02.14-.36.16-.57.11l.47-1.87-.47.05c.22-.47.68-.59,1.02-.39v.5c.34-.43,1.05-.91,1.36-.48.08.1.09.36.05.51l-.38,1.34.56-.22c-.09.4-.69.77-1.02.57-.07-.04-.13-.28-.1-.37Z"/>
    <path class="st0" d="M88.06,54.35c-.16.4-.59.68-1.06.54v-.63c-.3.31-.81.95-1.31.59-.11-.08-.16-.37-.11-.52l.37-1.37-.48.04c.17-.37.65-.6,1.11-.35l-.45,1.61c-.02.08,0,.23.04.29s.25,0,.31-.05c.47-.42.83-1.18.97-1.85.14-.07.44-.07.56-.02l-.52,1.91.56-.18Z"/>
    <path class="st0" d="M46.12,52.53c.82.04-1.47,3.89-2.45,3.46-.12-.05-.17-.37-.09-.46.1-.12.34-.05.52.04.33.15.64-.35.6-.67-.08-.69-.15-1.23-.3-1.92l-.44.25c-.02-.14.09-.41.28-.55.1-.08.34-.14.45-.13s.29.22.3.35l.2,1.7.55-.93c.29-.48-.4-1.18.37-1.14Z"/>
    <path class="st0" d="M53.5,54.27c0,.41-.5.84-.92.55-.18-.13-.32-.53-.45-.77l-.63.78c-.07.08-.32.11-.42.09-.13-.03-.22-.34-.11-.44.39,0,.87-.2,1.06-.64,0-.26-.21-.65-.38-.91l-.41.17c-.03-.33.4-.76.79-.56.23.12.37.58.5.83l.62-.81c.07-.09.35-.08.44-.04.1.05.09.4-.02.42-.4.08-.88.24-.9.75-.01.23.22.61.36.82l.48-.24Z"/>
    <path class="st0" d="M59.55,54.55l.66-.33c-.18.52-.78.74-1.3.71-.35-.02-.65-.29-.68-.65-.09-.93.61-1.78,1.56-1.82.23,0,.52.11.61.26.41.73-1.08,1.05-1.49,1.17-.13.05-.07.47.03.57.11.11.45.16.62.08ZM59.82,53.06c.03-.07-.01-.34-.08-.33-.5.03-.84.44-.84.94.34-.06.75-.22.92-.6Z"/>
    <path class="st0" d="M66.45,54.58l.74-.37c-.25.65-1.04.87-1.62.63-.38-.16-.43-.65-.35-1,.18-.84.83-1.44,1.71-1.35.17.02.41.18.46.32.22.68-.98.95-1.48,1.07-.13.04-.1.4-.04.52.08.13.42.27.59.19ZM66.78,53.12c.04-.08.02-.33-.05-.36-.38-.2-.89.49-.85.9.36-.05.72-.22.89-.54Z"/>
    <path class="st0" d="M78.96,54.62c.41-.09.62-.25.96-.4-.22.57-.83.79-1.41.71-.26-.03-.54-.29-.57-.57-.11-.97.63-1.88,1.6-1.88.21,0,.5.17.56.32.27.7-1.07.98-1.51,1.09-.09.06-.11.3-.07.4.04.11.3.36.43.33ZM79.49,52.79c-.41-.2-.91.46-.91.87.7,0,1.18-.74.91-.87Z"/>
    <path class="st0" d="M77.02,52.74c-.02-.13.26-.26.37-.23.86.29-.75,2.4-1.46,2.54l-.26-1.76c-.01-.08-.08-.33-.15-.3l-.41.16c-.02-.19.24-.5.5-.6.09-.03.35-.02.41.05s.15.25.16.34l.2,1.52c.93-.78.77-1,.65-1.71Z"/>
    <path class="st0" d="M55.48,54.22c-.02.42-.98.96-1.33.6-.08-.08-.12-.36-.1-.48l.36-1.47-.52-.14.55-.23c.11-.05.15-.37.21-.55.04-.14.42-.16.56-.1l-.12.66.71.19c-.34.15-.46.14-.81.18l-.39,1.67c.37.03.47-.14.88-.31Z"/>
    <path class="st0" d="M85,54.25c.1.28-.89.96-1.29.59-.07-.07-.12-.32-.1-.43l.35-1.53-.35-.07c-.05-.01-.05-.18,0-.19l.36-.07c.24-.04.15-.68.37-.69l.43-.03-.1.71.55.06c.05,0,.05.23,0,.24l-.23.02c-.13.01-.35.04-.46.05l-.36,1.62c.34.05.47-.09.85-.29Z"/>
    <path class="st0" d="M56.4,53.15c.02-.06-.1-.23-.14-.22l-.34.05c.19-.43.63-.51,1.05-.43l-.02.59c.21-.26.43-.51.74-.66.11-.05.4.05.45.15.05.13-.01.4-.14.5-.11.08-.36-.06-.51-.2-.51.42-.81,1.15-.94,1.84-.1.12-.46.11-.6.04l.45-1.65Z"/>
    <path class="st0" d="M89.87,53.03c-1.09.81-.44,2.28-1.46,1.82l.42-1.57c.02-.07.01-.32-.04-.31l-.37.09c.02-.38.54-.56.95-.46l.04.54c.14-.18.41-.46.62-.59.1-.06.42.07.48.16.07.1-.04.33-.17.47-.08.09-.29-.02-.47-.15Z"/>
    <path class="st0" d="M90.93,54.95c-.13.03-.41-.2-.38-.34l.44-1.63c-.19-.02-.39-.08-.34-.14.28-.3.63-.3.98-.22l-.51,1.85.48-.14c0,.26-.32.51-.68.6Z"/>
  </g>
</svg>