<?xml version="1.0" encoding="UTF-8"?>
<svg id="Capa_1" data-name="Capa 1" xmlns="http://www.w3.org/2000/svg" viewBox="0 0 98.65 52.86">
  <defs>
    <style>
      .cls-1 {
        fill: #ef7e0c;
      }

      .cls-2 {
        fill: #ffde21;
      }

      .cls-3 {
        fill: #fff;
      }
    </style>
  </defs>
  <g>
    <g>
      <path d="M36.88,16.02V1.04h5.99v2.89h-2.95v2.92h2.83v2.82h-2.83v3.43h3.14v2.92h-6.19Z"/>
      <path d="M43.62,16.02l1.61-7.94-1.28-7.05h2.93l.77,5.15.69-5.15h2.94l-1.28,7.05,1.6,7.94h-3.03l-.94-5.86-.97,5.86h-3.04Z"/>
      <path d="M53.78,16.02V3.92h-1.78V1.04h6.55v2.88h-1.78v12.1h-3Z"/>
      <path d="M59.39,16.02V1.04h4.6c.77,0,1.34.17,1.74.52s.65.84.79,1.46.2,1.36.2,2.21-.1,1.47-.31,1.96-.6.83-1.17,1.01c.47.1.8.33.99.7s.29.85.29,1.44v5.67h-2.95v-5.86c0-.44-.09-.71-.27-.81s-.47-.16-.86-.16v6.84h-3.03ZM62.43,6.59h.72c.41,0,.62-.45.62-1.35,0-.58-.05-.97-.14-1.15s-.26-.27-.51-.27h-.7v2.77Z"/>
      <path d="M67.69,16.02V1.04h5.99v2.89h-2.95v2.92h2.83v2.82h-2.83v3.43h3.14v2.92h-6.19Z"/>
      <path d="M74.87,16.02V1.04h4.56l1.26,9.13,1.25-9.13h4.6v14.98h-2.74V5.23l-1.72,10.79h-2.69l-1.82-10.79v10.79h-2.71Z"/>
      <path d="M87.87,16.02V1.04h5.99v2.89h-2.95v2.92h2.83v2.82h-2.83v3.43h3.14v2.92h-6.19Z"/>
    </g>
    <g>
      <path d="M41.39,41.69c-3.01,0-4.51-2.16-4.51-6.47v-9.09c0-3.94,1.72-5.9,5.17-5.9,1.42,0,2.51.29,3.27.86.76.57,1.28,1.4,1.57,2.5s.43,2.43.43,4h-4.12v-1.87c0-.46-.06-.84-.19-1.14-.12-.31-.38-.46-.77-.46-.49,0-.81.16-.96.49-.16.33-.23.69-.23,1.08v10.22c0,.57.07,1.03.22,1.38s.44.53.87.53.74-.18.89-.53.22-.82.22-1.41v-3.01h-1.13v-3.64h5.15v12.27h-1.69l-.72-1.77c-.73,1.31-1.89,1.96-3.47,1.96Z"/>
      <path d="M48.94,41.5v-21.08h6.47c1.08,0,1.89.25,2.44.74.55.49.92,1.18,1.11,2.06.19.88.28,1.92.28,3.11s-.15,2.07-.44,2.75-.84,1.16-1.65,1.43c.66.14,1.13.47,1.4.99s.4,1.2.4,2.03v7.98h-4.16v-8.25c0-.61-.13-1-.38-1.14s-.66-.22-1.22-.22v9.62h-4.26ZM53.23,28.23h1.02c.58,0,.87-.63.87-1.9,0-.82-.06-1.36-.19-1.62-.13-.26-.37-.38-.72-.38h-.98v3.9Z"/>
      <path d="M65.66,41.69c-1.68,0-2.97-.51-3.86-1.53-.89-1.02-1.33-2.49-1.33-4.41v-10.01c0-1.8.44-3.17,1.32-4.11.88-.93,2.17-1.4,3.87-1.4s2.99.47,3.87,1.4c.88.93,1.32,2.3,1.32,4.11v10.01c0,1.92-.44,3.39-1.33,4.41-.89,1.02-2.18,1.53-3.86,1.53ZM65.69,37.81c.64,0,.96-.62.96-1.86v-10.29c0-1.04-.31-1.56-.93-1.56-.7,0-1.05.53-1.05,1.59v10.28c0,.65.08,1.12.24,1.41.16.28.42.42.79.42Z"/>
      <path d="M77.43,41.69c-1.76,0-3.05-.49-3.88-1.48s-1.25-2.44-1.25-4.35v-15.44h4.1v15.27c0,.35.02.69.06,1.01.04.32.13.59.28.8.14.21.38.31.69.31s.56-.1.71-.31c.14-.2.23-.47.27-.8.04-.33.05-.67.05-1.02v-15.27h4.1v15.44c0,1.92-.41,3.37-1.24,4.35-.83.99-2.12,1.48-3.88,1.48Z"/>
      <path d="M84.17,41.5v-21.08h5.57c1.17,0,2.09.26,2.77.78s1.17,1.26,1.47,2.22c.3.96.44,2.1.44,3.43s-.12,2.39-.37,3.34c-.25.95-.69,1.68-1.32,2.2s-1.53.78-2.7.78h-1.71v8.35h-4.14ZM88.32,29.37h.24c.78,0,1.26-.22,1.44-.66s.26-1.09.26-1.94c0-.8-.09-1.42-.26-1.85-.17-.43-.58-.65-1.22-.65h-.47v5.1Z"/>
    </g>
  </g>
  <g>
    <path d="M5.12,51.17h-1.27v-4.96h1.27v4.96Z"/>
    <path d="M9.55,51.17h-1.11v-2.03c0-.25-.04-.44-.12-.57-.08-.13-.23-.2-.46-.2-.24,0-.41.07-.5.2-.09.14-.14.33-.14.57v2.02h-1.11v-3.72h1.04v.4h.01c.21-.35.55-.52,1.01-.52.16,0,.33.03.51.09.18.06.33.14.44.23.29.24.43.64.43,1.2v2.32Z"/>
    <path d="M13.92,51.17h-1.11v-2.03c0-.25-.04-.44-.12-.57-.08-.13-.23-.2-.46-.2-.24,0-.41.07-.5.2-.09.14-.14.33-.14.57v2.02h-1.11v-3.72h1.04v.4h.01c.21-.35.55-.52,1.01-.52.16,0,.33.03.51.09.18.06.33.14.44.23.29.24.43.64.43,1.2v2.32Z"/>
    <path d="M18.1,47.9c.38.38.57.85.57,1.41s-.19,1.04-.57,1.41-.86.56-1.43.56-1.05-.19-1.43-.56-.57-.85-.57-1.41.19-1.04.57-1.41.86-.56,1.43-.56,1.05.19,1.43.56ZM17.31,49.97c.17-.19.25-.41.25-.66s-.08-.47-.25-.66c-.17-.19-.38-.28-.64-.28s-.47.09-.64.28c-.17.19-.25.41-.25.66s.08.47.25.66c.17.19.38.28.64.28s.47-.09.64-.28Z"/>
    <path d="M22.75,47.46l-1.34,3.72h-1.06l-1.33-3.72h1.15l.71,2.32h.01l.71-2.32h1.15Z"/>
    <path d="M27.17,51.17h-1.11v-.4h-.01c-.09.18-.24.31-.45.4-.2.09-.42.13-.64.13-.56,0-1.01-.19-1.35-.57-.34-.38-.52-.85-.52-1.42s.17-1.02.52-1.41c.35-.38.8-.58,1.35-.58.22,0,.43.04.63.13.2.09.35.22.45.39h.01v-.4h1.11v3.72ZM26.06,49.31c0-.27-.09-.5-.26-.68-.18-.18-.4-.27-.67-.27s-.49.09-.66.28c-.17.19-.26.41-.26.68s.09.48.27.66.4.27.66.27.49-.09.67-.27c.18-.18.26-.41.26-.68Z"/>
    <path d="M30.02,48.3h-.54v2.87h-1.11v-2.87h-.55v-.84h.55v-1.24h1.11v1.24h.54v.84Z"/>
    <path d="M31.75,47.06h-1.11v-.84h1.11v.84ZM31.75,51.17h-1.11v-3.72h1.11v3.72Z"/>
    <path d="M35.94,47.9c.38.38.57.85.57,1.41s-.19,1.04-.57,1.41-.86.56-1.43.56-1.05-.19-1.43-.56-.57-.85-.57-1.41.19-1.04.57-1.41.86-.56,1.43-.56,1.05.19,1.43.56ZM35.15,49.97c.17-.19.25-.41.25-.66s-.08-.47-.25-.66c-.17-.19-.38-.28-.64-.28s-.47.09-.64.28c-.17.19-.25.41-.25.66s.08.47.25.66c.17.19.38.28.64.28s.47-.09.64-.28Z"/>
    <path d="M40.72,51.17h-1.11v-2.03c0-.25-.04-.44-.12-.57-.08-.13-.23-.2-.46-.2-.24,0-.41.07-.5.2-.09.14-.14.33-.14.57v2.02h-1.11v-3.72h1.04v.4h.01c.21-.35.55-.52,1.01-.52.16,0,.33.03.51.09.18.06.33.14.44.23.29.24.43.64.43,1.2v2.32Z"/>
    <path d="M44.96,47.06h-1.11v-.84h1.11v.84ZM44.96,51.17h-1.11v-3.72h1.11v3.72Z"/>
    <path d="M49.34,51.17h-1.11v-2.03c0-.25-.04-.44-.12-.57-.08-.13-.23-.2-.46-.2-.24,0-.41.07-.5.2-.09.14-.14.33-.14.57v2.02h-1.11v-3.72h1.04v.4h.01c.21-.35.55-.52,1.01-.52.16,0,.33.03.51.09.18.06.33.14.44.23.29.24.43.64.43,1.2v2.32Z"/>
    <path d="M55.27,51.17h-2.75v-4.96h2.75v1.11h-1.54v.77h1.49v1.11h-1.49v.85h1.54v1.11Z"/>
    <path d="M59.94,51.17h-1.36l-.74-1.15-.76,1.15h-1.34l1.41-1.99-1.25-1.73h1.33l.6.98.6-.98h1.32l-1.25,1.73,1.44,1.99Z"/>
    <path d="M64.53,49.35c0,.54-.17.99-.51,1.38s-.77.57-1.3.57c-.46,0-.84-.15-1.12-.46v1.57h-1.11v-4.96h1.04v.41h.02c.29-.36.67-.54,1.16-.54.55,0,.99.2,1.32.59.33.39.49.87.49,1.43ZM63.42,49.32c0-.27-.09-.49-.26-.68-.18-.18-.4-.27-.67-.27s-.49.09-.67.27-.26.41-.26.68.09.49.27.67.4.27.66.27.48-.09.66-.27.27-.41.27-.67Z"/>
    <path d="M69.01,49.36c0,.11,0,.21-.03.29h-2.79c.03.21.13.39.29.51.16.13.36.19.58.19.27,0,.49-.12.68-.35h1.14c-.17.38-.41.69-.73.93-.32.24-.68.35-1.09.35-.54,0-1.01-.19-1.39-.58s-.58-.85-.58-1.39.19-1.01.57-1.41c.38-.39.84-.59,1.38-.59s1.03.2,1.4.59c.37.39.56.87.56,1.44ZM67.9,48.9c-.04-.2-.15-.35-.3-.47-.16-.11-.34-.17-.54-.17s-.39.06-.54.17c-.16.11-.26.27-.3.47h1.69Z"/>
    <path d="M71.74,48.45c-.29,0-.5.06-.65.15-.15.09-.22.27-.22.53v2.04h-1.11v-3.72h1.04v.4h.01c.18-.35.49-.52.93-.52v1.12Z"/>
    <path d="M73.57,47.06h-1.11v-.84h1.11v.84ZM73.57,51.17h-1.11v-3.72h1.11v3.72Z"/>
    <path d="M78.22,49.36c0,.11,0,.21-.03.29h-2.79c.03.21.13.39.29.51.16.13.36.19.58.19.27,0,.49-.12.68-.35h1.14c-.17.38-.41.69-.73.93-.32.24-.68.35-1.09.35-.54,0-1.01-.19-1.39-.58s-.58-.85-.58-1.39.19-1.01.57-1.41c.38-.39.84-.59,1.38-.59s1.03.2,1.4.59c.37.39.56.87.56,1.44ZM77.11,48.9c-.04-.2-.15-.35-.3-.47-.16-.11-.34-.17-.54-.17s-.39.06-.54.17c-.16.11-.26.27-.3.47h1.69Z"/>
    <path d="M82.42,51.17h-1.11v-2.03c0-.25-.04-.44-.12-.57-.08-.13-.23-.2-.46-.2-.24,0-.41.07-.5.2-.09.14-.14.33-.14.57v2.02h-1.11v-3.72h1.04v.4h.01c.21-.35.55-.52,1.01-.52.16,0,.33.03.51.09.18.06.33.14.44.23.29.24.43.64.43,1.2v2.32Z"/>
    <path d="M87.1,49.76c-.11.46-.34.82-.7,1.11-.36.28-.78.43-1.25.43-.55,0-1.02-.19-1.41-.58-.39-.38-.58-.85-.58-1.41s.19-1.02.57-1.4c.38-.38.84-.58,1.39-.58.48,0,.91.14,1.27.43s.6.66.7,1.13h-1.13c-.16-.35-.44-.52-.83-.52-.26,0-.47.09-.62.27-.16.18-.23.41-.23.67s.08.49.24.67.38.27.64.27c.36,0,.63-.17.8-.5h1.13Z"/>
    <path d="M91.55,49.36c0,.11,0,.21-.03.29h-2.79c.03.21.13.39.29.51.16.13.36.19.58.19.27,0,.49-.12.68-.35h1.14c-.17.38-.41.69-.73.93-.32.24-.68.35-1.09.35-.54,0-1.01-.19-1.39-.58s-.58-.85-.58-1.39.19-1.01.57-1.41c.38-.39.84-.59,1.38-.59s1.03.2,1.4.59c.37.39.56.87.56,1.44ZM90.44,48.9c-.04-.2-.15-.35-.3-.47-.16-.11-.34-.17-.54-.17s-.39.06-.54.17c-.16.11-.26.27-.3.47h1.69Z"/>
    <path d="M95.09,50.03c0,.4-.15.71-.45.93-.3.22-.65.33-1.07.33s-.75-.11-1.03-.32-.44-.52-.48-.91h1.11c.02.11.06.2.14.25.08.06.17.09.28.09.09,0,.18-.03.26-.08.08-.05.12-.12.12-.21,0-.04,0-.07-.02-.1s-.03-.06-.05-.09-.04-.05-.06-.07c-.02-.02-.05-.04-.09-.06-.04-.02-.07-.03-.09-.04-.02,0-.05-.02-.1-.04-.05-.02-.08-.03-.09-.03-.21-.07-.38-.13-.48-.17-.59-.21-.88-.54-.88-.97,0-.37.14-.67.43-.89s.62-.33,1.01-.33.71.1.98.3c.26.2.41.49.45.87h-1.09c0-.19-.12-.28-.35-.28-.08,0-.15.02-.22.07-.06.04-.1.1-.1.18,0,.09.05.17.14.23.09.06.21.11.34.14.14.03.29.08.45.14s.31.12.45.2c.14.07.25.18.34.33.09.15.14.32.14.53Z"/>
  </g>
  <g>
    <path class="cls-3" d="M33.64,16.34c-.03-1.17-.01-2.53-.55-3.6-.55-1.09-1.46-2.04-2.28-2.92-.21-.23-.43-.45-.63-.68-.09-.1-.18-.2-.26-.3-.03-.03-.12-.17-.18-.25,0-.07.02-.16.03-.21.07-.25.17-.49.26-.73.74-1.99.7-4.5-1.01-6.03-2-1.79-4.47-.5-6.23.98-2.92-1.22-6.69-.96-9.59.03-.36.12-.87.24-1.19.45-.08.05-.18.07-.23.08-.4-.31-.81-.6-1.21-.9-.89-.67-1.91-1.24-2.95-1.63C4.67-.44,3.54,2.93,4.4,5.19c.29.76.75,1.45,1,2.22.21.66.29,1.34.65,1.95.03.05.07.1.1.16,0,0,0,0,0,.01-.12.18-.2.41-.3.6-.29.57-.54,1.09-.61,1.73-.15,1.55-.71,2.99-.34,4.56.1.41.24.82.41,1.2.14.31.45.69.47,1.04.02.32-.21.67-.33.96-.04.09-.07.19-.1.28-.7-.1-1.4-.11-2.13.05-.36.08-.54.32-.58.59-.01.06-.02.13-.02.2v.13c0,.27.14.52.36.68-.21.15-.36.36-.36.66v.13c0,.39.31.75.69.81-.37.26-.69.59-.69,1.03,0,.53.49.88.97.8-.1.61.56,1.25,1.21.86.34-.2.67-.42,1.01-.61-.1.06.25-.08.39-.13.24.4.54.77.93.98.05.03.19.14.24.14.01.08.02.17.03.23.05.25.08.49.17.73.36,1.02,1.17,1.77,2.17,2.13.97.35,2.06.32,3.05.07.5-.12,1-.32,1.45-.56.07-.04.14-.08.2-.12.12,1.01-.08,2.01-.33,3.05-.32,1.32-.58,2.61-.54,3.98.04,1.26.24,2.54.65,3.74.28.84.68,2.1,1.43,2.65.86.64,2.12-.67,2.82-1.14,1.04-.7,2.08-1.4,3.1-2.14,2-1.44,3.95-2.97,5.65-4.75,3.64-3.79,5.54-8.6,6.19-13.78.16-1.31.24-2.64.21-3.96Z"/>
    <path d="M3.45,20.74c.86-.22,1.75-.08,2.6.13-.13-.85.71-1.62.53-2.4-.1-.44-.47-1-.64-1.45-.76-2.06-.17-2.79.1-4.75.04-.29-.01-.49.11-.86.13-.41.9-1.71.89-1.94,0-.13-.36-.58-.45-.79-.22-.54-.29-1.16-.49-1.73-.35-.94-.95-1.75-1.16-2.77-.24-1.21.18-3.04,1.72-2.92.76.06,2.46,1.05,3.14,1.5.28.19,1.74,1.36,1.88,1.35.71-.26,1.4-.57,2.13-.79,2.52-.75,5.54-.89,8.08-.14.36.11.71.23,1.03.41.97-.91,2.6-2.14,4-2.01,2.14.2,2.96,2.66,2.75,4.52-.08.68-.91,2.29-.79,2.73.02.09.14.22.21.3.84,1.05,1.83,1.88,2.66,3.05.5.71.8,1.04.92,1.94.58,4.51-.32,9.89-2.22,14.01-2.78,6.01-8.9,9.8-14.19,13.36-.15.01-.46-.57-.54-.71-1.01-1.84-1.42-4.26-1.25-6.35.19-2.37,1.58-4.79.5-7.15-.09-.07-.29.26-.38.34-1.79,1.48-5.43,1.75-6.25-.85-.09-.28-.11-.83-.23-1.04-.09-.16-.43-.29-.59-.42-.36-.3-.67-.77-.86-1.2l-1.09.33-1.13.68c.56-.6,1.29-1.08,2.1-1.27l-.2-.56c-1.03-.08-1.98.39-2.85.88v-.06c.76-.68,1.71-1.08,2.73-1.18-.06-.69-.12-.75-.79-.8-.63-.05-1.35-.04-1.94.19v-.13c.22-.1.77-.32.98-.32h1.56l-.04-.77c-.83-.26-1.64-.28-2.5-.25v-.13ZM8.66,5.44c-.13-.77-1.25-3.07-2.01-3.22-1.16-.24-1.03,1.39-.89,2.1.23,1.2,1,2.05,1.32,3.06.09.28.1.6.19.89.11.33.21.74.48.23.31-.6.17-1.31-.29-1.78l.38.03c-.31-.39-.61-.75-1.02-1.05.36.01.7.17.98.38.04.01.05-.06.03-.09-.03-.07-.59-.61-.7-.7-.06-.06-.54-.32-.44-.41.39,0,.71.34,1.08.35-.33-.4-.65-.9-1.14-1.11l.03-.13.92.38-.89-1.21c.5.2.95.69,1.26,1.12.27.38.42.81.71,1.16ZM26.43,13.88c-.03-.8-.25-1.62-.03-2.41.25-.88,1.14-1.28,1.3-2.26.2-1.25.41-1.25.82-2.29.91-2.32-.28-5.47-3.16-3.99-1.26.65-2.44,1.88-2.79,3.27l-.06-.38-.44.95-.12-.16-.13-.85-.26,1.08-.38-.76-.32.82c-.21-.67-.24-1.13.11-1.76.06-.11.44-.52.39-.59-.55-.04-1.38-.82-1.81-.89-.26-.04-.76-.11-1.01-.13-.42-.03-.87.02-1.3,0,.15.6-.99.86-1.33.41.15-.17.36-.29.59-.29v-.12c-.23.1-.47.06-.71.16-.19.08-.35.29-.56.39-.13.06-.55.14-.57.16-.03.02-.02.14-.08.2-.15.16-1.19.69-1.26.31.13-.76,1.15-.26,1.2-.91l-1.4.48c0,.59-.79.84-1.27.98-.16-.21.61-.6.7-.76-1.14.36-2.17,1.07-2.88,2.04-.55.74-1.2,1.78-1.68,2.58-.52.88-1.05,1.82-1.28,2.81,1.3-.37,2.8.15,2.86,1.68.04,1.21-1.77,4.09-2.34,5.34-.42.92-.8,1.71-.63,2.77l.68.59c.02.12-.16.23-.28.22-.25-.02-.2-.34-.42-.32-.02.03.12.56.16.64.18.42.82.23.85.48l-.16.2-.47-.18c0,.2.12.46.3.56.24.13.44-.01.56.07s.13.18,0,.25l-.47-.03c.28.34.76.97,1.25.81.27-.09.79-.7.79-1s-.36-.86-.55-1.11c-.52-.67-1.27-1.32-1.79-2.02-.16-.15-.21-.86-.08-.95.57-.18,1.02.26,1.52.39,1.04.26,1.67-.36,2.7-.22.41.06.59.35,1.05.02.22-.16.42-.68.7-.37.07.23-.54.93-.73,1.1-.84.75-1.56.93-2.14,2.05-.53,1.04-.17,1.32.73,1.83,1.53.87,3.09,1.04,4.42-.26-.31.03-1.65.43-1.81.19v-.26c.76-.12,1.66-.17,2.26-.73-.05-.06-.21-.04-.28-.03-.58.04-1.17.29-1.72.32-.22.01-.38-.13-.43-.12-.08.01-.17.17-.33.18-.22,0-.35-.19-.28-.4.07-.22.4-.04.53-.05,1.7-.13,3.45-.48,5.05.36l1.53.79c-.08-.25-.85-.5-.92-.63-.03-.05.06-.18,0-.26-.11-.07-.24-.11-.36-.15-.49-.19-1.32-.37-1.81-.41-.18-.02-1.05.09-.89-.2.28-.18.47-.39.61-.7-.25.09-.77.07-.97.14-.1.03-.11.2-.21.23-.16.05-.43-.02-.62.01-.45.07-.48.18-1.02.18-.28,0-.57.01-.85,0-.16-.52.12-.35.4-.38,1.37-.13,2.68-.6,4.07-.75l1.78-.07,1.87.19-.25-.16c.29-.57.91-.92,1.47-1.2,1.22-.6,1.24-.15.89,1.02l-.71,1.04c.69-.17,1.26-.51,1.81-.95.14.19-.04.54-.15.74-.23.45-.6.85-.96,1.19-.01.05.06.04.09.03.13-.05.71-.54.86-.66.9-.79,1.58-1.7,2-2.83.93-2.5.66-5.04-.03-7.55l.63,1.21ZM31.58,18.71v-1.81s.12-.08.03-.1c-.14-.02-.14.2-.26.31s-.23.18-.38.07c-.25-.17-.9-1.91-.96-2.27-.05-.28-.15-1.8-.02-1.92.11-.03.13.05.19.09.5.38.93,1.03,1.14,1.62.11.02.06-.14.06-.22,0-.18.02-.37-.03-.54l-2.19-2.79c.07.57.19,1.17.13,1.75-.02.19-.09.47-.32.51l-.57-1.24c-.09-.02-.11.19-.1.23.02.52.39,1.3.42,1.96.01.25-.04,1.13-.47.98-.25-.09-.42-1.6-.48-1.9l-.13.67.13,1.49c-.16.18-.53-.87-.63-.89.08,2.2.26,4.35-.57,6.45-.65,1.63-2,3-3.08,4.35-.53.67-1,1.4-1.56,2.06l-.19.03.22-1.14.38-1.21-1.46,1.4-2.35,2.79-.15-.1c.14-.63.13-1.24,0-1.87-.11.02-.11.13-.14.2-.29.61-.51,1.3-.68,1.95l-.24-.17-.45-1.1c.05.65.13,1.27-.06,1.9l-.63-1.46c.12,1.51-.45,2.92-.68,4.37-.36,2.24-.29,4.9.86,6.92.03.05-.02.11.1.07,4.21-3.13,8.84-5.96,11.85-10.37l-1.05.47c-1.13-.07-.43-1.2-.11-1.77.41-.73.97-1.79,1.9-1.85.3-.02.51.12.79.1l.44-1.02c-.75.12-.72-.72-.7-1.27.04-.92.24-2.45,1.52-2.06l.29-1.4c-.25.21-.59.4-.78.02-.13-.27-.11-1.78-.06-2.13s.28-.88.72-.62l.35.45ZM6.87,12.43l-.31-.07c-.16.97-.5,1.92-.44,2.92.02.02.35-.35.48.06.11.34-.27.72-.22,1.1.02.12.58,1.42.67,1.55.04.06,0,.11.14.08l1.53-3.07c-1.24-.37-2.01-1.2-1.85-2.57ZM8.27,12.49l-.69-.05c-.62.84.32,2.27,1.31,1.85.28-.12.09-1.03.01-1.29-.14.09-.01.34-.09.51-.26.54-1.17-.13-.98-.63h.35s.06-.13.06-.13l-.1-.19.13-.06ZM10.75,20.61c-.41.04-.79.43-.89.82.21-.14.32-.37.51-.54.12-.11.3-.16.38-.28ZM20.65,22.2c-1.07-.1-2.16-.21-3.23-.06l-.07.24c.57.07,1.14.09,1.7.24.93.24,1.75.77,2.62,1.16-.46-.44-1.08-.67-1.65-.95.08-.1.24-.49.32-.54.11-.07.31.03.32-.09ZM19.64,23.15c-.77-.19-1.56-.32-2.34-.37l-.07.21c.02.11.86.24,1.04.3.54.16,1.09.62,1.37-.13ZM19.26,25.56c.06-.07-.14-.24-.19-.29-.7-.67-1.73-1.31-2.73-1.3l.89.29c.74.33,1.43.77,2.03,1.3ZM9.04,25.69l.13-.25c-.71.3-.31,1.37.07,1.8,1.18,1.32,3.87.96,4.82-.5l-1.94-.98.19.44c-.06,0-.98-.59-.92-.41l.19.35-.51-.25-.03.25-.51-.44-.03.38-.19-.44-.06.32-.19-.32-.06.13-.06-.19-.06.38-.13-.19h-.13s-.06.19-.06.19v-.38s-.22.19-.22.19l.03-.19-.32.13Z"/>
    <path class="cls-3" d="M26.43,13.88l-.63-1.21c.69,2.51.96,5.06.03,7.55-.42,1.13-1.1,2.04-2,2.83-.14.13-.73.61-.86.66-.03.01-.1.02-.09-.03.36-.34.73-.75.96-1.19.1-.2.29-.55.15-.74-.55.44-1.12.78-1.81.95l.71-1.04c.35-1.17.33-1.62-.89-1.02-.56.28-1.18.62-1.47,1.2l.25.16-1.87-.19-1.78.07c-1.39.15-2.7.62-4.07.75-.28.03-.56-.14-.4.38.28.02.57,0,.85,0,.54,0,.57-.11,1.02-.18.19-.03.47.04.62-.01.1-.04.11-.2.21-.23.2-.07.72-.05.97-.14-.14.3-.33.52-.61.7-.16.29.71.18.89.2.49.04,1.32.23,1.81.41.12.05.25.09.36.15.06.08-.04.2,0,.26.07.13.84.38.92.63l-1.53-.79c-1.6-.84-3.35-.5-5.05-.36-.13.01-.46-.17-.53.05-.07.2.06.4.28.4.16,0,.25-.16.33-.18.05,0,.21.13.43.12.55-.03,1.14-.28,1.72-.32.08,0,.24-.03.28.03-.6.56-1.5.6-2.26.73v.26c.17.24,1.51-.17,1.81-.19-1.33,1.3-2.9,1.13-4.42.26-.9-.51-1.26-.79-.73-1.83.57-1.12,1.3-1.3,2.14-2.05.19-.17.8-.87.73-1.1-.28-.31-.48.21-.7.37-.46.33-.64.03-1.05-.02-1.03-.14-1.66.48-2.7.22-.51-.13-.95-.56-1.52-.39-.13.09-.08.8.08.95.52.69,1.27,1.34,1.79,2.02.19.24.55.81.55,1.11s-.51.91-.79,1c-.49.16-.97-.47-1.25-.81l.47.03c.14-.08.13-.17,0-.25s-.32.05-.56-.07c-.18-.09-.3-.36-.3-.56l.47.18.16-.2c-.04-.25-.67-.06-.85-.48-.03-.07-.18-.61-.16-.64.21-.02.17.3.42.32.12.01.3-.1.28-.22l-.68-.59c-.17-1.06.21-1.85.63-2.77.57-1.26,2.39-4.13,2.34-5.34-.06-1.53-1.56-2.05-2.86-1.68.23-1,.76-1.94,1.28-2.81.48-.8,1.13-1.84,1.68-2.58.71-.97,1.74-1.68,2.88-2.04-.09.16-.85.55-.7.76.48-.14,1.27-.4,1.27-.98l1.4-.48c-.05.65-1.07.15-1.2.91.07.37,1.1-.15,1.26-.31.06-.06.05-.18.08-.2.02-.02.44-.1.57-.16.21-.1.37-.3.56-.39.25-.11.49-.06.72-.16v.12c-.24,0-.45.12-.6.29.35.44,1.48.19,1.33-.41.43.02.88-.03,1.3,0,.26.02.75.09,1.01.13.43.07,1.27.85,1.81.89.05.07-.33.48-.39.59-.36.62-.33,1.09-.11,1.76l.32-.82.38.76.26-1.08.13.85.12.16.44-.95.06.38c.36-1.39,1.54-2.62,2.79-3.27,2.88-1.48,4.07,1.67,3.16,3.99-.41,1.04-.62,1.04-.82,2.29-.16.98-1.05,1.38-1.3,2.26-.22.79,0,1.61.03,2.41ZM25.04,9.28c-.02.35.02.7,0,1.05l.13-.16.19-.54.29,1.78c.25-.47.26-1.06.29-1.59l.32.51c.14-.44.14-.88.13-1.33l.32.51.06-1.08.25.38c.1-.27-.16-.63-.13-.84,0-.03.37-.42.45-.43l-.32-.16.57-.7-.89.03.76-.51-.03-.13c-.17,0-.34,0-.51,0-.07,0-.17.04-.16-.06l.95-.67c-.3-.27-.69.06-1.01,0,.35-.22.66-.61,1.08-.67-.03-.12-.09-.11-.19-.1-.39.03-.72.23-1.08.36l.95-1.08c-.45,0-.86.21-1.27.38l.82-.76c-.54.06-1.02.32-1.49.57-.04-.19.27-.37.35-.54.01-.05-.07-.04-.09-.03-.09.04-.8.62-.92.73-.77.68-1.57,1.77-1.84,2.76.25-.18.45-.42.65-.66.05-.06.12-.21.12-.01-.3.51-.55,1.04-.7,1.62l1.14-.95c-.22.54-.57,1.05-.63,1.65l1.01-.89c-.12.27-.25.49-.33.78s-.13.58-.17.87c.24-.18.48-.4.57-.7.1-.02.06.08.06.15-.03.31-.09.61-.06.93l.38-.76c.17,0,0,.24,0,.29ZM19.25,4.16l-.05-.28c-.54-.1-1.18-.4-1.66.01.22.85,1.12.58,1.71.27ZM14.95,4.43c.11.69.91.57.95-.1-.07-.42-.73.02-.95.1ZM16.16,5.11c.29.26,1.35-.39,1.31-.58-.05-.28-1.06-.14-1.25-.06-.24.11-.19.52-.06.64ZM20.52,5.81c.19-.29.29-.65.15-.99-.16-.41-.62-.26-.93-.27-.21,0-.68-.17-.83.12-.36.73,1.16,1.05,1.61,1.14ZM12.91,7.5c-.05.29.03.68,0,.98l.56-1.44c.17-.29.36-.57.56-.84.17-.23,1.23-1.26.84-1.52-.31-.03-.76.29-.95.53-.09.12-1,2.16-1.02,2.29ZM17.39,5.85c.06.06.09.16.15.2.34.19,1.28-.84.67-1.18-.05-.03-.55-.07-.63-.06-.73.09-.59.63-.19,1.04ZM12.97,5.82c.27.1.8-.46.76-.66-.08-.45-.81.63-.76.66ZM15.02,5.14c-.24.16-.42.93.14.87.16-.02.62-.62.59-.79-.04-.24-.6-.17-.73-.09ZM13.16,5.12c-.35.02-1.61.9-1.52,1.24.06.24.56-.08.67-.16.13-.1.99-.94.86-1.08ZM15.85,6.18c.08.09.53.44.65.46.67.12.65-.59.28-.98-.62-.66-1.41-.05-.93.52ZM11.7,5.82c-.04-.43-.79.02-1.02.16-.28.17-.64.38-.7.73.69-.02,1.13-.63,1.71-.89ZM19.95,7.21c.11-.55-.17-1.12-.63-1.42-.38-.25-.89-.22-.89.32,0,.68.87,1.32,1.52,1.1ZM14.69,5.95c-.2-.14-.98.85-.82,1.07.28.4,1.09-.88.82-1.07ZM13.23,6.07c-.21-.22-.68.81-.72.97-.02.09-.08.08.05.17.35-.25.72-.68.67-1.14ZM14.58,7.45c.6.32.95-.46.73-.95-.24-.55-1.07.61-.73.95ZM12.46,6.45c-.19.01-.34.13-.46.27-.08.09-.53.86-.27.87.4-.23.71-.67.73-1.14ZM17.59,6.59c-.06,0-.24.07-.27.11-.15.56.48,2.18,1.24,1.81.29-.14.06-.74-.05-.96-.11-.24-.66-.99-.92-.96ZM10.75,6.77c-.39,0-.73.31-.98.57-.17.17-1.07,1.29-.92,1.46.45-.13.65-.65.95-.98.25-.28.59-.54.82-.83.06-.07.15-.1.13-.22ZM10.62,7.79c.26.25,1.58-1.04.67-.95-.32.03-.75.63-.67.95ZM17.09,8.86c.12-.08.05-.41.01-.53-.06-.21-.55-1.12-.7-1.27-.25-.25-.83.03-.89.32-.05.25.08.69.25.89.15.17,1.13.72,1.32.59ZM20.29,7.04c-.28.36.38,1.45.79,1.56,1.09.28.33-.84-.01-1.19-.11-.11-.64-.55-.78-.36ZM13.93,7.09c-.36-.13-.74.8-.57.95.3.25.62-.72.57-.95ZM14.36,8.47c.25-.34.35-.85-.18-.94-.15.34-.44.99.18.94ZM12.53,7.6c-.07.26-.25.46-.34.71-.04.11-.16.28-.01.37.24-.21.33-.58.38-.88.01-.07.08-.21-.03-.19ZM20.46,9.75c.16-.36-.07-.91-.26-1.23-.12-.19-.91-1.08-1.13-.87-.09,1,.39,1.86,1.39,2.09ZM11.39,8.74c.43-.07.67-.62.63-1.02-.26.03-.77.87-.63,1.02ZM9.74,8.61c-.08-.1.39-.54.29-.7-1,.97-1.84,2.52-1.05,3.87l.13-.03c.11-.98.13-1.85.66-2.71.12-.2.56-.66.61-.79.03-.08-.02-.12-.09-.09l-.54.44ZM11.39,8.11c-.49-.17-.88.53-.95.95.15.15.9-.81.95-.95ZM15.72,9.11c-.14-.18-.08-.99-.52-.85-.67.21,0,1.17,0,1.47,0,.23-.24.76-.3,1.03-.1.48-.19.98-.21,1.47.65-.76,1.72-1.92,1.32-3.01-.02-.14-.23-.04-.29-.12ZM13.29,8.3c-.13-.12-.32.43-.32.54,0,.15.12.45.29.48.14.02.23-.4.23-.48,0-.24-.16-.31-.2-.54ZM14.18,9.31c.11-.38.12-.81-.38-.79-.17.31-.05.87.38.79ZM22.77,10.56c.12.11.36.24.51.15.34-.26-.38-1.41-.6-1.68-.17-.2-.42-.41-.7-.41-.22.16.52,1.72.78,1.95ZM12.46,8.93c-.13.06-.21.19-.29.31-.06.09-.62,1.03-.31,1.02.11,0,.65-1.11.6-1.33ZM8.4,10.52c-.06-.49.15-.98.06-1.46-.36.26-.25.89-.16,1.27.02.07,0,.21.09.19ZM17.84,9.07c-.66.57.96,1.66,1.35,1.42.55-.34-.73-1.63-1.35-1.42ZM10.94,9.12c-.36.05-.53.37-.38.7.25.06.44-.63.38-.7ZM11.77,9.12c-.42-.18-.95,1.07-.82,1.21.35.13.88-1.15.82-1.21ZM20.97,9.18c-.17.35.58,1.69.92,1.59.41-.12-.45-1.72-.92-1.59ZM10.18,9.25c-.08.02-.13.1-.18.17-.05.07-.39.68-.17.72.2.03.41-.73.35-.89ZM13.39,9.44c-.3.09.12,1.26.54,1.05.36-.19-.28-1.13-.54-1.05ZM16.72,9.88l-.1-.38c-.13,0-.58,1.01-.48,1.2.03.03.31-.17.25.03s-.31.36-.25.6c.39-.46,1.74-1.08.91-1.71l-.34.25ZM14.24,10.33l.19-.03c.1-.08.07-.42.03-.55-.09-.27-.34-.27-.35.04,0,.19.1.36.12.54ZM7.93,9.69c-.2.29-.46.53-.41.92.05.35.61.88.69.45.03-.17-.04-1.43-.28-1.36ZM19.64,9.95c-.18.42.56,2.2,1.08,1.87.56-.67-.3-1.9-1.08-1.87ZM13.16,10.02c-.31-.19-.28.71-.23.9s.43.77.68.54c.17-.26-.4-1.12-.44-1.44ZM10.12,10.14c-.25-.04-.62.7-.35.76.23.05.42-.58.35-.76ZM25.04,12.17c.22-.89-.31-1.68-1.14-1.97-.06.06.34,1.21.43,1.38.13.25.4.64.71.59ZM12.46,10.45c-.16-.03-.11.03-.16.12-.16.31-.08.62-.09.96.09.02.09-.11.11-.18.09-.28.16-.6.15-.9ZM16.72,11.22h1.56s.1-.08.16-.06c-.05-.42-.62-.75-1-.46l-.72.52ZM10.12,11.79c.09-.36.44-.79.16-1.14-.24-.05-.64,1.11-.16,1.14ZM11.07,12.55c.19-.38.38-.76.43-1.19.02-.2.08-.5-.08-.65-.16,0-.69,1.55-.48,1.8l.13.04ZM12.83,10.91s-.21-.1-.24-.08c-.17.29-.23,1.54.28,1.51.33-.1.33-.44.25-.73-.02-.08-.26-.67-.29-.69ZM10.81,11.03c-.27-.05-.44.36-.48.57-.03.17-.12.78.13.75.23-.03.42-1.1.35-1.32ZM21.9,11.43c-.23-.21-.61-.47-.68,0-.08.59.16,2.1.98,2s.06-1.66-.3-2.01ZM23.35,13.09c.59.46.7-.05.58-.61-.06-.3-.85-1.6-1.18-1.33-.16.62.08,1.53.59,1.94ZM19.58,12.23c.03-.38-.11-.75-.44-.95.04.18.1.39.18.55.05.12.16.33.27.4ZM14.18,12.42c.09-.08.11-.7-.03-.82-.11.13-.16.37-.16.54,0,.06.06.41.19.29ZM11.77,12.68c.04-.34.16-.68.06-1.02-.21.18-.37.86-.06,1.02ZM9.8,13.82c.2-.54.22-1.17.03-1.71-.03-.09-.04-.23-.16-.25l.13,1.97ZM18.57,13.19c.38-.06.77-.24.94-.61-1.12-.46-2.91-1.14-3.97-.22-.38.33-1.58,2.68-1.78,3.24-.17.45-.23.93-.1,1.4l.51-1.08c.09.49.35,1.11.7,1.46-.16-.65-.32-1.32-.06-1.97l.38.32c-.12-.17-.02-.77.09-.89.1-.11.84.07,1.08.07,1.13-.01,2.1-.49,2.2-1.71ZM13.48,12.29c-.04.28-.19.63.09.82.29-.18.14-.65-.09-.82ZM20.95,14.62c.43-.37.13-1.55-.2-1.95-.17-.2-.62-.62-.67-.16-.03.29-.05,1.04.03,1.31.03.08.44.78.51.83.12.08.22.07.33-.03ZM24.53,12.61c-.13.68-.14,1.68.35,2.22.57.63.65-.16.6-.67s-.4-1.44-.95-1.56ZM12.72,13.44c0-.11.06-.62-.16-.57-.16.04-.07.61.16.57ZM22.94,13.72v1.08c0,.35,1.33,2.43,1.33.89,0-.45-.64-2.24-1.23-2.06l-.1.09ZM19.75,13.84c-.51-.63-.97,1.08-.44,1.24.55.17.66-.97.44-1.24ZM21.78,14.02c-.17.05-.3.75-.3.92,0,.41.32.97.68,1.17.56.31.5-.86.45-1.15-.05-.27-.53-1.03-.83-.93ZM18.88,14.45c-.06-.06-.63.43-.74.49-.23.14-.59.34-.83.44-.19.08-.8.21-.84.24-.16.12,0,.64.19.51.4-.7.22-.19.47-.03.53.34.63-.48.77-.51l.25.13.73-1.27ZM19.25,16.28c.21-.13.18-.9-.06-1.1-.5-.43-.83.85-.31,1.07.09.04.3.07.37.02ZM19.97,15.17c-.15.14-.22.87-.21,1.09.09,1.19,1.18.32,1.01-.69-.05-.34-.54-.63-.81-.4ZM25.46,15.68c-.06-.06-.17-.09-.25-.07-.65.33-.95,2.41-.07,2.47.8.05.79-1.99.33-2.39ZM15.58,16.04c-.07.19.06.72.35.63s-.06-.73-.35-.63ZM18.03,16.24c-.66.19,0,1.55.52.9.3-.38-.14-1.01-.52-.9ZM21.66,16.37c-.46-.26-1.14,1.2-1.1,1.58.04.34.48.45.77.33.47-.19.68-1.7.32-1.91ZM17.15,17.29c.26-.26-.3-1.14-.68-.78s.37,1.08.68.78ZM23.56,16.82c-.14-.12-.58-.3-.76-.26-1.1.23-.6,3.26.48,2.21.19-.18.55-1.17.54-1.43,0-.14-.16-.43-.26-.52ZM19.43,16.76c-.61.03-.84.9-.31,1.24.6.06,1.09-1.28.31-1.24ZM16.26,17.8c.33-.41-.45-.99-.55-.46-.07.38.2.68.55.46ZM17.27,17.64c-.24.08-.35.9.36.74.64-.15.46-1.01-.36-.74ZM15.29,17.69c-.17.04-.03.48.13.44l.15-.21-.28-.23ZM16.89,18.34c-.05-.06-.71-.31-.74-.27-.02.44-.08.77.48.7.22-.03.45-.24.27-.43ZM13.16,18.2c-.16-.04-.11.04-.16.12-.18.25-.34.58-.34.9.43-.24.57-.51.51-1.02ZM18.61,18.21c-.45.1-.73.96.07.71.42-.13.54-.84-.07-.71ZM20.06,19.38c.46-.46.17-1.57-.55-1.03-.88.67-.15,1.73.55,1.03ZM24.58,18.34c-.4.1-1.14,1.59-1.18,2.01-.05.49.32.98.85.78.61-.23.99-1.2.98-1.81,0-.35-.19-1.09-.65-.97ZM15.89,19.09c.01-.22-.05-.49-.32-.44-.03.24.03.47.32.44ZM17.18,19.58c.48.12.86-.16.62-.65-.24-.16-.55-.11-.77.06-.14.18.07.42.15.59ZM21.21,19.04c-.5.07-.94,1.05-.53,1.39.43.35,1.58-.31,1.4-.89-.07-.24-.63-.53-.88-.49ZM16.32,19.29c-.25.07-.18.46.18.44.41-.02.23-.55-.18-.44ZM18.41,19.86c-.34.08-.42.52-.33.81.72.57,1.55-1.09.33-.81ZM17.35,21.75c-.11-.79-.65-1.58-1.46-1.78.41.54.72,1.15.76,1.84l.7-.06ZM19.75,20.18c-.45.06-.95.53-.62.97.76.39,1.65-1.12.62-.97ZM17.58,20.23c-.22.05-.25.74.19.45l.08-.15c-.03-.09-.16-.32-.28-.3ZM15.93,21.12c-.2-.05-.76,0-1.02,0-.06,0-.5.15-.53.23-.04.57.81.24,1.14.12.06-.02.72-.28.41-.35ZM13.84,21.32c-.41.03-.22.67.11.43.2-.15.07-.44-.11-.43ZM13.03,21.57l-.32.03c-.08.16-.03.29.1.41.14.03.34-.31.21-.44ZM11.87,24.43c-.34.11.23.44.4.15-.1-.14-.23-.2-.4-.15ZM13.03,24.73c.1-.16-.09-.42-.31-.28-.33.21.18.49.31.28Z"/>
    <path class="cls-3" d="M31.58,18.71l-.35-.45c-.44-.26-.67.26-.72.62s-.06,1.86.06,2.13c.19.39.53.2.78-.02l-.29,1.4c-1.28-.39-1.48,1.15-1.52,2.06-.03.55-.06,1.38.7,1.27l-.44,1.02c-.28.02-.49-.12-.79-.1-.93.05-1.49,1.12-1.9,1.85-.32.57-1.01,1.69.11,1.77l1.05-.47c-3.01,4.41-7.64,7.24-11.85,10.37-.12.03-.07-.02-.1-.07-1.15-2.01-1.22-4.68-.86-6.92.24-1.45.8-2.86.68-4.37l.63,1.46c.19-.64.12-1.26.06-1.9l.45,1.1.24.17c.17-.65.39-1.35.68-1.95.04-.07.04-.19.14-.2.13.63.14,1.24,0,1.87l.15.1,2.35-2.79,1.46-1.4-.38,1.21-.22,1.14.19-.03c.56-.66,1.03-1.39,1.56-2.06,1.08-1.36,2.43-2.72,3.08-4.35.83-2.1.65-4.24.57-6.45.11.02.48,1.07.63.89l-.13-1.49.13-.67c.07.3.24,1.81.48,1.9.43.15.48-.73.47-.98-.03-.66-.4-1.43-.42-1.96,0-.04.02-.26.1-.23l.57,1.24c.22-.04.3-.32.32-.51.07-.57-.06-1.18-.13-1.75l2.19,2.79c.05.18.03.36.03.54,0,.08.05.24-.06.22-.22-.59-.65-1.24-1.14-1.62-.06-.05-.08-.12-.19-.09-.14.12-.03,1.64.02,1.92.06.37.71,2.11.96,2.27.15.1.26.04.38-.07s.12-.34.26-.31c.09.01-.03.08-.03.1v1.81ZM29.92,18.44c.42-.98.41-1.96-.09-2.91-.04-.08-.55-.9-.67-.76-.12,1.05-.48,2.05,0,3.07.14.29.38.67.75.6ZM27.8,16.17c-.27.06-.24,1.89-.22,2.19.02.26.14,1.36.28,1.49.29.26.56-.34.65-.56.37-.97,0-2.13-.54-2.98-.04-.06-.07-.17-.17-.15ZM29.78,18.98c-.25-.25-.66.49-.77.69-.4.68-.96,2.02-.38,2.72.47.57,1.06-.23,1.2-.69.15-.51.32-2.35-.05-2.72ZM27.49,20.56c-.23.08-.99,1.77-1.04,2.07-.18,1.15.84,1.16,1.22.33.19-.42.35-1.93.1-2.31-.07-.1-.15-.13-.27-.09ZM28.05,23.31c-.49.51-1.46,2.35-1.42,3.04.05,1.01.91.55,1.39.14.62-.53.96-1.62.96-2.41,0-.57-.36-1.36-.93-.77ZM26.03,23.99c-.79.03-2.19,1.88-2.27,2.68-.09.97.21,1.18,1.04.72,1.09-.6,1.42-1.33,1.5-2.56.02-.28.1-.85-.27-.84ZM22.39,27.94c-.33.3-.96,1.09-1.06,1.51-.39,1.6,1.18.99,1.72.26.67-.89.74-3.05-.67-1.78ZM21.04,27.66c-.16-.11-.98.73-1.11.89-.64.73-1.36,1.88-1.3,2.89.03.56.58.36.89.12.52-.4,1.03-1.19,1.24-1.81.1-.3.52-1.93.29-2.09ZM26.03,27.67c-1.03.16-2.51,1.86-2.58,2.88-.07.9.57.47,1.01.25,1.15-.57,1.56-.9,2.08-2.11.26-.6.39-1.16-.51-1.01ZM17.39,30.74c-.7.58-1.52,1.96-1.08,2.88.14.3.23.33.5.13,1.01-.73,1.57-1.53,1.49-2.83-.05-.84-.46-.57-.92-.18ZM19.39,34.25c.16.1.89-.23,1.09-.32.71-.32,1.39-.75,1.87-1.37.31-.41,1.08-1.52.17-1.67-.61-.1-.92.06-1.42.35-1.02.59-2.23,1.71-1.71,3ZM25.4,31.23c-.52.08-1.69.9-2.08,1.28-.18.17-.95,1.07-1.03,1.26-.24.59.08.75.61.68s2.25-1.24,2.64-1.67c.46-.51,1.07-1.73-.15-1.54ZM18.22,33.32c-.23.05-1.22,1.02-1.41,1.26-.76.93-.88,2.07-.44,3.17.68-1.07,2.08-1.73,2.43-2.97.16-.56.34-1.67-.57-1.46ZM21.15,34.34c-.85.14-1.85,1.07-2.28,1.78-.51.85-1.41,2.62.41,1.36.66-.45,2.23-1.69,2.33-2.5.05-.41.04-.73-.46-.65Z"/>
    <path class="cls-3" d="M9.04,25.69l.32-.13-.03.19.22-.19v.38s.06-.19.06-.19h.13s.13.19.13.19l.06-.38.06.19.06-.13.19.32.06-.32.19.44.03-.38.51.44.03-.25.51.25-.19-.35c-.06-.18.86.42.92.41l-.19-.44,1.94.98c-.94,1.46-3.63,1.82-4.82.5-.39-.43-.78-1.5-.07-1.8l-.13.25Z"/>
    <path class="cls-3" d="M8.66,5.44c-.29-.36-.43-.78-.71-1.16-.31-.43-.76-.92-1.26-1.12l.89,1.21-.92-.38-.03.13c.49.21.81.71,1.14,1.11-.37,0-.68-.34-1.08-.35-.1.09.38.36.44.41.11.09.67.63.7.7.02.03.01.11-.03.09-.28-.21-.62-.37-.98-.38.4.3.71.65,1.02,1.05l-.38-.03c.46.47.6,1.18.29,1.78-.26.51-.37.1-.48-.23-.09-.29-.1-.61-.19-.89-.32-1.01-1.09-1.86-1.32-3.06-.14-.71-.27-2.33.89-2.1.77.16,1.88,2.45,2.01,3.22Z"/>
    <path class="cls-3" d="M6.87,12.43c-.16,1.37.61,2.19,1.85,2.57l-1.53,3.07c-.15.03-.1-.02-.14-.08-.09-.13-.65-1.43-.67-1.55-.05-.38.32-.76.22-1.1-.13-.41-.46-.04-.48-.06-.06-1,.28-1.95.44-2.92l.31.07ZM7.64,15.09c-.19-.19-.39-.26-.57-.48-.2-.24-.29-.55-.48-.79-.51.61.33,1.6,1.05,1.27ZM7.13,15.53c-.51.04-.51.76-.38,1.14.2.13.46-.49.48-.63.03-.21-.07-.32-.1-.51ZM7.25,17.43c.5-1.11-.47-1.01-.18,0h.18Z"/>
    <path class="cls-3" d="M20.65,22.2c0,.13-.21.02-.32.09-.07.05-.23.44-.32.54.57.28,1.19.51,1.65.95-.86-.39-1.69-.92-2.62-1.16-.56-.14-1.13-.16-1.7-.24l.07-.24c1.07-.15,2.16-.05,3.23.06Z"/>
    <path class="cls-2" d="M8.27,12.49l-.13.06.1.19-.06.13h-.35c-.19.5.73,1.17.98.63.08-.17-.05-.42.09-.51.08.26.27,1.17-.01,1.29-.99.42-1.93-1.01-1.31-1.85l.69.05Z"/>
    <path class="cls-3" d="M19.64,23.15c-.27.76-.83.29-1.37.13-.18-.05-1.02-.18-1.04-.3l.07-.21c.78.05,1.57.18,2.34.37Z"/>
    <path class="cls-3" d="M19.26,25.56c-.61-.53-1.3-.97-2.03-1.3l-.89-.29c1,0,2.03.63,2.73,1.3.05.05.25.22.19.29Z"/>
    <path class="cls-3" d="M10.75,20.61c-.08.13-.26.17-.38.28-.19.17-.29.4-.51.54.1-.4.47-.79.89-.82Z"/>
    <path d="M25.04,9.28s.17-.28,0-.29l-.38.76c-.04-.32.02-.62.06-.93,0-.07.05-.17-.06-.15-.09.29-.33.52-.57.7.04-.29.09-.59.17-.87s.21-.51.33-.78l-1.01.89c.07-.6.42-1.11.63-1.65l-1.14.95c.15-.58.4-1.11.7-1.62,0-.19-.07-.04-.12.01-.2.23-.39.48-.65.66.27-.99,1.07-2.08,1.84-2.76.13-.11.83-.69.92-.73.03-.01.1-.02.09.03-.08.17-.39.35-.35.54.47-.25.95-.52,1.49-.57l-.82.76c.41-.17.82-.38,1.27-.38l-.95,1.08c.36-.12.69-.33,1.08-.36.1,0,.16-.02.19.1-.42.05-.73.45-1.08.67.33.06.71-.27,1.01,0l-.95.67c-.02.1.09.06.16.06.17,0,.34,0,.51,0l.03.13-.76.51.89-.03-.57.7.32.16c-.08,0-.44.39-.45.43-.03.22.22.58.13.84l-.25-.38-.06,1.08-.32-.51c.01.45,0,.9-.13,1.33l-.32-.51c-.03.52-.04,1.11-.29,1.59l-.29-1.78-.19.54-.13.16c.02-.35-.02-.7,0-1.05Z"/>
    <path d="M18.57,13.19c-.1,1.22-1.07,1.7-2.2,1.71-.24,0-.98-.17-1.08-.07-.12.12-.21.73-.09.89l-.38-.32c-.26.64-.09,1.32.06,1.97-.35-.35-.61-.97-.7-1.46l-.51,1.08c-.14-.47-.07-.94.1-1.4.2-.55,1.4-2.91,1.78-3.24,1.05-.91,2.84-.23,3.97.22-.17.37-.57.55-.94.61ZM16.59,12.61c-.48-.01-.86.29-.83.79.07,1.19,1.63,1.28,2.15.37.48-.83.06-1.08-.75-1.16.92,1.04-.71,1.83-.82.47-.02-.2.27.09.32-.13.02-.11-.11-.15-.19-.16l.13-.19Z"/>
    <path d="M24.58,18.34c.46-.11.65.62.65.97,0,.61-.37,1.58-.98,1.81-.53.2-.9-.29-.85-.78.04-.41.77-1.91,1.18-2.01Z"/>
    <path d="M23.56,16.82c.1.09.26.38.26.52,0,.26-.36,1.25-.54,1.43-1.08,1.05-1.58-1.99-.48-2.21.18-.04.62.15.76.26Z"/>
    <path d="M15.72,9.11c.06.08.27-.03.29.12.4,1.09-.67,2.24-1.32,3.01.01-.5.1-.99.21-1.47.06-.28.3-.81.3-1.03,0-.29-.68-1.26,0-1.47.44-.14.38.67.52.85Z"/>
    <path d="M25.46,15.68c.47.4.48,2.45-.33,2.39-.88-.06-.57-2.14.07-2.47.08-.02.19.02.25.07Z"/>
    <path d="M22.94,13.72l.1-.09c.59-.18,1.23,1.61,1.23,2.06,0,1.54-1.33-.54-1.33-.89v-1.08Z"/>
    <path d="M21.9,11.43c.36.34,1.1,1.91.3,2.01s-1.06-1.41-.98-2c.06-.48.45-.22.68,0Z"/>
    <path d="M17.09,8.86c-.2.12-1.17-.42-1.32-.59-.17-.19-.3-.64-.25-.89.06-.3.64-.58.89-.32.14.15.64,1.06.7,1.27.04.12.11.46-.01.53Z"/>
    <path d="M9.74,8.61l.54-.44c.08-.03.13.02.09.09-.05.13-.49.59-.61.79-.52.86-.55,1.73-.66,2.71l-.13.03c-.8-1.35.04-2.9,1.05-3.87.11.16-.37.6-.29.7Z"/>
    <path d="M20.95,14.62c-.11.09-.22.1-.33.03-.06-.04-.48-.74-.51-.83-.08-.27-.06-1.02-.03-1.31.05-.46.5-.04.67.16.34.4.63,1.58.2,1.95Z"/>
    <path d="M20.52,5.81c-.45-.09-1.97-.41-1.61-1.14.15-.29.62-.13.83-.12.31,0,.77-.14.93.27.14.35.04.7-.15.99Z"/>
    <path d="M12.91,7.5c.02-.12.93-2.17,1.02-2.29.18-.25.63-.56.95-.53.38.26-.67,1.29-.84,1.52-.2.27-.39.55-.56.84l-.56,1.44c.03-.3-.05-.7,0-.98Z"/>
    <path d="M21.78,14.02c.3-.1.78.66.83.93.05.29.11,1.46-.45,1.15-.36-.19-.68-.75-.68-1.17,0-.17.13-.86.3-.92Z"/>
    <path d="M21.66,16.37c.36.2.15,1.71-.32,1.91-.3.12-.73.02-.77-.33-.05-.39.63-1.85,1.1-1.58Z"/>
    <path d="M24.53,12.61c.55.12.9,1.04.95,1.56s-.03,1.3-.6.67c-.49-.54-.47-1.55-.35-2.22Z"/>
    <path d="M21.21,19.04c.25-.04.81.25.88.49.17.58-.97,1.24-1.4.89s.03-1.31.53-1.39Z"/>
    <path d="M17.59,6.59c.25-.02.8.72.92.96s.35.82.05.96c-.76.37-1.39-1.26-1.24-1.81.03-.05.21-.11.27-.11Z"/>
    <path d="M19.95,7.21c-.64.22-1.52-.42-1.52-1.1,0-.53.5-.56.89-.32.46.29.74.87.63,1.42Z"/>
    <path d="M20.46,9.75c-1.01-.23-1.48-1.1-1.39-2.09.22-.22,1.02.68,1.13.87.19.32.42.86.26,1.23Z"/>
    <path d="M23.35,13.09c-.52-.4-.76-1.32-.59-1.94.32-.27,1.11,1.03,1.18,1.33.12.56,0,1.07-.58.61Z"/>
    <path d="M19.64,9.95c.78-.03,1.64,1.21,1.08,1.87-.52.33-1.26-1.45-1.08-1.87Z"/>
    <path d="M22.77,10.56c-.26-.23-1-1.79-.78-1.95.28,0,.53.21.7.41.22.27.94,1.42.6,1.68-.15.1-.39-.04-.51-.15Z"/>
    <path d="M17.84,9.07c.62-.21,1.91,1.08,1.35,1.42-.4.24-2.01-.86-1.35-1.42Z"/>
    <path d="M19.97,15.17c.26-.24.75.06.81.4.16,1.01-.92,1.89-1.01.69-.02-.22.05-.95.21-1.09Z"/>
    <path d="M18.88,14.45l-.73,1.27-.25-.13c-.14.03-.24.86-.77.51-.25-.16-.07-.67-.47.03-.19.13-.36-.4-.19-.51.04-.03.65-.16.84-.24.24-.1.61-.3.83-.44.11-.07.68-.55.74-.49Z"/>
    <path d="M20.29,7.04c.15-.18.67.25.78.36.34.35,1.1,1.47.01,1.19-.42-.11-1.07-1.2-.79-1.56Z"/>
    <path d="M17.39,5.85c-.4-.41-.54-.95.19-1.04.08-.01.58.03.63.06.62.35-.33,1.37-.67,1.18-.06-.04-.1-.14-.15-.2Z"/>
    <path d="M20.06,19.38c-.7.7-1.44-.35-.55-1.03.72-.55,1.02.56.55,1.03Z"/>
    <path d="M15.85,6.18c-.48-.57.31-1.18.93-.52.37.39.39,1.1-.28.98-.12-.02-.57-.37-.65-.46Z"/>
    <path d="M25.04,12.17c-.31.05-.58-.35-.71-.59-.09-.16-.49-1.31-.43-1.38.83.28,1.36,1.08,1.14,1.97Z"/>
    <path d="M16.72,9.88l.34-.25c.83.63-.52,1.25-.91,1.71-.06-.25.19-.41.25-.6.06-.2-.22,0-.25-.03-.1-.2.34-1.2.48-1.2l.1.38Z"/>
    <path d="M17.35,21.75l-.7.06c-.04-.69-.36-1.3-.76-1.84.81.2,1.35.98,1.46,1.78Z"/>
    <path d="M19.25,4.16c-.59.31-1.49.58-1.71-.27.47-.41,1.12-.11,1.66-.01l.05.28Z"/>
    <path d="M19.43,16.76c.78-.04.28,1.3-.31,1.24-.52-.34-.3-1.21.31-1.24Z"/>
    <path d="M19.75,20.18c1.03-.14.14,1.36-.62.97-.33-.44.17-.91.62-.97Z"/>
    <path d="M19.75,13.84c.22.27.11,1.41-.44,1.24s-.07-1.88.44-1.24Z"/>
    <path d="M10.75,6.77c.03.12-.07.15-.13.22-.23.28-.57.55-.82.83-.3.33-.51.85-.95.98-.15-.17.75-1.29.92-1.46.26-.26.59-.58.98-.57Z"/>
    <path d="M20.97,9.18c.46-.13,1.33,1.46.92,1.59-.33.1-1.09-1.24-.92-1.59Z"/>
    <path d="M16.16,5.11c-.13-.12-.17-.53.06-.64.2-.09,1.21-.22,1.25.06.03.19-1.03.84-1.31.58Z"/>
    <path d="M7.93,9.69c.25-.06.32,1.19.28,1.36-.08.43-.65-.1-.69-.45-.05-.39.21-.62.41-.92Z"/>
    <path d="M12.83,10.91s.27.62.29.69c.07.29.08.63-.25.73-.5.04-.45-1.22-.28-1.51.03-.02.2.04.24.08Z"/>
    <path d="M14.58,7.45c-.34-.34.49-1.5.73-.95.22.49-.12,1.28-.73.95Z"/>
    <path d="M18.41,19.86c1.22-.28.39,1.38-.33.81-.09-.29-.01-.73.33-.81Z"/>
    <path d="M19.25,16.28c-.07.05-.28.02-.37-.02-.51-.23-.18-1.5.31-1.07.23.2.27.97.06,1.1Z"/>
    <path d="M18.03,16.24c.38-.11.82.52.52.9-.52.65-1.17-.71-.52-.9Z"/>
    <path d="M13.16,5.12c.13.14-.73.98-.86,1.08-.11.08-.6.39-.67.16-.09-.34,1.17-1.22,1.52-1.24Z"/>
    <path d="M16.72,11.22l.72-.52c.38-.29.95.04,1,.46-.06-.02-.14.06-.16.06h-1.56Z"/>
    <path d="M11.7,5.82c-.59.26-1.03.87-1.71.89.06-.35.42-.57.7-.73.22-.13.97-.59,1.02-.16Z"/>
    <path d="M13.16,10.02c.04.32.61,1.18.44,1.44-.24.22-.63-.35-.68-.54s-.08-1.09.23-.9Z"/>
    <path d="M15.02,5.14c.13-.09.69-.15.73.09.03.17-.43.77-.59.79-.56.06-.38-.72-.14-.87Z"/>
    <path d="M11.07,12.55l-.13-.04c-.21-.25.32-1.8.48-1.8.16.15.1.45.08.65-.05.43-.24.81-.43,1.19Z"/>
    <path d="M15.93,21.12c.31.08-.35.33-.41.35-.33.12-1.18.45-1.14-.12.03-.08.47-.23.53-.23.25,0,.82-.05,1.02,0Z"/>
    <path d="M17.27,17.64c.82-.28.99.59.36.74-.7.16-.59-.66-.36-.74Z"/>
    <path d="M17.15,17.29c-.31.31-1.05-.41-.68-.78s.94.52.68.78Z"/>
    <path d="M17.18,19.58c-.08-.17-.29-.42-.15-.59.22-.17.53-.22.77-.06.24.5-.14.78-.62.65Z"/>
    <path d="M10.62,7.79c-.07-.33.36-.92.67-.95.91-.09-.42,1.2-.67.95Z"/>
    <path d="M14.69,5.95c.27.19-.54,1.47-.82,1.07-.16-.22.61-1.21.82-1.07Z"/>
    <path d="M13.39,9.44c.26-.08.9.86.54,1.05-.42.21-.84-.96-.54-1.05Z"/>
    <path d="M14.95,4.43c.22-.08.88-.52.95-.1-.04.67-.83.79-.95.1Z"/>
    <path d="M18.61,18.21c.61-.14.49.57.07.71-.8.25-.52-.6-.07-.71Z"/>
    <path d="M10.81,11.03c.08.22-.12,1.29-.35,1.32-.26.03-.17-.58-.13-.75.04-.2.21-.62.48-.57Z"/>
    <path d="M11.77,9.12c.06.05-.47,1.33-.82,1.21-.13-.14.4-1.38.82-1.21Z"/>
    <path d="M16.89,18.34c.19.19-.04.41-.27.43-.56.06-.49-.26-.48-.7.04-.04.69.21.74.27Z"/>
    <path d="M12.46,6.45c-.02.47-.33.91-.73,1.14-.26-.01.19-.78.27-.87.12-.14.27-.25.46-.27Z"/>
    <path d="M14.36,8.47c-.62.05-.33-.6-.18-.94.53.09.43.6.18.94Z"/>
    <path d="M16.26,17.8c-.36.22-.63-.08-.55-.46.1-.54.89.05.55.46Z"/>
    <path d="M13.23,6.07c.06.46-.32.89-.67,1.14-.13-.09-.07-.09-.05-.17.03-.16.51-1.18.72-.97Z"/>
    <path d="M11.39,8.11c-.05.14-.81,1.11-.95.95.07-.42.46-1.12.95-.95Z"/>
    <path d="M10.12,11.79c-.48-.04-.08-1.19.16-1.14.28.36-.07.78-.16,1.14Z"/>
    <path d="M13.29,8.3c.03.22.2.3.2.54,0,.09-.09.5-.23.48-.16-.03-.29-.33-.29-.48,0-.11.19-.66.32-.54Z"/>
    <path d="M9.8,13.82l-.13-1.97c.12.03.13.16.16.25.19.55.17,1.17-.03,1.71Z"/>
    <path d="M13.93,7.09c.05.23-.27,1.2-.57.95-.17-.15.21-1.08.57-.95Z"/>
    <path d="M14.18,9.31c-.43.07-.55-.48-.38-.79.5-.02.48.42.38.79Z"/>
    <path d="M11.39,8.74c-.13-.15.37-.99.63-1.02.04.4-.2.95-.63,1.02Z"/>
    <path d="M12.46,8.93c.05.22-.49,1.33-.6,1.33-.31,0,.25-.93.31-1.02.08-.11.16-.25.29-.31Z"/>
    <path d="M12.97,5.82s.68-1.11.76-.66c.04.21-.49.76-.76.66Z"/>
    <path d="M13.16,18.2c.06.5-.07.78-.51,1.02,0-.31.17-.65.34-.9.05-.08,0-.16.16-.12Z"/>
    <path d="M8.4,10.52c-.09.02-.08-.12-.09-.19-.09-.38-.2-1.02.16-1.27.09.48-.13.97-.06,1.46Z"/>
    <path d="M14.24,10.33c-.02-.18-.12-.35-.12-.54,0-.31.26-.31.35-.04.04.12.07.47-.03.55l-.19.03Z"/>
    <path d="M10.12,10.14c.07.18-.12.81-.35.76-.27-.06.09-.8.35-.76Z"/>
    <path d="M15.58,16.04c.28-.09.62.55.35.63-.28.08-.42-.44-.35-.63Z"/>
    <path d="M16.32,19.29c.4-.11.59.42.18.44-.36.02-.42-.37-.18-.44Z"/>
    <path d="M10.94,9.12c.06.07-.13.75-.38.7-.15-.33.02-.65.38-.7Z"/>
    <path d="M10.18,9.25c.06.16-.14.92-.35.89-.22-.04.12-.64.17-.72.04-.06.1-.15.18-.17Z"/>
    <path d="M13.48,12.29c.23.17.38.64.09.82-.28-.2-.13-.55-.09-.82Z"/>
    <path d="M11.77,12.68c-.31-.16-.15-.83.06-1.02.1.34-.02.68-.06,1.02Z"/>
    <path d="M12.46,10.45c.02.3-.05.62-.15.9-.02.07-.02.19-.11.18.01-.34-.06-.64.09-.96.05-.09,0-.15.16-.12Z"/>
    <path d="M12.53,7.6c.12-.01.05.13.03.19-.06.3-.14.67-.38.88-.14-.09-.03-.25.01-.37.09-.25.27-.46.34-.71Z"/>
    <path d="M13.84,21.32c.18-.01.31.27.11.43-.33.24-.52-.4-.11-.43Z"/>
    <path d="M17.58,20.23c.11-.03.24.2.28.3l-.08.15c-.44.3-.41-.4-.19-.45Z"/>
    <path d="M14.18,12.42c-.13.12-.19-.23-.19-.29,0-.16.05-.41.16-.54.14.12.12.75.03.82Z"/>
    <path d="M19.58,12.23c-.11-.07-.21-.28-.27-.4-.07-.16-.14-.37-.18-.55.34.2.48.57.44.95Z"/>
    <path d="M13.03,21.57c.13.13-.07.47-.21.44-.13-.11-.18-.25-.1-.41l.32-.03Z"/>
    <path d="M13.03,24.73c-.13.2-.64-.08-.31-.28.22-.14.42.12.31.28Z"/>
    <path d="M15.89,19.09c-.29.03-.35-.2-.32-.44.27-.05.33.23.32.44Z"/>
    <path d="M12.72,13.44c-.23.04-.32-.54-.16-.57.22-.05.15.46.16.57Z"/>
    <path d="M15.29,17.69l.28.23-.15.21c-.15.04-.3-.41-.13-.44Z"/>
    <path d="M11.87,24.43c.17-.05.3.02.4.15-.17.28-.75-.05-.4-.15Z"/>
    <path d="M19.39,34.25c-.52-1.29.7-2.42,1.71-3,.5-.29.81-.45,1.42-.35.91.14.15,1.26-.17,1.67-.48.62-1.16,1.05-1.87,1.37-.2.09-.93.42-1.09.32Z"/>
    <path d="M18.22,33.32c.92-.21.73.9.57,1.46-.35,1.24-1.75,1.9-2.43,2.97-.44-1.1-.32-2.25.44-3.17.19-.23,1.18-1.2,1.41-1.26Z"/>
    <path d="M25.4,31.23c1.22-.19.6,1.04.15,1.54-.39.43-2.1,1.6-2.64,1.67s-.85-.09-.61-.68c.07-.19.85-1.08,1.03-1.26.4-.38,1.56-1.2,2.08-1.28Z"/>
    <path d="M26.03,27.67c.9-.14.76.41.51,1.01-.52,1.21-.92,1.54-2.08,2.11-.45.22-1.08.66-1.01-.25.08-1.02,1.55-2.72,2.58-2.88Z"/>
    <path d="M26.03,23.99c.38-.01.29.56.27.84-.08,1.23-.41,1.96-1.5,2.56-.83.46-1.13.25-1.04-.72.07-.8,1.48-2.65,2.27-2.68Z"/>
    <path d="M28.05,23.31c.57-.59.93.2.93.77,0,.8-.33,1.88-.96,2.41-.49.41-1.34.87-1.39-.14-.03-.69.93-2.54,1.42-3.04Z"/>
    <path d="M21.15,34.34c.5-.08.51.24.46.65-.1.8-1.67,2.04-2.33,2.5-1.82,1.26-.93-.51-.41-1.36.43-.71,1.43-1.65,2.28-1.78Z"/>
    <path d="M21.04,27.66c.23.16-.19,1.79-.29,2.09-.21.62-.72,1.41-1.24,1.81-.31.24-.85.44-.89-.12-.06-1.01.66-2.15,1.3-2.89.13-.15.95-1,1.11-.89Z"/>
    <path d="M17.39,30.74c.46-.38.87-.66.92.18.08,1.3-.49,2.1-1.49,2.83-.27.2-.36.17-.5-.13-.44-.91.37-2.29,1.08-2.88Z"/>
    <path d="M22.39,27.94c1.4-1.28,1.34.89.67,1.78-.55.72-2.11,1.34-1.72-.26.1-.43.73-1.22,1.06-1.51Z"/>
    <path d="M29.78,18.98c.37.37.2,2.21.05,2.72-.14.47-.73,1.27-1.2.69-.58-.7-.02-2.05.38-2.72.12-.19.52-.94.77-.69Z"/>
    <path d="M29.92,18.44c-.36.07-.61-.32-.75-.6-.49-1.02-.13-2.02,0-3.07.12-.14.62.68.67.76.49.95.51,1.93.09,2.91Z"/>
    <path d="M27.8,16.17c.1-.02.13.08.17.15.55.85.91,2.01.54,2.98-.08.22-.36.82-.65.56-.14-.13-.27-1.23-.28-1.49-.02-.3-.04-2.13.22-2.19Z"/>
    <path d="M27.49,20.56c.12-.04.2,0,.27.09.26.37.09,1.88-.1,2.31-.38.83-1.4.82-1.22-.33.05-.3.81-2,1.04-2.07Z"/>
    <path d="M7.64,15.09c-.71.34-1.55-.66-1.05-1.27.19.25.28.55.48.79.18.22.38.29.57.48Z"/>
    <path d="M7.13,15.53c.03.19.14.3.1.51-.02.14-.28.77-.48.63-.13-.38-.13-1.11.38-1.14Z"/>
    <path d="M7.25,17.43h-.18c-.3-1.01.68-1.11.18,0Z"/>
    <path class="cls-2" d="M16.59,12.61l-.13.19c.08.01.21.05.19.16-.05.22-.33-.08-.32.13.12,1.36,1.74.57.82-.47.81.08,1.23.34.75,1.16-.53.91-2.08.81-2.15-.37-.03-.5.35-.8.83-.79Z"/>
  </g>
  <rect class="cls-1" y="43.93" width="98.65" height="1.56"/>
</svg>